<svg xmlns="http://www.w3.org/2000/svg" viewBox="0 0 389.73 110.69">
  <defs>
    <style>
      .cls-1 {
        fill: #e4121e;
      }

      .cls-2 {
        fill: #fff;
      }

      .cls-3 {
        fill: #1a1a1a;
      }

      .cls-4 {
        fill: #3968b0;
      }

      .cls-5 {
        fill: #3263ad;
      }

      .cls-6 {
        fill: #d0d0d2;
      }

      .cls-7 {
        fill: #050506;
      }

      .cls-8 {
        fill: #fffffe;
      }

      .cls-9 {
        fill: #fefefe;
      }

      .cls-10 {
        fill: #fdfdfd;
      }

      .cls-11 {
        fill: #cacaaf;
      }

      .cls-12 {
        fill: #fefffd;
      }

      .cls-13 {
        fill: #c9c8ae;
      }

      .cls-14 {
        fill: #e52327;
      }

      .cls-15 {
        fill: #e52227;
      }

      .cls-16 {
        fill: #fcfcfc;
      }

      .cls-17 {
        fill: #f9dc06;
      }

      .cls-18 {
        fill: #c9c8ad;
      }

      .cls-19 {
        fill: #fcfcfb;
      }

      .cls-20 {
        fill: #efefef;
      }

      .cls-21 {
        fill: #090909;
      }

      .cls-22 {
        fill: #f08468;
      }

      .cls-23 {
        fill: #090707;
      }

      .cls-24 {
        fill: #f28e72;
      }

      .cls-25 {
        fill: #f5f5f5;
      }
    </style>
  </defs>
  <g id="Capa_2" data-name="Capa 2">
    <g id="Capa_1-2" data-name="Capa 1">
      <g>
        <path class="cls-1" d="M52.84,75H48.11l-2-5.34h-2l-1,5.35H38.87l3.29-17h6.59A6.37,6.37,0,0,1,53,59.36a4.17,4.17,0,0,1,1.51,3.36,7.53,7.53,0,0,1-1.05,4,5.86,5.86,0,0,1-3.2,2.48v0ZM44.9,65.84h2.61q2.61,0,2.61-2.43a1.5,1.5,0,0,0-.38-1.11,1.9,1.9,0,0,0-1.38-.38h-2.7Z"/>
        <path class="cls-1" d="M69.51,75H65.26l.94-4.85H59.72L58.78,75H54.61l1.91-9.85a9.73,9.73,0,0,1,2.85-5.5,8.27,8.27,0,0,1,5.73-1.94,7.14,7.14,0,0,1,4.81,1.49,5.2,5.2,0,0,1,1.73,4.16,7.68,7.68,0,0,1-.21,1.79ZM66.9,66.61l.27-1.43a7,7,0,0,0,.14-1.24c0-1.58-.88-2.36-2.65-2.36q-3.34,0-4,3.6l-.27,1.43Z"/>
        <path class="cls-1" d="M86.52,63.13h-4a3.38,3.38,0,0,0,0-.39c0-.93-.56-1.4-1.68-1.4a2.55,2.55,0,0,0-1.81.6,1.83,1.83,0,0,0-.63,1.35,1.09,1.09,0,0,0,.53.93,3.54,3.54,0,0,0,1.34.51,17.36,17.36,0,0,1,1.72.4,12,12,0,0,1,1.72.61,3,3,0,0,1,1.34,1.18,3.68,3.68,0,0,1,.53,2,6,6,0,0,1-2,4.72,7.7,7.7,0,0,1-5.31,1.76,6.72,6.72,0,0,1-4.15-1.19A3.84,3.84,0,0,1,72.6,71a5.67,5.67,0,0,1,.07-.91h4.18a2.59,2.59,0,0,0,0,.49c0,.87.63,1.3,1.89,1.3a3.09,3.09,0,0,0,2-.53,1.76,1.76,0,0,0,.65-1.42,1.09,1.09,0,0,0-.53-.93,3.39,3.39,0,0,0-1.33-.5c-.52-.1-1.1-.24-1.72-.42A14.54,14.54,0,0,1,76,67.45a3.15,3.15,0,0,1-1.32-1.18,3.73,3.73,0,0,1-.53-2,6.1,6.1,0,0,1,1.93-4.64,7.11,7.11,0,0,1,5.07-1.82A5.94,5.94,0,0,1,85.05,59a4,4,0,0,1,1.52,3.29A5.35,5.35,0,0,1,86.52,63.13Z"/>
        <path class="cls-1" d="M99.53,75H87l3.28-17h12.53l-.75,3.84H93.83l-.55,2.84H100l-.65,3.32H92.64L92,71.19h8.27Z"/>
        <path class="cls-1" d="M116.46,75h-4.73l-2-5.34h-2l-1,5.35h-4.25l3.28-17h6.59a6.38,6.38,0,0,1,4.28,1.28,4.19,4.19,0,0,1,1.5,3.36,7.53,7.53,0,0,1-1,4,5.82,5.82,0,0,1-3.2,2.48v0Zm-7.94-9.19h2.61q2.61,0,2.61-2.43a1.54,1.54,0,0,0-.38-1.11,1.91,1.91,0,0,0-1.39-.38h-2.69Z"/>
        <path class="cls-1" d="M137.53,65a9.91,9.91,0,0,1-3,7.35,10.34,10.34,0,0,1-7.57,3,7.9,7.9,0,0,1-5.6-2.06,6.86,6.86,0,0,1-2.2-5.23,9.91,9.91,0,0,1,3-7.34,10.34,10.34,0,0,1,7.57-3,7.9,7.9,0,0,1,5.6,2.06A6.84,6.84,0,0,1,137.53,65Zm-10.18,6.51a5.54,5.54,0,0,0,4.13-1.71,5.79,5.79,0,0,0,1.67-4.2,4.06,4.06,0,0,0-1.06-2.91,3.71,3.71,0,0,0-2.85-1.13,5.35,5.35,0,0,0-4.08,1.71,5.87,5.87,0,0,0-1.63,4.22,4.11,4.11,0,0,0,1,2.91A3.6,3.6,0,0,0,127.35,71.53Z"/>
      </g>
      <g>
        <path class="cls-1" d="M315,65.29a9.91,9.91,0,0,1-3,7.35,10.34,10.34,0,0,1-7.57,3,7.88,7.88,0,0,1-5.6-2.06,6.87,6.87,0,0,1-2.21-5.23,9.88,9.88,0,0,1,3-7.34,10.32,10.32,0,0,1,7.57-3,7.9,7.9,0,0,1,5.6,2.06A6.87,6.87,0,0,1,315,65.29ZM304.8,71.8a5.58,5.58,0,0,0,4.14-1.71,5.79,5.79,0,0,0,1.67-4.2A4.1,4.1,0,0,0,309.55,63a3.71,3.71,0,0,0-2.86-1.13,5.38,5.38,0,0,0-4.08,1.71A5.91,5.91,0,0,0,301,67.78a4.11,4.11,0,0,0,1,2.91A3.59,3.59,0,0,0,304.8,71.8Z"/>
        <path class="cls-1" d="M329.77,75.3H325L323,70h-1.95l-1,5.35h-4.26l3.29-16.95h6.59A6.4,6.4,0,0,1,330,59.63a4.19,4.19,0,0,1,1.5,3.36,7.53,7.53,0,0,1-1.05,4,5.86,5.86,0,0,1-3.2,2.48v0Zm-7.94-9.19h2.61c1.74,0,2.6-.81,2.6-2.43a1.54,1.54,0,0,0-.37-1.11,1.91,1.91,0,0,0-1.39-.39h-2.69Z"/>
        <path class="cls-1" d="M346.43,75.3h-4.25l.94-4.85h-6.48l-.94,4.85h-4.17l1.91-9.85a9.73,9.73,0,0,1,2.85-5.5A8.27,8.27,0,0,1,342,58a7.12,7.12,0,0,1,4.81,1.49,5.2,5.2,0,0,1,1.73,4.16,7.68,7.68,0,0,1-.21,1.79Zm-2.61-8.42.28-1.43a7,7,0,0,0,.13-1.24c0-1.58-.88-2.36-2.65-2.36q-3.34,0-4,3.6l-.27,1.43Z"/>
        <path class="cls-1" d="M355.84,75.3h-6.29l3.28-16.95h5.68a8.6,8.6,0,0,1,5.85,1.84,6.2,6.2,0,0,1,2.11,4.92,10.1,10.1,0,0,1-2.74,7.36C361.89,74.36,359.27,75.3,355.84,75.3Zm-1.3-3.84h1.67a5.71,5.71,0,0,0,4.4-1.57,5.82,5.82,0,0,0,1.46-4.13c0-2.38-1.33-3.58-4-3.58h-1.76Z"/>
        <path class="cls-1" d="M386.23,65.29a9.92,9.92,0,0,1-3,7.35,10.32,10.32,0,0,1-7.57,3,7.9,7.9,0,0,1-5.6-2.06,6.86,6.86,0,0,1-2.2-5.23,9.91,9.91,0,0,1,3-7.34,10.35,10.35,0,0,1,7.57-3,7.88,7.88,0,0,1,5.6,2.06A6.84,6.84,0,0,1,386.23,65.29ZM376,71.8a5.54,5.54,0,0,0,4.13-1.71,5.75,5.75,0,0,0,1.67-4.2A4.06,4.06,0,0,0,380.78,63a3.71,3.71,0,0,0-2.85-1.13,5.38,5.38,0,0,0-4.08,1.71,5.91,5.91,0,0,0-1.62,4.22,4.15,4.15,0,0,0,1,2.91A3.6,3.6,0,0,0,376,71.8Z"/>
      </g>
      <path class="cls-1" d="M34.09,70.23a11,11,0,0,0-5.44-4.09V66Q34,63.1,34,56.48A11.12,11.12,0,0,0,30.64,48Q27.3,44.87,21,44.86H0V89.05H10.94V55h8.25q4,0,4,3.65t-4,3.58h-4.3V71h5.65a4.15,4.15,0,0,1,3.14,1.15A3.88,3.88,0,0,1,24.8,75q0,3.91-4.26,3.91H14.89V89.05h7.88q6.42,0,9.83-3.35A11.67,11.67,0,0,0,36,77,11.61,11.61,0,0,0,34.09,70.23Z"/>
      <path class="cls-1" d="M287.33,50.59q-6.1-5.93-17.5-5.93H254.25v44.1h10.93v-34h4.65q12.54,0,12.54,11.94T269.83,78.64h-.71V88.76h.71q11.4,0,17.5-5.94t6.1-16.11Q293.43,56.53,287.33,50.59Z"/>
      <path class="cls-2" d="M389.73,57.41a1.78,1.78,0,0,1-.56,1.32,1.94,1.94,0,0,1-1.37.53,1.37,1.37,0,0,1-1-.36,1.24,1.24,0,0,1-.39-.94,1.78,1.78,0,0,1,.56-1.32,1.89,1.89,0,0,1,1.37-.54,1.34,1.34,0,0,1,1,.37A1.24,1.24,0,0,1,389.73,57.41Zm-.23,0a1.12,1.12,0,0,0-.31-.82,1.1,1.1,0,0,0-.84-.31,1.69,1.69,0,0,0-1.21.47,1.5,1.5,0,0,0-.49,1.14,1.12,1.12,0,0,0,.31.83,1.1,1.1,0,0,0,.84.31,1.73,1.73,0,0,0,1.21-.47A1.54,1.54,0,0,0,389.5,57.44Zm-.82,1h-.26l-.32-.55h-.45l-.11.56h-.23l.31-1.54h.75a.51.51,0,0,1,.34.11.35.35,0,0,1,.13.29.59.59,0,0,1-.13.39.56.56,0,0,1-.37.19h0Zm-.32-1.36h-.56l-.11.61h.52a.4.4,0,0,0,.3-.1.37.37,0,0,0,.11-.27C388.62,57.18,388.53,57.1,388.36,57.1Z"/>
      <g>
        <path class="cls-2" d="M315.06,76.61c-.08.08-.27,0-.43-.18s-.21-.37-.13-.45a.53.53,0,0,0,.15-.32,1.1,1.1,0,0,0-.17-.78,2.44,2.44,0,0,0-.9-.82c-3.21-1.81-9.54-.23-12.67,1.23-1.5.69-5.18,2.78-4.16,4.92.46,1,2.1,1.58,3.69,2.12A17.07,17.07,0,0,1,303,83.4c5.51,3.1-1.36,9.75-6.77,9.85-2,.1-4.26-.84-4.3-2.8,0-.9.68-2.06,2.41-3.45.08-.07.27,0,.43.2s.21.37.12.43c-1.68,1.34-2.34,2.43-2.32,3.23,0,1.24,2.18,1.38,3,1.34,4.73-.12,11.54-5.94,7.47-8.23a18.55,18.55,0,0,0-2.45-1c-1.85-.64-3.74-1.28-4.48-2.86-1.19-2.55,2.22-4.77,4.09-5.64,3.35-1.56,9.81-2.92,13.23-1A3.85,3.85,0,0,1,315,74.88a1.89,1.89,0,0,1,.33,1.24A.76.76,0,0,1,315.06,76.61Z"/>
        <path class="cls-2" d="M310.35,84c.08.19,0,.31-.13.27a.78.78,0,0,1-.43-.39c-.39-.37-1.34.08-1.69.37a3.84,3.84,0,0,0-1.35,2.18c.68-.2,2.45-2.26,2.45-2.26s.26,0,.43.16.22.33.16.43a2,2,0,0,0-.16,1.15c.08.46,2.61-1.66,2.65-1.68a.25.25,0,0,1,.39,0c.16.18.14.33.06.41a17.66,17.66,0,0,1-2.57,2.1c-.9.47-1.58.2-1.56-.76-.7.66-1.42,1.27-1.85,1.07a1,1,0,0,1-.62-1.11,2.52,2.52,0,0,1,.21-.74,4.7,4.7,0,0,1,1.21-1.55C308.43,82.88,310,82.84,310.35,84Z"/>
        <path class="cls-2" d="M316.44,77.13c.06-.09.24,0,.41.12s.26.37.2.47l-4.36,7a9.55,9.55,0,0,1,2.24-1.69.83.83,0,0,1,.87,0l0,0a1.11,1.11,0,0,1,.43.89,2.39,2.39,0,0,1-.12.8c-.31,1-1.1,2.28-2,2.48a1.37,1.37,0,0,1-1.85-1c-.93.94-1.64,1.75-1.66,1.75s-.23,0-.39-.13-.25-.37-.19-.47Zm-1,6.58a12.06,12.06,0,0,0-2.62,2.07c0,.21.05,1,.87.85s1.52-1.38,1.79-2.33a3.09,3.09,0,0,0,.14-.67Zm.3-.11s0,0,0,0h0Z"/>
        <path class="cls-2" d="M317.89,83.34c.07,0,.27,0,.43.2s.19.37.11.45a.58.58,0,0,0-.15.11,4.09,4.09,0,0,0-1,1.58,2.1,2.1,0,0,0-.13,1.17.57.57,0,0,0,.37,0,1.69,1.69,0,0,0,.58-.37,3.67,3.67,0,0,0,.76-1,4.13,4.13,0,0,0,.31-.8,2.8,2.8,0,0,1-.76-1,2,2,0,0,1-.19-1,.51.51,0,0,1,.39-.51,1,1,0,0,1,.48.1,1.38,1.38,0,0,1,.6.66,2.1,2.1,0,0,1,.22.71,2.88,2.88,0,0,1,0,.83,2.44,2.44,0,0,0,1.75-.23c.1-.06.2-.14.35,0s.12.31,0,.37a2.63,2.63,0,0,1-2.2.37,3.36,3.36,0,0,1-.37,1,3.5,3.5,0,0,1-.8,1.09,1.78,1.78,0,0,1-.66.41.93.93,0,0,1-.76-.08,1.56,1.56,0,0,1-.39-.31l-.11-.12a2.24,2.24,0,0,1-.08-1.85,4.05,4.05,0,0,1,1-1.67Zm1.42.84a3.16,3.16,0,0,0,0-.87,1.6,1.6,0,0,0-.1-.43h0a.16.16,0,0,0-.14,0c-.11,0-.17.11-.19.29a1.24,1.24,0,0,0,.11.6A1,1,0,0,0,319.31,84.18Z"/>
        <path class="cls-2" d="M322.89,82.24c.06-.1.25,0,.41.11s.25.37.19.47L322.77,84c.68-.34,1.62-.65,2-.16.17.2.11.64.37.66a4.85,4.85,0,0,0,1.44-.21c.11,0,.23-.14.35,0s.06.25-.06.27a6.61,6.61,0,0,1-1.91.33c-.5,0-.66-.17-1.09-.68-.29-.35-2,1.19-2,1.19s-1.05,1.73-1.15,1.91-.25,0-.41-.12-.25-.37-.19-.47Z"/>
        <path class="cls-2" d="M333,85a.36.36,0,0,1-.47,0c-.15-.18.26-.53.33-.61l1.46-1.77c.26-.27.45-.43.45-.43s.27,0,.41.18.23.37.16.45l-.47.44a2.61,2.61,0,0,0-.74,2.2,2.08,2.08,0,0,1-.1,1.35,1.72,1.72,0,0,1-.37.43,1.43,1.43,0,0,1-.45.21,1.06,1.06,0,0,1-.75-.1,1.19,1.19,0,0,1-.51-1.67c.06-.1.23-.06.41.1a.53.53,0,0,1,.21.47s-.27.5-.23.52a.63.63,0,0,0,.39,0,.81.81,0,0,0,.39-.18.8.8,0,0,0,.29-.34,1.63,1.63,0,0,0,.1-1.08c0-.25-.18-.27.29-1.12Z"/>
        <path class="cls-2" d="M337.35,82.78c.1-.08.29,0,.45.17s.21.37.12.45a7.93,7.93,0,0,0-1.56,2c-.27.54-.25.85-.06.95.8.12,3-2,3-2s.21-.24.37-.06.1.23,0,.31-3.25,3.5-4.09,2a2,2,0,0,1,.2-1.81A7.56,7.56,0,0,1,337.35,82.78Zm1.21-.56c-.08.09-.27,0-.43-.14s-.23-.37-.15-.47l1.09-1.24c.07-.1.25,0,.42.13s.22.37.16.47Z"/>
        <path class="cls-2" d="M339.88,83.21c.06-.1.26-.06.41.1s.25.37.2.46l-.49.88c1.05-.88,2.2-1.73,2.63-1.62h0a.73.73,0,0,1,.54,1,5,5,0,0,1-.33.76c-.25.51-.55,1.07-.55,1.07.63.41,2.73-1.44,2.75-1.44s.27-.33.43-.15.06.19,0,.29-2.12,2.51-3.14,1.85-.44-1.42-.07-2.18c.07-.16.15-.31.21-.47a29.45,29.45,0,0,0-3.78,3.14c0,.07-.23,0-.39-.12s-.25-.37-.19-.47Z"/>
        <path class="cls-2" d="M357,84.38a.17.17,0,0,1,.28-.06c.15.09.25.25.21.31a28.09,28.09,0,0,1-5.55,4.57c-.7.37-1.86.72-2.35-.06-1.15-1.61,6.34-12.3,6.52-12.34a4.28,4.28,0,0,1,2-1.67,1,1,0,0,1,.63,0,.94.94,0,0,1,.66.62,2.11,2.11,0,0,1-.35,1.42c-1.25,2.5-6.45,6.45-6.46,6.46s0,0-.08,0c-1.42,2.48-2.44,4.71-2.16,5.3.17.25,1-.06,1.2-.16A28.18,28.18,0,0,0,357,84.38Zm-.35-7.17s-1.57,2.3-3.15,4.87c1.62-1.34,4.21-3.64,5-5.29a2.14,2.14,0,0,0,.33-1.25l-.25,0A4.41,4.41,0,0,0,356.6,77.21Z"/>
        <path class="cls-2" d="M358.14,82.78c.1-.08.29,0,.45.17s.21.37.12.45a7.93,7.93,0,0,0-1.56,2c-.27.54-.25.85-.06.95.8.12,3-2,3-2s.21-.24.37-.06.1.23,0,.31-3.25,3.5-4.09,2a2,2,0,0,1,.2-1.81A7.37,7.37,0,0,1,358.14,82.78Zm.76-1.09a1.11,1.11,0,0,0,.12-.16,1.63,1.63,0,0,0,.29-.64.54.54,0,0,1,.21-.25c.12-.08.41.13.39.23,0,.27-.74,1.37-1.3,1.21l0,0c-.06,0,0-.16.1-.25A.26.26,0,0,1,358.9,81.69Z"/>
        <path class="cls-2" d="M360.73,82.7c0-.09.23,0,.39.12s.27.35.21.47l-.35.6a6.32,6.32,0,0,1,1.56-1.21c1.21-.41,1,.92.62,2.1l.2-.09a1.18,1.18,0,0,1,.47-.14.73.73,0,0,1,.73.51,1.38,1.38,0,0,1-.05,1s2.08-1.69,2.1-1.69.25-.3.41-.12.15.27.08.35-4.68,4.93-3.22.91c0-.07,0-.13.06-.21l-.08,0a4.71,4.71,0,0,0-1.34,1.07v0c-.06.12-.23.08-.41-.08a.52.52,0,0,1-.21-.46s1.19-2.56,1.13-2.54c-1,.37-3.86,3.8-3.88,3.82s-.23,0-.39-.12-.25-.37-.19-.47Z"/>
        <path class="cls-2" d="M368,82.78c.1-.08.29,0,.45.17s.21.37.12.45a7.93,7.93,0,0,0-1.56,2c-.27.54-.25.85-.06.95.8.12,3-2,3-2s.21-.24.37-.06.1.23,0,.31-3.25,3.5-4.09,2a2,2,0,0,1,.2-1.81A7.37,7.37,0,0,1,368,82.78Zm1.21-.56c-.08.09-.27,0-.43-.14s-.23-.37-.16-.47l1.1-1.24c.07-.1.25,0,.42.13s.22.37.16.47Z"/>
        <path class="cls-2" d="M375.37,75.58c.06-.08.25,0,.41.14s.23.37.17.44-1.42,2-2.94,4.26h5a.65.65,0,0,1,.44.33c.12.2.1.36,0,.36h-5.83L371.36,83v0c0,.08,0,.12-.08.12-1.19,1.93-1.83,3-1.61,3.43.35.66,4.3-2.5,4.3-2.51s.19-.1.35.07,0,.27,0,.33-4.44,4.38-5.39,2.63c-.3-.54.6-2.41,1.85-4.47,0,0,.11-.22.11-.22,0-1.48-4.94-1.28-4.94-1.28a.64.64,0,0,1-.45-.36c-.12-.17-.1-.33,0-.33h6.58C373.71,77.87,375.35,75.6,375.37,75.58ZM371.07,82l.58-.93-2.43-.1A5.31,5.31,0,0,1,371.07,82Z"/>
        <path class="cls-2" d="M376,84.49a6.21,6.21,0,0,1-2,.59c-1.33,2.84,3.93.42,4.53-.67a.28.28,0,0,1,.43-.09c.15.15.15.23.1.35-.55,1-3.59,3-4.93,2.29a1.8,1.8,0,0,1-.91-1.9,3.16,3.16,0,0,1,.78-1.44,8,8,0,0,1,1.26-1.15,2.7,2.7,0,0,1,1.31-.59.84.84,0,0,1,.46.3.81.81,0,0,1,.23.7,1.4,1.4,0,0,1-.19.54A2.51,2.51,0,0,1,376,84.49Zm-1.38-.31a6.88,6.88,0,0,0,.87-.33,2.73,2.73,0,0,0,1-1l.1-.22a4.66,4.66,0,0,0-.76.47A7.38,7.38,0,0,0,374.65,84.18Z"/>
      </g>
      <path class="cls-3" d="M224,108.74c-3.19,0-8-3.19-18.43-10.19-3.92-2.62-8.74-5.83-14.32-9.43-5.61,3.61-10.44,6.83-14.38,9.46-10.45,7-15.22,10.14-18.4,10.14a3.84,3.84,0,0,1-3.14-1.49c-2.08-2.75-.56-8.11,3.51-22.43,1.25-4.39,2.77-9.77,4.42-15.92-5.85-4.83-10.92-8.79-15.05-12-10.95-8.56-15-11.76-13.87-15.41,1.25-3.87,7-4.08,25.84-4.79,4.05-.15,8.61-.32,13.77-.55,1.45-3.79,2.9-7.64,4.3-11.37,2.58-6.86,5.25-13.95,8-20.88l0-.08,0-.09c1.52-3,3.45-3.69,4.8-3.69,2.32,0,4.41,1.94,5.59,5.2,3.78,9.78,7.45,19.44,11.77,30.9,5.34.24,10,.42,14.2.57,18.64.69,24.27.9,25.51,4.75,1.17,3.63-2.93,6.83-13.91,15.38-4.14,3.23-9.24,7.2-15.12,12,1.63,6.09,3.1,11.26,4.4,15.86,4.09,14.4,5.63,19.79,3.54,22.55A3.81,3.81,0,0,1,224,108.74Z"/>
      <path class="cls-2" d="M217.38,67.44c13.25,49.72,17.67,45.83-25.25,18.31-43,27.5-38.5,31.39-25.28-18.27-37.48-31.1-43.79-27.17,8.52-29.55a1.48,1.48,0,0,0,1.56-1.17c4.16-10.84,8.12-21.77,12.45-32.54,2.09-4.2,4.77-2.21,6,1.28q6,15.59,11.89,31.24a1.59,1.59,0,0,0,1.68,1.2C261.21,40.31,255.07,36.27,217.38,67.44Z"/>
      <path class="cls-4" d="M222.77,101.25c-2.73-1.23-8.3-5-14.14-8.85-4.24-2.83-9.52-6.36-15.69-10.32l-1.61-1-1.6,1c-6.21,4-11.5,7.5-15.76,10.34-6.05,4-11.43,7.62-14.1,8.82.33-3,2.15-9.41,4.21-16.67,1.35-4.75,3-10.67,4.85-17.48l.49-1.84L168,64C161.54,58.71,156,54.4,151.6,50.94c-4.77-3.72-9.32-7.28-11.19-9.28,3.26-.7,11.15-1,20.05-1.33,4.17-.16,8.88-.33,14.23-.57a4.46,4.46,0,0,0,4.23-3.1c1.49-3.89,3-7.87,4.44-11.72,2.55-6.79,5.19-13.82,7.93-20.65l0,0a8.26,8.26,0,0,1,.49,1.08l0,.07c3.81,9.86,7.51,19.61,11.88,31.22A4.5,4.5,0,0,0,208,39.76c5.49.25,10.31.43,14.57.58,8.71.32,16.44.61,19.69,1.29-1.9,2-6.44,5.54-11.19,9.24-4.45,3.47-10,7.78-16.43,13.11L213.2,65.2l.5,1.85c1.8,6.77,3.48,12.67,4.82,17.41C220.6,91.77,222.44,98.26,222.77,101.25Z"/>
      <g>
        <path class="cls-5" d="M242.31,41.61a40.12,40.12,0,0,1-3.57,3.2l-1.24,1c-1.9,1.54-4.12,3.26-6.38,5l-.18.15-2.55,2h0c-.62.47-1.25,1-1.89,1.47l-3.65,2.89L222,58l-3.29,2.65-.77.62-.84.69-1.34,1.09-1.09.9-1.47,1.22.49,1.85.86,3.18h0c.06.24.13.48.19.72s.11.38.16.57.06.21.08.31q.84,3.06,1.61,5.81c.16.56.31,1.1.46,1.64s.25.86.37,1.29c.38,1.37.75,2.66,1.1,3.88,1,3.41,1.88,6.64,2.62,9.42.17.65.33,1.26.48,1.85s.32,1.31.46,1.9c.09.37.17.73.24,1.07.21,1,.37,1.87.44,2.55a37.3,37.3,0,0,1-3.71-2l-1.46-.91c-.64-.4-1.3-.83-2-1.28s-1.35-.87-2.05-1.33c-1.58-1-3.24-2.15-4.92-3.28L207,91.31l-1.52-1-4.73-3.13-1.48-1q-3-2-6.36-4.13l-.27-.17L191.35,81l-.2.13-1.41.9c-5.48,3.51-10.25,6.67-14.22,9.32l-1.53,1-3.81,2.53a97.31,97.31,0,0,1-10.29,6.29,46.51,46.51,0,0,1,1.23-5.86c.16-.64.34-1.31.52-2,.7-2.63,1.55-5.63,2.45-8.78v0q.41-1.41.84-3c1.18-4.17,2.55-9,4-14.51l.49-1.84-.8-.66-.1-.08L168,64l-1.64-1.35c-.93-.77-1.84-1.52-2.73-2.24l-3.42-2.76h0L156.81,55l-1.64-1.29-2.8-2.19-.76-.6-.77-.6-1.5-1.17-.9-.72c-.4-.3-.78-.61-1.16-.91a73.84,73.84,0,0,1-6.86-5.88c3.26-.7,11.15-1,20.06-1.33l4.69-.18,1.84-.07,2.61-.1,3.52-.15,1.56-.07h.19a4.55,4.55,0,0,0,2.62-1l0,0a4.9,4.9,0,0,0,1.4-2.07l.28-.73.72-1.9h0l2-5.34h0l1.25-3.32c0-.15.1-.29.16-.43,2.55-6.79,5.2-13.82,7.94-20.65v0a6.25,6.25,0,0,1,.49,1.08l0,.07c1.52,3.91,3,7.81,4.54,11.81l1,2.64h0c.13.35.27.69.4,1h0l.75,2h0c.35.93.71,1.86,1.07,2.8h0c.14.38.29.77.43,1.16h0q1.09,2.89,2.24,5.92l.48,1.26,1,2.59a5.1,5.1,0,0,0,.87,1.56,4.29,4.29,0,0,0,.69.66,4.74,4.74,0,0,0,2.19.86h0l.59.05.56,0,1.25.06,2,.09,10.7.41.95,0c4.06.15,7.87.29,11.07.48A60.91,60.91,0,0,1,242.31,41.61Z"/>
        <path class="cls-6" d="M241,50.12a15.08,15.08,0,0,0-2.26-5.31,14.52,14.52,0,0,0-4.1-4A14.31,14.31,0,0,0,233.2,40a2.66,2.66,0,0,1-.64-.52,9.46,9.46,0,0,1-2.62-6.61c0-.92,0-1.83,0-2.75s-.33-1.2-1.27-1.15a3.31,3.31,0,0,0-2.18,1.13,8.87,8.87,0,0,0-2.38,7.75c.08.58.28,1.15.42,1.74L224,40l-.41.34a6.75,6.75,0,0,0-2.21,3.21,4.41,4.41,0,0,0,.26,3.43,2.91,2.91,0,0,0,2.31,1.66c-.09.23-.18.41-.24.6a.88.88,0,0,1-.55.55,4.35,4.35,0,0,1-3.76.07,1.21,1.21,0,0,1-.77-.73,23.9,23.9,0,0,0-6.69-9.24c-.22-.2-.46-.39-.7-.58-.57-.46-1.18-.87-1.77-1.31.1-.58.19-1.15.29-1.74a5.68,5.68,0,0,1,.74-.37c.54-.18,1.1-.32,1.66-.47s.57-.2.56-.68a3.33,3.33,0,0,0-.14-1A5.51,5.51,0,0,0,208.19,30c-.05-.47-.09-1-.17-1.5a10.69,10.69,0,0,0-2.31-5.35,4.83,4.83,0,0,0-1.77-1.4,2.24,2.24,0,0,0-2.55.42c-.12.1-.23.21-.38.35-.14-.3-.27-.56-.39-.83A11,11,0,0,0,198.86,19a6.73,6.73,0,0,0-2.49-1.76,6.41,6.41,0,0,0-2.12-.44,10.52,10.52,0,0,0-4.27.71,4.21,4.21,0,0,0-1.27.76,1.65,1.65,0,0,0,0,2.72c.22.21.47.4.72.61l-.18.12a24.8,24.8,0,0,0-4.47,2.5c-.53.37-1,.75-1.54,1.16a17.59,17.59,0,0,0-3.38,3.51,9.53,9.53,0,0,0-1.65,3.67,4.87,4.87,0,0,0-.11,2c.17.78.56,1.26,1.14,1.37a1.89,1.89,0,0,0,1-.11,11.72,11.72,0,0,0,1.68-.88L182,35c0,.18-.05.35-.08.53a15.35,15.35,0,0,0,.18,7.1,7.06,7.06,0,0,0,1.52,3,2.14,2.14,0,0,0,3.42.06,8.7,8.7,0,0,0,1.05-1.44,15.24,15.24,0,0,0,.73-1.46c.57.9,1.14,1.69,1.59,2.55a5.22,5.22,0,0,1,0,5.15c-.23.43-.53.83-.81,1.25a1.78,1.78,0,0,1-1.73,1,.55.55,0,0,0-.17,0,17.08,17.08,0,0,0-5.32,1.89l-1,.52c0-.18,0-.28,0-.37a25.68,25.68,0,0,0,.09-7.68,15.29,15.29,0,0,0-3.72-8.19l-.22-.19,0,0v0a21.84,21.84,0,0,1,.29,4.74,13.8,13.8,0,0,1-1,4.53,2.9,2.9,0,0,1-.14-.76,22.38,22.38,0,0,0-1.8-7.51h0a16.64,16.64,0,0,0-8.4-8.76,12.3,12.3,0,0,0-7.85-1,7.26,7.26,0,0,0-4.77,3.12c-.11.17-.2.36-.3.55.58-.08,1.08-.18,1.6-.21a8.7,8.7,0,0,1,5.42,1.52,13,13,0,0,1,4.58,5.21,17.18,17.18,0,0,1,1.18,3.15l-.09.08-.21-.1a17,17,0,0,0-3.64-1.63,12.17,12.17,0,0,0-9.87.95,14.41,14.41,0,0,0-5.26,4.94,15.4,15.4,0,0,0-2.13,5.92,11.19,11.19,0,0,0,.53,5.47c0-.17.09-.26.11-.35a9.05,9.05,0,0,1,6.47-7l.11,0a7,7,0,0,1,4.91.2,5.46,5.46,0,0,1,2.07,1.52,9.44,9.44,0,0,0-4.18.47,10.05,10.05,0,0,0-3.41,2,12.94,12.94,0,0,0-3,4.1,17.45,17.45,0,0,0-.08,14.74c.05,0,.09-.07.1-.1a1.36,1.36,0,0,0,0-.17,18.5,18.5,0,0,1,4.25-9,9,9,0,0,1,3.11-2.47,3.11,3.11,0,0,1,.39-.12c-.29.52-.57,1-.8,1.41a18,18,0,0,0-1.83,8.14,17.47,17.47,0,0,0,.55,4.49,14.6,14.6,0,0,0,5.46,8.38,1.71,1.71,0,0,0,.39.17,1.66,1.66,0,0,0,0-.22,16.36,16.36,0,0,1-1-7,16.82,16.82,0,0,1,1.21-5c.05-.13.13-.26.26-.51,0,.34,0,.54,0,.73a19.8,19.8,0,0,0,1.08,7.29,11.42,11.42,0,0,0,2.22,4,6.82,6.82,0,0,0,1.57,1.27,4.82,4.82,0,0,0,0,.66,1.78,1.78,0,0,1-.33,1.17,21.12,21.12,0,0,0-1.07,2.19,9.26,9.26,0,0,1-.49,1.46,7.65,7.65,0,0,1-1.2,1,6.69,6.69,0,0,0-.94,1,3.49,3.49,0,0,0-.49.84,1.32,1.32,0,0,0,0,1.16A1.3,1.3,0,0,0,162,96a5.62,5.62,0,0,0,1.41.23,14.19,14.19,0,0,0,3.55-.42c1.1-.24,2.19-.52,3.26-.85L174,92.4l1.53-1c4-2.65,8.74-5.81,14.22-9.32l1.41-.9.2-.13,1.33.86.27.17q3.38,2.16,6.36,4.13l1.48,1,4.73,3.13,1.52,1a11.32,11.32,0,0,0,2.8-6.08.72.72,0,0,1,.47-.61c1.19-.56,2.39-1.09,3.54-1.73a27.27,27.27,0,0,0,3.59-2.33A22.1,22.1,0,0,0,221.85,76c.42-.57.8-1.18,1.16-1.73,1.15-.16,2.26-.25,3.35-.46a17.12,17.12,0,0,0,9.55-5.07A19.54,19.54,0,0,0,241,50.12ZM160.31,85.33v.07l.06,0Zm0,0v0h0Z"/>
        <path class="cls-7" d="M241,50.12a15.08,15.08,0,0,0-2.26-5.31,14.52,14.52,0,0,0-4.1-4A14.31,14.31,0,0,0,233.2,40a2.66,2.66,0,0,1-.64-.52,9.46,9.46,0,0,1-2.62-6.61c0-.92,0-1.83,0-2.75s-.33-1.2-1.27-1.15a3.31,3.31,0,0,0-2.18,1.13,8.87,8.87,0,0,0-2.38,7.75c.08.58.28,1.15.42,1.74L224,40l-.41.34a6.75,6.75,0,0,0-2.21,3.21,4.41,4.41,0,0,0,.26,3.43,2.91,2.91,0,0,0,2.31,1.66c-.09.23-.18.41-.24.6a.88.88,0,0,1-.55.55,4.35,4.35,0,0,1-3.76.07,1.21,1.21,0,0,1-.77-.73,23.9,23.9,0,0,0-6.69-9.24c-.22-.2-.46-.39-.7-.58-.57-.46-1.18-.87-1.77-1.31.1-.58.19-1.15.29-1.74a5.68,5.68,0,0,1,.74-.37c.54-.18,1.1-.32,1.66-.47s.57-.2.56-.68a3.33,3.33,0,0,0-.14-1A5.51,5.51,0,0,0,208.19,30c-.05-.47-.09-1-.17-1.5a10.69,10.69,0,0,0-2.31-5.35,4.83,4.83,0,0,0-1.77-1.4,2.24,2.24,0,0,0-2.55.42c-.12.1-.23.21-.38.35-.14-.3-.27-.56-.39-.83A11,11,0,0,0,198.86,19a6.73,6.73,0,0,0-2.49-1.76,6.41,6.41,0,0,0-2.12-.44,10.52,10.52,0,0,0-4.27.71,4.21,4.21,0,0,0-1.27.76,1.65,1.65,0,0,0,0,2.72c.22.21.47.4.72.61l-.18.12a24.8,24.8,0,0,0-4.47,2.5c-.53.37-1,.75-1.54,1.16a17.59,17.59,0,0,0-3.38,3.51,9.53,9.53,0,0,0-1.65,3.67,4.87,4.87,0,0,0-.11,2c.17.78.56,1.26,1.14,1.37a1.89,1.89,0,0,0,1-.11,11.72,11.72,0,0,0,1.68-.88l.13,0L182,35c0,.18-.05.35-.08.53a15.35,15.35,0,0,0,.18,7.1,7.06,7.06,0,0,0,1.52,3,2.14,2.14,0,0,0,3.42.06,8.7,8.7,0,0,0,1.05-1.44,15.24,15.24,0,0,0,.73-1.46c.57.9,1.14,1.69,1.59,2.55a5.22,5.22,0,0,1,0,5.15c-.23.43-.53.83-.81,1.25a1.78,1.78,0,0,1-1.73,1,.55.55,0,0,0-.17,0,17.08,17.08,0,0,0-5.32,1.89l-1,.52c0-.18,0-.28,0-.37a25.68,25.68,0,0,0,.09-7.68,15.29,15.29,0,0,0-3.72-8.19l-.22-.19,0,0v0a21.84,21.84,0,0,1,.29,4.74,13.8,13.8,0,0,1-1,4.53,2.9,2.9,0,0,1-.14-.76,22.38,22.38,0,0,0-1.8-7.51h0a16.64,16.64,0,0,0-8.4-8.76,12.3,12.3,0,0,0-7.85-1,7.26,7.26,0,0,0-4.77,3.12c-.11.17-.2.36-.3.55.58-.08,1.08-.18,1.6-.21a8.7,8.7,0,0,1,5.42,1.52,13,13,0,0,1,4.58,5.21,17.18,17.18,0,0,1,1.18,3.15l0,.14-.11-.06-.21-.1a17,17,0,0,0-3.64-1.63,12.17,12.17,0,0,0-9.87.95,14.41,14.41,0,0,0-5.26,4.94,15.4,15.4,0,0,0-2.13,5.92,11.19,11.19,0,0,0,.53,5.47c0-.17.09-.26.11-.35a9.05,9.05,0,0,1,6.47-7l.11,0a7,7,0,0,1,4.91.2,5.46,5.46,0,0,1,2.07,1.52,9.44,9.44,0,0,0-4.18.47,10.05,10.05,0,0,0-3.41,2,12.94,12.94,0,0,0-3,4.1,17.45,17.45,0,0,0-.08,14.74c.05,0,.09-.07.1-.1a1.36,1.36,0,0,0,0-.17,18.5,18.5,0,0,1,4.25-9,9,9,0,0,1,3.11-2.47,3.11,3.11,0,0,1,.39-.12c-.29.52-.57,1-.8,1.41a18,18,0,0,0-1.83,8.14,17.47,17.47,0,0,0,.55,4.49,14.6,14.6,0,0,0,5.46,8.38,1.71,1.71,0,0,0,.39.17,1.66,1.66,0,0,0,0-.22,16.36,16.36,0,0,1-1-7,16.82,16.82,0,0,1,1.21-5c.05-.13.13-.26.26-.51,0,.34,0,.54,0,.73a19.8,19.8,0,0,0,1.08,7.29,11.42,11.42,0,0,0,2.22,4,6.82,6.82,0,0,0,1.57,1.27,4.82,4.82,0,0,0,0,.66,1.78,1.78,0,0,1-.33,1.17,21.12,21.12,0,0,0-1.07,2.19,9.26,9.26,0,0,1-.49,1.46,7.65,7.65,0,0,1-1.2,1,6.69,6.69,0,0,0-.94,1,3.49,3.49,0,0,0-.49.84,1.32,1.32,0,0,0,0,1.16A1.3,1.3,0,0,0,162,96a5.62,5.62,0,0,0,1.41.23,14.19,14.19,0,0,0,3.55-.42c1.1-.24,2.19-.52,3.26-.85L174,92.4l1.53-1a48.7,48.7,0,0,1-8.16,2.49,16.16,16.16,0,0,1-3.73.42,7.2,7.2,0,0,1-.86-.09,3.34,3.34,0,0,1,1.09-1.46c.24-.24.47-.49.72-.71a40.63,40.63,0,0,1,6.3-4.28c2.88-1.63,5.82-3.18,8.73-4.76a3.81,3.81,0,0,0,.41-.29c-.6.19-1.22.35-1.81.57a55,55,0,0,0-11.12,5.56c-.63.41-1.23.88-1.84,1.32l-.12.09,0-.18a19.67,19.67,0,0,1,3.43-4.62c.57-.58,1.18-1.12,1.76-1.67a52.52,52.52,0,0,1,5.75-4.45c1.55-1.08,3.11-2.14,4.67-3.21a1.79,1.79,0,0,0,.25-.23h0l-.15,0h-.2l-.06,0a37.51,37.51,0,0,0-12.79,8.72l-.26.21a7.82,7.82,0,0,1,1.35-3.36l.14-.16h0c.34-.51.64-1.05,1-1.53a43.74,43.74,0,0,1,6.88-7c1.75-1.45,3.58-2.77,5.38-4.16.13-.1.24-.23.37-.35a4.06,4.06,0,0,0-.62.19,33.1,33.1,0,0,0-7.16,4.6A37,37,0,0,0,168,80.42l-.56.8c0-.24,0-.37.07-.48a16.63,16.63,0,0,1,2.33-4.86.06.06,0,0,1,.1,0h0l.12-.24h0c.61-.83,1.19-1.69,1.84-2.49a52.13,52.13,0,0,1,7.7-7.37l2-1.58h0l-.13,0-.07,0a1.77,1.77,0,0,0-.33.08,22.05,22.05,0,0,0-4.92,3.24A47.61,47.61,0,0,0,169,75.21l-.37.45-.09.17-.07,0,.06-.23c.31-1,.62-2,.94-3.06a30.82,30.82,0,0,1,11.24-15.07,17.66,17.66,0,0,1,7-3.06,9.56,9.56,0,0,1,4.32.12,7.23,7.23,0,0,1,4.92,4.66,14,14,0,0,1,.86,4.79c0,.38,0,.75,0,1.13a21.59,21.59,0,0,1-2,9.19,25.29,25.29,0,0,1-4.65,6.88l.2-.13,1.33.86a26.81,26.81,0,0,0,6.07-12,26.36,26.36,0,0,0,.45-8.07c-.08-.89-.2-1.78-.29-2.63l1.91-1.55A4.2,4.2,0,0,0,204.91,61c1.51.07,2.8-.75,3.55-2.69l.27.39a3.24,3.24,0,0,0,5.34.16,5.7,5.7,0,0,0,1-2.4c0-.15.07-.3.12-.49a3.48,3.48,0,0,0,3.1.47c1.12-.47,1.38-1.5,1.64-2.58.26.49.51,1,.77,1.46l.21.4.12.24.19.37c.06.11.11.23.17.34l.24.53.08.17c.1.22.2.45.29.67v0a1.8,1.8,0,0,1,.08.21h0c.06.16.12.32.19.48l0,.1.12.33c.23.64.44,1.28.61,1.94l.09.39c.06.21.1.43.15.64s0,.19.05.28a2.38,2.38,0,0,1,0,.26c0,.16.06.33.08.5a2,2,0,0,1,0,.24c0,.18.05.36.07.54a1.36,1.36,0,0,0,0,.2,2.64,2.64,0,0,1,0,.28v.08s0,.1,0,.14,0,.16,0,.24,0,.23,0,.34a1,1,0,0,1,0,.17c0,.09,0,.18,0,.27V66c0,.28,0,.56,0,.85a15.33,15.33,0,0,1-1.9,6.76,4,4,0,0,1-.23.34,11.53,11.53,0,0,1-1.89,2.74,21.75,21.75,0,0,1-2.6,2.57,25.65,25.65,0,0,1-4.19,2.83,34.59,34.59,0,0,1-11.48,3.84c-.7.11-1.39.19-2.09.25l1.48,1a41.57,41.57,0,0,0,7.31-1.77,7.61,7.61,0,0,1-1.77,4.25,3.51,3.51,0,0,1-.81.65l1.52,1a11.32,11.32,0,0,0,2.8-6.08.72.72,0,0,1,.47-.61c1.19-.56,2.39-1.09,3.54-1.73a27.27,27.27,0,0,0,3.59-2.33A22.1,22.1,0,0,0,221.85,76c.42-.57.8-1.18,1.16-1.73,1.15-.16,2.26-.25,3.35-.46a17.12,17.12,0,0,0,9.55-5.07A19.54,19.54,0,0,0,241,50.12Zm-15.29-16a6.57,6.57,0,0,1,1.8-3.24,1.29,1.29,0,0,1,1.22-.44,10.89,10.89,0,0,0,1.36,8.7L227.42,39l-1.8.33A8.34,8.34,0,0,1,225.71,34.1Zm-45.9,21.11a3.4,3.4,0,0,1-1.15,1.88,38.66,38.66,0,0,0-6.12,6.6c-.39.65-.73,1.33-1.17,1.94a26.2,26.2,0,0,0-4,8.88c-.18.71-.35,1.43-.52,2.14a6.35,6.35,0,0,1-.65,1.78,6,6,0,0,0-.78,3.09,4.91,4.91,0,0,1,0,.86c-.16-.26-.3-.53-.44-.8l-.27-.53-.12-.26-.11-.23,0-.09-.09-.2c0-.09-.08-.18-.11-.27s-.07-.16-.1-.23-.16-.42-.23-.62l-.09-.24a2.47,2.47,0,0,0-.1-.29l-.15-.51c0-.07-.05-.14-.07-.21l-.09-.36c0-.06,0-.12-.05-.17-.06-.23-.11-.45-.15-.67a1.62,1.62,0,0,1,0-.19,2.38,2.38,0,0,1,0-.26L163,76c0-.08,0-.16,0-.25,0-.3-.08-.6-.11-.91a1.36,1.36,0,0,1,0-.2,2394518778184.35,2394518778184.35,0,0,0,0-.54,18.64,18.64,0,0,1,.09-3.33c0-.19,0-.39.08-.59s0-.16,0-.25.08-.47.12-.71.13-.63.21-1c.11-.5.25-1,.41-1.52.05-.17.11-.35.17-.53-.56.38-1,.65-1.42,1a11.29,11.29,0,0,0-3.88,6.15,18.6,18.6,0,0,0-.51,6.52c.07.87.16,1.74.17,2.65-.33-.6-.69-1.19-1-1.8a18.84,18.84,0,0,1-2-8.53.93.93,0,0,1,0-.23,14.35,14.35,0,0,1,3-9.22A5.09,5.09,0,0,1,161,60.94c.06,0,.1-.09.16-.14-.44-.12-.88-.26-1.33-.35a6.36,6.36,0,0,0-4.2.78,12.53,12.53,0,0,0-3.63,3,21,21,0,0,0-3.06,4.69l-.15.32-.1,0a23.89,23.89,0,0,1,.39-5.21A13.31,13.31,0,0,1,151,58.94l.15-.22.16-.21v0l.15-.2.17-.21c.17-.2.34-.39.52-.57l.18-.18a4,4,0,0,1,.38-.34l.19-.16.18-.15.17-.12.12-.09.34-.23.17-.11,0,0,.16-.09.06,0,.15-.08.17-.09c.24-.12.48-.23.74-.33l.11,0,.16-.06.21-.08.22-.06h0l.21-.06.22-.06.21,0h.05l.19,0,.12,0,.13,0h0l.18,0,.24,0h0l.26,0a13,13,0,0,1,4,.1,3.63,3.63,0,0,0-.67-1.88,7.13,7.13,0,0,0-4.61-3.23,9.39,9.39,0,0,0-2.2-.27h-.23l-.29,0h-.12l-.5.05-.22,0-.13,0-.09,0-.51.11-.1,0-.3.09a.64.64,0,0,0-.18.06l-.22.07-.32.12-.1,0a1.89,1.89,0,0,0-.21.09l-.16.07-.22.11-.23.12-.3.16-.15.09-.16.1a11,11,0,0,0-1.14.83c-.63.51-1.17,1.11-1.82,1.73a8,8,0,0,1,.7-3l.09-.23c.13-.3.26-.59.41-.87a1.09,1.09,0,0,0,.08-.15l.06-.11.11-.19,0,0a2.39,2.39,0,0,1,.13-.21.86.86,0,0,1,.1-.16.61.61,0,0,1,.07-.1v0l.25-.36a1.83,1.83,0,0,0,.13-.16l0-.06,0-.05,0,0,.12-.15.31-.36.18-.2.24-.25.24-.24.51-.47A12.64,12.64,0,0,1,158,42.77a10.62,10.62,0,0,1,9.3,3.94c.33.37.61.78.93,1.17a2.42,2.42,0,0,0,.32.32c0-1,0-2-.11-2.92,0-.11,0-.23-.05-.35l-.06-.4a.36.36,0,0,1,0-.11l0-.17-.06-.31s0,0,0-.06a2,2,0,0,1,0-.24c0-.06,0-.12,0-.17l-.06-.27c0-.1-.05-.2-.07-.3l-.06-.23c0-.13-.07-.26-.11-.39l0-.09h0c0-.06,0-.12-.05-.18s-.08-.26-.13-.39-.14-.42-.22-.63l-.06-.15a.52.52,0,0,0-.06-.16c0-.09-.07-.17-.1-.26h0l0-.09h0l-.1-.24a2,2,0,0,0-.1-.21l-.09-.2v0l-.2-.41h0c-.1-.2-.21-.4-.32-.59l0-.07c-.07-.12-.14-.23-.2-.35h0l-.12-.2-.13-.2a2.14,2.14,0,0,0-.13-.19c0-.07-.09-.13-.13-.19l-.14-.2-.13-.17c-.16-.22-.33-.43-.5-.64l-.26-.31-.5-.54-.13-.13-.23-.22a8.22,8.22,0,0,0-.61-.57l-.27-.23-.15-.13-.07-.06-.17-.13A8.85,8.85,0,0,0,156.2,32a4.68,4.68,0,0,1,1.59-.54,11.71,11.71,0,0,1,7.55.41,13.87,13.87,0,0,1,6.28,5.25l.19.28,0,.06c.15.23.29.45.42.68l.17.28a2.15,2.15,0,0,1,.14.26.54.54,0,0,1,.07.13,1.51,1.51,0,0,1,.15.28c.12.22.24.45.34.68l.15.3c.05.11.09.21.14.31h0l.13.3c.05.11.09.22.14.34l.12.3.16.45.07.19.11.33c0,.1.07.21.11.32s0,.17.07.25l.06.19c0,.18.11.36.16.55s.05.19.08.29.11.47.17.71.05.22.08.34a32.05,32.05,0,0,1,.6,8.85c0,.17-.09.34-.11.51a5.32,5.32,0,0,0,0,.61,3.07,3.07,0,0,0,.24-.38c.19-.87.39-1.75.57-2.62a1.89,1.89,0,0,1,.44-1,10.26,10.26,0,0,0,2.17-4.66,10.24,10.24,0,0,0,.25-3,2.69,2.69,0,0,1,0-.38,8.19,8.19,0,0,1,.91,2.54A23.09,23.09,0,0,1,179.81,55.21Zm31.49-22c.21.35.38.74.59,1.16a6.74,6.74,0,0,0-3.15,1.27c-1.18.74-2.34,1.52-3.54,2.23L205,38l0,0-.3.16h0l-.25.13-.51.23-.27.11-.52.19-.2.07a7.1,7.1,0,0,1-.76.2c-.25.06-.49.1-.74.14l-.25,0-.17,0h-.34l-.25,0h-.25a9.24,9.24,0,0,1-1.05-.06c-.51-.06-1-.17-1.53-.21a4.41,4.41,0,0,0,2.31.81,2.83,2.83,0,0,0,.41,0l.47,0H201l.41,0h0l.19,0,.21,0H202l.13,0,.16,0,.09,0,.13,0c.34-.07.67-.15,1-.24l.15,0a12,12,0,0,0,1.14-.42A1.45,1.45,0,0,0,205,39l.3-.13c.25-.11.49-.23.73-.36.72-.37,1.41-.81,2.2-1.28-.06.33-.11.59-.17.85a9.07,9.07,0,0,1-.26.89l-.06.15a.42.42,0,0,1,0,.1l0,.12c0,.13-.11.26-.17.39h0s0,0,0,0a1,1,0,0,1-.07.15l0,0-.06.13,0,0-.09.17-.13.23c-.11.2-.24.39-.37.58l-.12.16a1.45,1.45,0,0,1-1,.64,9.78,9.78,0,0,1-6.48-1,8.91,8.91,0,0,1-3-2.74L196,38l.12,0c.35,0,.7.11,1.06.14a4.77,4.77,0,0,0,4.13-1.72l.2-.24.14-.16,0,0,.11-.15.05-.07,0,0a1.63,1.63,0,0,0,.11-.17l0,0,.1-.17,0,0a2.39,2.39,0,0,0,.13-.21c.07-.13.14-.26.2-.4a.47.47,0,0,0,.05-.1l0,0a1,1,0,0,1,.07-.15,1.19,1.19,0,0,1,.08-.2l0-.11a1.22,1.22,0,0,0,.07-.17l0-.08c.06-.17.11-.34.16-.51l0-.16c0-.11.05-.22.08-.33s0-.16.05-.24a.91.91,0,0,1,.59-.73,10.52,10.52,0,0,1,3.74-.94A4.12,4.12,0,0,1,211.3,33.18ZM205.49,48c.27.1.57.16.85.26a.76.76,0,0,1,.61.84,2.76,2.76,0,0,1-3.5,2.68,5.22,5.22,0,0,1-3-2.25,13.76,13.76,0,0,1-2-5.07,10.06,10.06,0,0,1-.2-3l.67.4A8.84,8.84,0,0,0,203,43c.85.05,1.71,0,2.57,0a.65.65,0,0,1,.58.21,1.6,1.6,0,0,0,1.8.44c.54-.17,1.07-.4,1.61-.62a1.07,1.07,0,0,1,1.23.06,1.18,1.18,0,0,1,.31,1.26,3.64,3.64,0,0,1-1.91,2.46,5.81,5.81,0,0,1-2.38.71,3.8,3.8,0,0,1-2.56-.84c-.15-.12-.32-.23-.48-.34l0,0A2.91,2.91,0,0,0,205.49,48Zm-2-19.53c0-.13.07-.27.12-.4.3-.74.83-.83,1.35-.22a4.61,4.61,0,0,1,.89,2.24c0,.11-.12.24-.19.36-.09-.06-.14-.08-.15-.11-.24-.64-.24-.64-1-.63a1.5,1.5,0,0,1-.3,0,1.56,1.56,0,0,1-.17-.09c.18-.24.35-.46.53-.68C204.22,28.46,204.22,28.46,203.5,28.46Zm-16.2,7.28a10.27,10.27,0,0,0,.37,3.53,1.47,1.47,0,0,1,0,.47,12.1,12.1,0,0,1-.62,3.33,4.57,4.57,0,0,1-.55,1,1,1,0,0,1-1.73.16A4.06,4.06,0,0,1,184,43a9.9,9.9,0,0,1-.74-3.18c-.06-.91-.12-1.83-.09-2.74a10.41,10.41,0,0,1,.67-3.79,18,18,0,0,1,1-1.85c.57-1,1.17-2,1.73-3.07a7.06,7.06,0,0,0,.37-.94l-.07-.06L184,30.54c-.88.95-1.76,1.9-2.67,2.82a2.31,2.31,0,0,1-1.37.77.5.5,0,0,0,0-.12h0a4.58,4.58,0,0,1,.17-1.81l.06-.21,0-.09.06-.19a1.34,1.34,0,0,1,.07-.18.78.78,0,0,1,.05-.14s0-.08,0-.11c.08-.19.16-.37.25-.55s.05-.11.07-.16l.11-.2s0-.07,0-.1l.09-.16.1-.17h0a2.39,2.39,0,0,0,.13-.21l.16-.24.15-.22a.44.44,0,0,1,.08-.11,2.92,2.92,0,0,1,.21-.28l.15-.2h0c.17-.22.34-.43.52-.64a21.7,21.7,0,0,1,7.71-5.51,1.22,1.22,0,0,1,.86-.07c.34.09.69.11,1.12.18a7.07,7.07,0,0,0-1.33-1.39c-.35-.32-.72-.62-1.05-1-.49-.52-.43-.89.21-1.22a7,7,0,0,1,3.58-.77h.12l.16,0h.06l.31.05.22,0s0,0,0,0l.21,0,.13,0a5.22,5.22,0,0,1,.56.18l.14,0,.17.07h0l.16.07L196,19h0l.16.08.1.06.13.07.1.06.09.06.4.27.12.1.12.09.12.1,0,0a9.1,9.1,0,0,1,2.83,4.87c.13.51.2,1,.3,1.56l-.46-.31-.45-.29,0,0-.83-.56a1.29,1.29,0,0,1-.3-.42,5.71,5.71,0,0,0-1.38-1.85,2.79,2.79,0,0,0-3.48-.21,5.25,5.25,0,0,0-2,2.94,1.27,1.27,0,0,1-.45.66,7.8,7.8,0,0,0-2.21,3A17.19,17.19,0,0,0,187.3,35.74Zm30.33,19.81a2.72,2.72,0,0,1-2.39-.83,1.35,1.35,0,0,1-.19-.42c-.38-.94-.76-1.88-1.17-2.8a5.43,5.43,0,0,0-.42-.68l-.12.06.08.29a9.84,9.84,0,0,1,.46,5.1,4.49,4.49,0,0,1-.49,1.34,1.88,1.88,0,0,1-2.95.54,10.2,10.2,0,0,1-1.18-1.27c-.44-.52-.85-1.07-1.33-1.67-.19.61-.33,1.13-.5,1.62a4.81,4.81,0,0,1-1.19,1.92,2.18,2.18,0,0,1-3.07,0A5.68,5.68,0,0,1,201.59,56c-.14-.48-.21-1-.33-1.54a4.31,4.31,0,0,1-3,3,11.17,11.17,0,0,0-2.32-3.24l-1.53-1c-.57-.17-1.14-.37-1.72-.49s-1.13-.16-1.77-.24c.14-.22.27-.4.38-.6a26.68,26.68,0,0,0,1.24-2.37,4.76,4.76,0,0,0-.25-4.31c-.42-.74-.9-1.45-1.37-2.16a8.45,8.45,0,0,1-1.59-3.5c-.1-.67-.14-1.34-.2-2a.08.08,0,0,1,0-.09c0-.09,0-.18-.05-.28a15.2,15.2,0,0,1,.79-6.92A6.08,6.08,0,0,1,191.43,28v.45a13.39,13.39,0,0,0,.22,3.79,2.31,2.31,0,0,0,.1.28c.05-1.13.05-2.27.15-3.39a8.59,8.59,0,0,1,1.16-3.84A4.06,4.06,0,0,1,194.32,24a2,2,0,0,1,2.87.44,9.12,9.12,0,0,1,1.26,2.15c.15.36.32.71.48,1.06h0c0-.55-.07-1.1-.12-1.79.39.36.83.64,1.2,1h0l.19.17.06.06a2.09,2.09,0,0,1,.24.28.64.64,0,0,1,.1.13l.08.12.06.11.06.13,0,.06s0,.07,0,.11a2.82,2.82,0,0,0,.55-1.61c.07-.63.09-1.27.12-1.9a1.52,1.52,0,0,1,2.21-1.34,3.87,3.87,0,0,1,1.22,1,11.55,11.55,0,0,1,2.19,5.41,2.17,2.17,0,0,1,0,.36,1.63,1.63,0,0,1,0,.18l-.67.06c-.05-.22-.1-.42-.14-.63a5.82,5.82,0,0,0-1.6-3.2,1.63,1.63,0,0,0-1.28-.52c-.47,0-.73.32-.82.89.34-.13.54-.57,1-.42a1.69,1.69,0,0,1,.84.68A1.24,1.24,0,0,0,203,28.05a5.36,5.36,0,0,0,.09,3.17c0,.09.06.19.08.27s0,.1-.07.12a1.43,1.43,0,0,0-.81,1.13v0a1.46,1.46,0,0,1,0,.2l0,.12c0,.05,0,.1,0,.15s-.06.19-.09.27l-.06.18h0l-.06.15-.06.15-.09.22a2.14,2.14,0,0,1-.1.22l-.07.14-.07.14c0,.09-.1.18-.16.27l-.08.13-.18.26-.09.12-.08.1-.06.08-.1.12a.6.6,0,0,0-.08.08l-.19.2-.09.09-.09.08-.33.27-.12.09-.13.1-.14.09-.15.09a4.55,4.55,0,0,1-3.81.36,2.87,2.87,0,0,1,2.28-.71,2.43,2.43,0,0,0-3.14.21,2.75,2.75,0,0,0-.69,3.46,4.12,4.12,0,0,1,1.15-2.69A6.46,6.46,0,0,0,197.79,41c-.06.87-.13,1.69-.19,2.52a13.34,13.34,0,0,0,1.1,5.09,8,8,0,0,0,2.69,3.41,4.86,4.86,0,0,0,4.13.76,3.23,3.23,0,0,0,1.63-1.12,5.3,5.3,0,0,0,.49-3.18l.55-.15a5.28,5.28,0,0,0,3.61-2.87,3.06,3.06,0,0,0,.3-2.14A1.85,1.85,0,0,0,209.61,42c-.47.17-.9.42-1.35.62a1.42,1.42,0,0,1-1.46,0l.15-.17.11-.14.05,0,.07-.1.14-.18a2.14,2.14,0,0,0,.13-.19l.15-.21c.14-.22.28-.44.41-.67s.12-.19.17-.29.23-.42.34-.64l.1-.21c.13-.25.26-.5.38-.76l.87.82c.43.4.85.79,1.25,1.19a27.73,27.73,0,0,1,5.12,6.86,24.25,24.25,0,0,1,2,5.39,7.22,7.22,0,0,1,.25,1.21A1,1,0,0,1,217.63,55.55Zm20.54,7.72c-.16.32-.36.61-.54.92l-.08.11a.12.12,0,0,0,0,.08,9.54,9.54,0,0,1-2.35,2.82,23.19,23.19,0,0,1-8.79,4.67,5.63,5.63,0,0,1-2.44.18c.14-.51.26-1,.36-1.52s.15-.75.2-1.12a20.62,20.62,0,0,0,.26-3.29v-.29c0-.31,0-.63,0-.94,0-.13,0-.26,0-.39,0-.4-.07-.81-.12-1.21a2.17,2.17,0,0,1,0-.25c0-.09,0-.18,0-.26q-.09-.54-.21-1.08c0-.12-.05-.23-.07-.35-.09-.37-.19-.73-.29-1.09l-.09-.3c0-.11-.07-.23-.11-.34a3.38,3.38,0,0,0-.11-.34c0-.16-.1-.31-.16-.46a1.55,1.55,0,0,1-.08-.23l-.27-.67-.09-.23-.15-.34a1.54,1.54,0,0,1-.08-.19l-.09-.18a1.42,1.42,0,0,0-.08-.18l-.11-.23c0-.07-.07-.14-.1-.22-.14-.28-.29-.56-.44-.84,0-.11-.11-.21-.17-.32-.17-.3-.34-.6-.52-.9l-.14-.22s-.05-.09-.07-.13l-.14-.22a.41.41,0,0,1,0-.09l-.19-.28-.18-.28-.26-.39-.28-.4-.17-.24c-.11-.15-.22-.31-.34-.46a5.38,5.38,0,0,0,3.95-.12,8.07,8.07,0,0,0,.68,1.38.75.75,0,0,0,.07.12l.08.11,0,.06.07.09.06.08.08.1.18.18.18.17.09.07h0l.07.06.13.08,0,0a2.86,2.86,0,0,0,.66.31l.11,0,.18.06.09,0,.25.06h0a1.86,1.86,0,0,0,.34.06,4.61,4.61,0,0,0,2.24,6.28,3.87,3.87,0,0,0,.26,3.77,2.54,2.54,0,0,0,1.33,1.15l.07,0h0l.23,0h.09l.24,0a.54.54,0,0,0-.09-.12c-1.94-1.19-1.28-4.13.56-4.93A1.41,1.41,0,0,1,233,60.7a2.15,2.15,0,0,0,2.92-1.3.57.57,0,0,0,0-.27,2.68,2.68,0,0,1-2.66.59,3.1,3.1,0,0,1-2-1.94,2,2,0,0,0,.2,1.8,2.33,2.33,0,0,1-3.09-.52,3.86,3.86,0,0,1-.73-3.65,1.82,1.82,0,0,1,.72-1.06,7.05,7.05,0,0,1,3.84-2,16.1,16.1,0,0,1,2.31-.15.68.68,0,0,0,.4-.1l-1.28-.37a9.1,9.1,0,0,0-3.24.35l-.24.08-.37.14-.17.07-.11,0-.11,0-.12.06-.16.08-.13.06-.12.06-.18.1-.18.11a.41.41,0,0,1-.11.07h0a4.87,4.87,0,0,0-.52.37,1,1,0,0,1-.76.21A3,3,0,0,1,225,49.08a4.43,4.43,0,0,1,.58-.73,4,4,0,0,1,2-1.19A10.94,10.94,0,0,1,232.7,47a1.15,1.15,0,0,0,.58,0c-.23-.14-.45-.3-.69-.43s-.5-.24-.75-.35c-.51-.08-1-.2-1.52-.24a7.8,7.8,0,0,0-5.74,1.69,2.53,2.53,0,0,1-1.93-2.55,3.49,3.49,0,0,1,.79-2.37,4.53,4.53,0,0,1,3.4-2.06A10.48,10.48,0,0,1,234,42.24l.16.11.12.08.24.17.58.46.17.15,0,0,.15.13.12.12.12.11c.23.22.44.45.65.68l.07.08.12.15.08.1c.19.23.36.46.53.7l.16.24.18.29.11.17c.07.12.14.24.2.36l.1.18q.19.38.36.75A18.36,18.36,0,0,1,238.17,63.27Zm-77.87,22v0h0Z"/>
        <path class="cls-2" d="M185.65,110.69l-.16,0,0-.07.13.1Z"/>
        <path class="cls-7" d="M160.3,85.33l.07,0-.06,0v-.08Z"/>
        <path class="cls-8" d="M182.8,53l-.06.07,0-.09Z"/>
        <path class="cls-9" d="M170.08,75.6c.6-.83,1.18-1.69,1.83-2.49a52.13,52.13,0,0,1,7.7-7.37l2-1.58h.11l1.39-.86-.05-.11c-.58.15-1.17.28-1.74.46a21.29,21.29,0,0,0-3.83,1.73,21,21,0,0,0-4,2.82,27.26,27.26,0,0,0-3.69,4,2.3,2.3,0,0,1-.34.28,30.82,30.82,0,0,1,11.24-15.07,17.66,17.66,0,0,1,7-3.06,9.56,9.56,0,0,1,4.32.12,7.21,7.21,0,0,1,4.92,4.66,14,14,0,0,1,.86,4.79c0,.38,0,.75,0,1.13a6,6,0,0,0-.35.78,31,31,0,0,1-2.05,5.25c-.66,1.37-1.41,2.71-2.13,4a17.45,17.45,0,0,1-2.52,3.45,40.15,40.15,0,0,1-3,2.93c-1.17,1-2.4,2-3.66,2.85a51,51,0,0,1-7.94,4.52c-.79.37-1.59.73-2.39,1a59,59,0,0,1-6.57,2.22,9.75,9.75,0,0,1-3.26.55c.24-.24.47-.49.72-.71a40.63,40.63,0,0,1,6.3-4.28c2.89-1.63,5.82-3.17,8.73-4.76a3.81,3.81,0,0,0,.41-.29,4.63,4.63,0,0,0,.75-.22c1.08-.54,2.16-1.1,3.23-1.65a3.3,3.3,0,0,0,.3-.22,7.35,7.35,0,0,0-1.56,0c-1.07.12-2.15.22-3.23.37a27.27,27.27,0,0,0-5.09,1.27c-1.24.43-2.45,1-3.68,1.46-.12,0-.26.26-.4,0a52.52,52.52,0,0,1,5.75-4.45c1.55-1.08,3.11-2.14,4.67-3.21a1.79,1.79,0,0,0,.25-.23h0l.11-.13a2.78,2.78,0,0,0,.48-.18c.13-.07.23-.22.36-.3L185.62,73l.46-.32h-.89a28.54,28.54,0,0,0-5.65,1.71,34.06,34.06,0,0,0-6.5,3.81c-1.28.94-2.45,2-3.67,3a2,2,0,0,1-.36.16c.34-.51.64-1.05,1-1.53a43.74,43.74,0,0,1,6.88-7c1.75-1.45,3.58-2.78,5.37-4.16a4.14,4.14,0,0,0,.38-.35,4.93,4.93,0,0,0,.67-.27c.4-.26.78-.54,1.16-.82a3.85,3.85,0,0,0,.3-.27,3,3,0,0,0-1.12,0,13.59,13.59,0,0,0-3.5,1.27A32.92,32.92,0,0,0,175.66,71a35.85,35.85,0,0,0-4,3.28c-.39.37-.76.76-1.15,1.13A2.23,2.23,0,0,1,170.08,75.6Z"/>
        <path class="cls-10" d="M149.08,64A13.2,13.2,0,0,1,151,59a9.2,9.2,0,0,1,6.8-4.12,13,13,0,0,1,4,.1A9.82,9.82,0,0,1,166,57.31a.63.63,0,0,0,0-.2,24.2,24.2,0,0,0-1.24-4.5,8.88,8.88,0,0,0-3.26-4,9.43,9.43,0,0,0-4.35-1.43,12.05,12.05,0,0,0-5.15.65,13.35,13.35,0,0,0-4.47,2.65s-.14,0-.21,0a11.26,11.26,0,0,1,3.18-4.41A12.64,12.64,0,0,1,158,42.77a10.65,10.65,0,0,1,9.3,3.94c.33.37.61.78.93,1.17a2.42,2.42,0,0,0,.32.32l1.52,4.2a4.38,4.38,0,0,0,.16-.47c.2-1.3.46-2.6.59-3.91a18.43,18.43,0,0,0-.25-4.45,18.77,18.77,0,0,0-1-3.87,12.07,12.07,0,0,0-11.24-8.1,2.13,2.13,0,0,1-.49-.1,11.71,11.71,0,0,1,7.55.41,13.87,13.87,0,0,1,6.28,5.25A22.07,22.07,0,0,1,174.89,45a32.05,32.05,0,0,1,.6,8.85c0,.17-.09.34-.11.51a5.32,5.32,0,0,0,0,.61,3.07,3.07,0,0,0,.24-.38c.19-.87.39-1.75.57-2.62a1.89,1.89,0,0,1,.44-1,10.26,10.26,0,0,0,2.17-4.66,10.24,10.24,0,0,0,.25-3,2.69,2.69,0,0,1,0-.38,8.19,8.19,0,0,1,.91,2.54,23.09,23.09,0,0,1-.19,9.72,3.4,3.4,0,0,1-1.15,1.88,38.35,38.35,0,0,0-6.12,6.61,4.67,4.67,0,0,0-2.16.26c-.65.21-1.29.45-1.94.67h0c.24-.34.47-.68.72-1s.56-.69.85-1a1.15,1.15,0,0,0-.14-.11,13.91,13.91,0,0,0-4.07.29,20.74,20.74,0,0,0-5.14,2.1A9.87,9.87,0,0,0,158,67.2a15.52,15.52,0,0,0-2.37,4.22c-.06.16.06.44-.23.49a14.35,14.35,0,0,1,3-9.22A5.09,5.09,0,0,1,161,60.94c.06,0,.1-.09.16-.14l4.7-.73A8.2,8.2,0,0,0,164.34,59a11.36,11.36,0,0,0-4.15-1.33,12.23,12.23,0,0,0-4,.1,8.1,8.1,0,0,0-4,2.26,15.59,15.59,0,0,0-2.77,3.63A2.3,2.3,0,0,1,149.08,64Z"/>
        <path class="cls-8" d="M220.72,55.29a21.94,21.94,0,0,1,3,11.57,15.46,15.46,0,0,1-1.9,6.76c-.07.12-.16.23-.23.34s-.34.19-.49.31c-.48.41-.95.85-1.44,1.24a42.9,42.9,0,0,1-4.94,3.3,18.27,18.27,0,0,1-4.06,1.82,21.3,21.3,0,0,1-4.61,1c-1.28.11-2.56.27-3.84.32a24.92,24.92,0,0,1-2.73-.11,8.34,8.34,0,0,1-1-.17c.07-.18.11-.33.18-.47.21-.43.43-.85.64-1.28.53-1.13,1.14-2.23,1.58-3.4a18.1,18.1,0,0,0,1-4.43c.16-1.4.37-2.79.45-4.18.11-1.69.1-3.38.15-5.07v-.69l.36.14a8,8,0,0,0,3.81.39A3,3,0,0,0,209,61.06a2.22,2.22,0,0,1,.25.11,4.69,4.69,0,0,0,3.5.53,3,3,0,0,0,2.3-2.07c0,.08.12.13.14.2a21,21,0,0,1,.58,3,26.13,26.13,0,0,1-.09,3.75,9.81,9.81,0,0,1-2,5c-.26.34-.51.69-.77,1l-.16,0,0,.08.14-.11c.11,0,.23,0,.34-.06a9.7,9.7,0,0,0,4.1-2.65,6.36,6.36,0,0,0,1.77-4.29c0-.66,0-1.32,0-2a13.42,13.42,0,0,0-.69-3.77,19.63,19.63,0,0,0-.85-1.89c.05,0,.1-.05.15-.05A3.08,3.08,0,0,0,220,57a1.92,1.92,0,0,0,.65-1.35A.91.91,0,0,1,220.72,55.29Z"/>
        <path class="cls-11" d="M221.07,74.27c-.48.41-.95.85-1.44,1.24l-.27.21-.09.07-.43.33-.32.23a2.2,2.2,0,0,1-.25.17l-.06,0-.3.21-.3.2-.61.4-.28.19-.07,0,0,0c-.12.09-.25.17-.38.25l-.39.24-.2.12-.31.19-.32.19-.32.19a18.27,18.27,0,0,1-4.06,1.82,21.3,21.3,0,0,1-4.61,1c-1.28.11-2.56.27-3.84.32a24.92,24.92,0,0,1-2.73-.11,8.34,8.34,0,0,1-1-.17c.07-.18.11-.33.18-.47.21-.43.43-.85.64-1.28.53-1.13,1.14-2.23,1.58-3.4a18.1,18.1,0,0,0,1-4.43c.16-1.4.37-2.79.45-4.18.11-1.69.11-3.38.15-5.07v-.69l.36.14a8,8,0,0,0,3.81.39A3,3,0,0,0,209,61.06a2.22,2.22,0,0,1,.25.11,4.69,4.69,0,0,0,3.5.53,3,3,0,0,0,2.3-2.07c0,.08.12.13.14.2a21,21,0,0,1,.58,3,1.62,1.62,0,0,1,0,.22h0a1.62,1.62,0,0,1,0,.22,1.48,1.48,0,0,1,0,.21h0V64c0,.88-.06,1.76-.13,2.63a.57.57,0,0,0,0,.13s0,.08,0,.11a1.11,1.11,0,0,1,0,.19h0l0,.14a.77.77,0,0,0,0,.15,1.77,1.77,0,0,0,0,.2l-.06.26a1.89,1.89,0,0,1-.05.23h0s0,0,0,0,0,.13-.05.19,0,.16-.07.23l0,.13,0,.13,0,.07c0,.09-.06.18-.1.27a.78.78,0,0,0,0,.14l-.09.2c0,.06-.05.11-.07.17l-.07.14-.06.13-.09.18a1.62,1.62,0,0,0-.1.18h0c-.1.18-.21.36-.32.54v0l-.09.14-.07.11-.09.14-.06.09-.05.07,0,.07-.14.2c-.26.34-.51.69-.77,1h0c.11,0,.23,0,.34-.06l.28-.1.2-.08h0l.16-.07.17-.07.1,0,.2-.09.2-.11.14-.06h0l.13-.07h0l.1-.06.17-.09.16-.1.27-.17,0,0,0,0,.14-.1a2.27,2.27,0,0,0,.25-.18l.18-.13.19-.16.11-.09q.18-.15.36-.33l.13-.12,0,0,.15-.15a1.8,1.8,0,0,0,.19-.2,6.36,6.36,0,0,0,1.77-4.29c0-.66,0-1.32,0-2l0-.49a2.28,2.28,0,0,0,0-.26l0-.25,0-.21,0-.24a.77.77,0,0,1,0-.15.36.36,0,0,1,0-.11l0-.19,0-.12s0-.06,0-.08a1,1,0,0,0,0-.17l0-.18c0-.13-.05-.25-.08-.37a1.21,1.21,0,0,1-.05-.18c0-.06,0-.12,0-.17a1.09,1.09,0,0,0-.05-.17l-.06-.21-.08-.23a19.63,19.63,0,0,0-.85-1.89c.05,0,.1-.05.15-.05A3.08,3.08,0,0,0,220,57a1.92,1.92,0,0,0,.65-1.35,1,1,0,0,1,.12-.31c-.26-.48-.51-1-.77-1.46-.26,1.08-.52,2.11-1.64,2.58a3.48,3.48,0,0,1-3.1-.47c-.05.19-.09.34-.12.49a5.7,5.7,0,0,1-1,2.4,3.24,3.24,0,0,1-5.34-.16l-.27-.39c-.75,1.94-2,2.76-3.55,2.69a4.2,4.2,0,0,1-4.09-3.36l-1.91,1.55c.09.85.21,1.74.29,2.63a26.36,26.36,0,0,1-.45,8.07,26.81,26.81,0,0,1-6.07,12l.27.17q3.38,2.16,6.36,4.13c.7-.06,1.39-.14,2.09-.25a34.59,34.59,0,0,0,11.48-3.84,25.65,25.65,0,0,0,4.19-2.83,21.75,21.75,0,0,0,2.6-2.57A11.53,11.53,0,0,0,221.56,74C221.39,74.07,221.22,74.15,221.07,74.27Zm-4.73-16.18,0,.07h0v0h0l.07.06,0,0a.68.68,0,0,1,.12.12l.11.11.1.11,0,0a.86.86,0,0,0,.07.1v0s0,0,.05.06v0c.06.08.11.17.16.25a1.09,1.09,0,0,1,.08.15l0,.07a.61.61,0,0,0,.07.14h0l.08.18h0a1.34,1.34,0,0,1,.07.18c.05.13.1.27.14.4s.1.32.14.47l0,.16a.74.74,0,0,1,0,.14l.06.24a0,0,0,0,0,0,0l.06.3h0a1.16,1.16,0,0,1,0,.18c0,.07,0,.14,0,.21s0,.05,0,.08,0,.15,0,.22a.68.68,0,0,0,0,.14l0,.23s0,.09,0,.14a.22.22,0,0,1,0,.08c0,.06,0,.12,0,.18s0,.21,0,.31,0,.13,0,.2a11,11,0,0,1-.21,2.56c0,.16-.07.32-.11.48l-.09.3a.19.19,0,0,1,0,.08,2,2,0,0,1-.08.26,10.8,10.8,0,0,1-.51,1.29c0,.09-.09.19-.14.28l-.17.34c-.06.11-.12.22-.19.33l-.1.17-.14.22-.11.16-.13.17-.13.17c-.09.11-.19.21-.29.32l-.14.15-.3.27-.09.07s0,0-.05,0a.27.27,0,0,1-.08.07,2.83,2.83,0,0,1-.28.2l-.12.08c-.16.1-.32.19-.5.28l-.13,0a.41.41,0,0,1,.07-.11l.52-.86v0l.18-.29.16-.27.21-.35.13-.24.18-.33c.05-.09.09-.19.14-.29l.14-.28c.14-.32.28-.64.4-1,0-.08.05-.15.08-.22l.08-.23c.1-.3.19-.6.27-.91a1.6,1.6,0,0,0,0-.21,5,5,0,0,0,.12-.53l.06-.32h0c0-.1,0-.2,0-.3v0l0-.26,0-.12,0-.27c0-.09,0-.19,0-.28s0-.18,0-.27,0-.1,0-.15a1.77,1.77,0,0,1,0-.23V62.9c0-.1,0-.21,0-.32s0-.17,0-.26v-.09a2.28,2.28,0,0,1,0-.26l0-.16c0-.07,0-.15,0-.23a2.91,2.91,0,0,1,0-.31.43.43,0,0,1,0-.05c0-.09,0-.19,0-.28s0-.07,0-.1l0-.21a.5.5,0,0,1,0-.12s0-.11,0-.17,0-.16,0-.25,0-.12,0-.18l0-.11a2.83,2.83,0,0,0-.09-.37c0-.06,0-.12,0-.18l0-.18c-.08-.29-.12-.59-.17-.88v0h-.08A.14.14,0,0,0,216.34,58.09Z"/>
        <path class="cls-12" d="M225.56,48.35a4,4,0,0,1,2-1.19A10.94,10.94,0,0,1,232.7,47a1.15,1.15,0,0,0,.58,0c-.23-.14-.45-.3-.69-.43s-.5-.24-.75-.35a1.57,1.57,0,0,0-1-.8,9.25,9.25,0,0,0-2-.57,4.4,4.4,0,0,0-3,.45.85.85,0,0,1-.61,0,1.2,1.2,0,0,1-.77-.61l-.93-2a4.53,4.53,0,0,1,3.4-2.06A10.44,10.44,0,0,1,234,42.24a11.53,11.53,0,0,1,4.25,5,18.36,18.36,0,0,1-.1,16c-.16.32-.36.61-.54.92l-.08.11a.12.12,0,0,0,0,.08c-.21-.22-.37,0-.53.07a5.47,5.47,0,0,1-2.38.66A1.1,1.1,0,0,1,233.5,64a3.72,3.72,0,0,1,.35-1.67,1.16,1.16,0,0,1,1-.73,2.09,2.09,0,0,0,1.89-1.56,3.83,3.83,0,0,0-.13-2.78,3.46,3.46,0,0,1-.53.71,2.93,2.93,0,0,1-4.25-.52,14.6,14.6,0,0,1-.82-1.63,3.62,3.62,0,0,0-.81,1.95,2.13,2.13,0,0,1-1.74-1.91c-.07-.5-.08-1-.12-1.53a7,7,0,0,1,3.84-2,16.1,16.1,0,0,1,2.31-.15.68.68,0,0,0,.4-.1l-1.28-.37c0-.06-.09-.16-.15-.18a21.07,21.07,0,0,0-2.3-.51,3.93,3.93,0,0,0-2.41.49,1.35,1.35,0,0,1-2-.46L226.7,51a3,3,0,0,1-1-2.21A1.52,1.52,0,0,0,225.56,48.35Z"/>
        <path class="cls-13" d="M228.36,54.35c0,.51,0,1,.12,1.53a2.13,2.13,0,0,0,1.74,1.91,3.62,3.62,0,0,1,.81-1.95,14.6,14.6,0,0,0,.82,1.63,2.93,2.93,0,0,0,4.25.52,3.46,3.46,0,0,0,.53-.71,3.83,3.83,0,0,1,.13,2.78,2.09,2.09,0,0,1-1.89,1.56,1.16,1.16,0,0,0-1,.73A3.72,3.72,0,0,0,233.5,64a1.1,1.1,0,0,0,1.1,1.09,5.47,5.47,0,0,0,2.38-.66c.16-.06.32-.29.53-.07a9.54,9.54,0,0,1-2.35,2.82,23.19,23.19,0,0,1-8.79,4.67,5.63,5.63,0,0,1-2.44.18c2.06-7.57.11-14.27-4.49-20.47a5.38,5.38,0,0,0,3.95-.12c.86,2.1,1.61,2.78,3.45,3.06a4.61,4.61,0,0,0,2.24,6.28,3.87,3.87,0,0,0,.26,3.77,2.54,2.54,0,0,0,1.33,1.15,3.1,3.1,0,0,0,.69.1l.09.05-.1,0a.64.64,0,0,0-.1-.13c-1.94-1.19-1.28-4.13.56-4.93A1.41,1.41,0,0,1,233,60.7a2.15,2.15,0,0,0,2.92-1.3.57.57,0,0,0,0-.27,2.68,2.68,0,0,1-2.66.59,3.1,3.1,0,0,1-2-1.94,2,2,0,0,0,.2,1.8,2.33,2.33,0,0,1-3.09-.52,3.86,3.86,0,0,1-.73-3.65A1.79,1.79,0,0,1,228.36,54.35Z"/>
        <path class="cls-11" d="M155.35,71.91c.29,0,.17-.33.23-.49A15.52,15.52,0,0,1,158,67.2a9.87,9.87,0,0,1,2.7-2.32,20.74,20.74,0,0,1,5.14-2.1,13.91,13.91,0,0,1,4.07-.29,1.15,1.15,0,0,1,.14.11c-.29.34-.58.68-.85,1s-.48.66-.72,1l-.17,0,0,.08.14-.12c.65-.22,1.29-.46,1.94-.67a4.67,4.67,0,0,1,2.16-.26c-.39.64-.73,1.32-1.17,1.93a26.2,26.2,0,0,0-4,8.88c-.18.71-.35,1.42-.52,2.14a6.35,6.35,0,0,1-.65,1.78,6,6,0,0,0-.78,3.09,5.07,5.07,0,0,1,0,.87,19.12,19.12,0,0,1-1.46-16.22c-.55.38-1,.65-1.41,1a11.29,11.29,0,0,0-3.88,6.15,18.6,18.6,0,0,0-.51,6.52c.07.87.16,1.74.17,2.65-.33-.6-.69-1.19-1-1.8a18.84,18.84,0,0,1-2-8.53A.93.93,0,0,1,155.35,71.91Z"/>
        <path class="cls-14" d="M186.83,27.41,184,30.54c-.88.95-1.76,1.9-2.67,2.82a2.31,2.31,0,0,1-1.37.77,4.47,4.47,0,0,1,.15-1.93A10.73,10.73,0,0,1,182.48,28a21.7,21.7,0,0,1,7.71-5.51,1.22,1.22,0,0,1,.86-.07c.34.09.69.11,1.12.18a7.07,7.07,0,0,0-1.33-1.39c-.35-.32-.72-.62-1.05-1-.49-.52-.43-.89.21-1.22a6.52,6.52,0,0,1,7.41.83,9.1,9.1,0,0,1,2.83,4.87c.13.51.2,1,.3,1.56-.63-.42-1.21-.79-1.77-1.19a1.18,1.18,0,0,1-.31-.42,5.71,5.71,0,0,0-1.38-1.85,2.79,2.79,0,0,0-3.48-.21,5.25,5.25,0,0,0-2,2.94,1.31,1.31,0,0,1-.45.66,7.8,7.8,0,0,0-2.21,3,17.19,17.19,0,0,0-1.61,6.5,10.27,10.27,0,0,0,.37,3.53,1.47,1.47,0,0,1,0,.47,12.17,12.17,0,0,1-.62,3.33,4.57,4.57,0,0,1-.55,1,1,1,0,0,1-1.73.16A4.06,4.06,0,0,1,184,43a9.9,9.9,0,0,1-.74-3.18c-.06-.91-.12-1.83-.09-2.74a10.41,10.41,0,0,1,.67-3.79,18,18,0,0,1,1-1.85c.57-1,1.17-2,1.73-3.07a7.06,7.06,0,0,0,.37-.94l0-.13ZM199.89,25l.05.28.08,0L199.9,25a8.11,8.11,0,0,0-.21-.85,11.93,11.93,0,0,0-1.91-3.27,5.63,5.63,0,0,0-5.62-2,10.66,10.66,0,0,0-1.54.42c-.21.06-.43.22-.25.41a3.76,3.76,0,0,0,1,.8c.15.09.44,0,.65-.11a5.34,5.34,0,0,1,4.37.37,6.24,6.24,0,0,1,2.06,2C199,23.53,199.42,24.29,199.89,25Zm-18.66,7,.14.1c0-.07.07-.15.11-.21.64-.86,1.24-1.75,1.92-2.57a15.4,15.4,0,0,1,2.52-2.52A36.55,36.55,0,0,1,190.44,24a2.32,2.32,0,0,0,.83-.93.91.91,0,0,0-1-.09,27.73,27.73,0,0,0-3.78,2.35,16.37,16.37,0,0,0-4.28,4.5A6.92,6.92,0,0,0,181.23,32Zm-.08.25,0,0v0Z"/>
        <path class="cls-15" d="M191.75,32.5c.05-1.13.05-2.27.15-3.39a8.48,8.48,0,0,1,1.17-3.84A4.14,4.14,0,0,1,194.32,24a2,2,0,0,1,2.87.44,8.57,8.57,0,0,1,1.25,2.15c.16.36.33.71.49,1.06l0,.28h.07l-.11-.27-.12-1.79c.79.72,1.72,1.11,2.08,2.14a2.82,2.82,0,0,0,.55-1.61c.07-.63.09-1.27.12-1.9a1.52,1.52,0,0,1,2.21-1.34,3.87,3.87,0,0,1,1.22,1,11.55,11.55,0,0,1,2.19,5.41,2.17,2.17,0,0,1,0,.36,1.63,1.63,0,0,1,0,.18l-.67.06c-.05-.22-.1-.42-.14-.63a5.82,5.82,0,0,0-1.6-3.2,1.64,1.64,0,0,0-1.29-.52c-.46,0-.72.32-.81.89.34-.13.54-.57,1-.42a1.69,1.69,0,0,1,.84.68A1.24,1.24,0,0,0,203,28.05a5.36,5.36,0,0,0,.09,3.17c0,.09.06.19.08.27s0,.1-.07.12a1.4,1.4,0,0,0-.8,1.13,6.25,6.25,0,0,1-2.8,4.14,4.55,4.55,0,0,1-3.81.36,2.87,2.87,0,0,1,2.28-.71,2.43,2.43,0,0,0-3.14.21,2.76,2.76,0,0,0-.69,3.46,4.12,4.12,0,0,1,1.15-2.69A6.46,6.46,0,0,0,197.79,41l-.19,2.52-.65-.15-.55-.2a10,10,0,0,1-2.69-1.39A3.58,3.58,0,0,1,192.35,40c0-.22,0-.44,0-.66a4.2,4.2,0,0,1,3.16-4,6.84,6.84,0,0,1,3.7,0l.62.16.06-.1-1-.76a3.63,3.63,0,0,0-3.34-5.76c.59-.7,1.38-.6,2.15-.62a2,2,0,0,0-.63-.4,2.31,2.31,0,0,0-2.37.55,5.57,5.57,0,0,0-1.39,6.12c.09.21.22.41.33.63l-.68.53A9.91,9.91,0,0,1,191.75,32.5ZM206,27l.06.19.07,0-.09-.2a.85.85,0,0,0,0-.23A7.41,7.41,0,0,0,204.34,24a2.4,2.4,0,0,0-.9-.56,1,1,0,0,0-1.43.65,3.29,3.29,0,0,0,0,1.65c.19-.34.32-.69.5-1a.79.79,0,0,1,1-.35,1.68,1.68,0,0,1,.61.35,8.83,8.83,0,0,1,.93,1C205.4,26.12,205.68,26.55,206,27Zm-13.53,2.16.12,0c.05-.13.1-.26.16-.38a7.88,7.88,0,0,1,1.94-2.9,1.73,1.73,0,0,1,1.88-.37,9.07,9.07,0,0,1,1.1.68,2.69,2.69,0,0,0,.29.16l.11-.13a15,15,0,0,0-1-1.27,1.67,1.67,0,0,0-2.4-.27C193.1,25.74,192.75,27.43,192.45,29.13ZM202.6,27s0-.08,0-.11,0,0-.06-.06a.38.38,0,0,0,0,.1S202.57,27,202.6,27Zm-4.55-.54,0,0s0,0,0,.05l0,0S198.06,26.5,198.05,26.49Zm-5.63,2.89v0h0ZM198,28.33l0,0,0,0,0,0Z"/>
        <path class="cls-13" d="M197,43.41l.65.15a13.51,13.51,0,0,0,1.09,5.09,8.13,8.13,0,0,0,2.7,3.41,4.86,4.86,0,0,0,4.13.76,3.27,3.27,0,0,0,1.63-1.12c.29.3.59.57.86.89.74.87,1.45,1.77,2.21,2.64a4.2,4.2,0,0,0,1.66,1.41c.43.15.61.1.86-.26a1.38,1.38,0,0,0,.19-.43,11.36,11.36,0,0,0,.22-1.52,10,10,0,0,0-.1-1.54c-.09-.74-.21-1.48-.34-2.21-.09-.49-.23-1-.35-1.44l.11-.07c.41.33.84.64,1.24,1a10.6,10.6,0,0,1,1.82,2.19,2,2,0,0,0,2.4.94,2.19,2.19,0,0,1,.36,0,7.22,7.22,0,0,1,.25,1.21,1,1,0,0,1-.91,1.08,2.72,2.72,0,0,1-2.39-.83,1.35,1.35,0,0,1-.19-.42c-.38-.94-.76-1.88-1.17-2.8a5.43,5.43,0,0,0-.42-.68l-.12.06.08.29a9.84,9.84,0,0,1,.46,5.1,4.49,4.49,0,0,1-.49,1.34,1.88,1.88,0,0,1-2.95.54,11.73,11.73,0,0,1-1.18-1.26c-.44-.53-.85-1.08-1.33-1.68-.19.61-.33,1.13-.5,1.63a4.74,4.74,0,0,1-1.19,1.9,2.15,2.15,0,0,1-3.06,0A5.55,5.55,0,0,1,201.59,56c-.14-.48-.21-1-.33-1.54a4.31,4.31,0,0,1-3,3,11.17,11.17,0,0,0-2.32-3.24l.53.06a4.5,4.5,0,0,0,2-.09,2.9,2.9,0,0,0,1.81-1.53.51.51,0,0,0-.09-.64,14.22,14.22,0,0,1-2.34-3.49A8.88,8.88,0,0,1,197,43.41Z"/>
        <path class="cls-13" d="M197.78,65.09a21.59,21.59,0,0,1-2,9.19,25.29,25.29,0,0,1-4.65,6.88l-1.41.9c-5.48,3.51-10.25,6.67-14.22,9.32a48.7,48.7,0,0,1-8.16,2.49,16.16,16.16,0,0,1-3.73.42,7.2,7.2,0,0,1-.86-.09,3.34,3.34,0,0,1,1.09-1.46,9.75,9.75,0,0,0,3.26-.55A59,59,0,0,0,173.69,90c.8-.32,1.6-.68,2.39-1A51,51,0,0,0,184,84.4c1.26-.9,2.49-1.84,3.66-2.85a40.15,40.15,0,0,0,3-2.93,17.45,17.45,0,0,0,2.52-3.45c.72-1.34,1.47-2.68,2.13-4a31,31,0,0,0,2.05-5.25A6,6,0,0,1,197.78,65.09Z"/>
        <path class="cls-16" d="M218.29,53.26a2.19,2.19,0,0,0-.36,0,2,2,0,0,1-2.4-.94,10.6,10.6,0,0,0-1.82-2.19c-.4-.35-.83-.66-1.24-1l-.11.07c.12.48.26.95.35,1.44.13.73.25,1.47.34,2.21a10,10,0,0,1,.1,1.54,11.36,11.36,0,0,1-.22,1.52,1.38,1.38,0,0,1-.19.43c-.25.36-.43.41-.86.26a4.2,4.2,0,0,1-1.66-1.41c-.76-.87-1.47-1.77-2.21-2.64-.27-.32-.57-.59-.86-.89a5.3,5.3,0,0,0,.49-3.18l.55-.15a5.26,5.26,0,0,0,3.61-2.88,3,3,0,0,0,.3-2.13A1.85,1.85,0,0,0,209.61,42c-.47.17-.9.42-1.35.62a1.42,1.42,0,0,1-1.46,0A15,15,0,0,0,209,39c.75.71,1.45,1.34,2.12,2a27.73,27.73,0,0,1,5.12,6.86A24.25,24.25,0,0,1,218.29,53.26Z"/>
        <path class="cls-10" d="M197,43.41a8.88,8.88,0,0,0,.88,5.14A14.22,14.22,0,0,0,200.17,52a.51.51,0,0,1,.09.64,2.9,2.9,0,0,1-1.81,1.53,4.5,4.5,0,0,1-2,.09l-.53-.06-1.53-1c.08-.73.21-1.45.25-2.18a15.64,15.64,0,0,0,.07-2.9,10.84,10.84,0,0,0-2.46-5.51,22.29,22.29,0,0,1-1.62-2,26.35,26.35,0,0,1-1.23-2.5l-.29-.55a.08.08,0,0,1,0-.09l-.05-.28a15.2,15.2,0,0,1,.79-6.92A6.08,6.08,0,0,1,191.43,28v.45a13.39,13.39,0,0,0,.22,3.79,2.31,2.31,0,0,0,.1.28A9.91,9.91,0,0,0,193,35.64a4.11,4.11,0,0,0-.64,4.36,3.58,3.58,0,0,0,1.36,1.82,10,10,0,0,0,2.69,1.39Z"/>
        <path class="cls-17" d="M196.08,38.06c.36,0,.71.11,1.07.14a4.77,4.77,0,0,0,4.13-1.72,8,8,0,0,0,1.83-3.78.91.91,0,0,1,.59-.73,10.52,10.52,0,0,1,3.74-.94,4.12,4.12,0,0,1,3.86,2.15c.21.35.38.74.59,1.16a6.74,6.74,0,0,0-3.15,1.27c-1.18.74-2.34,1.52-3.54,2.23A9.77,9.77,0,0,1,199,39.27c-.51-.06-1-.17-1.53-.21a4.41,4.41,0,0,0,2.31.81,10.91,10.91,0,0,0,6.2-1.4c.72-.37,1.41-.81,2.2-1.28-.06.33-.11.59-.17.85a9,9,0,0,1-1.47,3.18,1.45,1.45,0,0,1-1,.64,9.78,9.78,0,0,1-6.48-1,9,9,0,0,1-3-2.74Zm7.87-4c.47-.35.63-.55.69-.84s0-.44-.23-.53-.43.08-.46.39S204,33.66,204,34.05Z"/>
        <path class="cls-14" d="M203.71,46.34A2.91,2.91,0,0,0,205.49,48c.28.1.57.16.85.26a.75.75,0,0,1,.61.84,2.76,2.76,0,0,1-3.5,2.68,5.22,5.22,0,0,1-3-2.25,13.76,13.76,0,0,1-2-5.07,10.06,10.06,0,0,1-.2-3l.67.41A9,9,0,0,0,203,43c.85.05,1.71,0,2.57,0a.65.65,0,0,1,.58.21,1.6,1.6,0,0,0,1.8.44c.54-.17,1.07-.4,1.61-.63a1.09,1.09,0,0,1,1.23.07,1.18,1.18,0,0,1,.31,1.26,3.64,3.64,0,0,1-1.91,2.46,5.81,5.81,0,0,1-2.38.71,3.8,3.8,0,0,1-2.56-.84c-.15-.12-.32-.23-.48-.34l-.13-.2-.07,0Zm1.81-2.64-.08,0,.08,0a1.42,1.42,0,0,0,.73,1,4.74,4.74,0,0,0,2,.75c.45.08.88.17,1,.74a2.2,2.2,0,0,0,1.2-2.1c0-.58-.32-.78-.86-.6a5.38,5.38,0,0,0-.55.24A3.36,3.36,0,0,1,205.52,43.7Zm-3.34.3h-.11a2.81,2.81,0,0,1,0,.65,4.31,4.31,0,0,0,.11,2.17,4.12,4.12,0,0,0,1.71,2.36,1.75,1.75,0,0,1,.84,1.66.78.78,0,0,0,0,.22,1.52,1.52,0,0,0,1.6-1.07c.36-.75.23-1.09-.52-1.38l-.18,0A4.17,4.17,0,0,1,202.85,46c-.08-.2-.15-.41-.22-.61Z"/>
        <path class="cls-11" d="M147.36,50.49c.07,0,.17,0,.21,0A13.35,13.35,0,0,1,152,47.84a12.05,12.05,0,0,1,5.15-.65,9.43,9.43,0,0,1,4.35,1.43,8.88,8.88,0,0,1,3.26,4,24.2,24.2,0,0,1,1.24,4.5.63.63,0,0,1,0,.2,9.82,9.82,0,0,0-4.16-2.38,3.63,3.63,0,0,0-.67-1.88,7.13,7.13,0,0,0-4.61-3.23,8.94,8.94,0,0,0-8.08,2c-.63.51-1.17,1.11-1.82,1.73A8,8,0,0,1,147.36,50.49Z"/>
        <path class="cls-11" d="M149.08,64a2.3,2.3,0,0,0,.33-.37A15.59,15.59,0,0,1,152.18,60a8.1,8.1,0,0,1,4-2.26,12.23,12.23,0,0,1,4-.1A11.36,11.36,0,0,1,164.34,59a8.2,8.2,0,0,1,1.52,1.07l-4.7.73c-.44-.12-.88-.26-1.33-.35a6.36,6.36,0,0,0-4.2.78,12.53,12.53,0,0,0-3.63,3,21,21,0,0,0-3.06,4.69c-.05.1-.1.21-.16.32s0,0-.09,0A23.89,23.89,0,0,1,149.08,64Z"/>
        <path class="cls-11" d="M157.79,31.5a2.13,2.13,0,0,0,.49.1,12.07,12.07,0,0,1,11.24,8.1,18.77,18.77,0,0,1,1,3.87,18.43,18.43,0,0,1,.25,4.45c-.13,1.31-.39,2.61-.59,3.91a4.38,4.38,0,0,1-.16.47l-1.52-4.2c0-1,0-2-.11-2.92a16.36,16.36,0,0,0-6.07-11.19A8.85,8.85,0,0,0,156.2,32,4.68,4.68,0,0,1,157.79,31.5Z"/>
        <path class="cls-11" d="M170.34,83.77c.14.24.28,0,.4,0,1.23-.48,2.44-1,3.68-1.46A27.27,27.27,0,0,1,179.51,81c1.08-.15,2.16-.25,3.23-.37a7.35,7.35,0,0,1,1.56,0,3.3,3.3,0,0,1-.3.22c-1.07.55-2.15,1.11-3.23,1.65a4.63,4.63,0,0,1-.75.22c-.6.19-1.22.35-1.81.57a55,55,0,0,0-11.12,5.56c-.63.41-1.23.88-1.84,1.32l-.1-.09a19.67,19.67,0,0,1,3.43-4.62C169.15,84.86,169.76,84.32,170.34,83.77Z"/>
        <path class="cls-11" d="M169,81.37a2,2,0,0,0,.36-.16c1.22-1,2.39-2.09,3.67-3a34.06,34.06,0,0,1,6.5-3.81,28.54,28.54,0,0,1,5.65-1.71h.89l-.46.32L182,75.28c-.13.08-.23.23-.36.3a2.78,2.78,0,0,1-.48.18l-.11.13h0a1.94,1.94,0,0,0-.42.07,37.51,37.51,0,0,0-12.79,8.72l-.26.21a7.7,7.7,0,0,1,1.35-3.36l.14-.16Z"/>
        <path class="cls-13" d="M208.1,85.39a7.61,7.61,0,0,1-1.77,4.25,3.51,3.51,0,0,1-.81.65l-4.73-3.13A41.57,41.57,0,0,0,208.1,85.39Z"/>
        <path class="cls-13" d="M189.11,37.6l.29.55a26.35,26.35,0,0,0,1.23,2.5,22.29,22.29,0,0,0,1.62,2,10.84,10.84,0,0,1,2.46,5.51,15.64,15.64,0,0,1-.07,2.9c0,.73-.17,1.45-.25,2.18-.57-.17-1.14-.37-1.72-.49s-1.13-.16-1.77-.24c.14-.22.27-.4.38-.6a26.68,26.68,0,0,0,1.24-2.37,4.76,4.76,0,0,0-.25-4.31c-.42-.74-.89-1.45-1.37-2.16a8.45,8.45,0,0,1-1.59-3.5C189.21,39,189.17,38.27,189.11,37.6Z"/>
        <path class="cls-18" d="M170.08,75.6a2.23,2.23,0,0,0,.44-.21c.39-.37.76-.76,1.15-1.13a35.85,35.85,0,0,1,4-3.28,32.92,32.92,0,0,1,4.51-2.75,13.59,13.59,0,0,1,3.5-1.27,3,3,0,0,1,1.12,0,3.85,3.85,0,0,1-.3.27c-.38.28-.76.56-1.16.82a4.93,4.93,0,0,1-.67.27,4.44,4.44,0,0,0-.62.19,33.1,33.1,0,0,0-7.16,4.6A37,37,0,0,0,168,80.42l-.56.8c0-.24,0-.37.07-.48a16.63,16.63,0,0,1,2.33-4.86L170,76l0-.1h0l.13-.25Z"/>
        <path class="cls-19" d="M225.71,34.1a6.57,6.57,0,0,1,1.8-3.24,1.29,1.29,0,0,1,1.22-.44,10.89,10.89,0,0,0,1.36,8.7L227.42,39a13.23,13.23,0,0,1-1.51-3.76C225.85,34.83,225.78,34.46,225.71,34.1Z"/>
        <path class="cls-13" d="M169.43,72.52a2.3,2.3,0,0,0,.34-.28,27.26,27.26,0,0,1,3.69-4,21,21,0,0,1,4-2.82,21.29,21.29,0,0,1,3.83-1.73c.57-.18,1.16-.31,1.74-.46l.05.11-1.39.86-.08-.1,0,.11h0a3,3,0,0,0-.54.12,22.36,22.36,0,0,0-4.92,3.23,47.68,47.68,0,0,0-7.19,7.7l-.37.45-.1-.08Z"/>
        <path class="cls-18" d="M223.44,42.72l.93,2a1.2,1.2,0,0,0,.77.61.85.85,0,0,0,.61,0,4.4,4.4,0,0,1,3-.45,9.25,9.25,0,0,1,2,.57,1.57,1.57,0,0,1,1,.8c-.51-.09-1-.2-1.52-.24a7.8,7.8,0,0,0-5.74,1.69,2.53,2.53,0,0,1-1.93-2.55A3.49,3.49,0,0,1,223.44,42.72Z"/>
        <path class="cls-18" d="M225.56,48.35a1.52,1.52,0,0,1,.16.4,3,3,0,0,0,1,2.21l.09.09a1.35,1.35,0,0,0,2,.46,3.93,3.93,0,0,1,2.41-.49,21.07,21.07,0,0,1,2.3.51c.06,0,.1.12.15.18a9.1,9.1,0,0,0-3.24.35,8,8,0,0,0-2.52,1.3,1,1,0,0,1-.77.21A3,3,0,0,1,225,49.08,4.43,4.43,0,0,1,225.56,48.35Z"/>
        <path class="cls-18" d="M225.71,34.1c.07.36.14.73.2,1.09A13.23,13.23,0,0,0,227.42,39l-1.8.33A8.34,8.34,0,0,1,225.71,34.1Z"/>
        <path class="cls-20" d="M203.5,28.46c0-.13.07-.27.12-.4.3-.74.83-.83,1.35-.22a4.61,4.61,0,0,1,.89,2.24c0,.11-.12.24-.19.36-.09-.06-.14-.08-.15-.11-.24-.64-.24-.64-1-.63a1.5,1.5,0,0,1-.3,0,1.56,1.56,0,0,1-.17-.09l.53-.68C204.22,28.46,204.22,28.46,203.5,28.46Z"/>
        <path class="cls-13" d="M168.59,75.66l-.09.17-.07,0,.06-.23Z"/>
        <path class="cls-13" d="M189.06,37.23l.05.28Z"/>
        <path class="cls-9" d="M170.09,75.61l-.13.25Z"/>
        <path class="cls-9" d="M170,75.85l0,.1-.08-.07A.06.06,0,0,1,170,75.85Z"/>
        <path class="cls-9" d="M169,81.36l-.14.16Z"/>
        <path class="cls-11" d="M165.25,90.15l-.12.09,0-.18Z"/>
        <path class="cls-6" d="M166.35,43.28l0,.14-.11-.06Z"/>
        <path class="cls-6" d="M181.91,34.92l.13,0L182,35Z"/>
        <path class="cls-13" d="M237.55,64.3l.08-.11Z"/>
        <path class="cls-17" d="M196.05,38.09,196,38l.11,0Z"/>
        <path class="cls-7" d="M181.6,64.16l0-.11.08.1Z"/>
        <path class="cls-7" d="M181,75.89l.11-.13Z"/>
        <path class="cls-11" d="M212.94,72.65l-.14.11,0-.08.16,0Z"/>
        <path class="cls-21" d="M216.4,58.18a4.16,4.16,0,0,1,1.28,2.09,11,11,0,0,1-.92,9.24,5.83,5.83,0,0,1-2.46,2.36l-.06-.07c.46-.79,1-1.55,1.39-2.36a13.79,13.79,0,0,0,1-10.37,7,7,0,0,1-.17-.91Z"/>
        <path class="cls-21" d="M216.41,58.16h-.09l0-.07.06.08Z"/>
        <path class="cls-21" d="M214.3,71.87l-.13,0,.07-.11Z"/>
        <path class="cls-7" d="M231.35,65.83l.1,0-.09-.05Z"/>
        <path class="cls-10" d="M168.44,64.63l-.14.12,0-.08.17,0Z"/>
        <path class="cls-22" d="M181.23,32a6.92,6.92,0,0,1,.94-2.22,16.37,16.37,0,0,1,4.28-4.5A27.73,27.73,0,0,1,190.23,23a.91.91,0,0,1,1,.09,2.32,2.32,0,0,1-.83.93,36.55,36.55,0,0,0-4.52,2.85,15.4,15.4,0,0,0-2.52,2.52c-.68.82-1.28,1.71-1.92,2.57,0,.06-.07.14-.11.21Z"/>
        <path class="cls-22" d="M199.89,25c-.47-.75-.93-1.51-1.42-2.24a6.24,6.24,0,0,0-2.06-2A5.34,5.34,0,0,0,192,20.4c-.21.07-.5.2-.65.11a3.76,3.76,0,0,1-1-.8c-.18-.19,0-.35.25-.41a10.66,10.66,0,0,1,1.54-.42,5.63,5.63,0,0,1,5.62,2,11.93,11.93,0,0,1,1.91,3.27,8.11,8.11,0,0,1,.21.85Z"/>
        <path class="cls-22" d="M199.9,25l.12.26-.08,0-.05-.28Z"/>
        <polygon class="cls-22" points="181.15 32.27 181.19 32.25 181.18 32.29 181.15 32.27"/>
        <path class="cls-7" d="M186.83,27.41l.11-.07,0,.13Z"/>
        <path class="cls-7" d="M209.21,98.64a.15.15,0,0,0,0,.07l-.08,0Z"/>
        <path class="cls-23" d="M192.35,40a4.11,4.11,0,0,1,.64-4.36l.68-.53c-.11-.22-.24-.42-.33-.63a5.57,5.57,0,0,1,1.39-6.12,2.31,2.31,0,0,1,2.37-.55,2,2,0,0,1,.63.4c-.77,0-1.56-.08-2.15.62a3.63,3.63,0,0,1,3.34,5.76l1,.76-.06.1-.62-.16a6.84,6.84,0,0,0-3.7,0,4.2,4.2,0,0,0-3.16,4C192.35,39.56,192.35,39.78,192.35,40Zm2.2-5.29a4.41,4.41,0,0,1,2.76-.4.86.86,0,0,0,1-.37,3,3,0,0,0-1.56-4.5,1.78,1.78,0,0,0-2.33,1A5.1,5.1,0,0,0,194,32,4.36,4.36,0,0,0,194.55,34.71Zm.87-5.81,0,0,0,0,0,0Z"/>
        <path class="cls-24" d="M192.45,29.13c.3-1.7.65-3.39,2.25-4.45a1.67,1.67,0,0,1,2.4.27,15,15,0,0,1,1,1.27l-.11.13a2.69,2.69,0,0,1-.29-.16,9.07,9.07,0,0,0-1.1-.68,1.73,1.73,0,0,0-1.88.37,7.88,7.88,0,0,0-1.94,2.9c-.06.12-.11.25-.16.38Z"/>
        <path class="cls-24" d="M206,27c-.3-.42-.58-.85-.9-1.25a8.83,8.83,0,0,0-.93-1,1.68,1.68,0,0,0-.61-.35.79.79,0,0,0-1,.35c-.18.31-.31.66-.5,1a3.29,3.29,0,0,1,0-1.65,1,1,0,0,1,1.43-.65,2.4,2.4,0,0,1,.9.56A7.41,7.41,0,0,1,206,26.7a.85.85,0,0,1,0,.23Z"/>
        <path class="cls-7" d="M198.94,27.67l.11.27H199l0-.28Z"/>
        <path class="cls-7" d="M202.6,27s-.06-.05-.06-.07a.38.38,0,0,1,0-.1s.06,0,.06.06S202.61,27,202.6,27Z"/>
        <path class="cls-24" d="M206,26.93l.09.2-.07,0L206,27Z"/>
        <path class="cls-24" d="M198.05,26.49s0,0,0,0l0,0s0,0,0-.05Z"/>
        <polygon class="cls-24" points="192.42 29.38 192.43 29.41 192.41 29.41 192.42 29.38"/>
        <path class="cls-23" d="M198,28.33l0,0,0,0,0,0Z"/>
        <path class="cls-21" d="M204,34.05c0-.39,0-.69,0-1s.22-.46.46-.39.29.29.23.53S204.42,33.7,204,34.05Z"/>
        <path class="cls-22" d="M202.18,44l.45,1.39c.07.2.14.41.22.61a4.17,4.17,0,0,0,2.76,2.59l.18,0c.75.29.88.63.52,1.38a1.52,1.52,0,0,1-1.6,1.07.78.78,0,0,1,0-.22,1.75,1.75,0,0,0-.84-1.66,4.12,4.12,0,0,1-1.71-2.36,4.31,4.31,0,0,1-.11-2.17,2.81,2.81,0,0,0,0-.65Z"/>
        <path class="cls-22" d="M205.52,43.7a3.36,3.36,0,0,0,3.5,0,5.38,5.38,0,0,1,.55-.24c.54-.18.82,0,.86.6a2.2,2.2,0,0,1-1.2,2.1c-.12-.57-.55-.66-1-.74a4.74,4.74,0,0,1-2-.75,1.42,1.42,0,0,1-.73-1Z"/>
        <path class="cls-7" d="M203.71,46.34l-.17-.18.07,0,.13.2Z"/>
        <path class="cls-22" d="M205.52,43.7l-.08,0,.08,0Z"/>
        <path class="cls-25" d="M194.55,34.71A4.36,4.36,0,0,1,194,32a5.1,5.1,0,0,1,.41-1.6,1.78,1.78,0,0,1,2.33-1,3,3,0,0,1,1.56,4.5.86.86,0,0,1-1,.37A4.41,4.41,0,0,0,194.55,34.71ZM197.19,31a1.35,1.35,0,0,0-1.62-.14,1.68,1.68,0,0,0-.79,1.63,1.39,1.39,0,0,0,2.75.18,5.08,5.08,0,0,0,.08-.89l-1.08.17-.08-.13Z"/>
        <path class="cls-15" d="M195.42,28.9l0,0,0,0,0,0Z"/>
        <path class="cls-21" d="M197.19,31l-.74.82.08.13,1.08-.17a5.08,5.08,0,0,1-.08.89,1.39,1.39,0,0,1-2.75-.18,1.68,1.68,0,0,1,.79-1.63A1.35,1.35,0,0,1,197.19,31Z"/>
      </g>
    </g>
  </g>
</svg>
