<svg xmlns="http://www.w3.org/2000/svg" viewBox="0 0 411.8 116.96">
  <defs>
    <style>
      .cls-1 {
        fill: #e4121e;
      }

      .cls-2 {
        fill: #1d1d1b;
      }

      .cls-3 {
        fill: #202020;
      }

      .cls-4 {
        fill: #1a1a1a;
      }

      .cls-5 {
        fill: #fff;
      }

      .cls-6 {
        fill: #3968b0;
      }

      .cls-7 {
        fill: #3263ad;
      }

      .cls-8 {
        fill: #d0d0d2;
      }

      .cls-9 {
        fill: #050506;
      }

      .cls-10 {
        fill: #fffffe;
      }

      .cls-11 {
        fill: #fefefe;
      }

      .cls-12 {
        fill: #fdfdfd;
      }

      .cls-13 {
        fill: #cacaaf;
      }

      .cls-14 {
        fill: #fefffd;
      }

      .cls-15 {
        fill: #c9c8ae;
      }

      .cls-16 {
        fill: #e52327;
      }

      .cls-17 {
        fill: #e52227;
      }

      .cls-18 {
        fill: #fcfcfc;
      }

      .cls-19 {
        fill: #f9dc06;
      }

      .cls-20 {
        fill: #c9c8ad;
      }

      .cls-21 {
        fill: #fcfcfb;
      }

      .cls-22 {
        fill: #efefef;
      }

      .cls-23 {
        fill: #090909;
      }

      .cls-24 {
        fill: #f08468;
      }

      .cls-25 {
        fill: #090707;
      }

      .cls-26 {
        fill: #f28e72;
      }

      .cls-27 {
        fill: #f5f5f5;
      }
    </style>
  </defs>
  <g id="Capa_2" data-name="Capa 2">
    <g id="Capa_1-2" data-name="Capa 1">
      <g>
        <path class="cls-1" d="M55.84,79.28h-5l-2.12-5.64H46.66l-1.1,5.65H41.07l3.47-17.91h7A6.79,6.79,0,0,1,56,62.72a4.45,4.45,0,0,1,1.59,3.55,7.94,7.94,0,0,1-1.11,4.23,6.17,6.17,0,0,1-3.39,2.62v0Zm-8.39-9.71H50.2C52,69.57,53,68.71,53,67a1.58,1.58,0,0,0-.4-1.17,2,2,0,0,0-1.46-.41H48.25Z"/>
        <path class="cls-1" d="M73.45,79.28H69l1-5.12H63.1l-1,5.12H57.7l2-10.41a10.19,10.19,0,0,1,3-5.81A8.71,8.71,0,0,1,68.79,61a7.5,7.5,0,0,1,5.08,1.58A5.47,5.47,0,0,1,75.69,67a8,8,0,0,1-.22,1.89Zm-2.76-8.9L71,68.87a7.82,7.82,0,0,0,.14-1.31c0-1.66-.93-2.5-2.8-2.5q-3.52,0-4.19,3.81l-.29,1.51Z"/>
        <path class="cls-1" d="M91.42,66.71H87.2a2.07,2.07,0,0,0,0-.41c0-1-.6-1.48-1.78-1.48a2.7,2.7,0,0,0-1.91.63,1.93,1.93,0,0,0-.67,1.42,1.16,1.16,0,0,0,.56,1,3.74,3.74,0,0,0,1.41.53c.57.1,1.18.25,1.83.43a15.55,15.55,0,0,1,1.82.64,3.23,3.23,0,0,1,1.41,1.25,3.89,3.89,0,0,1,.56,2.14,6.39,6.39,0,0,1-2.08,5,8.13,8.13,0,0,1-5.62,1.86,7.07,7.07,0,0,1-4.38-1.26A4,4,0,0,1,76.71,75a6.43,6.43,0,0,1,.08-1H81.2a2.87,2.87,0,0,0,0,.52c0,.91.66,1.37,2,1.37a3.28,3.28,0,0,0,2.09-.56,1.86,1.86,0,0,0,.68-1.5,1.15,1.15,0,0,0-.56-1,3.33,3.33,0,0,0-1.4-.53c-.55-.1-1.16-.25-1.82-.44a13.81,13.81,0,0,1-1.82-.66A3.21,3.21,0,0,1,78.91,70a3.88,3.88,0,0,1-.56-2.13,6.45,6.45,0,0,1,2-4.91,7.55,7.55,0,0,1,5.36-1.91,6.26,6.26,0,0,1,4.12,1.31,4.28,4.28,0,0,1,1.6,3.48A6,6,0,0,1,91.42,66.71Z"/>
        <path class="cls-1" d="M105.16,79.28H92l3.47-17.91h13.23l-.79,4.05H99.14l-.58,3h7.12L105,71.94H97.88l-.63,3.29H106Z"/>
        <path class="cls-1" d="M123.06,79.28h-5l-2.12-5.64h-2.06l-1.1,5.65h-4.49l3.47-17.91h7a6.79,6.79,0,0,1,4.52,1.35,4.45,4.45,0,0,1,1.59,3.55,7.94,7.94,0,0,1-1.11,4.23,6.17,6.17,0,0,1-3.39,2.62v0Zm-8.39-9.71h2.75c1.84,0,2.76-.86,2.76-2.57a1.58,1.58,0,0,0-.4-1.17,2,2,0,0,0-1.46-.41h-2.85Z"/>
        <path class="cls-1" d="M145.32,68.71a10.47,10.47,0,0,1-3.2,7.76,10.93,10.93,0,0,1-8,3.17,8.35,8.35,0,0,1-5.92-2.18,7.23,7.23,0,0,1-2.32-5.52,10.44,10.44,0,0,1,3.2-7.76,10.93,10.93,0,0,1,8-3.17A8.35,8.35,0,0,1,143,63.19,7.23,7.23,0,0,1,145.32,68.71Zm-10.76,6.87a5.86,5.86,0,0,0,4.37-1.81,6.07,6.07,0,0,0,1.76-4.43,4.29,4.29,0,0,0-1.12-3.08,3.92,3.92,0,0,0-3-1.2,5.73,5.73,0,0,0-4.32,1.81,6.27,6.27,0,0,0-1.71,4.47,4.33,4.33,0,0,0,1.08,3.06A3.81,3.81,0,0,0,134.56,75.58Z"/>
      </g>
      <g>
        <path class="cls-1" d="M332.83,69a10.52,10.52,0,0,1-3.2,7.77,10.92,10.92,0,0,1-8,3.16,8.35,8.35,0,0,1-5.92-2.17,7.27,7.27,0,0,1-2.33-5.52,10.49,10.49,0,0,1,3.21-7.77,10.93,10.93,0,0,1,8-3.17,8.31,8.31,0,0,1,5.91,2.18A7.22,7.22,0,0,1,332.83,69Zm-10.76,6.88a5.86,5.86,0,0,0,4.37-1.81,6.08,6.08,0,0,0,1.76-4.44,4.31,4.31,0,0,0-1.12-3.08,4,4,0,0,0-3-1.19,5.68,5.68,0,0,0-4.32,1.81A6.23,6.23,0,0,0,318,71.62a4.36,4.36,0,0,0,1.08,3.07A3.81,3.81,0,0,0,322.07,75.87Z"/>
        <path class="cls-1" d="M348.45,79.57h-5l-2.12-5.65h-2.06l-1.09,5.66h-4.5l3.47-17.92h7A6.74,6.74,0,0,1,348.64,63a4.43,4.43,0,0,1,1.59,3.55,8,8,0,0,1-1.11,4.23,6.2,6.2,0,0,1-3.39,2.61v.06Zm-8.39-9.72h2.75c1.84,0,2.76-.85,2.76-2.56a1.58,1.58,0,0,0-.4-1.17,2,2,0,0,0-1.46-.41h-2.85Z"/>
        <path class="cls-1" d="M366.06,79.57h-4.49l1-5.13h-6.85l-1,5.13h-4.41l2-10.41a10.24,10.24,0,0,1,3-5.81,8.71,8.71,0,0,1,6.06-2.06,7.52,7.52,0,0,1,5.08,1.58,5.49,5.49,0,0,1,1.82,4.4,7.92,7.92,0,0,1-.22,1.88Zm-2.76-8.91.29-1.5a7.92,7.92,0,0,0,.14-1.32c0-1.66-.93-2.49-2.8-2.49q-3.53,0-4.19,3.81l-.29,1.5Z"/>
        <path class="cls-1" d="M376,79.57h-6.65l3.47-17.92h6a9.09,9.09,0,0,1,6.18,2,6.55,6.55,0,0,1,2.23,5.2,10.66,10.66,0,0,1-2.9,7.78C382.39,78.57,379.62,79.57,376,79.57Zm-1.37-4.06h1.76A6,6,0,0,0,381,73.85a6.17,6.17,0,0,0,1.54-4.36q0-3.78-4.19-3.78h-1.87Z"/>
        <path class="cls-1" d="M408.1,69a10.48,10.48,0,0,1-3.2,7.77,10.92,10.92,0,0,1-8,3.16A8.35,8.35,0,0,1,391,77.75a7.26,7.26,0,0,1-2.32-5.52,10.48,10.48,0,0,1,3.2-7.77,10.93,10.93,0,0,1,8-3.17,8.35,8.35,0,0,1,5.92,2.18A7.24,7.24,0,0,1,408.1,69Zm-10.76,6.88a5.86,5.86,0,0,0,4.37-1.81,6.08,6.08,0,0,0,1.76-4.44,4.31,4.31,0,0,0-1.12-3.08,4,4,0,0,0-3-1.19A5.66,5.66,0,0,0,395,67.16a6.2,6.2,0,0,0-1.72,4.46,4.32,4.32,0,0,0,1.09,3.07A3.78,3.78,0,0,0,397.34,75.87Z"/>
      </g>
      <path class="cls-1" d="M36,74.21a11.56,11.56,0,0,0-5.75-4.32v-.14q5.64-3.07,5.64-10.07a11.77,11.77,0,0,0-3.53-8.93q-3.54-3.34-10.17-3.35H0V94.09H11.56v-36h8.72c2.8,0,4.21,1.29,4.21,3.86s-1.41,3.78-4.21,3.78H15.73V75h6A4.43,4.43,0,0,1,25,76.24a4.13,4.13,0,0,1,1.18,3q0,4.14-4.5,4.14h-6V94.09h8.33q6.78,0,10.39-3.53a12.4,12.4,0,0,0,3.61-9.25A12.19,12.19,0,0,0,36,74.21Z"/>
      <path class="cls-1" d="M303.6,53.46q-6.45-6.27-18.49-6.27H268.66V93.78H280.2V57.88h4.91q13.26,0,13.26,12.61T285.11,83.1h-.75V93.78h.75q12,0,18.49-6.26t6.45-17Q310.05,59.74,303.6,53.46Z"/>
      <path class="cls-2" d="M411.8,60.66a1.82,1.82,0,0,1-.59,1.39,2,2,0,0,1-1.44.57,1.43,1.43,0,0,1-1-.39,1.32,1.32,0,0,1-.41-1,1.87,1.87,0,0,1,.59-1.39,2,2,0,0,1,1.45-.57,1.45,1.45,0,0,1,1,.39A1.31,1.31,0,0,1,411.8,60.66Zm-.23,0a1.17,1.17,0,0,0-.33-.86,1.19,1.19,0,0,0-.89-.33,1.8,1.8,0,0,0-1.28.49,1.6,1.6,0,0,0-.52,1.21,1.18,1.18,0,0,0,.33.87,1.15,1.15,0,0,0,.89.34,1.8,1.8,0,0,0,1.27-.5A1.64,1.64,0,0,0,411.57,60.69Zm-.87,1.08h-.27l-.34-.59h-.48l-.12.59h-.24l.33-1.64h.79a.52.52,0,0,1,.36.12.4.4,0,0,1,.14.31.66.66,0,0,1-.14.41.62.62,0,0,1-.4.2h0Zm-.35-1.43h-.58l-.12.64h.56a.45.45,0,0,0,.31-.11.39.39,0,0,0,.11-.28C410.63,60.42,410.54,60.34,410.35,60.34Z"/>
      <g>
        <path class="cls-3" d="M332.91,81c-.08.08-.29,0-.45-.19s-.23-.39-.15-.47a.58.58,0,0,0,.17-.35,1.14,1.14,0,0,0-.19-.82,2.59,2.59,0,0,0-.94-.87C328,76.34,321.27,78,318,79.55c-1.59.74-5.47,2.94-4.4,5.21.49,1.06,2.22,1.66,3.9,2.24a16.68,16.68,0,0,1,2.74,1.13c5.82,3.27-1.44,10.3-7.16,10.4-2.08.11-4.5-.88-4.54-3,0-.94.72-2.18,2.55-3.64.08-.08.28,0,.45.21s.23.39.12.45c-1.77,1.42-2.47,2.57-2.44,3.41,0,1.32,2.3,1.46,3.2,1.42,5-.12,12.2-6.27,7.9-8.7a18.81,18.81,0,0,0-2.59-1c-1.95-.67-3.95-1.35-4.73-3-1.26-2.69,2.34-5,4.32-6,3.53-1.65,10.36-3.09,14-1a4.08,4.08,0,0,1,1.55,1.46,2.13,2.13,0,0,1,.35,1.32A.94.94,0,0,1,332.91,81Z"/>
        <path class="cls-3" d="M327.93,88.72c.09.21,0,.33-.14.29a.78.78,0,0,1-.45-.41c-.41-.39-1.42.08-1.79.39a4,4,0,0,0-1.42,2.3c.72-.2,2.59-2.38,2.59-2.38s.27,0,.45.16.23.35.17.46a2.09,2.09,0,0,0-.17,1.21c.09.49,2.76-1.75,2.8-1.77a.27.27,0,0,1,.41,0c.17.19.14.35.06.43a18.7,18.7,0,0,1-2.71,2.22c-1,.5-1.67.21-1.65-.8-.74.7-1.5,1.34-1.95,1.13a1,1,0,0,1-.41-.31,1.1,1.1,0,0,1-.25-.86,2.22,2.22,0,0,1,.23-.78A4.79,4.79,0,0,1,325,88.33C325.9,87.57,327.58,87.53,327.93,88.72Z"/>
        <path class="cls-3" d="M334.37,81.5c.06-.1.25,0,.43.13s.27.39.21.49l-4.61,7.45a9.78,9.78,0,0,1,2.37-1.79.84.84,0,0,1,.92,0l0,0a1.15,1.15,0,0,1,.45.94,2.45,2.45,0,0,1-.12.85c-.33,1.07-1.17,2.4-2.07,2.61a1.45,1.45,0,0,1-2-1.07c-1,1-1.73,1.85-1.75,1.85s-.24,0-.41-.14-.27-.39-.21-.5Zm-1.05,7a12.39,12.39,0,0,0-2.77,2.18c0,.22.06,1.11.92.9s1.61-1.46,1.89-2.47a2.75,2.75,0,0,0,.15-.7Zm.31-.13,0,0s.06,0,0,0Z"/>
        <path class="cls-3" d="M335.89,88.06c.09-.06.29,0,.46.21s.2.39.12.47l-.16.13a4,4,0,0,0-1,1.66,2.22,2.22,0,0,0-.15,1.24.64.64,0,0,0,.39,0,1.72,1.72,0,0,0,.62-.39,3.58,3.58,0,0,0,.8-1.09,3.84,3.84,0,0,0,.33-.85,2.86,2.86,0,0,1-.8-1,2.05,2.05,0,0,1-.2-1c0-.29.16-.5.41-.54a.9.9,0,0,1,.51.1,1.56,1.56,0,0,1,.64.7,2.33,2.33,0,0,1,.22.75,2.6,2.6,0,0,1,0,.88,2.62,2.62,0,0,0,1.85-.25c.11-.06.21-.14.38,0s.12.33,0,.39a2.72,2.72,0,0,1-2.33.39,3.48,3.48,0,0,1-.39,1,3.81,3.81,0,0,1-.84,1.15,2.12,2.12,0,0,1-.7.44,1,1,0,0,1-.8-.09,1.56,1.56,0,0,1-.42-.32l-.12-.13a2.32,2.32,0,0,1-.08-2,4.4,4.4,0,0,1,1.07-1.77C335.77,88.17,335.83,88.11,335.89,88.06Zm1.5.89a2.9,2.9,0,0,0,0-.93,1.9,1.9,0,0,0-.1-.45h0a.16.16,0,0,0-.14,0c-.12,0-.19.13-.21.31a1.22,1.22,0,0,0,.13.64A1.05,1.05,0,0,0,337.39,89Z"/>
        <path class="cls-3" d="M341.18,86.89c.06-.1.27,0,.43.13s.27.39.21.49l-.76,1.21c.72-.35,1.7-.68,2.11-.16.19.2.13.68.4.7a5.15,5.15,0,0,0,1.52-.23c.12,0,.24-.14.37,0s.06.27-.06.29a7.09,7.09,0,0,1-2,.35c-.53,0-.7-.18-1.15-.72-.31-.37-2.14,1.26-2.14,1.26s-1.11,1.83-1.21,2-.27,0-.44-.12-.26-.39-.2-.5Z"/>
        <path class="cls-3" d="M351.9,89.77c-.09.08-.33.21-.5,0s.27-.55.35-.64l1.54-1.87a5.92,5.92,0,0,1,.48-.45c.08-.08.28,0,.43.19s.25.39.16.47l-.49.47a2.75,2.75,0,0,0-.78,2.33,2.27,2.27,0,0,1-.1,1.41,1.79,1.79,0,0,1-.39.46,1.49,1.49,0,0,1-.48.22,1.15,1.15,0,0,1-.8-.1,1.26,1.26,0,0,1-.53-1.77c.06-.1.24-.06.43.11s.27.39.22.49-.28.53-.24.55a.7.7,0,0,0,.41,0,.84.84,0,0,0,.41-.18.93.93,0,0,0,.31-.37,1.71,1.71,0,0,0,.1-1.13c0-.27-.18-.29.31-1.19Z"/>
        <path class="cls-3" d="M356.46,87.47c.1-.08.31,0,.47.18s.23.39.13.48a8.49,8.49,0,0,0-1.65,2.14c-.28.57-.26.9-.06,1,.85.13,3.13-2.1,3.13-2.12s.22-.24.39-.06.1.25,0,.33-3.44,3.7-4.32,2.16a2.1,2.1,0,0,1,.21-1.91A8,8,0,0,1,356.46,87.47Zm1.28-.6c-.08.11-.29,0-.46-.14s-.24-.39-.16-.5l1.15-1.31c.08-.11.27,0,.45.14s.23.39.17.49Z"/>
        <path class="cls-3" d="M359.14,87.92c.06-.1.26-.06.43.1s.27.4.2.5l-.51.92c1.11-.92,2.32-1.83,2.78-1.7h0a.76.76,0,0,1,.57,1.09,5.43,5.43,0,0,1-.35.8c-.26.53-.57,1.13-.57,1.13.66.43,2.88-1.52,2.9-1.52s.28-.35.45-.17.06.21,0,.31-2.24,2.65-3.31,2-.48-1.51-.08-2.31a5.27,5.27,0,0,0,.22-.49,30.26,30.26,0,0,0-4,3.31c-.06.08-.24,0-.41-.13s-.27-.38-.21-.49Z"/>
        <path class="cls-3" d="M377.17,89.15c.05-.06.13-.18.29-.06s.27.27.23.33a29.32,29.32,0,0,1-5.86,4.83c-.74.4-2,.77-2.49-.06-1.22-1.7,6.7-13,6.89-13a4.52,4.52,0,0,1,2.16-1.76.94.94,0,0,1,.66,0,1,1,0,0,1,.7.65,2.28,2.28,0,0,1-.37,1.51c-1.32,2.63-6.81,6.8-6.83,6.82s0,0-.09,0c-1.5,2.62-2.57,5-2.28,5.6.19.26,1.07-.06,1.28-.17C372.63,93.19,376.66,90,377.17,89.15Zm-.37-7.56s-1.66,2.42-3.33,5.14c1.71-1.42,4.45-3.85,5.33-5.6a2.22,2.22,0,0,0,.35-1.31l-.27,0A4.54,4.54,0,0,0,376.8,81.59Z"/>
        <path class="cls-3" d="M378.43,87.47c.1-.08.31,0,.47.18s.23.39.13.48a8.06,8.06,0,0,0-1.65,2.14c-.29.57-.27.9-.06,1,.84.13,3.12-2.1,3.12-2.12s.23-.24.4-.06.1.25,0,.33-3.44,3.7-4.32,2.16a2.09,2.09,0,0,1,.2-1.91A8.18,8.18,0,0,1,378.43,87.47Zm.8-1.15a1.25,1.25,0,0,0,.12-.17,1.57,1.57,0,0,0,.31-.68.56.56,0,0,1,.23-.26c.12-.09.43.14.41.24,0,.29-.78,1.44-1.38,1.28l0,0c-.06,0,0-.17.1-.27A.3.3,0,0,1,379.23,86.32Z"/>
        <path class="cls-3" d="M381.16,87.39c0-.11.25,0,.42.12s.28.37.22.49l-.37.64a6.51,6.51,0,0,1,1.65-1.28c1.27-.43,1.07,1,.66,2.23l.2-.11a1.36,1.36,0,0,1,.5-.14.79.79,0,0,1,.78.53,1.49,1.49,0,0,1-.07,1.06s2.2-1.79,2.23-1.79.26-.31.43-.13.16.29.08.37-4.94,5.21-3.39,1l.06-.23-.08,0a4.87,4.87,0,0,0-1.42,1.13v0c-.07.13-.25.09-.44-.08a.56.56,0,0,1-.22-.49s1.25-2.7,1.19-2.68c-1.11.4-4.07,4-4.09,4s-.25,0-.41-.13-.27-.39-.21-.49Z"/>
        <path class="cls-3" d="M388.8,87.47c.1-.08.3,0,.47.18s.22.39.12.48a8.26,8.26,0,0,0-1.64,2.14c-.29.57-.27.9-.07,1,.85.13,3.13-2.1,3.13-2.12s.23-.24.39-.06.11.25,0,.33-3.43,3.7-4.32,2.16a2.13,2.13,0,0,1,.21-1.91A7.79,7.79,0,0,1,388.8,87.47Zm1.27-.6c-.08.11-.29,0-.45-.14s-.25-.39-.17-.5l1.16-1.31c.08-.11.26,0,.45.14s.22.39.16.49Z"/>
        <path class="cls-3" d="M396.63,79.86c.06-.08.27,0,.43.14s.25.4.19.47-1.5,2.1-3.11,4.51h5.25a.68.68,0,0,1,.47.35c.12.2.1.37,0,.37h-6.15c-.43.66-.86,1.34-1.28,2v0c0,.08,0,.12-.08.12-1.25,2-1.93,3.21-1.7,3.62.37.7,4.54-2.63,4.54-2.65s.21-.11.37.08,0,.28,0,.35-4.69,4.63-5.7,2.77c-.31-.57.64-2.55,2-4.73,0,0,.12-.22.12-.22,0-1.57-5.22-1.36-5.22-1.36a.7.7,0,0,1-.48-.37c-.12-.19-.1-.35,0-.35h7C394.88,82.29,396.61,79.88,396.63,79.86Zm-4.54,6.83.61-1-2.57-.1A5.36,5.36,0,0,1,392.09,86.69Z"/>
        <path class="cls-3" d="M397.33,89.28a6.58,6.58,0,0,1-2.12.61c-1.4,3,4.16.46,4.8-.7a.29.29,0,0,1,.45-.1c.16.17.16.25.1.37-.58,1-3.78,3.23-5.2,2.43a1.93,1.93,0,0,1-1-2,3.51,3.51,0,0,1,.82-1.52,9.4,9.4,0,0,1,1.34-1.21,2.81,2.81,0,0,1,1.38-.62,1,1,0,0,1,.74,1,1.86,1.86,0,0,1-.21.58A2.68,2.68,0,0,1,397.33,89.28ZM395.87,89a7.82,7.82,0,0,0,.93-.35,2.88,2.88,0,0,0,1-1c0-.08.06-.14.1-.23a4.56,4.56,0,0,0-.8.5A7.8,7.8,0,0,0,395.87,89Z"/>
      </g>
      <path class="cls-4" d="M236.68,114.9c-3.37,0-8.42-3.38-19.48-10.76-4.14-2.77-9.23-6.17-15.13-10-5.92,3.81-11,7.22-15.19,10-11,7.36-16.08,10.72-19.44,10.72a4.06,4.06,0,0,1-3.32-1.57c-2.2-2.91-.59-8.58,3.71-23.71,1.31-4.63,2.93-10.32,4.67-16.82-6.18-5.1-11.54-9.29-15.91-12.7C145,51,140.69,47.65,141.94,43.8c1.33-4.09,7.35-4.32,27.31-5.06,4.27-.16,9.1-.34,14.54-.59,1.54-4,3.07-8.07,4.55-12,2.72-7.25,5.54-14.75,8.48-22.07l0-.09,0-.09C198.51.68,200.55,0,202,0c2.46,0,4.67,2.05,5.92,5.49,4,10.34,7.86,20.55,12.43,32.66,5.64.25,10.61.44,15,.6,19.69.73,25.64,1,26.95,5,1.24,3.85-3.1,7.22-14.69,16.26-4.38,3.41-9.77,7.6-16,12.71,1.73,6.43,3.28,11.89,4.66,16.75,4.32,15.22,5.94,20.92,3.73,23.84A4,4,0,0,1,236.68,114.9Z"/>
      <path class="cls-5" d="M229.69,71.26c14,52.54,18.67,48.43-26.67,19.35-45.4,29.06-40.69,33.16-26.72-19.3-39.6-32.87-46.27-28.72,9-31.23A1.58,1.58,0,0,0,187,38.85c4.4-11.46,8.59-23,13.16-34.39,2.21-4.44,5-2.34,6.36,1.35,4.25,11,8.41,22,12.57,33a1.67,1.67,0,0,0,1.77,1.27C276,42.6,269.52,38.32,229.69,71.26Z"/>
      <path class="cls-6" d="M235.39,107c-2.89-1.31-8.77-5.24-14.94-9.36-4.48-3-10.06-6.72-16.58-10.9l-1.7-1.09-1.7,1.09c-6.55,4.19-12.15,7.93-16.64,10.93-6.4,4.26-12.08,8-14.9,9.32.34-3.15,2.27-10,4.45-17.62,1.43-5,3.2-11.27,5.12-18.47L179,69l-1.55-1.29c-6.77-5.62-12.6-10.17-17.28-13.83-5-3.94-9.84-7.69-11.82-9.81,3.45-.74,11.78-1.05,21.19-1.41,4.4-.16,9.38-.35,15-.6a4.7,4.7,0,0,0,4.47-3.27c1.58-4.11,3.16-8.32,4.69-12.39,2.7-7.17,5.49-14.6,8.39-21.81v0a6.73,6.73,0,0,1,.52,1.15l0,.06c4,10.43,7.93,20.73,12.55,33a4.75,4.75,0,0,0,4.59,3.3c5.79.26,10.89.45,15.39.62,9.21.34,17.37.64,20.81,1.36-2,2.12-6.81,5.85-11.83,9.76-4.7,3.67-10.55,8.22-17.36,13.85l-1.56,1.29.52,2c1.91,7.16,3.68,13.4,5.1,18.41C233.1,97,235,103.83,235.39,107Z"/>
      <g>
        <path class="cls-7" d="M256,44a45.45,45.45,0,0,1-3.77,3.38c-.42.35-.86.71-1.32,1.07-2,1.63-4.35,3.45-6.74,5.31l-.19.16L241.33,56h0l-2,1.56q-1.85,1.44-3.86,3.05l-.87.7q-1.69,1.34-3.48,2.79l-.82.66-.88.73L228,66.63l-1.16,1-1.55,1.29.52,1.95c.3,1.15.6,2.27.9,3.37h0l.21.76c0,.21.11.41.16.61s.07.22.09.33q.88,3.23,1.7,6.14c.17.59.33,1.16.49,1.73s.26.91.38,1.36c.41,1.45.8,2.82,1.17,4.1,1,3.61,2,7,2.77,10,.18.68.35,1.33.5,2s.35,1.37.49,2c.09.39.18.77.25,1.13.23,1.07.39,2,.47,2.7a40.52,40.52,0,0,1-3.92-2.18l-1.55-1-2.1-1.34c-.7-.45-1.42-.93-2.16-1.42-1.67-1.09-3.42-2.27-5.2-3.46l-1.7-1.13-1.61-1.08-5-3.3-1.56-1c-2.12-1.38-4.36-2.84-6.72-4.36l-.29-.18-1.41-.91-.21.13-1.49,1c-5.79,3.7-10.83,7.05-15,9.85l-1.62,1.07-4,2.68A103.06,103.06,0,0,1,168.94,107a52.14,52.14,0,0,1,1.3-6.2c.18-.68.36-1.38.56-2.11.74-2.78,1.64-6,2.59-9.28v0c.29-1,.58-2,.89-3.13,1.25-4.41,2.69-9.57,4.23-15.34l.52-1.94-.85-.71-.1-.08-.6-.5-1.74-1.43c-1-.82-2-1.6-2.89-2.37-1.24-1-2.44-2-3.61-2.91h0q-1.85-1.47-3.55-2.81L164,56.75l-3-2.31-.81-.63-.82-.64-1.58-1.24-1-.75-1.22-1A81.34,81.34,0,0,1,148.37,44c3.45-.74,11.79-1.06,21.2-1.41l5-.18,1.94-.08,2.75-.11,3.73-.16L184.6,42h.2a4.8,4.8,0,0,0,2.76-1.06l0,0a5.21,5.21,0,0,0,1.48-2.19c.09-.25.19-.51.29-.76.26-.67.51-1.34.77-2h0q1.08-2.82,2.14-5.64h0q.66-1.77,1.32-3.51c0-.15.11-.3.17-.45,2.7-7.18,5.49-14.6,8.38-21.82l0,0a9.17,9.17,0,0,1,.52,1.14l0,.07c1.6,4.14,3.18,8.25,4.79,12.48L208.55,21h0l.42,1.09h0c.27.7.53,1.4.8,2.11h0c.37,1,.74,2,1.12,2.95h0l.46,1.23h0l2.37,6.25.5,1.34,1,2.74a5.3,5.3,0,0,0,.92,1.64,4.49,4.49,0,0,0,3,1.6h0a6,6,0,0,0,.61.06l.6,0,1.32,0,2.17.1,11.3.44,1,0c4.29.16,8.31.32,11.7.51A63.62,63.62,0,0,1,256,44Z"/>
        <path class="cls-8" d="M254.66,53a16.28,16.28,0,0,0-2.39-5.6,15.36,15.36,0,0,0-4.33-4.2c-.49-.31-1-.61-1.53-.89a2.74,2.74,0,0,1-.68-.55,10,10,0,0,1-2.77-7c0-1,0-1.93,0-2.9s-.34-1.27-1.33-1.21a3.43,3.43,0,0,0-2.31,1.18A9.38,9.38,0,0,0,236.81,40c.09.62.3,1.22.45,1.84l-.6.46-.42.35A7.16,7.16,0,0,0,233.9,46a4.61,4.61,0,0,0,.28,3.62,3.06,3.06,0,0,0,2.44,1.76c-.1.24-.2.43-.26.63a1,1,0,0,1-.58.59,4.64,4.64,0,0,1-4,.07,1.29,1.29,0,0,1-.82-.78,25.17,25.17,0,0,0-7.06-9.76c-.24-.21-.49-.41-.74-.61-.61-.49-1.25-.93-1.87-1.39.1-.61.2-1.21.3-1.84a5.12,5.12,0,0,1,.78-.38c.58-.19,1.16-.35,1.75-.5s.61-.21.6-.72a3.42,3.42,0,0,0-.15-1.11A5.81,5.81,0,0,0,220,31.67c0-.5-.09-1.05-.17-1.58a11.36,11.36,0,0,0-2.45-5.66A5,5,0,0,0,215.49,23a2.36,2.36,0,0,0-2.69.44l-.4.37c-.15-.31-.29-.59-.42-.87A11.44,11.44,0,0,0,210.13,20a7.2,7.2,0,0,0-2.64-1.86,6.77,6.77,0,0,0-2.24-.46,11,11,0,0,0-4.51.75,4.67,4.67,0,0,0-1.34.8,1.75,1.75,0,0,0,0,2.88c.24.22.5.42.77.64a.93.93,0,0,1-.19.12,25.72,25.72,0,0,0-4.72,2.65c-.56.39-1.11.8-1.63,1.22A18.75,18.75,0,0,0,190,30.49a10.18,10.18,0,0,0-1.75,3.88,4.94,4.94,0,0,0-.11,2.13,1.66,1.66,0,0,0,1.2,1.45,2.12,2.12,0,0,0,1.08-.12,14.25,14.25,0,0,0,1.77-.93l.07.06c0,.19-.05.38-.09.56a16.11,16.11,0,0,0,.2,7.5,7.38,7.38,0,0,0,1.6,3.12,2.27,2.27,0,0,0,3.62.07,9.72,9.72,0,0,0,1.1-1.53c.28-.45.49-1,.78-1.54.59,1,1.2,1.79,1.67,2.69a5.52,5.52,0,0,1,0,5.44c-.25.46-.57.89-.86,1.33a1.9,1.9,0,0,1-1.83,1.09.57.57,0,0,0-.18,0,17.81,17.81,0,0,0-5.62,2l-1,.55a3.45,3.45,0,0,1,0-.4,27.22,27.22,0,0,0,.09-8.11,16.07,16.07,0,0,0-3.94-8.66l-.22-.2,0,0v0a23.08,23.08,0,0,1,.31,5,14.36,14.36,0,0,1-1,4.79,3.28,3.28,0,0,1-.14-.8A23.44,23.44,0,0,0,184.8,42h0a17.62,17.62,0,0,0-8.88-9.26,12.92,12.92,0,0,0-8.3-1.08,7.63,7.63,0,0,0-5,3.3c-.12.17-.21.37-.33.58.62-.09,1.16-.19,1.7-.23a9.26,9.26,0,0,1,5.73,1.61,13.76,13.76,0,0,1,4.84,5.51,18.77,18.77,0,0,1,1.24,3.32l-.09.08a2,2,0,0,1-.22-.09A17.52,17.52,0,0,0,171.61,44a12.82,12.82,0,0,0-10.43,1,15.2,15.2,0,0,0-5.56,5.21,16.32,16.32,0,0,0-2.25,6.25,12,12,0,0,0,.56,5.79,3.67,3.67,0,0,0,.12-.37,9.53,9.53,0,0,1,6.83-7.4l.13,0a7.4,7.4,0,0,1,5.18.21,5.6,5.6,0,0,1,2.19,1.61,10,10,0,0,0-4.42.49,10.61,10.61,0,0,0-3.6,2.17,13.55,13.55,0,0,0-3.21,4.33,17.94,17.94,0,0,0-1.51,10.94,17.49,17.49,0,0,0,1.42,4.63,1.33,1.33,0,0,0,.11-.1,1.16,1.16,0,0,0,0-.18A19.55,19.55,0,0,1,161.7,69,9.38,9.38,0,0,1,165,66.4c.12-.05.24-.07.42-.13-.31.55-.61,1-.85,1.49a18.88,18.88,0,0,0-1.93,8.6,18.61,18.61,0,0,0,.58,4.75A15.36,15.36,0,0,0,169,90a1.92,1.92,0,0,0,.41.19,2,2,0,0,0,0-.24,17.42,17.42,0,0,1-1-7.44,18.08,18.08,0,0,1,1.28-5.31c.06-.14.14-.28.28-.55,0,.37,0,.58,0,.78a20.94,20.94,0,0,0,1.14,7.7,12.07,12.07,0,0,0,2.35,4.28,6.92,6.92,0,0,0,1.66,1.34,5.45,5.45,0,0,0,0,.7,1.82,1.82,0,0,1-.34,1.23A22.65,22.65,0,0,0,173.57,95a9,9,0,0,1-.51,1.54,8,8,0,0,1-1.27,1.11,8.08,8.08,0,0,0-1,1,3.71,3.71,0,0,0-.52.88,1.44,1.44,0,0,0,0,1.23,1.46,1.46,0,0,0,.89.65,6.81,6.81,0,0,0,1.49.24,15.26,15.26,0,0,0,3.75-.44c1.17-.25,2.32-.56,3.46-.9l4-2.68,1.62-1.07c4.2-2.8,9.24-6.15,15-9.85l1.49-1,.21-.13,1.41.91.29.18c2.36,1.52,4.6,3,6.72,4.36l1.56,1,5,3.3,1.61,1.08a12,12,0,0,0,3-6.43.75.75,0,0,1,.5-.63c1.25-.59,2.52-1.16,3.73-1.83a28.69,28.69,0,0,0,3.79-2.47,23.33,23.33,0,0,0,4.67-4.79c.44-.61.84-1.26,1.22-1.83,1.21-.17,2.39-.27,3.55-.49a18.11,18.11,0,0,0,10.09-5.36A20.7,20.7,0,0,0,254.66,53ZM169.39,90.17v.07l.07,0Zm0,0h0v0Z"/>
        <path class="cls-9" d="M254.66,53a16.28,16.28,0,0,0-2.39-5.6,15.36,15.36,0,0,0-4.33-4.2c-.49-.31-1-.61-1.53-.89a2.74,2.74,0,0,1-.68-.55,10,10,0,0,1-2.77-7c0-1,0-1.93,0-2.9s-.34-1.27-1.33-1.21a3.43,3.43,0,0,0-2.31,1.18A9.38,9.38,0,0,0,236.81,40c.09.62.3,1.22.45,1.84l-.6.46-.42.35A7.16,7.16,0,0,0,233.9,46a4.61,4.61,0,0,0,.28,3.62,3.06,3.06,0,0,0,2.44,1.76c-.1.24-.2.43-.26.63a1,1,0,0,1-.58.59,4.64,4.64,0,0,1-4,.07,1.29,1.29,0,0,1-.82-.78,25.17,25.17,0,0,0-7.06-9.76c-.24-.21-.49-.41-.74-.61-.61-.49-1.25-.93-1.87-1.39.1-.61.2-1.21.3-1.84a5.12,5.12,0,0,1,.78-.38c.58-.19,1.16-.35,1.75-.5s.61-.21.6-.72a3.42,3.42,0,0,0-.15-1.11A5.81,5.81,0,0,0,220,31.67c0-.5-.09-1.05-.17-1.58a11.36,11.36,0,0,0-2.45-5.66A5,5,0,0,0,215.49,23a2.36,2.36,0,0,0-2.69.44l-.4.37c-.15-.31-.29-.59-.42-.87A11.44,11.44,0,0,0,210.13,20a7.2,7.2,0,0,0-2.64-1.86,6.77,6.77,0,0,0-2.24-.46,11,11,0,0,0-4.51.75,4.67,4.67,0,0,0-1.34.8,1.75,1.75,0,0,0,0,2.88c.24.22.5.42.77.64a.93.93,0,0,1-.19.12,25.72,25.72,0,0,0-4.72,2.65c-.56.39-1.11.8-1.63,1.22A18.75,18.75,0,0,0,190,30.49a10.18,10.18,0,0,0-1.75,3.88,4.94,4.94,0,0,0-.11,2.13,1.66,1.66,0,0,0,1.2,1.45,2.12,2.12,0,0,0,1.08-.12,14.25,14.25,0,0,0,1.77-.93l.14,0-.07.08c0,.19-.05.38-.09.56a16.11,16.11,0,0,0,.2,7.5,7.38,7.38,0,0,0,1.6,3.12,2.27,2.27,0,0,0,3.62.07,9.72,9.72,0,0,0,1.1-1.53c.28-.45.49-1,.78-1.54.59,1,1.2,1.79,1.67,2.69a5.52,5.52,0,0,1,0,5.44c-.25.46-.57.89-.86,1.33a1.9,1.9,0,0,1-1.83,1.09.57.57,0,0,0-.18,0,17.81,17.81,0,0,0-5.62,2l-1,.55a3.45,3.45,0,0,1,0-.4,27.22,27.22,0,0,0,.09-8.11,16.07,16.07,0,0,0-3.94-8.66l-.22-.2,0,0v0a23.08,23.08,0,0,1,.31,5,14.36,14.36,0,0,1-1,4.79,3.28,3.28,0,0,1-.14-.8A23.44,23.44,0,0,0,184.8,42h0a17.62,17.62,0,0,0-8.88-9.26,12.92,12.92,0,0,0-8.3-1.08,7.63,7.63,0,0,0-5,3.3c-.12.17-.21.37-.33.58.62-.09,1.16-.19,1.7-.23a9.26,9.26,0,0,1,5.73,1.61,13.76,13.76,0,0,1,4.84,5.51,18.77,18.77,0,0,1,1.24,3.32l0,.15-.11-.07a2,2,0,0,1-.22-.09A17.52,17.52,0,0,0,171.61,44a12.82,12.82,0,0,0-10.43,1,15.2,15.2,0,0,0-5.56,5.21,16.32,16.32,0,0,0-2.25,6.25,12,12,0,0,0,.56,5.79,3.67,3.67,0,0,0,.12-.37,9.53,9.53,0,0,1,6.83-7.4l.13,0a7.4,7.4,0,0,1,5.18.21,5.6,5.6,0,0,1,2.19,1.61,10,10,0,0,0-4.42.49,10.61,10.61,0,0,0-3.6,2.17,13.55,13.55,0,0,0-3.21,4.33,17.94,17.94,0,0,0-1.51,10.94,17.49,17.49,0,0,0,1.42,4.63,1.33,1.33,0,0,0,.11-.1,1.16,1.16,0,0,0,0-.18A19.55,19.55,0,0,1,161.7,69,9.38,9.38,0,0,1,165,66.4c.12-.05.24-.07.42-.13-.31.55-.61,1-.85,1.49a18.88,18.88,0,0,0-1.93,8.6,18.61,18.61,0,0,0,.58,4.75A15.36,15.36,0,0,0,169,90a1.92,1.92,0,0,0,.41.19,2,2,0,0,0,0-.24,17.42,17.42,0,0,1-1-7.44,18.08,18.08,0,0,1,1.28-5.31c.06-.14.14-.28.28-.55,0,.37,0,.58,0,.78a20.94,20.94,0,0,0,1.14,7.7,12.07,12.07,0,0,0,2.35,4.28,6.92,6.92,0,0,0,1.66,1.34,5.45,5.45,0,0,0,0,.7,1.82,1.82,0,0,1-.34,1.23A22.65,22.65,0,0,0,173.57,95a9,9,0,0,1-.51,1.54,8,8,0,0,1-1.27,1.11,8.08,8.08,0,0,0-1,1,3.71,3.71,0,0,0-.52.88,1.44,1.44,0,0,0,0,1.23,1.46,1.46,0,0,0,.89.65,6.81,6.81,0,0,0,1.49.24,15.26,15.26,0,0,0,3.75-.44c1.17-.25,2.32-.56,3.46-.9l4-2.68,1.62-1.07a51.08,51.08,0,0,1-8.62,2.62,16.9,16.9,0,0,1-3.94.46c-.29,0-.58-.07-.91-.1A3.54,3.54,0,0,1,173.14,98c.26-.25.49-.52.76-.75a43.36,43.36,0,0,1,6.66-4.52c3.05-1.73,6.15-3.35,9.22-5a3.19,3.19,0,0,0,.44-.31c-.64.2-1.29.37-1.92.61a58.11,58.11,0,0,0-11.75,5.87c-.66.44-1.3.93-1.94,1.4l-.13.09,0-.19a20.62,20.62,0,0,1,3.62-4.88c.6-.61,1.24-1.18,1.86-1.77a55.35,55.35,0,0,1,6.08-4.7c1.63-1.14,3.28-2.26,4.93-3.39a2,2,0,0,0,.27-.24h0l-.16,0h-.22l-.06,0a39.61,39.61,0,0,0-13.51,9.21l-.27.23a8.08,8.08,0,0,1,1.41-3.55l.15-.17h0c.36-.53.68-1.1,1.08-1.61A46.26,46.26,0,0,1,186.94,77c1.84-1.52,3.78-2.93,5.67-4.39a4.51,4.51,0,0,0,.39-.37c-.21.07-.44.11-.65.2a34.94,34.94,0,0,0-7.56,4.86,39.51,39.51,0,0,0-7.25,7.7l-.58.86c0-.27,0-.39.07-.51a17.41,17.41,0,0,1,2.46-5.14.08.08,0,0,1,.11,0h0a2,2,0,0,1,.13-.25l0,0c.64-.88,1.25-1.79,1.94-2.63a55,55,0,0,1,8.14-7.78c.69-.56,1.4-1.11,2.1-1.67h0l-.13,0h-.07a1.48,1.48,0,0,0-.36.1,23.16,23.16,0,0,0-5.19,3.41,50.91,50.91,0,0,0-7.6,8.13c-.12.16-.26.32-.39.48l-.1.18-.07,0,.06-.24,1-3.23A32.65,32.65,0,0,1,190.9,60.7a18.75,18.75,0,0,1,7.4-3.23,9.9,9.9,0,0,1,4.56.13,7.61,7.61,0,0,1,5.2,4.92,14.6,14.6,0,0,1,.91,5.06c0,.4,0,.8,0,1.2a22.78,22.78,0,0,1-2.09,9.71A26.94,26.94,0,0,1,202,85.75l.21-.13,1.41.91A28.37,28.37,0,0,0,210,73.82a27.79,27.79,0,0,0,.48-8.53c-.09-.94-.21-1.88-.32-2.78l2-1.63a4.42,4.42,0,0,0,4.32,3.54c1.6.08,3-.79,3.75-2.84l.29.41a3.41,3.41,0,0,0,5.63.17,5.89,5.89,0,0,0,1.08-2.53l.13-.52a3.69,3.69,0,0,0,3.27.5c1.19-.5,1.47-1.59,1.74-2.73l.81,1.55c.08.13.15.27.22.41l.13.25c.07.14.14.27.2.4l.18.36c.09.19.18.37.26.56l.08.18c.1.23.21.47.31.71v0a1.47,1.47,0,0,1,.1.22h0c.07.17.13.34.2.5a.49.49,0,0,0,0,.11l.12.35a21.14,21.14,0,0,1,.64,2.05l.11.41.15.68.06.3a2.56,2.56,0,0,0,0,.27c0,.17.06.35.08.53s0,.17,0,.25.05.38.07.57a1.49,1.49,0,0,1,0,.21l0,.3v.09s0,.09,0,.15,0,.17,0,.25,0,.24,0,.36v.18a2.53,2.53,0,0,1,0,.28v.36c0,.3,0,.59,0,.89a16.17,16.17,0,0,1-2,7.15c-.07.13-.16.24-.24.36a12.09,12.09,0,0,1-2,2.9,22.61,22.61,0,0,1-2.74,2.71,26.88,26.88,0,0,1-4.43,3,36.44,36.44,0,0,1-12.13,4.06c-.74.11-1.47.2-2.2.26l1.56,1a45.62,45.62,0,0,0,7.72-1.87A8.11,8.11,0,0,1,218,94.72a3.63,3.63,0,0,1-.86.68l1.61,1.08a12,12,0,0,0,3-6.43.75.75,0,0,1,.5-.63c1.25-.59,2.52-1.16,3.73-1.83a28.69,28.69,0,0,0,3.79-2.47,23.33,23.33,0,0,0,4.67-4.79c.44-.61.84-1.26,1.22-1.83,1.21-.17,2.39-.27,3.55-.49a18.11,18.11,0,0,0,10.09-5.36A20.7,20.7,0,0,0,254.66,53ZM238.5,36a6.87,6.87,0,0,1,1.89-3.42,1.4,1.4,0,0,1,1.3-.47,11.48,11.48,0,0,0,1.43,9.2l-2.81-.18-1.91.35A8.77,8.77,0,0,1,238.5,36ZM190,58.34a3.63,3.63,0,0,1-1.22,2,40.7,40.7,0,0,0-6.47,7c-.41.69-.77,1.4-1.23,2a27.72,27.72,0,0,0-4.23,9.38c-.19.75-.37,1.51-.55,2.26a6.64,6.64,0,0,1-.69,1.88,6.41,6.41,0,0,0-.82,3.27,4.63,4.63,0,0,1,0,.91c-.16-.28-.31-.56-.46-.84l-.28-.57-.13-.27a2.72,2.72,0,0,1-.11-.25.36.36,0,0,1,0-.09,2.14,2.14,0,0,1-.1-.22l-.12-.28c0-.08-.07-.16-.1-.25s-.17-.43-.25-.65l-.09-.25c0-.11-.07-.21-.1-.31s-.12-.35-.17-.53a2,2,0,0,0-.07-.23c0-.13-.07-.25-.1-.38s0-.12-.05-.18c-.06-.24-.11-.47-.16-.71a1.18,1.18,0,0,1,0-.2l-.06-.27c0-.11,0-.21-.05-.32a2,2,0,0,1,0-.26c-.05-.32-.09-.64-.13-1a1.8,1.8,0,0,0,0-.22c0-.09,0-.19,0-.28s0-.19,0-.28a19.81,19.81,0,0,1,.1-3.52c0-.21.05-.41.08-.62s0-.18,0-.27c0-.25.08-.5.13-.75s.14-.67.22-1c.12-.53.27-1.06.43-1.6l.18-.56c-.58.4-1.06.69-1.5,1a11.89,11.89,0,0,0-4.09,6.51,19.43,19.43,0,0,0-.55,6.88c.08.92.18,1.84.19,2.8-.35-.63-.74-1.25-1.06-1.9a20.1,20.1,0,0,1-2.1-9,1.23,1.23,0,0,1,.05-.25,15.22,15.22,0,0,1,3.18-9.74,5.39,5.39,0,0,1,2.79-1.85c.06,0,.11-.1.17-.14-.47-.13-.93-.28-1.4-.37a6.68,6.68,0,0,0-4.44.82,13.21,13.21,0,0,0-3.84,3.14,22,22,0,0,0-3.23,5c-.06.11-.11.23-.17.34s0,0-.09,0a24.2,24.2,0,0,1,.41-5.51,14.1,14.1,0,0,1,2-5.37l.16-.23c.06-.08.11-.16.17-.23h0c0-.08.11-.15.16-.22l.18-.22c.17-.21.36-.41.55-.61l.19-.19.4-.36.2-.17.2-.15.17-.13.12-.09.37-.24.18-.12,0,0,.17-.09.06,0,.16-.08.18-.09q.38-.19.78-.36l.12,0,.17-.07.22-.07.23-.08h0l.23-.07.23-.06.22-.06h.05l.2,0,.13,0,.13,0H166l.19,0,.26-.05h0l.27,0A13.84,13.84,0,0,1,171,58a3.8,3.8,0,0,0-.71-2,7.54,7.54,0,0,0-4.87-3.42,10,10,0,0,0-2.32-.28h-.25l-.31,0h-.13l-.52.06-.23,0-.14,0-.1,0-.53.11-.11,0-.32.09-.19.07-.23.08-.34.13-.11,0-.22.1-.16.07-.24.12-.24.12-.32.18-.15.09-.17.11a11.19,11.19,0,0,0-1.21.87c-.66.54-1.24,1.18-1.92,1.83a8.25,8.25,0,0,1,.74-3.21l.09-.24c.14-.32.28-.63.44-.93l.08-.15.07-.12a2,2,0,0,0,.11-.2l0,0c0-.08.09-.15.13-.22l.11-.17.07-.11h0l.28-.39.13-.17,0-.06.05-.05,0-.06.13-.15c.1-.13.21-.26.32-.38l.19-.21.26-.27.25-.25.54-.5a13.38,13.38,0,0,1,7.87-3.5,11.25,11.25,0,0,1,9.83,4.16c.34.4.65.83,1,1.24a2.73,2.73,0,0,0,.34.34c0-1,0-2.06-.12-3.08,0-.13,0-.25-.05-.38s0-.27-.07-.41,0-.08,0-.13l0-.17-.06-.33a.64.64,0,0,1,0-.07,2.21,2.21,0,0,0-.05-.25,1.16,1.16,0,0,0,0-.18l-.06-.29c0-.1,0-.21-.08-.31l-.06-.24c0-.14-.07-.28-.11-.41l0-.1h0l-.06-.19c0-.14-.09-.28-.13-.41s-.15-.45-.24-.67l-.06-.16-.06-.16-.12-.28h0a.42.42,0,0,0,0-.1h0a2.72,2.72,0,0,1-.11-.25l-.1-.22a2.14,2.14,0,0,1-.1-.22s0,0,0,0l-.21-.42v0c-.11-.21-.22-.42-.34-.62,0,0,0-.05,0-.08l-.22-.36h0a2.39,2.39,0,0,1-.13-.21c-.05-.07-.09-.14-.14-.2s-.09-.14-.14-.21a1.43,1.43,0,0,0-.14-.2c0-.07-.09-.14-.14-.21l-.14-.19c-.17-.22-.34-.45-.53-.67l-.28-.32c-.17-.2-.34-.39-.52-.57a1.85,1.85,0,0,0-.14-.14l-.24-.24c-.21-.2-.42-.4-.65-.6l-.28-.24-.16-.13-.07-.07-.18-.14A9.35,9.35,0,0,0,165,33.86a5.14,5.14,0,0,1,1.69-.58,12.31,12.31,0,0,1,8,.44,14.6,14.6,0,0,1,6.64,5.54l.2.3.05.07c.15.23.3.47.44.71l.18.3.15.27.07.14a2.69,2.69,0,0,1,.16.29q.19.36.36.72l.15.33.15.32h0a3.09,3.09,0,0,1,.14.32,3.65,3.65,0,0,1,.14.35c.05.11.09.22.13.33l.18.47a1.59,1.59,0,0,0,.07.2l.12.34c0,.12.07.23.11.35s.05.18.08.27l.06.19c.06.19.11.38.16.58l.09.31.18.75c0,.12.06.24.08.36a33.71,33.71,0,0,1,.64,9.35c0,.18-.1.36-.12.54s0,.32,0,.64a1.65,1.65,0,0,0,.24-.4c.21-.92.43-1.84.61-2.77a2.07,2.07,0,0,1,.47-1.06A10.83,10.83,0,0,0,189,48.92a10.65,10.65,0,0,0,.26-3.13,3.44,3.44,0,0,1,0-.4,8.46,8.46,0,0,1,.95,2.68A24.36,24.36,0,0,1,190,58.34Zm33.27-23.28c.22.37.4.78.62,1.22a7.22,7.22,0,0,0-3.33,1.35c-1.24.78-2.46,1.61-3.73,2.35l-.27.15-.05,0-.32.17h0l-.26.13a5.45,5.45,0,0,1-.55.25l-.28.12-.55.2-.21.07c-.27.08-.53.16-.81.22s-.51.1-.78.14l-.26,0h-.18l-.17,0h-.72a8.48,8.48,0,0,1-1.11-.07c-.53-.06-1.06-.18-1.61-.22a4.7,4.7,0,0,0,2.44.86,3.11,3.11,0,0,0,.43,0l.5,0h.37l.44,0h0l.21,0,.22,0h.08l.14,0,.17,0,.09,0,.14,0c.35-.07.71-.15,1.06-.25l.15,0c.41-.12.81-.27,1.21-.43l.23-.1.32-.14c.26-.12.52-.24.77-.38.77-.39,1.49-.86,2.33-1.36-.07.36-.12.63-.19.91a9.1,9.1,0,0,1-.27.93l-.06.16s0,.08,0,.11,0,.09,0,.13-.11.27-.17.4h0s0,0,0,0l-.08.16s0,0,0,0l-.07.14s0,0,0,0a1.51,1.51,0,0,1-.1.17c0,.08-.08.16-.13.24a5.93,5.93,0,0,1-.4.62,1.67,1.67,0,0,1-.12.16,1.5,1.5,0,0,1-1.08.68,10.32,10.32,0,0,1-6.85-1.09,9.47,9.47,0,0,1-3.18-2.89l-.09-.07.12,0c.38,0,.75.12,1.13.15a5.07,5.07,0,0,0,4.37-1.82l.2-.24.15-.18,0,0,.11-.15,0-.08,0,0,.12-.18v0l.12-.18,0-.05.13-.23c.08-.14.15-.28.22-.42a.37.37,0,0,0,.05-.11l0,0s.05-.1.07-.16l.09-.21,0-.12a.87.87,0,0,0,.07-.17l0-.09.18-.54,0-.17c0-.11.05-.23.08-.34l.06-.25a.93.93,0,0,1,.62-.78,11,11,0,0,1,3.95-1A4.34,4.34,0,0,1,223.27,35.06Zm-6.14,15.65c.29.11.61.17.9.27a.82.82,0,0,1,.65.89A2.93,2.93,0,0,1,215,54.7a5.57,5.57,0,0,1-3.15-2.38A14.61,14.61,0,0,1,209.7,47a10.91,10.91,0,0,1-.21-3.2l.71.43a9.3,9.3,0,0,0,4.27,1.2c.9.05,1.81,0,2.71,0a.67.67,0,0,1,.61.23,1.68,1.68,0,0,0,1.9.46c.58-.18,1.14-.43,1.7-.66a1.14,1.14,0,0,1,1.31.07,1.22,1.22,0,0,1,.32,1.33,3.79,3.79,0,0,1-2,2.6,6.13,6.13,0,0,1-2.52.75,4,4,0,0,1-2.7-.89l-.51-.36,0,0A3.06,3.06,0,0,0,217.13,50.71ZM215,30.07c0-.14.07-.28.12-.42.32-.78.88-.88,1.43-.23a4.83,4.83,0,0,1,.94,2.37c0,.11-.12.24-.2.38-.1-.07-.15-.09-.16-.12-.25-.68-.25-.68-1-.66h-.32a1.32,1.32,0,0,1-.18-.1l.56-.71C215.79,30.07,215.79,30.07,215,30.07Zm-17.12,7.69a10.91,10.91,0,0,0,.39,3.73,1.68,1.68,0,0,1,0,.5,12.81,12.81,0,0,1-.66,3.52,4.36,4.36,0,0,1-.58,1.11,1.09,1.09,0,0,1-1.82.17,4.31,4.31,0,0,1-.84-1.31,10,10,0,0,1-.78-3.36c-.07-1-.13-1.93-.11-2.9a11.24,11.24,0,0,1,.72-4,19,19,0,0,1,1-2c.6-1.09,1.23-2.15,1.83-3.24a7,7,0,0,0,.38-1l-.06-.07c-1,1.1-2,2.21-3,3.31s-1.86,2-2.82,3a2.44,2.44,0,0,1-1.44.81.51.51,0,0,1,0-.13h0A4.72,4.72,0,0,1,190.3,34a1.87,1.87,0,0,1,.07-.22l0-.09.06-.21c0-.06,0-.12.07-.19l.06-.14s0-.08,0-.12c.08-.2.17-.39.26-.58a1.3,1.3,0,0,0,.08-.17l.11-.21.06-.11.09-.16.11-.19h0l.14-.22a2.33,2.33,0,0,1,.17-.26l.15-.23.09-.12.21-.3.17-.21h0c.17-.23.36-.45.55-.67A23,23,0,0,1,201,23.79a1.3,1.3,0,0,1,.91-.07,10.64,10.64,0,0,0,1.19.19,7.6,7.6,0,0,0-1.4-1.47c-.37-.34-.77-.65-1.12-1-.52-.55-.45-.94.22-1.29a7.25,7.25,0,0,1,3.79-.81h.36l.33,0,.22,0h0l.22.05.14,0c.2.05.39.11.59.18l.15.06.18.08h0l.17.08.18.09h0l.17.09.1.06.13.08.11.06.1.06.41.29.14.1.13.1.12.11,0,0a9.61,9.61,0,0,1,3,5.14c.13.54.21,1.09.31,1.65l-.49-.32-.47-.32-.05,0-.87-.59a1.19,1.19,0,0,1-.32-.44,6,6,0,0,0-1.46-2,2.91,2.91,0,0,0-3.67-.21,5.49,5.49,0,0,0-2.15,3.1,1.28,1.28,0,0,1-.47.69,8.26,8.26,0,0,0-2.34,3.18A18.29,18.29,0,0,0,197.91,37.76ZM230,58.7a2.89,2.89,0,0,1-2.52-.88,1.16,1.16,0,0,1-.2-.45c-.41-1-.82-2-1.24-3a6,6,0,0,0-.45-.71l-.13.07a2.46,2.46,0,0,0,.09.29,10.46,10.46,0,0,1,.48,5.4,4.67,4.67,0,0,1-.51,1.41,2,2,0,0,1-3.12.57,9.77,9.77,0,0,1-1.24-1.33c-.47-.56-.91-1.14-1.41-1.77-.2.65-.35,1.19-.53,1.71a5.17,5.17,0,0,1-1.25,2,2.3,2.3,0,0,1-3.25.06,6,6,0,0,1-1.67-3c-.14-.51-.22-1-.35-1.63a4.54,4.54,0,0,1-3.19,3.21A11.76,11.76,0,0,0,207,57.31l-1.62-1c-.6-.17-1.2-.38-1.81-.51s-1.2-.17-1.88-.26c.15-.22.29-.42.41-.63.44-.82.95-1.63,1.31-2.5a5,5,0,0,0-.27-4.55c-.44-.79-.94-1.54-1.45-2.29a9,9,0,0,1-1.68-3.7c-.1-.7-.14-1.41-.21-2.12a.08.08,0,0,1,0-.09c0-.1,0-.2,0-.3A16.21,16.21,0,0,1,200.6,32a6.57,6.57,0,0,1,1.67-2.47V30a14.58,14.58,0,0,0,.23,4c0,.1.08.19.11.29,0-1.2,0-2.4.16-3.58A9,9,0,0,1,204,26.7a4.41,4.41,0,0,1,1.33-1.32,2.16,2.16,0,0,1,3,.47,9.08,9.08,0,0,1,1.33,2.27c.16.38.34.75.51,1.12h0l-.13-1.88c.42.38.88.67,1.27,1h0l.2.18.07.07a2.18,2.18,0,0,1,.25.28l.1.14.09.14a1.34,1.34,0,0,1,.06.12.54.54,0,0,1,.07.13l0,.06a.56.56,0,0,0,0,.12,3,3,0,0,0,.58-1.7c.07-.67.09-1.34.13-2a1.61,1.61,0,0,1,2.33-1.42,4,4,0,0,1,1.3,1.08,12.13,12.13,0,0,1,2.3,5.72,2.34,2.34,0,0,1,0,.38,1.06,1.06,0,0,1,0,.19l-.7.06c-.06-.23-.11-.44-.15-.66a6.19,6.19,0,0,0-1.69-3.39,1.72,1.72,0,0,0-1.36-.54c-.49.05-.76.33-.86.94.36-.15.57-.6,1-.45a1.81,1.81,0,0,1,.88.72c-1,0-1.29.21-1.59,1.11a5.71,5.71,0,0,0,.09,3.35c0,.1.06.2.09.28a.36.36,0,0,1-.08.13,1.51,1.51,0,0,0-.85,1.2h0a2.25,2.25,0,0,0-.05.22s0,.08,0,.12,0,.11,0,.17l-.09.28a1.46,1.46,0,0,1-.07.19h0l-.06.16-.06.16a2.29,2.29,0,0,1-.1.23c0,.08-.07.15-.1.23l-.08.15-.08.14a2.69,2.69,0,0,1-.16.29l-.09.14-.18.27a1.13,1.13,0,0,0-.1.13l-.09.11-.06.08-.11.12-.08.09-.2.21-.1.09-.09.09-.35.29-.13.09-.14.11-.15.09-.15.1a4.83,4.83,0,0,1-4,.38,3.06,3.06,0,0,1,2.41-.75,2.55,2.55,0,0,0-3.31.22,2.92,2.92,0,0,0-.74,3.66,4.41,4.41,0,0,1,1.23-2.85A6.83,6.83,0,0,0,209,43.37c-.06.91-.13,1.79-.19,2.66A14,14,0,0,0,210,51.4,8.49,8.49,0,0,0,212.8,55a5.12,5.12,0,0,0,4.36.81,3.56,3.56,0,0,0,1.73-1.19,5.66,5.66,0,0,0,.51-3.36l.59-.16a5.49,5.49,0,0,0,3.8-3,3.22,3.22,0,0,0,.33-2.26,2,2,0,0,0-2.64-1.41c-.49.18-.95.44-1.43.66a1.5,1.5,0,0,1-1.54,0l.16-.18.12-.14.05-.06.08-.1.14-.19.15-.2.15-.22c.15-.23.3-.47.44-.71l.17-.31c.13-.22.24-.45.36-.67l.11-.22c.14-.27.27-.54.4-.81.31.3.62.58.92.86.45.43.89.84,1.32,1.27a29.27,29.27,0,0,1,5.41,7.24,25.27,25.27,0,0,1,2.16,5.69,7.41,7.41,0,0,1,.27,1.29A1.07,1.07,0,0,1,230,58.7Zm21.7,8.15c-.16.34-.38.65-.57,1a.44.44,0,0,0-.08.11.14.14,0,0,0,0,.08,10.09,10.09,0,0,1-2.48,3,24.56,24.56,0,0,1-9.28,4.93,6.15,6.15,0,0,1-2.58.19c.14-.54.27-1.07.38-1.6s.15-.8.21-1.19a23.06,23.06,0,0,0,.27-3.48v-.3c0-.33,0-.67,0-1l0-.4c0-.43-.08-.86-.13-1.28a2.51,2.51,0,0,1,0-.27c0-.09,0-.18-.05-.28q-.09-.57-.21-1.14l-.09-.37c-.09-.38-.19-.77-.3-1.15l-.09-.31c0-.12-.08-.24-.11-.36l-.12-.37-.17-.48-.09-.24c-.09-.24-.18-.48-.28-.71l-.1-.24c0-.12-.1-.24-.16-.36a1.67,1.67,0,0,1-.08-.2l-.09-.19-.09-.2a2.4,2.4,0,0,1-.11-.23l-.12-.24c-.14-.29-.29-.59-.45-.88l-.19-.35c-.17-.31-.36-.63-.55-.94,0-.08-.09-.16-.14-.24l-.08-.14-.14-.22-.06-.1-.2-.3-.19-.29c-.09-.14-.18-.28-.28-.42l-.29-.42-.18-.25-.36-.49a5.65,5.65,0,0,0,4.17-.13,9.61,9.61,0,0,0,.72,1.47l.08.12.08.12,0,.06.08.1.06.07.09.11.18.2.2.17.1.08h0l.08.06.13.09,0,0a3.19,3.19,0,0,0,.7.32l.12,0,.19.06.09,0,.27.06h0l.36.06a4.84,4.84,0,0,0,2.37,6.63,4.11,4.11,0,0,0,.27,4,2.74,2.74,0,0,0,1.41,1.21l.07,0h0a1,1,0,0,0,.24,0h.1l.25,0s-.05-.1-.09-.12c-2-1.26-1.36-4.38.59-5.22a1.5,1.5,0,0,1,1.21-.07,2.27,2.27,0,0,0,3.08-1.38.5.5,0,0,0,0-.28,2.84,2.84,0,0,1-2.81.63,3.32,3.32,0,0,1-2.07-2,2.1,2.1,0,0,0,.21,1.9,2.45,2.45,0,0,1-3.26-.56,4.07,4.07,0,0,1-.78-3.85,2,2,0,0,1,.77-1.12,7.45,7.45,0,0,1,4.06-2.14,19.61,19.61,0,0,1,2.44-.16.7.7,0,0,0,.42-.1l-1.36-.4a9.92,9.92,0,0,0-3.42.38l-.25.08-.39.15-.18.07-.12,0-.12,0-.12.06-.18.08-.13.07-.12.07-.2.11-.18.11-.12.07h0c-.18.12-.37.25-.54.39a1,1,0,0,1-.81.22,3.13,3.13,0,0,1-2.25-4.74,5.73,5.73,0,0,1,.61-.77,4.27,4.27,0,0,1,2.14-1.26,11.51,11.51,0,0,1,5.41-.18,1.26,1.26,0,0,0,.61,0c-.24-.16-.47-.32-.72-.46s-.53-.25-.8-.38c-.53-.08-1.07-.21-1.61-.25a8.31,8.31,0,0,0-6.06,1.78,2.65,2.65,0,0,1-2-2.68,3.65,3.65,0,0,1,.83-2.51A4.79,4.79,0,0,1,239.68,43a11.1,11.1,0,0,1,7.6,1.67l.18.12.13.09.25.17.61.49.18.16,0,0,.16.13a1.59,1.59,0,0,0,.13.13l.12.12q.36.34.69.72l.07.08L250,47l.09.11c.19.24.38.48.55.74a2.2,2.2,0,0,1,.17.25c.07.1.13.2.19.3l.12.19.21.38.11.19c.13.26.26.52.38.79A19.34,19.34,0,0,1,251.66,66.85Zm-82.28,23.3h0Z"/>
        <path class="cls-5" d="M196.17,117l-.18,0,0-.08.14.1Z"/>
        <path class="cls-9" d="M169.38,90.16l.08.06-.07,0v-.09Z"/>
        <path class="cls-10" d="M193.15,56l-.06.08,0-.09Z"/>
        <path class="cls-11" d="M179.71,79.88c.64-.88,1.25-1.79,1.94-2.63a55,55,0,0,1,8.14-7.78l2.11-1.68H192l1.47-.92,0-.12c-.61.17-1.23.31-1.84.5a22.3,22.3,0,0,0-4.05,1.82,22.61,22.61,0,0,0-4.26,3,29.25,29.25,0,0,0-3.89,4.28,2.2,2.2,0,0,1-.37.3A32.65,32.65,0,0,1,190.9,60.7a18.75,18.75,0,0,1,7.4-3.23,9.9,9.9,0,0,1,4.56.13,7.61,7.61,0,0,1,5.2,4.92,14.6,14.6,0,0,1,.91,5.06c0,.4,0,.8,0,1.2a6.12,6.12,0,0,0-.36.83,33.77,33.77,0,0,1-2.17,5.53c-.7,1.46-1.49,2.87-2.26,4.29a17.62,17.62,0,0,1-2.66,3.64,41,41,0,0,1-3.22,3.1c-1.24,1.06-2.54,2.06-3.86,3a53.13,53.13,0,0,1-8.4,4.77c-.83.39-1.67.78-2.53,1.12a62.77,62.77,0,0,1-6.93,2.35,10.62,10.62,0,0,1-3.45.57c.26-.25.49-.52.76-.75a43.36,43.36,0,0,1,6.66-4.52c3.05-1.73,6.15-3.35,9.22-5a3.19,3.19,0,0,0,.44-.31,4.22,4.22,0,0,0,.79-.23c1.15-.57,2.28-1.16,3.41-1.74a2.44,2.44,0,0,0,.33-.23,7.62,7.62,0,0,0-1.66,0c-1.13.13-2.27.23-3.41.39A29.4,29.4,0,0,0,184.3,87c-1.31.46-2.59,1-3.89,1.55-.12,0-.27.27-.42,0a55.35,55.35,0,0,1,6.08-4.7c1.63-1.14,3.28-2.26,4.93-3.39a2,2,0,0,0,.27-.24h0l.12-.14a3.68,3.68,0,0,0,.5-.18c.15-.08.24-.24.38-.33l3.88-2.44.5-.34h-.7a1.06,1.06,0,0,0-.25,0,29,29,0,0,0-6,1.81,35.72,35.72,0,0,0-6.87,4c-1.35,1-2.59,2.13-3.88,3.2a1.45,1.45,0,0,1-.38.16c.36-.53.68-1.1,1.08-1.61A46.26,46.26,0,0,1,186.94,77c1.84-1.52,3.78-2.93,5.67-4.39a4.51,4.51,0,0,0,.39-.37,3.41,3.41,0,0,0,.71-.29c.43-.26.83-.57,1.23-.87.11-.08.21-.18.32-.27a3.2,3.2,0,0,0-1.19,0,14.77,14.77,0,0,0-3.7,1.34A35,35,0,0,0,185.61,75a37.87,37.87,0,0,0-4.22,3.46c-.41.4-.8.81-1.22,1.2A1.63,1.63,0,0,1,179.71,79.88Z"/>
        <path class="cls-12" d="M157.53,67.65a14.1,14.1,0,0,1,2-5.37,9.74,9.74,0,0,1,7.19-4.35A13.84,13.84,0,0,1,171,58a10.27,10.27,0,0,1,4.39,2.52c0-.1.06-.16,0-.21a24.19,24.19,0,0,0-1.3-4.75,9.38,9.38,0,0,0-3.45-4.23,10.11,10.11,0,0,0-4.6-1.51,12.71,12.71,0,0,0-5.43.69,14,14,0,0,0-4.73,2.8s-.15,0-.22,0a11.8,11.8,0,0,1,3.36-4.66,13.38,13.38,0,0,1,7.87-3.5,11.28,11.28,0,0,1,9.83,4.16c.34.4.65.83,1,1.24a2.73,2.73,0,0,0,.34.34l1.6,4.43a4.11,4.11,0,0,0,.17-.49c.22-1.37.49-2.75.62-4.13a19,19,0,0,0-.26-4.7,19.73,19.73,0,0,0-1.1-4.1,12.87,12.87,0,0,0-3.89-5.62,13,13,0,0,0-8-2.93,2.29,2.29,0,0,1-.52-.11,12.31,12.31,0,0,1,8,.44,14.6,14.6,0,0,1,6.64,5.54,23.14,23.14,0,0,1,3.45,8.28,33.71,33.71,0,0,1,.64,9.35c0,.18-.1.36-.12.54s0,.32,0,.64a1.65,1.65,0,0,0,.24-.4c.21-.92.43-1.84.61-2.77a2.16,2.16,0,0,1,.47-1.06A10.73,10.73,0,0,0,189,48.92a10.65,10.65,0,0,0,.26-3.13,3.44,3.44,0,0,1,0-.4,8.46,8.46,0,0,1,.95,2.68A24.36,24.36,0,0,1,190,58.34a3.63,3.63,0,0,1-1.22,2,41.1,41.1,0,0,0-6.47,7,5,5,0,0,0-2.27.28c-.69.22-1.38.48-2.06.71h0c.25-.35.49-.71.76-1.06s.6-.72.9-1.09c-.08-.06-.11-.1-.15-.11a14.47,14.47,0,0,0-4.3.3,22.56,22.56,0,0,0-5.43,2.22A10.64,10.64,0,0,0,166.9,71a16.15,16.15,0,0,0-2.51,4.47c-.07.17.07.46-.24.51a15.17,15.17,0,0,1,3.18-9.73,5.35,5.35,0,0,1,2.79-1.86c.06,0,.11-.1.17-.14l5-.78a8.62,8.62,0,0,0-1.61-1.12,12.06,12.06,0,0,0-4.38-1.42,13.37,13.37,0,0,0-4.19.11,8.5,8.5,0,0,0-4.28,2.39,16.12,16.12,0,0,0-2.92,3.84A3.15,3.15,0,0,1,157.53,67.65Z"/>
        <path class="cls-10" d="M233.22,58.43a23.17,23.17,0,0,1,3.14,12.21,16.17,16.17,0,0,1-2,7.15c-.07.13-.16.24-.24.36a3.72,3.72,0,0,0-.51.33c-.52.43-1,.89-1.53,1.31a47,47,0,0,1-5.22,3.49,19.81,19.81,0,0,1-4.28,1.92,23.36,23.36,0,0,1-4.88,1.06c-1.36.11-2.71.28-4.06.33a28,28,0,0,1-2.89-.11,9.56,9.56,0,0,1-1.07-.18c.07-.2.12-.35.19-.5.22-.45.46-.9.67-1.35.57-1.19,1.21-2.36,1.68-3.59a19.18,19.18,0,0,0,1-4.69c.17-1.47.39-2.94.48-4.42.11-1.78.11-3.56.15-5.35,0-.23,0-.45,0-.73l.39.15a8.35,8.35,0,0,0,4,.41,3.2,3.2,0,0,0,2.56-1.71,1.42,1.42,0,0,1,.27.12,4.91,4.91,0,0,0,3.7.55A3.17,3.17,0,0,0,227.23,63a.83.83,0,0,1,.15.21A23.49,23.49,0,0,1,228,66.4a29.06,29.06,0,0,1-.1,4,10.36,10.36,0,0,1-2.11,5.29c-.27.37-.54.73-.8,1.1l-.18,0,0,.08.15-.11c.12,0,.25,0,.37-.07a10.34,10.34,0,0,0,4.33-2.8,6.82,6.82,0,0,0,1.87-4.53c0-.7.05-1.4,0-2.11a14.06,14.06,0,0,0-.72-4,19.77,19.77,0,0,0-.9-2,.44.44,0,0,1,.16-.06,3.26,3.26,0,0,0,2.27-1,2,2,0,0,0,.69-1.43A1.27,1.27,0,0,1,233.22,58.43Z"/>
        <path class="cls-13" d="M233.59,78.48c-.51.43-1,.89-1.52,1.31l-.28.22-.1.07c-.15.12-.3.24-.46.35l-.33.24-.26.19-.07,0-.31.22-.32.21-.65.43L229,82l-.07.05,0,0-.4.26-.41.25-.21.13-.33.2-.34.21-.34.2a19.81,19.81,0,0,1-4.28,1.92,23.36,23.36,0,0,1-4.88,1.06c-1.36.11-2.71.28-4.06.33a27.92,27.92,0,0,1-2.89-.11,9.56,9.56,0,0,1-1.07-.18c.07-.2.12-.35.19-.5.22-.45.46-.9.67-1.35.57-1.19,1.21-2.36,1.68-3.59a19.18,19.18,0,0,0,1-4.69c.17-1.47.39-2.94.48-4.41.11-1.79.11-3.57.15-5.36,0-.22,0-.45,0-.73l.39.15a8.35,8.35,0,0,0,4,.41,3.2,3.2,0,0,0,2.56-1.71,1.07,1.07,0,0,1,.26.12,4.94,4.94,0,0,0,3.71.55A3.17,3.17,0,0,0,227.23,63a.83.83,0,0,1,.15.21A23.49,23.49,0,0,1,228,66.4a1.77,1.77,0,0,0,0,.23h0c0,.08,0,.16,0,.24a1.48,1.48,0,0,0,0,.21v.5c0,.93-.06,1.86-.13,2.78,0,0,0,.09,0,.14a.49.49,0,0,1,0,.12,1.36,1.36,0,0,0,0,.2h0l0,.16s0,.1,0,.16,0,.14,0,.21l-.06.27a2,2,0,0,0,0,.24h0a0,0,0,0,1,0,0,1.6,1.6,0,0,1,0,.21,2.17,2.17,0,0,0-.07.24l0,.13s0,.1,0,.14l0,.08c0,.09-.07.19-.11.29a1.21,1.21,0,0,1-.05.14l-.09.21-.08.18-.07.15-.06.13a1.86,1.86,0,0,0-.1.2l-.11.19h0a6.65,6.65,0,0,1-.33.58l0,0s-.05.1-.08.14l-.08.13-.1.14-.06.1-.06.07a.35.35,0,0,1-.05.08l-.15.2-.8,1.1v0c.12,0,.25,0,.37-.07l.28-.1.22-.08,0,0,.17-.07.18-.07.11,0,.21-.1.21-.11.14-.07h0l.13-.07h0l.11-.06.18-.1.17-.1.28-.18,0,0h0l.16-.11.26-.19.18-.14.21-.17.11-.09.39-.35.13-.12,0,0,.15-.16.21-.21a6.82,6.82,0,0,0,1.87-4.53c0-.7.05-1.4,0-2.11,0-.17,0-.34,0-.51l0-.28c0-.08,0-.17,0-.26l0-.22,0-.25,0-.16a.5.5,0,0,0,0-.12l0-.2a.59.59,0,0,1,0-.13.29.29,0,0,1,0-.09,1,1,0,0,0,0-.17l0-.19c0-.14-.06-.26-.09-.39l0-.2c0-.06,0-.12-.05-.18l0-.17c0-.08-.05-.15-.07-.22s0-.16-.08-.25a20.66,20.66,0,0,0-.9-2,.44.44,0,0,1,.16-.06,3.26,3.26,0,0,0,2.27-1,2,2,0,0,0,.69-1.43,1.27,1.27,0,0,1,.13-.32l-.81-1.55c-.27,1.14-.55,2.23-1.74,2.73a3.69,3.69,0,0,1-3.27-.5l-.13.52a5.89,5.89,0,0,1-1.08,2.53,3.41,3.41,0,0,1-5.63-.17l-.29-.41c-.79,2.05-2.15,2.92-3.75,2.84a4.42,4.42,0,0,1-4.32-3.54l-2,1.63c.11.9.23,1.84.32,2.78a27.79,27.79,0,0,1-.48,8.53,28.37,28.37,0,0,1-6.41,12.71l.29.18c2.36,1.52,4.6,3,6.72,4.36.73-.06,1.46-.15,2.2-.26a36.44,36.44,0,0,0,12.13-4.06,26.88,26.88,0,0,0,4.43-3,22.61,22.61,0,0,0,2.74-2.71,12.09,12.09,0,0,0,2-2.9A4.59,4.59,0,0,0,233.59,78.48Zm-5-17.09.05.07h0v0h0l0,0,.07.06,0,0,.13.12.11.12.1.12.05.06.07.1,0,0,0,.06,0,0,.17.27.08.16a.3.3,0,0,1,0,.08.61.61,0,0,1,.07.14h0l.09.19h0c0,.07.05.13.08.19s.1.29.14.43a4.13,4.13,0,0,1,.15.5l.05.16,0,.15.06.25a0,0,0,0,1,0,0c0,.11.05.21.07.32h0l0,.19a1.43,1.43,0,0,1,0,.22s0,.06,0,.09l0,.23,0,.15,0,.24s0,.1,0,.15a.22.22,0,0,1,0,.08,1.37,1.37,0,0,1,0,.19c0,.11,0,.22,0,.33a1.48,1.48,0,0,1,0,.21,10.64,10.64,0,0,1-.22,2.7,4.7,4.7,0,0,1-.12.51c0,.11-.05.22-.08.33l0,.08c0,.09-.05.18-.08.27a12,12,0,0,1-.54,1.36l-.15.3-.18.35-.2.36a1.74,1.74,0,0,1-.11.18l-.15.23-.11.17-.14.18a1.15,1.15,0,0,1-.14.17,3.17,3.17,0,0,1-.3.34l-.15.16-.32.29-.1.08,0,0-.09.07-.3.21-.12.08a4.54,4.54,0,0,1-.53.3l-.14,0,.07-.12.56-.91h0a3.21,3.21,0,0,1,.19-.31,2.61,2.61,0,0,1,.17-.28l.21-.38c.05-.08.1-.16.14-.24s.13-.24.19-.36l.15-.3.15-.3q.23-.51.42-1l.09-.23c0-.08,0-.16.08-.24.11-.32.2-.64.29-1l.06-.22.12-.56.06-.33s0,0,0,0,0-.21,0-.32v0c0-.09,0-.18,0-.27v-.13a2.58,2.58,0,0,0,0-.29,2.85,2.85,0,0,0,0-.29c0-.1,0-.19,0-.28s0-.11,0-.17,0-.16,0-.23v-.72c0-.12,0-.23,0-.34s0-.18,0-.28v-.09c0-.1,0-.19,0-.28l0-.16,0-.25a3.11,3.11,0,0,0,0-.32v-.06c0-.1,0-.2-.05-.3s0-.07,0-.11l0-.22,0-.12,0-.18-.06-.26a1.42,1.42,0,0,0,0-.2l0-.11L229,62.8c0-.06,0-.13,0-.19l-.05-.19c-.09-.31-.12-.63-.18-.94h-.09A.14.14,0,0,1,228.6,61.39Z"/>
        <path class="cls-14" d="M238.33,51.09a4.27,4.27,0,0,1,2.14-1.26,11.51,11.51,0,0,1,5.41-.18,1.26,1.26,0,0,0,.61,0c-.24-.16-.47-.32-.72-.46s-.53-.25-.8-.38a1.66,1.66,0,0,0-1.1-.84,9,9,0,0,0-2.16-.6,4.74,4.74,0,0,0-3.17.47.88.88,0,0,1-.64.05,1.24,1.24,0,0,1-.82-.65c-.32-.7-.65-1.39-1-2.09A4.82,4.82,0,0,1,239.68,43a11.1,11.1,0,0,1,7.6,1.67A12.28,12.28,0,0,1,251.77,50a19.37,19.37,0,0,1-.11,16.88c-.16.34-.38.65-.57,1l-.08.11a.14.14,0,0,0,0,.08c-.22-.22-.38,0-.55.08a5.84,5.84,0,0,1-2.52.7,1.16,1.16,0,0,1-1.16-1.16,3.8,3.8,0,0,1,.37-1.75,1.21,1.21,0,0,1,1.08-.78,2.25,2.25,0,0,0,2-1.64,4.13,4.13,0,0,0-.14-2.95,4,4,0,0,1-.56.75,3.08,3.08,0,0,1-4.49-.55,14.64,14.64,0,0,1-.88-1.72,3.81,3.81,0,0,0-.84,2.06,2.24,2.24,0,0,1-1.84-2c-.08-.54-.09-1.08-.13-1.62a7.45,7.45,0,0,1,4.06-2.14,19.61,19.61,0,0,1,2.44-.16.7.7,0,0,0,.42-.1l-1.36-.4c-.05-.06-.09-.16-.16-.18a20.28,20.28,0,0,0-2.43-.54,4.13,4.13,0,0,0-2.54.51,1.41,1.41,0,0,1-2.09-.48l-.09-.09a3.12,3.12,0,0,1-1.05-2.34A1.24,1.24,0,0,0,238.33,51.09Z"/>
        <path class="cls-15" d="M241.3,57.43c0,.54,0,1.08.13,1.62a2.24,2.24,0,0,0,1.84,2,3.81,3.81,0,0,1,.84-2.06,14.64,14.64,0,0,0,.88,1.72,3.08,3.08,0,0,0,4.49.55,4,4,0,0,0,.56-.75,4.13,4.13,0,0,1,.14,2.95,2.25,2.25,0,0,1-2,1.64,1.21,1.21,0,0,0-1.08.78,3.8,3.8,0,0,0-.37,1.75,1.16,1.16,0,0,0,1.16,1.16,5.84,5.84,0,0,0,2.52-.7c.17-.07.33-.3.55-.08a10.09,10.09,0,0,1-2.48,3,24.56,24.56,0,0,1-9.28,4.93,6.15,6.15,0,0,1-2.58.19c2.17-8,.12-15.08-4.75-21.63a5.65,5.65,0,0,0,4.17-.13c.91,2.23,1.7,2.94,3.65,3.24a4.84,4.84,0,0,0,2.37,6.63,4.11,4.11,0,0,0,.27,4,2.74,2.74,0,0,0,1.41,1.21,3.38,3.38,0,0,0,.72.11l.1,0-.11,0s-.06-.11-.1-.13c-2-1.26-1.36-4.38.59-5.22a1.5,1.5,0,0,1,1.21-.07,2.27,2.27,0,0,0,3.08-1.38.5.5,0,0,0,0-.28,2.84,2.84,0,0,1-2.81.63,3.32,3.32,0,0,1-2.07-2,2.1,2.1,0,0,0,.21,1.9,2.45,2.45,0,0,1-3.26-.56,4.08,4.08,0,0,1-.78-3.86A1.94,1.94,0,0,1,241.3,57.43Z"/>
        <path class="cls-13" d="M164.15,76c.31,0,.17-.34.24-.51A16.15,16.15,0,0,1,166.9,71a10.64,10.64,0,0,1,2.85-2.45,22.56,22.56,0,0,1,5.43-2.22,14.47,14.47,0,0,1,4.3-.3s.07,0,.15.11c-.3.37-.61.72-.9,1.09s-.51.71-.76,1.06l-.18,0,0,.08.15-.12c.68-.23,1.37-.49,2.06-.71a5,5,0,0,1,2.27-.28c-.41.69-.77,1.4-1.23,2a27.72,27.72,0,0,0-4.23,9.38c-.19.75-.37,1.51-.55,2.26a6.64,6.64,0,0,1-.69,1.88,6.41,6.41,0,0,0-.82,3.27,4.63,4.63,0,0,1,0,.91,20.16,20.16,0,0,1-1.53-17.13c-.58.4-1.06.69-1.5,1a12,12,0,0,0-4.09,6.51,19.43,19.43,0,0,0-.55,6.88c.08.92.18,1.84.19,2.8-.36-.63-.73-1.25-1.06-1.9a20.1,20.1,0,0,1-2.1-9A1.23,1.23,0,0,1,164.15,76Z"/>
        <path class="cls-16" d="M197.42,29c-1,1.1-2,2.21-3,3.31s-1.86,2-2.81,3a2.5,2.5,0,0,1-1.45.81,4.52,4.52,0,0,1,.15-2,11.4,11.4,0,0,1,2.52-4.4A23,23,0,0,1,201,23.79a1.3,1.3,0,0,1,.91-.07,10.64,10.64,0,0,0,1.19.19,7.25,7.25,0,0,0-1.4-1.46c-.38-.35-.77-.66-1.12-1-.52-.55-.45-.94.22-1.29a6.9,6.9,0,0,1,7.83.88,9.61,9.61,0,0,1,3,5.14c.13.54.21,1.09.32,1.65-.68-.44-1.29-.84-1.89-1.26a1.19,1.19,0,0,1-.32-.44,6,6,0,0,0-1.46-2,2.91,2.91,0,0,0-3.67-.21,5.49,5.49,0,0,0-2.15,3.1,1.28,1.28,0,0,1-.47.69,8.26,8.26,0,0,0-2.34,3.18,18.29,18.29,0,0,0-1.7,6.86,10.91,10.91,0,0,0,.39,3.73,1.68,1.68,0,0,1,0,.5,12.81,12.81,0,0,1-.66,3.52,4.36,4.36,0,0,1-.58,1.11,1.09,1.09,0,0,1-1.82.17,4.31,4.31,0,0,1-.84-1.31,10,10,0,0,1-.78-3.36c-.07-1-.13-1.93-.11-2.9a11.24,11.24,0,0,1,.72-4,19,19,0,0,1,1-2c.6-1.08,1.23-2.15,1.83-3.24a7,7,0,0,0,.38-1l.05-.15Zm13.79-2.5,0,.29.09,0-.13-.27a7,7,0,0,0-.22-.9,12.63,12.63,0,0,0-2-3.46A6,6,0,0,0,203,20a11.78,11.78,0,0,0-1.62.44c-.22.07-.45.24-.27.44a4.19,4.19,0,0,0,1.08.84c.16.09.46,0,.69-.11a5.6,5.6,0,0,1,4.61.39,6.56,6.56,0,0,1,2.18,2.14C210.23,24.86,210.71,25.67,211.21,26.46ZM191.5,33.83l.14.11a1.67,1.67,0,0,1,.12-.23c.67-.9,1.32-1.84,2-2.71a16.73,16.73,0,0,1,2.66-2.66,37.63,37.63,0,0,1,4.78-3,2.61,2.61,0,0,0,.88-1,1,1,0,0,0-1.11-.09,29.9,29.9,0,0,0-4,2.49,17.18,17.18,0,0,0-4.52,4.75A7.21,7.21,0,0,0,191.5,33.83Zm-.09.27,0,0v0Z"/>
        <path class="cls-17" d="M202.61,34.34c0-1.2,0-2.4.16-3.59A9,9,0,0,1,204,26.7a4.41,4.41,0,0,1,1.33-1.32,2.16,2.16,0,0,1,3,.47,9.08,9.08,0,0,1,1.33,2.27c.16.38.34.75.51,1.12l.05.3.08,0-.12-.29-.13-1.88c.83.76,1.82,1.17,2.2,2.26a3,3,0,0,0,.58-1.7c.07-.67.09-1.34.13-2a1.61,1.61,0,0,1,2.33-1.42,4.09,4.09,0,0,1,1.3,1.08,12.13,12.13,0,0,1,2.3,5.72,2.34,2.34,0,0,1,0,.38,1.06,1.06,0,0,1,0,.19l-.7.06c-.06-.23-.11-.44-.15-.66a6.19,6.19,0,0,0-1.69-3.39,1.72,1.72,0,0,0-1.36-.54c-.49.05-.76.33-.86.94.36-.15.57-.6,1-.45a1.81,1.81,0,0,1,.88.72c-1,0-1.29.21-1.59,1.11a5.71,5.71,0,0,0,.09,3.35c0,.1.06.2.09.28a.36.36,0,0,1-.08.13,1.51,1.51,0,0,0-.85,1.2A6.55,6.55,0,0,1,210.77,39a4.83,4.83,0,0,1-4,.38,3.06,3.06,0,0,1,2.41-.75,2.55,2.55,0,0,0-3.31.22,2.92,2.92,0,0,0-.74,3.66,4.39,4.39,0,0,1,1.23-2.85A6.83,6.83,0,0,0,209,43.37L208.8,46l-.69-.16-.59-.22a10.17,10.17,0,0,1-2.83-1.47,3.75,3.75,0,0,1-1.45-1.92c0-.23,0-.46,0-.69a4.44,4.44,0,0,1,3.33-4.25,7.25,7.25,0,0,1,3.92,0l.65.17.07-.11-1.06-.8a3.83,3.83,0,0,0-3.53-6.09c.64-.74,1.46-.63,2.28-.65a2,2,0,0,0-.66-.42,2.45,2.45,0,0,0-2.51.58,5.86,5.86,0,0,0-1.47,6.46c.1.23.23.44.35.66l-.71.56A10,10,0,0,1,202.61,34.34Zm15-5.84.06.2.08,0-.1-.21a1,1,0,0,0,0-.25,8,8,0,0,0-1.74-2.89,2.73,2.73,0,0,0-.95-.58,1.06,1.06,0,0,0-1.52.69,3.53,3.53,0,0,0,0,1.74c.21-.36.34-.73.54-1.06a.82.82,0,0,1,1.08-.37,2,2,0,0,1,.65.37,10.89,10.89,0,0,1,1,1.06C217,27.6,217.33,28.05,217.65,28.5Zm-14.3,2.28.13,0c.06-.13.11-.27.16-.4a8.38,8.38,0,0,1,2.05-3.06,1.83,1.83,0,0,1,2-.39,7.67,7.67,0,0,1,1.16.71,2.38,2.38,0,0,0,.31.17l.11-.13a13,13,0,0,0-1-1.35,1.77,1.77,0,0,0-2.54-.28C204,27.2,203.67,29,203.35,30.78Zm10.72-2.22a.28.28,0,0,0,0-.12s0,0-.06-.06a.21.21,0,0,0,0,.11S214.05,28.53,214.07,28.56Zm-4.8-.57s0,0,0,0,0,0,0,0,0,0,0,0S209.28,28,209.27,28Zm-6,3.05,0,0h0Zm5.84-1.11,0,0,0,0,0,0Z"/>
        <path class="cls-15" d="M208.11,45.87l.69.16A14,14,0,0,0,210,51.4,8.49,8.49,0,0,0,212.8,55a5.12,5.12,0,0,0,4.36.81,3.56,3.56,0,0,0,1.73-1.19c.3.31.62.6.9.93.79.93,1.54,1.88,2.34,2.8a4.34,4.34,0,0,0,1.75,1.48c.46.16.65.11.91-.27a1.34,1.34,0,0,0,.2-.46,10.82,10.82,0,0,0,.23-1.6,8.82,8.82,0,0,0-.1-1.62c-.1-.78-.22-1.57-.36-2.34-.1-.51-.25-1-.37-1.52l.11-.07c.44.34.89.68,1.32,1a11.57,11.57,0,0,1,1.92,2.32,2.11,2.11,0,0,0,2.54,1c.12,0,.25,0,.37,0a7.41,7.41,0,0,1,.27,1.29,1.07,1.07,0,0,1-1,1.14,2.89,2.89,0,0,1-2.52-.88,1.24,1.24,0,0,1-.2-.45c-.41-1-.82-2-1.24-3a6,6,0,0,0-.45-.71l-.12.07a1.38,1.38,0,0,0,.08.29,10.35,10.35,0,0,1,.48,5.4,4.67,4.67,0,0,1-.51,1.41,2,2,0,0,1-3.12.57,10.44,10.44,0,0,1-1.24-1.33c-.47-.56-.91-1.14-1.41-1.77-.2.65-.35,1.19-.53,1.71a5.17,5.17,0,0,1-1.25,2,2.3,2.3,0,0,1-3.25.06,5.92,5.92,0,0,1-1.67-3c-.14-.51-.22-1-.35-1.63a4.54,4.54,0,0,1-3.19,3.21A11.76,11.76,0,0,0,207,57.31l.56.06a4.69,4.69,0,0,0,2.11-.09,3,3,0,0,0,1.91-1.62.52.52,0,0,0-.09-.67A15.08,15.08,0,0,1,209,51.3,9.29,9.29,0,0,1,208.11,45.87Z"/>
        <path class="cls-15" d="M209,68.78a22.78,22.78,0,0,1-2.09,9.71A26.94,26.94,0,0,1,202,85.75l-1.49,1c-5.79,3.7-10.83,7.05-15,9.85a51.08,51.08,0,0,1-8.62,2.62,16.9,16.9,0,0,1-3.94.46c-.29,0-.58-.07-.91-.1A3.54,3.54,0,0,1,173.14,98a10.36,10.36,0,0,0,3.45-.57,62.77,62.77,0,0,0,6.93-2.35c.86-.34,1.7-.73,2.53-1.12a53.13,53.13,0,0,0,8.4-4.77c1.32-1,2.62-2,3.86-3a41,41,0,0,0,3.22-3.1,17.62,17.62,0,0,0,2.66-3.64c.77-1.42,1.56-2.83,2.26-4.29a32.89,32.89,0,0,0,2.17-5.53A6.12,6.12,0,0,1,209,68.78Z"/>
        <path class="cls-18" d="M230.65,56.27c-.12,0-.25,0-.37,0a2.11,2.11,0,0,1-2.54-1A11.57,11.57,0,0,0,225.82,53c-.43-.36-.88-.7-1.32-1l-.11.07c.12.5.27,1,.37,1.52.14.77.26,1.56.36,2.34a8.82,8.82,0,0,1,.1,1.62,10.82,10.82,0,0,1-.23,1.6,1.34,1.34,0,0,1-.2.46c-.26.38-.45.43-.91.27a4.34,4.34,0,0,1-1.75-1.48c-.8-.92-1.55-1.87-2.34-2.8-.28-.33-.6-.62-.9-.93a5.66,5.66,0,0,0,.51-3.36l.59-.16a5.49,5.49,0,0,0,3.8-3,3.22,3.22,0,0,0,.33-2.26,2,2,0,0,0-2.64-1.41c-.49.18-.95.44-1.43.66a1.5,1.5,0,0,1-1.54,0,15.63,15.63,0,0,0,2.33-3.81c.79.75,1.53,1.42,2.24,2.13a29.27,29.27,0,0,1,5.41,7.24A25.45,25.45,0,0,1,230.65,56.27Z"/>
        <path class="cls-12" d="M208.11,45.87A9.29,9.29,0,0,0,209,51.3,15.08,15.08,0,0,0,211.51,55a.52.52,0,0,1,.09.67,3,3,0,0,1-1.91,1.62,4.69,4.69,0,0,1-2.11.09l-.56-.06-1.62-1c.09-.76.22-1.52.27-2.29a16.62,16.62,0,0,0,.07-3.07,11.59,11.59,0,0,0-2.6-5.82A21.9,21.9,0,0,1,201.43,43a25.87,25.87,0,0,1-1.3-2.64c-.09-.19-.2-.38-.31-.58a.09.09,0,0,1,0-.1l0-.29A16.21,16.21,0,0,1,200.6,32a6.57,6.57,0,0,1,1.67-2.47V30a14.58,14.58,0,0,0,.23,4c0,.1.08.19.11.29a10,10,0,0,0,1.32,3.31,4.32,4.32,0,0,0-.69,4.61,3.75,3.75,0,0,0,1.45,1.92,10.17,10.17,0,0,0,2.83,1.47Z"/>
        <path class="cls-19" d="M207.19,40.21c.38,0,.75.12,1.12.15a5.07,5.07,0,0,0,4.38-1.82,8.53,8.53,0,0,0,1.93-4,.93.93,0,0,1,.62-.78,11.22,11.22,0,0,1,3.95-1,4.37,4.37,0,0,1,4.08,2.28c.22.37.4.78.62,1.22a7.26,7.26,0,0,0-3.33,1.35c-1.24.78-2.46,1.61-3.74,2.35a10.35,10.35,0,0,1-6.52,1.51c-.53-.06-1.06-.18-1.61-.22a4.7,4.7,0,0,0,2.44.86,11.62,11.62,0,0,0,6.55-1.48c.77-.39,1.49-.86,2.33-1.36-.07.36-.12.63-.19.91a9.24,9.24,0,0,1-1.55,3.35,1.5,1.5,0,0,1-1.08.68,10.28,10.28,0,0,1-6.84-1.09,9.41,9.41,0,0,1-3.19-2.89ZM215.5,36c.5-.37.67-.58.74-.89s0-.47-.25-.56-.46.09-.49.42S215.5,35.56,215.5,36Z"/>
        <path class="cls-16" d="M215.25,49a3.06,3.06,0,0,0,1.88,1.74c.29.11.6.17.9.27a.82.82,0,0,1,.65.89A2.92,2.92,0,0,1,215,54.7a5.57,5.57,0,0,1-3.15-2.38A14.61,14.61,0,0,1,209.7,47a10.91,10.91,0,0,1-.21-3.2l.71.43a9.3,9.3,0,0,0,4.27,1.2c.9.05,1.81,0,2.71,0a.67.67,0,0,1,.61.23,1.68,1.68,0,0,0,1.9.46c.58-.18,1.14-.43,1.7-.66a1.14,1.14,0,0,1,1.31.07,1.22,1.22,0,0,1,.32,1.33,3.82,3.82,0,0,1-2,2.6,6.13,6.13,0,0,1-2.52.75,4,4,0,0,1-2.7-.89l-.51-.36-.13-.21-.08.05Zm1.91-2.8-.09,0,.09,0a1.54,1.54,0,0,0,.77,1A5.11,5.11,0,0,0,220,48c.47.09.93.19,1.05.79a2.34,2.34,0,0,0,1.27-2.23c0-.61-.34-.82-.91-.63a3.68,3.68,0,0,0-.57.26A3.56,3.56,0,0,1,217.16,46.17Zm-3.53.33h-.11a3.93,3.93,0,0,1-.06.69,4.56,4.56,0,0,0,.12,2.29,4.47,4.47,0,0,0,1.8,2.5,1.84,1.84,0,0,1,.9,1.75,1,1,0,0,0,0,.24,1.63,1.63,0,0,0,1.7-1.13c.37-.8.24-1.16-.56-1.46l-.18,0a4.38,4.38,0,0,1-2.92-2.73c-.08-.22-.16-.43-.23-.65Z"/>
        <path class="cls-13" d="M155.71,53.35c.07,0,.18,0,.22,0a14,14,0,0,1,4.73-2.8,12.71,12.71,0,0,1,5.43-.69,10.11,10.11,0,0,1,4.6,1.51,9.38,9.38,0,0,1,3.45,4.23,24.19,24.19,0,0,1,1.3,4.75s0,.11,0,.21A10.27,10.27,0,0,0,171,58a3.8,3.8,0,0,0-.71-2,7.54,7.54,0,0,0-4.87-3.42,9.48,9.48,0,0,0-8.54,2.09c-.66.54-1.24,1.18-1.92,1.83A8.25,8.25,0,0,1,155.71,53.35Z"/>
        <path class="cls-13" d="M157.53,67.65a3.15,3.15,0,0,0,.35-.38,16.12,16.12,0,0,1,2.92-3.84A8.5,8.5,0,0,1,165.08,61a13.37,13.37,0,0,1,4.19-.11,12.06,12.06,0,0,1,4.38,1.42,8.62,8.62,0,0,1,1.61,1.12l-5,.78c-.47-.13-.93-.28-1.4-.37a6.68,6.68,0,0,0-4.44.82,13.21,13.21,0,0,0-3.84,3.14,22,22,0,0,0-3.23,5c-.06.11-.11.23-.17.34s0,0-.09,0A24.2,24.2,0,0,1,157.53,67.65Z"/>
        <path class="cls-13" d="M166.73,33.28a2.29,2.29,0,0,0,.52.11,13,13,0,0,1,8,2.93,12.87,12.87,0,0,1,3.89,5.62,19.73,19.73,0,0,1,1.1,4.1,19,19,0,0,1,.26,4.7c-.13,1.38-.4,2.76-.62,4.13a4.11,4.11,0,0,1-.17.49l-1.6-4.43c0-1,0-2.06-.12-3.08A17.25,17.25,0,0,0,171.56,36,9.35,9.35,0,0,0,165,33.86,5.14,5.14,0,0,1,166.73,33.28Z"/>
        <path class="cls-13" d="M180,88.51c.15.26.3,0,.42,0,1.3-.52,2.58-1.09,3.89-1.55a29.4,29.4,0,0,1,5.38-1.34c1.14-.16,2.28-.26,3.41-.39a7.62,7.62,0,0,1,1.66,0,2.44,2.44,0,0,1-.33.23c-1.13.58-2.26,1.17-3.41,1.74a4.22,4.22,0,0,1-.79.23c-.64.2-1.29.37-1.91.61a57.93,57.93,0,0,0-11.76,5.87c-.66.44-1.3.93-1.94,1.4l-.1-.1a20.83,20.83,0,0,1,3.62-4.88C178.73,89.67,179.37,89.1,180,88.51Z"/>
        <path class="cls-13" d="M178.58,86a1.45,1.45,0,0,0,.38-.16c1.29-1.07,2.53-2.21,3.88-3.2a35.72,35.72,0,0,1,6.87-4,29,29,0,0,1,6-1.81,1.06,1.06,0,0,1,.25,0h.7l-.5.34-3.88,2.44c-.14.09-.23.25-.38.33a3.68,3.68,0,0,1-.5.18l-.12.14h0a2.12,2.12,0,0,0-.45.07,39.75,39.75,0,0,0-13.51,9.21l-.27.23a8.2,8.2,0,0,1,1.41-3.55l.15-.17Z"/>
        <path class="cls-15" d="M219.89,90.23A8.11,8.11,0,0,1,218,94.72a3.63,3.63,0,0,1-.86.68l-5-3.3A45.62,45.62,0,0,0,219.89,90.23Z"/>
        <path class="cls-15" d="M199.82,39.73c.11.2.22.39.31.58a25.87,25.87,0,0,0,1.3,2.64,21.9,21.9,0,0,0,1.71,2.16,11.59,11.59,0,0,1,2.6,5.82,16.62,16.62,0,0,1-.07,3.07c0,.77-.18,1.53-.27,2.29-.6-.17-1.2-.38-1.81-.51s-1.2-.17-1.87-.26c.14-.22.28-.42.4-.62.44-.83.95-1.64,1.31-2.51a5,5,0,0,0-.27-4.55c-.44-.79-.94-1.54-1.45-2.29A9.05,9.05,0,0,1,200,41.86C199.93,41.15,199.89,40.44,199.82,39.73Z"/>
        <path class="cls-20" d="M179.71,79.88a1.63,1.63,0,0,0,.46-.22c.42-.39.81-.8,1.22-1.2A37.87,37.87,0,0,1,185.61,75a35,35,0,0,1,4.76-2.91,14.77,14.77,0,0,1,3.7-1.34,3.2,3.2,0,0,1,1.19,0c-.11.09-.21.19-.32.27-.4.3-.8.61-1.23.87a3.41,3.41,0,0,1-.71.29c-.21.07-.44.11-.65.2a34.94,34.94,0,0,0-7.56,4.86,39.16,39.16,0,0,0-7.24,7.7l-.59.86c0-.27,0-.4.07-.51a17.41,17.41,0,0,1,2.46-5.14l.08.07,0-.11v0l.14-.26Z"/>
        <path class="cls-21" d="M238.5,36a6.87,6.87,0,0,1,1.89-3.42,1.4,1.4,0,0,1,1.3-.47,11.52,11.52,0,0,0,1.43,9.2l-2.81-.18a14.28,14.28,0,0,1-1.61-4C238.64,36.8,238.56,36.41,238.5,36Z"/>
        <path class="cls-15" d="M179,76.63a2.2,2.2,0,0,0,.37-.3,29.25,29.25,0,0,1,3.89-4.28,22.61,22.61,0,0,1,4.26-3,22.3,22.3,0,0,1,4.05-1.82c.61-.19,1.23-.33,1.84-.5l0,.12-1.47.92-.08-.12-.05.13h0a2.89,2.89,0,0,0-.58.14,23.16,23.16,0,0,0-5.19,3.41,50.91,50.91,0,0,0-7.6,8.13c-.12.16-.26.32-.39.48l-.11-.09Z"/>
        <path class="cls-20" d="M236.1,45.14c.33.7.66,1.39,1,2.09a1.24,1.24,0,0,0,.82.65.88.88,0,0,0,.64-.05,4.74,4.74,0,0,1,3.17-.47,9,9,0,0,1,2.16.6,1.66,1.66,0,0,1,1.1.84c-.53-.08-1.07-.21-1.61-.25a8.3,8.3,0,0,0-6.06,1.78,2.65,2.65,0,0,1-2-2.68A3.65,3.65,0,0,1,236.1,45.14Z"/>
        <path class="cls-20" d="M238.33,51.09a1.24,1.24,0,0,1,.17.42,3.12,3.12,0,0,0,1.05,2.34l.09.09a1.41,1.41,0,0,0,2.09.48,4.13,4.13,0,0,1,2.54-.51,20.28,20.28,0,0,1,2.43.54c.07,0,.11.12.16.18a9.92,9.92,0,0,0-3.42.38,8.11,8.11,0,0,0-2.66,1.37,1,1,0,0,1-.81.22,3.13,3.13,0,0,1-2.25-4.74A5.73,5.73,0,0,1,238.33,51.09Z"/>
        <path class="cls-20" d="M238.5,36c.06.38.14.77.2,1.16a14.28,14.28,0,0,0,1.61,4l-1.91.35A8.78,8.78,0,0,1,238.5,36Z"/>
        <path class="cls-22" d="M215,30.07c0-.14.07-.28.12-.42.32-.78.88-.88,1.43-.23a4.83,4.83,0,0,1,.94,2.37c0,.11-.12.24-.2.38-.1-.07-.15-.09-.16-.12-.25-.68-.25-.68-1-.66h-.31a1.32,1.32,0,0,1-.18-.1l.56-.71C215.79,30.07,215.79,30.07,215,30.07Z"/>
        <path class="cls-15" d="M178.14,80l-.1.18-.07,0,.06-.24Z"/>
        <path class="cls-15" d="M199.77,39.34l0,.29Z"/>
        <path class="cls-11" d="M179.73,79.9l-.14.26Z"/>
        <path class="cls-11" d="M179.6,80.14l0,.11-.08-.07A.08.08,0,0,1,179.6,80.14Z"/>
        <path class="cls-11" d="M178.6,86l-.15.17Z"/>
        <path class="cls-13" d="M174.61,95.26l-.13.09,0-.19Z"/>
        <path class="cls-8" d="M175.77,45.73l0,.15-.11-.07Z"/>
        <path class="cls-8" d="M192.21,36.9l.14,0-.07.08Z"/>
        <path class="cls-15" d="M251,67.94l.08-.11Z"/>
        <path class="cls-19" d="M207.16,40.25l-.09-.07.12,0Z"/>
        <path class="cls-9" d="M191.88,67.8l.05-.13.08.12Z"/>
        <path class="cls-9" d="M191.25,80.19l.12-.14Z"/>
        <path class="cls-13" d="M225,76.77l-.15.11,0-.08.18,0Z"/>
        <path class="cls-23" d="M228.66,61.47A4.43,4.43,0,0,1,230,63.69a11.62,11.62,0,0,1-1,9.76,6.19,6.19,0,0,1-2.6,2.49l-.07-.08c.5-.82,1-1.63,1.47-2.49a14.54,14.54,0,0,0,1-11c-.09-.31-.12-.63-.18-.95Z"/>
        <path class="cls-23" d="M228.67,61.46h-.09l0-.07.06.08Z"/>
        <path class="cls-23" d="M226.44,75.94l-.14,0,.07-.12Z"/>
        <path class="cls-9" d="M244.45,69.56l.11,0-.1,0Z"/>
        <path class="cls-12" d="M178,68.29l-.15.12,0-.08.18,0Z"/>
        <path class="cls-24" d="M191.5,33.83a7.21,7.21,0,0,1,1-2.34A17.18,17.18,0,0,1,197,26.74a29.9,29.9,0,0,1,4-2.49,1,1,0,0,1,1.11.09,2.61,2.61,0,0,1-.88,1,37.63,37.63,0,0,0-4.78,3A16.73,16.73,0,0,0,193.79,31c-.71.87-1.36,1.81-2,2.71a1.67,1.67,0,0,0-.12.23Z"/>
        <path class="cls-24" d="M211.21,26.46c-.5-.79-1-1.6-1.5-2.37A6.56,6.56,0,0,0,207.53,22a5.6,5.6,0,0,0-4.61-.39c-.23.07-.53.2-.69.11a4.19,4.19,0,0,1-1.08-.84c-.18-.2,0-.37.27-.44A11.78,11.78,0,0,1,203,20a6,6,0,0,1,6,2.14,12.63,12.63,0,0,1,2,3.46,7,7,0,0,1,.22.9Z"/>
        <path class="cls-24" d="M211.22,26.45l.13.27-.09,0,0-.29Z"/>
        <polygon class="cls-24" points="191.41 34.1 191.45 34.08 191.44 34.12 191.41 34.1"/>
        <path class="cls-9" d="M197.42,29l.11-.08-.05.15Z"/>
        <path class="cls-9" d="M221.06,104.23a.17.17,0,0,0,0,.07l-.08,0Z"/>
        <path class="cls-25" d="M203.24,42.26a4.32,4.32,0,0,1,.69-4.61l.71-.56c-.12-.22-.25-.43-.35-.66A5.86,5.86,0,0,1,205.76,30a2.45,2.45,0,0,1,2.51-.58,2,2,0,0,1,.66.42c-.82,0-1.64-.09-2.28.65a3.83,3.83,0,0,1,3.53,6.09l1.06.8-.07.11-.65-.17a7.25,7.25,0,0,0-3.92,0,4.44,4.44,0,0,0-3.33,4.25C203.25,41.8,203.25,42,203.24,42.26Zm2.33-5.59a4.67,4.67,0,0,1,2.91-.41.93.93,0,0,0,1-.4,3.14,3.14,0,0,0-1.64-4.75,1.88,1.88,0,0,0-2.47,1,5.46,5.46,0,0,0-.43,1.69A4.54,4.54,0,0,0,205.57,36.67Zm.92-6.13,0,0,0,0,0,0Z"/>
        <path class="cls-26" d="M203.35,30.78c.32-1.8.69-3.58,2.38-4.7a1.77,1.77,0,0,1,2.54.28,13,13,0,0,1,1,1.35l-.11.13a2.38,2.38,0,0,1-.31-.17,7.67,7.67,0,0,0-1.16-.71,1.83,1.83,0,0,0-2,.39,8.38,8.38,0,0,0-2.05,3.06c0,.13-.1.27-.16.4Z"/>
        <path class="cls-26" d="M217.65,28.5c-.32-.45-.61-.9-1-1.33a10.89,10.89,0,0,0-1-1.06,2,2,0,0,0-.65-.37.82.82,0,0,0-1.08.37c-.2.33-.33.7-.54,1.06a3.53,3.53,0,0,1,0-1.74,1.06,1.06,0,0,1,1.52-.69,2.73,2.73,0,0,1,.95.58,8,8,0,0,1,1.74,2.89,1,1,0,0,1,0,.25Z"/>
        <path class="cls-9" d="M210.21,29.23l.12.29-.08,0-.05-.3Z"/>
        <path class="cls-9" d="M214.07,28.56s-.06,0-.06-.07a.21.21,0,0,1,0-.11s.06,0,.06.06A.28.28,0,0,1,214.07,28.56Z"/>
        <path class="cls-26" d="M217.69,28.46l.1.21-.08,0-.06-.2Z"/>
        <path class="cls-26" d="M209.27,28s0,0,0,0,0,0,0,0,0,0,0,0S209.25,28,209.27,28Z"/>
        <polygon class="cls-26" points="203.32 31.04 203.33 31.08 203.31 31.07 203.32 31.04"/>
        <path class="cls-25" d="M209.16,29.93l0,0,0,0,0,0Z"/>
        <path class="cls-23" d="M215.5,36c0-.42,0-.73,0-1s.24-.49.49-.42.3.31.25.56S216,35.61,215.5,36Z"/>
        <path class="cls-24" d="M213.63,46.5l.48,1.46c.07.22.15.43.23.65a4.38,4.38,0,0,0,2.92,2.73l.18,0c.8.3.93.66.56,1.46A1.63,1.63,0,0,1,216.3,54a1,1,0,0,1,0-.24,1.84,1.84,0,0,0-.9-1.75,4.47,4.47,0,0,1-1.8-2.5,4.56,4.56,0,0,1-.12-2.29,3.93,3.93,0,0,0,.06-.69Z"/>
        <path class="cls-24" d="M217.16,46.17a3.56,3.56,0,0,0,3.71,0,3.68,3.68,0,0,1,.57-.26c.57-.19.87,0,.91.63a2.34,2.34,0,0,1-1.27,2.23c-.12-.6-.58-.7-1.05-.79a5.11,5.11,0,0,1-2.1-.79,1.54,1.54,0,0,1-.77-1Z"/>
        <path class="cls-9" d="M215.25,49l-.18-.2.08-.05.13.21Z"/>
        <path class="cls-24" d="M217.16,46.17l-.09,0,.09,0Z"/>
        <path class="cls-27" d="M205.57,36.67a4.54,4.54,0,0,1-.61-2.83,5.46,5.46,0,0,1,.43-1.69,1.88,1.88,0,0,1,2.47-1,3.14,3.14,0,0,1,1.64,4.75.93.93,0,0,1-1,.4A4.67,4.67,0,0,0,205.57,36.67Zm2.79-4a1.42,1.42,0,0,0-1.71-.16,1.75,1.75,0,0,0-.83,1.72,1.39,1.39,0,0,0,1.4,1.35,1.41,1.41,0,0,0,1.5-1.16,6.67,6.67,0,0,0,.09-.93l-1.15.17-.08-.13Z"/>
        <path class="cls-17" d="M206.49,30.54l0,0,0,0,0,0Z"/>
        <path class="cls-23" d="M208.36,32.72l-.78.86.08.13,1.15-.17a6.67,6.67,0,0,1-.09.93,1.41,1.41,0,0,1-1.5,1.16,1.39,1.39,0,0,1-1.4-1.35,1.75,1.75,0,0,1,.83-1.72A1.42,1.42,0,0,1,208.36,32.72Z"/>
      </g>
    </g>
  </g>
</svg>
