<svg xmlns="http://www.w3.org/2000/svg" viewBox="0 0 431.78 122.64">
  <defs>
    <style>
      .cls-1 {
        fill: #fff;
      }

      .cls-2 {
        fill: #1a1a1a;
      }

      .cls-3 {
        fill: #3968b0;
      }

      .cls-4 {
        fill: #3263ad;
      }

      .cls-5 {
        fill: #d0d0d2;
      }

      .cls-6 {
        fill: #050506;
      }

      .cls-7 {
        fill: #fffffe;
      }

      .cls-8 {
        fill: #fefefe;
      }

      .cls-9 {
        fill: #fdfdfd;
      }

      .cls-10 {
        fill: #cacaaf;
      }

      .cls-11 {
        fill: #fefffd;
      }

      .cls-12 {
        fill: #c9c8ae;
      }

      .cls-13 {
        fill: #e52327;
      }

      .cls-14 {
        fill: #e52227;
      }

      .cls-15 {
        fill: #fcfcfc;
      }

      .cls-16 {
        fill: #f9dc06;
      }

      .cls-17 {
        fill: #c9c8ad;
      }

      .cls-18 {
        fill: #fcfcfb;
      }

      .cls-19 {
        fill: #efefef;
      }

      .cls-20 {
        fill: #090909;
      }

      .cls-21 {
        fill: #f08468;
      }

      .cls-22 {
        fill: #090707;
      }

      .cls-23 {
        fill: #f28e72;
      }

      .cls-24 {
        fill: #f5f5f5;
      }
    </style>
  </defs>
  <g id="Capa_2" data-name="Capa 2">
    <g id="Capa_1-2" data-name="Capa 1">
      <g>
        <path class="cls-1" d="M58.54,83.13H53.3l-2.22-5.92H48.92l-1.15,5.93H43.06L46.7,64.34H54a7.08,7.08,0,0,1,4.74,1.43,4.61,4.61,0,0,1,1.67,3.72,8.39,8.39,0,0,1-1.16,4.43,6.5,6.5,0,0,1-3.55,2.75v0ZM49.75,72.94h2.89c1.93,0,2.89-.9,2.89-2.69A1.7,1.7,0,0,0,55.11,69a2.15,2.15,0,0,0-1.53-.43h-3Z"/>
        <path class="cls-1" d="M77,83.13H72.3l1-5.37H66.16l-1,5.37H60.5l2.12-10.92a10.75,10.75,0,0,1,3.16-6.09A9.13,9.13,0,0,1,72.13,64a7.91,7.91,0,0,1,5.33,1.65,5.78,5.78,0,0,1,1.91,4.61,8.78,8.78,0,0,1-.23,2Zm-2.89-9.34.3-1.58a7.59,7.59,0,0,0,.15-1.38c0-1.74-1-2.61-2.93-2.61q-3.7,0-4.4,4l-.31,1.58Z"/>
        <path class="cls-1" d="M95.85,70H91.43a2.36,2.36,0,0,0,0-.44c0-1-.62-1.55-1.87-1.55a2.78,2.78,0,0,0-2,.66,2,2,0,0,0-.71,1.5,1.21,1.21,0,0,0,.59,1,3.66,3.66,0,0,0,1.48.56,19.15,19.15,0,0,1,1.91.45,14.26,14.26,0,0,1,1.91.67,3.37,3.37,0,0,1,1.48,1.31,4.08,4.08,0,0,1,.59,2.24,6.68,6.68,0,0,1-2.19,5.23,8.48,8.48,0,0,1-5.88,2,7.45,7.45,0,0,1-4.6-1.32,4.25,4.25,0,0,1-1.75-3.59,5.92,5.92,0,0,1,.09-1h4.62a3.35,3.35,0,0,0-.06.55c0,1,.7,1.43,2.1,1.43A3.4,3.4,0,0,0,89.36,79a1.94,1.94,0,0,0,.72-1.57,1.2,1.2,0,0,0-.59-1A3.63,3.63,0,0,0,88,75.88c-.59-.11-1.22-.26-1.91-.46a16.29,16.29,0,0,1-1.91-.69,3.35,3.35,0,0,1-1.47-1.31,4.08,4.08,0,0,1-.59-2.24A6.76,6.76,0,0,1,84.29,66a7.88,7.88,0,0,1,5.62-2,6.58,6.58,0,0,1,4.32,1.38,4.47,4.47,0,0,1,1.68,3.64A5.2,5.2,0,0,1,95.85,70Z"/>
        <path class="cls-1" d="M110.26,83.13H96.43l3.64-18.79H114l-.84,4.25H104l-.61,3.16h7.47l-.72,3.68h-7.46L102,78.88h9.17Z"/>
        <path class="cls-1" d="M129,83.13h-5.25l-2.22-5.92H119.4l-1.14,5.93h-4.72l3.64-18.79h7.3a7.13,7.13,0,0,1,4.75,1.43,4.63,4.63,0,0,1,1.66,3.72,8.39,8.39,0,0,1-1.16,4.43,6.5,6.5,0,0,1-3.55,2.75v0Zm-8.8-10.19h2.89c1.93,0,2.89-.9,2.89-2.69a1.7,1.7,0,0,0-.42-1.23,2.13,2.13,0,0,0-1.53-.43h-3Z"/>
        <path class="cls-1" d="M152.38,72A11,11,0,0,1,149,80.18a11.41,11.41,0,0,1-8.38,3.32,8.75,8.75,0,0,1-6.21-2.28A7.6,7.6,0,0,1,132,75.43a11,11,0,0,1,3.36-8.14A11.48,11.48,0,0,1,143.73,64a8.71,8.71,0,0,1,6.2,2.28A7.61,7.61,0,0,1,152.38,72Zm-11.29,7.21a6.16,6.16,0,0,0,4.58-1.89,6.44,6.44,0,0,0,1.85-4.66,4.49,4.49,0,0,0-1.18-3.23,4.13,4.13,0,0,0-3.16-1.25,6,6,0,0,0-4.52,1.9,6.52,6.52,0,0,0-1.79,4.68A4.57,4.57,0,0,0,138,78,4,4,0,0,0,141.09,79.25Z"/>
      </g>
      <g>
        <path class="cls-1" d="M349,72.34a11,11,0,0,1-3.36,8.14,11.45,11.45,0,0,1-8.38,3.32A8.75,8.75,0,0,1,331,81.52a7.58,7.58,0,0,1-2.44-5.79A11,11,0,0,1,332,67.59a11.48,11.48,0,0,1,8.39-3.32,8.74,8.74,0,0,1,6.2,2.28A7.58,7.58,0,0,1,349,72.34Zm-11.29,7.21a6.16,6.16,0,0,0,4.59-1.9A6.4,6.4,0,0,0,344.13,73,4.49,4.49,0,0,0,343,69.77a4.16,4.16,0,0,0-3.16-1.25,5.93,5.93,0,0,0-4.52,1.9,6.52,6.52,0,0,0-1.8,4.68,4.53,4.53,0,0,0,1.14,3.21A3.94,3.94,0,0,0,337.69,79.55Z"/>
        <path class="cls-1" d="M365.35,83.43h-5.24l-2.22-5.92h-2.16l-1.15,5.93h-4.71l3.64-18.79h7.3a7.13,7.13,0,0,1,4.74,1.42,4.67,4.67,0,0,1,1.67,3.72,8.4,8.4,0,0,1-1.16,4.44A6.44,6.44,0,0,1,362.51,77V77Zm-8.79-10.19h2.89c1.92,0,2.89-.9,2.89-2.69a1.7,1.7,0,0,0-.42-1.23,2.16,2.16,0,0,0-1.54-.43h-3Z"/>
        <path class="cls-1" d="M383.82,83.43h-4.71l1-5.37H373l-1,5.37H367.3l2.13-10.92a10.69,10.69,0,0,1,3.16-6.09,9.13,9.13,0,0,1,6.35-2.15,7.88,7.88,0,0,1,5.32,1.65,5.76,5.76,0,0,1,1.92,4.61,8.25,8.25,0,0,1-.24,2Zm-2.9-9.34.31-1.58a7.59,7.59,0,0,0,.15-1.38c0-1.74-1-2.61-2.93-2.61-2.48,0-3.94,1.33-4.4,4l-.31,1.58Z"/>
        <path class="cls-1" d="M394.25,83.43h-7l3.64-18.79h6.29a9.53,9.53,0,0,1,6.48,2A6.88,6.88,0,0,1,406,72.14a11.21,11.21,0,0,1-3,8.16C401,82.38,398,83.43,394.25,83.43Zm-1.45-4.25h1.85a6.32,6.32,0,0,0,4.87-1.74,6.46,6.46,0,0,0,1.62-4.58q0-4-4.4-4h-1.95Z"/>
        <path class="cls-1" d="M427.91,72.34a11,11,0,0,1-3.36,8.14,11.48,11.48,0,0,1-8.39,3.32A8.75,8.75,0,0,1,410,81.52a7.62,7.62,0,0,1-2.44-5.79,11,11,0,0,1,3.36-8.14,11.49,11.49,0,0,1,8.39-3.32,8.71,8.71,0,0,1,6.2,2.28A7.59,7.59,0,0,1,427.91,72.34Zm-11.29,7.21a6.13,6.13,0,0,0,4.58-1.9A6.36,6.36,0,0,0,423.05,73a4.49,4.49,0,0,0-1.18-3.23,4.12,4.12,0,0,0-3.15-1.25,6,6,0,0,0-4.53,1.9,6.52,6.52,0,0,0-1.79,4.68,4.57,4.57,0,0,0,1.13,3.21A4,4,0,0,0,416.62,79.55Z"/>
      </g>
      <path class="cls-1" d="M37.77,77.81a12.2,12.2,0,0,0-6-4.53v-.15q5.91-3.21,5.91-10.55A12.3,12.3,0,0,0,34,53.22q-3.71-3.53-10.67-3.52H0v49H12.13V60.93h9.13c2.94,0,4.42,1.35,4.42,4s-1.48,4-4.42,4H16.49v9.73h6.27a4.66,4.66,0,0,1,3.48,1.27,4.36,4.36,0,0,1,1.23,3.15q0,4.34-4.71,4.34H16.49V98.66h8.74q7.11,0,10.89-3.71a13,13,0,0,0,3.78-9.69A12.84,12.84,0,0,0,37.77,77.81Z"/>
      <path class="cls-1" d="M318.34,56.05q-6.76-6.57-19.39-6.57H281.69V98.34h12.1V60.68H299q13.89,0,13.89,13.23T299,87.13h-.79V98.34H299q12.63,0,19.39-6.58t6.76-17.85Q325.1,62.63,318.34,56.05Z"/>
      <path class="cls-1" d="M431.78,63.6a1.93,1.93,0,0,1-.61,1.46,2.11,2.11,0,0,1-1.52.6,1.53,1.53,0,0,1-1.1-.41,1.39,1.39,0,0,1-.43-1,2,2,0,0,1,.62-1.46,2.11,2.11,0,0,1,1.52-.59,1.52,1.52,0,0,1,1.1.4A1.39,1.39,0,0,1,431.78,63.6Zm-.24,0a1.26,1.26,0,0,0-.35-.91,1.24,1.24,0,0,0-.93-.35,1.92,1.92,0,0,0-1.34.52,1.72,1.72,0,0,0-.55,1.28,1.19,1.19,0,0,0,1.28,1.25,1.88,1.88,0,0,0,1.34-.52A1.71,1.71,0,0,0,431.54,63.64Zm-.92,1.13h-.28l-.35-.61h-.51l-.12.61h-.25l.34-1.71h.83a.56.56,0,0,1,.38.12.39.39,0,0,1,.14.33.71.71,0,0,1-.14.43.65.65,0,0,1-.42.21h0Zm-.35-1.51h-.61l-.14.68h.59a.45.45,0,0,0,.33-.12.37.37,0,0,0,.12-.29C430.56,63.35,430.46,63.26,430.27,63.26Z"/>
      <g>
        <path class="cls-1" d="M349.06,84.88c-.09.08-.3,0-.48-.2s-.23-.4-.15-.49a.58.58,0,0,0,.17-.37,1.18,1.18,0,0,0-.19-.86,2.87,2.87,0,0,0-1-.91c-3.56-2-10.57-.25-14,1.36-1.66.78-5.73,3.09-4.61,5.46.52,1.12,2.33,1.74,4.1,2.35a19.18,19.18,0,0,1,2.86,1.18c6.1,3.43-1.51,10.8-7.5,10.91-2.18.11-4.72-.92-4.77-3.1,0-1,.76-2.29,2.68-3.82.08-.08.3,0,.47.22s.24.41.13.47c-1.85,1.49-2.59,2.7-2.56,3.58,0,1.38,2.41,1.53,3.36,1.49,5.24-.13,12.78-6.58,8.28-9.12a19,19,0,0,0-2.72-1.1c-2.05-.71-4.14-1.42-5-3.17-1.31-2.82,2.46-5.28,4.53-6.25,3.71-1.73,10.87-3.24,14.66-1.08A4.23,4.23,0,0,1,349,83a2.23,2.23,0,0,1,.37,1.38A1,1,0,0,1,349.06,84.88Z"/>
        <path class="cls-1" d="M343.84,93c.09.21,0,.34-.15.3a.85.85,0,0,1-.47-.43c-.43-.41-1.49.09-1.88.41a4.19,4.19,0,0,0-1.48,2.41c.75-.21,2.71-2.5,2.71-2.5s.28,0,.48.18.23.36.17.47a2.22,2.22,0,0,0-.17,1.27c.08.52,2.89-1.83,2.93-1.85a.28.28,0,0,1,.43,0c.17.19.15.36.06.45a19.38,19.38,0,0,1-2.84,2.33c-1,.51-1.75.21-1.73-.84-.77.73-1.57,1.4-2,1.18a1.13,1.13,0,0,1-.69-1.23,2.42,2.42,0,0,1,.23-.82,5.12,5.12,0,0,1,1.34-1.72C341.71,91.82,343.48,91.78,343.84,93Z"/>
        <path class="cls-1" d="M350.59,85.46c.07-.11.26,0,.46.13s.28.41.21.52l-4.83,7.8A10.82,10.82,0,0,1,348.91,92a.9.9,0,0,1,1,0l0,0a1.21,1.21,0,0,1,.48,1,2.74,2.74,0,0,1-.13.89c-.35,1.12-1.23,2.52-2.18,2.74A1.52,1.52,0,0,1,346,95.59c-1,1-1.81,2-1.83,2s-.26,0-.43-.16-.28-.41-.22-.51Zm-1.1,7.29A13.68,13.68,0,0,0,346.58,95c0,.24.07,1.17,1,1s1.69-1.53,2-2.58a3.74,3.74,0,0,0,.15-.74C349.62,92.68,349.56,92.73,349.49,92.75Zm.33-.13,0,0s.06,0,0,0Z"/>
        <path class="cls-1" d="M352.19,92.34c.09-.07.3,0,.48.21s.21.41.13.5a1.4,1.4,0,0,0-.18.13,4.36,4.36,0,0,0-1.05,1.75,2.21,2.21,0,0,0-.15,1.29.67.67,0,0,0,.4,0,1.53,1.53,0,0,0,.65-.41,4,4,0,0,0,.84-1.14,4.84,4.84,0,0,0,.35-.89,3,3,0,0,1-.84-1.1,2.2,2.2,0,0,1-.22-1.05c0-.3.17-.52.43-.56a.91.91,0,0,1,.54.1,1.62,1.62,0,0,1,.67.74,2.39,2.39,0,0,1,.24.77,3.62,3.62,0,0,1,0,.93,2.72,2.72,0,0,0,1.94-.26c.11-.06.21-.15.39.05s.12.34,0,.4a2.84,2.84,0,0,1-2.44.41,3.71,3.71,0,0,1-.41,1.08,4.21,4.21,0,0,1-.88,1.21,2,2,0,0,1-.74.45,1,1,0,0,1-.84-.08,1.74,1.74,0,0,1-.43-.35l-.13-.13a2.47,2.47,0,0,1-.08-2A4.41,4.41,0,0,1,352,92.49Zm1.58.93a3.92,3.92,0,0,0,0-1,2.67,2.67,0,0,0-.11-.48h0a.19.19,0,0,0-.15,0c-.13,0-.2.13-.22.32a1.29,1.29,0,0,0,.13.67A1.06,1.06,0,0,0,353.77,93.27Z"/>
        <path class="cls-1" d="M357.73,91.11c.07-.11.28,0,.46.13s.28.41.21.52L357.6,93c.76-.37,1.79-.71,2.23-.17.19.21.12.71.41.73a5.33,5.33,0,0,0,1.59-.24c.13,0,.26-.15.39.05s.06.28-.07.3a7.34,7.34,0,0,1-2.11.36c-.56,0-.73-.19-1.21-.75-.32-.39-2.24,1.31-2.24,1.31s-1.16,1.92-1.27,2.12-.28,0-.45-.13-.28-.41-.22-.52Z"/>
        <path class="cls-1" d="M369,94.13a.4.4,0,0,1-.52,0c-.17-.19.28-.58.37-.67l1.62-2a5.39,5.39,0,0,1,.49-.47c.09-.09.3,0,.46.19s.25.41.17.5l-.52.49a2.89,2.89,0,0,0-.82,2.44,2.31,2.31,0,0,1-.11,1.49,1.7,1.7,0,0,1-.41.47,1.59,1.59,0,0,1-.49.24,1.25,1.25,0,0,1-.84-.11,1.31,1.31,0,0,1-.56-1.85c.06-.11.25-.07.45.1a.62.62,0,0,1,.24.52s-.31.56-.26.58a.62.62,0,0,0,.43,0,.83.83,0,0,0,.43-.19.94.94,0,0,0,.32-.39,1.73,1.73,0,0,0,.11-1.18c0-.29-.19-.31.32-1.25Z"/>
        <path class="cls-1" d="M373.76,91.71c.11-.08.32,0,.49.2s.24.41.13.49a8.77,8.77,0,0,0-1.72,2.25c-.3.6-.28.94-.07,1,.89.13,3.28-2.2,3.28-2.22s.24-.26.41-.06.11.26,0,.34-3.6,3.88-4.53,2.27a2.22,2.22,0,0,1,.22-2A8.28,8.28,0,0,1,373.76,91.71Zm1.33-.62c-.08.11-.3,0-.47-.15s-.26-.41-.17-.52L375.66,89c.08-.11.28,0,.47.15s.24.41.17.52Z"/>
        <path class="cls-1" d="M376.56,92.19c.07-.11.28-.07.45.11s.28.4.22.51l-.54,1c1.16-1,2.44-1.92,2.91-1.79h0a.81.81,0,0,1,.61,1.15,8.45,8.45,0,0,1-.37.84l-.6,1.18c.69.46,3-1.59,3-1.59s.3-.37.47-.17.07.21,0,.32-2.35,2.78-3.47,2-.5-1.58-.09-2.42a3.48,3.48,0,0,0,.24-.52,31.4,31.4,0,0,0-4.18,3.48c-.07.08-.26,0-.43-.13s-.28-.41-.22-.52Z"/>
        <path class="cls-1" d="M395.47,93.48c0-.06.13-.19.31-.06s.28.28.23.34c-.54.93-4.89,4.44-6.14,5.07-.78.41-2.07.8-2.61-.07-1.27-1.79,7-13.62,7.22-13.67a4.74,4.74,0,0,1,2.27-1.85,1.09,1.09,0,0,1,.69,0,1,1,0,0,1,.73.69,2.32,2.32,0,0,1-.39,1.57c-1.38,2.76-7.14,7.14-7.16,7.16s0,0-.08,0c-1.58,2.74-2.7,5.22-2.4,5.87.2.28,1.12-.07,1.34-.18C390.71,97.71,394.94,94.39,395.47,93.48Zm-.38-7.93s-1.75,2.54-3.5,5.39c1.79-1.49,4.66-4,5.59-5.87a2.3,2.3,0,0,0,.36-1.38,1.28,1.28,0,0,0-.28,0A4.81,4.81,0,0,0,395.09,85.55Z"/>
        <path class="cls-1" d="M396.79,91.71c.11-.08.32,0,.5.2s.23.41.13.49a8.77,8.77,0,0,0-1.73,2.25c-.3.6-.28.94-.06,1,.88.13,3.27-2.2,3.27-2.22s.24-.26.41-.06.11.26,0,.34-3.6,3.88-4.52,2.27a2.24,2.24,0,0,1,.21-2A8.47,8.47,0,0,1,396.79,91.71Zm.84-1.2a1.4,1.4,0,0,0,.13-.18,1.75,1.75,0,0,0,.32-.71.68.68,0,0,1,.24-.28c.13-.08.45.15.43.26,0,.3-.82,1.51-1.44,1.34l0,0c-.07,0,0-.17.1-.28S397.57,90.48,397.63,90.51Z"/>
        <path class="cls-1" d="M399.66,91.63c0-.11.26,0,.43.13s.3.38.24.51l-.39.67a6.91,6.91,0,0,1,1.72-1.33c1.34-.46,1.13,1,.7,2.32a1,1,0,0,1,.21-.1,1.3,1.3,0,0,1,.52-.15.82.82,0,0,1,.82.56,1.49,1.49,0,0,1-.07,1.1s2.31-1.88,2.33-1.88.28-.32.45-.13.18.3.09.39-5.18,5.45-3.56,1c0-.08.05-.15.07-.23l-.09,0a5.05,5.05,0,0,0-1.49,1.18v0c-.06.12-.26.08-.45-.09a.61.61,0,0,1-.24-.52s1.32-2.82,1.25-2.8c-1.16.41-4.27,4.2-4.29,4.22s-.26,0-.43-.12-.28-.41-.21-.52Z"/>
        <path class="cls-1" d="M407.66,91.71c.11-.08.32,0,.5.2s.23.41.13.49a8.56,8.56,0,0,0-1.73,2.25c-.3.6-.28.94-.06,1,.88.13,3.27-2.2,3.27-2.22s.24-.26.41-.06.11.26,0,.34-3.6,3.88-4.52,2.27a2.21,2.21,0,0,1,.21-2A8.47,8.47,0,0,1,407.66,91.71Zm1.34-.62c-.09.11-.3,0-.48-.15s-.26-.41-.17-.52L409.56,89c.08-.11.28,0,.47.15s.24.41.17.52Z"/>
        <path class="cls-1" d="M415.88,83.74c.06-.09.28,0,.45.15s.26.41.19.49-1.57,2.2-3.25,4.72h5.5a.74.74,0,0,1,.49.37c.13.22.11.39,0,.39h-6.45c-.45.69-.9,1.4-1.34,2.09v0c0,.09,0,.13-.08.13-1.32,2.14-2,3.36-1.79,3.8.39.73,4.76-2.76,4.76-2.78s.22-.11.39.08,0,.3,0,.37-4.92,4.85-6,2.91c-.33-.61.67-2.68,2-5a1.41,1.41,0,0,1,.13-.24c.05-1.64-5.47-1.42-5.47-1.42a.7.7,0,0,1-.5-.39c-.13-.19-.11-.37.05-.37h7.28C414,86.28,415.85,83.76,415.88,83.74Zm-4.77,7.15.65-1-2.7-.11A5.83,5.83,0,0,1,411.11,90.89Z"/>
        <path class="cls-1" d="M416.61,93.61a6.84,6.84,0,0,1-2.22.65c-1.47,3.15,4.35.47,5-.74a.31.31,0,0,1,.48-.1c.17.17.17.26.1.38-.6,1.06-4,3.39-5.45,2.55a2,2,0,0,1-1-2.11,3.6,3.6,0,0,1,.86-1.6,9.69,9.69,0,0,1,1.4-1.27,3,3,0,0,1,1.45-.65,1.06,1.06,0,0,1,.77,1.1,1.88,1.88,0,0,1-.21.6A2.84,2.84,0,0,1,416.61,93.61Zm-1.53-.34a9.38,9.38,0,0,0,1-.37,3,3,0,0,0,1.08-1.1,2.56,2.56,0,0,1,.11-.24,5.13,5.13,0,0,0-.85.52A8,8,0,0,0,415.08,93.27Z"/>
      </g>
      <path class="cls-2" d="M248.16,120.47c-3.53,0-8.82-3.53-20.42-11.28-4.34-2.9-9.68-6.47-15.86-10.45-6.22,4-11.57,7.56-15.94,10.48-11.57,7.71-16.85,11.24-20.37,11.24a4.22,4.22,0,0,1-3.48-1.66c-2.31-3-.62-9,3.88-24.85,1.38-4.86,3.07-10.82,4.9-17.64C174.39,71,168.77,66.57,164.19,63c-12.13-9.49-16.67-13-15.36-17.08,1.39-4.29,7.7-4.52,28.63-5.3,4.48-.17,9.54-.36,15.25-.62,1.61-4.2,3.21-8.46,4.77-12.59,2.86-7.6,5.81-15.46,8.89-23.13l0-.1.05-.09C208.14.71,210.28,0,211.77,0c2.58,0,4.9,2.15,6.21,5.76,4.18,10.83,8.24,21.54,13,34.24,5.92.27,11.13.46,15.74.63,20.65.76,26.88,1,28.26,5.25,1.3,4-3.25,7.58-15.41,17-4.59,3.58-10.24,8-16.76,13.33,1.81,6.75,3.44,12.47,4.88,17.57,4.54,16,6.23,21.93,3.92,25A4.26,4.26,0,0,1,248.16,120.47Z"/>
      <path class="cls-1" d="M240.84,74.71c14.68,55.09,19.57,50.79-28,20.29-47.6,30.48-42.66,34.78-28-20.23C143.34,40.3,136.34,44.66,194.29,42a1.64,1.64,0,0,0,1.73-1.3c4.62-12,9-24.12,13.8-36.06,2.31-4.65,5.28-2.45,6.67,1.42q6.67,17.28,13.18,34.62A1.74,1.74,0,0,0,231.52,42C289.4,44.66,282.6,40.18,240.84,74.71Z"/>
      <path class="cls-3" d="M246.81,112.18c-3-1.37-9.2-5.49-15.66-9.81-4.7-3.14-10.55-7-17.39-11.43L212,89.8l-1.78,1.14c-6.87,4.4-12.74,8.31-17.45,11.45-6.71,4.48-12.67,8.45-15.62,9.78.35-3.3,2.38-10.43,4.66-18.47,1.5-5.27,3.36-11.82,5.37-19.37l.54-2-1.63-1.35C179,65.05,172.86,60.27,168,56.44c-5.28-4.13-10.32-8.06-12.4-10.28,3.61-.78,12.35-1.11,22.22-1.48,4.61-.17,9.84-.36,15.76-.63a4.94,4.94,0,0,0,4.69-3.44c1.65-4.3,3.31-8.71,4.91-13,2.83-7.52,5.76-15.31,8.8-22.87v0a6.91,6.91,0,0,1,.55,1.2l0,.07c4.23,10.93,8.32,21.73,13.17,34.59a5,5,0,0,0,4.81,3.46c6.07.27,11.42.47,16.13.65,9.66.35,18.22.67,21.82,1.43-2.1,2.21-7.13,6.13-12.4,10.23C251.12,60.2,245,65,237.85,70.89l-1.64,1.34.55,2c2,7.51,3.86,14,5.35,19.3C244.41,101.68,246.45,108.87,246.81,112.18Z"/>
      <g>
        <path class="cls-4" d="M268.46,46.1a46.73,46.73,0,0,1-3.95,3.55l-1.38,1.12c-2.11,1.71-4.56,3.62-7.07,5.57l-.2.16L253,58.7h0l-2.09,1.64q-1.94,1.52-4,3.2l-.92.73-3.65,2.93-.85.69-.93.76-1.48,1.21-1.21,1-1.63,1.35.54,2.05c.32,1.2.64,2.38.95,3.53h0c.08.27.15.54.22.8s.12.43.17.64.07.23.1.34Q239.14,83,240,86c.17.62.34,1.22.51,1.81s.27,1,.4,1.43c.43,1.52.84,3,1.22,4.3,1.07,3.78,2.09,7.36,2.91,10.44.19.72.36,1.4.53,2.05s.36,1.45.51,2.11c.09.41.18.8.26,1.18a28.31,28.31,0,0,1,.49,2.83,43.49,43.49,0,0,1-4.11-2.28c-.51-.32-1.06-.65-1.62-1s-1.44-.91-2.2-1.41-1.49-1-2.27-1.48c-1.75-1.15-3.59-2.38-5.46-3.63l-1.77-1.19-1.7-1.13c-1.63-1.09-3.38-2.24-5.23-3.46-.53-.36-1.08-.72-1.64-1.08-2.21-1.45-4.56-3-7-4.57l-.3-.2L212,89.78l-.22.13-1.57,1c-6.06,3.88-11.35,7.39-15.75,10.32l-1.7,1.13c-1.44,1-2.85,1.91-4.21,2.8a106.5,106.5,0,0,1-11.41,7,53.92,53.92,0,0,1,1.36-6.5c.19-.71.38-1.45.58-2.22.78-2.91,1.73-6.23,2.72-9.73v0c.29-1.05.6-2.15.93-3.29,1.31-4.62,2.82-10,4.43-16.08l.54-2-.88-.74-.11-.09-.63-.52-1.82-1.5c-1-.85-2-1.68-3-2.48-1.3-1.06-2.57-2.07-3.79-3h0l-3.72-3-1.82-1.44-3.09-2.42-.85-.66-.85-.67-1.66-1.3-1-.79-1.28-1a82.74,82.74,0,0,1-7.6-6.52c3.62-.77,12.36-1.1,22.23-1.47l5.2-.2,2-.07,2.89-.12,3.91-.17,1.72-.07.22,0a5,5,0,0,0,2.89-1.1l0,0a5.47,5.47,0,0,0,1.55-2.3c.1-.27.2-.53.31-.8.27-.7.54-1.41.8-2.11h0c.76-2,1.5-4,2.25-5.92h0L203,28.08l.18-.47C206,20.08,208.92,12.3,212,4.73l0,0a7.84,7.84,0,0,1,.54,1.2l0,.07c1.67,4.33,3.33,8.65,5,13.08L218.67,22h0c.15.39.29.77.44,1.15h0l.84,2.21h0l1.17,3.1h0c.16.43.33.85.49,1.28h0l2.48,6.55c.17.47.35.93.53,1.4q.52,1.43,1.08,2.88a6.07,6.07,0,0,0,1,1.72,4.83,4.83,0,0,0,.77.73,5.16,5.16,0,0,0,2.42.95h0c.21,0,.43.05.65.06l.63,0,1.38.07,2.28.09c4.34.19,8.27.33,11.84.46l1.06,0c4.5.17,8.72.33,12.27.54A66.55,66.55,0,0,1,268.46,46.1Z"/>
        <path class="cls-5" d="M267,55.52a16.82,16.82,0,0,0-2.5-5.87,16,16,0,0,0-4.54-4.4,16.78,16.78,0,0,0-1.6-.94,2.83,2.83,0,0,1-.72-.57,10.46,10.46,0,0,1-2.9-7.32c0-1,0-2,0-3.05s-.36-1.33-1.4-1.27a3.66,3.66,0,0,0-2.42,1.24,9.87,9.87,0,0,0-2.64,8.59,17,17,0,0,0,.48,1.93l-.63.48-.45.37a7.52,7.52,0,0,0-2.45,3.56,4.93,4.93,0,0,0,.29,3.8,3.2,3.2,0,0,0,2.56,1.84c-.1.25-.21.45-.27.66a1,1,0,0,1-.61.62,4.82,4.82,0,0,1-4.16.07,1.31,1.31,0,0,1-.86-.81,26.62,26.62,0,0,0-7.4-10.24l-.78-.64c-.64-.5-1.31-1-2-1.45.1-.64.21-1.27.32-1.93a5.54,5.54,0,0,1,.81-.4c.6-.2,1.22-.36,1.84-.52s.64-.23.63-.76a4.13,4.13,0,0,0-.16-1.17,6.09,6.09,0,0,0-4.84-4.13c-.06-.53-.1-1.1-.19-1.66a11.88,11.88,0,0,0-2.56-5.94,5.25,5.25,0,0,0-2-1.54,2.47,2.47,0,0,0-2.82.45l-.43.39-.43-.91a12.32,12.32,0,0,0-2-3,7.11,7.11,0,0,0-5.11-2.44,11.9,11.9,0,0,0-4.73.79,4.91,4.91,0,0,0-1.4.85,1.82,1.82,0,0,0,0,3c.25.23.52.44.8.68l-.2.13a27,27,0,0,0-4.95,2.77c-.59.41-1.16.84-1.71,1.28A20,20,0,0,0,199.24,32,10.73,10.73,0,0,0,197.4,36a5.42,5.42,0,0,0-.11,2.23,1.74,1.74,0,0,0,1.26,1.52,2.2,2.2,0,0,0,1.13-.12,14.4,14.4,0,0,0,1.86-1l.07.07-.09.58a17,17,0,0,0,.2,7.87,7.76,7.76,0,0,0,1.68,3.26,2.38,2.38,0,0,0,3.8.08,10.29,10.29,0,0,0,1.16-1.61c.29-.47.51-1,.81-1.61.62,1,1.26,1.88,1.75,2.82a5.78,5.78,0,0,1,0,5.71,15.54,15.54,0,0,1-.9,1.38,2,2,0,0,1-1.92,1.15.43.43,0,0,0-.19,0A18.43,18.43,0,0,0,202,60.52l-1.09.58c0-.21,0-.32,0-.42a28.9,28.9,0,0,0,.1-8.51,16.93,16.93,0,0,0-4.13-9.07l-.24-.21,0,0v0a23.43,23.43,0,0,1,.33,5.25,15.19,15.19,0,0,1-1.07,5,3.1,3.1,0,0,1-.15-.84,24.67,24.67,0,0,0-2-8.32h0a18.53,18.53,0,0,0-9.31-9.7,13.62,13.62,0,0,0-8.7-1.14,8,8,0,0,0-5.28,3.46,7,7,0,0,0-.34.61c.64-.09,1.2-.2,1.77-.23a9.56,9.56,0,0,1,6,1.68A14.55,14.55,0,0,1,183,44.46,18.86,18.86,0,0,1,184.3,48l-.09.09a1.75,1.75,0,0,1-.24-.11,19.19,19.19,0,0,0-4-1.81A13.54,13.54,0,0,0,169,47.18a16,16,0,0,0-5.83,5.47,17.1,17.1,0,0,0-2.36,6.55,12.42,12.42,0,0,0,.59,6.07c.06-.19.1-.29.12-.39a10,10,0,0,1,7.17-7.76l.13,0a7.74,7.74,0,0,1,5.44.23A5.89,5.89,0,0,1,176.55,59a10.58,10.58,0,0,0-4.64.51,11.21,11.21,0,0,0-3.77,2.28,14.09,14.09,0,0,0-3.37,4.54,18.9,18.9,0,0,0-1.58,11.47,18.59,18.59,0,0,0,1.49,4.86c.06-.05.1-.08.11-.11a.67.67,0,0,0,.05-.19,20.45,20.45,0,0,1,4.71-10A9.79,9.79,0,0,1,173,69.62a3.5,3.5,0,0,1,.44-.13c-.33.57-.64,1.05-.9,1.56a19.87,19.87,0,0,0-2,9,19.57,19.57,0,0,0,.61,5,16.13,16.13,0,0,0,6,9.28,1.87,1.87,0,0,0,.43.19,1.75,1.75,0,0,0,0-.24,18,18,0,0,1-1.06-7.8,18.68,18.68,0,0,1,1.34-5.57c.06-.16.15-.3.29-.58,0,.38,0,.6,0,.82a22.13,22.13,0,0,0,1.2,8.07,12.47,12.47,0,0,0,2.46,4.48,7.36,7.36,0,0,0,1.74,1.41,4.56,4.56,0,0,0,0,.74,2.06,2.06,0,0,1-.36,1.29,23.83,23.83,0,0,0-1.2,2.43,9.8,9.8,0,0,1-.53,1.61,8,8,0,0,1-1.34,1.17,9.63,9.63,0,0,0-1,1.08,4.52,4.52,0,0,0-.54.93,1.31,1.31,0,0,0,.9,2,6.28,6.28,0,0,0,1.56.25,15.31,15.31,0,0,0,3.93-.46c1.22-.27,2.43-.58,3.62-1,1.36-.89,2.77-1.83,4.21-2.8l1.7-1.13c4.4-2.93,9.69-6.44,15.75-10.32l1.57-1,.22-.13,1.48.94.3.2c2.48,1.59,4.83,3.12,7,4.57.56.36,1.11.72,1.64,1.08,1.85,1.22,3.6,2.37,5.23,3.46l1.7,1.13a12.52,12.52,0,0,0,3.09-6.74.82.82,0,0,1,.53-.67c1.31-.61,2.65-1.21,3.92-1.91a30.42,30.42,0,0,0,4-2.59,24.57,24.57,0,0,0,4.9-5c.46-.64.88-1.32,1.28-1.92,1.27-.17,2.5-.28,3.71-.51a19,19,0,0,0,10.58-5.62A21.68,21.68,0,0,0,267,55.52Zm-89.4,39v.08l.07,0Zm0,0h0Z"/>
        <path class="cls-6" d="M267,55.52a16.82,16.82,0,0,0-2.5-5.87,16,16,0,0,0-4.54-4.4,16.78,16.78,0,0,0-1.6-.94,2.83,2.83,0,0,1-.72-.57,10.46,10.46,0,0,1-2.9-7.32c0-1,0-2,0-3.05s-.36-1.33-1.4-1.27a3.66,3.66,0,0,0-2.42,1.24,9.87,9.87,0,0,0-2.64,8.59,17,17,0,0,0,.48,1.93l-.63.48-.45.37a7.52,7.52,0,0,0-2.45,3.56,4.93,4.93,0,0,0,.29,3.8,3.2,3.2,0,0,0,2.56,1.84c-.1.25-.21.45-.27.66a1,1,0,0,1-.61.62,4.82,4.82,0,0,1-4.16.07,1.31,1.31,0,0,1-.86-.81,26.62,26.62,0,0,0-7.4-10.24l-.78-.64c-.64-.5-1.31-1-2-1.45.1-.64.21-1.27.32-1.93a5.54,5.54,0,0,1,.81-.4c.6-.2,1.22-.36,1.84-.52s.64-.23.63-.76a4.13,4.13,0,0,0-.16-1.17,6.09,6.09,0,0,0-4.84-4.13c-.06-.53-.1-1.1-.19-1.66a11.88,11.88,0,0,0-2.56-5.94,5.25,5.25,0,0,0-2-1.54,2.47,2.47,0,0,0-2.82.45l-.43.39-.43-.91a12.32,12.32,0,0,0-2-3,7.11,7.11,0,0,0-5.11-2.44,11.9,11.9,0,0,0-4.73.79,4.91,4.91,0,0,0-1.4.85,1.82,1.82,0,0,0,0,3c.25.23.52.44.8.68l-.2.13a27,27,0,0,0-4.95,2.77c-.59.41-1.16.84-1.71,1.28A20,20,0,0,0,199.24,32,10.73,10.73,0,0,0,197.4,36a5.42,5.42,0,0,0-.11,2.23,1.74,1.74,0,0,0,1.26,1.52,2.2,2.2,0,0,0,1.13-.12,14.4,14.4,0,0,0,1.86-1l.14,0-.07.09-.09.58a17,17,0,0,0,.2,7.87,7.76,7.76,0,0,0,1.68,3.26,2.38,2.38,0,0,0,3.8.08,10.29,10.29,0,0,0,1.16-1.61c.29-.47.51-1,.81-1.61.62,1,1.26,1.88,1.75,2.82a5.78,5.78,0,0,1,0,5.71,15.54,15.54,0,0,1-.9,1.38,2,2,0,0,1-1.92,1.15.43.43,0,0,0-.19,0A18.43,18.43,0,0,0,202,60.52l-1.09.58c0-.21,0-.32,0-.42a28.9,28.9,0,0,0,.1-8.51,16.93,16.93,0,0,0-4.13-9.07l-.24-.21,0,0v0a23.43,23.43,0,0,1,.33,5.25,15.19,15.19,0,0,1-1.07,5,3.1,3.1,0,0,1-.15-.84,24.67,24.67,0,0,0-2-8.32h0a18.53,18.53,0,0,0-9.31-9.7,13.62,13.62,0,0,0-8.7-1.14,8,8,0,0,0-5.28,3.46,7,7,0,0,0-.34.61c.64-.09,1.2-.2,1.77-.23a9.56,9.56,0,0,1,6,1.68A14.55,14.55,0,0,1,183,44.46,18.86,18.86,0,0,1,184.3,48l0,.15-.11-.06a1.75,1.75,0,0,1-.24-.11,19.19,19.19,0,0,0-4-1.81A13.54,13.54,0,0,0,169,47.18a16,16,0,0,0-5.83,5.47,17.1,17.1,0,0,0-2.36,6.55,12.42,12.42,0,0,0,.59,6.07c.06-.19.1-.29.12-.39a10,10,0,0,1,7.17-7.76l.13,0a7.74,7.74,0,0,1,5.44.23A5.89,5.89,0,0,1,176.55,59a10.58,10.58,0,0,0-4.64.51,11.21,11.21,0,0,0-3.77,2.28,14.09,14.09,0,0,0-3.37,4.54,18.9,18.9,0,0,0-1.58,11.47,18.59,18.59,0,0,0,1.49,4.86c.06-.05.1-.08.11-.11a.67.67,0,0,0,.05-.19,20.45,20.45,0,0,1,4.71-10A9.79,9.79,0,0,1,173,69.62a3.5,3.5,0,0,1,.44-.13c-.33.57-.64,1.05-.9,1.56a19.87,19.87,0,0,0-2,9,19.57,19.57,0,0,0,.61,5,16.13,16.13,0,0,0,6,9.28,1.87,1.87,0,0,0,.43.19,1.75,1.75,0,0,0,0-.24,18,18,0,0,1-1.06-7.8,18.68,18.68,0,0,1,1.34-5.57c.06-.16.15-.3.29-.58,0,.38,0,.6,0,.82a22.13,22.13,0,0,0,1.2,8.07,12.47,12.47,0,0,0,2.46,4.48,7.36,7.36,0,0,0,1.74,1.41,4.56,4.56,0,0,0,0,.74,2.06,2.06,0,0,1-.36,1.29,23.83,23.83,0,0,0-1.2,2.43,9.8,9.8,0,0,1-.53,1.61,8,8,0,0,1-1.34,1.17,9.63,9.63,0,0,0-1,1.08,4.52,4.52,0,0,0-.54.93,1.31,1.31,0,0,0,.9,2,6.28,6.28,0,0,0,1.56.25,15.31,15.31,0,0,0,3.93-.46c1.22-.27,2.43-.58,3.62-1,1.36-.89,2.77-1.83,4.21-2.8l1.7-1.13a54,54,0,0,1-9,2.76,17.92,17.92,0,0,1-4.13.47c-.31,0-.6-.07-.95-.1a3.61,3.61,0,0,1,1.21-1.63c.26-.26.51-.54.79-.78a45.85,45.85,0,0,1,7-4.74c3.2-1.81,6.45-3.52,9.67-5.27a4.84,4.84,0,0,0,.46-.33c-.67.21-1.35.39-2,.63a61.41,61.41,0,0,0-12.32,6.16c-.7.47-1.36,1-2,1.47L183,100l0-.19a21.74,21.74,0,0,1,3.81-5.12c.62-.64,1.3-1.24,1.95-1.85a58.11,58.11,0,0,1,6.36-4.93c1.72-1.2,3.45-2.37,5.17-3.55a3.58,3.58,0,0,0,.29-.26h0l-.17,0h-.18l-.05,0-.06,0a41.57,41.57,0,0,0-14.17,9.65,2.2,2.2,0,0,1-.28.24,8.51,8.51,0,0,1,1.48-3.72l.16-.18h0c.37-.57.71-1.16,1.12-1.69A48.28,48.28,0,0,1,196,80.71c1.93-1.6,4-3.07,6-4.6.15-.12.27-.26.41-.39a4.87,4.87,0,0,0-.68.2,36.13,36.13,0,0,0-7.93,5.1,40.73,40.73,0,0,0-7.6,8.08c-.18.25-.35.5-.61.89a4.33,4.33,0,0,1,.07-.53,18.48,18.48,0,0,1,2.58-5.39.08.08,0,0,1,.11,0h0l.14-.27h0c.67-.92,1.31-1.88,2-2.76A57.25,57.25,0,0,1,199,72.84l2.21-1.75h0l-.13,0H201a2,2,0,0,0-.37.1,24.33,24.33,0,0,0-5.45,3.58,52.73,52.73,0,0,0-8,8.53l-.42.5-.1.19-.07,0,.06-.25c.35-1.13.69-2.26,1-3.39a34.27,34.27,0,0,1,12.45-16.7,19.72,19.72,0,0,1,7.76-3.39,10.62,10.62,0,0,1,4.79.13,8,8,0,0,1,5.45,5.16,15.52,15.52,0,0,1,1,5.31c0,.42,0,.84,0,1.26a23.88,23.88,0,0,1-2.19,10.18,28.3,28.3,0,0,1-5.15,7.61l.22-.13,1.48.94A29.68,29.68,0,0,0,220.2,77.4a28.92,28.92,0,0,0,.5-9c-.09-1-.22-2-.33-2.91.72-.57,1.42-1.14,2.12-1.71A4.65,4.65,0,0,0,227,67.55c1.67.08,3.1-.83,3.92-3,.12.16.22.29.31.43a3.58,3.58,0,0,0,5.91.17,6.21,6.21,0,0,0,1.13-2.65l.13-.54a3.87,3.87,0,0,0,3.43.52c1.25-.53,1.54-1.66,1.83-2.86.28.54.56,1.08.85,1.62.08.14.15.29.23.44s.09.17.14.26l.21.42.18.37c.09.2.19.4.27.59l.09.19c.11.24.22.49.32.74v0l.09.23h0l.21.54a.42.42,0,0,0,0,.1c0,.13.09.25.13.37.26.71.48,1.43.67,2.15,0,.15.07.29.11.43s.11.48.16.72l.06.31c0,.09,0,.19.05.28l.09.56a2.51,2.51,0,0,1,0,.27c0,.19,0,.39.08.59s0,.15,0,.22l0,.31v.09a.81.81,0,0,0,0,.16c0,.09,0,.18,0,.27s0,.25,0,.37a1.28,1.28,0,0,1,0,.19c0,.1,0,.2,0,.3v.38c0,.31,0,.62,0,.93a17,17,0,0,1-2.11,7.5,4.28,4.28,0,0,1-.26.38,12.56,12.56,0,0,1-2.08,3,24.12,24.12,0,0,1-2.88,2.84A28.85,28.85,0,0,1,235.86,91a38.29,38.29,0,0,1-12.73,4.26q-1.15.16-2.31.27c.56.36,1.11.72,1.64,1.08a48.19,48.19,0,0,0,8.1-2,8.4,8.4,0,0,1-2,4.71,3.57,3.57,0,0,1-.9.71l1.7,1.13a12.52,12.52,0,0,0,3.09-6.74.82.82,0,0,1,.53-.67c1.31-.61,2.65-1.21,3.92-1.91a30.42,30.42,0,0,0,4-2.59,24.57,24.57,0,0,0,4.9-5c.46-.64.88-1.32,1.28-1.92,1.27-.17,2.5-.28,3.71-.51a19,19,0,0,0,10.58-5.62A21.68,21.68,0,0,0,267,55.52ZM250.07,37.78a7.23,7.23,0,0,1,2-3.59,1.42,1.42,0,0,1,1.36-.49,12,12,0,0,0,1.5,9.64L252,43.16l-2,.36A9.16,9.16,0,0,1,250.07,37.78ZM199.21,61.17a3.73,3.73,0,0,1-1.27,2.09,42.72,42.72,0,0,0-6.78,7.31c-.43.72-.81,1.47-1.3,2.15a29.21,29.21,0,0,0-4.43,9.83q-.3,1.19-.57,2.37a7,7,0,0,1-.73,2,6.69,6.69,0,0,0-.85,3.43,5.21,5.21,0,0,1-.06,1c-.17-.3-.33-.59-.48-.89l-.3-.59c0-.1-.09-.19-.13-.29l-.12-.26-.05-.09a1.6,1.6,0,0,0-.1-.23l-.12-.3c0-.08-.07-.17-.11-.26s-.18-.45-.26-.68l-.09-.27a3,3,0,0,1-.11-.32l-.18-.56-.06-.24c0-.13-.08-.26-.11-.39a1.46,1.46,0,0,1-.05-.2c-.07-.24-.12-.49-.17-.74a1.29,1.29,0,0,1-.05-.21,2.74,2.74,0,0,1,0-.28l-.06-.33c0-.09,0-.19-.05-.28,0-.33-.09-.67-.13-1a1.64,1.64,0,0,0,0-.22c0-.1,0-.2,0-.3s0-.2,0-.29a20.74,20.74,0,0,1,.1-3.69c0-.22.05-.44.09-.66s0-.18,0-.28c0-.26.09-.52.14-.78s.14-.71.22-1.06c.13-.56.29-1.12.46-1.68.06-.19.12-.39.19-.59-.62.42-1.12.72-1.57,1.08a12.52,12.52,0,0,0-4.3,6.82,20.66,20.66,0,0,0-.57,7.22c.08,1,.19,1.93.19,2.94-.37-.67-.76-1.32-1.11-2a20.9,20.9,0,0,1-2.19-9.44,2.34,2.34,0,0,1,0-.26,16,16,0,0,1,3.34-10.21,5.69,5.69,0,0,1,2.92-1.95c.07,0,.12-.1.18-.15-.49-.13-1-.29-1.47-.38a7,7,0,0,0-4.65.86,14,14,0,0,0-4,3.29A23.08,23.08,0,0,0,165,76.32a3.78,3.78,0,0,1-.17.35s0,0-.1,0a25.93,25.93,0,0,1,.43-5.78,14.77,14.77,0,0,1,2.13-5.63l.18-.25.17-.24v0l.17-.22.18-.23c.19-.22.38-.44.58-.64l.2-.2.42-.37a1.68,1.68,0,0,1,.21-.18l.21-.17.18-.13.13-.09.38-.26.19-.12.06,0,.17-.1.07,0,.16-.09.19-.09a7.59,7.59,0,0,1,.82-.37l.13,0,.17-.07.24-.08.23-.07h0l.23-.08.25-.06.23-.06h.05l.21-.05.14,0,.13,0h.06l.19,0,.27,0h0l.29,0a14.27,14.27,0,0,1,4.47.12,4,4,0,0,0-.75-2.08,7.91,7.91,0,0,0-5.1-3.59A11,11,0,0,0,171,54.9h-.25l-.33,0h-.13l-.56,0-.24,0-.15,0h-.1l-.55.13-.11,0-.34.09-.2.07-.24.08-.36.14-.11,0-.23.1-.17.08c-.09,0-.17.08-.26.12l-.25.13-.33.19-.16.09-.18.11a12,12,0,0,0-1.27.92c-.69.56-1.3,1.23-2,1.92a8.84,8.84,0,0,1,.77-3.37,2.77,2.77,0,0,0,.1-.26c.14-.33.29-.65.46-1l.09-.16a.75.75,0,0,1,.07-.12l.12-.21v0l.15-.24a1.63,1.63,0,0,1,.11-.17l.07-.11v0l.29-.4.14-.18.05-.07,0,0,.05-.06a1.83,1.83,0,0,1,.13-.16c.11-.14.22-.27.34-.4l.2-.22.27-.28a3.44,3.44,0,0,1,.27-.27l.56-.52A14,14,0,0,1,175,47.38a11.81,11.81,0,0,1,10.3,4.37c.37.41.68.87,1,1.3.11.13.24.24.36.36,0-1.08,0-2.17-.13-3.24,0-.13,0-.26,0-.39s-.05-.29-.07-.44,0-.09,0-.13a1.16,1.16,0,0,0,0-.18,3.43,3.43,0,0,0-.06-.34s0,0,0-.08l-.06-.26a1.06,1.06,0,0,0,0-.19l-.06-.3-.09-.33-.06-.26-.12-.42,0-.11h0c0-.08,0-.14-.06-.21s-.09-.29-.14-.43-.16-.46-.24-.69l-.07-.18s0-.11-.07-.17-.07-.19-.11-.29h0a1,1,0,0,0,0-.1h0a2,2,0,0,0-.11-.26,2.56,2.56,0,0,0-.11-.24,2.14,2.14,0,0,0-.1-.22v0l-.22-.45v0c-.12-.22-.23-.44-.35-.65a.56.56,0,0,0,0-.08c-.07-.13-.15-.26-.23-.38h0l-.14-.22-.14-.22-.14-.21-.15-.22-.15-.21-.15-.2c-.17-.24-.36-.47-.55-.7l-.29-.34-.55-.6-.14-.14-.26-.25c-.22-.22-.44-.43-.68-.64l-.29-.25-.17-.14-.08-.06-.19-.15a9.74,9.74,0,0,0-6.83-2.27,5.3,5.3,0,0,1,1.77-.6,12.89,12.89,0,0,1,8.36.46,15.19,15.19,0,0,1,7,5.81l.21.31.05.07c.16.25.31.5.46.75a3.21,3.21,0,0,1,.19.31l.16.29s0,.09.08.14.11.2.16.31.26.5.38.75.11.23.16.34l.15.35h0l.15.34.15.37a3.42,3.42,0,0,1,.13.34c.07.16.13.33.19.49l.07.21.13.36c0,.12.07.24.11.36l.09.29.06.2c.06.2.12.4.17.61l.09.32c.07.26.13.53.19.79l.09.37a35.51,35.51,0,0,1,.67,9.81c0,.19-.1.37-.12.57a4.51,4.51,0,0,0,0,.67,1.8,1.8,0,0,0,.26-.42c.22-1,.44-1.93.63-2.91a2.17,2.17,0,0,1,.5-1.1,11.51,11.51,0,0,0,2.4-5.16A11,11,0,0,0,198.4,48a3.84,3.84,0,0,1,0-.42,8.8,8.8,0,0,1,1,2.81A25.4,25.4,0,0,1,199.21,61.17ZM234.1,36.76c.24.39.42.82.66,1.28a7.68,7.68,0,0,0-3.5,1.41c-1.3.83-2.58,1.69-3.91,2.47l-.28.16-.06,0-.33.18h0l-.28.14c-.18.09-.37.18-.57.26l-.29.12A5.71,5.71,0,0,1,225,43l-.22.07a8.19,8.19,0,0,1-.85.23q-.4.09-.81.15l-.28,0-.19,0h-.18l-.19,0h-.56a11.41,11.41,0,0,1-1.16-.06c-.56-.07-1.12-.19-1.69-.24a4.93,4.93,0,0,0,2.56.91l.44,0h.92l.46,0h0l.22,0,.23,0h.08l.15,0,.18,0,.09,0,.15,0a11.2,11.2,0,0,0,1.11-.27l.16-.05c.43-.13.85-.28,1.27-.45l.24-.1.34-.15.81-.39c.8-.42,1.55-.91,2.43-1.43-.07.37-.12.66-.19.95s-.18.66-.29,1l-.06.16a.61.61,0,0,1,0,.12.5.5,0,0,1-.05.13,3.25,3.25,0,0,1-.18.43h0l0,0a.89.89,0,0,1-.08.17s0,0,0,0l-.07.14,0,0a1.74,1.74,0,0,0-.1.19l-.14.25c-.13.22-.27.43-.42.64l-.13.18a1.61,1.61,0,0,1-1.13.71,10.91,10.91,0,0,1-7.18-1.14,10,10,0,0,1-3.34-3l-.09-.07.13,0c.39.06.78.13,1.17.16A5.28,5.28,0,0,0,223,40.41l.21-.25.15-.19,0,0,.11-.16.06-.08,0,0,.13-.19h0l.12-.2,0,0c.05-.08.1-.16.14-.24s.16-.29.23-.44a.37.37,0,0,0,.05-.11l0,0c0-.06,0-.11.07-.17a2.14,2.14,0,0,0,.1-.22l.05-.12a1.46,1.46,0,0,1,.07-.19l0-.09c.06-.18.13-.37.18-.56l0-.18.09-.36.06-.27a1,1,0,0,1,.65-.81,11.64,11.64,0,0,1,4.14-1A4.54,4.54,0,0,1,234.1,36.76Zm-6.44,16.41c.31.11.64.17,1,.28a.87.87,0,0,1,.68.94,3.06,3.06,0,0,1-3.89,3,5.77,5.77,0,0,1-3.3-2.49,15,15,0,0,1-2.22-5.61,11.24,11.24,0,0,1-.23-3.35l.75.45a9.89,9.89,0,0,0,4.47,1.26c.95,0,1.9,0,2.85,0a.74.74,0,0,1,.64.24,1.77,1.77,0,0,0,2,.49c.61-.19,1.2-.45,1.79-.69a1.17,1.17,0,0,1,1.36.07,1.3,1.3,0,0,1,.35,1.39,4,4,0,0,1-2.12,2.73,6.4,6.4,0,0,1-2.64.78,4.19,4.19,0,0,1-2.83-.92,6.42,6.42,0,0,0-.53-.38l0,0A3.25,3.25,0,0,0,227.66,53.17Zm-2.2-21.64c0-.15.08-.3.13-.44.33-.82.92-.93,1.5-.24a5.08,5.08,0,0,1,1,2.48c0,.11-.12.26-.2.4-.11-.08-.16-.09-.17-.12-.27-.72-.27-.72-1.06-.7h-.33s-.07,0-.19-.1l.59-.74C226.26,31.53,226.26,31.53,225.46,31.53Zm-18,8.06a11.5,11.5,0,0,0,.41,3.92,1.51,1.51,0,0,1,0,.52,14,14,0,0,1-.69,3.69,4.94,4.94,0,0,1-.61,1.16,1.16,1.16,0,0,1-1.92.18,4.64,4.64,0,0,1-.88-1.38,10.58,10.58,0,0,1-.82-3.52c-.06-1-.13-2-.11-3a11.62,11.62,0,0,1,.76-4.21,22,22,0,0,1,1.05-2.05c.63-1.13,1.3-2.25,1.92-3.39a10.2,10.2,0,0,0,.41-1l-.07-.08c-1.05,1.16-2.1,2.33-3.16,3.48s-2,2.1-3,3.13a2.57,2.57,0,0,1-1.52.84.59.59,0,0,0,0-.13h0a5,5,0,0,1,.19-2l.06-.23,0-.1a1.72,1.72,0,0,1,.07-.21,1.59,1.59,0,0,1,.07-.2s0-.1.05-.15a.69.69,0,0,0,0-.13l.27-.6.09-.18.11-.22a.75.75,0,0,1,.07-.12l.09-.17.11-.19h0l.14-.23.17-.27.17-.24.09-.13.23-.31.17-.22h0c.18-.24.37-.47.57-.7A24.12,24.12,0,0,1,210.71,25a1.38,1.38,0,0,1,1-.08,11.12,11.12,0,0,0,1.24.2,7.75,7.75,0,0,0-1.47-1.54c-.39-.35-.8-.69-1.17-1.07-.54-.57-.47-1,.23-1.35a7.68,7.68,0,0,1,4-.85h.37l.34.05.24.05h0l.23.05.15,0,.61.2.16.06.19.08h0l.18.08.19.09h0l.18.1.1.06.14.08a.41.41,0,0,1,.11.07l.11.06.44.3.14.11.13.11.13.1,0,0a10.06,10.06,0,0,1,3.14,5.39c.15.57.23,1.14.34,1.73l-.52-.34-.5-.33,0,0-.91-.62a1.33,1.33,0,0,1-.33-.47,6.29,6.29,0,0,0-1.54-2.05,3.07,3.07,0,0,0-3.85-.22,5.79,5.79,0,0,0-2.25,3.25,1.38,1.38,0,0,1-.49.73,8.6,8.6,0,0,0-2.45,3.33A19.23,19.23,0,0,0,207.51,39.59Zm33.61,22a3.05,3.05,0,0,1-2.65-.92,1.56,1.56,0,0,1-.21-.47c-.43-1-.85-2.08-1.3-3.11a5.39,5.39,0,0,0-.47-.74l-.13.07c0,.1,0,.21.09.31a10.91,10.91,0,0,1,.51,5.66,5.15,5.15,0,0,1-.54,1.48,2.08,2.08,0,0,1-3.27.59,10.17,10.17,0,0,1-1.3-1.4c-.49-.58-.95-1.19-1.48-1.85-.21.68-.36,1.25-.56,1.8a5.29,5.29,0,0,1-1.31,2.11,2.4,2.4,0,0,1-3.4.06A6.26,6.26,0,0,1,223.34,62c-.15-.53-.23-1.07-.36-1.7a4.77,4.77,0,0,1-3.35,3.36,12.38,12.38,0,0,0-2.56-3.59L215.36,59c-.63-.19-1.25-.41-1.89-.54s-1.26-.18-2-.27c.16-.24.3-.44.42-.66.47-.87,1-1.72,1.38-2.63a5.29,5.29,0,0,0-.28-4.77c-.46-.82-1-1.61-1.52-2.4a9.34,9.34,0,0,1-1.76-3.87c-.11-.74-.15-1.49-.22-2.23a.12.12,0,0,1,0-.1c0-.1,0-.21,0-.31a16.82,16.82,0,0,1,.87-7.67A6.71,6.71,0,0,1,212.08,31c0,.23,0,.36,0,.49a15.65,15.65,0,0,0,.25,4.21c0,.1.08.2.11.3.05-1.25.05-2.51.17-3.75A9.41,9.41,0,0,1,213.9,28a4.47,4.47,0,0,1,1.39-1.38,2.25,2.25,0,0,1,3.18.48,9.52,9.52,0,0,1,1.39,2.39c.17.39.36.78.54,1.17h0l-.13-2c.43.4.91.71,1.33,1.06l0,0,.21.19.07.07q.14.14.27.3l.1.14.09.14s0,.08.07.13l.06.13,0,.07.05.12a3.08,3.08,0,0,0,.61-1.78c.07-.7.1-1.4.13-2.11a1.68,1.68,0,0,1,2.45-1.48,4.22,4.22,0,0,1,1.36,1.13,12.7,12.7,0,0,1,2.41,6,1.71,1.71,0,0,1,0,.39s0,.09,0,.2l-.74.07-.15-.7a6.49,6.49,0,0,0-1.77-3.55,1.81,1.81,0,0,0-1.43-.57c-.51.05-.8.35-.9,1,.38-.15.6-.63,1.09-.47a1.86,1.86,0,0,1,.92.75c-1,0-1.35.22-1.67,1.17a6.08,6.08,0,0,0,.1,3.51l.1.3c0,.06,0,.11-.08.13a1.57,1.57,0,0,0-.9,1.26h0l-.06.23,0,.13c0,.05,0,.11-.05.17l-.09.3c0,.07-.05.13-.07.2h0a1.22,1.22,0,0,1-.07.17l-.06.16-.1.24-.11.24s0,.11-.08.16l-.08.15c-.06.1-.11.2-.18.3a1.19,1.19,0,0,1-.09.15c-.06.09-.12.19-.19.28a1.71,1.71,0,0,1-.11.14.44.44,0,0,1-.08.11l-.07.09-.12.13-.08.09-.21.22-.1.1-.1.09-.36.3-.14.1-.15.11-.15.1-.16.1a5,5,0,0,1-4.22.4,3.16,3.16,0,0,1,2.52-.79,2.69,2.69,0,0,0-3.47.24,3,3,0,0,0-.77,3.83,4.5,4.5,0,0,1,1.28-3,7.11,7.11,0,0,0,2.79,3.91c-.07,1-.13,1.88-.2,2.79a14.61,14.61,0,0,0,1.21,5.64,8.92,8.92,0,0,0,3,3.78,5.37,5.37,0,0,0,4.58.84,3.63,3.63,0,0,0,1.81-1.24,5.79,5.79,0,0,0,.53-3.52l.62-.17a5.76,5.76,0,0,0,4-3.19A3.36,3.36,0,0,0,235,48a2.06,2.06,0,0,0-2.76-1.48c-.52.19-1,.47-1.5.69a1.57,1.57,0,0,1-1.62,0l.17-.19.13-.15.05-.06.08-.11.15-.2.15-.21.16-.23c.16-.24.32-.49.46-.74s.13-.22.19-.33.25-.47.37-.7l.12-.24q.21-.4.42-.84l1,.91c.48.44.94.87,1.38,1.32a30.62,30.62,0,0,1,5.68,7.6,26.51,26.51,0,0,1,2.26,6,8.1,8.1,0,0,1,.28,1.35A1.13,1.13,0,0,1,241.12,61.55Zm22.75,8.55c-.17.35-.4.68-.6,1l-.08.12a.14.14,0,0,0-.05.08,10.68,10.68,0,0,1-2.61,3.14,25.54,25.54,0,0,1-9.73,5.16,6.24,6.24,0,0,1-2.7.2c.15-.56.28-1.12.4-1.68.08-.41.16-.83.22-1.24a24,24,0,0,0,.28-3.65v-.31c0-.35,0-.7,0-1l0-.43c0-.45-.08-.89-.14-1.34,0-.09,0-.18,0-.28s0-.19-.05-.29c-.06-.4-.14-.8-.22-1.19l-.09-.39c-.1-.4-.2-.81-.32-1.21,0-.11-.06-.22-.1-.33s-.07-.25-.11-.38-.09-.25-.13-.38l-.18-.5-.09-.25c-.09-.25-.19-.5-.29-.75,0-.09-.07-.17-.11-.25s-.11-.26-.16-.38l-.09-.21-.1-.2-.09-.2-.12-.25-.12-.25c-.15-.31-.31-.62-.47-.93l-.2-.36q-.27-.49-.57-1L245,59.9l-.09-.14-.15-.24-.06-.1-.2-.31-.2-.31-.3-.44-.3-.43-.19-.27-.38-.52A5.86,5.86,0,0,0,247.5,57a9.94,9.94,0,0,0,.75,1.53.57.57,0,0,0,.08.13l.08.13.05.06.08.11.06.08.1.11a1.8,1.8,0,0,0,.19.2l.2.19.11.08h0l.08.06.14.09.05,0a3.26,3.26,0,0,0,.73.34l.12,0,.2.05.1,0,.28.06h0l.38.07a5.08,5.08,0,0,0,2.49,7,4.27,4.27,0,0,0,.28,4.18,2.82,2.82,0,0,0,1.47,1.27l.08,0h.05l.25,0h.1l.27,0s-.06-.1-.11-.13c-2.14-1.31-1.42-4.58.63-5.47a1.58,1.58,0,0,1,1.26-.07,2.38,2.38,0,0,0,3.23-1.44.55.55,0,0,0,0-.3,3,3,0,0,1-3,.66A3.5,3.5,0,0,1,256.21,64a2.19,2.19,0,0,0,.23,2,2.58,2.58,0,0,1-3.43-.58,4.31,4.31,0,0,1-.81-4,2,2,0,0,1,.81-1.18A7.79,7.79,0,0,1,257.26,58a18.15,18.15,0,0,1,2.56-.17.81.81,0,0,0,.45-.11l-1.43-.41a10.09,10.09,0,0,0-3.58.39l-.27.09-.41.15-.19.08-.13,0-.11.05-.13.06-.19.09-.14.07-.13.07-.2.11-.2.12-.12.08h0c-.19.13-.39.27-.57.42a1.11,1.11,0,0,1-.85.23,3.28,3.28,0,0,1-2.35-5,5.5,5.5,0,0,1,.64-.82,4.5,4.5,0,0,1,2.23-1.31,12.13,12.13,0,0,1,5.68-.2,1.16,1.16,0,0,0,.64,0c-.25-.16-.5-.33-.76-.47s-.55-.27-.83-.4c-.56-.09-1.12-.22-1.69-.27a8.69,8.69,0,0,0-6.35,1.88A2.8,2.8,0,0,1,246.68,50a3.89,3.89,0,0,1,.87-2.63A5.05,5.05,0,0,1,251.31,45a11.7,11.7,0,0,1,8,1.75l.18.13.14.09.26.19c.22.16.44.33.65.51l.19.16,0,0,.16.15.14.13.13.12c.25.24.49.5.72.76l.07.09.14.16.09.11a8.75,8.75,0,0,1,.58.78l.18.26c.07.11.14.21.2.32l.12.2.23.39.1.21c.15.27.28.54.41.82A20.34,20.34,0,0,1,263.87,70.1ZM177.6,94.52h0Z"/>
        <path class="cls-1" d="M205.69,122.64l-.19,0,.06-.08.14.11Z"/>
        <path class="cls-6" d="M177.6,94.53l.08.06-.07,0v-.09Z"/>
        <path class="cls-7" d="M202.52,58.76l-.06.08,0-.1Z"/>
        <path class="cls-8" d="M188.43,83.76c.67-.92,1.31-1.88,2-2.76A57.76,57.76,0,0,1,199,72.84l2.22-1.76h.12l1.54-1-.05-.13c-.65.17-1.3.32-1.93.52a22.87,22.87,0,0,0-4.25,1.92,23.42,23.42,0,0,0-4.47,3.12A31,31,0,0,0,188.09,80a2,2,0,0,1-.38.32,34.21,34.21,0,0,1,12.45-16.7,19.72,19.72,0,0,1,7.76-3.39,10.62,10.62,0,0,1,4.79.13,8,8,0,0,1,5.45,5.16,15.52,15.52,0,0,1,1,5.31c0,.42,0,.84,0,1.25a6,6,0,0,0-.38.87,35,35,0,0,1-2.27,5.81c-.74,1.52-1.56,3-2.37,4.49a18.1,18.1,0,0,1-2.79,3.82,43.35,43.35,0,0,1-3.38,3.26c-1.29,1.11-2.66,2.15-4.05,3.14a55,55,0,0,1-8.8,5c-.88.41-1.76.81-2.65,1.17a62.79,62.79,0,0,1-7.27,2.46,10.56,10.56,0,0,1-3.61.6c.26-.26.51-.54.79-.78a45.85,45.85,0,0,1,7-4.74c3.2-1.81,6.45-3.52,9.67-5.27a4.84,4.84,0,0,0,.46-.33,5.33,5.33,0,0,0,.83-.24q1.8-.9,3.57-1.83a2.08,2.08,0,0,0,.34-.24,8.29,8.29,0,0,0-1.73,0c-1.19.13-2.39.24-3.57.41a29.45,29.45,0,0,0-5.64,1.4c-1.39.48-2.72,1.08-4.09,1.62-.12,0-.28.29-.43,0a58.11,58.11,0,0,1,6.36-4.93l5.17-3.55a3.58,3.58,0,0,0,.29-.26h0l.12-.15a3,3,0,0,0,.53-.19,4.23,4.23,0,0,0,.4-.34l4.07-2.56c.14-.08.27-.18.52-.35h-.73a1.1,1.1,0,0,0-.26,0,30.61,30.61,0,0,0-6.27,1.89,37.62,37.62,0,0,0-7.2,4.22c-1.41,1-2.71,2.23-4.06,3.35a1.81,1.81,0,0,1-.4.18c.37-.57.71-1.16,1.12-1.69A48.7,48.7,0,0,1,196,80.71c1.93-1.6,4-3.07,6-4.61a4.86,4.86,0,0,0,.41-.38,4.43,4.43,0,0,0,.74-.31c.45-.28.87-.6,1.29-.91a3,3,0,0,0,.33-.29,3.47,3.47,0,0,0-1.24,0,15.15,15.15,0,0,0-3.88,1.41,36.78,36.78,0,0,0-5,3,40.52,40.52,0,0,0-4.43,3.63c-.42.42-.83.85-1.27,1.25A2,2,0,0,1,188.43,83.76Z"/>
        <path class="cls-9" d="M165.17,70.94a14.77,14.77,0,0,1,2.13-5.63,10.19,10.19,0,0,1,7.54-4.57,14.27,14.27,0,0,1,4.47.12,10.67,10.67,0,0,1,4.6,2.64c0-.11.06-.17.05-.22a26.7,26.7,0,0,0-1.37-5A9.89,9.89,0,0,0,179,53.86a10.47,10.47,0,0,0-4.83-1.58,13.34,13.34,0,0,0-5.7.72,14.82,14.82,0,0,0-4.95,2.94s-.16,0-.24,0a12.46,12.46,0,0,1,3.53-4.89A14,14,0,0,1,175,47.38a11.83,11.83,0,0,1,10.31,4.37c.36.41.67.87,1,1.3.11.13.24.24.36.36l1.68,4.64a3.51,3.51,0,0,0,.18-.51c.23-1.45.51-2.89.65-4.34a19.77,19.77,0,0,0-.28-4.92,20.86,20.86,0,0,0-1.15-4.3,13.39,13.39,0,0,0-4.08-5.89A13.55,13.55,0,0,0,175.36,35a2.59,2.59,0,0,1-.54-.11,12.89,12.89,0,0,1,8.36.46,15.25,15.25,0,0,1,7,5.81,24.2,24.2,0,0,1,3.62,8.67,35.51,35.51,0,0,1,.67,9.81c0,.19-.1.38-.12.57a4.51,4.51,0,0,0,0,.67,1.8,1.8,0,0,0,.26-.42c.22-1,.44-1.93.63-2.91a2.17,2.17,0,0,1,.5-1.1,11.56,11.56,0,0,0,2.4-5.16A11.05,11.05,0,0,0,198.4,48a3.84,3.84,0,0,1,0-.42,8.8,8.8,0,0,1,1,2.81,25.4,25.4,0,0,1-.21,10.77,3.76,3.76,0,0,1-1.27,2.09,42.72,42.72,0,0,0-6.78,7.31,5.26,5.26,0,0,0-2.39.29c-.72.23-1.44.5-2.15.75h0c.26-.37.51-.75.79-1.1s.63-.77.94-1.15c-.08-.06-.11-.11-.15-.11a14.89,14.89,0,0,0-4.51.31,23.41,23.41,0,0,0-5.7,2.33,11,11,0,0,0-3,2.57,16.87,16.87,0,0,0-2.63,4.68c-.07.18.07.48-.26.54a16,16,0,0,1,3.34-10.21,5.69,5.69,0,0,1,2.92-1.95c.07,0,.12-.1.18-.15l5.21-.81a9,9,0,0,0-1.68-1.18,12.61,12.61,0,0,0-4.6-1.48,14,14,0,0,0-4.39.11,9,9,0,0,0-4.49,2.51,17.17,17.17,0,0,0-3.06,4A2.86,2.86,0,0,1,165.17,70.94Z"/>
        <path class="cls-7" d="M244.54,61.26a24.31,24.31,0,0,1,3.29,12.81,17.16,17.16,0,0,1-2.1,7.5c-.08.13-.18.25-.27.38a4.32,4.32,0,0,0-.53.34c-.54.45-1.05.93-1.6,1.37a47.82,47.82,0,0,1-5.47,3.66,20.76,20.76,0,0,1-4.49,2,24.24,24.24,0,0,1-5.12,1.11c-1.42.12-2.83.3-4.25.36-1,0-2-.06-3-.12-.36,0-.72-.12-1.13-.19.08-.21.13-.37.2-.53.23-.47.48-.94.71-1.41.59-1.25,1.26-2.48,1.75-3.77a19.61,19.61,0,0,0,1.09-4.91c.18-1.55.41-3.09.5-4.63.12-1.87.11-3.74.16-5.61,0-.24,0-.49,0-.77l.4.15a8.84,8.84,0,0,0,4.23.44,3.39,3.39,0,0,0,2.68-1.8,2.33,2.33,0,0,1,.27.13,5.24,5.24,0,0,0,3.88.58,3.33,3.33,0,0,0,2.54-2.29c.07.08.15.14.16.22a24.17,24.17,0,0,1,.65,3.33,27.37,27.37,0,0,1-.11,4.15,10.75,10.75,0,0,1-2.2,5.55c-.28.39-.57.77-.85,1.15l-.18.06,0,.08.16-.12a2.32,2.32,0,0,0,.38-.07,10.77,10.77,0,0,0,4.54-2.93,7.16,7.16,0,0,0,2-4.75c0-.74.05-1.47,0-2.22a14.42,14.42,0,0,0-.76-4.17,22.9,22.9,0,0,0-.94-2.1l.16-.06a3.43,3.43,0,0,0,2.39-1.09,2.11,2.11,0,0,0,.72-1.5A1.11,1.11,0,0,1,244.54,61.26Z"/>
        <path class="cls-10" d="M244.93,82.29c-.54.45-1.05.93-1.6,1.37l-.29.23-.11.08-.48.36-.34.25-.28.2-.07,0-.33.23-.34.23-.67.45-.32.2L240,86l0,0-.43.27-.42.27-.22.13-.35.21-.36.22-.35.21a20.76,20.76,0,0,1-4.49,2,24.24,24.24,0,0,1-5.12,1.11c-1.42.12-2.83.3-4.25.36-1,0-2-.06-3-.12a10.66,10.66,0,0,1-1.13-.19c.08-.21.13-.37.2-.53.23-.47.48-.94.71-1.41.6-1.25,1.26-2.48,1.75-3.77a19.61,19.61,0,0,0,1.09-4.91c.18-1.55.41-3.09.5-4.63.12-1.87.11-3.74.16-5.61,0-.24,0-.48,0-.77l.4.15a8.84,8.84,0,0,0,4.23.44,3.39,3.39,0,0,0,2.68-1.8,2.33,2.33,0,0,1,.27.13,5.26,5.26,0,0,0,3.89.58,3.34,3.34,0,0,0,2.53-2.29c.07.08.15.14.16.22a24.17,24.17,0,0,1,.65,3.33c0,.08,0,.16,0,.24h0a2.18,2.18,0,0,1,0,.25,1.77,1.77,0,0,1,0,.23v.21c0,.11,0,.21,0,.31,0,1-.07,2-.15,2.91a.76.76,0,0,1,0,.15s0,.08,0,.12l0,.22h0l0,.16,0,.17a1.7,1.7,0,0,1,0,.22l-.06.29-.06.25h0a0,0,0,0,0,0,0l-.06.22-.07.25-.05.14a.88.88,0,0,1-.05.15.19.19,0,0,0,0,.07l-.12.31-.06.15-.09.22c0,.06,0,.12-.08.19l-.07.15-.07.14-.11.21a2,2,0,0,1-.11.2h0c-.11.21-.22.41-.34.61l0,0-.09.15-.09.13-.1.15a.36.36,0,0,1-.07.1.35.35,0,0,1,0,.08l-.06.08-.15.21c-.28.39-.57.77-.85,1.15l0,0a2.32,2.32,0,0,0,.38-.07l.3-.11.23-.08h0l.18-.08.19-.08.11,0,.22-.1.23-.11.14-.08h0l.14-.07h0l.12-.07.18-.1.18-.11.3-.19a.05.05,0,0,1,0,0l0,0,.16-.11.27-.2.2-.15.22-.17.11-.1c.14-.12.28-.24.41-.37l.14-.13,0,0c.05-.05.11-.1.16-.16l.21-.22a7.16,7.16,0,0,0,2-4.75c0-.74.05-1.47,0-2.22,0-.17,0-.35,0-.53a2.64,2.64,0,0,0,0-.29l0-.28,0-.23,0-.26,0-.17a.5.5,0,0,0,0-.12l0-.21,0-.14a.29.29,0,0,0,0-.09l0-.18c0-.07,0-.14-.05-.21l-.09-.4-.06-.21c0-.06,0-.12-.05-.18s0-.13-.05-.19,0-.16-.07-.23l-.09-.26c-.24-.71-.62-1.38-.94-2.09.05,0,.1,0,.16,0a3.48,3.48,0,0,0,2.39-1.1,2.09,2.09,0,0,0,.72-1.5,1.11,1.11,0,0,1,.14-.34c-.29-.54-.57-1.08-.85-1.62-.29,1.2-.58,2.33-1.83,2.86a3.87,3.87,0,0,1-3.43-.52l-.13.54a6.21,6.21,0,0,1-1.13,2.65,3.58,3.58,0,0,1-5.91-.17c-.09-.14-.19-.27-.31-.43-.82,2.15-2.25,3.06-3.92,3a4.65,4.65,0,0,1-4.54-3.72c-.7.57-1.4,1.14-2.12,1.71.11.95.24,1.93.33,2.91a28.92,28.92,0,0,1-.5,9,29.68,29.68,0,0,1-6.72,13.32l.3.2c2.48,1.59,4.83,3.12,7,4.57q1.16-.1,2.31-.27A38.29,38.29,0,0,0,235.86,91a28.85,28.85,0,0,0,4.64-3.14A24.12,24.12,0,0,0,243.38,85a12.56,12.56,0,0,0,2.08-3A4.32,4.32,0,0,0,244.93,82.29Zm-5.24-17.93a.35.35,0,0,1,.05.08h0v0h0a0,0,0,0,0,0,0l.07.07,0,0,.14.13.11.12a.69.69,0,0,1,.11.13l.05.06.08.1s0,0,0,0l0,.07,0,0,.17.28.09.17a.3.3,0,0,1,0,.08l.08.15h0l.09.2h0l.08.2a4,4,0,0,1,.15.45c.06.17.11.35.16.52l0,.18,0,.15a2.5,2.5,0,0,1,.07.26s0,0,0,0,0,.22.07.33h0a1.42,1.42,0,0,1,0,.2,1.57,1.57,0,0,1,0,.23.29.29,0,0,1,0,.09c0,.08,0,.16,0,.25a.77.77,0,0,1,0,.15,1.87,1.87,0,0,0,0,.25c0,.06,0,.11,0,.16a.28.28,0,0,1,0,.09,1.23,1.23,0,0,1,0,.2c0,.11,0,.23,0,.34a1.7,1.7,0,0,1,0,.22,11.17,11.17,0,0,1-.23,2.83c0,.18-.08.36-.12.54l-.09.34,0,.08-.09.29a11.43,11.43,0,0,1-.56,1.43l-.15.31-.2.37a3.47,3.47,0,0,1-.21.37,1.18,1.18,0,0,1-.11.19l-.15.24-.13.18-.14.19-.15.18a3.65,3.65,0,0,1-.31.36l-.16.16q-.17.17-.33.3l-.11.09,0,0-.1.08-.31.22-.13.08a4.88,4.88,0,0,1-.55.31l-.15,0,.08-.12c.19-.32.38-.64.58-1v0c.07-.1.13-.21.2-.32l.18-.3.22-.39.15-.26.2-.37c0-.1.1-.21.16-.31l.15-.32c.16-.35.31-.71.44-1.06l.09-.25.09-.25c.11-.33.21-.67.3-1l.06-.23c.05-.19.09-.39.13-.59s.05-.23.07-.35v0c0-.11,0-.22.05-.33v0c0-.09,0-.19,0-.29v-.12c0-.11,0-.21,0-.31s0-.21,0-.31,0-.2,0-.29a1.09,1.09,0,0,0,0-.18,1.93,1.93,0,0,0,0-.24v-.13c0-.1,0-.2,0-.3s0-.22,0-.33,0-.23,0-.35,0-.19,0-.29a.34.34,0,0,1,0-.1c0-.1,0-.2,0-.3l0-.16,0-.26c0-.12,0-.23,0-.34a.13.13,0,0,0,0-.06c0-.1,0-.21,0-.32a.36.36,0,0,1,0-.11c0-.07,0-.15,0-.23l0-.13,0-.18-.06-.28c0-.07,0-.14,0-.21l0-.12-.1-.4-.06-.2-.05-.21a7.71,7.71,0,0,1-.18-1h-.1A.31.31,0,0,1,239.69,64.36Z"/>
        <path class="cls-11" d="M249.9,53.56a4.5,4.5,0,0,1,2.23-1.31,12.13,12.13,0,0,1,5.68-.2,1.16,1.16,0,0,0,.64,0c-.25-.16-.5-.33-.76-.47s-.55-.27-.83-.4a1.72,1.72,0,0,0-1.15-.88,9.72,9.72,0,0,0-2.27-.63,4.93,4.93,0,0,0-3.32.49.94.94,0,0,1-.68.05,1.32,1.32,0,0,1-.86-.68l-1-2.19A5,5,0,0,1,251.31,45a11.7,11.7,0,0,1,8,1.75,13,13,0,0,1,4.71,5.6,20.37,20.37,0,0,1-.12,17.71c-.17.35-.4.68-.6,1l-.08.11a.2.2,0,0,0-.05.09c-.23-.23-.41,0-.58.09a6.25,6.25,0,0,1-2.64.73,1.22,1.22,0,0,1-1.22-1.21,4.11,4.11,0,0,1,.39-1.85,1.26,1.26,0,0,1,1.13-.81,2.34,2.34,0,0,0,2.1-1.72,4.35,4.35,0,0,0-.15-3.09,3.9,3.9,0,0,1-.59.78,3.24,3.24,0,0,1-4.71-.57,16.11,16.11,0,0,1-.91-1.81,4,4,0,0,0-.89,2.16,2.35,2.35,0,0,1-1.93-2.11c-.08-.56-.09-1.13-.13-1.7A7.79,7.79,0,0,1,257.26,58a18.15,18.15,0,0,1,2.56-.17.81.81,0,0,0,.45-.11l-1.43-.41c0-.07-.1-.18-.17-.2a22.17,22.17,0,0,0-2.54-.57,4.43,4.43,0,0,0-2.68.54,1.48,1.48,0,0,1-2.19-.5.43.43,0,0,0-.09-.1,3.27,3.27,0,0,1-1.1-2.45A1.38,1.38,0,0,0,249.9,53.56Z"/>
        <path class="cls-12" d="M253,60.21c0,.57.05,1.14.13,1.7A2.35,2.35,0,0,0,255.07,64a4,4,0,0,1,.89-2.16,16.11,16.11,0,0,0,.91,1.81,3.24,3.24,0,0,0,4.71.57,3.9,3.9,0,0,0,.59-.78,4.35,4.35,0,0,1,.15,3.09,2.34,2.34,0,0,1-2.1,1.72,1.26,1.26,0,0,0-1.13.81,4.11,4.11,0,0,0-.39,1.85,1.22,1.22,0,0,0,1.22,1.21,6.25,6.25,0,0,0,2.64-.73c.17-.08.35-.32.58-.09a10.68,10.68,0,0,1-2.61,3.14,25.54,25.54,0,0,1-9.73,5.16,6.24,6.24,0,0,1-2.7.2c2.28-8.38.12-15.81-5-22.68A5.86,5.86,0,0,0,247.5,57c.95,2.33,1.78,3.08,3.82,3.4a5.08,5.08,0,0,0,2.49,7,4.29,4.29,0,0,0,.28,4.18,2.82,2.82,0,0,0,1.47,1.27,3.25,3.25,0,0,0,.77.11l.09.06-.11,0a.56.56,0,0,0-.1-.15c-2.15-1.31-1.43-4.58.62-5.47a1.58,1.58,0,0,1,1.26-.07,2.38,2.38,0,0,0,3.23-1.44.55.55,0,0,0,0-.3,3,3,0,0,1-3,.66A3.5,3.5,0,0,1,256.21,64a2.2,2.2,0,0,0,.23,2,2.57,2.57,0,0,1-3.42-.58,4.29,4.29,0,0,1-.82-4A2,2,0,0,1,253,60.21Z"/>
        <path class="cls-10" d="M172.11,79.67c.33-.06.19-.36.26-.54A16.87,16.87,0,0,1,175,74.45a11,11,0,0,1,3-2.57,23.41,23.41,0,0,1,5.7-2.33,14.89,14.89,0,0,1,4.51-.31s.07.05.15.11c-.31.38-.64.76-.94,1.15s-.53.73-.79,1.1l-.19.05,0,.08.16-.12c.71-.25,1.43-.52,2.15-.75a5.26,5.26,0,0,1,2.39-.29c-.43.72-.81,1.47-1.3,2.15a28.91,28.91,0,0,0-4.42,9.83c-.2.79-.4,1.58-.58,2.37a7,7,0,0,1-.73,2,6.69,6.69,0,0,0-.85,3.43,5.21,5.21,0,0,1-.06,1,21.14,21.14,0,0,1-1.6-18c-.62.42-1.12.72-1.57,1.08a12.52,12.52,0,0,0-4.3,6.82,20.66,20.66,0,0,0-.57,7.22c.09,1,.19,1.93.19,2.94-.37-.67-.76-1.32-1.11-2a20.9,20.9,0,0,1-2.19-9.44A2.34,2.34,0,0,1,172.11,79.67Z"/>
        <path class="cls-13" d="M207,30.36c-1.05,1.16-2.1,2.33-3.16,3.48s-2,2.1-3,3.13a2.6,2.6,0,0,1-1.52.84,4.69,4.69,0,0,1,.17-2.14,11.92,11.92,0,0,1,2.63-4.61A24.12,24.12,0,0,1,210.71,25a1.33,1.33,0,0,1,1-.08,11.12,11.12,0,0,0,1.24.2,7.75,7.75,0,0,0-1.47-1.54c-.39-.35-.8-.69-1.17-1.07-.54-.57-.47-1,.23-1.35a7.21,7.21,0,0,1,8.21.92,10.06,10.06,0,0,1,3.14,5.39c.15.57.23,1.14.34,1.73-.71-.47-1.35-.88-2-1.32a1.24,1.24,0,0,1-.34-.47,6.4,6.4,0,0,0-1.53-2.05,3.09,3.09,0,0,0-3.86-.22,5.79,5.79,0,0,0-2.25,3.25,1.34,1.34,0,0,1-.5.73,8.68,8.68,0,0,0-2.44,3.33,19.23,19.23,0,0,0-1.79,7.19,11.5,11.5,0,0,0,.41,3.92,1.51,1.51,0,0,1,0,.52,14,14,0,0,1-.69,3.69,4.94,4.94,0,0,1-.61,1.16,1.16,1.16,0,0,1-1.92.18,4.64,4.64,0,0,1-.88-1.38,10.58,10.58,0,0,1-.82-3.52c-.06-1-.13-2-.11-3a11.83,11.83,0,0,1,.75-4.21c.3-.7.69-1.37,1.06-2.05.63-1.13,1.3-2.25,1.92-3.39a10.2,10.2,0,0,0,.41-1l.05-.15Zm14.46-2.62,0,.31.09,0-.13-.28a9.41,9.41,0,0,0-.23-.95,12.91,12.91,0,0,0-2.11-3.62,6.26,6.26,0,0,0-6.23-2.26,13.15,13.15,0,0,0-1.71.47c-.23.07-.47.25-.27.46a4.31,4.31,0,0,0,1.12.88c.17.1.49,0,.73-.11a5.84,5.84,0,0,1,4.83.4,6.94,6.94,0,0,1,2.29,2.25C220.43,26.07,220.94,26.91,221.46,27.74Zm-20.67,7.73.15.12a1.83,1.83,0,0,1,.13-.24c.7-1,1.37-1.93,2.12-2.85A17.47,17.47,0,0,1,206,29.72a40.18,40.18,0,0,1,5-3.16,2.78,2.78,0,0,0,.93-1,1,1,0,0,0-1.16-.11A33.37,33.37,0,0,0,206.57,28a18.16,18.16,0,0,0-4.74,5A7.46,7.46,0,0,0,200.79,35.47Zm-.09.28,0,0v-.05Z"/>
        <path class="cls-14" d="M212.44,36c.05-1.25.05-2.51.17-3.75A9.41,9.41,0,0,1,213.9,28a4.47,4.47,0,0,1,1.39-1.38,2.25,2.25,0,0,1,3.18.48,9.52,9.52,0,0,1,1.39,2.39c.17.39.36.78.54,1.17l0,.31.08,0-.12-.3-.13-2c.87.8,1.9,1.23,2.3,2.37a3.08,3.08,0,0,0,.61-1.78c.07-.7.1-1.4.13-2.11a1.68,1.68,0,0,1,2.45-1.48,4.22,4.22,0,0,1,1.36,1.13,12.81,12.81,0,0,1,2.42,6,2.55,2.55,0,0,1,0,.39c0,.05,0,.09,0,.2l-.74.07-.15-.7a6.49,6.49,0,0,0-1.77-3.55,1.81,1.81,0,0,0-1.43-.57c-.51.05-.8.35-.9,1,.38-.15.6-.63,1.09-.47a1.86,1.86,0,0,1,.92.75c-1,0-1.35.22-1.67,1.17a6,6,0,0,0,.1,3.51c0,.1.07.21.09.3s0,.11-.07.13a1.57,1.57,0,0,0-.9,1.26A6.88,6.88,0,0,1,221,40.86a5,5,0,0,1-4.22.4,3.16,3.16,0,0,1,2.52-.79,2.69,2.69,0,0,0-3.47.24,3,3,0,0,0-.77,3.83,4.5,4.5,0,0,1,1.28-3,7.11,7.11,0,0,0,2.79,3.91l-.2,2.79-.73-.16-.61-.23a10.76,10.76,0,0,1-3-1.54,4,4,0,0,1-1.52-2c0-.24,0-.48,0-.72a4.65,4.65,0,0,1,3.5-4.46,7.71,7.71,0,0,1,4.1,0l.69.18.07-.12-1.11-.84a4,4,0,0,0-3.7-6.38c.66-.77,1.53-.66,2.39-.68a2.32,2.32,0,0,0-.7-.45,2.56,2.56,0,0,0-2.63.62,6.15,6.15,0,0,0-1.54,6.77c.11.24.25.46.37.69l-.75.59A10.83,10.83,0,0,1,212.44,36Zm15.77-6.12.06.21.08,0-.1-.22a1.09,1.09,0,0,0,0-.26,8.44,8.44,0,0,0-1.82-3,2.78,2.78,0,0,0-1-.61,1.11,1.11,0,0,0-1.59.72,3.66,3.66,0,0,0,0,1.83c.22-.38.35-.77.56-1.11a.87.87,0,0,1,1.14-.39,2,2,0,0,1,.68.39,11.87,11.87,0,0,1,1,1.11C227.57,28.94,227.88,29.41,228.21,29.88Zm-15,2.39.14,0a3,3,0,0,1,.17-.41,8.61,8.61,0,0,1,2.15-3.21,1.9,1.9,0,0,1,2.08-.41A9.76,9.76,0,0,1,219,29l.32.17.12-.14a16.11,16.11,0,0,0-1-1.41,1.86,1.86,0,0,0-2.66-.3C213.94,28.52,213.56,30.39,213.22,32.27Zm11.24-2.33a.28.28,0,0,0,0-.12s0,0-.07-.07a.56.56,0,0,0,0,.12S224.44,29.92,224.46,29.94Zm-5-.6s0,0,0,.05l0,.05s0,0,0-.05S219.43,29.36,219.42,29.34Zm-6.23,3.21,0,0h0Zm6.12-1.16,0,0s0,0,0,0,0,0,0,0Z"/>
        <path class="cls-12" d="M218.2,48.1l.73.16a14.61,14.61,0,0,0,1.21,5.64,8.92,8.92,0,0,0,3,3.78,5.37,5.37,0,0,0,4.58.84,3.63,3.63,0,0,0,1.81-1.24c.31.33.65.63,1,1,.82,1,1.61,2,2.44,2.93a4.64,4.64,0,0,0,1.84,1.56c.48.17.68.11,1-.29a1.38,1.38,0,0,0,.21-.48,11.72,11.72,0,0,0,.24-1.68,9.78,9.78,0,0,0-.11-1.7c-.1-.82-.23-1.64-.38-2.45-.09-.54-.25-1.07-.39-1.6l.12-.07c.47.36.94.71,1.38,1.09a11.76,11.76,0,0,1,2,2.43,2.21,2.21,0,0,0,2.66,1c.13,0,.26,0,.39,0a8.1,8.1,0,0,1,.28,1.35,1.13,1.13,0,0,1-1,1.2,3.05,3.05,0,0,1-2.65-.92,1.56,1.56,0,0,1-.21-.47c-.43-1-.85-2.08-1.29-3.11a6.66,6.66,0,0,0-.48-.74l-.13.07c0,.1,0,.21.09.31a10.91,10.91,0,0,1,.51,5.66,5.15,5.15,0,0,1-.54,1.48,2.08,2.08,0,0,1-3.27.59,10.17,10.17,0,0,1-1.3-1.4c-.49-.58-.95-1.19-1.48-1.85-.21.68-.36,1.25-.56,1.8a5.18,5.18,0,0,1-1.31,2.11,2.4,2.4,0,0,1-3.4.06A6.26,6.26,0,0,1,223.34,62c-.15-.53-.23-1.07-.36-1.71a4.77,4.77,0,0,1-3.35,3.37,12.38,12.38,0,0,0-2.56-3.59l.58.07a4.9,4.9,0,0,0,2.22-.1,3.19,3.19,0,0,0,2-1.7.54.54,0,0,0-.1-.7,16.27,16.27,0,0,1-2.59-3.87A9.85,9.85,0,0,1,218.2,48.1Z"/>
        <path class="cls-12" d="M219.12,72.12a23.88,23.88,0,0,1-2.19,10.18,28.3,28.3,0,0,1-5.15,7.61l-1.57,1c-6.06,3.88-11.35,7.39-15.75,10.32a54,54,0,0,1-9,2.76,17.92,17.92,0,0,1-4.13.47c-.31,0-.6-.07-.95-.1a3.61,3.61,0,0,1,1.21-1.63,10.56,10.56,0,0,0,3.61-.6,62.79,62.79,0,0,0,7.27-2.46c.89-.36,1.77-.76,2.65-1.17a55,55,0,0,0,8.8-5c1.39-1,2.76-2,4.05-3.15a41.47,41.47,0,0,0,3.38-3.25,18.1,18.1,0,0,0,2.79-3.82c.81-1.49,1.63-3,2.37-4.49A35,35,0,0,0,218.74,73,5.49,5.49,0,0,1,219.12,72.12Z"/>
        <path class="cls-15" d="M241.84,59c-.13,0-.26,0-.39,0a2.21,2.21,0,0,1-2.66-1,11.76,11.76,0,0,0-2-2.43c-.44-.38-.91-.73-1.38-1.09l-.12.07c.14.53.3,1.06.39,1.6.15.81.28,1.63.38,2.45a9.78,9.78,0,0,1,.11,1.7,11.72,11.72,0,0,1-.24,1.68,1.38,1.38,0,0,1-.21.48c-.28.4-.48.46-1,.29a4.64,4.64,0,0,1-1.84-1.56c-.83-1-1.62-2-2.44-2.93-.3-.35-.64-.65-1-1a5.79,5.79,0,0,0,.53-3.52l.62-.17a5.76,5.76,0,0,0,4-3.19A3.36,3.36,0,0,0,235,48a2.06,2.06,0,0,0-2.76-1.48c-.52.19-1,.47-1.5.69a1.57,1.57,0,0,1-1.62,0,16.7,16.7,0,0,0,2.45-4c.82.78,1.6,1.49,2.34,2.23a30.62,30.62,0,0,1,5.68,7.6A26.51,26.51,0,0,1,241.84,59Z"/>
        <path class="cls-9" d="M218.2,48.1a9.85,9.85,0,0,0,1,5.69,16.27,16.27,0,0,0,2.59,3.87.54.54,0,0,1,.1.7,3.19,3.19,0,0,1-2,1.7,4.9,4.9,0,0,1-2.22.1l-.58-.07L215.36,59c.1-.81.24-1.61.29-2.41a17.38,17.38,0,0,0,.08-3.22A12.15,12.15,0,0,0,213,47.3,24.09,24.09,0,0,1,211.2,45a29.62,29.62,0,0,1-1.36-2.77c-.1-.21-.21-.41-.32-.61a.12.12,0,0,1,0-.1l0-.31a16.82,16.82,0,0,1,.87-7.67A6.71,6.71,0,0,1,212.08,31c0,.23,0,.36,0,.49a16,16,0,0,0,.25,4.21c0,.1.08.2.11.3a10.83,10.83,0,0,0,1.38,3.48,4.56,4.56,0,0,0-.72,4.83,4,4,0,0,0,1.52,2,10.76,10.76,0,0,0,3,1.54Z"/>
        <path class="cls-16" d="M217.25,42.16c.39.06.78.13,1.17.16A5.28,5.28,0,0,0,223,40.41a9,9,0,0,0,2-4.18,1,1,0,0,1,.65-.81,11.64,11.64,0,0,1,4.14-1,4.56,4.56,0,0,1,4.28,2.38c.24.39.42.82.66,1.28a7.59,7.59,0,0,0-3.49,1.41c-1.31.83-2.59,1.69-3.92,2.47a10.9,10.9,0,0,1-6.84,1.59c-.56-.07-1.12-.19-1.69-.24a4.93,4.93,0,0,0,2.56.91,12.32,12.32,0,0,0,6.87-1.55c.8-.41,1.55-.91,2.43-1.43-.07.37-.12.66-.19.95a9.84,9.84,0,0,1-1.63,3.52,1.61,1.61,0,0,1-1.13.71,10.91,10.91,0,0,1-7.18-1.14,10,10,0,0,1-3.34-3Zm8.7-4.44c.53-.38.71-.61.78-.93s0-.49-.26-.58-.48.09-.51.43S226,37.29,226,37.72Z"/>
        <path class="cls-13" d="M225.69,51.35a3.25,3.25,0,0,0,2,1.82c.31.12.64.17,1,.28a.87.87,0,0,1,.68.94,3.06,3.06,0,0,1-3.89,3,5.77,5.77,0,0,1-3.3-2.49,15,15,0,0,1-2.22-5.61,11.24,11.24,0,0,1-.23-3.35l.75.45a9.89,9.89,0,0,0,4.47,1.26c.95,0,1.9,0,2.85,0a.74.74,0,0,1,.64.24,1.77,1.77,0,0,0,2,.49c.61-.19,1.2-.45,1.79-.7a1.19,1.19,0,0,1,1.36.08,1.3,1.3,0,0,1,.35,1.39,4,4,0,0,1-2.12,2.73,6.4,6.4,0,0,1-2.64.78,4.19,4.19,0,0,1-2.83-.92,6.42,6.42,0,0,0-.53-.38l-.14-.22-.08,0Zm2-2.93-.08-.05.09,0a1.54,1.54,0,0,0,.81,1.06,5.24,5.24,0,0,0,2.19.84c.5.09,1,.19,1.11.83a2.46,2.46,0,0,0,1.33-2.34c0-.64-.36-.86-1-.66a5.28,5.28,0,0,0-.6.27A3.75,3.75,0,0,1,227.69,48.42Zm-3.69.33h-.12a4.28,4.28,0,0,1-.06.72,4.76,4.76,0,0,0,.12,2.4,4.61,4.61,0,0,0,1.9,2.62,1.94,1.94,0,0,1,.93,1.84,1.07,1.07,0,0,0,0,.25,1.71,1.71,0,0,0,1.78-1.19c.39-.83.24-1.22-.59-1.53l-.19,0A4.6,4.6,0,0,1,224.74,51l-.24-.69C224.33,49.77,224.17,49.26,224,48.75Z"/>
        <path class="cls-10" d="M163.26,55.94c.08,0,.2,0,.24,0A14.82,14.82,0,0,1,168.45,53a13.34,13.34,0,0,1,5.7-.72A10.47,10.47,0,0,1,179,53.86a9.89,9.89,0,0,1,3.61,4.43,26.7,26.7,0,0,1,1.37,5s0,.11-.05.22a10.67,10.67,0,0,0-4.6-2.64,4.06,4.06,0,0,0-.74-2.08,8,8,0,0,0-5.11-3.59,9.94,9.94,0,0,0-9,2.2c-.69.56-1.3,1.23-2,1.92A8.84,8.84,0,0,1,163.26,55.94Z"/>
        <path class="cls-10" d="M165.17,70.94a2.86,2.86,0,0,0,.37-.41,17.17,17.17,0,0,1,3.06-4A9,9,0,0,1,173.09,64a14,14,0,0,1,4.39-.11,12.61,12.61,0,0,1,4.6,1.48,9,9,0,0,1,1.68,1.18l-5.21.81c-.49-.13-1-.29-1.47-.38a7,7,0,0,0-4.65.86,13.91,13.91,0,0,0-4,3.29A23.08,23.08,0,0,0,165,76.32a3.78,3.78,0,0,1-.17.35s0,0-.1,0A26.49,26.49,0,0,1,165.17,70.94Z"/>
        <path class="cls-10" d="M174.82,34.9a2.59,2.59,0,0,0,.54.11,13.55,13.55,0,0,1,8.37,3.08A13.39,13.39,0,0,1,187.81,44a20.86,20.86,0,0,1,1.15,4.3,19.77,19.77,0,0,1,.28,4.92c-.14,1.45-.42,2.89-.65,4.34a3.51,3.51,0,0,1-.18.51l-1.68-4.64c0-1.08,0-2.17-.13-3.24a18.09,18.09,0,0,0-6.72-12.4,9.74,9.74,0,0,0-6.83-2.27A5.3,5.3,0,0,1,174.82,34.9Z"/>
        <path class="cls-10" d="M188.73,92.81c.15.27.31,0,.43,0,1.37-.54,2.7-1.14,4.09-1.62a29.45,29.45,0,0,1,5.64-1.4c1.18-.17,2.38-.28,3.57-.41a8.29,8.29,0,0,1,1.73,0,2.08,2.08,0,0,1-.34.24q-1.77.93-3.57,1.83a5.33,5.33,0,0,1-.83.24c-.67.21-1.35.39-2,.64a60.85,60.85,0,0,0-12.32,6.15c-.7.47-1.36,1-2,1.47l-.11-.1a21.74,21.74,0,0,1,3.81-5.12C187.4,94,188.08,93.42,188.73,92.81Z"/>
        <path class="cls-10" d="M187.25,90.15a1.81,1.81,0,0,0,.4-.18c1.35-1.12,2.65-2.31,4.06-3.35a37.62,37.62,0,0,1,7.2-4.22,30.61,30.61,0,0,1,6.27-1.89,1.1,1.1,0,0,1,.26,0h.73c-.25.17-.38.27-.52.35l-4.07,2.56a4.23,4.23,0,0,1-.4.34,3,3,0,0,1-.53.19l-.12.15h0a2.31,2.31,0,0,0-.47.08,41.57,41.57,0,0,0-14.17,9.65,3.57,3.57,0,0,1-.28.24,8.51,8.51,0,0,1,1.48-3.72l.16-.18Z"/>
        <path class="cls-12" d="M230.56,94.61a8.4,8.4,0,0,1-2,4.71,3.57,3.57,0,0,1-.9.71c-1.63-1.09-3.38-2.24-5.23-3.46A48.19,48.19,0,0,0,230.56,94.61Z"/>
        <path class="cls-12" d="M209.52,41.66c.11.2.22.4.32.61A29.62,29.62,0,0,0,211.2,45,24.09,24.09,0,0,0,213,47.3a12.15,12.15,0,0,1,2.73,6.1,17.38,17.38,0,0,1-.08,3.22c-.05.8-.19,1.6-.29,2.41-.63-.19-1.25-.41-1.89-.54s-1.26-.18-2-.27c.16-.24.3-.44.42-.66.47-.87,1-1.72,1.38-2.63a5.29,5.29,0,0,0-.28-4.77c-.46-.82-1-1.61-1.52-2.4a9.34,9.34,0,0,1-1.76-3.87C209.63,43.15,209.59,42.4,209.52,41.66Z"/>
        <path class="cls-17" d="M188.43,83.76a2,2,0,0,0,.49-.24c.44-.4.85-.83,1.27-1.25a40.52,40.52,0,0,1,4.43-3.63,36.78,36.78,0,0,1,5-3,15.15,15.15,0,0,1,3.88-1.41,3.47,3.47,0,0,1,1.24,0,3,3,0,0,1-.33.29c-.42.31-.84.63-1.29.91a4.43,4.43,0,0,1-.74.31,6.75,6.75,0,0,0-.68.2,36.13,36.13,0,0,0-7.93,5.1,40.73,40.73,0,0,0-7.6,8.08c-.18.25-.35.5-.61.89a4.33,4.33,0,0,1,.07-.53,18.48,18.48,0,0,1,2.58-5.39l.09.08,0-.12v0l.15-.27Z"/>
        <path class="cls-18" d="M250.07,37.78a7.23,7.23,0,0,1,2-3.59,1.42,1.42,0,0,1,1.36-.49,12,12,0,0,0,1.5,9.64L252,43.16A15,15,0,0,1,250.28,39C250.22,38.59,250.14,38.18,250.07,37.78Z"/>
        <path class="cls-12" d="M187.71,80.35a2,2,0,0,0,.38-.32,31,31,0,0,1,4.08-4.48,23.42,23.42,0,0,1,4.47-3.12,22.87,22.87,0,0,1,4.25-1.92c.63-.2,1.28-.35,1.93-.52l.05.13-1.54,1-.09-.12-.05.13h0a3.75,3.75,0,0,0-.6.14,24.68,24.68,0,0,0-5.45,3.58,53.08,53.08,0,0,0-8,8.52c-.14.18-.28.34-.42.51l-.11-.09Z"/>
        <path class="cls-17" d="M247.56,47.33l1,2.19a1.32,1.32,0,0,0,.86.68.94.94,0,0,0,.68-.05,4.93,4.93,0,0,1,3.32-.49,9.72,9.72,0,0,1,2.27.63,1.72,1.72,0,0,1,1.15.88c-.56-.09-1.12-.22-1.69-.26a8.63,8.63,0,0,0-6.35,1.87A2.8,2.8,0,0,1,246.68,50,3.85,3.85,0,0,1,247.56,47.33Z"/>
        <path class="cls-17" d="M249.9,53.56a1.38,1.38,0,0,1,.17.45,3.27,3.27,0,0,0,1.1,2.45.43.43,0,0,1,.09.1,1.48,1.48,0,0,0,2.19.5,4.43,4.43,0,0,1,2.68-.54,22.17,22.17,0,0,1,2.54.57c.07,0,.12.13.17.2a10.09,10.09,0,0,0-3.58.39,8.56,8.56,0,0,0-2.8,1.44,1.11,1.11,0,0,1-.85.23,3.28,3.28,0,0,1-2.35-5A5.5,5.5,0,0,1,249.9,53.56Z"/>
        <path class="cls-17" d="M250.07,37.78c.07.4.15.81.21,1.21A15,15,0,0,0,252,43.16l-2,.36A9.16,9.16,0,0,1,250.07,37.78Z"/>
        <path class="cls-19" d="M225.46,31.53c0-.15.08-.3.13-.44.33-.82.92-.93,1.5-.24a5.08,5.08,0,0,1,1,2.48c0,.11-.12.26-.2.4-.11-.08-.16-.09-.17-.12-.27-.72-.27-.72-1.06-.7h-.33s-.07,0-.19-.1l.59-.75C226.26,31.53,226.26,31.53,225.46,31.53Z"/>
        <path class="cls-12" d="M186.78,83.83l-.1.19-.07,0,.06-.25Z"/>
        <path class="cls-12" d="M209.47,41.25l0,.31Z"/>
        <path class="cls-8" d="M188.45,83.78l-.15.27Z"/>
        <path class="cls-8" d="M188.31,84l0,.12-.09-.08A.08.08,0,0,1,188.31,84Z"/>
        <path class="cls-8" d="M187.27,90.14l-.16.18Z"/>
        <path class="cls-10" d="M183.08,99.88,183,100l0-.19Z"/>
        <path class="cls-5" d="M184.3,48l0,.15-.11-.06Z"/>
        <path class="cls-5" d="M201.54,38.69l.14,0-.07.09Z"/>
        <path class="cls-12" d="M263.19,71.23l.08-.11Z"/>
        <path class="cls-16" d="M217.21,42.2l-.09-.07.13,0Z"/>
        <path class="cls-6" d="M201.19,71.09l.05-.13.09.12Z"/>
        <path class="cls-6" d="M200.53,84.08l.12-.15Z"/>
        <path class="cls-10" d="M235.92,80.49l-.16.12,0-.08.18-.06Z"/>
        <path class="cls-20" d="M239.75,64.45a4.61,4.61,0,0,1,1.42,2.33,12.18,12.18,0,0,1-1,10.23,6.35,6.35,0,0,1-2.72,2.61l-.07-.07c.51-.87,1.08-1.72,1.54-2.62a15.24,15.24,0,0,0,1-11.49c-.09-.32-.13-.67-.19-1Z"/>
        <path class="cls-20" d="M239.76,64.44h-.09l0-.08.06.09Z"/>
        <path class="cls-20" d="M237.43,79.62l-.15,0,.08-.12Z"/>
        <path class="cls-6" d="M256.31,72.94l.11,0-.09-.06Z"/>
        <path class="cls-9" d="M186.62,71.61l-.16.12,0-.08.19-.05Z"/>
        <path class="cls-21" d="M200.79,35.47a7.46,7.46,0,0,1,1-2.45,18.16,18.16,0,0,1,4.74-5,33.37,33.37,0,0,1,4.19-2.61,1,1,0,0,1,1.16.11,2.78,2.78,0,0,1-.93,1,40.18,40.18,0,0,0-5,3.16,17.47,17.47,0,0,0-2.79,2.78c-.75.92-1.42,1.9-2.12,2.85a1.83,1.83,0,0,0-.13.24Z"/>
        <path class="cls-21" d="M221.46,27.74c-.52-.83-1-1.67-1.57-2.48A6.94,6.94,0,0,0,217.6,23a5.84,5.84,0,0,0-4.83-.4c-.24.07-.56.21-.73.11a4.31,4.31,0,0,1-1.12-.88c-.2-.21,0-.39.27-.46a13.15,13.15,0,0,1,1.71-.47,6.26,6.26,0,0,1,6.23,2.26,12.91,12.91,0,0,1,2.11,3.62,9.41,9.41,0,0,1,.23.95Z"/>
        <path class="cls-21" d="M221.47,27.74l.13.28-.09,0,0-.31Z"/>
        <polygon class="cls-21" points="200.7 35.75 200.74 35.73 200.73 35.78 200.7 35.75"/>
        <path class="cls-6" d="M207,30.36l.12-.07-.05.15Z"/>
        <path class="cls-6" d="M231.79,109.29v.07l-.08,0Z"/>
        <path class="cls-22" d="M213.1,44.31a4.56,4.56,0,0,1,.72-4.83l.75-.59c-.12-.23-.26-.45-.37-.69a6.15,6.15,0,0,1,1.54-6.77,2.56,2.56,0,0,1,2.63-.62,2.32,2.32,0,0,1,.7.45c-.86,0-1.73-.09-2.39.68a4,4,0,0,1,3.7,6.38l1.11.84-.07.12-.69-.18a7.71,7.71,0,0,0-4.1,0,4.65,4.65,0,0,0-3.5,4.46C213.11,43.83,213.11,44.07,213.1,44.31Zm2.45-5.86a4.89,4.89,0,0,1,3-.43,1,1,0,0,0,1.06-.42,3.28,3.28,0,0,0-1.72-5,2,2,0,0,0-2.58,1.09,5.71,5.71,0,0,0-.46,1.77A4.79,4.79,0,0,0,215.55,38.45Zm1-6.43,0,0,0,0,0,0Z"/>
        <path class="cls-23" d="M213.22,32.27c.34-1.88.72-3.75,2.49-4.93a1.86,1.86,0,0,1,2.66.3,16.11,16.11,0,0,1,1,1.41l-.12.14L219,29a9.76,9.76,0,0,0-1.22-.75,1.9,1.9,0,0,0-2.08.41,8.61,8.61,0,0,0-2.15,3.21,3,3,0,0,0-.17.41Z"/>
        <path class="cls-23" d="M228.21,29.88c-.33-.47-.64-.94-1-1.39a11.87,11.87,0,0,0-1-1.11,2,2,0,0,0-.68-.39.87.87,0,0,0-1.14.39c-.21.34-.34.73-.56,1.11a3.66,3.66,0,0,1,0-1.83,1.11,1.11,0,0,1,1.59-.72,2.78,2.78,0,0,1,1,.61,8.44,8.44,0,0,1,1.82,3,1.09,1.09,0,0,1,0,.26Z"/>
        <path class="cls-6" d="M220.41,30.65l.12.3-.08,0,0-.31Z"/>
        <path class="cls-6" d="M224.46,29.94s-.06,0-.07-.07a.56.56,0,0,1,0-.12s.07.05.07.07A.28.28,0,0,1,224.46,29.94Z"/>
        <path class="cls-23" d="M228.25,29.84l.1.22-.08,0-.06-.21Z"/>
        <path class="cls-23" d="M219.42,29.34s0,0,0,.05,0,0,0,.05l0-.05S219.41,29.36,219.42,29.34Z"/>
        <polygon class="cls-23" points="213.19 32.55 213.2 32.59 213.17 32.58 213.19 32.55"/>
        <path class="cls-22" d="M219.31,31.39l0,0s0,0,0,0,0,0,0,0Z"/>
        <path class="cls-20" d="M226,37.72c0-.43,0-.76,0-1.08s.25-.51.51-.43.32.32.26.58S226.48,37.34,226,37.72Z"/>
        <path class="cls-21" d="M224,48.75c.17.51.33,1,.5,1.53l.24.69a4.6,4.6,0,0,0,3.06,2.86l.19,0c.83.31,1,.7.59,1.53a1.71,1.71,0,0,1-1.78,1.19,1.07,1.07,0,0,1,0-.25,1.94,1.94,0,0,0-.93-1.84,4.61,4.61,0,0,1-1.9-2.62,4.76,4.76,0,0,1-.12-2.4,4.28,4.28,0,0,0,.06-.72Z"/>
        <path class="cls-21" d="M227.69,48.42a3.75,3.75,0,0,0,3.89,0,5.28,5.28,0,0,1,.6-.27c.6-.2.91,0,1,.66a2.46,2.46,0,0,1-1.33,2.34c-.13-.64-.61-.74-1.11-.83a5.24,5.24,0,0,1-2.19-.84,1.54,1.54,0,0,1-.81-1.06Z"/>
        <path class="cls-6" d="M225.69,51.35l-.18-.21.08,0,.14.22Z"/>
        <path class="cls-21" d="M227.7,48.41l-.09,0,.08.05Z"/>
        <path class="cls-24" d="M215.55,38.45a4.79,4.79,0,0,1-.65-3,5.71,5.71,0,0,1,.46-1.77,2,2,0,0,1,2.58-1.09,3.28,3.28,0,0,1,1.72,5,1,1,0,0,1-1.06.42A4.89,4.89,0,0,0,215.55,38.45Zm2.92-4.14a1.47,1.47,0,0,0-1.79-.17A1.85,1.85,0,0,0,215.8,36a1.55,1.55,0,0,0,3,.2,7.59,7.59,0,0,0,.09-1l-1.21.18-.08-.14Z"/>
        <path class="cls-14" d="M216.51,32l0,0,0,0,0,0Z"/>
        <path class="cls-20" d="M218.47,34.31l-.82.9.08.14,1.21-.18a7.59,7.59,0,0,1-.09,1,1.55,1.55,0,0,1-3-.2,1.85,1.85,0,0,1,.88-1.81A1.47,1.47,0,0,1,218.47,34.31Z"/>
      </g>
    </g>
  </g>
</svg>
