<svg xmlns="http://www.w3.org/2000/svg" viewBox="0 0 124.74 118.69">
  <defs>
    <style>
      .cls-1 {
        fill: #1a1a1a;
      }

      .cls-2 {
        fill: #fff;
      }

      .cls-3 {
        fill: #3968b0;
      }

      .cls-4 {
        fill: #3263ad;
      }

      .cls-5 {
        fill: #d0d0d2;
      }

      .cls-6 {
        fill: #050506;
      }

      .cls-7 {
        fill: #fffffe;
      }

      .cls-8 {
        fill: #fefefe;
      }

      .cls-9 {
        fill: #fdfdfd;
      }

      .cls-10 {
        fill: #cacaaf;
      }

      .cls-11 {
        fill: #fefffd;
      }

      .cls-12 {
        fill: #c9c8ae;
      }

      .cls-13 {
        fill: #e52327;
      }

      .cls-14 {
        fill: #e52227;
      }

      .cls-15 {
        fill: #fcfcfc;
      }

      .cls-16 {
        fill: #f9dc06;
      }

      .cls-17 {
        fill: #c9c8ad;
      }

      .cls-18 {
        fill: #fcfcfb;
      }

      .cls-19 {
        fill: #efefef;
      }

      .cls-20 {
        fill: #090909;
      }

      .cls-21 {
        fill: #f08468;
      }

      .cls-22 {
        fill: #090707;
      }

      .cls-23 {
        fill: #f28e72;
      }

      .cls-24 {
        fill: #f5f5f5;
      }
    </style>
  </defs>
  <g id="Capa_2" data-name="Capa 2">
    <g id="Capa_1-2" data-name="Capa 1">
      <path class="cls-1" d="M98.08,118.69c-3.48,0-8.69-3.48-20.12-11.11-4.28-2.86-9.54-6.38-15.63-10.3-6.12,3.94-11.4,7.46-15.7,10.32-11.4,7.61-16.6,11.08-20.07,11.08a4.17,4.17,0,0,1-3.43-1.63c-2.27-3-.61-8.86,3.83-24.49,1.36-4.79,3-10.66,4.82-17.37-6.38-5.27-11.92-9.6-16.43-13.12C3.4,52.72-1.08,49.23.21,45.25,1.58,41,7.8,40.79,28.42,40c4.41-.17,9.4-.35,15-.61C45,35.28,46.61,31.08,48.14,27,51,19.52,53.87,11.78,56.91,4.22l0-.1L57,4C58.65.7,60.76,0,62.23,0c2.54,0,4.82,2.12,6.11,5.67,4.13,10.68,8.12,21.23,12.84,33.74,5.83.26,11,.45,15.51.62,20.34.75,26.48,1,27.84,5.18,1.28,4-3.2,7.46-15.18,16.79-4.52,3.52-10.09,7.86-16.51,13.14,1.78,6.64,3.38,12.28,4.81,17.3,4.47,15.72,6.14,21.61,3.86,24.62A4.18,4.18,0,0,1,98.08,118.69Z"/>
      <path class="cls-2" d="M90.87,73.61c14.47,54.28,19.28,50-27.56,20-46.9,30-42,34.26-27.6-19.94C-5.2,39.71-12.09,44,45,41.41a1.62,1.62,0,0,0,1.7-1.28C51.26,28.3,55.58,16.36,60.3,4.61,62.58,0,65.51,2.19,66.88,6q6.57,17,13,34.11a1.72,1.72,0,0,0,1.83,1.3C138.71,44,132,39.59,90.87,73.61Z"/>
      <path class="cls-3" d="M96.75,110.52c-3-1.34-9.06-5.4-15.43-9.66-4.63-3.09-10.39-6.94-17.13-11.26l-1.75-1.13L60.68,89.6c-6.77,4.33-12.55,8.18-17.2,11.28-6.6,4.41-12.47,8.33-15.39,9.63.36-3.24,2.35-10.27,4.6-18.19C34.16,87.13,36,80.67,38,73.24l.53-2-1.6-1.33c-7-5.81-13-10.51-17.85-14.29-5.2-4.07-10.16-8-12.21-10.13C10.41,44.71,19,44.39,28.74,44c4.54-.17,9.69-.36,15.52-.62A4.86,4.86,0,0,0,48.88,40c1.63-4.25,3.27-8.59,4.85-12.8,2.79-7.41,5.67-15.08,8.66-22.53v0a7,7,0,0,1,.54,1.18l0,.07c4.16,10.77,8.19,21.41,13,34.08a4.9,4.9,0,0,0,4.74,3.41c6,.27,11.25.46,15.89.64,9.52.35,18,.66,21.5,1.4-2.07,2.19-7,6.05-12.22,10.09C101,59.31,95,64,87.92,69.84l-1.61,1.33.54,2c2,7.4,3.8,13.84,5.27,19C94.38,100.18,96.39,107.26,96.75,110.52Z"/>
      <g>
        <path class="cls-4" d="M118.08,45.42a48.52,48.52,0,0,1-3.89,3.5L112.83,50c-2.08,1.68-4.49,3.57-7,5.49a1.56,1.56,0,0,0-.2.16l-2.78,2.16h0l-2.06,1.61-4,3.15-.91.72-3.59,2.89-.84.68-.92.75-1.45,1.19-1.2,1-1.61,1.33.54,2c.32,1.19.63,2.35.94,3.48h0l.21.78c.06.21.11.42.17.63l.09.34c.61,2.22,1.2,4.34,1.76,6.34.17.61.34,1.2.5,1.79s.27.94.4,1.4c.42,1.5.82,2.91,1.2,4.24,1.06,3.73,2.06,7.25,2.86,10.29.19.7.36,1.37.53,2s.35,1.42.5,2.07c.09.41.18.8.26,1.17.23,1.1.4,2,.48,2.78a40.73,40.73,0,0,1-4.05-2.24l-1.6-1-2.17-1.39-2.23-1.46-5.38-3.58-1.75-1.17-1.66-1.11c-1.61-1.08-3.34-2.22-5.16-3.42l-1.61-1.06c-2.18-1.43-4.5-2.94-6.94-4.5l-.3-.19-1.46-.94-.21.14-1.55,1c-6,3.83-11.18,7.29-15.52,10.18l-1.67,1.11-4.15,2.76a104,104,0,0,1-11.24,6.87,53.46,53.46,0,0,1,1.34-6.4c.18-.7.37-1.43.57-2.18.77-2.87,1.7-6.15,2.68-9.59v0l.91-3.24c1.29-4.55,2.79-9.88,4.37-15.83l.54-2-.88-.72-.1-.09-.63-.52-1.79-1.48-3-2.44-3.74-3h0c-1.26-1-2.49-2-3.66-2.9L23,58.62l-3.05-2.38c-.28-.23-.56-.44-.84-.66l-.84-.66L16.6,53.65l-1-.78-1.27-1a81,81,0,0,1-7.48-6.42C10.42,44.69,19,44.36,28.75,44l5.13-.19,2-.08,2.85-.12,3.85-.16,1.7-.07.21,0a4.88,4.88,0,0,0,2.85-1.08l0,0A5.49,5.49,0,0,0,48.9,40l.3-.79c.27-.69.53-1.38.79-2.08h0c.74-1.94,1.48-3.89,2.21-5.83h0c.46-1.21.92-2.42,1.37-3.62l.17-.47c2.79-7.41,5.67-15.08,8.67-22.54v0A8,8,0,0,1,63,5.82l0,.07c1.65,4.27,3.28,8.53,5,12.89.36,1,.73,1.92,1.1,2.89h0c.14.38.28.75.43,1.13h0c.27.72.55,1.45.82,2.18h0c.39,1,.77,2,1.16,3.05h0l.48,1.27h0q1.2,3.15,2.44,6.46c.18.45.35.91.52,1.38L76,40a5.87,5.87,0,0,0,1,1.69,4.23,4.23,0,0,0,.75.72,4.94,4.94,0,0,0,2.39.94h0c.21,0,.42,0,.64.06l.62,0,1.36.06,2.24.1c4.28.18,8.15.32,11.68.46l1,0c4.43.17,8.59.33,12.08.53A67.05,67.05,0,0,1,118.08,45.42Z"/>
        <path class="cls-5" d="M116.65,54.7a16.57,16.57,0,0,0-2.46-5.78,15.86,15.86,0,0,0-4.48-4.34,16.14,16.14,0,0,0-1.57-.92,3,3,0,0,1-.71-.57,10.33,10.33,0,0,1-2.86-7.21c0-1,0-2,0-3s-.36-1.31-1.39-1.25a3.61,3.61,0,0,0-2.38,1.22,9.71,9.71,0,0,0-2.6,8.46,18.8,18.8,0,0,0,.47,1.9l-.62.48-.44.36a7.37,7.37,0,0,0-2.42,3.51,4.78,4.78,0,0,0,.29,3.74A3.15,3.15,0,0,0,98,53.12c-.1.25-.2.44-.26.65s-.32.45-.61.61a4.79,4.79,0,0,1-4.1.07,1.33,1.33,0,0,1-.84-.8,26.05,26.05,0,0,0-7.3-10.09l-.76-.63c-.63-.5-1.29-1-1.94-1.43.11-.64.21-1.25.32-1.9a6,6,0,0,1,.8-.4c.6-.19,1.2-.35,1.81-.51s.63-.22.62-.74a3.46,3.46,0,0,0-.16-1.16,6,6,0,0,0-4.77-4.07c0-.52-.09-1.08-.18-1.64a11.68,11.68,0,0,0-2.53-5.84,5.2,5.2,0,0,0-1.92-1.53,2.45,2.45,0,0,0-2.79.45l-.41.39-.43-.91a12.11,12.11,0,0,0-1.92-2.94,7.33,7.33,0,0,0-2.72-1.92,7.2,7.2,0,0,0-2.31-.48,11.52,11.52,0,0,0-4.66.78,4.42,4.42,0,0,0-1.38.83,1.8,1.8,0,0,0,0,3c.25.23.52.43.8.67a.94.94,0,0,1-.2.12,27.17,27.17,0,0,0-4.88,2.73c-.58.41-1.14.83-1.68,1.27a19.43,19.43,0,0,0-3.69,3.83,10.42,10.42,0,0,0-1.81,4,5.26,5.26,0,0,0-.11,2.2A1.7,1.7,0,0,0,49.2,39.2a2.17,2.17,0,0,0,1.12-.12,13.2,13.2,0,0,0,1.82-1l.07.07a5.62,5.62,0,0,1-.09.57,16.64,16.64,0,0,0,.21,7.75A7.62,7.62,0,0,0,54,49.73a2.33,2.33,0,0,0,3.74.07,9.33,9.33,0,0,0,1.14-1.58c.29-.47.51-1,.8-1.58.62,1,1.24,1.84,1.73,2.77a5.71,5.71,0,0,1,0,5.62,15.28,15.28,0,0,1-.89,1.37,2,2,0,0,1-1.89,1.13.68.68,0,0,0-.19,0,18.7,18.7,0,0,0-5.8,2.06l-1.07.57a3.32,3.32,0,0,1,0-.41,28.36,28.36,0,0,0,.09-8.38,16.63,16.63,0,0,0-4.07-8.94c-.05-.06-.12-.1-.23-.2l0,0v.05a23.27,23.27,0,0,1,.32,5.17,14.81,14.81,0,0,1-1,4.95,3.54,3.54,0,0,1-.15-.83,24,24,0,0,0-2-8.2h0a18.29,18.29,0,0,0-9.17-9.56,13.51,13.51,0,0,0-8.58-1.12,8,8,0,0,0-5.2,3.41c-.12.18-.21.39-.33.6.63-.09,1.19-.19,1.75-.23a9.51,9.51,0,0,1,5.92,1.66,14.29,14.29,0,0,1,5,5.69,18.77,18.77,0,0,1,1.28,3.44l-.09.08-.23-.1a18.65,18.65,0,0,0-4-1.79,13.35,13.35,0,0,0-10.79,1,16,16,0,0,0-5.74,5.39A17,17,0,0,0,12,58.33a12.24,12.24,0,0,0,.58,6,3.67,3.67,0,0,0,.12-.38,9.86,9.86,0,0,1,7.06-7.64l.13,0a7.68,7.68,0,0,1,5.36.22,5.85,5.85,0,0,1,2.26,1.66,10.43,10.43,0,0,0-4.57.5,11.31,11.31,0,0,0-3.72,2.24,14.22,14.22,0,0,0-3.32,4.48,19.07,19.07,0,0,0-.09,16.09c.06-.05.1-.07.11-.11a.67.67,0,0,0,.05-.19,20.1,20.1,0,0,1,4.64-9.84A9.77,9.77,0,0,1,24,68.59c.12,0,.26-.07.44-.13-.33.57-.63,1-.88,1.54a19.56,19.56,0,0,0-2,8.89,18.89,18.89,0,0,0,.59,4.9,16,16,0,0,0,6,9.15,2.68,2.68,0,0,0,.42.19,1.75,1.75,0,0,0,0-.24,17.82,17.82,0,0,1-1-7.69,18.22,18.22,0,0,1,1.32-5.49,6.2,6.2,0,0,1,.29-.57V80a21.48,21.48,0,0,0,1.18,8,12.36,12.36,0,0,0,2.42,4.42,7.59,7.59,0,0,0,1.71,1.39,5.71,5.71,0,0,0,0,.72,1.87,1.87,0,0,1-.36,1.27,23.13,23.13,0,0,0-1.17,2.4,9.89,9.89,0,0,1-.53,1.59A8.25,8.25,0,0,1,31,100.84a8.6,8.6,0,0,0-1,1.07,4.09,4.09,0,0,0-.53.91,1.46,1.46,0,0,0,0,1.27,1.48,1.48,0,0,0,.92.67,6.61,6.61,0,0,0,1.54.25,15.29,15.29,0,0,0,3.87-.46q1.81-.39,3.57-.93l4.15-2.76,1.67-1.11c4.34-2.89,9.55-6.35,15.52-10.18l1.55-1,.21-.14,1.46.94.3.19c2.44,1.56,4.76,3.07,6.94,4.5l1.61,1.06c1.82,1.2,3.55,2.34,5.16,3.42l1.66,1.11A12.36,12.36,0,0,0,82.64,93a.76.76,0,0,1,.51-.66c1.3-.61,2.61-1.19,3.86-1.89a29.62,29.62,0,0,0,3.92-2.55,23.84,23.84,0,0,0,4.82-5c.46-.63.87-1.29,1.26-1.89,1.25-.17,2.47-.28,3.66-.5a18.79,18.79,0,0,0,10.43-5.53A21.38,21.38,0,0,0,116.65,54.7ZM28.57,93.15v.07l.07,0Zm0,0h0v0Z"/>
        <path class="cls-6" d="M116.65,54.7a16.57,16.57,0,0,0-2.46-5.78,15.86,15.86,0,0,0-4.48-4.34,16.14,16.14,0,0,0-1.57-.92,3,3,0,0,1-.71-.57,10.33,10.33,0,0,1-2.86-7.21c0-1,0-2,0-3s-.36-1.31-1.39-1.25a3.61,3.61,0,0,0-2.38,1.22,9.71,9.71,0,0,0-2.6,8.46,18.8,18.8,0,0,0,.47,1.9l-.62.48-.44.36a7.37,7.37,0,0,0-2.42,3.51,4.78,4.78,0,0,0,.29,3.74A3.15,3.15,0,0,0,98,53.12c-.1.25-.2.44-.26.65s-.32.45-.61.61a4.79,4.79,0,0,1-4.1.07,1.33,1.33,0,0,1-.84-.8,26.05,26.05,0,0,0-7.3-10.09l-.76-.63c-.63-.5-1.29-1-1.94-1.43.11-.64.21-1.25.32-1.9a6,6,0,0,1,.8-.4c.6-.19,1.2-.35,1.81-.51s.63-.22.62-.74a3.46,3.46,0,0,0-.16-1.16,6,6,0,0,0-4.77-4.07c0-.52-.09-1.08-.18-1.64a11.68,11.68,0,0,0-2.53-5.84,5.2,5.2,0,0,0-1.92-1.53,2.45,2.45,0,0,0-2.79.45l-.41.39-.43-.91a12.11,12.11,0,0,0-1.92-2.94,7.33,7.33,0,0,0-2.72-1.92,7.2,7.2,0,0,0-2.31-.48,11.52,11.52,0,0,0-4.66.78,4.42,4.42,0,0,0-1.38.83,1.8,1.8,0,0,0,0,3c.25.23.52.43.8.67a.94.94,0,0,1-.2.12,27.17,27.17,0,0,0-4.88,2.73c-.58.41-1.14.83-1.68,1.27a19.43,19.43,0,0,0-3.69,3.83,10.42,10.42,0,0,0-1.81,4,5.26,5.26,0,0,0-.11,2.2A1.7,1.7,0,0,0,49.2,39.2a2.17,2.17,0,0,0,1.12-.12,13.2,13.2,0,0,0,1.82-1l.15,0-.08.09a5.62,5.62,0,0,1-.09.57,16.64,16.64,0,0,0,.21,7.75A7.62,7.62,0,0,0,54,49.73a2.33,2.33,0,0,0,3.74.07,9.33,9.33,0,0,0,1.14-1.58c.29-.47.51-1,.8-1.58.62,1,1.24,1.84,1.73,2.77a5.71,5.71,0,0,1,0,5.62,15.28,15.28,0,0,1-.89,1.37,2,2,0,0,1-1.89,1.13.68.68,0,0,0-.19,0,18.7,18.7,0,0,0-5.8,2.06l-1.07.57a3.32,3.32,0,0,1,0-.41,28.36,28.36,0,0,0,.09-8.38,16.63,16.63,0,0,0-4.07-8.94c-.05-.06-.12-.1-.23-.2l0,0v.05a23.27,23.27,0,0,1,.32,5.17,14.81,14.81,0,0,1-1,4.95,3.54,3.54,0,0,1-.15-.83,24,24,0,0,0-2-8.2h0a18.29,18.29,0,0,0-9.17-9.56,13.51,13.51,0,0,0-8.58-1.12,8,8,0,0,0-5.2,3.41c-.12.18-.21.39-.33.6.63-.09,1.19-.19,1.75-.23a9.51,9.51,0,0,1,5.92,1.66,14.29,14.29,0,0,1,5,5.69,18.77,18.77,0,0,1,1.28,3.44l0,.14-.11-.06-.23-.1a18.65,18.65,0,0,0-4-1.79,13.35,13.35,0,0,0-10.79,1,16,16,0,0,0-5.74,5.39A17,17,0,0,0,12,58.33a12.24,12.24,0,0,0,.58,6,3.67,3.67,0,0,0,.12-.38,9.86,9.86,0,0,1,7.06-7.64l.13,0a7.68,7.68,0,0,1,5.36.22,5.85,5.85,0,0,1,2.26,1.66,10.43,10.43,0,0,0-4.57.5,11.31,11.31,0,0,0-3.72,2.24,14.22,14.22,0,0,0-3.32,4.48,19.07,19.07,0,0,0-.09,16.09c.06-.05.1-.07.11-.11a.67.67,0,0,0,.05-.19,20.1,20.1,0,0,1,4.64-9.84A9.77,9.77,0,0,1,24,68.59c.12,0,.26-.07.44-.13-.33.57-.63,1-.88,1.54a19.56,19.56,0,0,0-2,8.89,18.89,18.89,0,0,0,.59,4.9,16,16,0,0,0,6,9.15,2.68,2.68,0,0,0,.42.19,1.75,1.75,0,0,0,0-.24,17.82,17.82,0,0,1-1-7.69,18.22,18.22,0,0,1,1.32-5.49,6.2,6.2,0,0,1,.29-.57V80a21.48,21.48,0,0,0,1.18,8,12.36,12.36,0,0,0,2.42,4.42,7.59,7.59,0,0,0,1.71,1.39,5.71,5.71,0,0,0,0,.72,1.87,1.87,0,0,1-.36,1.27,23.13,23.13,0,0,0-1.17,2.4,9.89,9.89,0,0,1-.53,1.59A8.25,8.25,0,0,1,31,100.84a8.6,8.6,0,0,0-1,1.07,4.09,4.09,0,0,0-.53.91,1.46,1.46,0,0,0,0,1.27,1.48,1.48,0,0,0,.92.67,6.61,6.61,0,0,0,1.54.25,15.29,15.29,0,0,0,3.87-.46q1.81-.39,3.57-.93l4.15-2.76,1.67-1.11a53.32,53.32,0,0,1-8.91,2.71,17.41,17.41,0,0,1-4.07.47c-.29,0-.59-.07-.93-.11a3.66,3.66,0,0,1,1.19-1.59c.26-.26.5-.54.78-.77a45.08,45.08,0,0,1,6.88-4.68c3.15-1.78,6.35-3.46,9.53-5.19a4.6,4.6,0,0,0,.45-.32c-.66.21-1.34.38-2,.62A60.42,60.42,0,0,0,36,97c-.69.46-1.34,1-2,1.44l-.13.1,0-.2a21.43,21.43,0,0,1,3.74-5c.62-.63,1.28-1.22,1.93-1.82a54.68,54.68,0,0,1,6.27-4.86l5.09-3.5a3.33,3.33,0,0,0,.28-.25h0l-.17,0h-.22l-.06,0a40.83,40.83,0,0,0-14,9.51c-.06.06-.13.11-.28.23A8.41,8.41,0,0,1,37.93,89l.16-.18h0c.36-.56.7-1.14,1.11-1.67a47.61,47.61,0,0,1,7.52-7.63c1.9-1.58,3.9-3,5.86-4.54a4.75,4.75,0,0,0,.4-.38c-.22.07-.46.11-.67.2a35.67,35.67,0,0,0-7.81,5,40.34,40.34,0,0,0-7.49,8l-.6.88c0-.27,0-.4.07-.52A18,18,0,0,1,39,82.83a.07.07,0,0,1,.11,0h0c0-.09.09-.18.14-.26l0,0c.67-.9,1.29-1.85,2-2.71a56.67,56.67,0,0,1,8.41-8L51.81,70h0l-.14,0h-.08a1.48,1.48,0,0,0-.36.1,23.57,23.57,0,0,0-5.36,3.53A51.21,51.21,0,0,0,38,82.1c-.13.17-.28.33-.41.49l-.1.19-.07,0,.06-.25,1-3.33A33.69,33.69,0,0,1,50.79,62.71a19.39,19.39,0,0,1,7.64-3.34,10.31,10.31,0,0,1,4.72.13,7.88,7.88,0,0,1,5.37,5.08,15.12,15.12,0,0,1,.94,5.24c0,.41,0,.82,0,1.23a23.57,23.57,0,0,1-2.16,10,27.75,27.75,0,0,1-5.07,7.51l.21-.14,1.46.94a29.19,29.19,0,0,0,6.62-13.13A28.39,28.39,0,0,0,71,67.44c-.09-1-.21-1.93-.32-2.86l2.09-1.69a4.58,4.58,0,0,0,4.47,3.66c1.65.08,3.06-.81,3.87-2.93l.3.42a3.52,3.52,0,0,0,5.82.17,6.09,6.09,0,0,0,1.12-2.61c0-.17.08-.33.13-.54a3.79,3.79,0,0,0,3.38.52c1.23-.52,1.51-1.64,1.8-2.82l.83,1.6.23.43.13.26.21.41.18.37c.09.19.19.39.27.58a1.42,1.42,0,0,1,.08.18c.11.24.22.49.32.73v0l.09.23h0c.07.18.14.35.2.53a.42.42,0,0,1,0,.1l.14.36c.25.7.47,1.41.65,2.12,0,.15.08.29.11.43s.11.47.16.7l.06.31c0,.09,0,.18,0,.27l.09.56c0,.08,0,.17,0,.26s0,.39.07.58l0,.22c0,.1,0,.21,0,.31v.09s0,.1,0,.15a2.45,2.45,0,0,1,0,.27c0,.12,0,.24,0,.37a1.09,1.09,0,0,0,0,.18v.29c0,.13,0,.25,0,.38,0,.3,0,.61,0,.92a16.77,16.77,0,0,1-2.08,7.38,3.19,3.19,0,0,1-.26.38,12.7,12.7,0,0,1-2,3,23.46,23.46,0,0,1-2.84,2.8A29.31,29.31,0,0,1,86,89.62a37.9,37.9,0,0,1-12.54,4.19c-.76.12-1.51.21-2.27.27l1.61,1.06a46.77,46.77,0,0,0,8-1.93,8.3,8.3,0,0,1-1.94,4.64,3.92,3.92,0,0,1-.88.71l1.66,1.11A12.36,12.36,0,0,0,82.64,93a.76.76,0,0,1,.51-.66c1.3-.61,2.61-1.19,3.86-1.89a29.62,29.62,0,0,0,3.92-2.55,23.84,23.84,0,0,0,4.82-5c.46-.63.87-1.29,1.26-1.89,1.25-.17,2.47-.28,3.66-.5a18.79,18.79,0,0,0,10.43-5.53A21.38,21.38,0,0,0,116.65,54.7ZM100,37.22a7.2,7.2,0,0,1,2-3.53,1.4,1.4,0,0,1,1.34-.48,11.85,11.85,0,0,0,1.48,9.49l-2.91-.18-2,.36A9.13,9.13,0,0,1,100,37.22ZM49.86,60.27a3.75,3.75,0,0,1-1.26,2,41.91,41.91,0,0,0-6.68,7.21c-.42.7-.8,1.44-1.28,2.11a28.65,28.65,0,0,0-4.36,9.69q-.3,1.17-.57,2.34A7.06,7.06,0,0,1,35,85.61,6.5,6.5,0,0,0,34.15,89a5,5,0,0,1,0,1l-.48-.88-.29-.58c0-.09-.09-.18-.13-.28l-.12-.26,0-.09a1.6,1.6,0,0,1-.1-.23l-.12-.29c0-.08-.07-.17-.11-.25l-.26-.68-.09-.26c0-.1-.07-.21-.11-.32s-.11-.36-.17-.54A2.17,2.17,0,0,0,32,85c0-.13-.07-.26-.1-.39a1.33,1.33,0,0,1-.05-.19c-.06-.24-.12-.49-.17-.73a1.55,1.55,0,0,1,0-.21l-.06-.28-.06-.32c0-.1,0-.19,0-.28,0-.33-.09-.66-.13-1a1.64,1.64,0,0,0,0-.22c0-.1,0-.2,0-.3a2.64,2.64,0,0,1,0-.29,20.13,20.13,0,0,1,.1-3.63c0-.21.05-.43.08-.64s0-.19.05-.28c0-.26.08-.52.13-.78s.14-.69.22-1q.19-.81.45-1.65c.06-.19.12-.38.19-.58-.61.41-1.1.71-1.55,1.06A12.38,12.38,0,0,0,26.74,80a20,20,0,0,0-.56,7.11c.08.94.18,1.89.19,2.89-.37-.66-.76-1.3-1.1-2a20.68,20.68,0,0,1-2.16-9.3,2.34,2.34,0,0,1,0-.26,15.77,15.77,0,0,1,3.29-10.06,5.61,5.61,0,0,1,2.88-1.91c.07,0,.12-.1.18-.15-.48-.13-1-.29-1.45-.38a7,7,0,0,0-4.59.84,14,14,0,0,0-4,3.25,22.72,22.72,0,0,0-3.34,5.11c-.06.12-.11.24-.17.35s0,0-.1,0a26.42,26.42,0,0,1,.42-5.69,14.6,14.6,0,0,1,2.11-5.55l.17-.24.16-.24h0l.17-.22.19-.23q.27-.33.57-.63l.19-.19.41-.38L20.5,62l.21-.16a1.09,1.09,0,0,1,.17-.13l.13-.1.38-.25.19-.12.05,0,.17-.09.07,0L22,61l.18-.09c.27-.14.54-.26.81-.37l.13-.05.17-.06.23-.08.23-.08h0l.23-.07.24-.07.23,0h.05l.21-.05.13,0L25,60h.05l.19,0,.27,0h0l.28,0a14.12,14.12,0,0,1,4.4.11,4,4,0,0,0-.73-2.05,7.8,7.8,0,0,0-5-3.53,10.09,10.09,0,0,0-2.4-.29h-.25l-.32,0h-.14l-.54.05-.24,0-.14,0-.1,0-.55.12-.11,0-.33.1-.2.06-.24.08-.35.14-.11,0-.23.1-.17.08-.24.12-.25.13-.33.18-.16.1-.18.11a13,13,0,0,0-1.24.9c-.69.56-1.28,1.22-2,1.89a8.64,8.64,0,0,1,.77-3.32,2.6,2.6,0,0,1,.1-.25,10.26,10.26,0,0,1,.44-1l.09-.16.07-.12.12-.21a0,0,0,0,1,0,0l.14-.23.12-.18a.61.61,0,0,1,.07-.1v0c.09-.14.19-.27.28-.4l.14-.18,0-.06.05,0,0-.06a1.83,1.83,0,0,0,.13-.16l.34-.39a2.09,2.09,0,0,1,.2-.22l.26-.27.26-.27.56-.51A13.86,13.86,0,0,1,26,46.68,11.65,11.65,0,0,1,36.19,51c.36.41.67.86,1,1.28.11.13.24.24.36.36,0-1.07,0-2.14-.13-3.19,0-.13,0-.26,0-.39s-.05-.29-.07-.43,0-.08,0-.12l0-.19c0-.11,0-.22-.07-.33a.22.22,0,0,0,0-.08,2,2,0,0,1,0-.26c0-.06,0-.12-.05-.18l-.06-.3c0-.11-.05-.22-.08-.32a1.82,1.82,0,0,0-.07-.25,4.26,4.26,0,0,0-.11-.42l0-.11h0l-.06-.21c0-.14-.09-.28-.14-.42s-.15-.46-.24-.68l-.06-.17a.87.87,0,0,0-.07-.17L36,44.11h0a1,1,0,0,0,0-.1h0c0-.09-.07-.17-.11-.26s-.07-.15-.1-.23l-.11-.22s0,0,0,0l-.21-.44v0l-.35-.64a.22.22,0,0,0-.05-.08l-.22-.38h0l-.14-.22c0-.07-.09-.14-.14-.21a1.64,1.64,0,0,0-.14-.22l-.14-.21-.15-.21L34,40.44q-.26-.36-.54-.69l-.29-.34-.54-.59-.14-.14-.25-.25c-.22-.21-.44-.42-.67-.62l-.29-.25-.17-.14L31,37.36l-.18-.15A9.62,9.62,0,0,0,24.08,35a5.37,5.37,0,0,1,1.74-.6,12.73,12.73,0,0,1,8.24.46,15.08,15.08,0,0,1,6.86,5.72l.2.31.05.07c.16.24.31.49.46.74l.18.3.16.28c0,.05.05.1.08.14l.16.31c.13.24.25.49.37.74l.16.34.15.34h0c0,.11.1.22.14.33l.15.37c0,.11.09.22.13.33a4.84,4.84,0,0,1,.18.49l.08.21.12.35.12.36c0,.09,0,.18.08.27L44,47c.06.2.12.4.17.6l.09.33c.07.25.13.51.19.77s.05.24.08.37a34.79,34.79,0,0,1,.66,9.66c0,.19-.1.37-.12.56s0,.33,0,.66c.14-.23.23-.31.25-.42.22-1,.44-1.9.62-2.86a2.2,2.2,0,0,1,.49-1.09,11.22,11.22,0,0,0,2.37-5.08,11.4,11.4,0,0,0,.27-3.24,3.28,3.28,0,0,1,0-.42,9,9,0,0,1,1,2.78A25.14,25.14,0,0,1,49.86,60.27ZM84.23,36.21c.23.39.41.81.64,1.27a7.47,7.47,0,0,0-3.44,1.39c-1.28.81-2.54,1.66-3.86,2.43l-.27.15-.06,0-.33.17h0l-.27.14-.57.26-.29.12-.57.21-.21.07c-.28.08-.56.16-.84.22s-.53.11-.8.15l-.28,0-.18,0h-.37l-.27,0H72a8.72,8.72,0,0,1-1.14-.07c-.56-.06-1.11-.18-1.67-.23a4.9,4.9,0,0,0,2.52.9l.44,0H73l.45,0h0l.21,0,.23,0H74l.15,0,.17,0,.1,0,.14,0a11,11,0,0,0,1.1-.27l.15,0q.63-.19,1.26-.45l.23-.1.33-.15.8-.38c.79-.41,1.53-.9,2.4-1.41-.07.37-.12.65-.19.94a8.15,8.15,0,0,1-.29,1,1,1,0,0,1,0,.16l0,.12a.69.69,0,0,1,0,.13,3.79,3.79,0,0,1-.18.42h0a.08.08,0,0,1,0,0,1.3,1.3,0,0,1-.08.17l0,0-.07.14s0,0,0,0a1.62,1.62,0,0,1-.1.18c0,.08-.09.16-.14.24a6.29,6.29,0,0,1-.41.64l-.12.17A1.62,1.62,0,0,1,78,45.7a10.71,10.71,0,0,1-7.07-1.13,9.82,9.82,0,0,1-3.29-3l-.09-.08.12,0c.39.05.77.12,1.16.16a5.24,5.24,0,0,0,4.52-1.88l.21-.26.15-.18,0,0,.12-.16,0-.08,0,0,.13-.19v0l.12-.19,0,0,.14-.23c.08-.14.15-.29.22-.43a.61.61,0,0,0,0-.12l0,0,.07-.16.1-.22,0-.12a1.34,1.34,0,0,0,.07-.18l0-.09a5.22,5.22,0,0,0,.18-.56l.06-.18a3.59,3.59,0,0,0,.08-.35l.06-.26a1,1,0,0,1,.64-.8,11.58,11.58,0,0,1,4.08-1A4.5,4.5,0,0,1,84.23,36.21ZM77.89,52.38c.3.12.62.18.93.28a.85.85,0,0,1,.66.92,3,3,0,0,1-3.82,2.93,5.78,5.78,0,0,1-3.26-2.46,14.92,14.92,0,0,1-2.19-5.53,11.24,11.24,0,0,1-.22-3.3l.74.45a9.73,9.73,0,0,0,4.41,1.23c.93.05,1.86,0,2.8,0a.69.69,0,0,1,.63.24,1.75,1.75,0,0,0,2,.47c.59-.18,1.17-.44,1.75-.68a1.19,1.19,0,0,1,1.35.07A1.3,1.3,0,0,1,84,48.38a3.94,3.94,0,0,1-2.09,2.68,6.33,6.33,0,0,1-2.6.78,4.19,4.19,0,0,1-2.79-.92c-.16-.13-.34-.25-.52-.37l0,0A3.2,3.2,0,0,0,77.89,52.38ZM75.72,31.07a3.19,3.19,0,0,1,.13-.44c.32-.81.9-.91,1.47-.24a5,5,0,0,1,1,2.45c0,.11-.13.25-.2.39-.11-.07-.16-.09-.17-.12-.26-.7-.26-.7-1-.69h-.32a1.21,1.21,0,0,1-.19-.1l.57-.74C76.5,31.06,76.5,31.06,75.72,31.07ZM58,39a11.36,11.36,0,0,0,.4,3.85,1.53,1.53,0,0,1,0,.52A13.54,13.54,0,0,1,57.79,47a4.5,4.5,0,0,1-.6,1.15,1.14,1.14,0,0,1-1.89.18A4.85,4.85,0,0,1,54.43,47a10.58,10.58,0,0,1-.8-3.47c-.07-1-.13-2-.11-3a11.48,11.48,0,0,1,.74-4.14,21.38,21.38,0,0,1,1-2c.63-1.12,1.28-2.22,1.89-3.35a7.44,7.44,0,0,0,.4-1l-.07-.07c-1,1.14-2.06,2.29-3.1,3.42s-1.92,2.07-2.91,3.08a2.6,2.6,0,0,1-1.5.84.68.68,0,0,0,0-.14h0a5.08,5.08,0,0,1,.18-2,1.87,1.87,0,0,0,.07-.22l0-.1c0-.07,0-.14.07-.21l.07-.19.06-.16a.61.61,0,0,1,.05-.12c.08-.2.17-.4.26-.6l.09-.17a1.51,1.51,0,0,1,.11-.22L51,33l.09-.17.11-.19h0a1.76,1.76,0,0,1,.14-.23c0-.09.11-.18.17-.27l.16-.24.09-.13.22-.3.17-.22h0l.57-.69a23.74,23.74,0,0,1,8.41-6,1.35,1.35,0,0,1,1-.07c.36.09.75.12,1.22.19a7.48,7.48,0,0,0-1.45-1.51c-.38-.36-.79-.68-1.15-1.06-.54-.57-.47-1,.23-1.33A7.51,7.51,0,0,1,64.89,20h.37l.34.05.24.05h0l.23.05.15,0c.2.06.4.12.6.2l.16.06.18.07h0l.17.08.19.09h0l.18.1.11.06.14.08.1.06.11.07.43.29.14.11.13.1.13.11,0,0A10,10,0,0,1,72.16,27c.14.55.22,1.12.33,1.7L72,28.38l-.49-.32,0,0c-.3-.2-.6-.4-.89-.61a1.23,1.23,0,0,1-.34-.46,6,6,0,0,0-1.51-2,3,3,0,0,0-3.79-.22,5.71,5.71,0,0,0-2.22,3.2,1.29,1.29,0,0,1-.49.72,8.52,8.52,0,0,0-2.41,3.28A19.08,19.08,0,0,0,58,39ZM91.14,60.64a3,3,0,0,1-2.6-.91c-.12-.1-.15-.3-.21-.46-.43-1-.84-2.05-1.28-3.06a4.76,4.76,0,0,0-.47-.73l-.12.06a2.81,2.81,0,0,0,.08.31,10.72,10.72,0,0,1,.5,5.58,4.68,4.68,0,0,1-.53,1.45,2,2,0,0,1-3.22.59A10.47,10.47,0,0,1,82,62.09c-.49-.57-.94-1.17-1.46-1.83-.2.68-.35,1.24-.55,1.78a5.14,5.14,0,0,1-1.29,2.08,2.36,2.36,0,0,1-3.35.06,6.2,6.2,0,0,1-1.73-3.08c-.15-.52-.23-1.05-.36-1.68A4.71,4.71,0,0,1,70,62.74a12,12,0,0,0-2.53-3.53l-1.67-1.06c-.62-.18-1.24-.39-1.87-.53s-1.24-.17-1.94-.26c.15-.24.3-.44.42-.65a29,29,0,0,0,1.35-2.59,5.2,5.2,0,0,0-.27-4.7c-.46-.81-1-1.59-1.5-2.36a9.36,9.36,0,0,1-1.74-3.82c-.1-.73-.14-1.46-.21-2.2A.1.1,0,0,1,60,41c0-.11,0-.21,0-.31a16.42,16.42,0,0,1,.86-7.55,6.59,6.59,0,0,1,1.72-2.55V31a15.11,15.11,0,0,0,.24,4.14,1.54,1.54,0,0,0,.11.3c0-1.23,0-2.47.16-3.7a9.28,9.28,0,0,1,1.28-4.18,4.27,4.27,0,0,1,1.37-1.37,2.23,2.23,0,0,1,3.13.48,9.7,9.7,0,0,1,1.37,2.35c.17.39.35.77.53,1.16h0l-.13-1.95c.43.4.9.7,1.31,1.05h0l.21.19.07.06.26.3.1.14.09.14.07.12.06.14,0,.07,0,.12a3.11,3.11,0,0,0,.6-1.76c.07-.69.09-1.39.13-2.08A1.66,1.66,0,0,1,76,25.29a4.22,4.22,0,0,1,1.34,1.11,12.58,12.58,0,0,1,2.38,5.91c0,.13,0,.26,0,.39a1.08,1.08,0,0,1,0,.2L79,33c-.06-.24-.11-.46-.16-.69a6.28,6.28,0,0,0-1.74-3.5,1.79,1.79,0,0,0-1.4-.56c-.51.05-.79.35-.89,1,.37-.15.59-.62,1.07-.46a1.87,1.87,0,0,1,.91.74c-1,0-1.33.22-1.64,1.15a5.83,5.83,0,0,0,.1,3.46,2.46,2.46,0,0,0,.09.29c0,.06,0,.12-.08.13a1.54,1.54,0,0,0-.88,1.24v0a1.74,1.74,0,0,1,0,.22.93.93,0,0,1,0,.13s0,.11,0,.17-.06.19-.1.29l-.06.2h0a.76.76,0,0,1-.06.16l-.06.17a2.29,2.29,0,0,1-.1.23,2.56,2.56,0,0,1-.11.24,3141808302345.92,3141808302345.92,0,0,1-.16.3c0,.1-.11.2-.17.3a.42.42,0,0,1-.09.14,2.75,2.75,0,0,1-.19.28l-.1.14-.09.11-.07.09-.11.12-.08.09a2.09,2.09,0,0,1-.2.22l-.11.1-.09.08-.36.31-.13.09-.15.11-.15.1-.16.1a5,5,0,0,1-4.16.39,3.15,3.15,0,0,1,2.48-.78,2.65,2.65,0,0,0-3.42.24,3,3,0,0,0-.76,3.77,4.54,4.54,0,0,1,1.27-2.94,7,7,0,0,0,2.75,3.86c-.07.94-.13,1.85-.2,2.75a14.33,14.33,0,0,0,1.19,5.55,8.82,8.82,0,0,0,2.94,3.73,5.32,5.32,0,0,0,4.51.83,3.64,3.64,0,0,0,1.78-1.22A5.72,5.72,0,0,0,80.23,53l.61-.17a5.71,5.71,0,0,0,3.93-3.14,3.33,3.33,0,0,0,.33-2.34,2,2,0,0,0-2.72-1.45c-.5.18-1,.45-1.47.67a1.54,1.54,0,0,1-1.6,0,1.54,1.54,0,0,0,.17-.19l.12-.14a.18.18,0,0,0,.05-.07.39.39,0,0,0,.08-.1l.16-.2.14-.2.16-.23c.16-.24.31-.48.45-.73s.13-.22.19-.33.24-.45.36-.69l.12-.23c.14-.27.27-.54.41-.82l1,.88c.47.44.92.87,1.36,1.31a30.27,30.27,0,0,1,5.59,7.48,26.5,26.5,0,0,1,2.24,5.88,8.71,8.71,0,0,1,.27,1.33A1.11,1.11,0,0,1,91.14,60.64Zm22.42,8.42c-.17.35-.39.67-.59,1l-.08.11a.14.14,0,0,0,0,.09,10.64,10.64,0,0,1-2.57,3.09,25.31,25.31,0,0,1-9.59,5.09,6.18,6.18,0,0,1-2.66.19q.23-.83.39-1.65c.09-.41.16-.82.22-1.23a23.13,23.13,0,0,0,.28-3.59v-.31c0-.35,0-.69,0-1l0-.42c0-.44-.08-.88-.14-1.32,0-.09,0-.19,0-.28a2.33,2.33,0,0,0,0-.28c-.06-.4-.13-.79-.22-1.18,0-.13-.06-.26-.08-.38-.1-.4-.2-.8-.32-1.19l-.09-.33-.12-.37-.12-.38-.18-.49L97.39,64c-.09-.25-.19-.5-.29-.74L97,63l-.16-.37-.09-.2-.09-.2-.1-.2c0-.09-.07-.17-.11-.25l-.12-.24c-.15-.31-.31-.61-.47-.92l-.19-.35c-.18-.33-.37-.65-.57-1,0-.08-.09-.16-.15-.24a.64.64,0,0,0-.08-.14l-.15-.24-.06-.1-.2-.31c-.06-.1-.13-.2-.2-.3L94,57.5c-.09-.14-.19-.29-.3-.43l-.18-.26-.37-.51a5.82,5.82,0,0,0,4.31-.13,10.19,10.19,0,0,0,.73,1.51l.09.13a.83.83,0,0,0,.08.12l0,.06a.76.76,0,0,1,.08.11l.06.08.1.1a1.9,1.9,0,0,0,.19.21l.2.18.1.08h0l.09.06.13.09.05,0a4,4,0,0,0,.72.33l.12,0,.2.06.09,0,.28.06h0l.37.07a4.81,4.81,0,0,0-.24,4,4.88,4.88,0,0,0,2.69,2.89,4.21,4.21,0,0,0,.28,4.11,2.79,2.79,0,0,0,1.45,1.26l.08,0h0l.24,0h.1a2.06,2.06,0,0,1,.26,0,.43.43,0,0,0-.09-.13c-2.12-1.3-1.41-4.52.61-5.39a1.55,1.55,0,0,1,1.25-.07,2.34,2.34,0,0,0,3.18-1.42.54.54,0,0,0,0-.29,2.92,2.92,0,0,1-2.91.64A3.41,3.41,0,0,1,106,63.07a2.15,2.15,0,0,0,.23,2,2.56,2.56,0,0,1-3.38-.57,4.27,4.27,0,0,1-.8-4,2,2,0,0,1,.8-1.16,7.7,7.7,0,0,1,4.19-2.2,17.58,17.58,0,0,1,2.52-.16.87.87,0,0,0,.44-.11l-1.41-.41a10,10,0,0,0-3.53.39,1.34,1.34,0,0,0-.26.09,3.39,3.39,0,0,0-.41.15l-.18.07-.13,0-.11.05-.13.06-.18.09-.14.07-.13.07-.2.11-.19.12-.12.07h0a6.75,6.75,0,0,0-.57.41,1.06,1.06,0,0,1-.83.22,3.23,3.23,0,0,1-2.32-4.9,6.7,6.7,0,0,1,.63-.8A4.48,4.48,0,0,1,102,51.48a11.87,11.87,0,0,1,5.59-.19,1.35,1.35,0,0,0,.63,0c-.25-.16-.49-.33-.75-.48s-.54-.26-.82-.38c-.55-.09-1.1-.22-1.66-.27A8.54,8.54,0,0,0,98.73,52a2.76,2.76,0,0,1-2.11-2.78,3.85,3.85,0,0,1,.86-2.59,5,5,0,0,1,3.71-2.25A11.54,11.54,0,0,1,109,46.1l.18.12.13.1.26.18a7.79,7.79,0,0,1,.63.51l.19.16,0,0a1.07,1.07,0,0,1,.16.14l.14.13.13.12c.24.24.48.49.7.75l.08.08.13.16.09.11c.2.25.4.51.58.77l.17.26.2.31.12.2c.07.13.15.25.22.39l.11.19c.14.27.27.54.39.82A20,20,0,0,1,113.56,69.06Zm-85,24.07h0Z"/>
        <path class="cls-6" d="M28.56,93.14l.08.06-.07,0v-.09Z"/>
        <path class="cls-7" d="M53.12,57.89l-.06.09,0-.1Z"/>
        <path class="cls-8" d="M39.23,82.52c.67-.91,1.29-1.85,2-2.71a56.67,56.67,0,0,1,8.41-8L51.82,70h.12l1.52-1L53.41,69c-.64.17-1.28.32-1.91.51a22.42,22.42,0,0,0-4.18,1.89,22.44,22.44,0,0,0-4.4,3.08,30,30,0,0,0-4,4.41,2.38,2.38,0,0,1-.38.32A33.69,33.69,0,0,1,50.79,62.71a19.39,19.39,0,0,1,7.64-3.34,10.31,10.31,0,0,1,4.72.13,7.88,7.88,0,0,1,5.37,5.08,15.12,15.12,0,0,1,.94,5.24c0,.41,0,.82,0,1.23a5.49,5.49,0,0,0-.38.86,34.63,34.63,0,0,1-2.24,5.72c-.72,1.5-1.53,3-2.33,4.42a17.55,17.55,0,0,1-2.75,3.76A41.87,41.87,0,0,1,58.45,89c-1.28,1.1-2.63,2.12-4,3.1a54.71,54.71,0,0,1-8.68,4.94c-.86.4-1.73.8-2.61,1.15A64.86,64.86,0,0,1,36,100.64a11.07,11.07,0,0,1-3.56.59c.26-.26.5-.54.78-.77a45.08,45.08,0,0,1,6.88-4.68c3.15-1.78,6.35-3.46,9.53-5.19a4.6,4.6,0,0,0,.45-.32,5.54,5.54,0,0,0,.82-.24c1.18-.59,2.35-1.2,3.52-1.8a2.52,2.52,0,0,0,.33-.24,8,8,0,0,0-1.7.05c-1.18.13-2.36.23-3.53.4A29.45,29.45,0,0,0,44,89.82c-1.36.48-2.68,1.07-4,1.6-.12,0-.28.29-.43,0a55.68,55.68,0,0,1,6.28-4.86l5.09-3.5a3.33,3.33,0,0,0,.28-.25h0l.12-.15a4.12,4.12,0,0,0,.53-.18c.14-.09.25-.25.39-.34l4-2.52.52-.35H56a1.1,1.1,0,0,0-.26,0,30.9,30.9,0,0,0-6.17,1.86,37.62,37.62,0,0,0-7.1,4.16c-1.39,1-2.67,2.2-4,3.3a1.73,1.73,0,0,1-.39.18c.37-.56.7-1.14,1.11-1.67a47.61,47.61,0,0,1,7.52-7.63c1.9-1.58,3.9-3,5.86-4.54.14-.11.27-.25.41-.38a4.66,4.66,0,0,0,.73-.3c.44-.28.85-.59,1.27-.9.11-.08.21-.19.32-.28a3,3,0,0,0-1.22,0,14.69,14.69,0,0,0-3.82,1.39,34.76,34.76,0,0,0-4.92,3A37.37,37.37,0,0,0,41,81.06c-.42.41-.83.83-1.26,1.23A1.78,1.78,0,0,1,39.23,82.52Z"/>
        <path class="cls-9" d="M16.31,69.89a14.6,14.6,0,0,1,2.11-5.55,10,10,0,0,1,7.42-4.49,14.12,14.12,0,0,1,4.4.11,10.69,10.69,0,0,1,4.54,2.6c0-.1.06-.16,0-.22a26.81,26.81,0,0,0-1.34-4.91,9.72,9.72,0,0,0-3.56-4.36,10.29,10.29,0,0,0-4.75-1.56,13.12,13.12,0,0,0-5.62.71,14.38,14.38,0,0,0-4.88,2.89s-.16,0-.23,0a12.22,12.22,0,0,1,3.47-4.81A13.86,13.86,0,0,1,26,46.68,11.63,11.63,0,0,1,36.19,51c.36.4.67.85,1,1.27.11.13.24.24.36.36l1.65,4.57a3.42,3.42,0,0,0,.18-.5c.22-1.43.5-2.85.64-4.28a19.74,19.74,0,0,0-.27-4.85,21,21,0,0,0-1.14-4.23A13.11,13.11,0,0,0,26.36,34.5a3.49,3.49,0,0,1-.54-.12,12.73,12.73,0,0,1,8.24.46,15.08,15.08,0,0,1,6.86,5.72,24,24,0,0,1,3.56,8.55,34.79,34.79,0,0,1,.66,9.66c0,.19-.1.37-.12.56s0,.33,0,.66c.14-.23.23-.31.25-.41.22-1,.44-1.91.62-2.87a2.2,2.2,0,0,1,.49-1.09,11.22,11.22,0,0,0,2.37-5.08,11.4,11.4,0,0,0,.27-3.24,2.32,2.32,0,0,1,0-.42,9.18,9.18,0,0,1,1,2.78,25.14,25.14,0,0,1-.2,10.61,3.75,3.75,0,0,1-1.26,2,41.91,41.91,0,0,0-6.68,7.21,5.21,5.21,0,0,0-2.35.28c-.72.23-1.42.49-2.13.74h0c.26-.36.5-.73.78-1.08s.62-.76.93-1.13c-.09-.07-.12-.11-.15-.11a14.48,14.48,0,0,0-4.45.31,22.83,22.83,0,0,0-5.61,2.29A10.64,10.64,0,0,0,26,73.35,16.76,16.76,0,0,0,23.41,78c-.07.18.07.48-.26.53a15.77,15.77,0,0,1,3.29-10.06,5.61,5.61,0,0,1,2.88-1.91c.07,0,.12-.1.18-.15l5.13-.8A9.33,9.33,0,0,0,33,64.41,12.54,12.54,0,0,0,28.44,63a13.61,13.61,0,0,0-4.32.1,8.82,8.82,0,0,0-4.42,2.47,17.16,17.16,0,0,0-3,4A2.31,2.31,0,0,1,16.31,69.89Z"/>
        <path class="cls-7" d="M94.51,60.36A24,24,0,0,1,97.76,73a16.77,16.77,0,0,1-2.08,7.38,3.19,3.19,0,0,1-.26.38,5.69,5.69,0,0,0-.52.33c-.53.45-1,.93-1.58,1.36A48.6,48.6,0,0,1,87.93,86a20.72,20.72,0,0,1-4.43,2,24,24,0,0,1-5,1.09c-1.39.11-2.79.29-4.19.35a29.69,29.69,0,0,1-3-.12,9.94,9.94,0,0,1-1.11-.19,5.46,5.46,0,0,1,.2-.51c.23-.47.47-.93.69-1.4.59-1.23,1.25-2.44,1.73-3.71a20,20,0,0,0,1.07-4.84c.18-1.52.4-3,.5-4.56.11-1.84.11-3.69.15-5.53,0-.24,0-.48,0-.76l.4.16a8.8,8.8,0,0,0,4.16.42,3.33,3.33,0,0,0,2.64-1.76,1.18,1.18,0,0,1,.27.12,5.16,5.16,0,0,0,3.83.57,3.29,3.29,0,0,0,2.5-2.26c.06.08.14.15.15.22a23.31,23.31,0,0,1,.64,3.29,28,28,0,0,1-.1,4.09,10.62,10.62,0,0,1-2.17,5.46L86,79.29l-.18,0,0,.08L86,79.3a2.53,2.53,0,0,0,.38-.07,10.61,10.61,0,0,0,4.47-2.89,7,7,0,0,0,1.93-4.67c0-.73.06-1.45,0-2.19a14.34,14.34,0,0,0-.75-4.11,19.93,19.93,0,0,0-.93-2.07,1,1,0,0,1,.16,0,3.45,3.45,0,0,0,2.36-1.08,2.09,2.09,0,0,0,.71-1.48A.91.91,0,0,1,94.51,60.36Z"/>
        <path class="cls-10" d="M94.9,81.07c-.53.45-1,.93-1.58,1.36l-.29.22-.1.08-.47.36-.34.25-.28.19-.07,0-.32.23-.33.22c-.22.15-.44.3-.67.44a3.28,3.28,0,0,1-.31.2l-.07,0,0,0-.42.27-.42.26L89,85.4l-.34.21-.35.21-.35.21a20.72,20.72,0,0,1-4.43,2,24,24,0,0,1-5,1.09c-1.4.11-2.79.29-4.19.35a29.69,29.69,0,0,1-3-.12,9.94,9.94,0,0,1-1.11-.19,5.46,5.46,0,0,1,.2-.51c.23-.47.47-.93.69-1.4.59-1.23,1.25-2.44,1.73-3.71a20,20,0,0,0,1.07-4.84c.18-1.52.4-3,.5-4.56.11-1.84.11-3.69.15-5.53,0-.24,0-.48,0-.76l.4.16a8.8,8.8,0,0,0,4.16.42,3.33,3.33,0,0,0,2.64-1.76,1.18,1.18,0,0,1,.27.12,5.16,5.16,0,0,0,3.83.57,3.29,3.29,0,0,0,2.5-2.26c.06.08.14.15.15.22a23.31,23.31,0,0,1,.64,3.29c0,.08,0,.15,0,.23h0a2.09,2.09,0,0,0,0,.25v.74c0,1-.06,1.91-.14,2.87,0,0,0,.09,0,.14s0,.08,0,.12a1.49,1.49,0,0,1,0,.21h0l0,.17a1,1,0,0,1,0,.16c0,.07,0,.14,0,.22l-.06.28-.06.24h0a0,0,0,0,0,0,0l-.06.21c0,.09-.05.17-.07.25l0,.14a1.21,1.21,0,0,1,0,.14.24.24,0,0,1,0,.08l-.11.3-.06.15-.09.21c0,.07-.06.13-.08.19l-.08.15-.06.14c0,.07-.07.14-.11.2s-.07.14-.1.2h0c-.11.2-.23.39-.35.59v0l-.09.14-.08.13-.11.15-.06.1-.06.07a.35.35,0,0,1-.05.08l-.15.21L86,79.29h0a2.53,2.53,0,0,0,.38-.07l.29-.1.22-.09h0l.17-.07.19-.08.11,0,.22-.1.22-.11.14-.07h0l.14-.07h0l.11-.06.18-.1.18-.11.3-.19,0,0,0,0,.16-.11a2.48,2.48,0,0,0,.26-.19l.2-.15.21-.17.12-.1c.13-.11.27-.23.4-.36a1.59,1.59,0,0,0,.13-.13l0,0s.11-.1.16-.16l.21-.22a7,7,0,0,0,1.93-4.67c0-.73.06-1.45,0-2.19l0-.52c0-.1,0-.2,0-.29l0-.27,0-.23,0-.26,0-.16a.59.59,0,0,0,0-.13l0-.2,0-.14s0-.06,0-.09a1.16,1.16,0,0,1,0-.18l0-.2-.1-.4,0-.2a1.21,1.21,0,0,1,0-.18l-.06-.19a1.87,1.87,0,0,0-.07-.22,1.83,1.83,0,0,0-.08-.25,19.93,19.93,0,0,0-.93-2.07,1,1,0,0,1,.16,0,3.45,3.45,0,0,0,2.36-1.08,2.09,2.09,0,0,0,.71-1.48.91.91,0,0,1,.13-.33l-.83-1.6c-.29,1.18-.57,2.3-1.8,2.82a3.79,3.79,0,0,1-3.38-.52c0,.21-.1.37-.13.54a6.09,6.09,0,0,1-1.12,2.61A3.52,3.52,0,0,1,81.43,64l-.3-.42c-.81,2.12-2.22,3-3.87,2.93a4.58,4.58,0,0,1-4.47-3.66L70.7,64.58c.11.93.23,1.89.32,2.86a28.39,28.39,0,0,1-.49,8.82,29.19,29.19,0,0,1-6.62,13.13l.3.19c2.44,1.56,4.76,3.07,6.94,4.5.76-.06,1.51-.15,2.27-.27A37.9,37.9,0,0,0,86,89.62a29.31,29.31,0,0,0,4.57-3.09,23.46,23.46,0,0,0,2.84-2.8,12.7,12.7,0,0,0,2-3A5.69,5.69,0,0,0,94.9,81.07ZM89.73,63.41l.06.08h0v0h0l0,0,.08.06,0,0,.13.12a.74.74,0,0,1,.12.13l.11.12,0,.06.08.1,0,0,0,.06,0,0a2.61,2.61,0,0,1,.17.28l.09.16a.3.3,0,0,1,0,.08,1,1,0,0,1,.07.15h0a1.19,1.19,0,0,1,.08.2h0c0,.06,0,.13.08.2l.15.43.15.52.05.17,0,.15a2.5,2.5,0,0,1,.07.26,0,0,0,0,0,0,0c0,.11,0,.22.07.33v0c0,.06,0,.12,0,.18s0,.16,0,.23,0,.06,0,.09l0,.25,0,.15,0,.25s0,.1,0,.15a.28.28,0,0,0,0,.09c0,.07,0,.13,0,.2l0,.34a1.48,1.48,0,0,0,0,.21,11.87,11.87,0,0,1-.23,2.79l-.12.53-.09.33,0,.09-.09.28a13.67,13.67,0,0,1-.55,1.41l-.15.3c-.06.13-.13.25-.19.37l-.21.36a1.18,1.18,0,0,1-.11.19l-.15.24-.12.17-.14.19-.15.18c-.1.12-.2.24-.31.35a1.21,1.21,0,0,1-.16.16,2.35,2.35,0,0,1-.33.3l-.09.08,0,0-.09.07-.31.22-.13.08c-.17.11-.35.21-.54.31l-.15,0,.08-.12c.18-.31.38-.63.57-.94v0l.19-.32.18-.29c.08-.12.15-.25.23-.38s.09-.17.14-.26.13-.24.19-.36.11-.21.16-.31l.15-.32c.16-.34.31-.69.44-1l.09-.25c0-.08,0-.16.08-.24.11-.33.21-.66.3-1l.06-.22c0-.2.09-.39.13-.58l.06-.35v0l.06-.32v0a2.89,2.89,0,0,0,0-.29l0-.12,0-.3c0-.11,0-.21,0-.31a2.83,2.83,0,0,0,0-.29,1,1,0,0,0,0-.17,1.93,1.93,0,0,0,0-.24s0-.09,0-.13v-.62c0-.11,0-.23,0-.34s0-.2,0-.29,0-.07,0-.1,0-.19,0-.29l0-.17a2.11,2.11,0,0,0,0-.25c0-.11,0-.22-.05-.33v-.06c0-.1,0-.21,0-.32s0-.07,0-.1a1.85,1.85,0,0,0,0-.23.5.5,0,0,0,0-.12,1.06,1.06,0,0,0,0-.19,2.56,2.56,0,0,0,0-.27c0-.07,0-.14,0-.21s0-.08,0-.12l-.09-.39-.06-.2-.05-.2c-.09-.32-.12-.64-.18-1h-.1A.24.24,0,0,0,89.73,63.41Z"/>
        <path class="cls-11" d="M99.79,52.77A4.44,4.44,0,0,1,102,51.48a11.87,11.87,0,0,1,5.59-.19,1.35,1.35,0,0,0,.63,0c-.25-.16-.49-.33-.75-.48s-.54-.26-.82-.38a1.76,1.76,0,0,0-1.14-.88,9.71,9.71,0,0,0-2.23-.61,4.85,4.85,0,0,0-3.27.48.91.91,0,0,1-.67.05,1.28,1.28,0,0,1-.84-.67l-1-2.16a5,5,0,0,1,3.71-2.25A11.54,11.54,0,0,1,109,46.1a12.75,12.75,0,0,1,4.63,5.52,20,20,0,0,1-.11,17.44c-.17.35-.39.67-.59,1l-.08.11a.14.14,0,0,0,0,.09c-.23-.23-.4,0-.58.08a6,6,0,0,1-2.59.72,1.2,1.2,0,0,1-1.21-1.19,4.12,4.12,0,0,1,.39-1.82,1.24,1.24,0,0,1,1.11-.8,2.3,2.3,0,0,0,2.07-1.7,4.22,4.22,0,0,0-.15-3,3.53,3.53,0,0,1-.58.77,3.18,3.18,0,0,1-4.64-.56,17.44,17.44,0,0,1-.9-1.78,3.92,3.92,0,0,0-.87,2.13A2.31,2.31,0,0,1,103,61c-.09-.55-.09-1.12-.13-1.68a7.64,7.64,0,0,1,4.19-2.2,17.58,17.58,0,0,1,2.52-.16.87.87,0,0,0,.44-.11l-1.41-.41c0-.07-.09-.17-.16-.19a22.11,22.11,0,0,0-2.51-.56,4.34,4.34,0,0,0-2.63.53,1.46,1.46,0,0,1-2.16-.5l-.09-.09A3.2,3.2,0,0,1,100,53.21,1.64,1.64,0,0,0,99.79,52.77Z"/>
        <path class="cls-12" d="M102.86,59.32c0,.56,0,1.13.13,1.68a2.31,2.31,0,0,0,1.9,2.08,3.92,3.92,0,0,1,.87-2.13,17.44,17.44,0,0,0,.9,1.78,3.18,3.18,0,0,0,4.64.56,3.53,3.53,0,0,0,.58-.77,4.22,4.22,0,0,1,.15,3,2.3,2.3,0,0,1-2.07,1.7,1.24,1.24,0,0,0-1.11.8,4.12,4.12,0,0,0-.39,1.82,1.2,1.2,0,0,0,1.21,1.19,6,6,0,0,0,2.59-.72c.18-.07.35-.31.58-.08a10.64,10.64,0,0,1-2.57,3.09,25.31,25.31,0,0,1-9.59,5.09,6.18,6.18,0,0,1-2.66.19c2.24-8.25.12-15.57-4.9-22.34a5.82,5.82,0,0,0,4.31-.13c.93,2.3,1.75,3,3.76,3.35a5,5,0,0,0,2.45,6.85,4.21,4.21,0,0,0,.28,4.11,2.79,2.79,0,0,0,1.45,1.26,4.64,4.64,0,0,0,.76.11l.09.05-.11,0a.5.5,0,0,0-.1-.14c-2.12-1.3-1.4-4.52.61-5.39a1.55,1.55,0,0,1,1.25-.07,2.34,2.34,0,0,0,3.18-1.42.54.54,0,0,0,0-.29,3,3,0,0,1-2.91.64A3.41,3.41,0,0,1,106,63.07a2.15,2.15,0,0,0,.23,2,2.56,2.56,0,0,1-3.38-.57,4.27,4.27,0,0,1-.8-4A2,2,0,0,1,102.86,59.32Z"/>
        <path class="cls-10" d="M23.15,78.49c.33,0,.19-.35.26-.53A16.76,16.76,0,0,1,26,73.35a10.64,10.64,0,0,1,2.94-2.53,22.83,22.83,0,0,1,5.61-2.29A14.48,14.48,0,0,1,39,68.22s.06,0,.15.11c-.31.37-.64.74-.93,1.13s-.52.72-.78,1.08l-.19,0,0,.08.15-.12c.71-.25,1.41-.51,2.13-.74a5.21,5.21,0,0,1,2.35-.28c-.42.7-.8,1.44-1.28,2.11a28.65,28.65,0,0,0-4.36,9.69q-.3,1.17-.57,2.34A7.06,7.06,0,0,1,35,85.61,6.5,6.5,0,0,0,34.15,89a5,5,0,0,1,0,1,20.83,20.83,0,0,1-1.58-17.7c-.61.41-1.1.71-1.55,1.06A12.38,12.38,0,0,0,26.74,80a20,20,0,0,0-.56,7.11c.08.94.18,1.89.19,2.89-.37-.66-.76-1.3-1.1-2a20.89,20.89,0,0,1-2.16-9.31A2.34,2.34,0,0,1,23.15,78.49Z"/>
        <path class="cls-13" d="M57.52,29.92c-1,1.14-2.06,2.28-3.11,3.42s-1.91,2.07-2.9,3.08a2.6,2.6,0,0,1-1.5.84,4.87,4.87,0,0,1,.16-2.12,11.91,11.91,0,0,1,2.6-4.54,23.74,23.74,0,0,1,8.41-6,1.33,1.33,0,0,1,.94-.07c.37.09.76.12,1.23.19a7.48,7.48,0,0,0-1.45-1.51c-.38-.36-.79-.68-1.15-1.06-.54-.57-.47-1,.23-1.33a7.11,7.11,0,0,1,8.09.9A10,10,0,0,1,72.16,27c.14.55.22,1.12.33,1.7-.69-.46-1.33-.87-1.94-1.3a1.23,1.23,0,0,1-.34-.46,6,6,0,0,0-1.51-2,3,3,0,0,0-3.79-.22,5.71,5.71,0,0,0-2.22,3.2,1.29,1.29,0,0,1-.49.72,8.52,8.52,0,0,0-2.41,3.28A18.89,18.89,0,0,0,58,39a11.36,11.36,0,0,0,.4,3.85,1.53,1.53,0,0,1,0,.52A13.54,13.54,0,0,1,57.79,47a4.5,4.5,0,0,1-.6,1.15,1.14,1.14,0,0,1-1.89.18A4.85,4.85,0,0,1,54.43,47a10.58,10.58,0,0,1-.8-3.47c-.07-1-.13-2-.11-3a11.48,11.48,0,0,1,.74-4.14,21.38,21.38,0,0,1,1-2c.63-1.12,1.28-2.22,1.89-3.35a7.44,7.44,0,0,0,.4-1l0-.15Zm14.26-2.59,0,.31.09,0-.14-.27a6.14,6.14,0,0,0-.23-.94,12.9,12.9,0,0,0-2.07-3.57,6.18,6.18,0,0,0-6.14-2.22,12.74,12.74,0,0,0-1.68.47c-.23.06-.47.24-.28.45a4.5,4.5,0,0,0,1.12.87c.16.09.47,0,.71-.12a5.83,5.83,0,0,1,4.76.4,6.7,6.7,0,0,1,2.25,2.21C70.76,25.69,71.26,26.52,71.78,27.33ZM51.41,35l.15.11a1.67,1.67,0,0,1,.12-.23c.7-.94,1.36-1.9,2.1-2.81a16.58,16.58,0,0,1,2.75-2.74,38.21,38.21,0,0,1,4.93-3.11,2.69,2.69,0,0,0,.91-1,1,1,0,0,0-1.14-.1,32,32,0,0,0-4.13,2.57,17.9,17.9,0,0,0-4.67,4.91A7.47,7.47,0,0,0,51.41,35Zm-.09.27,0,0v0Z"/>
        <path class="cls-14" d="M62.89,35.47c0-1.23,0-2.47.16-3.7a9.28,9.28,0,0,1,1.28-4.18,4.27,4.27,0,0,1,1.37-1.37,2.23,2.23,0,0,1,3.13.48,9.7,9.7,0,0,1,1.37,2.35c.17.39.35.77.53,1.16l0,.3.08,0-.12-.29-.13-1.95c.85.79,1.88,1.21,2.27,2.34a3.11,3.11,0,0,0,.6-1.76c.07-.69.09-1.39.13-2.08A1.66,1.66,0,0,1,76,25.29a4.22,4.22,0,0,1,1.34,1.11,12.68,12.68,0,0,1,2.38,5.91c0,.13,0,.26,0,.39a1.08,1.08,0,0,1,0,.2L79,33c0-.24-.11-.46-.16-.69a6.33,6.33,0,0,0-1.73-3.5,1.83,1.83,0,0,0-1.41-.56c-.51.05-.79.35-.89,1,.37-.15.59-.62,1.07-.46a1.87,1.87,0,0,1,.91.74c-1,0-1.33.22-1.64,1.15a5.83,5.83,0,0,0,.1,3.46,2.46,2.46,0,0,0,.09.29c0,.06,0,.12-.08.13a1.54,1.54,0,0,0-.88,1.24,6.81,6.81,0,0,1-3.05,4.52,5,5,0,0,1-4.16.39,3.15,3.15,0,0,1,2.48-.78,2.65,2.65,0,0,0-3.42.24,3,3,0,0,0-.76,3.77,4.54,4.54,0,0,1,1.27-2.94,7,7,0,0,0,2.75,3.86l-.2,2.75-.71-.16L68,47.16A10.48,10.48,0,0,1,65,45.64a3.84,3.84,0,0,1-1.49-2c0-.24,0-.48,0-.72A4.59,4.59,0,0,1,67,38.55a7.53,7.53,0,0,1,4,0l.67.18.07-.12-1.09-.83a4,4,0,0,0-3.64-6.28c.65-.76,1.5-.65,2.35-.67a2.24,2.24,0,0,0-.69-.44,2.53,2.53,0,0,0-2.59.6,6.1,6.1,0,0,0-1.52,6.68c.11.23.24.45.37.68l-.74.58A10.39,10.39,0,0,1,62.89,35.47Zm15.53-6,.07.21.08,0-.11-.21a.74.74,0,0,0,0-.26,8.33,8.33,0,0,0-1.8-3,2.59,2.59,0,0,0-1-.6,1.09,1.09,0,0,0-1.56.71,3.5,3.5,0,0,0,0,1.79c.21-.36.35-.74.55-1.09a.87.87,0,0,1,1.12-.38,1.88,1.88,0,0,1,.67.39,10.43,10.43,0,0,1,1,1.09C77.79,28.51,78.1,29,78.42,29.44ZM63.65,31.79l.14,0c.05-.14.11-.28.17-.41a8.61,8.61,0,0,1,2.11-3.17,1.91,1.91,0,0,1,2.05-.4,8.91,8.91,0,0,1,1.21.74l.31.17.12-.13a14.42,14.42,0,0,0-1-1.4,1.82,1.82,0,0,0-2.62-.29C64.37,28.1,64,29.94,63.65,31.79ZM74.73,29.5a.28.28,0,0,0,0-.12s0,0-.07-.07a.56.56,0,0,0,0,.12Zm-5-.59,0,0a.07.07,0,0,0,0,.05l0,0A.09.09,0,0,0,69.77,28.91Zm-6.14,3.16,0,0h0Zm6-1.15,0,0s0,0-.05,0l0,0S69.64,30.93,69.66,30.92Z"/>
        <path class="cls-12" d="M68.57,47.39l.71.16a14.33,14.33,0,0,0,1.19,5.55,8.82,8.82,0,0,0,2.94,3.73,5.32,5.32,0,0,0,4.51.83,3.64,3.64,0,0,0,1.78-1.22c.32.32.65.62.94,1,.81,1,1.58,1.94,2.41,2.89a4.56,4.56,0,0,0,1.81,1.53c.47.17.67.11.94-.28a1.42,1.42,0,0,0,.21-.47,11.65,11.65,0,0,0,.24-1.66,10.41,10.41,0,0,0-.11-1.67c-.1-.81-.22-1.62-.37-2.42-.1-.53-.26-1-.39-1.57l.12-.07c.46.35.92.7,1.36,1.07a11.77,11.77,0,0,1,2,2.4,2.17,2.17,0,0,0,2.62,1c.12,0,.26,0,.39,0a9,9,0,0,1,.27,1.33,1.11,1.11,0,0,1-1,1.18,3,3,0,0,1-2.6-.91c-.12-.1-.15-.3-.21-.46-.43-1-.84-2.05-1.28-3.06a4.76,4.76,0,0,0-.47-.73l-.12.06a2.81,2.81,0,0,0,.08.31,10.72,10.72,0,0,1,.5,5.58,5,5,0,0,1-.53,1.45,2,2,0,0,1-3.22.59A10.47,10.47,0,0,1,82,62.09c-.49-.57-.94-1.17-1.46-1.83-.2.68-.35,1.24-.55,1.78a5.14,5.14,0,0,1-1.29,2.08,2.37,2.37,0,0,1-3.35.06,6.2,6.2,0,0,1-1.73-3.08c-.15-.52-.23-1.05-.36-1.68A4.71,4.71,0,0,1,70,62.74a12.16,12.16,0,0,0-2.52-3.53l.57.06a4.77,4.77,0,0,0,2.19-.1,3.17,3.17,0,0,0,2-1.67.54.54,0,0,0-.1-.69A15.77,15.77,0,0,1,69.53,53,9.57,9.57,0,0,1,68.57,47.39Z"/>
        <path class="cls-12" d="M69.47,71.05a23.57,23.57,0,0,1-2.16,10,27.75,27.75,0,0,1-5.07,7.51l-1.55,1c-6,3.83-11.18,7.29-15.52,10.18a53.32,53.32,0,0,1-8.91,2.71,17.41,17.41,0,0,1-4.07.47c-.29,0-.59-.07-.93-.11a3.66,3.66,0,0,1,1.19-1.59,11,11,0,0,0,3.55-.59,64.32,64.32,0,0,0,7.17-2.43c.88-.35,1.75-.75,2.61-1.15a54.71,54.71,0,0,0,8.68-4.94c1.36-1,2.71-2,4-3.1a41.87,41.87,0,0,0,3.32-3.21,17.55,17.55,0,0,0,2.75-3.76c.8-1.46,1.61-2.92,2.33-4.42a34.63,34.63,0,0,0,2.24-5.72A5.93,5.93,0,0,1,69.47,71.05Z"/>
        <path class="cls-15" d="M91.86,58.13c-.13,0-.27,0-.39,0a2.17,2.17,0,0,1-2.62-1,11.77,11.77,0,0,0-2-2.4c-.44-.37-.9-.72-1.36-1.07l-.12.07c.13.52.29,1,.39,1.57.15.8.27,1.61.37,2.42a10.41,10.41,0,0,1,.11,1.67A11.65,11.65,0,0,1,86,61.07a1.42,1.42,0,0,1-.21.47c-.27.39-.47.45-.94.28a4.56,4.56,0,0,1-1.81-1.53c-.83-.95-1.6-1.93-2.41-2.89-.29-.34-.62-.64-.94-1A5.72,5.72,0,0,0,80.23,53l.61-.17a5.71,5.71,0,0,0,3.93-3.14,3.31,3.31,0,0,0,.33-2.33,2,2,0,0,0-2.72-1.47c-.5.19-1,.47-1.47.68a1.54,1.54,0,0,1-1.6,0,16.32,16.32,0,0,0,2.41-3.93c.81.76,1.58,1.46,2.31,2.19a30.27,30.27,0,0,1,5.59,7.48A26.5,26.5,0,0,1,91.86,58.13Z"/>
        <path class="cls-9" d="M68.57,47.39a9.57,9.57,0,0,0,1,5.61,15.77,15.77,0,0,0,2.55,3.81.54.54,0,0,1,.1.69,3.17,3.17,0,0,1-2,1.67,4.77,4.77,0,0,1-2.19.1l-.57-.06-1.68-1.06c.09-.79.23-1.57.28-2.37a17.71,17.71,0,0,0,.08-3.17,12.09,12.09,0,0,0-2.69-6,23.5,23.5,0,0,1-1.78-2.23,28.52,28.52,0,0,1-1.33-2.72c-.1-.21-.21-.41-.32-.61a.11.11,0,0,1,0-.1l0-.3a16.42,16.42,0,0,1,.86-7.55,6.59,6.59,0,0,1,1.72-2.55V31a15.11,15.11,0,0,0,.24,4.14,1.54,1.54,0,0,0,.11.3,10.39,10.39,0,0,0,1.36,3.43,4.46,4.46,0,0,0-.71,4.76,3.84,3.84,0,0,0,1.49,2A10.48,10.48,0,0,0,68,47.16Z"/>
        <path class="cls-16" d="M67.62,41.54c.39.05.77.12,1.16.16a5.24,5.24,0,0,0,4.52-1.88,8.77,8.77,0,0,0,2-4.12,1,1,0,0,1,.64-.8,11.58,11.58,0,0,1,4.08-1,4.51,4.51,0,0,1,4.22,2.34c.23.39.41.81.64,1.27a7.47,7.47,0,0,0-3.44,1.39c-1.28.81-2.55,1.66-3.86,2.43a10.63,10.63,0,0,1-6.74,1.56c-.55-.06-1.1-.18-1.66-.23a4.9,4.9,0,0,0,2.52.9A12.12,12.12,0,0,0,78.46,42c.79-.41,1.53-.9,2.4-1.41-.07.37-.12.65-.19.94A9.67,9.67,0,0,1,79.07,45,1.62,1.62,0,0,1,78,45.7a10.72,10.72,0,0,1-7.07-1.13,9.82,9.82,0,0,1-3.29-3Zm8.58-4.37c.52-.39.69-.6.76-.92s0-.48-.25-.57-.47.08-.5.42S76.2,36.74,76.2,37.17Z"/>
        <path class="cls-13" d="M75.94,50.59a3.17,3.17,0,0,0,2,1.79c.3.12.62.18.93.28a.85.85,0,0,1,.66.92,3,3,0,0,1-3.82,2.93,5.78,5.78,0,0,1-3.26-2.46,14.92,14.92,0,0,1-2.19-5.53,10.92,10.92,0,0,1-.21-3.3l.73.45a9.73,9.73,0,0,0,4.41,1.23c.93.05,1.86,0,2.8,0a.69.69,0,0,1,.63.24,1.75,1.75,0,0,0,2,.47,18.61,18.61,0,0,0,1.75-.68,1.19,1.19,0,0,1,1.35.07A1.3,1.3,0,0,1,84,48.38a3.94,3.94,0,0,1-2.09,2.68,6.33,6.33,0,0,1-2.6.78,4.19,4.19,0,0,1-2.79-.92c-.16-.13-.34-.25-.52-.37l-.14-.22-.08.05Zm2-2.89-.09-.05.09.05a1.54,1.54,0,0,0,.8,1,5.1,5.1,0,0,0,2.16.83c.49.09,1,.19,1.09.81a2.42,2.42,0,0,0,1.31-2.3c0-.63-.35-.85-.94-.65a4.41,4.41,0,0,0-.59.26A3.67,3.67,0,0,1,77.92,47.7ZM74.27,48h-.12a3.35,3.35,0,0,1-.05.71,4.91,4.91,0,0,0,2,5A1.89,1.89,0,0,1,77,55.51a1,1,0,0,0,0,.24,1.68,1.68,0,0,0,1.76-1.17c.38-.82.24-1.2-.58-1.5A1.33,1.33,0,0,0,78,53a4.49,4.49,0,0,1-3-2.82c-.09-.22-.17-.44-.24-.67C74.6,49,74.44,48.54,74.27,48Z"/>
        <path class="cls-10" d="M14.44,55.11c.07,0,.19,0,.23,0a14.38,14.38,0,0,1,4.88-2.89,13.12,13.12,0,0,1,5.62-.71,10.29,10.29,0,0,1,4.75,1.56,9.72,9.72,0,0,1,3.56,4.36,26.81,26.81,0,0,1,1.34,4.91c0,.06,0,.12,0,.22A10.69,10.69,0,0,0,30.24,60a3.94,3.94,0,0,0-.73-2.05,7.8,7.8,0,0,0-5-3.53,9.79,9.79,0,0,0-8.82,2.16c-.69.56-1.28,1.22-2,1.89A8.64,8.64,0,0,1,14.44,55.11Z"/>
        <path class="cls-10" d="M16.31,69.89a2.31,2.31,0,0,0,.37-.4,17.16,17.16,0,0,1,3-4,8.82,8.82,0,0,1,4.42-2.47,13.61,13.61,0,0,1,4.32-.1A12.54,12.54,0,0,1,33,64.41a9.33,9.33,0,0,1,1.65,1.16l-5.13.8c-.49-.13-1-.29-1.45-.38a7,7,0,0,0-4.59.84,14,14,0,0,0-4,3.25,22.56,22.56,0,0,0-3.34,5.12c-.06.11-.11.23-.17.34s0,0-.1,0A26.42,26.42,0,0,1,16.31,69.89Z"/>
        <path class="cls-10" d="M25.82,34.38a3.49,3.49,0,0,0,.54.12,13.11,13.11,0,0,1,12.26,8.83,21,21,0,0,1,1.14,4.23A19.74,19.74,0,0,1,40,52.41c-.14,1.43-.42,2.85-.64,4.28a3.42,3.42,0,0,1-.18.5l-1.65-4.57c0-1.07,0-2.14-.13-3.19a17.85,17.85,0,0,0-6.62-12.22A9.62,9.62,0,0,0,24.08,35,5.37,5.37,0,0,1,25.82,34.38Z"/>
        <path class="cls-10" d="M39.52,91.44c.15.27.31,0,.43,0,1.35-.53,2.67-1.12,4-1.6a29.45,29.45,0,0,1,5.55-1.38c1.17-.17,2.35-.27,3.53-.4a8,8,0,0,1,1.7-.05,2.52,2.52,0,0,1-.33.24c-1.17.6-2.34,1.21-3.52,1.8a5.54,5.54,0,0,1-.82.24c-.66.21-1.33.38-2,.62A60.42,60.42,0,0,0,36,97c-.69.46-1.34,1-2,1.45l-.1-.11a21.43,21.43,0,0,1,3.74-5C38.22,92.63,38.88,92,39.52,91.44Z"/>
        <path class="cls-10" d="M38.07,88.82a1.73,1.73,0,0,0,.39-.18c1.33-1.1,2.61-2.28,4-3.3a37.62,37.62,0,0,1,7.1-4.16,30.9,30.9,0,0,1,6.17-1.86,1.1,1.1,0,0,1,.26,0h.72l-.52.35-4,2.52c-.14.09-.25.25-.39.34a4.12,4.12,0,0,1-.53.18l-.12.15h0a1.77,1.77,0,0,0-.46.08,40.83,40.83,0,0,0-14,9.51l-.28.24A8.4,8.4,0,0,1,37.93,89l.16-.18Z"/>
        <path class="cls-12" d="M80.74,93.21a8.3,8.3,0,0,1-1.94,4.64,3.92,3.92,0,0,1-.88.71c-1.61-1.08-3.34-2.22-5.16-3.42A46.77,46.77,0,0,0,80.74,93.21Z"/>
        <path class="cls-12" d="M60,41c.11.2.22.4.32.61a28.52,28.52,0,0,0,1.33,2.72,23.5,23.5,0,0,0,1.78,2.23,12.09,12.09,0,0,1,2.69,6,17.71,17.71,0,0,1-.08,3.17c0,.8-.19,1.58-.28,2.37-.62-.18-1.24-.39-1.87-.53s-1.24-.17-1.94-.26c.15-.24.3-.44.42-.65a29,29,0,0,0,1.35-2.59,5.2,5.2,0,0,0-.27-4.7c-.46-.81-1-1.59-1.5-2.36a9.36,9.36,0,0,1-1.74-3.82C60.12,42.51,60.08,41.78,60,41Z"/>
        <path class="cls-17" d="M39.23,82.52a1.78,1.78,0,0,0,.48-.23c.43-.4.84-.82,1.26-1.23a37.37,37.37,0,0,1,4.36-3.58,34.76,34.76,0,0,1,4.92-3,14.69,14.69,0,0,1,3.82-1.39,3,3,0,0,1,1.22,0c-.11.09-.21.2-.32.28-.42.31-.83.62-1.27.9a4.66,4.66,0,0,1-.73.3,6.75,6.75,0,0,0-.68.2,35.67,35.67,0,0,0-7.81,5,40.64,40.64,0,0,0-7.49,8l-.6.88a3.87,3.87,0,0,1,.08-.52A17.69,17.69,0,0,1,39,82.83l.08.08,0-.12v0l.14-.27Z"/>
        <path class="cls-18" d="M100,37.22a7.2,7.2,0,0,1,2-3.53,1.38,1.38,0,0,1,1.34-.48,11.85,11.85,0,0,0,1.48,9.49l-2.91-.18a14.9,14.9,0,0,1-1.66-4.1C100.11,38,100,37.62,100,37.22Z"/>
        <path class="cls-12" d="M38.52,79.17a2.38,2.38,0,0,0,.38-.32,30,30,0,0,1,4-4.41,22.44,22.44,0,0,1,4.4-3.08,22.42,22.42,0,0,1,4.18-1.89c.63-.19,1.27-.34,1.91-.51l.05.12-1.52,1-.09-.12,0,.13h0a3.63,3.63,0,0,0-.59.14,23.57,23.57,0,0,0-5.36,3.53A52.05,52.05,0,0,0,38,82.09c-.13.18-.27.34-.4.5l-.11-.09Z"/>
        <path class="cls-17" d="M97.48,46.63l1,2.16a1.28,1.28,0,0,0,.84.67.91.91,0,0,0,.67-.05,4.85,4.85,0,0,1,3.27-.48,9.71,9.71,0,0,1,2.23.61,1.76,1.76,0,0,1,1.14.88c-.55-.09-1.1-.22-1.66-.27A8.54,8.54,0,0,0,98.73,52a2.76,2.76,0,0,1-2.11-2.78A3.85,3.85,0,0,1,97.48,46.63Z"/>
        <path class="cls-17" d="M99.79,52.77a1.64,1.64,0,0,1,.18.44,3.2,3.2,0,0,0,1.08,2.42l.09.09a1.46,1.46,0,0,0,2.16.5,4.34,4.34,0,0,1,2.63-.53,22.11,22.11,0,0,1,2.51.56c.07,0,.11.12.16.19a10,10,0,0,0-3.53.39,8.42,8.42,0,0,0-2.76,1.42,1.06,1.06,0,0,1-.83.22,3.23,3.23,0,0,1-2.32-4.9A6.7,6.7,0,0,1,99.79,52.77Z"/>
        <path class="cls-17" d="M100,37.22c.07.4.15.8.21,1.2a14.9,14.9,0,0,0,1.66,4.1l-2,.36A9.13,9.13,0,0,1,100,37.22Z"/>
        <path class="cls-19" d="M75.72,31.07a3.19,3.19,0,0,1,.13-.44c.32-.81.9-.91,1.47-.24a5,5,0,0,1,1,2.45c0,.11-.13.25-.2.39-.11-.07-.16-.09-.17-.12-.26-.7-.26-.7-1-.69h-.32a1.21,1.21,0,0,1-.19-.1l.58-.74C76.5,31.06,76.5,31.06,75.72,31.07Z"/>
        <path class="cls-12" d="M37.61,82.59l-.1.19-.07,0,.06-.25Z"/>
        <path class="cls-12" d="M60,40.64l0,.3Z"/>
        <path class="cls-8" d="M39.25,82.54l-.14.27Z"/>
        <path class="cls-8" d="M39.12,82.79l0,.12L39,82.83A.07.07,0,0,1,39.12,82.79Z"/>
        <path class="cls-8" d="M38.09,88.81l-.16.18Z"/>
        <path class="cls-10" d="M34,98.41l-.13.09,0-.2Z"/>
        <path class="cls-5" d="M35.16,47.25l0,.14-.11-.06Z"/>
        <path class="cls-5" d="M52.14,38.12l.15,0-.08.08Z"/>
        <path class="cls-12" d="M112.89,70.18l.08-.11Z"/>
        <path class="cls-16" d="M67.59,41.58l-.09-.08.12,0Z"/>
        <path class="cls-6" d="M51.81,70l0-.13.09.12Z"/>
        <path class="cls-6" d="M51.15,82.84l.12-.15Z"/>
        <path class="cls-10" d="M86,79.3l-.16.12,0-.08.18,0Z"/>
        <path class="cls-20" d="M89.8,63.5a4.58,4.58,0,0,1,1.4,2.29,12,12,0,0,1-1,10.08,6.3,6.3,0,0,1-2.68,2.58l-.07-.08c.5-.85,1.06-1.69,1.51-2.57a15,15,0,0,0,1-11.32c-.09-.32-.12-.66-.18-1Z"/>
        <path class="cls-20" d="M89.81,63.49h-.1l0-.08.07.09Z"/>
        <path class="cls-20" d="M87.51,78.45l-.15,0,.08-.12Z"/>
        <path class="cls-6" d="M106.11,71.86l.11,0-.09-.05Z"/>
        <path class="cls-9" d="M37.44,70.55l-.15.12,0-.08.19,0Z"/>
        <path class="cls-21" d="M51.41,35a7.47,7.47,0,0,1,1-2.42,17.9,17.9,0,0,1,4.67-4.91,32,32,0,0,1,4.13-2.57,1,1,0,0,1,1.14.1,2.69,2.69,0,0,1-.91,1,38.21,38.21,0,0,0-4.93,3.11A16.58,16.58,0,0,0,53.78,32c-.74.91-1.4,1.87-2.1,2.81a1.67,1.67,0,0,0-.12.23Z"/>
        <path class="cls-21" d="M71.78,27.33c-.52-.81-1-1.64-1.56-2.45A6.7,6.7,0,0,0,68,22.67a5.83,5.83,0,0,0-4.76-.4c-.24.08-.55.21-.71.12a4.5,4.5,0,0,1-1.12-.87c-.19-.21,0-.39.28-.45a12.74,12.74,0,0,1,1.68-.47,6.18,6.18,0,0,1,6.14,2.22,12.9,12.9,0,0,1,2.07,3.57,6.14,6.14,0,0,1,.23.94Z"/>
        <path class="cls-21" d="M71.78,27.33l.14.27-.09,0,0-.31Z"/>
        <polygon class="cls-21" points="51.32 35.22 51.36 35.21 51.35 35.25 51.32 35.22"/>
        <path class="cls-6" d="M57.52,29.92l.12-.08,0,.15Z"/>
        <path class="cls-6" d="M82,107.68v.07l-.08,0Z"/>
        <path class="cls-22" d="M63.54,43.66a4.46,4.46,0,0,1,.71-4.76l.74-.58c-.13-.23-.26-.45-.37-.68A6.1,6.1,0,0,1,66.14,31a2.53,2.53,0,0,1,2.59-.6,2.24,2.24,0,0,1,.69.44c-.85,0-1.7-.09-2.35.67a4,4,0,0,1,3.64,6.28l1.09.83-.07.12-.67-.18a7.53,7.53,0,0,0-4,0,4.59,4.59,0,0,0-3.44,4.39C63.55,43.18,63.55,43.42,63.54,43.66ZM66,37.88a4.81,4.81,0,0,1,3-.42A1,1,0,0,0,70,37a3.23,3.23,0,0,0-1.69-4.9,2,2,0,0,0-2.55,1.07A5.86,5.86,0,0,0,65.31,35,4.77,4.77,0,0,0,66,37.88Zm1-6.33,0,0s0,0,0,0l0,0Z"/>
        <path class="cls-23" d="M63.65,31.79c.34-1.85.72-3.69,2.46-4.85a1.82,1.82,0,0,1,2.62.29,14.42,14.42,0,0,1,1,1.4l-.12.13-.31-.17a8.91,8.91,0,0,0-1.21-.74,1.91,1.91,0,0,0-2.05.4A8.61,8.61,0,0,0,64,31.42c-.06.13-.12.27-.17.41Z"/>
        <path class="cls-23" d="M78.42,29.44c-.32-.46-.63-.93-1-1.37a10.43,10.43,0,0,0-1-1.09,1.88,1.88,0,0,0-.67-.39.87.87,0,0,0-1.12.38c-.2.35-.34.73-.55,1.09a3.5,3.5,0,0,1,0-1.79,1.09,1.09,0,0,1,1.56-.71,2.59,2.59,0,0,1,1,.6,8.33,8.33,0,0,1,1.8,3,.74.74,0,0,1,0,.26Z"/>
        <path class="cls-6" d="M70.74,30.2l.12.29-.08,0,0-.3Z"/>
        <path class="cls-6" d="M74.73,29.5l-.07-.07a.56.56,0,0,1,0-.12s.07.05.07.07A.28.28,0,0,1,74.73,29.5Z"/>
        <path class="cls-23" d="M78.46,29.4l.11.21-.08,0-.07-.21Z"/>
        <path class="cls-23" d="M69.77,28.91a.09.09,0,0,1,0,.05l0,0a.07.07,0,0,1,0-.05Z"/>
        <polygon class="cls-23" points="63.63 32.07 63.63 32.1 63.61 32.1 63.63 32.07"/>
        <path class="cls-22" d="M69.66,30.92s0,0,0,0l0,0s0,0,.05,0Z"/>
        <path class="cls-20" d="M76.2,37.17c0-.43,0-.75,0-1.07s.24-.51.5-.42.31.31.25.57S76.72,36.78,76.2,37.17Z"/>
        <path class="cls-21" d="M74.27,48c.17.51.33,1,.5,1.51.07.23.15.45.24.67A4.49,4.49,0,0,0,78,53a1.33,1.33,0,0,1,.19,0c.82.3,1,.68.58,1.5A1.68,1.68,0,0,1,77,55.75a1,1,0,0,1,0-.24,1.89,1.89,0,0,0-.93-1.81,4.91,4.91,0,0,1-2-5,3.35,3.35,0,0,0,.05-.71Z"/>
        <path class="cls-21" d="M77.92,47.7a3.67,3.67,0,0,0,3.83,0,4.41,4.41,0,0,1,.59-.26c.59-.2.9,0,.94.65A2.42,2.42,0,0,1,82,50.38c-.13-.62-.6-.72-1.09-.81a5.1,5.1,0,0,1-2.16-.83,1.54,1.54,0,0,1-.8-1Z"/>
        <path class="cls-6" d="M75.94,50.59l-.18-.21.08-.05.14.22Z"/>
        <path class="cls-21" d="M77.92,47.7l-.09-.05.09.05Z"/>
        <path class="cls-24" d="M66,37.88A4.77,4.77,0,0,1,65.31,35a5.86,5.86,0,0,1,.45-1.75,2,2,0,0,1,2.55-1.07A3.23,3.23,0,0,1,70,37a1,1,0,0,1-1,.42A4.81,4.81,0,0,0,66,37.88Zm2.87-4.08a1.44,1.44,0,0,0-1.76-.16,1.81,1.81,0,0,0-.86,1.78,1.52,1.52,0,0,0,3,.19,7.28,7.28,0,0,0,.09-1l-1.19.18L68,34.69Z"/>
        <path class="cls-14" d="M66.9,31.55l0,0,0,0s0,0,0,0Z"/>
        <path class="cls-20" d="M68.82,33.8l-.8.89.08.14,1.19-.18a7.28,7.28,0,0,1-.09,1,1.52,1.52,0,0,1-3-.19,1.81,1.81,0,0,1,.86-1.78A1.44,1.44,0,0,1,68.82,33.8Z"/>
      </g>
    </g>
  </g>
</svg>
