<?xml version="1.0" encoding="utf-8"?>
<!-- Generator: Adobe Illustrator 26.3.1, SVG Export Plug-In . SVG Version: 6.00 Build 0)  -->
<svg version="1.1" id="Capa_1" xmlns="http://www.w3.org/2000/svg" xmlns:xlink="http://www.w3.org/1999/xlink" x="0px" y="0px"
	 viewBox="0 0 760.6 723.7" style="enable-background:new 0 0 760.6 723.7;" xml:space="preserve">
<style type="text/css">
	.st0{opacity:8.000000e-02;}
	.st1{fill:#191919;}
	.st2{fill:#FFFFFF;}
	.st3{fill:#3868AF;}
	.st4{fill:#3162AB;}
	.st5{fill:#CFCFD1;}
	.st6{fill:#040505;}
	.st7{fill:#FFFFFD;}
	.st8{fill:#FDFDFD;}
	.st9{fill:#FCFCFC;}
	.st10{fill:#C9C8AD;}
	.st11{fill:#FDFFFC;}
	.st12{fill:#C8C7AC;}
	.st13{fill:#E42227;}
	.st14{fill:#E42026;}
	.st15{fill:#FBFBFB;}
	.st16{fill:#F8DB01;}
	.st17{fill:#FBFBFA;}
	.st18{fill:#EEEEEE;}
	.st19{fill:#080909;}
	.st20{fill:#EF8267;}
	.st21{fill:#080607;}
	.st22{fill:#F18D71;}
	.st23{fill:#F4F4F4;}
</style>
<g id="Capa_2_00000130604470619384104930000005181748642702975131_" class="st0">
	<g id="Capa_1-2">
		<path class="st1" d="M598,723.7c-21.2,0-53-21.2-122.6-67.8c-26.1-17.5-58.2-38.9-95.3-62.8c-37.3,24-69.5,45.5-95.7,63
			c-69.5,46.4-101.2,67.5-122.4,67.5c-8.6,0-16-3.5-20.9-9.9c-13.9-18.3-3.7-54,23.3-149.3c8.3-29.2,18.5-65,29.4-105.9
			c-38.9-32.1-72.7-58.5-100.2-80c-72.9-57-100.2-78.3-92.3-102.6c8.4-25.8,46.3-27.2,172-31.9c26.9-1,57.3-2.1,91.6-3.7
			c9.7-25.2,19.3-50.8,28.6-75.6c17.2-45.7,34.9-92.9,53.5-139l0.2-0.6l0.3-0.6C357.6,4.3,370.5,0,379.4,0
			c15.5,0,29.4,12.9,37.3,34.6C441.8,99.7,466.2,164,495,240.3c35.6,1.6,66.9,2.8,94.5,3.8c124,4.6,161.5,6,169.8,31.6
			c7.8,24.2-19.5,45.5-92.5,102.4c-27.6,21.5-61.5,47.9-100.7,80.1c10.9,40.5,20.7,74.9,29.3,105.5c27.2,95.9,37.4,131.7,23.5,150.1
			C614.1,720.2,606.7,723.7,598,723.7z"/>
		<path class="st2" d="M554,448.8c88.2,331,117.6,305.1-168,121.9C100,753.8,129.7,779.6,217.7,449.1
			c-249.4-207-291.5-180.9,56.7-196.7c5.9-0.2,8.4-2.4,10.4-7.8c27.7-72.1,54.1-144.9,82.9-216.6c13.9-28,31.7-14.7,40.1,8.5
			c26.7,69.2,53.1,138.5,79.1,207.9c2.2,5.8,5.1,7.7,11.2,8C845.8,268.3,804.9,241.4,554,448.8z"/>
		<path class="st3" d="M589.9,673.9c-18.2-8.2-55.2-33-94.1-58.9c-28.2-18.9-63.4-42.3-104.4-68.7l-10.7-6.9l-10.7,6.8
			c-41.3,26.4-76.5,49.9-104.8,68.8c-40.3,26.9-76.1,50.7-93.9,58.7c2.2-19.8,14.3-62.7,28-111c9-31.6,20.2-71,32.2-116.3l3.3-12.3
			l-9.8-8.1c-42.6-35.4-79.3-64-108.8-87.1c-31.7-24.8-62-48.4-74.5-61.8c21.7-4.7,74.2-6.6,133.5-8.9c27.7-1,59.1-2.2,94.6-3.8
			c9.5-0.4,22-4.2,28.1-20.6c10-25.8,20-52.3,29.6-77.9c17-45.2,34.6-92,52.8-137.4c0,0,0-0.1,0.1-0.1c1.3,2.3,2.4,4.7,3.3,7.2
			l0.2,0.4c25.4,65.7,50,130.6,79.1,207.8c4.9,13.2,14.6,20.2,28.9,20.8c36.5,1.7,68.6,2.8,96.9,3.9c58,2.1,109.5,4,131.1,8.6
			c-12.6,13.3-42.9,36.9-74.5,61.5c-29.6,23.1-66.4,51.8-109.4,87.2l-9.8,8.1l3.3,12.3c12,45.1,23.2,84.4,32.1,115.9
			C575.5,610.8,587.7,654,589.9,673.9z"/>
		<g>
			<path class="st4" d="M720,277c-5.2,5.5-13.6,12.9-23.8,21.3c-2.7,2.2-5.4,4.4-8.3,6.8c-12.7,10.2-27.4,21.7-42.5,33.4l-1.2,1
				c-5.4,4.2-11.1,8.6-17,13.2l0,0c-4.1,3.2-8.3,6.5-12.6,9.8c-7.7,6.1-15.8,12.5-24.3,19.2l-5.5,4.4c-7.1,5.7-14.4,11.5-21.9,17.6
				l-5.1,4.1c-1.9,1.5-3.7,3-5.6,4.6l-8.9,7.2l-7.3,6l-9.8,8.1l3.3,12.3c1.9,7.2,3.8,14.3,5.7,21.2l0,0c0.4,1.6,0.9,3.2,1.3,4.8
				l1,3.8c0.2,0.7,0.4,1.4,0.6,2.1c3.7,13.6,7.3,26.5,10.7,38.7c1,3.7,2,7.3,3.1,10.9c0.8,2.9,1.6,5.8,2.4,8.6
				c2.6,9.1,5,17.7,7.3,25.8c6.5,22.7,12.5,44.2,17.5,62.7c1.1,4.3,2.2,8.4,3.2,12.3c1.1,4.5,2.2,8.7,3.1,12.6
				c0.6,2.5,1.1,4.8,1.6,7.1c1.4,6.7,2.5,12.5,2.9,17c-6.2-2.8-14.7-7.6-24.7-13.7c-3.1-1.9-6.4-3.9-9.8-6
				c-4.2-2.7-8.7-5.5-13.2-8.5c-4.4-2.9-9-5.8-13.6-8.9c-10.5-6.9-21.6-14.3-32.8-21.8l-10.7-7.1L475,601
				c-9.8-6.5-20.3-13.5-31.4-20.8l-9.8-6.5c-13.3-8.7-27.4-17.9-42.3-27.5l-1.8-1.2l-8.9-5.7l-1.3,0.8l-9.4,6
				c-36.5,23.3-68.2,44.4-94.6,62l-10.2,6.9c-8.7,5.8-17.2,11.5-25.3,16.8c-29.6,19.6-54.6,35.6-68.6,41.9c1-8.9,4-22.5,8.2-39
				c1.1-4.2,2.2-8.7,3.5-13.3c4.7-17.5,10.3-37.5,16.3-58.4v-0.2c1.8-6.3,3.7-12.9,5.6-19.8c7.9-27.8,16.9-60.3,26.6-96.6l3.3-12.3
				l-5.3-4.4l-0.6-0.5l-3.7-3.2c-3.7-3.1-7.3-6.1-10.9-9c-6.2-5.1-12.3-10.1-18.2-14.9c-7.8-6.4-15.4-12.5-22.8-18.3l0,0
				c-7.7-6.2-15.2-12.1-22.3-17.7l-10.9-8.6l-18.6-14.6l-5.1-4l-5.1-4l-9.9-7.8l-6-4.8c-2.6-2.1-5.2-4.1-7.7-6.1
				c-20.1-15.9-37-30-45.6-39.1c21.7-4.7,74.2-6.6,133.5-8.9c9.9-0.4,20.3-0.8,31.2-1.2l12.2-0.5l17.4-0.7c7.6-0.3,15.4-0.6,23.5-1
				l10.4-0.5l1.3-0.1c6.4-0.3,12.4-2.6,17.4-6.6l0.1-0.1c4.2-3.7,7.4-8.5,9.3-13.8c0.6-1.6,1.2-3.2,1.9-4.8
				c1.6-4.2,3.2-8.4,4.8-12.7l0,0c4.5-11.9,9-23.7,13.5-35.5l0,0c2.8-7.4,5.6-14.8,8.3-22.1c0.4-0.9,0.7-1.9,1.1-2.8
				c17-45.2,34.6-92,52.8-137.4c0,0,0.1-0.1,0.1-0.1c1.3,2.3,2.4,4.7,3.3,7.2l0.2,0.4c10.1,26,20,52,30.1,78.6
				c2.2,5.8,4.5,11.7,6.7,17.6l0,0c0.9,2.3,1.8,4.6,2.6,6.9l0,0l5,13.3l0,0c2.3,6.1,4.7,12.4,7.1,18.6l0,0l2.9,7.7l0,0
				c4.8,12.8,9.8,25.9,14.9,39.4c1,2.8,2.1,5.6,3.2,8.4c2.1,5.7,4.3,11.4,6.5,17.3c1.3,3.7,3.3,7.2,5.8,10.3
				c1.4,1.6,2.9,3.1,4.6,4.4c4.3,3.1,9.3,5.1,14.5,5.7l0,0c1.3,0.2,2.5,0.3,3.9,0.3l3.8,0.2c2.8,0.1,5.5,0.3,8.3,0.4
				c4.6,0.2,9.2,0.4,13.7,0.6c26.1,1.1,49.7,2,71.2,2.8l6.3,0.2c27,1,52.4,2,73.7,3.2C691.4,273.1,709.3,274.7,720,277z"/>
			<path class="st5" d="M711.3,333.5c-2.7-12.6-7.8-24.6-15-35.3c-7.3-10.5-16.5-19.5-27.3-26.5c-3.1-2-6.3-3.9-9.6-5.6
				c-1.6-0.9-3.1-2.1-4.3-3.4c-11.7-12.3-17.2-27.1-17.4-44c-0.1-6.1,0.2-12.2,0.1-18.3s-2.2-8-8.4-7.6c-5.9,0.4-10.6,3.4-14.5,7.5
				c-13.9,14.5-18.6,32-15.8,51.6c0.5,3.9,1.8,7.6,2.8,11.6c-1.3,1-2.5,1.9-3.8,2.9c-0.9,0.7-1.8,1.5-2.7,2.2
				c-6.7,5.8-12.2,12.6-14.8,21.4c-2.3,7.7-2.1,15.5,1.8,22.8c3.2,6.1,8.1,10.2,15.4,11.1c-0.6,1.3-1.1,2.6-1.6,3.9
				c-0.6,2-1.9,2.8-3.7,3.7c-8.3,4.3-16.6,3.6-25,0.5c-2.4-0.7-4.3-2.5-5.2-4.9c-9.6-23.8-24.9-44.9-44.5-61.5
				c-1.5-1.3-3.1-2.6-4.7-3.9c-3.8-3-7.9-5.8-11.8-8.7c0.6-3.9,1.3-7.7,1.9-11.6c1.6-0.9,3.2-1.7,4.9-2.4c3.6-1.2,7.4-2.1,11.1-3.1
				c3.2-0.8,3.8-1.4,3.8-4.5c0.1-2.4-0.3-4.7-1-7c-5.1-13.5-14.5-22.1-29.1-24.8c-0.3-3.2-0.6-6.6-1.1-10
				c-2.1-13.2-6.8-25.3-15.4-35.6c-3.1-4-7.2-7.2-11.8-9.3c-6.2-2.6-11.9-1.8-17,2.7c-0.8,0.7-1.5,1.4-2.5,2.4
				c-0.9-2-1.8-3.7-2.6-5.5c-3-6.5-6.9-12.6-11.7-17.9c-4.6-5.1-10.3-9.1-16.6-11.7c-4.5-1.7-9.3-2.7-14.1-2.9
				c-9.7-0.4-19.4,1.2-28.4,4.7c-3.1,1.2-5.9,2.9-8.4,5.1c-6.5,5.6-6.5,12.2-0.2,18.1c1.5,1.4,3.1,2.6,4.9,4.1
				c-0.4,0.3-0.8,0.5-1.2,0.8c-10.5,4.5-20.4,10.1-29.7,16.7c-3.5,2.5-7,5-10.3,7.7c-8.5,6.7-16.1,14.6-22.5,23.4
				c-5.4,7.3-9.1,15.6-11,24.4c-0.9,4.4-1.7,8.9-0.7,13.4c1.1,5.2,3.7,8.3,7.6,9.1c2.3,0.4,4.6,0.1,6.8-0.7
				c3.9-1.4,7.5-3.9,11.2-5.9c0.1,0.1,0.3,0.3,0.4,0.4c-0.2,1.2-0.3,2.4-0.5,3.5c-3,15.8-3.2,31.6,1.2,47.2c2,7.2,4.9,14,10.1,19.6
				c7.1,7.7,15.6,8,22.8,0.4c2.7-3,5-6.2,7-9.6c1.8-2.9,3-6,4.9-9.7c3.8,6,7.5,11.2,10.5,16.9c6,11.3,6,22.9,0,34.3
				c-1.5,2.9-3.6,5.6-5.4,8.3c-2.7,4.1-6,7.5-11.5,6.9c-0.4,0-0.8,0.1-1.2,0.2c-12.6,2-24.2,6.6-35.4,12.6l-6.6,3.4
				c0.1-1.2,0-1.9,0.1-2.5c2.5-17,3.1-34,0.6-51.1c-3-20.5-10.8-39-24.8-54.5c-0.5-0.4-0.9-0.9-1.4-1.2l-0.2-0.2c0,0.1,0,0.2,0,0.3
				c1.8,10.4,2.4,21,2,31.5c-0.6,10.4-2.4,20.5-6.4,30.2c-0.5-1.6-0.8-3.3-0.9-5c-1.2-17.3-4.9-34.1-12-50v0
				c-11.6-26.1-29.7-46.2-55.9-58.3c-16.7-7.7-34.1-10.7-52.3-6.8c-13.2,2.8-24.1,9.3-31.7,20.8c-0.7,1.1-1.3,2.3-2,3.6
				c3.9-0.5,7.2-1.2,10.6-1.4c13.2-0.8,25.2,2.9,36.1,10.1c13.1,8.6,23.6,20.6,30.5,34.7c3.3,6.7,5.9,13.8,7.9,21
				c-0.2,0.1-0.4,0.3-0.6,0.5c-0.5-0.2-1-0.4-1.4-0.6c-7.6-4.6-15.7-8.2-24.2-10.9c-22.8-6.8-44.9-5.5-65.7,6.3
				c-15.1,8.5-26.7,19.6-35,32.8c-7.2,11.5-11.9,24.6-14.2,39.4c-1.9,12.2-0.7,24.8,3.5,36.4c0.4-1.1,0.6-1.7,0.8-2.3
				c5.3-23.9,20-39.2,43.1-46.6l0.8-0.2c10.7-3.5,22.3-3,32.7,1.4c5.3,2.2,10.1,5.7,13.8,10.1c-9.4-1.1-18.9,0-27.9,3.1
				c-8.4,3-16.1,7.7-22.6,13.7c-8.5,7.7-15.4,16.9-20.3,27.3c-10.5,21.9-13.4,45-9.5,69c1.7,10.1,4.7,19.9,9,29.2
				c0.3-0.3,0.6-0.5,0.7-0.7c0.1-0.4,0.2-0.8,0.3-1.2c3.7-22.7,13.6-42.5,28.3-60c5.8-6.9,12.4-12.7,20.7-16.5
				c0.9-0.3,1.8-0.6,2.6-0.8c-2,3.4-3.8,6.3-5.4,9.4c-8.7,17-11.9,35.3-12.1,54.2c-0.1,10.1,1.1,20.1,3.6,29.9
				c5.8,22.7,17.4,41.6,36.4,55.8c0.8,0.5,1.7,0.9,2.6,1.1c0-0.5-0.1-1-0.2-1.5c-5.5-15-7.7-31-6.3-46.9c0.9-11.5,3.6-22.8,8-33.5
				c0.4-0.9,0.9-1.8,1.8-3.5c0,2.3,0,3.6,0,4.9c-0.7,16.5,1.7,33,7.2,48.5c3.5,9.9,7.8,19.4,14.8,26.9c3,3.3,6.6,6.2,10.5,8.4
				c-0.1,1.5-0.1,3,0,4.4c0.4,3-0.7,5.2-2.2,7.8c-2.7,4.7-5.1,9.6-7.2,14.6c-1.4,3.1-1.4,7-3.2,9.7s-5.4,4.6-8,7
				c-2.3,2-4.3,4.2-6.2,6.5c-1.3,1.7-2.4,3.6-3.3,5.6c-1.2,3-1.3,5.6-0.2,7.7c1,1.8,2.9,3.2,5.6,4.1c3,0.9,6.2,1.4,9.4,1.5
				c8,0.3,15.8-1.1,23.6-2.8c7.3-1.6,14.6-3.5,21.7-5.7c8.1-5.4,16.6-11,25.3-16.8l10.2-6.8c26.4-17.6,58.2-38.7,94.6-62l9.4-6
				l1.3-0.8l8.9,5.7l1.8,1.2c14.9,9.6,29,18.7,42.3,27.5l9.8,6.5c11.1,7.3,21.6,14.3,31.4,20.8l10.2,6.8
				c10.9-12.8,15.7-23.5,18.6-40.5c0.2-1.8,1.4-3.4,3.1-4c7.9-3.7,15.9-7.3,23.5-11.5c8.3-4.6,16.3-9.8,23.9-15.6
				c11.2-8.6,21.1-18.8,29.4-30.3c2.8-3.9,5.3-7.9,7.7-11.5c7.6-1,15-1.7,22.3-3.1c24.6-4.7,46.4-15.4,63.6-33.7
				C710.5,422.4,721.9,380.6,711.3,333.5z M174.2,567.9c0,0.2,0,0.3,0,0.5l0.4-0.2L174.2,567.9z M174.1,567.8
				C174.1,567.8,174.1,567.9,174.1,567.8l0.1,0.1L174.1,567.8L174.1,567.8z"/>
			<path class="st6" d="M711.3,333.5c-2.7-12.6-7.8-24.6-15-35.3c-7.3-10.5-16.5-19.5-27.3-26.5c-3.1-2-6.3-3.9-9.6-5.6
				c-1.6-0.9-3.1-2.1-4.3-3.4c-11.7-12.3-17.2-27.1-17.4-44c-0.1-6.1,0.2-12.2,0.1-18.3s-2.2-8-8.4-7.6c-5.9,0.4-10.6,3.4-14.5,7.5
				c-13.9,14.5-18.6,32-15.8,51.6c0.5,3.9,1.8,7.6,2.8,11.6c-1.3,1-2.5,1.9-3.8,2.9c-0.9,0.7-1.8,1.5-2.7,2.2
				c-6.7,5.8-12.2,12.6-14.8,21.4c-2.3,7.7-2.1,15.5,1.8,22.8c3.2,6.1,8.1,10.2,15.4,11.1c-0.6,1.3-1.1,2.6-1.6,3.9
				c-0.6,2-1.9,2.8-3.7,3.7c-8.3,4.3-16.6,3.6-25,0.5c-2.4-0.7-4.3-2.5-5.2-4.9c-9.6-23.8-24.9-44.9-44.5-61.5
				c-1.5-1.3-3.1-2.6-4.7-3.9c-3.8-3-7.9-5.8-11.8-8.7c0.6-3.9,1.3-7.7,1.9-11.6c1.6-0.9,3.2-1.7,4.9-2.4c3.6-1.2,7.4-2.1,11.1-3.1
				c3.2-0.8,3.8-1.4,3.8-4.5c0.1-2.4-0.3-4.7-1-7c-5.1-13.5-14.5-22.1-29.1-24.8c-0.3-3.2-0.6-6.6-1.1-10
				c-2.1-13.2-6.8-25.3-15.4-35.6c-3.1-4-7.2-7.2-11.8-9.3c-6.2-2.6-11.9-1.8-17,2.7c-0.8,0.7-1.5,1.4-2.5,2.4
				c-0.9-2-1.8-3.7-2.6-5.5c-3-6.5-6.9-12.6-11.7-17.9c-4.6-5.1-10.3-9.1-16.6-11.7c-4.5-1.7-9.3-2.7-14.1-2.9
				c-9.7-0.4-19.4,1.2-28.4,4.7c-3.1,1.2-5.9,2.9-8.4,5.1c-6.5,5.6-6.5,12.2-0.2,18.1c1.5,1.4,3.1,2.6,4.9,4.1
				c-0.4,0.3-0.8,0.5-1.2,0.8c-10.5,4.5-20.4,10.1-29.7,16.7c-3.5,2.5-7,5-10.3,7.7c-8.5,6.7-16.1,14.6-22.5,23.4
				c-5.4,7.3-9.1,15.6-11,24.4c-0.9,4.4-1.7,8.9-0.7,13.4c1.1,5.2,3.7,8.3,7.6,9.1c2.3,0.4,4.6,0.1,6.8-0.7
				c3.9-1.4,7.5-3.9,11.2-5.9l0.9-0.1l-0.5,0.5c-0.2,1.2-0.3,2.4-0.5,3.5c-3,15.8-3.2,31.6,1.2,47.2c2,7.2,4.9,14,10.1,19.6
				c7.1,7.7,15.6,8,22.8,0.4c2.7-3,5-6.2,7-9.6c1.8-2.9,3-6,4.9-9.7c3.8,6,7.5,11.2,10.5,16.9c6,11.3,6,22.9,0,34.3
				c-1.5,2.9-3.6,5.6-5.4,8.3c-2.7,4.1-6,7.5-11.5,6.9c-0.4,0-0.8,0.1-1.2,0.2c-12.6,2-24.2,6.6-35.4,12.6l-6.6,3.4
				c0.1-1.2,0-1.9,0.1-2.5c2.5-17,3.1-34,0.6-51.1c-3-20.5-10.8-39-24.8-54.5c-0.5-0.4-0.9-0.9-1.4-1.2l-0.2-0.2c0,0.1,0,0.2,0,0.3
				c1.8,10.4,2.4,21,2,31.5c-0.6,10.4-2.4,20.5-6.4,30.2c-0.5-1.6-0.8-3.3-0.9-5c-1.2-17.3-4.9-34.1-12-50v0
				c-11.6-26.1-29.7-46.2-55.9-58.3c-16.7-7.7-34.1-10.7-52.3-6.8c-13.2,2.8-24.1,9.3-31.7,20.8c-0.7,1.1-1.3,2.3-2,3.6
				c3.9-0.5,7.2-1.2,10.6-1.4c13.2-0.8,25.2,2.9,36.1,10.1c13.1,8.6,23.6,20.6,30.5,34.7c3.3,6.7,5.9,13.8,7.9,21l0.1,0.9l-0.7-0.4
				c-0.5-0.2-1-0.4-1.4-0.6c-7.6-4.6-15.7-8.2-24.2-10.9c-22.8-6.8-44.9-5.5-65.7,6.3c-15.1,8.5-26.7,19.6-35,32.8
				c-7.2,11.5-11.9,24.6-14.2,39.4c-1.9,12.2-0.7,24.8,3.5,36.4c0.4-1.1,0.6-1.7,0.8-2.3c5.3-23.9,20-39.2,43.1-46.6l0.8-0.2
				c10.7-3.5,22.3-3,32.7,1.4c5.3,2.2,10.1,5.7,13.8,10.1c-9.4-1.1-18.9,0-27.9,3.1c-8.4,3-16.1,7.7-22.6,13.7
				c-8.5,7.7-15.4,16.9-20.3,27.3c-10.5,21.9-13.4,45-9.5,69c1.7,10.1,4.7,19.9,9,29.2c0.3-0.3,0.6-0.5,0.7-0.7
				c0.1-0.4,0.2-0.8,0.3-1.2c3.7-22.7,13.6-42.5,28.3-60c5.8-6.9,12.4-12.7,20.7-16.5c0.9-0.3,1.8-0.6,2.6-0.8
				c-2,3.4-3.8,6.3-5.4,9.4c-8.7,17-11.9,35.3-12.1,54.2c-0.1,10.1,1.1,20.1,3.6,29.9c5.8,22.7,17.4,41.6,36.4,55.8
				c0.8,0.5,1.7,0.9,2.6,1.1c0-0.5-0.1-1-0.2-1.5c-5.5-15-7.7-31-6.3-46.9c0.9-11.5,3.6-22.8,8-33.5c0.4-0.9,0.9-1.8,1.8-3.5
				c0,2.3,0,3.6,0,4.9c-0.7,16.5,1.7,33,7.2,48.5c3.5,9.9,7.8,19.4,14.8,26.9c3,3.3,6.6,6.2,10.5,8.4c-0.1,1.5-0.1,3,0,4.4
				c0.4,3-0.7,5.2-2.2,7.8c-2.7,4.7-5.1,9.6-7.2,14.6c-1.4,3.1-1.4,7-3.2,9.7s-5.4,4.6-8,7c-2.3,2-4.3,4.2-6.2,6.5
				c-1.3,1.7-2.4,3.6-3.3,5.6c-1.2,3-1.3,5.6-0.2,7.7c1,1.8,2.9,3.2,5.6,4.1c3,0.9,6.2,1.4,9.4,1.5c8,0.3,15.8-1.1,23.6-2.8
				c7.3-1.6,14.6-3.5,21.7-5.7c8.1-5.4,16.6-11,25.3-16.8l10.2-6.8c-17.6,7.1-35.8,12.6-54.3,16.5c-8.2,1.7-16.4,3.1-24.8,2.8
				c-1.8,0-3.6-0.4-5.7-0.6c1.5-3.9,4-7.2,7.3-9.8c1.6-1.6,3.1-3.2,4.8-4.7c13-11,27.2-20.2,41.9-28.5
				c19.2-10.9,38.7-21.1,58.1-31.7c1-0.6,1.9-1.3,2.7-2c-4,1.3-8.1,2.3-12,3.8c-26,9.8-50.9,21.6-74,37c-4.2,2.8-8.2,5.9-12.2,8.8
				l-0.8,0.6c0.1-0.4,0.1-0.8,0.2-1.2c5.9-11.5,13.9-21.5,22.8-30.7c3.8-3.9,7.8-7.4,11.7-11.2c11.9-11,25-20.4,38.2-29.6
				c10.3-7.2,20.7-14.2,31.1-21.3c0.6-0.5,1.1-1,1.6-1.6h-0.1c-0.3,0-0.7,0.1-1,0.1h-0.4h-0.2c-0.1,0-0.1,0-0.2,0l-0.3,0l-0.3,0.1
				l-0.4,0.1c-32,14-61.1,32.2-85.1,58c-0.4,0.4-0.8,0.7-1.7,1.4c1.1-8.1,4.2-15.7,8.9-22.3l0.9-1.1h-0.1c2.2-3.4,4.3-6.9,6.8-10.2
				c13.4-17.4,29-32.6,45.8-46.5c11.6-9.6,23.8-18.4,35.7-27.6c0.9-0.7,1.7-1.5,2.5-2.3c-1.4,0.3-2.8,0.7-4.1,1.2
				c-17.4,7.9-33,18.5-47.6,30.6c-17.3,14.2-32.8,30.1-45.6,48.5c-1.1,1.5-2.1,3-3.7,5.4c0.1-1.1,0.2-2.1,0.4-3.2
				c3.4-11.5,8.6-22.4,15.5-32.2c0.1-0.2,0.3-0.3,0.5-0.3c0,0,0.1,0,0.1,0.1l0,0c0.3-0.5,0.6-1,0.8-1.6l-0.1-0.1
				c4.1-5.5,7.9-11.3,12.2-16.5c15.1-18.4,32.7-34.2,51.2-49c4.4-3.5,8.8-7,13.2-10.5l0,0l0,0h-0.1l-0.8,0.2l-0.5,0.1
				c-0.8,0.1-1.5,0.3-2.2,0.6c-12,5.5-22.6,13.1-32.7,21.5c-18,15.1-33.6,32.5-47.9,51.2c-0.8,1-1.7,2-2.5,3l-0.6,1.1l-0.4-0.2
				c0.1-0.5,0.3-1,0.4-1.5c2.1-6.8,4.1-13.6,6.2-20.3c15.1-40.8,38.9-75.1,74.8-100.4c14.1-9.9,29.5-17.2,46.6-20.3
				c9.6-1.8,19.3-1.9,28.8,0.8c16.3,4.6,26.7,15.5,32.8,31c4,10.3,5.5,21,5.7,31.9c0.1,2.5,0.1,5,0.1,7.5c0.2,21.1-4.3,42-13.2,61.2
				c-7.7,16.8-18.2,32.3-30.9,45.8l1.3-0.8l8.9,5.7c19.9-23.1,33.8-49.5,40.4-80c3.8-17.7,4.8-35.8,3-53.7c-0.6-5.9-1.3-11.8-2-17.5
				l12.8-10.3c3.8,13.7,13,21.7,27.2,22.4c10.1,0.5,18.7-5,23.6-17.9c0.7,1,1.3,1.8,1.8,2.5c8.7,12.8,26.1,13.3,35.5,1
				c3.5-4.7,5.8-10.2,6.8-15.9c0.2-1,0.5-2,0.8-3.3c6.7,3.5,13.3,6.2,20.6,3.1s9.2-10,11-17.1l5.1,9.7l1.4,2.6
				c0.3,0.5,0.5,1.1,0.8,1.6c0.4,0.8,0.8,1.7,1.3,2.5s0.7,1.5,1.1,2.3c0.6,1.2,1.1,2.4,1.7,3.5c0.2,0.4,0.3,0.7,0.5,1.1
				c0.7,1.5,1.3,3,1.9,4.5l0.1,0.1c0.2,0.5,0.4,0.9,0.6,1.4v0.1c0.4,1.1,0.8,2.1,1.2,3.2l0.2,0.6c0.3,0.7,0.5,1.5,0.8,2.2
				c1.5,4.3,2.9,8.6,4,13c0.2,0.9,0.5,1.7,0.7,2.6c0.3,1.4,0.7,2.9,1,4.3c0.1,0.6,0.2,1.3,0.4,1.9s0.2,1.1,0.3,1.7
				c0.2,1.1,0.4,2.2,0.6,3.4c0.1,0.5,0.2,1.1,0.2,1.6c0.2,1.2,0.3,2.4,0.5,3.6c0,0.5,0.1,0.9,0.1,1.3c0.1,0.6,0.1,1.2,0.2,1.9
				c0,0.2,0,0.4,0,0.5s0,0.6,0.1,0.9c0,0.5,0.1,1.1,0.1,1.6c0,0.8,0.1,1.5,0.1,2.2c0,0.4,0,0.8,0,1.1c0,0.6,0,1.2,0,1.8
				c0,0.8,0,1.5,0,2.3c0,1.9,0,3.7-0.1,5.6c-0.7,15.8-5,31.2-12.7,45c-0.5,0.8-1,1.5-1.6,2.3c-3.1,6.9-7.7,12.6-12.5,18.2
				c-5.2,6.1-10.9,11.8-17.1,17c-8.7,7.2-18,13.5-27.9,18.9c-23.8,13-49.7,21.6-76.4,25.6c-4.6,0.7-9.2,1.2-13.9,1.6l9.8,6.5
				c16.5-2.5,32.8-6.4,48.6-11.8c-1.7,10.9-4.5,20.6-11.8,28.3c-1.6,1.7-3.4,3.1-5.4,4.3l10.2,6.8c10.9-12.8,15.7-23.5,18.6-40.5
				c0.2-1.8,1.4-3.4,3.1-4c7.9-3.7,15.9-7.3,23.5-11.5c8.3-4.6,16.3-9.8,23.9-15.6c11.2-8.6,21.1-18.8,29.4-30.2
				c2.8-3.9,5.3-7.9,7.7-11.5c7.6-1,15-1.7,22.3-3.1c24.6-4.7,46.4-15.4,63.6-33.7C710.5,422.4,721.9,380.6,711.3,333.5z
				 M609.5,226.9c2.1-8.2,5.8-15.6,12-21.5c2.1-2,4.5-3.7,8.2-2.9c-4.7,20.5-2.6,39.9,9,57.9l-17.7-1.1l-12,2.2
				C605.5,249.8,605.5,238.4,609.5,226.9z M304,367.5c-1.1,4.9-3.8,9.3-7.7,12.5c-15.2,13-28.9,27.8-40.7,43.9
				c-2.6,4.3-4.9,8.8-7.8,12.9c-12.8,18-21.2,37.8-26.6,59.1c-1.2,4.8-2.4,9.5-3.5,14.3c-0.8,4.1-2.3,8.1-4.4,11.8
				c-3.5,6.3-5.3,13.4-5.1,20.6c0.1,1.9,0,3.9-0.3,5.8c-1-1.8-2-3.5-2.9-5.3c-0.6-1.2-1.2-2.4-1.8-3.5l-0.8-1.7l-0.7-1.6
				c-0.1-0.2-0.2-0.4-0.3-0.6l-0.6-1.4c-0.3-0.6-0.5-1.2-0.8-1.8c-0.2-0.5-0.4-1-0.6-1.6c-0.6-1.4-1.1-2.8-1.6-4.1
				c-0.2-0.5-0.4-1-0.6-1.6s-0.4-1.3-0.7-2c-0.4-1.1-0.7-2.2-1-3.3c-0.1-0.5-0.3-1-0.4-1.4c-0.2-0.8-0.4-1.6-0.6-2.4
				c-0.1-0.4-0.2-0.8-0.3-1.2c-0.4-1.5-0.7-3-1-4.5c-0.1-0.4-0.2-0.8-0.3-1.3s-0.2-1.1-0.3-1.7s-0.2-1.3-0.4-2s-0.2-1.1-0.3-1.6
				c-0.3-2-0.6-4-0.8-6.1c0-0.5-0.1-0.9-0.1-1.4l-0.1-1.8c0-0.6-0.1-1.2-0.1-1.8c-0.4-7.4-0.2-14.8,0.6-22.2
				c0.1-1.3,0.3-2.6,0.5-3.9c0.1-0.6,0.2-1.1,0.2-1.7c0.2-1.6,0.5-3.1,0.8-4.7c0.4-2.1,0.9-4.2,1.4-6.4c0.8-3.3,1.7-6.7,2.7-10.1
				c0.4-1.2,0.7-2.4,1.1-3.5c-3.7,2.5-6.7,4.3-9.4,6.5c-13.4,10.6-21.4,24.7-25.8,41c-3.7,14.1-4.9,28.8-3.4,43.4
				c0.5,5.8,1.1,11.6,1.2,17.7c-2.2-4-4.6-7.9-6.7-12c-8.8-17.6-13.3-37.1-13.2-56.8c0-0.5,0.1-1,0.3-1.5c0.4-22.5,5.4-43.5,20-61.3
				c4.5-5.7,10.6-9.8,17.6-11.7c0.4-0.1,0.7-0.6,1.1-0.9c-2.9-0.8-5.8-1.8-8.8-2.3c-10-1.9-19.2,0.6-28,5.2
				c-9.4,4.9-17.2,11.9-24.2,19.8c-8.2,9.4-15,19.9-20.4,31.2c-0.3,0.7-0.7,1.4-1,2.1c0,0.1-0.2,0.1-0.6,0.2
				c-0.4-11.6,0.4-23.3,2.6-34.7c2.2-12.1,6-23.5,12.8-33.8c0.3-0.5,0.7-1,1-1.5s0.7-1,1-1.4c0,0,0-0.1,0.1-0.1
				c0.3-0.5,0.7-0.9,1-1.4s0.7-0.9,1.1-1.4c1.1-1.4,2.3-2.6,3.5-3.9c0.4-0.4,0.8-0.8,1.2-1.2c0.8-0.8,1.6-1.5,2.5-2.3
				c0.4-0.4,0.8-0.7,1.3-1.1s0.8-0.7,1.2-1s0.7-0.5,1.1-0.8l0.8-0.6c0.8-0.5,1.5-1,2.3-1.5c0.4-0.2,0.8-0.5,1.2-0.7l0.3-0.2
				c0.3-0.2,0.7-0.4,1-0.6l0.4-0.2c0.3-0.2,0.6-0.4,1-0.5s0.7-0.4,1.1-0.6c1.6-0.8,3.2-1.5,4.9-2.2l0.8-0.3c0.4-0.1,0.7-0.3,1.1-0.4
				l1.4-0.5l1.4-0.5l0,0l1.4-0.4l1.5-0.4l1.4-0.4c0.1,0,0.2-0.1,0.3-0.1c0.4-0.1,0.8-0.2,1.3-0.3c0.3-0.1,0.6-0.1,0.8-0.2
				s0.5-0.1,0.8-0.2c0.1,0,0.2,0,0.3-0.1l1.2-0.2l1.6-0.3h0.2c0.6-0.1,1.1-0.2,1.7-0.2c8.9-1.2,18-0.9,26.9,0.7
				c-0.1-4.7-2.1-8.7-4.5-12.5c-7.1-11.5-17.7-18.4-30.7-21.5c-4.8-1.2-9.7-1.8-14.6-1.8H133c-0.7,0-1.3,0-2,0.1
				c-0.3,0-0.5,0-0.8,0.1c-1.1,0.1-2.2,0.2-3.3,0.4c-0.5,0.1-1,0.1-1.4,0.2l-0.9,0.1l-0.6,0.1c-1.1,0.2-2.2,0.5-3.3,0.7l-0.7,0.2
				c-0.7,0.2-1.3,0.4-2,0.6l-1.2,0.4l-1.4,0.5l-2.2,0.8l-0.7,0.3c-0.5,0.2-0.9,0.4-1.4,0.6l-1,0.5c-0.5,0.2-1,0.5-1.5,0.7l-1.5,0.8
				c-0.7,0.4-1.3,0.7-2,1.1l-1,0.6c-0.4,0.2-0.7,0.4-1.1,0.7c-2.6,1.7-5.2,3.5-7.6,5.5c-4.2,3.4-7.8,7.4-12.1,11.5
				c0.2-7,1.8-13.9,4.8-20.3c0.2-0.5,0.4-1,0.6-1.5c0.8-2,1.7-3.9,2.7-5.8l0.5-1c0.1-0.2,0.3-0.5,0.4-0.7c0.2-0.4,0.5-0.8,0.7-1.3
				l0.1-0.1c0.3-0.5,0.6-0.9,0.9-1.4l0.7-1.1c0.2-0.2,0.3-0.5,0.4-0.7c0,0,0-0.1,0.1-0.1c0.6-0.8,1.1-1.6,1.7-2.4
				c0.3-0.4,0.6-0.7,0.8-1.1c0.1-0.1,0.2-0.2,0.3-0.4l0.3-0.3c0.1-0.1,0.2-0.2,0.3-0.4l0.8-1c0.7-0.8,1.3-1.6,2-2.4
				c0.4-0.5,0.8-0.9,1.2-1.4s1-1.1,1.6-1.6s1.1-1.1,1.6-1.6c1.1-1.1,2.2-2.1,3.4-3.1c14.2-12.6,30.6-20.5,49.6-22.1
				c25.1-2.1,45.5,7.5,61.9,26.2c2.2,2.5,4.1,5.2,6.2,7.8c0.7,0.8,1.4,1.5,2.2,2.2c-0.2-6.5,0.1-13-0.8-19.4
				c-0.1-0.8-0.2-1.6-0.3-2.4s-0.3-1.8-0.4-2.6l-0.1-0.8c-0.1-0.4-0.1-0.8-0.2-1.1c-0.1-0.7-0.2-1.4-0.4-2c0-0.1-0.1-0.3-0.1-0.5
				c-0.1-0.5-0.2-1.1-0.3-1.6s-0.2-0.8-0.3-1.1c-0.1-0.6-0.3-1.2-0.4-1.8s-0.3-1.3-0.5-2s-0.2-1-0.4-1.5c-0.2-0.9-0.4-1.7-0.7-2.6
				c0-0.2-0.1-0.4-0.2-0.6c0,0,0,0,0-0.1l-0.4-1.2c-0.3-0.9-0.5-1.7-0.8-2.5c-0.5-1.4-1-2.8-1.5-4.2l-0.4-1c-0.1-0.3-0.3-0.7-0.4-1
				c-0.2-0.6-0.5-1.2-0.7-1.8c0,0,0,0,0-0.1c-0.1-0.2-0.2-0.4-0.2-0.6c0,0,0,0,0-0.1l-0.7-1.6c-0.2-0.5-0.4-0.9-0.6-1.4l-0.6-1.4
				c0,0,0-0.1-0.1-0.1c-0.4-0.9-0.9-1.8-1.3-2.7c0,0,0-0.1-0.1-0.1c-0.7-1.3-1.4-2.6-2.1-3.9l-0.3-0.5c-0.4-0.8-0.9-1.5-1.4-2.3l0,0
				l-0.8-1.3c-0.3-0.4-0.6-0.9-0.9-1.3s-0.6-0.9-0.9-1.3s-0.6-0.9-0.9-1.3s-0.6-0.9-0.9-1.3s-0.6-0.8-0.9-1.2
				c-1.1-1.4-2.2-2.8-3.3-4.2c-0.6-0.7-1.2-1.4-1.8-2.1c-1.1-1.2-2.2-2.4-3.3-3.6c-0.3-0.3-0.6-0.6-0.9-0.9l-1.5-1.5
				c-1.3-1.3-2.7-2.5-4.1-3.8c-0.6-0.5-1.2-1-1.8-1.5l-1-0.8c-0.2-0.1-0.3-0.3-0.5-0.4c-0.4-0.3-0.7-0.6-1.1-0.9
				c-11.9-9.4-25.5-14.6-41-13.6c3.3-1.8,6.9-3.1,10.6-3.6c16.6-4.7,34.3-3.7,50.2,2.8c17.7,7.1,31.1,19.4,41.8,34.9
				c0.4,0.6,0.9,1.2,1.3,1.9c0.1,0.1,0.2,0.3,0.3,0.4c1,1.5,1.9,3,2.8,4.5c0.4,0.6,0.7,1.2,1.1,1.9c0.3,0.6,0.7,1.2,1,1.7
				c0.2,0.3,0.3,0.6,0.5,0.9c0.3,0.6,0.7,1.2,1,1.9c0.8,1.5,1.5,3,2.3,4.5c0.3,0.7,0.6,1.4,1,2.1s0.6,1.4,0.9,2.1l0,0
				c0.3,0.7,0.6,1.3,0.9,2s0.6,1.5,0.9,2.2l0.8,2c0.4,1,0.8,2,1.1,3c0.1,0.4,0.3,0.8,0.5,1.3c0.2,0.7,0.5,1.4,0.7,2.2
				s0.5,1.4,0.7,2.2c0.2,0.6,0.4,1.1,0.5,1.7c0.1,0.4,0.2,0.8,0.4,1.2c0.4,1.2,0.7,2.4,1,3.6c0.2,0.7,0.4,1.3,0.5,2
				c0.4,1.6,0.8,3.1,1.1,4.7c0.2,0.7,0.4,1.5,0.5,2.2c4.3,19.4,5.2,39.1,4,58.9c-0.1,1.1-0.6,2.3-0.7,3.4c0,1.3,0.1,2.7,0.2,4
				c0.6-0.8,1.1-1.6,1.5-2.5c1.3-5.8,2.6-11.6,3.8-17.5c0.4-2.5,1.4-4.8,3-6.6c7.8-8.9,11.9-19.6,14.5-31c1.5-6.5,2-13.1,1.6-19.8
				c0-0.6,0.1-1.2,0.1-2.5c2.9,5.3,5,11,6,16.9C309.5,324.2,309,346.2,304,367.5z M513.6,220.8c1.4,2.4,2.5,4.9,3.9,7.7
				c-8.1,0.6-14.6,4.4-21,8.5c-7.8,5-15.5,10.1-23.5,14.8c-0.5,0.3-1.1,0.6-1.6,0.9L471,253l-2,1l0,0c-0.5,0.3-1.1,0.6-1.7,0.8
				c-1.1,0.6-2.3,1.1-3.4,1.6l-1.8,0.7c-1.1,0.5-2.3,0.9-3.5,1.3l-1.3,0.4c-1.7,0.5-3.4,1-5.1,1.4c-1.6,0.4-3.3,0.7-4.9,0.9
				c-0.5,0.1-1.1,0.1-1.7,0.2l-1.1,0.1c-0.4,0-0.7,0.1-1.1,0.1l-1.2,0.1c-0.6,0-1.1,0.1-1.7,0.1s-1.1,0-1.7,0c-2.3,0-4.7-0.1-7-0.4
				c-3.4-0.4-6.7-1.1-10.1-1.4c4.6,3.4,9.8,4.9,15.4,5.4c0.9,0.1,1.8,0.1,2.7,0.2c1.1,0.1,2.1,0.1,3.2,0.1c0.5,0,1,0,1.6,0h0.8
				c0.9,0,1.8-0.1,2.7-0.2h0.1l1.3-0.1c0.5,0,0.9-0.1,1.4-0.2l0.5-0.1l0.9-0.1l1-0.2l0.6-0.1l0.9-0.2c2.3-0.4,4.5-1,6.7-1.6l0.9-0.3
				c2.6-0.8,5.1-1.7,7.7-2.7c0.5-0.2,1-0.4,1.4-0.6c0.7-0.3,1.4-0.6,2-0.9c1.6-0.7,3.2-1.5,4.9-2.4c4.8-2.5,9.3-5.4,14.6-8.6
				c-0.4,2.2-0.7,4-1.1,5.7c-0.5,2-1.1,3.9-1.8,5.9c-0.1,0.3-0.2,0.7-0.4,1s-0.2,0.5-0.3,0.7s-0.2,0.5-0.3,0.8
				c-0.3,0.9-0.7,1.7-1.1,2.6l0,0c0,0.1-0.1,0.2-0.1,0.3c-0.1,0.3-0.3,0.7-0.5,1l-0.1,0.3c-0.1,0.3-0.3,0.6-0.5,0.9
				c0,0.1-0.1,0.2-0.1,0.2l-0.6,1.1c-0.3,0.5-0.5,1-0.8,1.5c-0.8,1.3-1.6,2.6-2.5,3.9c-0.2,0.4-0.5,0.7-0.8,1
				c-1.6,2.3-4,3.9-6.8,4.3c-15.1,2.1-29.7,0.9-43.1-6.9c-8-4.5-14.9-10.7-20.1-18.2l-0.5-0.4l0.8,0.2c2.4,0.3,4.7,0.7,7.1,0.9
				c11.1,0.9,20.2-3.3,27.5-11.5c0.5-0.5,0.9-1,1.3-1.6c0.3-0.4,0.6-0.7,0.9-1.1l0.2-0.3c0.2-0.3,0.5-0.6,0.7-0.9l0.4-0.5
				c0,0,0.1-0.1,0.1-0.1c0.3-0.4,0.5-0.8,0.8-1.2l0.1-0.1c0.2-0.4,0.5-0.8,0.7-1.1l0.2-0.3c0.3-0.5,0.6-1,0.8-1.4
				c0.5-0.9,0.9-1.7,1.4-2.6c0.1-0.2,0.2-0.5,0.3-0.7c0-0.1,0.1-0.1,0.1-0.2c0.1-0.3,0.3-0.7,0.5-1s0.4-0.9,0.6-1.4
				c0.1-0.2,0.2-0.5,0.3-0.7s0.3-0.7,0.4-1.1l0.2-0.5c0.4-1.1,0.8-2.2,1.1-3.4l0.3-1.1c0.2-0.7,0.4-1.4,0.5-2.2
				c0.1-0.5,0.2-1.1,0.4-1.6c0.3-2.2,1.8-4.1,3.9-4.9c8-3.2,16.1-6.1,24.9-6.3C499.2,206.3,507.8,211.1,513.6,220.8z M474.9,319.4
				c1.8,0.7,3.8,1.1,5.7,1.7c3,1,3.9,2.4,4.1,5.6c0.5,11.9-11.5,21.1-23.3,17.8c-8.6-2.4-15-7.6-19.9-15
				c-6.9-10.3-11-21.7-13.4-33.7c-1.4-6.6-1.9-13.4-1.3-20.1c1.6,1,3,1.9,4.5,2.7c8.2,4.6,17.4,7.2,26.9,7.6
				c5.7,0.3,11.4,0.1,17.1,0c1.4-0.2,2.9,0.4,3.8,1.4c3.3,3.8,7.5,4.3,12,2.9c3.6-1.1,7.2-2.7,10.7-4.1c2.8-1.2,5.7-1.9,8.2,0.4
				c2.5,2.3,2.9,5.2,2.1,8.4c-1.9,7.3-5.8,12.9-12.7,16.4c-5,2.5-10.3,4.5-15.9,4.7c-6.2,0.3-12.2-1.7-17-5.6
				c-1-0.8-2.1-1.5-3.2-2.3l-0.2,0.2C465.2,314,469.5,317.3,474.9,319.4z M461.7,189.4c0.2-0.9,0.5-1.8,0.8-2.7c2-4.9,5.5-5.6,9-1.4
				c3.6,4.3,5,9.5,5.9,14.9c0.1,0.7-0.8,1.6-1.2,2.4c-0.6-0.4-1-0.6-1-0.7c-1.6-4.3-1.6-4.3-6.3-4.2c-0.7,0-1.3,0-2-0.1
				c-0.2,0-0.5-0.2-1.1-0.6c1.2-1.6,2.4-3,3.5-4.5C466.4,189.4,466.4,189.4,461.7,189.4L461.7,189.4z M353.8,237.9
				c-0.5,7.9,0.3,15.9,2.4,23.5c0.3,1,0.3,2.1,0.2,3.1c-0.3,7.5-1.7,15-4.1,22.2c-0.9,2.5-2.1,4.8-3.7,7c-3.1,4.4-7.8,4.9-11.5,1.1
				c-2.2-2.4-4-5.2-5.3-8.3c-2.8-6.7-4.5-13.9-4.9-21.2c-0.4-6.1-0.8-12.2-0.6-18.2c0.2-8.6,1.2-17.2,4.5-25.2
				c1.9-4.2,4-8.3,6.4-12.3c3.8-6.8,7.8-13.6,11.5-20.4c1-2,1.8-4.1,2.4-6.2l-0.4-0.4c-6.3,7-12.6,14-19,20.9
				c-5.8,6.3-11.7,12.6-17.7,18.8c-2.4,2.7-5.6,4.5-9.1,5.1c0-0.3-0.1-0.6-0.1-0.8l0,0c-0.5-4-0.1-8.2,1.1-12.1
				c0.1-0.5,0.3-0.9,0.4-1.4l0.2-0.6c0.1-0.4,0.3-0.9,0.4-1.3s0.3-0.8,0.4-1.2s0.2-0.6,0.3-0.9s0.2-0.5,0.3-0.8
				c0.5-1.2,1-2.4,1.6-3.6l0.5-1.1l0.7-1.3l0.4-0.7c0.2-0.3,0.4-0.7,0.6-1s0.5-0.8,0.7-1.2l0,0c0.3-0.5,0.6-0.9,0.9-1.4
				s0.7-1.1,1.1-1.6s0.6-1,1-1.4l0.5-0.8c0.5-0.6,0.9-1.2,1.4-1.9c0.3-0.4,0.7-0.9,1-1.3l0,0c1.1-1.4,2.3-2.8,3.5-4.2
				c14.2-16.3,31.7-28,51.3-36.7c1.8-0.8,3.8-1,5.7-0.4c2.5,0.5,5,0.9,7.5,1.2c-2.6-4-5.9-6.5-8.9-9.2c-2.3-2.1-4.8-4.1-7-6.4
				c-3.3-3.4-2.9-6,1.4-8.1c7.3-3.8,15.6-5.6,23.9-5.1c0.3,0,0.5,0,0.8,0.1l1,0.1h0.4c0.7,0.1,1.4,0.2,2.1,0.3
				c0.5,0.1,1,0.2,1.4,0.3h0.1c0.5,0.1,0.9,0.2,1.4,0.3l0.9,0.2c1.3,0.3,2.5,0.7,3.7,1.2c0.3,0.1,0.6,0.2,1,0.4s0.8,0.3,1.1,0.5h0.1
				l1.1,0.5l1.1,0.5h0c0.4,0.2,0.7,0.4,1.1,0.6s0.4,0.2,0.6,0.3l0.9,0.5l0.7,0.4l0.6,0.4c0.9,0.6,1.7,1.1,2.6,1.8l0.9,0.6l0.8,0.6
				l0.8,0.6l0.2,0.2c10,8.6,15.7,19.8,18.9,32.4c0.9,3.4,1.3,6.9,2,10.4l-3.1-2.1c-1-0.7-2-1.3-3-2l-0.3-0.2
				c-1.9-1.2-3.7-2.4-5.5-3.7c-0.9-0.8-1.6-1.7-2-2.8c-2.2-4.7-5.3-8.9-9.2-12.3c-7-5.9-15.5-6.4-23.1-1.3
				c-7.1,4.7-11,11.7-13.5,19.5c-0.5,1.7-1.5,3.3-3,4.4c-6.8,5.3-11.2,12.4-14.7,20C358.2,208.1,354.5,222.8,353.8,237.9z
				 M555.7,369.7c-6.3,1.1-11.4-1.4-15.9-5.5c-0.7-0.6-0.9-1.9-1.3-2.8c-2.6-6.2-5.1-12.5-7.8-18.6c-0.8-1.6-1.8-3.1-2.8-4.5
				l-0.8,0.4c0.2,0.6,0.3,1.3,0.5,1.9c3.8,11.1,5.3,22.4,3.1,34c-0.6,3.1-1.7,6.1-3.2,8.9c-4.3,7.5-13,9.1-19.6,3.6
				c-2.8-2.6-5.5-5.4-7.8-8.4c-3-3.5-5.7-7.1-8.9-11.1c-1.3,4.1-2.2,7.5-3.4,10.8c-1.6,4.8-4.3,9.2-7.9,12.7
				c-6.1,5.7-14.1,5.9-20.4,0.3c-5.7-5-8.6-11.7-10.6-18.8c-0.9-3.2-1.4-6.4-2.2-10.2c-3.7,9.9-9.3,17.5-20.1,20.2
				c-3.8-8.1-9-15.4-15.4-21.6l-10.2-6.4c-3.8-1.1-7.5-2.4-11.4-3.2s-7.6-1-11.8-1.6c0.9-1.4,1.8-2.6,2.5-4c2.8-5.2,6-10.3,8.3-15.8
				c4-9.3,3.4-19.9-1.7-28.7c-2.8-5-6-9.7-9.1-14.4c-4.8-7.2-9.4-14.5-10.6-23.3c-0.6-4.4-0.9-8.9-1.3-13.4c-0.1-0.2-0.1-0.4,0-0.6
				c-0.1-0.6-0.2-1.2-0.3-1.9c-1.2-15.7-0.7-31.2,5.2-46.1c2.2-5.9,5.8-11.2,10.5-15.5c0,1.4,0,2.2,0,3c-0.4,8.5-0.5,16.9,1.5,25.3
				c0.2,0.6,0.4,1.2,0.7,1.8c0.3-7.5,0.3-15.1,1-22.6c0.8-9,2.9-17.7,7.8-25.5c2.1-3.4,5-6.2,8.4-8.3c6.9-4.4,13.8-3.3,19.1,2.9
				c3.6,4.3,6.1,9.2,8.4,14.3c1,2.4,2.2,4.7,3.2,7l0.1-0.1c-0.3-3.7-0.5-7.3-0.8-11.9c2.6,2.4,5.5,4.2,8,6.4l0.1,0.1
				c0.4,0.4,0.9,0.7,1.3,1.1l0.4,0.4c0.6,0.6,1.1,1.2,1.6,1.8c0.2,0.3,0.4,0.6,0.6,0.9c0.2,0.3,0.4,0.6,0.5,0.9s0.3,0.5,0.4,0.7
				s0.3,0.6,0.4,0.8s0.1,0.3,0.2,0.4c0.1,0.2,0.2,0.5,0.3,0.7c2.6-3.2,3.3-7,3.7-10.7c0.4-4.2,0.6-8.4,0.8-12.7
				c0.4-7.6,8-12.4,14.7-8.9c3.2,1.7,5.9,4,8.1,6.8c8.3,10.5,12.4,22.9,14.5,36c0.1,0.8,0.2,1.6,0.2,2.4c-0.1,0.4-0.2,0.8-0.3,1.2
				l-4.5,0.4c-0.3-1.5-0.6-2.8-0.9-4.2c-1.8-8-4.4-15.6-10.6-21.3c-2.4-2.2-5.1-3.8-8.6-3.4c-3.1,0.3-4.8,2.1-5.4,5.9
				c2.3-0.9,3.6-3.8,6.5-2.8c2.4,0.8,4,2.4,5.5,4.5c-6-0.2-8.1,1.3-10,7c-2.4,7.1-1.2,14.1,0.6,21.1c0.2,0.6,0.4,1.2,0.5,1.8
				c-0.2,0.4-0.3,0.7-0.5,0.8c-3.3,1.4-4.5,4.1-5.4,7.6v0.1c-0.1,0.5-0.2,0.9-0.3,1.4c-0.1,0.2-0.1,0.5-0.2,0.8s-0.2,0.7-0.3,1.1
				c-0.2,0.6-0.4,1.2-0.6,1.8c-0.1,0.4-0.3,0.8-0.4,1.2v0.1c-0.1,0.3-0.2,0.7-0.4,1s-0.2,0.7-0.4,1c-0.2,0.5-0.4,1-0.6,1.5
				s-0.4,1-0.7,1.4c-0.1,0.3-0.3,0.6-0.5,0.9l-0.5,0.9c-0.3,0.6-0.7,1.2-1,1.8c-0.2,0.3-0.4,0.6-0.5,0.9c-0.4,0.6-0.8,1.1-1.2,1.7
				c-0.2,0.3-0.4,0.6-0.6,0.8s-0.3,0.4-0.5,0.7s-0.3,0.4-0.4,0.5s-0.4,0.5-0.7,0.8s-0.3,0.4-0.5,0.6c-0.4,0.4-0.8,0.9-1.3,1.3
				l-0.6,0.6c-0.2,0.2-0.4,0.4-0.6,0.5c-0.7,0.6-1.4,1.2-2.2,1.8l-0.8,0.6c-0.3,0.2-0.6,0.4-0.9,0.6s-0.6,0.4-0.9,0.6l-1,0.6
				c-7.8,4.7-16.2,5-25.4,2.4c4.1-3.7,9.6-5.4,15.1-4.8c-5.9-4.8-14.1-4-20.9,1.4c-7.1,5.8-8.9,16.1-4.6,23c1-6.6,2.2-12.9,7.7-17.9
				c2.6,10.4,9.1,17.5,16.8,23.5c-0.4,5.7-0.8,11.3-1.2,16.8c0.5,11.7,2.4,23.1,7.3,33.8c4.1,9,9.6,17,17.9,22.7
				c7.9,5.8,18,7.6,27.5,5c4.6-1.2,7.8-4.1,10.9-7.5c3.4-6.6,4.1-13.6,3.2-21.2c1.3-0.3,2.5-0.7,3.7-1c10.9-2.8,19-9.1,24-19.2
				c2.2-4.5,3.3-9.2,2-14.2c-1.9-7.5-9.3-11.6-16.6-8.9c-3.1,1.2-6,2.8-9,4.1s-6.2,2-9.7-0.2c0.3-0.4,0.7-0.8,1-1.2l0.7-0.9
				c0.1-0.1,0.2-0.2,0.3-0.4s0.3-0.4,0.5-0.6c0.3-0.4,0.6-0.8,0.9-1.2s0.6-0.8,0.9-1.2s0.6-0.9,1-1.4c1-1.4,1.9-2.9,2.8-4.4
				c0.4-0.6,0.8-1.3,1.1-2c0.8-1.4,1.5-2.8,2.2-4.2c0.2-0.5,0.5-0.9,0.7-1.4c0.8-1.6,1.7-3.3,2.5-5l5.8,5.4c2.9,2.7,5.6,5.3,8.3,8
				c13.5,13.6,25.3,28.5,34.1,45.6c6,11.4,10.5,23.4,13.6,35.9c0.6,2.7,1.5,5.4,1.7,8.1C561.9,366.4,559.5,369.1,555.7,369.7z
				 M692.4,421.1c-1,2.1-2.4,4.1-3.6,6.1l-0.5,0.7c-0.1,0.1-0.3,0.3-0.3,0.5c-4,7.2-9.3,13.6-15.7,18.8c-17,14.4-37,25-58.5,31
				c-6.1,1.7-12.3,2.1-16.2,1.2c0.9-3.4,1.7-6.7,2.4-10.1c0.5-2.5,1-5,1.3-7.5c1.1-7.2,1.7-14.6,1.7-21.9c0-0.6,0-1.3,0-1.9
				c0-2.1-0.1-4.2-0.2-6.3c0-0.9-0.1-1.7-0.2-2.6c-0.2-2.7-0.5-5.4-0.9-8l-0.2-1.7c-0.1-0.6-0.2-1.1-0.3-1.7
				c-0.4-2.4-0.8-4.8-1.4-7.2c-0.2-0.8-0.3-1.6-0.5-2.3c-0.6-2.4-1.2-4.9-1.9-7.3c-0.2-0.7-0.4-1.3-0.6-2s-0.5-1.5-0.7-2.3
				s-0.5-1.5-0.8-2.3c-0.3-1-0.7-2-1.1-3c-0.2-0.5-0.4-1-0.5-1.5c-0.6-1.5-1.2-3-1.8-4.5c-0.2-0.5-0.4-1-0.6-1.5
				c-0.3-0.8-0.7-1.5-1-2.3l-0.5-1.2c-0.2-0.4-0.4-0.8-0.6-1.2s-0.4-0.8-0.6-1.2s-0.5-1-0.7-1.5s-0.5-1-0.7-1.5
				c-0.9-1.9-1.9-3.7-2.9-5.6l-1.2-2.2c-1.1-2-2.2-4-3.4-6l-0.9-1.5c-0.2-0.3-0.3-0.6-0.5-0.9c-0.3-0.5-0.6-1-0.9-1.4l-0.4-0.6
				c-0.4-0.6-0.8-1.3-1.2-1.9s-0.8-1.2-1.2-1.8c-0.6-0.9-1.2-1.8-1.8-2.6l-1.8-2.6c-0.4-0.5-0.8-1.1-1.2-1.6c-0.7-1-1.5-2.1-2.2-3.1
				c9.2,2.4,17.9,3.5,26.3-0.8c1.2,3.2,2.7,6.3,4.5,9.2c0.2,0.3,0.3,0.5,0.5,0.8s0.3,0.5,0.5,0.7l0.3,0.4c0.2,0.2,0.3,0.4,0.5,0.6
				c0.1,0.2,0.2,0.3,0.4,0.5c0.2,0.2,0.4,0.5,0.6,0.7c0.4,0.4,0.8,0.8,1.2,1.2s0.8,0.8,1.2,1.1c0.2,0.2,0.4,0.3,0.6,0.5l0,0
				c0.2,0.1,0.3,0.2,0.5,0.4s0.5,0.4,0.8,0.5c0.1,0.1,0.2,0.1,0.3,0.2c1.4,0.8,2.9,1.5,4.4,2l0.7,0.2l1.2,0.4l0.6,0.1l1.7,0.4l0.2,0
				c0.7,0.1,1.5,0.3,2.2,0.4c-3.9,7.5-4.5,16.3-1.5,24.2c2.9,8.1,8.4,13.9,16.4,17.6c-4,8.8-3,17.1,1.7,25.1
				c1.9,3.5,5.1,6.2,8.8,7.7c0.1,0.1,0.3,0.1,0.5,0.1c0.1,0,0.2,0.1,0.3,0.1c0.5,0.1,1,0.2,1.5,0.2l0.6,0c0.5,0,1.1,0.1,1.6,0.1
				c-0.1-0.3-0.4-0.6-0.6-0.8c-12.9-7.9-8.5-27.5,3.8-32.9c2.4-1.2,5.1-1.3,7.6-0.4c8.5,3.1,16.1-0.4,19.4-8.7
				c0.2-0.6,0.2-1.2,0.1-1.8c-5.4,4.3-11.2,6.2-17.7,3.9c-6.2-2.1-10.4-6.4-13-12.9c-1.8,4.6-0.7,8.4,1.4,12
				c-8.5,4.9-16.3,1.8-20.6-3.5c-5.8-7.2-7.4-15.4-4.9-24.3c0.7-2.8,2.4-5.3,4.8-7c7-7.4,15.8-11.5,25.5-13.4c5-1,10.2-0.7,15.4-1
				c0.9,0.1,1.9-0.2,2.7-0.7l-8.5-2.5c-7.3-0.2-14.5,0-21.5,2.4c-0.5,0.2-1.1,0.4-1.6,0.5c-0.8,0.3-1.7,0.6-2.5,0.9
				c-0.4,0.1-0.8,0.3-1.1,0.5l-0.7,0.3L634,349l-0.8,0.4l-1.1,0.5l-0.8,0.4c-0.3,0.1-0.5,0.3-0.8,0.4s-0.8,0.4-1.2,0.7
				s-0.8,0.5-1.2,0.7l-0.7,0.5l0,0c-1.2,0.8-2.3,1.6-3.5,2.5c-1.4,1.1-3.3,1.6-5.1,1.4c-13.8-1-21.2-16.9-14.2-29.9
				c1-1.8,2.6-3.3,3.9-4.9c3.5-4.2,8.4-6.3,13.4-7.9c11.2-3.5,22.7-3.1,34.1-1.2c1.3,0.3,2.6,0.3,3.8-0.1c-1.5-1-3-2-4.6-2.9
				s-3.3-1.6-5-2.4c-3.4-0.5-6.7-1.3-10.1-1.6c-14.1-1.1-27,2.2-38.2,11.2c-7.8-2.1-12.7-8.3-12.8-16.9c-0.1-5.8,1.4-11.2,5.2-15.8
				c5.5-8,12.8-12.6,22.6-13.7c17.2-1.9,33.3,0.9,47.8,10.5l1.1,0.7c0.3,0.2,0.6,0.4,0.8,0.6c0.5,0.4,1,0.7,1.6,1.1
				c1.3,1,2.6,2,3.9,3.1c0.4,0.3,0.8,0.6,1.2,1l0.1,0.1c0.3,0.3,0.7,0.6,1,0.9c0.3,0.3,0.6,0.5,0.8,0.8l0.8,0.7c1.5,1.5,3,3,4.3,4.6
				c0.2,0.2,0.3,0.3,0.4,0.5s0.6,0.7,0.8,1s0.4,0.5,0.5,0.7c1.2,1.5,2.4,3.1,3.5,4.7c0.4,0.5,0.7,1,1.1,1.6s0.8,1.3,1.2,1.9l0.7,1.2
				c0.5,0.8,0.9,1.6,1.4,2.4c0.2,0.4,0.4,0.8,0.6,1.2c0.9,1.6,1.7,3.3,2.4,5C708.9,350.2,709.1,385.8,692.4,421.1L692.4,421.1z
				 M174.1,567.8C174.1,567.8,174.1,567.9,174.1,567.8L174.1,567.8L174.1,567.8z"/>
			<path class="st6" d="M174.1,567.9l0.5,0.3l-0.4,0.2L174.1,567.9L174.1,567.9z"/>
			<path class="st7" d="M323.9,353l-0.4,0.5L323.9,353L323.9,353z"/>
			<path class="st8" d="M239.2,503.2c4.1-5.5,7.9-11.3,12.2-16.6c15.1-18.4,32.7-34.2,51.2-49c4.4-3.5,8.9-7,13.3-10.6l-0.1,0
				l0.8-0.1l9.3-5.8l-0.3-0.8c-3.9,1-7.8,1.9-11.6,3.1c-9,2.8-17.3,7-25.5,11.5c-9.7,5.2-18.7,11.5-26.9,18.8
				c-9,8.1-17.3,17.2-24.5,26.9c-0.7,0.7-1.4,1.4-2.3,1.9c15-40.8,38.9-75.1,74.8-100.3c14.1-9.9,29.5-17.2,46.6-20.3
				c9.6-1.8,19.3-1.9,28.8,0.8c16.3,4.6,26.7,15.5,32.8,31c4,10.3,5.5,21,5.7,31.9c0,2.5,0,5,0.1,7.5c-0.9,1.7-1.7,3.4-2.3,5.2
				c-3.5,12-8.1,23.7-13.6,34.9c-4.4,9.1-9.4,18-14.2,27c-4.6,8.3-10.2,16-16.8,22.9c-6.4,6.9-13.2,13.4-20.3,19.6
				c-7.8,6.7-16,12.9-24.3,18.9c-16.5,11.9-34.5,21.4-52.9,30.1c-5.2,2.5-10.5,4.9-15.9,7c-14.3,5.8-28.9,10.7-43.7,14.8
				c-7.1,1.9-14.2,4.1-21.7,3.6c1.6-1.6,3.1-3.3,4.8-4.7c13-11,27.2-20.2,42-28.5c19.2-10.9,38.7-21.1,58.1-31.7
				c1-0.6,1.9-1.3,2.7-2c1.7-0.3,3.4-0.8,5-1.5c7.2-3.6,14.3-7.3,21.5-11c0.7-0.4,1.4-0.9,2-1.4c-3.5-0.3-7-0.2-10.4,0.3
				c-7.2,0.8-14.4,1.4-21.5,2.5c-11.5,1.7-22.9,4.5-33.9,8.4c-8.3,2.9-16.3,6.5-24.5,9.8c-0.8,0.3-1.7,1.7-2.6,0.1
				c11.9-11,25-20.4,38.2-29.6c10.3-7.2,20.7-14.2,31.1-21.3c0.6-0.5,1.2-1,1.7-1.6h-0.1l0.7-0.9c1.1-0.3,2.2-0.7,3.2-1.1
				c0.9-0.5,1.5-1.5,2.4-2c8.1-5.1,16.3-10.3,24.4-15.4c0.8-0.5,1.6-1.1,3.1-2.1c-2,0-3.2,0-4.4,0c-0.5,0-1.1,0-1.6,0.1
				c-12.9,2.5-25.5,6.3-37.6,11.4c-15.3,6.8-29.8,15.3-43.2,25.4c-8.5,6.2-16.3,13.4-24.4,20.1c-0.7,0.5-1.5,0.8-2.4,1.1
				c2.2-3.4,4.3-6.9,6.8-10.2c13.4-17.4,29-32.6,45.9-46.5c11.6-9.6,23.8-18.5,35.7-27.6c0.9-0.7,1.7-1.5,2.5-2.3
				c1.5-0.5,3-1.1,4.5-1.8c2.7-1.7,5.2-3.6,7.7-5.5c0.7-0.5,1.3-1.2,2-1.7c-2.5-0.5-5-0.6-7.5-0.2c-8.1,1.8-15.9,4.6-23.3,8.5
				c-10.5,5.3-20.5,11.4-30,18.3c-9.4,6.6-18.3,13.9-26.6,21.8c-2.6,2.5-5,5.1-7.7,7.5C241.2,502.3,240.2,502.8,239.2,503.2z"/>
			<path class="st9" d="M99.5,426.1c2.2-12.1,6-23.5,12.8-33.8c10.8-16.2,26.2-24.9,45.3-27.4c8.9-1.2,18-0.9,26.9,0.7
				c10.4,3.1,19.7,8,27.6,15.9c0.1-0.6,0.4-1,0.3-1.3c-2.3-10.1-4-20.4-8.2-30c-4.8-10.8-11.6-20-21.7-26.6
				c-8.8-5.8-18.7-8.5-29-9.5c-11.6-1.1-23.3,0.4-34.2,4.3c-11,3.9-21.1,9.9-29.7,17.6c-0.3,0.2-0.9,0-1.4,0
				c4.4-11.7,11.9-21.2,21.2-29.4c14.2-12.5,30.6-20.4,49.6-22c25.1-2.1,45.5,7.5,61.9,26.2c2.2,2.5,4.1,5.2,6.2,7.8
				c0.7,0.8,1.4,1.5,2.2,2.2c3.3,9.2,6.7,18.5,10.1,27.9c0.4-1,0.8-2,1.1-3.1c1.4-8.7,3.1-17.3,3.9-26c1-9.9-0.2-19.8-1.7-29.6
				c-1.4-8.8-3.7-17.5-6.9-25.8c-5.2-13.9-13-26.1-24.5-35.4c-14.2-11.6-31.9-18.1-50.2-18.5c-1.1-0.1-2.2-0.4-3.3-0.7
				c16.6-4.7,34.3-3.7,50.2,2.8c17.7,7.1,31.1,19.4,41.8,34.9c10.9,15.8,17.6,33.4,21.7,52.1c4.3,19.4,5.2,39.1,4,58.9
				c-0.1,1.1-0.6,2.3-0.7,3.4c0,1.3,0.1,2.7,0.2,4c0.6-0.8,1.1-1.6,1.5-2.5c1.3-5.8,2.6-11.6,3.8-17.5c0.4-2.5,1.4-4.8,3-6.6
				c7.8-8.9,11.9-19.6,14.4-31c1.5-6.5,2.1-13.1,1.6-19.8c0-0.6,0-1.2,0.1-2.5c2.9,5.3,5,11,6,16.9c4.2,21.4,3.8,43.5-1.2,64.7
				c-1.1,4.9-3.8,9.4-7.7,12.6c-15.2,13-28.9,27.8-40.7,43.9c-4.9-0.7-9.7,0.2-14.3,1.7c-4.4,1.4-8.6,3-13,4.5l0,0
				c1.6-2.2,3.1-4.5,4.8-6.6c1.8-2.3,3.8-4.6,5.7-6.9c-0.5-0.4-0.7-0.7-0.9-0.7c-9.1-0.4-18.2-0.5-27.1,1.9
				c-12,3.1-23.5,7.8-34.2,14c-6.9,4-12.9,9.2-17.9,15.4c-7,8.4-11.8,18-15.8,28.1c-0.4,1.1,0.4,2.9-1.5,3.2
				c0.4-22.5,5.4-43.5,20-61.3c4.5-5.7,10.6-9.7,17.6-11.7c0.4-0.1,0.7-0.6,1.1-0.9l31.3-4.9c-3.1-2.7-6.5-5.1-10.1-7.1
				c-8.6-4.7-17.9-7.7-27.6-8.9c-8.8-1.2-17.7-1-26.4,0.6c-10.6,2.1-19.3,7.7-26.9,15c-7.3,7.1-13.5,15.3-18.4,24.2
				C101,424.6,100.3,425.4,99.5,426.1z"/>
			<path class="st7" d="M576.2,368c13,24,21,49.3,19.8,77c-0.7,15.8-5,31.2-12.7,45c-0.4,0.8-1,1.5-1.6,2.3c-1.1,0.6-2.2,1.3-3.2,2
				c-3.2,2.7-6.3,5.6-9.6,8.2c-10.4,8.2-21.5,15.3-32.9,22c-8.5,5.1-17.5,9.2-27,12.1c-10,3.1-20.2,5.8-30.7,6.7
				c-8.5,0.7-17,1.8-25.5,2.1c-6,0.2-12.1-0.3-18.2-0.7c-2.3-0.3-4.5-0.6-6.8-1.1c0.5-1.2,0.8-2.2,1.2-3.1c1.4-2.9,2.9-5.7,4.2-8.5
				c3.6-7.5,7.6-14.8,10.5-22.6c3.6-9.5,5.4-19.5,6.5-29.5c1.1-9.3,2.4-18.5,3-27.8c0.7-11.2,0.7-22.5,1-33.7c0-1.4,0-2.9,0-4.6
				l2.4,0.9c8.2,3.3,16.8,3.5,25.4,2.6c6.8-0.6,12.9-4.7,16.1-10.8c0.6,0.2,1.1,0.4,1.6,0.7c7.2,4.9,15.4,4.7,23.3,3.5
				c7.6-1.2,12.3-6.6,15.2-13.8c0.4,0.5,0.9,0.9,1,1.3c1.4,6.7,3.5,13.3,3.9,20c0.4,8.3,0.2,16.6-0.6,24.9
				c-1,12.4-5.9,23.4-13.2,33.3c-1.7,2.3-3.4,4.6-5.1,6.9l-1.1,0.3l0.2,0.5l0.9-0.7c0.8-0.1,1.6-0.2,2.3-0.4
				c10.4-3.5,19.8-9.5,27.3-17.6c7.3-7.7,11.5-17.8,11.8-28.5c0.1-4.4,0.3-8.8,0.2-13.3c-0.3-8.5-1.8-17-4.6-25.1
				c-1.4-4.3-3.7-8.3-5.7-12.6c0.3-0.2,0.6-0.3,1-0.3c5.8,0,10.3-2.8,14.3-6.6c2.6-2.3,4.2-5.5,4.3-9
				C575.6,369.4,575.9,368.6,576.2,368z"/>
			<path class="st10" d="M578.6,494.3c-3.2,2.7-6.3,5.6-9.6,8.2l-1.8,1.4l-0.6,0.5c-1,0.7-1.9,1.5-2.9,2.2c-0.7,0.5-1.4,1-2.1,1.5
				s-1.1,0.8-1.7,1.2c-0.1,0.1-0.3,0.2-0.4,0.3l-2,1.4c-0.7,0.5-1.3,0.9-2,1.4l-4,2.6l-1.9,1.2l-0.4,0.3l-0.2,0.2l-2.6,1.6
				c-0.8,0.5-1.7,1.1-2.6,1.6l-1.3,0.8c-0.7,0.4-1.4,0.9-2.1,1.3l-2.1,1.3l-2.1,1.3c-8.5,5.1-17.6,9.2-27,12.1
				c-10,3.1-20.2,5.8-30.7,6.7c-8.5,0.7-17,1.8-25.5,2.1c-6,0.2-12.1-0.3-18.2-0.7c-2.3-0.3-4.5-0.6-6.8-1.1
				c0.5-1.2,0.8-2.2,1.2-3.2c1.4-2.8,2.9-5.7,4.2-8.5c3.6-7.5,7.6-14.9,10.5-22.6c3.6-9.5,5.4-19.5,6.5-29.5
				c1.1-9.3,2.4-18.5,3-27.8c0.7-11.2,0.7-22.5,1-33.7c0-1.4,0-2.9,0-4.6l2.4,0.9c8.2,3.3,16.8,3.4,25.4,2.6
				c6.8-0.6,12.9-4.7,16.1-10.8c0.6,0.2,1.1,0.4,1.6,0.7c7.2,4.9,15.4,4.7,23.3,3.5c7.6-1.2,12.3-6.6,15.2-13.8
				c0.4,0.5,0.9,0.9,1,1.3c1.4,6.7,3.5,13.3,3.9,20c0,0.5,0.1,1,0.1,1.4l0,0c0,0.5,0,1,0.1,1.5s0,0.9,0,1.4v0.1v1.2
				c0,0.6,0,1.2,0,1.8c0,5.8-0.4,11.7-0.9,17.5c0,0.3,0,0.6-0.1,0.9s0,0.5-0.1,0.8c0,0.4-0.1,0.9-0.2,1.3l0,0c0,0.3-0.1,0.7-0.1,1
				s-0.1,0.7-0.2,1s-0.2,0.9-0.2,1.3s-0.2,1.2-0.4,1.7s-0.2,1-0.3,1.5l0,0c0,0,0,0,0,0.1c0,0.1,0,0.1,0,0.2
				c-0.1,0.4-0.2,0.9-0.3,1.3s-0.3,1-0.5,1.5c-0.1,0.3-0.2,0.5-0.3,0.8l-0.3,0.9c0,0.2-0.1,0.3-0.2,0.5c-0.2,0.6-0.4,1.2-0.7,1.8
				c-0.1,0.3-0.2,0.6-0.4,0.9c-0.2,0.5-0.4,0.9-0.6,1.3s-0.3,0.8-0.5,1.1l-0.4,1c-0.1,0.3-0.3,0.6-0.4,0.9l-0.6,1.2
				c-0.2,0.4-0.4,0.8-0.7,1.2l0,0c-0.7,1.2-1.4,2.4-2.1,3.6c0,0.1-0.1,0.1-0.1,0.2c-0.2,0.3-0.4,0.6-0.6,0.9s-0.3,0.5-0.5,0.8
				s-0.4,0.6-0.6,0.9l-0.4,0.6l-0.3,0.5c-0.1,0.2-0.2,0.3-0.3,0.5l-0.9,1.3c-1.7,2.3-3.4,4.6-5.1,6.9l0.1,0.1
				c0.8-0.1,1.5-0.2,2.3-0.4l1.8-0.6c0.5-0.2,0.9-0.3,1.3-0.5l0.2-0.1l1.1-0.4l1.1-0.5l0.7-0.3c0.5-0.2,0.9-0.4,1.3-0.6l1.3-0.7
				l0.9-0.4l0,0l0.8-0.5h0.1l0.7-0.4c0.4-0.2,0.7-0.4,1.1-0.6l1.1-0.6c0.6-0.4,1.2-0.8,1.8-1.1l0.2-0.1l0.1-0.1
				c0.3-0.2,0.7-0.4,1-0.7c0.5-0.4,1.1-0.8,1.6-1.2s0.8-0.6,1.2-0.9s0.9-0.7,1.3-1.1l0.7-0.6c0.8-0.7,1.7-1.5,2.5-2.2l0.8-0.8
				l0.2-0.2c0.3-0.3,0.7-0.6,1-1s0.9-0.9,1.3-1.4c7.3-7.7,11.5-17.8,11.8-28.5c0.1-4.4,0.3-8.8,0.2-13.3c0-1.1-0.1-2.1-0.2-3.2
				c0-0.6-0.1-1.2-0.1-1.8s-0.1-1.1-0.2-1.6s-0.1-0.9-0.2-1.4s-0.1-1-0.2-1.6l-0.2-1c0-0.2-0.1-0.5-0.1-0.7
				c-0.1-0.4-0.1-0.8-0.2-1.2c0-0.3-0.1-0.5-0.2-0.8s-0.1-0.4-0.1-0.5c-0.1-0.4-0.1-0.7-0.2-1.1l-0.3-1.2c-0.2-0.8-0.4-1.6-0.6-2.5
				c-0.1-0.4-0.2-0.8-0.3-1.2s-0.2-0.8-0.3-1.1s-0.2-0.8-0.3-1.1s-0.3-0.9-0.4-1.4s-0.3-1-0.5-1.5c-1.5-4.3-3.7-8.3-5.7-12.6
				c0.3-0.2,0.6-0.3,1-0.3c5.8,0,10.3-2.8,14.3-6.6c2.6-2.3,4.2-5.5,4.3-9c0.2-0.7,0.4-1.4,0.8-2l-5.1-9.7c-1.8,7.2-3.5,14-11,17.1
				s-13.9,0.4-20.6-3.1c-0.3,1.3-0.6,2.3-0.8,3.3c-1,5.8-3.3,11.2-6.8,15.9c-9.4,12.2-26.8,11.7-35.5-1c-0.5-0.8-1.1-1.6-1.8-2.5
				c-5,12.9-13.5,18.4-23.6,17.9c-14.2-0.7-23.4-8.7-27.2-22.4l-12.8,10.3c0.6,5.7,1.4,11.6,2,17.5c1.8,18,0.8,36.1-3,53.7
				c-6.6,30.5-20.5,56.9-40.4,80l1.8,1.2c14.9,9.6,29,18.7,42.3,27.5c4.6-0.4,9.3-0.9,13.9-1.6c26.8-4,52.7-12.6,76.4-25.5
				c9.9-5.4,19.2-11.7,27.9-18.9c6.2-5.2,12-10.9,17.3-17.1c4.8-5.6,9.5-11.4,12.5-18.2C580.7,492.9,579.6,493.6,578.6,494.3z
				 M547.1,386.6l0.3,0.5h0.1v0.1l0,0l0.1,0.1l0.4,0.4c0.1,0.1,0.2,0.1,0.2,0.2c0.3,0.2,0.5,0.5,0.8,0.8s0.5,0.5,0.7,0.8
				c0.2,0.2,0.4,0.5,0.6,0.7l0.3,0.4c0.2,0.2,0.3,0.4,0.5,0.6l0.1,0.1l0.3,0.4l0.1,0.2c0.4,0.5,0.7,1.1,1.1,1.7
				c0.2,0.3,0.4,0.7,0.5,1l0.2,0.5c0.2,0.3,0.3,0.6,0.4,0.9l0,0c0.2,0.4,0.4,0.8,0.5,1.2l0,0c0.2,0.4,0.3,0.8,0.5,1.2
				c0.3,0.9,0.6,1.8,0.9,2.7c0.3,1,0.6,2.1,0.9,3.1c0.1,0.4,0.2,0.7,0.3,1s0.2,0.6,0.2,0.9l0.4,1.6c0,0.1,0,0.1,0,0.2
				c0.2,0.7,0.3,1.3,0.5,2c0,0,0,0.1,0,0.1c0.1,0.4,0.2,0.8,0.2,1.1s0.2,0.9,0.2,1.4c0,0.2,0.1,0.4,0.1,0.5c0.1,0.5,0.2,1,0.2,1.5
				c0,0.3,0.1,0.6,0.1,0.9c0.1,0.5,0.1,1,0.2,1.5c0,0.3,0.1,0.6,0.1,0.9s0,0.4,0,0.5c0,0.4,0.1,0.8,0.1,1.2c0.1,0.7,0.1,1.4,0.1,2.1
				c0,0.5,0,0.9,0.1,1.3c0.2,5.7-0.2,11.4-1.4,17c-0.2,1.1-0.5,2.1-0.7,3.2c-0.2,0.7-0.4,1.4-0.6,2l-0.2,0.5
				c-0.2,0.6-0.3,1.2-0.5,1.7c-1,2.9-2.1,5.8-3.4,8.5c-0.3,0.6-0.6,1.2-0.9,1.9s-0.8,1.5-1.2,2.2s-0.8,1.5-1.2,2.2l-0.7,1.2
				c-0.3,0.5-0.6,1-0.9,1.4s-0.5,0.7-0.7,1.1s-0.6,0.8-0.8,1.1s-0.6,0.8-0.9,1.1c-0.6,0.7-1.2,1.5-1.9,2.1c-0.3,0.3-0.6,0.7-1,1
				c-0.6,0.6-1.3,1.2-2,1.8c-0.2,0.2-0.4,0.3-0.6,0.5c-0.1,0.1-0.2,0.2-0.3,0.2c-0.2,0.2-0.4,0.3-0.6,0.4c-0.6,0.5-1.2,0.9-1.9,1.3
				c-0.3,0.2-0.5,0.3-0.8,0.5c-1.1,0.7-2.2,1.3-3.3,1.9l-0.9,0.3c0.2-0.2,0.3-0.5,0.5-0.7c1.1-1.9,2.3-3.8,3.5-5.7
				c0,0,0-0.1,0.1-0.1l1.2-2l1.1-1.8c0.5-0.8,0.9-1.5,1.4-2.3c0.3-0.5,0.6-1,0.9-1.6c0.4-0.7,0.8-1.5,1.2-2.2s0.7-1.3,1-1.9
				s0.6-1.3,0.9-1.9c1-2.1,1.9-4.3,2.7-6.4l0.5-1.5c0.2-0.5,0.3-1,0.5-1.5c0.7-2,1.3-4,1.8-6.1c0.1-0.5,0.2-0.9,0.3-1.4
				c0.3-1.2,0.5-2.4,0.8-3.5c0.1-0.7,0.3-1.4,0.4-2.1c0.2-1.1,0-0.1,0-0.1c0.1-0.7,0.2-1.3,0.3-2c0,0,0-0.1,0-0.1
				c0.1-0.6,0.2-1.2,0.2-1.7c0-0.3,0.1-0.5,0.1-0.8c0.1-0.6,0.1-1.2,0.2-1.8s0.1-1.2,0.2-1.9s0.1-1.2,0.1-1.8c0-0.4,0-0.7,0-1
				s0-1,0.1-1.5c0-0.2,0-0.5,0-0.8c0-0.6,0-1.2,0-1.8s0-1.3,0-2s0-1.4-0.1-2.1s0-1.2-0.1-1.8c0-0.2,0-0.4,0-0.6
				c0-0.6-0.1-1.2-0.1-1.8l-0.1-1c0-0.5-0.1-1-0.2-1.6c-0.1-0.7-0.2-1.4-0.3-2c0-0.1,0-0.2,0-0.3c-0.1-0.6-0.2-1.3-0.3-1.9
				c0-0.2-0.1-0.4-0.1-0.7c-0.1-0.5-0.2-0.9-0.2-1.4c0-0.3-0.1-0.5-0.2-0.8s-0.1-0.8-0.2-1.1c-0.1-0.5-0.2-1.1-0.3-1.7
				s-0.2-0.8-0.3-1.2l-0.2-0.7c-0.2-0.8-0.4-1.6-0.6-2.4c-0.1-0.4-0.2-0.8-0.3-1.2s-0.2-0.8-0.3-1.2c-0.5-1.9-0.8-3.9-1.1-5.9
				l-0.1-0.1c0,0,0-0.1,0-0.1H547C547,387,547.1,386.8,547.1,386.6z"/>
			<path class="st11" d="M608.5,321.8c3.5-4.2,8.4-6.3,13.4-7.9c11.2-3.5,22.7-3.1,34.1-1.2c1.3,0.3,2.6,0.3,3.8-0.1
				c-1.5-1-3-2-4.6-2.9s-3.3-1.6-5-2.4c-1.3-3.1-4.3-4.3-6.9-5.3c-4.4-1.8-8.9-3.1-13.6-3.8c-6.8-0.9-13.7-0.9-20,3
				c-1.3,0.6-2.7,0.7-4,0.3c-2.2-0.5-4.1-2-5.2-4c-2-4.4-4.1-8.8-6.2-13.2c5.5-8,12.8-12.6,22.6-13.7c17.2-1.9,33.3,0.9,47.8,10.5
				c12.5,8.2,22.3,19.9,28.3,33.6c15.8,35.5,16,71-0.7,106.3c-1,2.1-2.4,4.1-3.6,6.1l-0.5,0.7c-0.2,0.1-0.2,0.3-0.3,0.5
				c-1.4-1.4-2.5,0.1-3.5,0.5c-5.1,2.1-10.1,4.6-15.8,4.4c-4,0-7.3-3.2-7.3-7.3c-0.1-3.8,0.7-7.6,2.3-11.1c1.4-3.2,3.4-4.3,6.8-4.9
				c6-1,10.8-3.9,12.6-10.4c1.9-6.7,1.8-11.6-0.9-18.5c-1.2,1.6-2.1,3.5-3.5,4.7c-8.2,6.7-21.7,6.3-28.3-3.5
				c-2.2-3.3-3.7-7.2-5.5-10.8c-3,3.7-4.9,8.2-5.3,13c-7.1-2.1-10.6-5.8-11.6-12.7c-0.5-3.4-0.5-6.8-0.8-10.2
				c7-7.4,15.8-11.5,25.5-13.4c5-1,10.2-0.7,15.4-1c0.9,0.1,1.9-0.2,2.7-0.7l-8.5-2.5c-0.3-0.4-0.6-1.1-1-1.2
				c-5.1-1.2-10.1-2.8-15.3-3.4c-5.5-0.6-11.1,0.5-16,3.3c-5.9,3.4-9.6,1.5-13.2-3c-0.2-0.2-0.4-0.4-0.6-0.6
				c-4.2-3.7-6.6-9.1-6.6-14.7C609.4,323.5,609,322.6,608.5,321.8z"/>
			<path class="st12" d="M627.2,361.7c0.2,3.4,0.3,6.8,0.8,10.2c1,6.9,4.5,10.6,11.6,12.7c0.4-4.8,2.3-9.3,5.3-13
				c1.8,3.7,3.2,7.5,5.5,10.8c6.6,9.8,20,10.2,28.3,3.5c1.5-1.2,2.3-3.1,3.5-4.7c2.7,6.9,2.8,11.9,0.9,18.5
				c-1.8,6.5-6.6,9.4-12.6,10.4c-3.4,0.5-5.4,1.7-6.8,4.9c-1.6,3.5-2.4,7.3-2.3,11.1c0,4,3.3,7.3,7.3,7.3c5.7,0.2,10.7-2.3,15.8-4.4
				c1.1-0.5,2.1-1.9,3.5-0.5c-4,7.2-9.3,13.6-15.7,18.8c-17.3,14.4-36.7,25.1-58.5,31c-6.1,1.7-12.3,2.1-16.2,1.2
				c13.7-50.3,0.8-95-29.9-136.2c9.2,2.4,17.9,3.5,26.3-0.8c5.7,14,10.7,18.5,23,20.4c-3.9,7.5-4.5,16.3-1.5,24.2
				c2.9,8.1,8.4,13.9,16.4,17.6c-4,8.8-3,17.1,1.7,25.1c1.9,3.5,5.1,6.2,8.8,7.7c1.5,0.4,3,0.6,4.6,0.7l0.6,0.4l-0.7-0.3
				c-0.2-0.3-0.4-0.7-0.7-0.9c-12.9-7.9-8.5-27.5,3.8-32.9c2.4-1.2,5.1-1.4,7.6-0.4c8.5,3.1,16.1-0.4,19.4-8.7
				c0.2-0.6,0.2-1.2,0.1-1.8c-5.4,4.3-11.2,6.1-17.7,3.9c-6.2-2.1-10.4-6.4-13-12.9c-1.8,4.6-0.7,8.4,1.4,12
				c-8.5,4.8-16.3,1.8-20.6-3.5c-5.8-7.2-7.4-15.4-4.9-24.3C623,365.9,624.7,363.4,627.2,361.7z"/>
			<path class="st10" d="M141.2,478.6c2-0.3,1.1-2.2,1.5-3.2c4-10.1,8.8-19.7,15.8-28.1c5-6.2,11.1-11.4,17.9-15.4
				c10.7-6.2,22.2-10.9,34.2-14c9-2.3,18-2.3,27.1-1.9c0.2,0,0.4,0.3,0.9,0.7c-1.9,2.3-3.9,4.5-5.7,6.9c-1.7,2.1-3.2,4.4-4.8,6.6
				l-1.1,0.3l0.3,0.5l0.9-0.8c4.3-1.5,8.6-3.1,13-4.5c4.6-1.5,9.4-2.5,14.3-1.7c-2.6,4.3-4.9,8.8-7.8,12.9
				c-12.8,18-21.2,37.8-26.6,59.1c-1.2,4.8-2.4,9.5-3.5,14.3c-0.9,4.2-2.3,8.1-4.4,11.9c-3.5,6.3-5.3,13.4-5.1,20.6
				c0.1,1.9,0,3.9-0.3,5.8c-19.5-34.1-22.2-69.8-9.6-107.9c-3.7,2.5-6.7,4.3-9.4,6.5c-13.4,10.6-21.4,24.7-25.8,41
				c-3.7,14.1-4.9,28.8-3.4,43.3c0.5,5.8,1.1,11.6,1.2,17.6c-2.2-4-4.6-7.9-6.7-12c-8.8-17.6-13.3-37.1-13.2-56.8
				C141,479.6,141,479.1,141.2,478.6z"/>
			<path class="st13" d="M350.7,182.4c-6.3,7-12.6,14-19,20.9c-5.8,6.3-11.7,12.6-17.7,18.8c-2.4,2.7-5.6,4.5-9.1,5.1
				c-0.7-4.3-0.3-8.7,1-12.9c2.9-10.6,8.7-19.5,15.8-27.7c14.2-16.3,31.7-28,51.3-36.7c1.8-0.8,3.8-1,5.7-0.4c2.5,0.5,5,0.9,7.5,1.2
				c-2.6-4-5.9-6.5-8.9-9.2c-2.3-2.2-4.8-4.2-7-6.5c-3.3-3.4-2.9-5.9,1.4-8.1c16.4-8.3,34.8-6.8,49.3,5.5
				c10,8.6,15.7,19.8,18.9,32.4c0.9,3.4,1.3,6.9,2,10.4c-4.2-2.8-8.1-5.3-11.8-7.9c-0.9-0.8-1.6-1.7-2-2.8
				c-2.2-4.7-5.3-8.9-9.2-12.3c-7-5.9-15.5-6.4-23.1-1.4c-7.1,4.7-11,11.7-13.5,19.6c-0.5,1.7-1.5,3.3-3,4.4
				c-6.8,5.3-11.2,12.4-14.7,20c-6.4,13.6-10,28.3-10.8,43.2c-0.5,7.9,0.3,15.9,2.4,23.5c0.3,1,0.3,2.1,0.2,3.1
				c-0.4,7.5-1.7,15-4.1,22.1c-0.9,2.5-2.1,4.8-3.7,7c-3.1,4.4-7.8,4.9-11.5,1.1c-2.2-2.4-4-5.2-5.3-8.3c-2.8-6.7-4.5-13.9-4.9-21.1
				c-0.4-6.1-0.8-12.2-0.6-18.2c0.2-8.6,1.2-17.2,4.5-25.2c1.9-4.2,4-8.3,6.4-12.3c3.8-6.8,7.8-13.6,11.5-20.4c1-2,1.8-4.1,2.4-6.2
				l0.3-0.9L350.7,182.4z M437.6,166.7l0.3,1.9l0.5-0.2C438.2,167.8,438,167.2,437.6,166.7c-0.3-2-0.8-3.9-1.4-5.7
				c-3-7.9-7.3-15.2-12.7-21.8c-9.8-12.3-22.6-15.6-37.4-13.5c-3.5,0.5-6.8,1.8-10.2,2.8c-1.4,0.4-2.9,1.5-1.7,2.8
				c2,2.1,4.2,3.9,6.8,5.3c1,0.6,2.9-0.3,4.3-0.7c10-3.1,19.8-2.8,29,2.4c5.8,3.2,10.1,8.1,13.7,13.5
				C431.4,156.6,434.5,161.7,437.6,166.7L437.6,166.7z M313.4,213.1l0.9,0.7c0.2-0.5,0.5-1,0.8-1.4c4.2-5.7,8.3-11.6,12.8-17.1
				c4.9-6.2,10.6-11.8,16.8-16.7c9.4-7.2,19.7-13.2,30.1-19c2.7-1.5,4-3.8,5.6-6.2c-2.5-1.7-4.7-1.9-7-0.6
				c-8.8,4.6-17.2,9.8-25.1,15.7c-11.1,8.4-21.2,17.9-28.5,29.9C316.7,202.9,314.6,207.9,313.4,213.1z M312.9,214.8l0.2,0.2v-0.3
				L312.9,214.8z"/>
			<path class="st14" d="M383.5,216.3c0.3-7.5,0.3-15.1,1-22.6c0.8-9,2.8-17.7,7.8-25.5c2.1-3.4,5-6.2,8.4-8.3
				c6.9-4.4,13.8-3.3,19.1,2.9c3.6,4.3,6.1,9.2,8.3,14.3c1,2.4,2.2,4.7,3.3,7c0.1,0.6,0.2,1.2,0.3,1.9l0.5-0.1l-0.7-1.8
				c-0.2-3.7-0.5-7.3-0.8-11.9c5.2,4.8,11.5,7.4,13.8,14.2c2.6-3.2,3.3-7,3.7-10.7c0.4-4.2,0.6-8.4,0.8-12.7
				c0.4-7.6,8-12.4,14.7-8.9c3.2,1.7,5.9,4,8.1,6.8c8.3,10.6,12.3,23,14.5,36.1c0.1,0.8,0.2,1.6,0.2,2.4c-0.1,0.4-0.2,0.8-0.3,1.2
				l-4.5,0.4c-0.3-1.5-0.6-2.8-0.9-4.2c-1.8-8-4.4-15.6-10.6-21.3c-2.4-2.2-5.1-3.8-8.6-3.4c-3.1,0.3-4.8,2.1-5.4,5.9
				c2.3-0.9,3.6-3.8,6.5-2.8c2.4,0.8,4,2.4,5.5,4.5c-6-0.2-8.1,1.3-10,7c-2.4,7.1-1.2,14.1,0.6,21.1c0.2,0.6,0.4,1.2,0.5,1.8
				c-0.2,0.4-0.3,0.7-0.5,0.8c-3.3,1.4-4.5,4.1-5.4,7.6c-2.7,11.5-8.2,21.2-18.6,27.6c-7.8,4.7-16.2,5-25.4,2.4
				c4.1-3.7,9.6-5.4,15.1-4.8c-5.9-4.8-14.1-4.1-20.8,1.4c-7.1,5.8-8.9,16.2-4.6,23c1-6.6,2.1-12.9,7.7-17.9
				c2.6,10.4,9.1,17.5,16.8,23.5c-0.4,5.8-0.8,11.3-1.2,16.8l-4.4-1c-1.2-0.5-2.5-0.9-3.7-1.4c-6.3-2.4-12.5-5-17.9-9.2
				c-4.1-3.2-7.7-6.9-9.1-12.1c0-1.5,0-2.9,0.2-4.4c1.1-13.4,7.9-23,21-26.8c8.1-2.3,16.6-2.4,24.7-0.2l4.1,1.1
				c0.1-0.2,0.3-0.5,0.4-0.7l-6.6-5.1c7.9-10.7,5.7-25.8-5.1-33.8c-4.9-3.6-11.1-5.3-17.2-4.6c4-4.7,9.2-4,14.4-4.1
				c-1.2-1.1-2.7-2-4.2-2.7c-6-2.1-11.2-0.2-15.8,3.7c-10.9,9.2-15.1,27.7-9.2,40.7c0.6,1.4,1.5,2.8,2.2,4.2l-4.5,3.5
				C387.8,230.7,385,223.7,383.5,216.3z M478.1,179.5c0.1,0.4,0.3,0.9,0.4,1.3l0.5-0.2l-0.6-1.3c0-0.5,0-1.1-0.2-1.6
				c-2.5-6.7-5.9-13-11-18.2c-1.7-1.6-3.8-2.9-6-3.7c-4.7-1.6-8.1,0-9.5,4.3c-1.2,3.6-0.7,7.3,0,11c1.3-2.2,2.1-4.6,3.4-6.6
				c1.3-2.5,4.3-3.5,6.8-2.4c1.5,0.5,2.9,1.3,4.1,2.4c2.2,2.1,4.3,4.3,6.2,6.7C474.3,173.8,476.2,176.7,478.1,179.5z M388.1,193.9
				l0.8,0.2c0.3-0.8,0.6-1.7,1-2.5c3.2-7.2,6.8-14,12.9-19.3c3.7-3.2,8-4.3,12.5-2.5c2.6,1.1,4.9,3,7.3,4.5c0.6,0.4,1.3,0.7,1.9,1
				l0.7-0.8c-2.1-2.9-3.9-5.9-6.3-8.5c-4.8-5.2-10.2-5.7-16-1.8C392.5,171.3,390.1,182.5,388.1,193.9L388.1,193.9z M455.7,179.9
				c0.1-0.2,0.2-0.5,0.3-0.7c0-0.1-0.3-0.3-0.4-0.4c-0.1,0.2-0.2,0.5-0.2,0.7C455.3,179.6,455.5,179.7,455.7,179.9L455.7,179.9z
				 M425.4,176.2c-0.1,0.1-0.2,0.2-0.3,0.2s0.1,0.2,0.2,0.3c0.1-0.1,0.2-0.2,0.2-0.3S425.4,176.4,425.4,176.2L425.4,176.2z
				 M388,195.5l-0.1,0.2h0.2L388,195.5z M424.8,188.5c-0.1-0.1-0.2-0.2-0.2-0.2s-0.2,0.1-0.3,0.2c0.1,0.1,0.2,0.2,0.2,0.2
				S424.6,188.6,424.8,188.5L424.8,188.5z"/>
			<path class="st12" d="M418.1,288.9l4.4,1c0.5,11.7,2.4,23.1,7.3,33.8c4.1,9,9.6,17,17.9,22.7c7.9,5.8,18,7.6,27.5,5.1
				c4.6-1.2,7.8-4.1,10.9-7.5c1.9,2,4,3.8,5.7,5.9c5,5.8,9.7,11.8,14.7,17.6c3.2,3.6,6.2,7.6,11,9.4c2.9,1,4.1,0.7,5.7-1.7
				c0.6-0.9,1-1.8,1.3-2.9c0.7-3.3,1.2-6.7,1.5-10.1c0.1-3.4-0.2-6.8-0.7-10.2c-0.6-4.9-1.4-9.9-2.3-14.8c-0.6-3.2-1.5-6.4-2.3-9.6
				l0.7-0.4c2.8,2.2,5.6,4.3,8.3,6.6c4.8,4.2,8.6,9.3,12.1,14.6c4.1,6.1,8.9,7.9,16,6.2c0.8-0.1,1.6-0.2,2.4-0.2
				c0.6,2.7,1.5,5.4,1.7,8.1c0.2,3.8-2.3,6.5-6,7.2c-6.3,1.1-11.4-1.4-15.9-5.5c-0.7-0.6-0.9-1.9-1.3-2.8
				c-2.6-6.2-5.1-12.5-7.8-18.6c-0.8-1.6-1.8-3.1-2.8-4.5l-0.8,0.4c0.2,0.6,0.3,1.3,0.5,1.9c3.8,11.1,5.3,22.4,3,34
				c-0.6,3.1-1.7,6.1-3.2,8.9c-4.3,7.5-13,9.1-19.6,3.6c-2.8-2.6-5.5-5.4-7.8-8.4c-2.9-3.5-5.7-7.1-8.9-11.1
				c-1.3,4.1-2.2,7.5-3.4,10.8c-1.6,4.8-4.3,9.2-7.9,12.7c-6.1,5.7-14.1,5.9-20.4,0.3c-5.7-5-8.6-11.7-10.6-18.8
				c-0.9-3.2-1.4-6.4-2.2-10.2c-3.7,9.9-9.3,17.5-20.1,20.2c-3.8-8.1-9-15.4-15.4-21.6l3.5,0.4c4.5,0.5,9,1,13.3-0.6
				c5.2-1.9,9.7-4.7,12-10.2c0.7-1.7,0.8-2.8-0.6-4.2c-6.5-6.9-11.4-14.8-15.6-23.2C418.6,312.6,416.5,300.7,418.1,288.9z"/>
			<path class="st12" d="M423.6,433.2c0.2,21.1-4.3,42-13.2,61.2c-7.7,16.8-18.2,32.3-30.9,45.8l-9.4,6
				c-36.5,23.3-68.2,44.4-94.6,62c-17.6,7.1-35.8,12.6-54.3,16.5c-8.2,1.7-16.4,3.1-24.8,2.8c-1.8,0-3.6-0.4-5.7-0.6
				c1.5-3.9,4-7.2,7.3-9.8c7.5,0.5,14.6-1.7,21.7-3.6c14.8-4.1,29.4-9,43.7-14.8c5.4-2.2,10.7-4.6,15.9-7
				c18.4-8.7,36.3-18.2,52.9-30.1c8.3-6,16.5-12.2,24.3-18.9c7.1-6.1,13.9-12.7,20.3-19.5c6.6-6.9,12.2-14.6,16.8-22.9
				c4.8-8.9,9.8-17.8,14.2-27c5.6-11.2,10.2-22.9,13.6-34.9C421.9,436.6,422.7,434.9,423.6,433.2z"/>
			<path class="st15" d="M560.1,354.5c-0.8,0-1.6,0.1-2.4,0.2c-7.1,1.7-11.9-0.1-16-6.2c-3.5-5.3-7.3-10.4-12.1-14.6
				c-2.7-2.3-5.5-4.4-8.3-6.6l-0.7,0.4c0.8,3.2,1.8,6.4,2.3,9.6c0.9,4.9,1.7,9.8,2.3,14.8c0.5,3.4,0.7,6.8,0.7,10.2
				c-0.3,3.4-0.8,6.8-1.5,10.1c-0.2,1-0.7,2-1.3,2.9c-1.6,2.4-2.8,2.7-5.7,1.7c-4.9-1.7-7.9-5.7-11-9.4c-5-5.8-9.8-11.8-14.7-17.6
				c-1.8-2.1-3.8-3.9-5.7-5.9c3.5-6.6,4.1-13.6,3.2-21.2c1.3-0.3,2.5-0.7,3.7-1c10.9-2.8,19-9.1,24-19.2c2.2-4.5,3.3-9.2,2-14.2
				c-1.9-7.6-9.3-11.6-16.6-8.9c-3.1,1.1-6,2.8-9,4.1s-6.2,2-9.7-0.2c6.3-7,10.4-15.3,14.7-24c5,4.7,9.6,8.9,14.1,13.4
				c13.5,13.6,25.3,28.5,34.1,45.6C552.4,330,557,342,560.1,354.5z"/>
			<path class="st9" d="M418.1,288.9c-1.5,11.7,0.5,23.6,5.9,34.2c4.2,8.4,9.1,16.4,15.6,23.2c1.4,1.4,1.3,2.5,0.6,4.2
				c-2.3,5.5-6.9,8.3-12,10.2c-4.3,1.6-8.9,1-13.3,0.6l-3.5-0.4l-10.3-6.4c0.6-4.8,1.4-9.6,1.7-14.5c0.4-6.4,1.3-13,0.5-19.3
				c-1.7-13.7-7.8-25.8-16.4-36.6c-3.6-4.5-7.8-8.7-10.8-13.6c-3.2-5.2-5.5-11.1-8.1-16.6c-0.6-1.2-1.3-2.4-2-3.7
				c-0.1-0.2-0.1-0.4,0-0.6c-0.1-0.6-0.2-1.2-0.3-1.9c-1.2-15.7-0.7-31.2,5.2-46.1c2.2-5.9,5.8-11.2,10.5-15.5c0,1.4,0,2.2,0,3
				c-0.4,8.5-0.5,16.9,1.5,25.3c0.2,0.6,0.4,1.2,0.7,1.8c1.5,7.4,4.3,14.5,8.3,20.9c-7.6,8.8-7.9,18.6-4.3,29
				c1.5,5.2,5,8.9,9.1,12.1c5.4,4.2,11.5,6.9,17.9,9.2C415.6,288,416.8,288.5,418.1,288.9z"/>
			<path class="st16" d="M412.3,253.3c2.4,0.3,4.7,0.7,7.1,0.9c11.1,0.9,20.2-3.3,27.5-11.5c6.4-7.2,10.2-15.8,12.2-25.1
				c0.3-2.2,1.8-4.1,3.9-4.9c8-3.2,16.1-6.1,24.9-6.3c11.4-0.2,19.9,4.6,25.7,14.3c1.4,2.4,2.5,4.9,3.9,7.7
				c-8.1,0.6-14.6,4.4-21,8.5c-7.8,5-15.5,10.1-23.5,14.8c-12.7,7.4-26.3,11.2-41.1,9.5c-3.4-0.4-6.7-1.1-10.1-1.4
				c4.6,3.4,9.8,4.9,15.4,5.4c14.8,1.4,28.4-2.7,41.3-9.3c4.8-2.5,9.3-5.5,14.6-8.6c-0.4,2.2-0.7,4-1.1,5.7
				c-1.8,7.6-5.1,14.8-9.8,21.1c-1.6,2.3-4,3.9-6.8,4.3c-15.1,2.1-29.7,0.9-43.1-6.9c-8-4.5-14.9-10.7-20.1-18.2L412.3,253.3z
				 M464.6,226.6c3.2-2.3,4.2-3.7,4.6-5.6c0.4-1.6,0.2-2.9-1.5-3.5c-1.6-0.5-2.9,0.5-3.1,2.6S464.6,224,464.6,226.6L464.6,226.6z"/>
			<path class="st13" d="M463,308.5c2.2,5.5,6.5,8.9,11.9,10.9c1.8,0.7,3.8,1.1,5.7,1.7c3,1,3.9,2.4,4.1,5.6
				c0.5,11.9-11.5,21.1-23.3,17.8c-8.6-2.4-15-7.6-19.9-15c-6.9-10.3-11-21.7-13.4-33.7c-1.4-6.6-1.9-13.4-1.3-20.1
				c1.6,1,3,1.9,4.5,2.7c8.2,4.6,17.5,7.2,26.9,7.6c5.7,0.3,11.4,0.1,17.1,0c1.4-0.2,2.9,0.3,3.9,1.4c3.3,3.8,7.5,4.3,12,2.9
				c3.6-1.1,7.2-2.7,10.7-4.1c2.8-1.2,5.7-1.8,8.2,0.4c2.5,2.3,2.9,5.2,2.1,8.4c-1.9,7.3-5.8,12.9-12.7,16.4
				c-5,2.5-10.3,4.5-15.9,4.7c-6.2,0.3-12.2-1.7-17-5.6c-1-0.8-2.1-1.5-3.2-2.3l-0.9-1.3l-0.5,0.3L463,308.5z M475,290.8l-0.5-0.3
				L475,290.8c0.4,3.1,2.7,4.7,4.9,6.4c3.9,2.9,8.5,4.1,13.2,5c3,0.6,5.9,1.2,6.7,5c5.4-3.5,8.4-7.8,8-14c-0.3-3.9-2.1-5.2-5.7-4
				c-1.2,0.4-2.5,1-3.6,1.6C490.6,294.8,482.9,295.6,475,290.8L475,290.8z M452.8,292.8l-0.7,0c0,1.4-0.1,2.9-0.3,4.3
				c-1.4,4.9-0.4,9.7,0.7,14.4c1.6,6.7,6,11.7,11.4,15.8c3.8,2.8,6.2,6.1,5.6,11c0,0.5,0,1,0.1,1.5c5,0.4,8.2-1.9,10.7-7.1
				c2.3-5,1.5-7.3-3.5-9.2c-0.4-0.1-0.8-0.1-1.2-0.3c-8.8-2.9-15.1-8.4-18.4-17.2c-0.5-1.4-1-2.7-1.4-4.1
				C454.9,299,453.9,295.9,452.8,292.8L452.8,292.8z"/>
			<path class="st10" d="M88,336c0.5,0,1.2,0.2,1.4,0c8.7-7.8,18.8-13.8,29.8-17.6c11-3.9,22.7-5.4,34.2-4.3c10.3,1,20.1,3.7,29,9.5
				c10.1,6.6,17,15.8,21.7,26.6c4.2,9.5,5.9,19.8,8.2,30c0.1,0.3-0.1,0.7-0.3,1.3c-7.9-7.8-17.3-12.8-27.6-15.9
				c-0.1-4.7-2.1-8.7-4.5-12.5c-7.1-11.5-17.7-18.4-30.7-21.5c-20.1-4.8-38,0.3-53.8,13.2c-4.2,3.4-7.8,7.4-12.1,11.5
				C83.6,349.3,85.1,342.4,88,336z"/>
			<path class="st10" d="M99.5,426.1c0.8-0.7,1.6-1.6,2.2-2.5c4.9-8.9,11.1-17.1,18.4-24.2c7.6-7.3,16.4-13,26.9-15
				c8.7-1.6,17.6-1.8,26.4-0.6c9.7,1.2,19.1,4.2,27.6,8.9c3.6,2,7,4.3,10.1,7.1l-31.3,4.9c-2.9-0.8-5.8-1.8-8.8-2.3
				c-10-1.9-19.2,0.6-28,5.1c-9.4,4.9-17.2,11.9-24.2,19.8c-8.2,9.4-15,19.9-20.4,31.2c-0.3,0.7-0.7,1.4-1,2.1
				c0,0.1-0.2,0.1-0.6,0.2C96.5,449.2,97.3,437.6,99.5,426.1z"/>
			<path class="st10" d="M157.4,209.6c1.1,0.3,2.2,0.6,3.3,0.7c18.4,0.3,36.1,6.8,50.3,18.5c11.5,9.3,19.3,21.5,24.5,35.4
				c3.2,8.3,5.5,17,6.9,25.8c1.5,9.8,2.6,19.7,1.7,29.6c-0.9,8.7-2.5,17.4-3.9,26c-0.3,1.1-0.6,2.1-1.1,3.1
				c-3.4-9.4-6.7-18.7-10.1-27.9c-0.2-6.5,0.1-13-0.8-19.4c-3.9-30-16.3-55.5-40.4-74.5c-11.9-9.4-25.5-14.6-41-13.6
				C150.1,211.4,153.7,210.2,157.4,209.6z"/>
			<path class="st10" d="M241,557.5c0.9,1.7,1.9,0.2,2.6-0.1c8.2-3.2,16.2-6.9,24.5-9.8c11-3.9,22.3-6.7,33.9-8.4
				c7.1-1,14.3-1.7,21.5-2.5c3.4-0.5,6.9-0.6,10.4-0.3c-0.6,0.5-1.3,1-2,1.4c-7.1,3.7-14.3,7.4-21.5,11c-1.6,0.6-3.3,1.1-5,1.5
				c-4,1.3-8.1,2.3-12,3.8c-26,9.8-50.9,21.6-74,37c-4.2,2.8-8.2,5.9-12.2,8.8l-0.6-0.6c5.9-11.5,13.9-21.5,22.8-30.7
				C233,564.8,237.1,561.2,241,557.5z"/>
			<path class="st10" d="M232.1,541.5c0.8-0.2,1.6-0.6,2.4-1.1c8.1-6.7,15.9-13.9,24.4-20.1c13.4-10,27.9-18.5,43.2-25.4
				c12.1-5.1,24.7-8.9,37.6-11.4c0.5-0.1,1.1-0.1,1.6-0.1c1.2,0,2.3,0,4.4,0c-1.5,1-2.3,1.6-3.1,2.1c-8.1,5.1-16.3,10.2-24.4,15.4
				c-0.9,0.6-1.5,1.5-2.4,2c-1,0.5-2.1,0.9-3.2,1.1l-0.7,0.9h0.1c-1,0-1.9,0.2-2.8,0.5c-32,14-61.1,32.2-85.1,58
				c-0.3,0.4-0.8,0.7-1.7,1.4c1.1-8.1,4.2-15.7,8.9-22.3l0.9-1.1L232.1,541.5z"/>
			<path class="st12" d="M492.3,568.3c-1.7,10.9-4.5,20.6-11.8,28.3c-1.6,1.7-3.4,3.1-5.4,4.3c-9.8-6.5-20.3-13.5-31.4-20.8
				C460.2,577.6,476.4,573.7,492.3,568.3z"/>
			<path class="st12" d="M365.9,250.3c0.6,1.2,1.3,2.4,2,3.7c2.7,5.6,4.9,11.4,8.1,16.6c3,4.9,7.2,9.1,10.8,13.6
				c8.6,10.8,14.7,22.9,16.4,36.6c0.8,6.3-0.1,12.9-0.5,19.3c-0.3,4.8-1.1,9.6-1.7,14.5c-3.8-1.1-7.5-2.4-11.4-3.2s-7.6-1-11.8-1.6
				c0.9-1.4,1.8-2.6,2.5-4c2.8-5.2,6-10.3,8.3-15.8c4-9.3,3.4-19.9-1.7-28.7c-2.8-5-6-9.7-9.1-14.4c-4.8-7.2-9.4-14.5-10.6-23.3
				C366.6,259.2,366.3,254.7,365.9,250.3z"/>
			<path class="st12" d="M239.2,503.2c1-0.3,2-0.8,2.9-1.4c2.6-2.4,5.1-5,7.7-7.5c8.3-7.9,17.2-15.2,26.6-21.8
				c9.5-6.9,19.5-13,30-18.3c7.3-3.9,15.2-6.7,23.3-8.5c2.5-0.4,5-0.4,7.5,0.2c-0.7,0.6-1.3,1.2-2,1.7c-2.5,1.9-5.1,3.8-7.7,5.5
				c-1.4,0.7-2.9,1.4-4.5,1.8c-1.4,0.3-2.8,0.7-4.1,1.2c-17.4,7.9-33,18.5-47.6,30.6c-17.3,14.2-32.8,30.1-45.6,48.5
				c-1.1,1.5-2.1,3-3.7,5.4c0.1-1.1,0.2-2.1,0.5-3.2c3.4-11.6,8.6-22.5,15.5-32.4l0.5,0.5l0.2-0.7l-0.1,0.1l0.9-1.6L239.2,503.2z"/>
			<path class="st17" d="M609.5,226.9c2.1-8.2,5.8-15.6,12-21.5c2.1-2,4.5-3.7,8.2-2.9c-4.7,20.5-2.6,39.9,9,57.9l-17.7-1.1
				c-4-8.1-8.7-15.9-10.1-25C610.4,231.8,609.9,229.4,609.5,226.9z"/>
			<path class="st12" d="M234.9,482.7c0.8-0.5,1.6-1.2,2.3-1.9c7.3-9.8,15.5-18.8,24.5-26.9c8.2-7.3,17.2-13.6,26.9-18.8
				c8.2-4.5,16.5-8.7,25.5-11.5c3.8-1.2,7.7-2.1,11.6-3.1l0.3,0.8l-9.3,5.8l-0.5-0.7l-0.3,0.8l0.1,0c-1.2,0.2-2.4,0.4-3.6,0.9
				c-12,5.5-22.6,13.1-32.7,21.5c-18,15.1-33.6,32.5-47.9,51.2c-0.8,1-1.7,2-2.5,3l-0.6-0.6C230.7,496.2,232.8,489.5,234.9,482.7z"
				/>
			<path class="st12" d="M594.4,284.3c2.1,4.4,4.1,8.8,6.2,13.2c1,2,2.9,3.5,5.2,4c1.3,0.4,2.7,0.3,4-0.3c6.3-3.9,13.2-3.8,20-3
				c4.7,0.7,9.2,2,13.6,3.8c2.7,1,5.7,2.2,6.9,5.3c-3.4-0.5-6.7-1.3-10.1-1.6c-14.1-1-27,2.2-38.1,11.2c-7.8-2.1-12.7-8.3-12.8-16.9
				C589.1,294.4,590.5,288.9,594.4,284.3z"/>
			<path class="st12" d="M608.5,321.8c0.5,0.8,0.9,1.7,1.1,2.7c0,5.6,2.4,11,6.6,14.7c0.2,0.2,0.4,0.4,0.6,0.6
				c3.6,4.5,7.3,6.4,13.2,3c4.9-2.8,10.5-3.9,16-3.3c5.2,0.6,10.2,2.2,15.3,3.4c0.4,0.1,0.7,0.8,1,1.2c-7.3-0.2-14.5,0-21.5,2.4
				c-6.1,1.8-11.8,4.8-16.8,8.7c-1.4,1.2-3.3,1.7-5.1,1.4c-13.7-1-21.2-16.9-14.2-29.9C605.7,324.9,607,323.3,608.5,321.8z"/>
			<path class="st12" d="M609.5,226.9c0.4,2.4,0.9,4.9,1.3,7.3c1.4,9.1,6.2,16.9,10.1,25l-12,2.2
				C605.5,249.8,605.5,238.4,609.5,226.9z"/>
			<path class="st18" d="M461.7,189.4c0.2-0.9,0.5-1.8,0.8-2.7c2-4.9,5.5-5.6,9-1.4c3.6,4.3,5,9.5,5.9,14.9c0.1,0.7-0.8,1.6-1.2,2.4
				c-0.6-0.4-1-0.6-1-0.7c-1.6-4.3-1.6-4.3-6.3-4.2c-0.7,0-1.3,0-2-0.1c-0.2,0-0.5-0.2-1.2-0.6l3.5-4.5
				C466.4,189.4,466.4,189.4,461.7,189.4z"/>
			<path class="st12" d="M229.3,503.6l-0.6,1.1l-0.4-0.1l0.4-1.5L229.3,503.6z"/>
			<path class="st12" d="M365.6,247.8c0.1,0.6,0.2,1.2,0.3,1.9C365.8,249,365.7,248.4,365.6,247.8z"/>
			<path class="st8" d="M239.3,503.3l-0.9,1.6L239.3,503.3z"/>
			<path class="st8" d="M238.5,504.8l-0.2,0.7l-0.5-0.5c0.1-0.2,0.3-0.3,0.5-0.3C238.4,504.8,238.5,504.8,238.5,504.8z"/>
			<path class="st8" d="M232.2,541.5l-0.9,1.1L232.2,541.5z"/>
			<path class="st10" d="M207.1,600l-0.8,0.6l0.2-1.2L207.1,600z"/>
			<path class="st5" d="M214.4,288.1l0.1,0.9l-0.7-0.4C214,288.4,214.2,288.2,214.4,288.1z"/>
			<path class="st5" d="M317.9,232.4l0.9-0.1l-0.5,0.5C318.2,232.7,318.1,232.5,317.9,232.4z"/>
			<path class="st12" d="M688.3,427.9l0.5-0.7L688.3,427.9z"/>
			<path class="st16" d="M412.1,253.5l-0.5-0.4l0.8,0.2L412.1,253.5z"/>
			<path class="st6" d="M315.9,427l0.3-0.8l0.5,0.7L315.9,427z"/>
			<path class="st6" d="M311.9,505.1l0.7-0.9L311.9,505.1z"/>
			<path class="st10" d="M524.5,483.5l-0.9,0.7l-0.2-0.5l1.1-0.3L524.5,483.5z"/>
			<path class="st19" d="M547.5,387.2c4.5,3.6,6.9,8.7,8.5,14c6.7,21.3,5.2,42-6.1,61.5c-3.8,6.7-9.5,12.2-16.4,15.7
				c-0.1-0.2-0.3-0.3-0.4-0.5c3.1-5.2,6.5-10.3,9.2-15.7c11.4-22.1,13-45.2,6.3-69C548.1,391.2,547.9,389.2,547.5,387.2L547.5,387.2
				z"/>
			<path class="st19" d="M547.6,387.1H547l0.1-0.5L547.6,387.1L547.6,387.1z"/>
			<path class="st19" d="M533.6,478.3l-0.9,0.3l0.5-0.7C533.3,478,533.4,478.1,533.6,478.3z"/>
			<path class="st6" d="M647,438.1l0.7,0.3L647,438.1L647,438.1z"/>
			<path class="st9" d="M228.3,430.2l-0.9,0.8l-0.3-0.5L228.3,430.2L228.3,430.2z"/>
			<path class="st20" d="M313.4,213.1c1.2-5.2,3.3-10.2,6.2-14.8c7.3-12.1,17.4-21.5,28.5-29.9c8-5.9,16.4-11.1,25.1-15.7
				c2.3-1.3,4.5-1.1,7,0.6c-1.5,2.4-2.9,4.7-5.6,6.2c-10.4,5.7-20.6,11.7-30.1,19c-6.2,4.9-11.8,10.5-16.8,16.7
				c-4.5,5.5-8.5,11.4-12.8,17.1c-0.3,0.5-0.5,0.9-0.8,1.4L313.4,213.1z"/>
			<path class="st20" d="M437.6,166.7c-3.1-5-6.2-10-9.5-14.9c-3.6-5.4-8-10.2-13.7-13.5c-9.3-5.2-19-5.6-29-2.4
				c-1.4,0.4-3.3,1.3-4.3,0.7c-2.5-1.4-4.8-3.2-6.8-5.3c-1.2-1.3,0.3-2.4,1.7-2.8c3.4-1,6.8-2.3,10.2-2.8
				c14.8-2.1,27.6,1.3,37.4,13.5c5.4,6.5,9.6,13.9,12.7,21.8C436.9,162.8,437.3,164.7,437.6,166.7L437.6,166.7z"/>
			<path class="st20" d="M437.7,166.6c0.3,0.6,0.5,1.1,0.8,1.7l-0.5,0.2L437.7,166.6L437.7,166.6z"/>
			<polygon class="st20" points="312.9,214.8 313.1,214.7 313.1,214.9 			"/>
			<path class="st6" d="M350.7,182.4l0.7-0.5l-0.3,0.9L350.7,182.4z"/>
			<path class="st6" d="M499.7,656.5c0,0.2,0,0.3,0,0.5l-0.5-0.3C499.4,656.6,499.5,656.6,499.7,656.5z"/>
			<path class="st21" d="M387.4,266.2c-3.6-10.4-3.3-20.3,4.3-29l4.5-3.5c-0.8-1.4-1.6-2.7-2.2-4.2c-5.8-13-1.7-31.5,9.2-40.7
				c4.6-3.9,9.8-5.8,15.8-3.7c1.6,0.6,3,1.5,4.2,2.7c-5.2,0.1-10.4-0.6-14.4,4.1c13.2-1.6,25.2,7.9,26.8,21.2
				c0.7,6.1-0.9,12.2-4.6,17.2l6.6,5.1c-0.1,0.2-0.3,0.5-0.4,0.7l-4.1-1.1c-8.1-2.2-16.6-2.1-24.7,0.2c-13.1,3.8-19.9,13.4-21,26.8
				C387.5,263.3,387.5,264.8,387.4,266.2z M402.1,231c7-2.9,11.9-3.8,18.3-2.6c2.9,0.5,4.7-0.3,6.4-2.5c7.7-9.9,2.2-26-10.4-29.9
				c-6.7-2.1-12.6,0.1-15.5,6.6c-1.5,3.4-2.4,7-2.8,10.6C397.6,219.4,398.9,225.6,402.1,231z M407.9,192.4l-0.3,0.2
				c0.1,0.1,0.2,0.2,0.2,0.2s0.2-0.1,0.3-0.2L407.9,192.4z"/>
			<path class="st22" d="M388.1,193.9c2-11.3,4.4-22.5,15-29.6c5.8-3.9,11.2-3.4,16,1.8c2.4,2.6,4.2,5.6,6.3,8.5l-0.7,0.8
				c-0.6-0.4-1.3-0.7-1.9-1c-2.4-1.5-4.7-3.4-7.3-4.5c-4.5-1.9-8.8-0.7-12.5,2.5c-6.1,5.2-9.7,12.1-12.9,19.3
				c-0.4,0.8-0.7,1.7-1,2.5L388.1,193.9z"/>
			<path class="st22" d="M478.1,179.5c-2-2.8-3.8-5.6-6-8.3c-1.9-2.4-4-4.6-6.2-6.7c-1.2-1-2.6-1.9-4.1-2.4
				c-2.5-1.1-5.5-0.1-6.8,2.4c-1.2,2.1-2.1,4.4-3.4,6.6c-0.6-3.6-1.2-7.3,0-11c1.5-4.3,4.9-5.9,9.5-4.3c2.2,0.8,4.3,2,6,3.7
				c5.1,5.1,8.5,11.4,11,18.2c0.1,0.5,0.2,1,0.2,1.6L478.1,179.5z"/>
			<path class="st6" d="M431.3,184.1l0.7,1.8l-0.5,0.1C431.5,185.4,431.4,184.8,431.3,184.1L431.3,184.1z"/>
			<path class="st6" d="M455.6,179.9c-0.1-0.2-0.4-0.3-0.4-0.4c0-0.2,0.1-0.5,0.2-0.7c0.1,0.1,0.4,0.3,0.4,0.4
				C455.9,179.4,455.8,179.7,455.6,179.9z"/>
			<path class="st22" d="M478.4,179.2l0.6,1.3l-0.5,0.2l-0.4-1.3L478.4,179.2z"/>
			<path class="st22" d="M425.4,176.3c0.1,0.1,0.2,0.2,0.2,0.3s-0.2,0.2-0.2,0.3c-0.1-0.1-0.2-0.2-0.2-0.3S425.3,176.4,425.4,176.3z
				"/>
			<polygon class="st22" points="387.9,195.5 388,195.8 387.8,195.7 			"/>
			<path class="st21" d="M424.7,188.6c-0.1,0.1-0.2,0.2-0.3,0.2s-0.2-0.1-0.2-0.2c0.1-0.1,0.2-0.2,0.3-0.2S424.6,188.5,424.7,188.6z
				"/>
			<path class="st19" d="M464.6,226.6c0-2.6-0.1-4.6,0-6.5s1.5-3.1,3.1-2.6c1.8,0.6,1.9,1.9,1.5,3.5
				C468.8,223,467.8,224.3,464.6,226.6z"/>
			<path class="st20" d="M452.9,292.9c1,3.1,2,6.1,3,9.2c0.5,1.4,0.9,2.7,1.4,4.1c3.2,8.8,9.6,14.3,18.4,17.2
				c0.4,0.1,0.8,0.1,1.2,0.3c5,1.9,5.9,4.2,3.5,9.2c-2.5,5.3-5.7,7.5-10.7,7.1c-0.1-0.5-0.2-1-0.1-1.5c0.5-4.9-1.9-8.2-5.6-11
				c-5.4-4-9.8-9-11.4-15.8c-1.1-4.7-2.1-9.5-0.7-14.4c0.3-1.4,0.4-2.9,0.3-4.3L452.9,292.9z"/>
			<path class="st20" d="M475.1,290.8c7.8,4.8,15.6,4,23.4,0c1.2-0.6,2.4-1.2,3.6-1.6c3.6-1.2,5.5,0.1,5.7,4c0.4,6.2-2.6,10.5-8,14
				c-0.8-3.8-3.6-4.4-6.7-5c-4.7-0.9-9.3-2.1-13.2-5C477.7,295.6,475.4,293.9,475.1,290.8L475.1,290.8z"/>
			<path class="st6" d="M463,308.5l-1.1-1.2l0.5-0.3l0.9,1.3L463,308.5z"/>
			<path class="st20" d="M475.1,290.8l-0.5-0.3L475.1,290.8L475.1,290.8z"/>
			<path class="st23" d="M402.1,231c-3.2-5.4-4.5-11.6-3.9-17.8c0.3-3.7,1.3-7.3,2.8-10.7c2.9-6.4,8.8-8.7,15.5-6.6
				c12.6,3.9,18.1,20,10.4,29.9c-1.7,2.2-3.5,3.1-6.4,2.5C414,227.2,409.1,228.1,402.1,231z M419.6,206.1c-3.5-2.6-7.1-3.3-10.8-1
				c-3.7,2.3-5.8,6.5-5.2,10.8c0.2,4.7,4.1,8.5,8.8,8.5c4.6,0.3,8.6-2.8,9.5-7.3c0.3-1.9,0.5-3.9,0.5-5.9l-7.2,1.1l-0.5-0.9
				L419.6,206.1z"/>
			<path class="st14" d="M407.9,192.4l0.2,0.2c-0.1,0.1-0.2,0.2-0.3,0.2s-0.2-0.1-0.2-0.2L407.9,192.4z"/>
			<path class="st19" d="M419.6,206.1l-4.9,5.4l0.5,0.9l7.2-1.1c0,2-0.2,3.9-0.5,5.9c-0.9,4.5-4.9,7.6-9.5,7.3
				c-4.7,0-8.6-3.8-8.8-8.5c-0.5-4.3,1.5-8.6,5.2-10.8C412.5,202.8,416.2,203.5,419.6,206.1z"/>
		</g>
	</g>
</g>
</svg>
