<?xml version="1.0" encoding="utf-8"?>
<!-- Generator: Adobe Illustrator 26.3.1, SVG Export Plug-In . SVG Version: 6.00 Build 0)  -->
<svg version="1.1" id="Capa_2_00000072269375445438700280000007072662277749872518_"
	 xmlns="http://www.w3.org/2000/svg" xmlns:xlink="http://www.w3.org/1999/xlink" x="0px" y="0px" viewBox="0 0 54.7 54.7"
	 style="enable-background:new 0 0 54.7 54.7;" xml:space="preserve">
<style type="text/css">
	.st0{opacity:0.24;}
</style>
<g id="Capa_1-2" class="st0">
	<g>
		<path d="M0,42.3c0.2,0.1,0.4,0.1,0.6,0.2c0.4,0.1,0.8,0.3,1.2,0.4c0,0,0.1,0,0.1,0.1c-0.6,0-1-0.3-1.6-0.5
			c0.1,0.3,0.2,0.4,0.4,0.5c0.4,0.3,0.9,0.5,1.4,0.5c0.2,0,0.5,0.1,0.8,0.1c0.1,0,0.1,0.1,0.2,0.2c0.2,0.2,0.3,0.3,0.5,0.5
			c0.1,0.1,0.2,0.1,0.3,0c0.2-0.1,0.4-0.2,0.5-0.5c-0.2,0-0.4-0.1-0.4-0.3l-0.1-0.1c-0.2-0.1-0.5-0.2-0.7-0.4C3.1,43,3,42.9,3,42.8
			c-0.2-0.2-0.4-0.4-0.7-0.4c-0.2,0-0.3-0.1-0.4-0.2c-0.3-0.2-0.5-0.5-0.7-0.8S1,40.8,1.1,40.5c0-0.1,0-0.2,0.1-0.4s0.1-0.4,0-0.6
			c0-0.2,0.1-0.4,0.2-0.6V39v0.1c-0.1,0.2,0,0.5,0,0.7c0,0.1,0.1,0.2,0,0.4c0-0.1,0-0.1-0.1-0.2c-0.1,0.2-0.1,0.4-0.1,0.6
			c0,0.2,0,0.4,0.1,0.6c0.1,0.1,0.1,0.2,0.2,0.2c0.1,0.2,0.3,0.4,0.6,0.5c0.4,0.2,0.8,0.3,1.1,0.5c0.3,0.1,0.6,0.2,0.9,0.3
			C4,43.1,4,43.1,4,43.2c0.1,0.1,0.1,0.2,0.1,0.2c0,0.1,0,0.2,0.2,0.2s0.1-0.1,0.2-0.2c0.2,0.2,0.3,0.2,0.4,0
			C5,43.3,5,43.2,5.1,43.1c-0.2-0.2-0.4-0.5-0.6-0.7c-0.2,0-0.3,0-0.4-0.2c0-0.1,0-0.2,0-0.3c0.1-0.3,0-0.5-0.1-0.8
			c0-0.1-0.2-0.2-0.2-0.4c-0.1-0.1-0.1-0.2-0.2-0.3c0.1,0.1,0.3,0.2,0.3,0.3C4,40.8,4.1,41,4.1,41.1c0.1,0.1,0.1,0.3,0.1,0.4
			c0.3-0.1,0.6-0.4,0.5-0.8c0-0.3-0.1-0.6-0.1-0.9c0-0.2-0.2-0.3-0.3-0.4c-0.3-0.3-0.7-0.5-1-0.7c-0.1-0.1-0.3-0.2-0.5-0.1
			s-0.3,0-0.5-0.1c-0.1-0.1-0.2-0.1-0.4-0.2c0.1,0.1,0.1,0.1,0,0.2c-0.2,0.2-0.5,0.3-0.8,0.2c-0.1,0-0.2,0-0.3,0s-0.3,0-0.4,0.1
			c0.1,0.2,0.2,0.4,0.4,0.6C1,39.6,1,39.8,1,40s0,0.3,0,0.5S0.9,40.9,0.8,41s-0.2,0.2-0.3,0s-0.2-0.2-0.2-0.4
			c-0.1-0.2-0.1-0.4-0.3-0.5V40c0.2,0.2,0.3,0.3,0.4,0.6c0,0.1,0.1,0.2,0.1,0.3S0.6,41,0.7,41c0-0.2,0.2-0.4,0.2-0.7s0-0.7-0.3-0.9
			c0,0-0.1-0.1-0.1-0.2c-0.1-0.2-0.2-0.4-0.3-0.5l0,0c0.2,0,0.5,0.1,0.7-0.1c0.1,0,0.1,0,0.2,0c0.3,0.1,0.5,0,0.7-0.2
			s0.2-0.3,0.1-0.5s-0.3-0.3-0.5-0.3c-0.5-0.2-0.9-0.3-1.4-0.5C0,37,0,37,0,37c0.5,0.2,1,0.3,1.5,0.5c0.3,0.1,0.6,0.3,0.6,0.8
			c0.2,0.1,0.4,0.2,0.6,0.3c0.1,0,0.2,0,0.3,0c0.2,0,0.3,0,0.5,0.1c0.3,0.2,0.6,0.5,0.9,0.7c0.2,0.2,0.4,0.3,0.4,0.6
			c0.3,0,0.5,0.2,0.7,0.3c0.1,0.1,0.2,0.1,0.2,0.2c0.1,0,0.1,0.1,0.2,0.1c0.1,0.1,0.1,0.2,0,0.3c-0.2,0.1-0.4,0.4-0.7,0.5
			c-0.2,0.1-0.2,0.1-0.4,0c-0.2,0.1-0.3,0.2-0.5,0.3c0,0.1,0,0.3-0.1,0.5c0.1,0,0.2,0,0.3,0.1c0.2,0.2,0.4,0.5,0.6,0.7
			c0,0,0,0.1,0,0.2C5,43.3,5,43.5,4.9,43.6c0,0-0.1,0.1-0.2,0.1s-0.1,0-0.2,0c0,0.3-0.3,0.5-0.5,0.7c-0.2,0.2-0.4,0.2-0.6,0
			c-0.2-0.1-0.3-0.3-0.5-0.5c-0.1-0.1-0.2-0.2-0.3-0.2c-0.2,0-0.4,0-0.6-0.1c-0.5-0.1-1-0.3-1.5-0.6c-0.2-0.1-0.3-0.3-0.4-0.5
			C0.2,42.4,0.1,42.4,0,42.3L0,42.3z M4.8,41.3c0.5,0,0.7-0.3,1-0.6l-0.1-0.1c-0.2-0.1-0.4-0.2-0.6-0.4c-0.1-0.1-0.2-0.1-0.3-0.1
			c0,0.1,0,0.2,0,0.2C4.9,40.7,5,41,4.8,41.3L4.8,41.3z M3.8,43.2C3.8,43.2,3.9,43.2,3.8,43.2c0-0.1,0-0.2,0-0.3
			c-0.2-0.1-0.4-0.2-0.7-0.2C3.3,43,3.6,43,3.8,43.2L3.8,43.2z"/>
		<path d="M0,14.9c0.2,0.1,0.3,0.2,0.5,0.2c0.4,0.2,0.9,0.3,1.3,0.5c0,0,0.1,0,0.1,0.1c-0.6,0-1-0.3-1.6-0.4c0,0.1,0.1,0.2,0.2,0.3
			C0.7,15.7,0.8,15.9,1,16c0.4,0.2,0.7,0.3,1.1,0.4c0.2,0,0.5,0,0.7,0.1c0.1,0,0.1,0.1,0.2,0.1c0.2,0.2,0.3,0.3,0.5,0.5
			c0.1,0.1,0.3,0.1,0.4,0c0.2-0.1,0.4-0.2,0.4-0.5c-0.2,0-0.4-0.1-0.3-0.4c-0.3-0.1-0.5-0.3-0.8-0.4C3.1,15.7,3,15.7,3,15.6
			c-0.2-0.2-0.4-0.4-0.6-0.4c-0.2,0-0.3-0.1-0.5-0.2c-0.3-0.2-0.5-0.5-0.7-0.7c-0.2-0.4-0.2-0.7-0.1-1c0-0.1,0.1-0.3,0.1-0.4
			c0-0.2,0.1-0.3,0-0.5c0-0.2,0.1-0.4,0.2-0.6c0,0.1,0,0.1,0,0.2c-0.1,0.2-0.1,0.5,0,0.7c0,0.1,0.1,0.2,0,0.3c0,0,0,0,0,0.1
			c0-0.1,0-0.1-0.1-0.2c-0.1,0.2-0.1,0.4-0.1,0.6c0,0.2,0,0.5,0.1,0.6l0.1,0.1c0.2,0.3,0.4,0.6,0.8,0.7c0.4,0.2,0.8,0.3,1.2,0.4
			c0.2,0.1,0.5,0.2,0.7,0.3C4,15.7,4,15.8,4,15.9c0.1,0.1,0.1,0.2,0.1,0.2c0,0.1,0.1,0.2,0.2,0.2c0.2,0,0.1-0.1,0.2-0.2
			c0.2,0.2,0.3,0.1,0.4-0.1L5,15.9l0.1-0.1c-0.2-0.2-0.4-0.5-0.6-0.7c-0.2,0.1-0.3,0-0.4-0.2c0-0.1,0-0.2,0-0.3
			c0.1-0.3,0-0.5-0.1-0.8c0-0.1-0.2-0.2-0.2-0.4c-0.1-0.1-0.1-0.2-0.2-0.3c0.3,0.1,0.5,0.3,0.5,0.5c0.1,0.2,0.1,0.4,0.2,0.6
			c0.3-0.1,0.6-0.4,0.5-0.8c0-0.3-0.1-0.6-0.1-0.9c0-0.1-0.2-0.3-0.3-0.4c-0.3-0.3-0.7-0.5-1-0.7c-0.1-0.1-0.3-0.2-0.5-0.1
			s-0.3,0-0.5-0.1C2.3,11.1,2.2,11.1,2,11c-0.1,0.1-0.1,0.1-0.2,0.1c-0.2,0.2-0.5,0.3-0.8,0.2c-0.1,0-0.2,0-0.3,0
			c-0.1,0.1-0.3,0.1-0.4,0.1c0.1,0.2,0.2,0.4,0.4,0.6C0.9,12.2,1,12.5,1,12.7s0,0.4,0,0.5c0,0.2-0.1,0.4-0.2,0.5s-0.2,0.1-0.3,0
			s-0.2-0.2-0.2-0.4C0.2,13.2,0.2,13,0,12.9v-0.2c0.2,0.2,0.3,0.4,0.4,0.6c0,0.1,0.1,0.2,0.1,0.3s0.1,0.1,0.2,0.2
			c0.1-0.3,0.2-0.5,0.2-0.8c0-0.4,0-0.7-0.3-0.9c0,0-0.1-0.1-0.1-0.2c-0.1-0.2-0.2-0.4-0.3-0.5c0.3,0,0.5,0.1,0.8-0.1
			c0,0,0.1,0,0.2,0c0.3,0.1,0.5,0,0.7-0.2s0.2-0.3,0.1-0.5c-0.1-0.2-0.3-0.3-0.5-0.3c-0.6-0.2-1-0.4-1.5-0.6V9.6
			c0.5,0.2,1,0.3,1.5,0.5c0.3,0.1,0.6,0.3,0.6,0.7c0,0.1,0.1,0.1,0.1,0.1C2.5,11,2.7,11.2,3,11.1c0.1,0,0.2,0,0.3,0.1
			c0.3,0.2,0.7,0.5,1,0.8c0.2,0.1,0.3,0.3,0.4,0.6c0.2,0,0.5,0.1,0.6,0.3C5.4,13,5.5,13,5.6,13.1c0.1,0,0.1,0.1,0.2,0.1
			c0.1,0.1,0.1,0.2,0,0.3c-0.2,0.2-0.4,0.3-0.6,0.5c-0.2,0.1-0.3,0.1-0.4,0c-0.2,0.1-0.3,0.2-0.5,0.3c0,0.1,0,0.3-0.1,0.5
			c0.3,0,0.5,0.2,0.6,0.4C4.9,15.4,5,15.5,5,15.5c0.2,0.2,0.2,0.3,0,0.5l0,0c-0.1,0.2-0.2,0.3-0.4,0.3c0,0.1-0.1,0.1-0.1,0.1
			c-0.1,0.3-0.4,0.5-0.6,0.6c-0.1,0.1-0.3,0-0.4,0c-0.2-0.2-0.4-0.3-0.5-0.5c-0.1-0.1-0.1-0.1-0.2-0.1c-0.2,0-0.3-0.1-0.5-0.1
			c-0.4,0-0.7-0.1-1.1-0.3c-0.3-0.1-0.5-0.3-0.7-0.4c-0.1-0.1-0.2-0.3-0.3-0.4C0.2,15.1,0.1,15,0,15C0,15,0,14.9,0,14.9z M4.9,12.8
			c-0.1,0.3,0,0.4,0,0.6c0,0.2,0,0.4-0.1,0.6c0.4,0,0.7-0.4,1-0.6l-0.1-0.1c-0.2-0.1-0.4-0.2-0.6-0.4C5.1,12.9,5,12.8,4.9,12.8
			L4.9,12.8z M3.2,15.4c0.1,0.2,0.5,0.4,0.7,0.5c0-0.1,0-0.2-0.2-0.3C3.5,15.5,3.4,15.5,3.2,15.4z"/>
		<path d="M34.6,1c0-0.1,0-0.2-0.1-0.3s-0.1-0.2-0.1-0.3s0.2-0.1,0.3-0.1s0.2,0,0.2,0c0.4,0.2,0.8,0.1,1.2,0c0,0,0.1,0,0.2-0.1
			C36.4,0,36.6,0,36.7-0.1c0.3,0,0.5,0,0.8,0c0,0,0.1,0.1,0.2,0.1c0.2,0.2,0.4,0.3,0.4,0.6c0,0.1,0,0.2,0.1,0.4
			c0.1,0.3,0.1,0.3,0.3,0.3c-0.2,0.1-0.3,0.1-0.4-0.1C38,1.1,38,0.9,38,0.8c-0.1-0.4-0.3-0.6-0.7-0.7c-0.3-0.1-0.6,0-0.8,0.2
			c-0.1,0.1-0.1,0.2,0,0.3s0.3,0.1,0.4,0.1c0,0,0.1,0,0.2,0c-0.3,0.2-0.6,0.1-0.8-0.1c-0.2,0-0.3,0-0.5,0.1c-0.3,0.1-0.6,0-0.9-0.1
			c-0.1-0.1-0.3-0.1-0.4,0c0.2,0.4,0.5,0.7,1,0.8c0.3,0,0.6,0,0.9,0.1c0.1,0,0.2,0,0.3-0.1c-0.1,0.1-0.1,0.2-0.2,0.3
			c-0.1,0.1-0.1,0.2-0.1,0.3s0,0.2-0.1,0.2C36,2.4,35.9,2.6,36,2.9c0,0.3,0.2,0.4,0.4,0.4s0.3-0.1,0.4-0.2c0.4-0.3,0.9-0.7,1.3-1
			c0.2-0.2,0.4-0.4,0.5-0.8c0-0.1,0.1-0.3,0.2-0.4C39.1,0.6,39.1,0.3,39,0c0,0,0.1,0,0.2,0c0,0.1,0,0.2,0,0.3c0,0.3-0.1,0.5-0.3,0.7
			c-0.1,0.1-0.2,0.3-0.2,0.4c-0.1,0.4-0.3,0.7-0.7,0.9c-0.4,0.3-0.8,0.6-1.2,0.9c-0.3,0.2-0.7,0.3-1,0c-0.2,0.1-0.3,0.2-0.5,0.3
			c-0.1,0.1-0.2,0.2-0.2,0.2c0,0.2-0.1,0.3-0.3,0.4c-0.3,0.1-0.7,0.2-1.1,0.4c-0.3,0.1-0.5,0.1-0.8,0c-0.1,0.2-0.3,0.3-0.6,0.3
			c-0.1,0-0.3,0.1-0.4,0.2c0,0-0.1,0-0.2,0c-0.1,0-0.1-0.1-0.1-0.2c0-0.3-0.1-0.6,0-0.8c0-0.2,0.1-0.3,0.2-0.3c0-0.1-0.1-0.2,0-0.4
			l0,0c0,0,0,0.1,0.1,0.2C32,3.8,32.1,4,32.5,4.1c0.1,0,0.2,0.1,0.3,0.2c0.2,0.2,0.5,0.2,0.8,0.1C34,4.3,34.4,4.1,34.8,4
			c0.1,0,0.2-0.1,0.3-0.2c0.1-0.2,0.2-0.3,0.4-0.4c0.1-0.1,0.3-0.1,0.4-0.2c-0.1-0.4,0-0.7,0.3-1l0.1-0.1c0-0.1,0.1-0.3,0.2-0.4
			c-0.2,0-0.5-0.1-0.7,0c-0.1,0-0.2,0-0.2,0C35,1.4,34.8,1.2,34.6,1L34.6,1L34.6,1z M31.7,4.9c0.1,0,0.1,0,0.1,0
			c0.2-0.1,0.4-0.2,0.6-0.2c0.1,0,0.3-0.1,0.3-0.2c-0.1-0.2-0.4-0.2-0.5-0.3C32.1,4,32,3.9,31.8,3.8c-0.1,0.1-0.1,0.1-0.1,0.2
			C31.7,4.3,31.7,4.6,31.7,4.9L31.7,4.9z"/>
		<path d="M7.2,1c0-0.1-0.1-0.2-0.1-0.3C7,0.6,7,0.5,7,0.4c0.1-0.1,0.2-0.1,0.3-0.1c0.1,0,0.2,0,0.2,0c0.4,0.2,0.8,0.1,1.2,0.1
			c0.1,0,0.1,0,0.1-0.1C9,0.2,9.2,0.1,9.3,0c0.3,0,0.6,0,0.9,0c0.1,0,0.1,0.1,0.2,0.1c0.2,0.2,0.4,0.3,0.4,0.6c0,0.1,0,0.2,0.1,0.4
			C11,1.4,11,1.4,11.3,1.4c-0.2,0.1-0.3,0.1-0.4-0.1c-0.1-0.1-0.1-0.3-0.1-0.5c-0.1-0.4-0.3-0.6-0.7-0.7C9.7,0,9.4,0.1,9.2,0.2
			S9,0.5,9.2,0.5c0.1,0.1,0.3,0.1,0.4,0.1c0.1,0,0.1,0,0.2,0C9.5,0.8,9.2,0.7,8.9,0.4c-0.2,0-0.3,0-0.5,0.1c-0.3,0.1-0.6,0-0.9-0.1
			c-0.2-0.1-0.3-0.1-0.4,0c0.2,0.6,0.6,0.9,1.1,1c0.1,0,0.1,0,0.2,0c0.1,0,0.3,0,0.4,0c0.1,0,0.3,0,0.4,0c0,0.1-0.1,0.1-0.2,0.2
			C9,1.7,8.9,1.8,9,2c0,0.1-0.1,0.2-0.1,0.2C8.6,2.5,8.6,2.7,8.6,3c0,0.2,0.2,0.3,0.4,0.2c0.1,0,0.3-0.1,0.4-0.2
			c0.4-0.3,0.9-0.7,1.3-1c0.2-0.2,0.4-0.4,0.5-0.8c0-0.1,0.1-0.3,0.2-0.4c0.2-0.3,0.3-0.6,0.2-0.9h0.1c0.1,0.4,0,0.7-0.2,1
			c-0.1,0.1-0.2,0.3-0.2,0.4c-0.1,0.4-0.4,0.7-0.6,0.9c-0.4,0.3-0.8,0.6-1.2,0.9c-0.4,0.2-0.6,0.2-1,0.1C8.4,3.3,8.2,3.4,8.1,3.5
			C8,3.5,7.9,3.6,7.8,3.7c0,0.2-0.2,0.3-0.4,0.4c-0.3,0.1-0.6,0.2-1,0.3c-0.3,0.1-0.5,0.1-0.8,0C5.4,4.6,5.2,4.7,5,4.8
			C4.8,4.8,4.7,4.9,4.6,5C4.3,5.1,4.2,5,4.2,4.7c0-0.2,0-0.5,0-0.7s0.1-0.3,0.2-0.4c0-0.1,0-0.2-0.1-0.3l0,0l0.1,0.1
			C4.6,3.8,4.8,4,5.2,4.1c0.1,0,0.2,0.1,0.4,0.2c0.2,0.1,0.3,0.2,0.6,0.1c0.1,0,0.2-0.1,0.4-0.1C6.7,4.2,7,4.1,7.3,4
			c0.2-0.1,0.4-0.2,0.5-0.4c0-0.1,0.2-0.2,0.3-0.3c0.1-0.1,0.3-0.1,0.4-0.2c0-0.2,0-0.3,0-0.4c0-0.2,0.1-0.4,0.3-0.5
			c0-0.1,0.1-0.2,0.1-0.3S9,1.7,9,1.6c-0.2,0-0.5-0.1-0.7,0c-0.2,0-0.4-0.1-0.6-0.2C7.5,1.2,7.4,1.1,7.2,1L7.2,1z M4.4,4.9
			c0.1,0,0.1,0,0.2,0C4.8,4.8,5,4.7,5.2,4.7c0.1,0,0.3-0.1,0.3-0.2C5.4,4.3,5.3,4.3,5.2,4.2C4.9,4.1,4.7,4,4.5,3.7
			C4.4,3.8,4.3,3.9,4.3,4C4.3,4.3,4.3,4.6,4.4,4.9L4.4,4.9z"/>
		<path d="M4.3,0C4.2,0.2,4,0.4,3.8,0.6C3.7,0.8,3.5,0.8,3.3,0.9c-0.2,0-0.4,0-0.5,0.1C2.6,1,2.5,1.1,2.5,1.3s0,0.4,0.2,0.6
			C2.8,1.8,3,1.7,3.1,1.8h0.1c0.2-0.1,0.4-0.2,0.6-0.3C4,1.4,4.1,1.4,4.3,1.4C4.6,1.4,4.7,1.2,5,1c0-0.2,0.1-0.1,0.2-0.2h0.1
			c0.3-0.2,0.7-0.2,1-0.2S6.8,0.7,7,0.8C7.1,0.9,7.2,1,7.2,1c0.1,0.3,0.3,0.5,0.6,0.6C8.1,1.8,8.2,2,8.4,2.3c-0.1,0-0.1,0-0.2,0
			c0,0.1,0,0.2,0,0.3C8.1,2.4,8,2.3,8,2.1c0.1,0,0.2,0,0.3,0.1C8,1.9,7.8,1.7,7.5,1.6c-0.1,0-0.2,0-0.2-0.2V1.3C7,1,6.7,0.7,6.3,0.7
			C5.9,0.7,5.5,0.8,5.2,1c-0.3,0.2-0.7,0.5-1,0.7C4,1.9,3.8,2,3.5,2.2c0-0.1,0-0.2-0.1-0.2C3.3,2,3.2,2,3.1,1.9c-0.1,0-0.2,0-0.2,0
			c-0.1,0.1,0,0.2,0,0.2c0,0.1-0.1,0.1-0.2,0.2c0,0.1,0,0.2,0.1,0.2c0,0.1,0,0.2,0.2,0.3c0.1,0,0.2,0,0.3,0s0.2,0,0.4,0
			c0.1,0,0.2,0,0.2,0V2.7c0.2-0.2,0.4-0.2,0.6,0S4.8,3,5,3.1s0.3,0.1,0.5,0c0.1,0,0.2,0,0.3,0c-0.3,0.1-0.6,0.2-0.9,0
			c0,0.1,0,0.3,0.1,0.6C4.8,3.6,4.8,3.5,4.8,3.2C4.7,3.1,4.6,3,4.5,3.2c0-0.3-0.2-0.4-0.4-0.5C3.9,2.9,3.7,2.9,3.4,2.9
			C3.3,2.9,3.1,3,3,3S2.8,3,2.7,2.8V2.7c-0.1-0.2-0.1-0.4,0-0.5C2.6,2,2.5,1.9,2.5,1.7c0-0.1,0-0.3-0.1-0.4c0-0.3,0.1-0.4,0.3-0.5
			c0.3,0,0.5-0.1,0.7-0.1c0.1,0,0.2,0,0.2-0.1C3.8,0.4,4,0.2,4.2,0H4.3z M4.3,1.5c-0.2,0-0.7,0.2-0.8,0.4C3.6,2,3.8,2,3.9,1.8
			C4.1,1.7,4.2,1.6,4.3,1.5z"/>
		<path d="M31.6,0c-0.2,0.2-0.4,0.4-0.5,0.6c-0.1,0.1-0.2,0.2-0.4,0.2c-0.2,0-0.4,0.1-0.6,0.1c-0.1,0-0.2,0.1-0.2,0.2
			c0,0.2,0,0.5,0.1,0.7c0.1-0.1,0.3-0.2,0.5-0.1c0,0,0.1,0,0.2,0c0.2-0.1,0.4-0.2,0.6-0.3c0.1,0,0.2-0.1,0.3-0.1
			c0.3,0,0.5-0.2,0.7-0.3c0-0.2,0.2-0.1,0.3-0.2c0,0,0,0,0.1,0c0.3-0.2,0.7-0.2,1-0.2s0.5,0.1,0.7,0.2c0.1,0,0.1,0.1,0.2,0.1l0,0
			c0.1,0.3,0.3,0.5,0.6,0.6s0.4,0.4,0.6,0.6l0,0c-0.1,0-0.1,0-0.2,0c0,0.1,0,0.2,0,0.3c-0.1-0.2-0.1-0.3-0.2-0.5c0.1,0,0.2,0,0.3,0
			c-0.2-0.3-0.4-0.5-0.8-0.5c-0.1,0-0.2,0-0.2-0.2V1.1c-0.2-0.2-0.3-0.4-0.6-0.5c-0.4-0.1-0.8-0.1-1.2,0.1s-0.8,0.5-1.2,0.8
			C31.5,1.6,31.2,1.8,31,2c0-0.1,0-0.2-0.1-0.2s-0.2,0-0.3,0c-0.1-0.1-0.2-0.1-0.3,0c-0.1,0.1,0,0.2,0,0.2C30,2.3,30,2.3,30.1,2.6
			c0,0,0,0.1,0.1,0.2c0,0.1,0.1,0.2,0.2,0.1c0.2,0,0.4-0.1,0.7-0.1h0.1V2.7l0,0c0.2-0.1,0.4-0.1,0.6,0.1C32.1,3,32.5,3.3,33,3.1
			c0.1,0,0.2,0,0.2,0c-0.3,0.2-0.6,0.2-1,0.1c-0.1,0.2,0,0.3,0,0.5c-0.2-0.2-0.1-0.3-0.1-0.5c-0.1,0-0.2-0.1-0.2-0.1
			c0,0.1-0.1,0.1-0.1,0.2l0,0V3c-0.1-0.1-0.2-0.2-0.4-0.3C31.2,2.9,31,3,30.7,3c-0.1,0-0.3,0-0.4,0S30.1,3,30,2.8V2.7
			c-0.1-0.2-0.2-0.4,0-0.5c-0.1-0.2-0.2-0.3-0.2-0.4s0-0.3-0.1-0.4c0-0.3,0.1-0.4,0.3-0.5c0.2-0.1,0.5-0.1,0.7-0.1
			c0.1,0,0.2,0,0.2-0.1c0.2-0.2,0.4-0.4,0.5-0.6C31.5,0,31.6,0,31.6,0z M31.6,1.5c-0.2,0-0.7,0.3-0.9,0.4C30.9,2,31,2,31.2,1.9
			C31.4,1.7,31.5,1.6,31.6,1.5z"/>
		<path d="M11.7,54.7c-0.1-0.3-0.2-0.5-0.5-0.6c-0.1-0.1-0.3-0.2-0.4-0.3c-0.3-0.2-0.5-0.4-0.8-0.6C9.8,53,9.4,53,9.1,53
			c-0.2,0-0.5,0-0.8,0.1c-0.2,0-0.3,0.1-0.5,0.1c-0.3,0.2-0.6,0.3-0.9,0.5H6.8c-0.3-0.1-0.4,0.1-0.6,0.2c-0.3,0.2-0.5,0.3-0.8,0.5
			l-0.1,0.1H5.2c0.1-0.1,0.2-0.2,0.2-0.2c0.2-0.2,0.4-0.3,0.7-0.5c-0.3-0.1-0.6,0-0.9,0.1s-0.6,0.4-0.9,0.6H4.2
			c0.3-0.3,0.7-0.6,1.2-0.8c0.2-0.1,0.5-0.1,0.7,0c0.1,0,0.2,0,0.3,0c0.2-0.1,0.4-0.2,0.6-0.2c0.1,0,0.1,0,0.2-0.1
			c0.2-0.1,0.4-0.3,0.7-0.4c0.1,0.1,0.3,0.1,0.4,0c0.2,0,0.5,0,0.8-0.1c0.4,0,0.8,0,1.1,0.2c0.4,0.3,0.8,0.6,1.2,0.9
			c0.2,0.1,0.3,0.3,0.4,0.6L11.7,54.7L11.7,54.7z"/>
		<path d="M39,54.7c-0.1-0.3-0.2-0.5-0.5-0.6c-0.1-0.1-0.3-0.2-0.4-0.3c-0.3-0.2-0.5-0.4-0.8-0.6C37.1,53,36.8,53,36.5,53
			c-0.2,0-0.5,0-0.8,0.1c-0.2,0-0.4,0-0.5,0.1c-0.3,0.2-0.6,0.3-0.9,0.5h-0.1c-0.3-0.1-0.4,0.1-0.6,0.2c-0.3,0.2-0.5,0.3-0.8,0.5
			c0,0,0,0.1-0.1,0.1h-0.2c0.1-0.1,0.2-0.2,0.2-0.2c0.2-0.2,0.4-0.3,0.7-0.5c-0.3-0.1-0.6,0-0.9,0.1c-0.3,0.1-0.6,0.4-0.9,0.6h-0.2
			c0.3-0.3,0.7-0.6,1.2-0.8c0.2-0.1,0.5-0.1,0.7,0c0.1,0,0.2,0,0.3,0c0.2-0.1,0.4-0.2,0.6-0.2c0.1,0,0.1,0,0.2-0.1
			c0.2-0.1,0.5-0.3,0.7-0.4c0.2-0.1,0.3-0.1,0.5-0.1s0.5,0,0.7-0.1c0.4-0.1,0.8,0,1.2,0.3s0.8,0.6,1.2,0.9c0.2,0.2,0.3,0.3,0.3,0.6
			L39,54.7L39,54.7z"/>
		<path d="M54.7,9.7c-0.3-0.1-0.7-0.1-1,0c-0.2,0.1-0.4,0-0.6,0c-0.5,0.1-0.9,0.5-0.9,1.1c0,0.4,0,0.8,0,1.1c0,0.6,0.2,1,0.6,1.4
			c0.1,0.1,0.2,0.3,0.3,0.4c0.1,0.1,0.2,0.2,0.3,0.3c0.3,0.2,0.6,0.3,0.9,0.5c0.1,0.1,0.2,0.1,0.2,0.2c0,0.1,0.1,0.1,0.2,0.1V15
			c-0.2,0-0.3-0.1-0.5-0.2c-0.1-0.1-0.1-0.1-0.2-0.2c-0.2-0.1-0.5-0.2-0.7-0.3s-0.3-0.2-0.5-0.4c-0.1-0.2-0.3-0.3-0.4-0.5
			c-0.2-0.2-0.4-0.5-0.4-0.8s0-0.7,0-1c0-0.2,0-0.4,0-0.6c0-0.7,0.5-1.2,1.2-1.2c0.2,0,0.3,0,0.5-0.1C54,9.6,54.4,9.6,54.7,9.7
			L54.7,9.7L54.7,9.7z"/>
		<path d="M54.7,37.1c-0.2,0-0.3,0-0.5-0.1c0,0-0.1,0-0.2,0c-0.3,0.1-0.7,0.1-1,0.1c-0.5,0.1-0.9,0.5-0.9,1c0,0.4,0,0.8,0,1.1
			c0,0.5,0.2,1,0.6,1.4c0.1,0.1,0.2,0.3,0.3,0.4c0.1,0.1,0.2,0.2,0.3,0.3c0.3,0.2,0.6,0.3,0.9,0.5c0.1,0,0.2,0.1,0.2,0.2
			c0,0,0.1,0.1,0.2,0.1v0.1c-0.2,0-0.3-0.1-0.5-0.2c0.1,0,0,0-0.1-0.1c-0.2-0.1-0.5-0.2-0.7-0.3s-0.3-0.2-0.5-0.4
			c-0.1-0.2-0.3-0.3-0.4-0.5c-0.2-0.2-0.4-0.5-0.4-0.8s0-0.7,0-1c0-0.2,0-0.4,0-0.6c0-0.7,0.5-1.2,1.2-1.2c0.2,0,0.3,0,0.5,0
			C54,37,54.4,37,54.7,37.1C54.7,37,54.7,37.1,54.7,37.1z"/>
		<path d="M54.7,12.7c-0.2-0.1-0.3-0.3-0.5-0.5c-0.4,0.1-1-0.5-1-1c0-0.3,0.1-0.6,0.4-0.8c0.1-0.1,0.1-0.1,0.2-0.2
			c0.1-0.2,0.1-0.2,0-0.4C54,9.9,54,10,53.9,10.2c-0.1,0.1-0.2,0.3-0.3,0.4c-0.2,0.1-0.2,0.3-0.3,0.5c0,0.2,0,0.4,0.1,0.5
			c0.1,0.2,0.3,0.4,0.5,0.5c0.1,0,0.2,0.1,0.2,0c0.1-0.1,0.1-0.1,0-0.2c-0.1-0.1-0.2-0.3-0.2-0.4c0.2,0,0.2,0.1,0.3,0.2
			c0.1,0.1,0.1,0.2,0.1,0.3c0,0.2,0,0.3,0.2,0.4c0,0.1,0.1,0.1,0.2,0.1V12.7L54.7,12.7z"/>
		<path d="M54.7,40.1c-0.2-0.2-0.3-0.3-0.5-0.5c-0.6,0-1.1-0.6-1-1.2c0-0.2,0.1-0.5,0.3-0.6c0.1-0.1,0.1-0.1,0.2-0.2
			c0.1-0.2,0.1-0.2,0-0.3c0.2,0,0.2,0.2,0.2,0.3c-0.1,0.1-0.2,0.3-0.3,0.4c-0.2,0.1-0.2,0.3-0.3,0.5c0,0.2,0,0.4,0.1,0.5
			c0.1,0.2,0.3,0.4,0.5,0.5c0.1,0,0.2,0,0.2,0c0.1,0,0.1-0.2,0-0.2c-0.1-0.1-0.2-0.3-0.2-0.4c0.2,0,0.2,0.1,0.3,0.2
			c0.1,0.1,0.1,0.2,0.1,0.3c0,0.2,0,0.3,0.2,0.5C54.5,39.9,54.6,40,54.7,40.1L54.7,40.1L54.7,40.1z"/>
		<path d="M5.8,54.7c0.2-0.1,0.5-0.3,0.7-0.4c0.3-0.2,0.7-0.4,1-0.6c0.2-0.1,0.5-0.2,0.8-0.2c-0.8,0.3-1.5,0.8-2.2,1.2H5.8z"/>
		<path d="M33.1,54.7c0.2-0.1,0.5-0.3,0.7-0.4c0.3-0.2,0.7-0.4,1-0.6c0.2-0.1,0.5-0.2,0.8-0.2c-0.8,0.3-1.5,0.8-2.2,1.2H33.1
			L33.1,54.7z"/>
		<path d="M0,41.7c0.7,0.4,1.4,0.7,2.2,1.1c-0.3,0-0.5-0.1-0.6-0.2c-0.5-0.3-1-0.5-1.5-0.8L0,41.7C0,41.8,0,41.8,0,41.7L0,41.7z"/>
		<path d="M0,14.4c0.7,0.4,1.4,0.7,2.2,1.1c-0.3,0-0.5-0.1-0.7-0.2C1,15,0.5,14.8,0,14.5V14.4z"/>
		<path d="M54.7,41.8c-0.5-0.2-1-0.4-1.3-0.8l0,0c0.2,0.1,0.4,0.3,0.6,0.4S54.5,41.6,54.7,41.8L54.7,41.8z"/>
		<path d="M54.7,14.5c-0.5-0.2-1-0.4-1.3-0.8l0,0c0.2,0.1,0.4,0.3,0.6,0.4s0.5,0.2,0.7,0.3V14.5z"/>
		<path d="M33.3,0c-0.1,0.1-0.2,0.1-0.3,0.2c-0.3,0.1-0.5,0.3-0.9,0.4c0-0.1,0.1-0.1,0.1-0.1c0.2-0.1,0.3-0.2,0.5-0.3
			C32.8,0.1,32.9,0.1,33,0C33.1,0,33.2,0,33.3,0L33.3,0z"/>
		<path d="M6,0C5.9,0.1,5.8,0.1,5.7,0.2C5.4,0.3,5.1,0.4,4.8,0.6c0-0.1,0.1-0.1,0.1-0.1c0.2-0.1,0.3-0.2,0.5-0.3
			C5.5,0.1,5.6,0.1,5.7,0C5.8,0,5.9,0,6,0z"/>
		<path d="M4.5,30.6v-0.3c-0.1-0.1-0.2-0.2-0.4-0.3c-0.2,0.2-0.4,0.3-0.7,0.3c-0.1,0-0.2,0-0.4,0s-0.2,0-0.3-0.2c0,0,0,0,0-0.1
			c-0.1-0.2-0.2-0.4,0-0.5c-0.1-0.2-0.2-0.3-0.2-0.4s0-0.3-0.1-0.4c0-0.3,0.1-0.4,0.3-0.5s0.4-0.1,0.7-0.1c0.1,0,0.2,0,0.3-0.1
			s0.1-0.1,0.2-0.2c0.3-0.4,0.6-0.7,1-0.9c0.4-0.2,0.8-0.4,1.3-0.3c0.1,0,0.2,0,0.2,0c0.2-0.1,0.4-0.2,0.6-0.2c0.1,0,0.1,0,0.2-0.1
			c0.2-0.1,0.4-0.3,0.7-0.4c0.2-0.1,0.3-0.1,0.5-0.1c0.2,0,0.5,0,0.7-0.1c0.4,0,0.8,0,1.2,0.3s0.8,0.6,1.2,0.9s0.5,1,0.2,1.4
			c-0.2,0.3-0.3,0.6-0.4,0.9c-0.1,0.2-0.3,0.4-0.5,0.6c-0.4,0.3-0.8,0.6-1.2,0.9l0,0c-0.4,0.2-0.6,0.2-1,0c-0.2,0.1-0.3,0.2-0.5,0.3
			c-0.1,0.1-0.2,0.1-0.2,0.2c-0.1,0.2-0.2,0.3-0.4,0.3c-0.3,0.1-0.7,0.2-1.1,0.4c-0.3,0.1-0.5,0.1-0.8,0C5.4,32,5.2,32.1,5,32.1
			c-0.1,0-0.2,0.1-0.3,0.1c-0.1,0-0.1,0.1-0.2,0.1c-0.2,0.1-0.3,0-0.3-0.2c0-0.3-0.1-0.6,0-0.8c0-0.2,0.1-0.3,0.2-0.4
			C4.5,30.9,4.3,30.7,4.5,30.6v0.1c0.1,0.3,0.3,0.6,0.6,0.7c0.1,0,0.2,0.1,0.3,0.1c0.2,0.2,0.5,0.2,0.8,0.1c0.4-0.1,0.8-0.3,1.2-0.4
			c0.1,0,0.2-0.1,0.3-0.2c0.1-0.2,0.2-0.3,0.4-0.4c0.1-0.1,0.3-0.1,0.4-0.2c-0.1-0.4,0-0.8,0.3-1l0.1-0.1c0-0.1,0-0.3,0.1-0.4
			c-0.2,0-0.3-0.1-0.5,0c-0.2,0-0.4,0-0.6-0.1c-0.3-0.1-0.5-0.3-0.7-0.4c0-0.1-0.1-0.2-0.1-0.3C7,28,6.9,27.9,7,27.8
			s0.2-0.1,0.3-0.1c0.1,0,0.2,0,0.2,0c0.4,0.1,0.8,0.1,1.2,0c0.1,0,0.1,0,0.2-0.1c0.2-0.3,0.5-0.3,0.8-0.3c0.5-0.1,1,0.3,1,0.8
			c0,0.1,0,0.2,0.1,0.3c0,0.1,0.1,0.2,0.1,0.2c0.1,0,0.1,0,0.2,0.1c-0.2,0.1-0.3,0.1-0.4-0.1c-0.1-0.2-0.1-0.3-0.1-0.5
			c-0.2-0.7-0.9-0.8-1.5-0.5c-0.1,0.1-0.1,0.2,0,0.2s0.3,0.1,0.4,0.1c0,0,0.1,0,0.2,0C9.3,28,9.1,28,8.8,27.7c-0.5,0.1-1,0.2-1.5,0
			c-0.1,0-0.2,0-0.3,0.1c0.2,0.2,0.3,0.5,0.5,0.6c0.3,0.2,0.6,0.3,0.9,0.3c0.1,0,0.1,0,0.2,0c0.2,0.1,0.4,0.1,0.6,0
			C9.2,28.8,9.1,29,9,29c-0.1,0.1-0.1,0.2-0.1,0.4c0,0.1-0.1,0.1-0.1,0.2c-0.2,0.2-0.3,0.4-0.2,0.6c0,0.3,0.2,0.4,0.4,0.4
			c0.1,0,0.3-0.1,0.4-0.2c0.5-0.3,0.9-0.7,1.4-1c0.2-0.2,0.4-0.4,0.5-0.7c0-0.1,0.1-0.1,0.1-0.2c0.1-0.1,0.1-0.2,0.2-0.3
			c0.2-0.4,0.1-1-0.2-1.3c-0.4-0.3-0.8-0.6-1.2-0.9c-0.3-0.2-0.7-0.3-1.1-0.2c-0.2,0-0.4,0-0.7,0.1c-0.2,0-0.3,0-0.5,0.1
			c-0.3,0.1-0.6,0.3-0.9,0.5c-0.1,0-0.1,0.1-0.2,0.1c-0.1-0.1-0.2,0-0.3,0.1c-0.5,0.4-1.1,0.7-1.6,1.1c-0.1,0-0.1,0.1-0.2,0.1
			C5,27.3,5.6,27,6,26.6c-0.1,0-0.3,0-0.4,0c-0.3,0-0.6,0.2-0.9,0.4c-0.5,0.3-0.8,0.8-1.2,1.1c-0.3,0.1-0.6,0.1-0.9,0.2
			c-0.1,0-0.2,0.1-0.2,0.2c0,0.2,0,0.5,0.2,0.7C2.7,29,2.9,29,3,29.1h0.1c0.2-0.1,0.4-0.2,0.6-0.3c0.1-0.1,0.3-0.1,0.4-0.1
			c0.3,0,0.5-0.2,0.7-0.3c0-0.2,0.1-0.1,0.2-0.2c0.1,0,0.2-0.1,0.3-0.1C5.6,28,5.8,28,6,28c0.7,0,0.7,0,1.2,0.3
			c0.1,0.3,0.3,0.5,0.6,0.6s0.4,0.4,0.6,0.7c-0.1,0-0.1,0-0.2,0c0,0.1,0,0.1,0,0.3c-0.1-0.2-0.1-0.3-0.2-0.5c0.1,0,0.2,0,0.3,0
			C7.9,29.2,7.7,29,7.4,29c-0.1,0-0.2-0.1-0.1-0.2c0,0,0,0,0-0.1c-0.2-0.2-0.3-0.5-0.6-0.5c-0.4-0.1-0.8-0.1-1.2,0.1
			s-0.8,0.5-1.2,0.8c-0.2,0.2-0.4,0.3-0.7,0.4c0.1-0.1,0-0.2-0.1-0.2s-0.2,0-0.3-0.1c-0.1,0-0.2,0-0.2,0c-0.1,0.1,0,0.2,0,0.2
			c-0.2,0.2-0.2,0.2-0.1,0.4v0.1C3,30.1,3,30.1,3.2,30.1s0.3-0.1,0.5,0c0.1,0,0.1,0,0.2-0.1v-0.1c0,0,0,0,0.1-0.1
			c0.2-0.1,0.4,0,0.5,0.1c0.3,0.3,0.7,0.5,1.2,0.4c0.1,0,0.2,0,0.2,0c-0.3,0.1-0.6,0.2-1,0.1C4.8,30.7,5,30.8,5,31
			c-0.2-0.2-0.3-0.4-0.2-0.7c-0.1,0-0.1-0.1-0.2-0.1C4.4,30.5,4.4,30.6,4.5,30.6L4.5,30.6z M4.3,32.2C4.4,32.2,4.4,32.2,4.3,32.2
			C4.7,32.1,4.9,32,5.1,32c0.1,0,0.2-0.1,0.3-0.2c-0.1-0.2-0.4-0.2-0.5-0.3s-0.3-0.2-0.5-0.4c-0.1,0-0.1,0.1-0.1,0.2
			C4.3,31.6,4.3,31.9,4.3,32.2L4.3,32.2z M4.3,28.8c-0.2,0-0.7,0.2-0.9,0.4c0.2,0.1,0.3,0.1,0.5,0C4,29.1,4.2,29,4.3,28.8L4.3,28.8z
			"/>
		<path d="M31.8,30.6v-0.3c-0.1-0.1-0.2-0.2-0.4-0.3c-0.2,0.2-0.4,0.3-0.7,0.3c-0.1,0-0.2,0-0.4,0c-0.2,0-0.2,0-0.3-0.2
			c0,0,0,0,0-0.1c-0.1-0.2-0.2-0.4,0-0.5c-0.1-0.2-0.2-0.3-0.2-0.4s0-0.3-0.1-0.4c0-0.3,0.1-0.4,0.3-0.5c0.2-0.1,0.5-0.1,0.7-0.1
			c0.1,0,0.1,0,0.2-0.1s0.1-0.1,0.2-0.2c0.3-0.4,0.6-0.7,1-0.9c0.4-0.2,0.8-0.4,1.3-0.3c0.1,0,0.2,0,0.2,0c0.2-0.1,0.4-0.2,0.6-0.2
			c0.1,0,0.1,0,0.2-0.1c0.2-0.1,0.5-0.3,0.7-0.4s0.3-0.1,0.5-0.1s0.5,0,0.7-0.1c0.4,0,0.8,0,1.2,0.3s0.8,0.6,1.2,0.9s0.5,1,0.2,1.5
			c-0.2,0.2-0.3,0.5-0.4,0.8c-0.1,0.3-0.3,0.5-0.5,0.6c-0.4,0.3-0.8,0.6-1.2,0.9c-0.1,0.1-0.2,0.1-0.3,0.1c-0.2,0.1-0.5,0-0.7-0.1
			c-0.2,0.1-0.3,0.2-0.5,0.3c-0.1,0.1-0.2,0.1-0.2,0.2c-0.1,0.2-0.2,0.3-0.4,0.3c-0.3,0.1-0.7,0.2-1.1,0.4c-0.3,0.1-0.5,0.1-0.8,0
			c-0.2,0.2-0.4,0.3-0.6,0.3c-0.1,0-0.2,0.1-0.3,0.1c0,0-0.1,0-0.1,0.1c-0.1,0.1-0.3,0-0.3-0.2c0-0.3-0.1-0.6,0-0.8
			c0-0.2,0.1-0.3,0.2-0.4C31.8,30.9,31.7,30.7,31.8,30.6v0.1c0.1,0.3,0.3,0.6,0.6,0.7c0.1,0,0.2,0.1,0.3,0.1
			c0.2,0.2,0.5,0.2,0.8,0.1c0.4-0.1,0.8-0.3,1.2-0.4c0.1,0,0.2-0.1,0.3-0.2c0.1-0.2,0.2-0.3,0.4-0.4c0.1-0.1,0.3-0.1,0.4-0.2
			c-0.1-0.5,0-0.6,0.3-1c0,0,0-0.1,0.1-0.1c0-0.1,0.1-0.3,0.1-0.4c-0.2,0-0.3-0.1-0.5,0c-0.2,0-0.4,0-0.6-0.1
			c-0.3-0.1-0.5-0.3-0.7-0.4c0-0.1,0-0.2-0.1-0.3c-0.1-0.1-0.1-0.2-0.1-0.3c0-0.1,0.2-0.1,0.3-0.1s0.2,0,0.2,0
			c0.4,0.1,0.8,0.1,1.2,0c0.1,0,0.2,0,0.2-0.1c0.2-0.3,0.5-0.3,0.8-0.3c0.5-0.1,1,0.3,1.1,0.9c0,0.1,0,0.2,0.1,0.3
			c0,0.1,0,0.2,0.1,0.2s0.2,0,0.2,0.1c-0.2,0.1-0.3,0.1-0.4-0.1C38,28.5,38,28.4,38,28.2c-0.2-0.7-0.9-0.8-1.5-0.5
			c-0.1,0.1-0.1,0.2,0,0.2s0.3,0.1,0.4,0.1c0,0,0.1,0,0.2,0c-0.4,0.1-0.5,0.1-0.8-0.1c0,0-0.1,0-0.2,0c-0.5,0.1-1,0.1-1.4,0
			c-0.1,0-0.2,0-0.3,0.1c0.2,0.2,0.2,0.4,0.5,0.6s0.6,0.3,0.9,0.3c0.1,0,0.1,0,0.2,0c0.1,0,0.2,0.1,0.3,0.1s0.2,0,0.3,0l0,0
			c-0.1,0.2-0.4,0.3-0.3,0.6c0,0.1,0,0.1-0.1,0.2C36,30,35.9,30.2,36,30.4c0,0.3,0.2,0.4,0.4,0.4c0.1,0,0.3-0.1,0.4-0.2
			c0.4-0.3,0.8-0.6,1.2-0.9c0.2-0.2,0.5-0.4,0.6-0.7c0.1-0.3,0.2-0.5,0.4-0.7c0.3-0.4,0.2-1-0.2-1.3s-0.8-0.6-1.2-0.9
			c-0.3-0.2-0.7-0.3-1.1-0.2c-0.2,0-0.4,0-0.7,0.1c-0.2,0-0.3,0-0.5,0.1c-0.3,0.1-0.6,0.3-0.9,0.5c-0.1,0-0.1,0.1-0.2,0.1
			c-0.1-0.1-0.2,0-0.3,0.1c-0.5,0.4-1,0.7-1.6,1.1c-0.1,0-0.1,0.1-0.2,0.1c0.3-0.5,0.9-0.7,1.3-1.1c-0.2-0.1-0.4-0.1-0.6,0
			c-0.3,0.1-0.5,0.2-0.8,0.4c-0.5,0.3-0.8,0.8-1.1,1.1c-0.3,0.1-0.6,0.1-0.9,0.2c-0.1,0-0.2,0.1-0.2,0.2c0,0.2,0,0.5,0.1,0.7
			c0.1-0.1,0.3-0.2,0.5-0.1h0.1c0.2-0.1,0.4-0.2,0.6-0.3c0.1-0.1,0.3-0.1,0.4-0.1c0.3,0,0.5-0.2,0.7-0.3c0-0.2,0.1-0.1,0.2-0.2
			c0.1,0,0.2-0.1,0.3-0.1C33,28,33.2,28,33.4,28c0.7,0,0.7,0,1.2,0.3c0.1,0.3,0.3,0.5,0.6,0.6s0.4,0.4,0.6,0.7c-0.1,0-0.2,0-0.2,0
			c0,0.1,0,0.1,0,0.3c-0.1-0.2-0.1-0.3-0.2-0.5c0.1,0,0.2,0,0.3,0c-0.2-0.3-0.4-0.5-0.8-0.5c-0.1,0-0.2-0.1-0.2-0.1
			c0.1-0.2-0.1-0.3-0.2-0.4c-0.1-0.1-0.3-0.3-0.5-0.3c-0.4-0.1-0.9-0.1-1.2,0.1c-0.4,0.2-0.8,0.5-1.2,0.8c-0.2,0.2-0.4,0.3-0.7,0.4
			c0-0.1,0-0.2-0.1-0.2s-0.2,0-0.3-0.1c-0.1-0.1-0.2,0-0.2,0c-0.1,0.1-0.1,0.2,0,0.3c-0.1,0.1-0.2,0.1-0.2,0.2s0.1,0.3,0.2,0.4h0.1
			c0.2,0,0.5,0,0.7-0.1h0.1v-0.1c0.2-0.1,0.3-0.1,0.5,0c0.1,0,0.1,0.1,0.2,0.1c0.3,0.2,0.7,0.5,1.1,0.4c0.1,0,0.2,0,0.3,0
			c-0.2,0.1-0.3,0.1-0.5,0.1s-0.3,0-0.5-0.1c0,0.2,0,0.3,0.1,0.5c-0.2-0.2-0.1-0.3-0.1-0.5c-0.1,0-0.1-0.1-0.2-0.1
			C31.8,30.5,31.8,30.6,31.8,30.6L31.8,30.6z M31.9,31c-0.1,0.1-0.1,0.2-0.2,0.2c-0.1,0.3,0,0.6,0,1c0.1,0,0.1,0,0.1,0
			c0.2-0.1,0.4-0.2,0.6-0.2c0.1,0,0.3-0.1,0.3-0.2c-0.1,0-0.2-0.1-0.3-0.1C32.3,31.5,32,31.4,31.9,31L31.9,31z M30.8,29.2
			c0.2,0.2,0.3,0.1,0.5,0c0.1-0.1,0.2-0.2,0.4-0.3C31.4,28.8,31.1,29,30.8,29.2z"/>
		<path d="M32.2,14.1c-0.2,0.1-0.4,0.2-0.5,0.3c0,0.1-0.1,0.3,0,0.5c0.3,0,0.4,0.2,0.6,0.4c0,0.1,0.2,0.2,0.2,0.2
			c0.2,0.2,0.2,0.3,0,0.5l0,0c-0.1,0.2-0.2,0.4-0.5,0.3c0,0.3-0.3,0.5-0.5,0.7s-0.4,0.2-0.6,0c-0.2-0.1-0.3-0.3-0.5-0.5
			c-0.1-0.1-0.2-0.1-0.3-0.2c-0.2,0-0.5,0-0.7-0.1c-0.5-0.1-1-0.2-1.4-0.6c-0.2-0.1-0.3-0.3-0.4-0.5c0-0.1-0.1-0.2-0.2-0.2
			c-0.2-0.1-0.4-0.2-0.6-0.4c0,0-0.1,0-0.1-0.1c-0.2-0.1-0.5-0.2-0.7-0.3s-0.4-0.3-0.5-0.4c-0.1-0.2-0.2-0.3-0.4-0.5
			c-0.3-0.3-0.5-0.7-0.5-1.1c0-0.5,0-1,0-1.5c0-0.6,0.5-1,1.1-1c0.3,0,0.5,0,0.8-0.1c0.4-0.1,0.7,0,1.1,0.1s0.8,0.3,1.3,0.4
			c0.3,0.1,0.6,0.3,0.6,0.7c0,0.1,0.1,0.1,0.1,0.2c0.3,0.1,0.5,0.3,0.9,0.2c0.1,0,0.2,0.1,0.4,0.1c0.3,0.2,0.6,0.4,1,0.7
			c0.2,0.2,0.4,0.4,0.4,0.6c0.3,0,0.5,0.1,0.6,0.3c0.1,0.1,0.2,0.1,0.3,0.2c0.1,0,0.1,0.1,0.2,0.1c0.1,0.1,0.1,0.2,0,0.3
			c-0.2,0.1-0.4,0.4-0.7,0.5C32.4,14.1,32.3,14.1,32.2,14.1z M27.8,11.4c0.1,0.2,0.1,0.4,0.2,0.5c0.2,0.2,0.3,0.4,0.3,0.6
			c0,0.2,0,0.4,0,0.6c0,0.2-0.1,0.3-0.2,0.5c-0.1,0.1-0.2,0.2-0.3,0.1c-0.1-0.1-0.1-0.2-0.2-0.3c-0.1-0.2-0.2-0.4-0.3-0.6
			c-0.1-0.2-0.3-0.4-0.4-0.5c-0.3,0.1-0.5-0.2-0.7-0.4c-0.4-0.4-0.4-1.1,0-1.5c0.1-0.1,0.1-0.1,0.2-0.2c0.2-0.2,0.2-0.2,0-0.4
			c0.2,0.1,0.2,0.2,0.1,0.4c-0.1,0.1-0.2,0.3-0.4,0.4c-0.3,0.3-0.3,0.8,0,1.1c0.1,0.1,0.2,0.2,0.3,0.3s0.2,0.2,0.3,0.1
			c0.1-0.1,0.1-0.2,0-0.4c0-0.1-0.1-0.2-0.2-0.3c0.2,0.1,0.4,0.3,0.4,0.6c0,0.1,0,0.2,0.1,0.3c0.3,0.3,0.6,0.6,0.7,1.1
			c0,0.1,0.1,0.2,0.2,0.2c0-0.2,0.2-0.4,0.2-0.7c0-0.4,0-0.7-0.3-1l-0.1-0.1c0-0.2-0.1-0.4-0.3-0.5h0.1c0.2,0,0.5,0.1,0.7-0.1h0.2
			c0.2,0.1,0.5,0,0.7-0.2s0.2-0.3,0.1-0.5c-0.1-0.1-0.3-0.3-0.5-0.3c-0.2-0.1-0.5-0.2-0.7-0.3c-0.3-0.1-0.6-0.2-0.9-0.3
			c-0.2-0.1-0.4-0.1-0.6,0c-0.2,0-0.4,0.1-0.6,0.1c-0.1,0-0.2,0-0.3,0c-0.5,0.1-0.8,0.5-0.8,1c0,0.1,0,0.2,0,0.3c0,0.3,0,0.7,0,1
			c0,0.4,0.1,0.8,0.4,1.1c0.2,0.2,0.3,0.4,0.5,0.5c0.1,0.1,0.2,0.2,0.3,0.3c0.3,0.2,0.6,0.3,0.9,0.5c0.1,0,0.2,0.1,0.2,0.1
			c0,0.1,0.1,0.1,0.2,0.1c0.6,0.2,1.2,0.4,1.8,0.7c0,0,0.1,0.1,0.2,0.1c-0.3,0-0.5-0.1-0.8-0.1c-0.3-0.1-0.5-0.2-0.8-0.2
			c0.1,0.1,0.1,0.2,0.2,0.3c0.2,0.2,0.5,0.4,0.7,0.5c0.5,0.2,1,0.3,1.5,0.3c0.2,0,0.2,0.1,0.4,0.2c0.1,0.2,0.3,0.3,0.5,0.5
			c0.1,0.1,0.2,0.1,0.3,0c0.2-0.1,0.4-0.2,0.5-0.5c-0.2,0-0.4-0.1-0.4-0.4c0,0-0.1,0-0.1-0.1c-0.4-0.2-0.7-0.3-1-0.7
			c-0.1-0.2-0.4-0.2-0.6-0.3c-0.2,0.1-0.2,0-0.4-0.1c0,0,0-0.1-0.1-0.1c-0.3-0.2-0.5-0.4-0.6-0.7c-0.2-0.3-0.2-0.7-0.1-1
			s0.2-0.6,0.1-0.9c0-0.2,0-0.4,0.2-0.6c0,0.1,0,0.2-0.1,0.3c-0.1,0.2,0,0.4,0,0.7c0.1,0.1,0.1,0.2,0,0.4c0-0.1,0-0.1-0.1-0.2
			c0,0.2-0.1,0.4-0.1,0.6c0,0.2,0,0.4,0.1,0.6c0.1,0.1,0.1,0.1,0.1,0.2c0.1,0.2,0.3,0.4,0.6,0.5c0.3,0.1,0.6,0.2,0.9,0.4
			c0.4,0.2,0.8,0.2,1.2,0.5c0,0.1-0.1,0.1,0,0.1c0.1,0.1,0.1,0.3,0.2,0.4c0,0.1,0.2,0.1,0.3,0v-0.1c0.2,0.2,0.3,0.2,0.4-0.1
			c0,0,0-0.1,0.1-0.1c0.1-0.1,0.1-0.2,0-0.3c-0.2-0.2-0.3-0.4-0.5-0.6c-0.2,0.1-0.3,0-0.4-0.2c0-0.1,0-0.2,0-0.3
			c0-0.4,0-0.8-0.3-1.1c-0.1-0.1-0.2-0.1-0.1-0.3c0.2,0.2,0.4,0.4,0.5,0.6c0.1,0.2,0.1,0.4,0.2,0.6c0.4-0.1,0.6-0.6,0.5-1
			c0-0.1-0.1-0.3-0.1-0.4c0-0.3-0.1-0.5-0.4-0.6c-0.3-0.2-0.6-0.5-1-0.7c-0.1-0.1-0.2-0.2-0.4-0.1c-0.2,0.1-0.4,0-0.5-0.1
			s-0.2-0.1-0.4-0.2c-0.3,0.3-0.6,0.4-1,0.3h-0.1C28.2,11.5,28,11.5,27.8,11.4L27.8,11.4z M33.2,13.4C33.2,13.4,33.2,13.3,33.2,13.4
			c-0.3-0.2-0.5-0.3-0.7-0.5c-0.1-0.1-0.2-0.1-0.3-0.1c0,0.1,0,0.3,0,0.4c0.1,0.2,0.1,0.4,0,0.6v0.1c0.1,0.1,0.2,0.1,0.3,0
			C32.8,13.8,33,13.6,33.2,13.4L33.2,13.4z M31.2,15.9c0-0.3,0-0.3-0.1-0.3c-0.2-0.1-0.4-0.2-0.7-0.2C30.7,15.7,31,15.7,31.2,15.9z"
			/>
		<path d="M31.9,43.7c0,0.3-0.3,0.5-0.5,0.7s-0.4,0.2-0.6,0c-0.2-0.1-0.3-0.3-0.5-0.5c-0.1-0.1-0.2-0.2-0.3-0.2
			c-0.2,0-0.4,0-0.6-0.1c-0.5-0.1-1-0.3-1.5-0.6c-0.2-0.1-0.3-0.3-0.4-0.5c0-0.1-0.1-0.2-0.2-0.2c-0.2-0.1-0.4-0.2-0.5-0.4
			c0,0-0.1,0-0.1-0.1c-0.2-0.1-0.5-0.2-0.7-0.3s-0.4-0.2-0.5-0.4s-0.3-0.3-0.4-0.5c-0.2-0.2-0.4-0.5-0.4-0.8s0-0.6,0-1
			c0-0.2,0-0.5,0-0.7c0-0.7,0.5-1.2,1.2-1.2c0.2,0,0.3,0,0.5,0c0.5-0.1,0.9,0,1.3,0.1s0.8,0.3,1.2,0.4c0.3,0.1,0.6,0.3,0.6,0.7
			l0.1,0.1c0.3,0.1,0.5,0.3,0.8,0.2c0.1,0,0.2,0,0.4,0.1c0.3,0.2,0.7,0.5,1,0.7c0.2,0.2,0.4,0.3,0.4,0.6c0.2,0,0.5,0.1,0.6,0.3
			c0.1,0.1,0.2,0.1,0.3,0.2c0.1,0,0.1,0.1,0.2,0.1c0.1,0.1,0.1,0.2,0,0.3c-0.2,0.1-0.4,0.4-0.7,0.5c-0.2,0.1-0.2,0.1-0.4,0
			c-0.2,0.1-0.3,0.2-0.5,0.3c0,0.1,0,0.3-0.1,0.5c0.1,0,0.1,0,0.2,0.1c0.1,0,0.2,0.1,0.3,0.2c0.1,0.1,0.2,0.2,0.3,0.3
			c0.2,0.2,0.2,0.3,0,0.5v0.1c-0.1,0.2-0.2,0.2-0.3,0.2C32,43.7,32,43.7,31.9,43.7L31.9,43.7z M28.7,40.2c0,0.2-0.1,0.4-0.1,0.6
			c0,0.2,0,0.4,0.1,0.6c0.1,0.1,0.1,0.2,0.2,0.2c0.1,0.2,0.3,0.4,0.6,0.5c0.3,0.1,0.5,0.2,0.8,0.4c0.4,0.2,0.8,0.2,1.2,0.5
			c0,0.1-0.1,0.1,0,0.2c0.1,0.1,0.1,0.3,0.2,0.4c0,0,0.1,0.1,0.2,0.1l0.1-0.1v-0.1c0.2,0.2,0.3,0.2,0.4,0c0-0.1,0.1-0.2,0.2-0.3
			c-0.2-0.2-0.4-0.5-0.6-0.7c-0.2,0.1-0.4,0-0.4-0.2c0-0.1,0-0.2,0-0.3c0-0.4,0-0.8-0.4-1.1c-0.1-0.1-0.2-0.1-0.1-0.3
			c0.2,0.2,0.4,0.4,0.5,0.5c0.1,0.2,0.1,0.4,0.2,0.6c0.4-0.2,0.6-0.5,0.5-1c0-0.2-0.1-0.3-0.1-0.5s-0.1-0.4-0.3-0.6
			c-0.3-0.3-0.7-0.5-1-0.8c-0.1-0.1-0.2-0.2-0.4-0.1c-0.2,0-0.4,0-0.6-0.1c-0.1-0.1-0.2-0.1-0.4-0.2c-0.3,0.3-0.6,0.4-1,0.3h-0.1
			c-0.1,0.1-0.3,0.1-0.5,0.1c0.1,0.3,0.2,0.5,0.4,0.7c0,0,0.1,0.1,0.1,0.2c0.2,0.5,0.1,0.9-0.1,1.3c-0.1,0.2-0.3,0.2-0.4,0.1
			c-0.1-0.1-0.1-0.2-0.2-0.3c-0.1-0.2-0.2-0.4-0.3-0.6s-0.3-0.3-0.4-0.5c-0.3,0-0.3,0-0.6-0.2c-0.5-0.4-0.6-1.1,0-1.6
			c0,0,0.1-0.1,0.1-0.2s0.1-0.1,0.1-0.2c0-0.1,0-0.2-0.1-0.2c0.2,0.1,0.2,0.2,0.1,0.4s-0.2,0.3-0.4,0.4c-0.2,0.2-0.3,0.5-0.2,0.8
			c0.1,0.3,0.3,0.5,0.6,0.7c0.1,0.1,0.2-0.1,0.2-0.2c0-0.1-0.1-0.2-0.2-0.3c0,0-0.1-0.1-0.1-0.2c0.3,0.1,0.4,0.4,0.4,0.6
			c0,0.2,0,0.2,0.1,0.3c0.3,0.3,0.6,0.6,0.7,1c0,0.1,0.1,0.2,0.2,0.2l0,0c0.1-0.2,0.2-0.4,0.2-0.7c0-0.4,0-0.7-0.3-0.9l-0.1-0.1
			c0-0.2-0.1-0.4-0.4-0.5c0.1,0,0.1,0,0.1,0c0.2,0,0.4,0.1,0.6-0.1h0.2c0.2,0.1,0.5,0,0.7-0.2s0.3-0.3,0.1-0.6
			c-0.1-0.2-0.3-0.2-0.5-0.3s-0.4-0.2-0.7-0.2c-0.3-0.1-0.6-0.2-0.9-0.3c-0.2,0-0.4,0-0.6,0s-0.5,0.1-0.7,0.1
			c-0.7,0-1.1,0.5-1.1,1.2c0,0.1,0,0.1,0,0.2c0,0.3,0,0.7,0,1c0,0.5,0.1,0.8,0.5,1.2c0.1,0.2,0.3,0.3,0.4,0.5
			c0.1,0.1,0.2,0.2,0.4,0.3c0.3,0.2,0.6,0.3,0.9,0.5c0.1,0,0.2,0.1,0.2,0.1c0,0.1,0.1,0.1,0.2,0.2c0.6,0.2,1.2,0.4,1.8,0.7
			c0,0,0.1,0,0.1,0.1c-0.6,0-1-0.3-1.6-0.4c0.1,0.2,0.2,0.3,0.2,0.3c0.2,0.2,0.4,0.3,0.7,0.5c0.5,0.2,1,0.3,1.6,0.3
			c0.1,0,0.2,0.1,0.3,0.2c0.2,0.2,0.3,0.3,0.5,0.5c0,0,0.1,0.1,0.2,0.1c0.2,0,0.5-0.3,0.6-0.6c-0.1,0-0.3-0.1-0.3-0.2
			c0-0.1-0.1-0.2-0.2-0.2c-0.3-0.2-0.7-0.3-0.9-0.6c-0.1-0.2-0.4-0.2-0.6-0.3c-0.1,0.1-0.2,0-0.3-0.1l-0.1-0.1
			c-0.3-0.2-0.5-0.4-0.7-0.7s-0.2-0.7-0.1-1s0.2-0.6,0.1-0.9c0-0.2,0-0.3,0.2-0.6c0,0.1,0,0.2-0.1,0.3c-0.1,0.2,0,0.4,0,0.7
			c0.1,0.1,0.1,0.2,0,0.3C28.7,40.3,28.7,40.3,28.7,40.2L28.7,40.2z M33.2,40.7c-0.3-0.1-0.6-0.3-0.8-0.5l-0.2-0.1
			c-0.1,0.2,0,0.4,0,0.6c0,0.2,0,0.4,0,0.6C32.7,41.3,32.9,41,33.2,40.7L33.2,40.7z M31.2,43.2L31.2,43.2c0-0.1,0-0.2,0-0.3
			c-0.2-0.1-0.4-0.2-0.7-0.2C30.7,43,31,43,31.2,43.2z"/>
		<path d="M18.4,41.7c0.1,0.2,0.3,0.2,0.5,0.4c0-0.1,0-0.1,0.1-0.2c0.1-0.1,0.1-0.1,0.2-0.1c0.2-0.1,0.4-0.1,0.6-0.1s0.3,0,0.4,0.2
			c0,0,0,0,0,0.1c0.1,0.2,0.2,0.3,0,0.5c0,0,0,0,0,0.1c0.3,0.2,0.3,0.5,0.4,0.8c0,0.2-0.1,0.3-0.2,0.4c-0.2,0.1-0.5,0.2-0.7,0.2
			c-0.1,0-0.2,0.1-0.3,0.2c-0.1,0.2-0.2,0.3-0.3,0.5c-0.3,0.4-0.7,0.8-1.1,1c-0.3,0.2-0.5,0.2-0.9,0.2c-0.1,0-0.2,0-0.2,0.1
			c-0.2,0.1-0.3,0.3-0.5,0.3c0,0-0.1,0-0.1,0.1c-0.2,0.1-0.4,0.3-0.6,0.4c-0.2,0.2-0.4,0.2-0.6,0.3c-0.3,0-0.6,0.1-1,0.2
			c-0.3,0.1-0.6,0-0.8-0.1c-0.5-0.3-1-0.5-1.4-0.8c-0.4-0.2-0.6-0.8-0.4-1.2c0.1-0.4,0.3-0.7,0.4-1.1c0.1-0.3,0.4-0.6,0.6-0.8
			c0.3-0.3,0.6-0.5,0.8-0.8c0.1-0.1,0.2-0.2,0.4-0.2c0.2-0.1,0.4-0.1,0.7,0c0.2-0.1,0.3-0.2,0.5-0.3c0.1-0.1,0.2-0.2,0.2-0.3
			c0.1-0.2,0.2-0.3,0.3-0.4c0.3-0.2,0.6-0.3,0.9-0.5c0.3-0.1,0.6-0.2,0.9-0.2c0.1-0.2,0.3-0.3,0.5-0.4c0.1,0,0.2-0.1,0.3-0.1
			s0.1-0.1,0.2-0.1s0.2,0,0.2,0.1c0.1,0.3,0.2,0.6,0.1,1c0,0.1-0.1,0.2-0.2,0.3C18.4,41.3,18.5,41.5,18.4,41.7
			c0-0.5-0.3-0.8-0.8-0.9c-0.1,0-0.2,0-0.3-0.1c-0.3-0.2-0.5-0.1-0.8,0c-0.4,0.2-0.7,0.3-1.1,0.5c-0.1,0.1-0.2,0.1-0.3,0.3
			s-0.2,0.3-0.3,0.4c-0.1,0.1-0.3,0.2-0.4,0.2v0.1c0.1,0.3,0.1,0.6-0.2,0.9l-0.1,0.1c0,0.2,0,0.3-0.1,0.5c0.2,0,0.4,0.1,0.5,0
			c0.4-0.1,0.8,0,1.1,0.2c0.1,0,0.2,0.1,0.2,0.1c0.1,0.1,0.2,0.2,0.3,0.3c0.1,0.1,0.1,0.3-0.1,0.3c-0.1,0-0.2,0.1-0.3,0
			c-0.4-0.1-0.9,0-1.3,0.1c-0.1,0-0.2,0-0.2,0.1c-0.1,0.3-0.4,0.3-0.6,0.4c-0.6,0.2-1.1-0.2-1.3-0.7c0-0.1-0.1-0.2-0.1-0.3
			C12.1,44,12.1,44,11.8,44c0.2-0.1,0.3-0.1,0.4,0c0.1,0.1,0.1,0.3,0.2,0.4c0.1,0.1,0.1,0.3,0.2,0.3c0.3,0.4,0.8,0.4,1.3,0.1
			c0.1,0,0.2-0.1,0.2-0.2s-0.1-0.2-0.2-0.2c-0.1,0-0.1,0-0.2,0c-0.1,0-0.2,0-0.3,0c0.3-0.2,0.6-0.2,0.8-0.1c0.1,0.1,0.2,0.1,0.3,0
			c0.4-0.1,0.8-0.2,1.3-0.1c0.1,0,0.2,0,0.3-0.1c-0.2-0.2-0.3-0.4-0.6-0.5s-0.6-0.3-0.9-0.1c-0.1,0-0.1,0-0.2,0
			c-0.2-0.1-0.4,0-0.6,0.1l0.1-0.1c0.1-0.2,0.2-0.3,0.2-0.5s0-0.3,0.1-0.4c0.2-0.2,0.2-0.4,0.1-0.7c0-0.2-0.1-0.2-0.3-0.3
			c-0.2,0-0.4,0-0.5,0.2c-0.4,0.3-0.8,0.7-1.2,1.1c-0.2,0.2-0.4,0.5-0.5,0.8c0,0.2-0.1,0.4-0.2,0.5c-0.1,0.1-0.1,0.2-0.1,0.2
			c-0.1,0.4,0,1,0.4,1.2s0.9,0.5,1.3,0.7c0.4,0.2,0.7,0.2,1.1,0.1c0.2-0.1,0.5-0.1,0.8-0.2c0.2,0,0.3-0.1,0.4-0.2
			c0.3-0.2,0.6-0.4,0.8-0.6c0.1,0,0.1-0.1,0.2-0.1s0.2,0,0.2-0.1c0.5-0.5,1-0.9,1.5-1.4c0,0,0.1,0,0.2-0.1c-0.3,0.5-0.8,0.8-1.2,1.2
			c0.2,0.1,0.3,0,0.4,0c0.2-0.1,0.4-0.2,0.6-0.3c0.5-0.3,0.8-0.8,1.1-1.3c0.1-0.1,0.1-0.2,0.3-0.2c0.2,0,0.4-0.1,0.6-0.2
			c0.1,0,0.2-0.1,0.2-0.2c0-0.3,0-0.5-0.2-0.7c-0.1,0.2-0.3,0.2-0.4,0.2h-0.1c-0.2,0.1-0.4,0.3-0.6,0.4c-0.1,0-0.2,0.1-0.3,0.1
			c-0.4,0.1-0.6,0.2-0.8,0.5l-0.1,0.1c-0.1,0-0.1,0-0.2,0.1c-0.4,0.3-0.8,0.2-1.2,0.3c-0.1,0-0.2,0-0.3-0.1
			c-0.2-0.1-0.4-0.3-0.6-0.5c-0.1-0.1-0.3-0.2-0.4-0.3c-0.2-0.1-0.4-0.3-0.5-0.5c0.2,0.2,0.6,0.4,0.9,0.5l0.1,0.1
			c0.3,0.4,0.6,0.6,1.2,0.6c0.4,0,0.7-0.2,1-0.4c0.3-0.3,0.6-0.5,0.9-0.8c0.2-0.2,0.4-0.3,0.6-0.5c0.1,0,0.1,0.1,0.2,0.1
			c0.2,0,0.3,0,0.5,0c0,0,0.1,0,0.2-0.1c0-0.1,0-0.1-0.1-0.2c0,0,0,0-0.1,0c0.2-0.1,0.3-0.2,0.1-0.4c0-0.1-0.1-0.2-0.1-0.3
			c-0.3,0-0.6,0.1-0.8,0.2c0,0-0.1,0-0.1,0.1C19.2,42,19,42,19,42c-0.2,0-0.3,0-0.4-0.1c-0.4-0.3-0.8-0.5-1.3-0.3c0,0-0.1,0-0.2,0
			c0.4-0.2,0.7-0.2,1.1-0.1C18.2,41.6,18.3,41.6,18.4,41.7L18.4,41.7z M18.3,41c0.1-0.1,0.1-0.1,0.2-0.2c0-0.3-0.1-0.6-0.1-0.9h-0.1
			c-0.2,0.2-0.4,0.2-0.7,0.3c-0.1,0-0.2,0.1-0.3,0.3C17.6,40.7,18.1,40.6,18.3,41L18.3,41z M19.6,42.8L19.6,42.8L19.6,42.8
			c-0.1-0.1-0.3-0.1-0.4,0s-0.3,0.3-0.4,0.4c0.1,0,0.1,0,0.1,0C19.2,43.1,19.4,42.9,19.6,42.8L19.6,42.8z"/>
		<path d="M18.4,14.3c0.1,0.1,0.3,0.2,0.5,0.4c0-0.1,0-0.1,0.1-0.1c0.1-0.1,0.1-0.1,0.2-0.1c0.2-0.1,0.4-0.1,0.6-0.1
			c0.2-0.1,0.3,0,0.4,0.2v0.1c0.1,0.1,0.2,0.3,0,0.5c0,0,0,0,0,0.1c0.3,0.2,0.3,0.5,0.4,0.9c0,0.2-0.1,0.3-0.2,0.4
			c-0.2,0.1-0.5,0.2-0.7,0.2c-0.1,0-0.2,0.1-0.3,0.2c-0.1,0.1-0.2,0.3-0.3,0.5c-0.3,0.4-0.6,0.8-1.1,1c-0.3,0.2-0.6,0.3-0.9,0.2
			c-0.1,0-0.2,0-0.2,0.1c-0.2,0.1-0.3,0.3-0.5,0.3c0,0-0.1,0-0.1,0.1c-0.2,0.1-0.4,0.3-0.6,0.4c-0.2,0.1-0.4,0.2-0.6,0.3
			c-0.3,0-0.6,0.1-1,0.2c-0.3,0.1-0.6,0-0.8-0.1c-0.5-0.2-1-0.5-1.4-0.8c-0.4-0.2-0.6-0.9-0.4-1.3c0.1-0.3,0.2-0.6,0.4-0.9
			c0.1-0.4,0.4-0.6,0.7-0.9c0.3-0.2,0.5-0.5,0.8-0.7c0.1-0.1,0.2-0.2,0.3-0.2c0.2-0.1,0.5-0.1,0.7,0c0.2-0.1,0.3-0.2,0.5-0.3
			c0.1-0.1,0.2-0.2,0.2-0.3c0.1-0.2,0.2-0.3,0.3-0.4c0.3-0.1,0.6-0.3,0.9-0.4c0.3-0.1,0.6-0.2,0.9-0.1c0.1-0.2,0.3-0.3,0.5-0.4
			c0.1,0,0.2-0.1,0.3-0.1s0.1-0.1,0.2-0.1c0.1-0.1,0.2,0,0.2,0.1c0.1,0.3,0.2,0.6,0.1,1c0,0.1-0.1,0.2-0.2,0.3
			C18.4,14,18.5,14.2,18.4,14.3c0-0.5-0.3-0.8-0.8-0.9c-0.1,0-0.2,0-0.3-0.1c-0.3-0.2-0.6-0.1-0.9,0c-0.4,0.2-0.7,0.3-1,0.5
			c-0.1,0.1-0.3,0.1-0.3,0.3c-0.1,0.2-0.2,0.3-0.3,0.4c-0.1,0.1-0.3,0.2-0.4,0.2v0.1c0.1,0.4,0.1,0.7-0.2,1l-0.1,0.1
			c0,0.2,0,0.3-0.1,0.5c0.2,0,0.4,0,0.6,0c0.3-0.1,0.6,0,0.9,0.1c0.1,0,0.3,0.1,0.4,0.2s0.2,0.2,0.3,0.4c0.1,0.1,0.1,0.3-0.1,0.4
			c-0.1,0-0.2,0.1-0.3,0c-0.4-0.1-0.9,0-1.3,0.1c-0.1,0-0.1,0-0.1,0.1c-0.2,0.3-0.4,0.4-0.7,0.4c-0.5,0.1-1-0.3-1.1-0.7
			c0-0.1,0-0.2-0.1-0.3c0-0.1-0.1-0.2-0.1-0.3c-0.1,0-0.2,0-0.2-0.1c0.2-0.1,0.4-0.1,0.4,0.1c0.1,0.1,0.1,0.3,0.1,0.4
			c0.2,0.6,0.9,0.8,1.5,0.4c0.1-0.1,0.1-0.2,0-0.2s-0.2-0.1-0.3-0.1s-0.1,0-0.2,0c0.2-0.1,0.4-0.2,0.7,0c0.1,0.1,0.2,0.1,0.3,0
			c0.4-0.1,0.8-0.2,1.3-0.1c0.1,0,0.2,0,0.3-0.1c-0.2-0.2-0.4-0.5-0.6-0.6c-0.3-0.1-0.5-0.2-0.8-0.1c-0.1,0-0.2,0-0.2,0
			c-0.2-0.1-0.4,0-0.6,0.1l0.1-0.1c0.1-0.2,0.2-0.3,0.2-0.5c0-0.1,0-0.3,0.1-0.4c0.2-0.2,0.2-0.4,0.1-0.7c0-0.2-0.1-0.2-0.3-0.3
			c-0.2,0-0.4,0.1-0.5,0.2c-0.4,0.4-0.8,0.7-1.2,1.1c-0.2,0.2-0.4,0.4-0.4,0.7c-0.1,0.2-0.1,0.4-0.2,0.6c0,0.1-0.1,0.1-0.1,0.2
			c-0.1,0.4,0,1,0.4,1.2c0.4,0.3,0.9,0.5,1.3,0.7c0.4,0.2,0.7,0.2,1.1,0.1c0.3-0.1,0.5-0.1,0.8-0.2c0.1,0,0.3-0.1,0.4-0.2
			c0.3-0.2,0.5-0.4,0.8-0.6c0.1,0,0.1-0.1,0.2-0.1s0.2,0,0.2-0.1c0.5-0.4,1-0.9,1.5-1.3l0.1-0.1c-0.3,0.5-0.8,0.8-1.2,1.2
			c0.2,0.1,0.3,0.1,0.4,0c0.2-0.1,0.5-0.2,0.6-0.4c0.5-0.3,0.8-0.8,1.1-1.2c0.1-0.1,0.2-0.2,0.3-0.2c0.2,0,0.4-0.1,0.6-0.2
			c0.1,0,0.2-0.1,0.2-0.2c0.1-0.2,0-0.6-0.2-0.8c-0.1,0.1-0.2,0.2-0.4,0.2c0,0-0.1,0-0.2,0c-0.2,0.1-0.4,0.2-0.6,0.4
			C19.1,15.9,19,16,18.9,16c-0.3,0-0.5,0.2-0.6,0.4c-0.1,0.2-0.4,0.3-0.6,0.4S17.3,17,17.1,17c-0.1,0-0.2,0-0.3,0
			c-0.2,0-0.4,0-0.6-0.1c-0.1-0.1-0.3-0.2-0.4-0.3c-0.2-0.2-0.4-0.4-0.6-0.5c-0.2-0.1-0.3-0.2-0.4-0.4c0.2,0.2,0.5,0.4,0.9,0.5
			c0.1,0,0.1,0.1,0.1,0.1c0.3,0.3,0.6,0.6,1.1,0.6c0.4,0,0.8-0.1,1.1-0.4c0.3-0.3,0.6-0.5,0.9-0.8c0.2-0.2,0.4-0.3,0.5-0.4
			c0.1,0.1,0.1,0.1,0.2,0.1s0.3,0,0.4,0c0,0,0.1-0.1,0.2-0.1c0,0,0-0.1,0-0.2L20.1,15c0.3-0.1,0.3-0.2,0.1-0.4
			c0-0.1-0.1-0.1-0.1-0.1c0-0.1-0.1-0.1-0.3-0.1c-0.2,0.1-0.4,0.1-0.6,0.1l-0.1,0.1c0,0.2-0.1,0.2-0.2,0.2s-0.3,0-0.4-0.1
			c-0.4-0.3-0.8-0.4-1.3-0.3c-0.1,0-0.1,0.1-0.2,0c0.4-0.1,0.8-0.2,1.2,0C18.3,14.3,18.4,14.3,18.4,14.3L18.4,14.3z M18.3,13.7
			c0.3-0.4,0-0.8,0-1.1c-0.3,0.1-0.6,0.2-0.8,0.4c-0.1,0-0.2,0.1-0.2,0.2C17.6,13.3,18.1,13.3,18.3,13.7L18.3,13.7z M19.6,15.4
			c-0.1-0.1-0.2-0.1-0.3,0c-0.2,0.1-0.3,0.3-0.5,0.5C19.1,15.8,19.3,15.6,19.6,15.4z"/>
		<path d="M45.7,41.7c0.1,0.2,0.3,0.2,0.5,0.4c0,0,0-0.1,0.1-0.2c0.1-0.1,0.2-0.1,0.2-0.1c0.2,0,0.4-0.1,0.6-0.1
			c0.2,0,0.3,0,0.4,0.2c0,0,0,0,0,0.1c0.2,0.2,0.2,0.3,0,0.5c0,0,0,0,0,0.1c0.5,0,0.5,0.4,0.5,0.7c0,0.2-0.1,0.3-0.2,0.4
			c-0.2,0.1-0.5,0.2-0.7,0.2c-0.1,0-0.2,0.1-0.2,0.1c-0.1,0.1-0.2,0.2-0.2,0.4c-0.2,0.3-0.5,0.6-0.7,0.8s-0.5,0.4-0.8,0.5
			c-0.1,0-0.3,0.1-0.4,0c-0.2,0-0.3,0-0.5,0.1c-0.1,0.1-0.3,0.1-0.4,0.2c-0.1,0-0.1,0-0.2,0.1c-0.2,0.1-0.4,0.3-0.6,0.4
			s-0.4,0.2-0.7,0.3c-0.3,0-0.6,0.1-0.9,0.2c-0.3,0-0.5,0-0.8-0.1s-0.6-0.3-0.9-0.5c-0.2-0.1-0.3-0.2-0.5-0.3
			c-0.5-0.2-0.8-1-0.5-1.5c0.1-0.2,0.2-0.5,0.3-0.8c0.1-0.2,0.2-0.4,0.4-0.6c0.3-0.3,0.5-0.5,0.8-0.8c0.1-0.1,0.2-0.2,0.3-0.3
			c0.1,0,0.1-0.1,0.2-0.2c0.3-0.2,0.6-0.3,0.9-0.1c0.2-0.1,0.3-0.2,0.5-0.4c0.1-0.1,0.1-0.2,0.2-0.2c0-0.2,0.2-0.3,0.3-0.4
			c0.4-0.2,0.8-0.4,1.1-0.5c0.1,0,0.2-0.1,0.3-0.1s0.2,0,0.4,0c0.1-0.2,0.3-0.3,0.5-0.4c0.1,0,0.2-0.1,0.3-0.2
			c0.1,0,0.1-0.1,0.2-0.1c0.1,0,0.2,0,0.2,0.1c0.1,0.3,0.2,0.6,0.1,1c0,0.1-0.1,0.2-0.2,0.3C45.7,41.3,45.8,41.5,45.7,41.7
			c0-0.5-0.3-0.8-0.8-0.9c-0.1,0-0.2,0-0.3-0.1c-0.3-0.2-0.6-0.2-0.9,0c-0.3,0.2-0.7,0.3-1,0.5c-0.1,0.1-0.2,0.1-0.3,0.3
			c0,0.2-0.2,0.3-0.3,0.4c-0.1,0.1-0.3,0.2-0.4,0.2v0.1c0.1,0.3,0.1,0.6-0.2,0.9l-0.1,0.1c0,0.2,0,0.3-0.1,0.5c0.2,0,0.4,0,0.6,0
			c0.3-0.1,0.6,0,0.8,0.1c0.1,0,0.3,0.1,0.4,0.2s0.2,0.2,0.3,0.3s0.1,0.3-0.1,0.3c-0.1,0-0.2,0.1-0.3,0c-0.4-0.1-0.9,0-1.3,0.1
			c-0.1,0-0.1,0-0.2,0.1c-0.2,0.3-0.4,0.4-0.7,0.4c-0.5,0.1-1-0.3-1.2-0.7c0-0.1-0.1-0.2-0.1-0.3C39.4,44,39.4,44,39.1,44
			c0.2-0.1,0.3-0.1,0.4,0.1c0.1,0.2,0.1,0.3,0.2,0.5c0.2,0.7,1,0.8,1.5,0.3c0.1-0.1,0.1-0.2,0-0.2s-0.2,0-0.3-0.1h-0.1h-0.1
			c0.2-0.1,0.5-0.2,0.7,0c0.1,0.1,0.2,0.1,0.2,0c0.4-0.1,0.9-0.2,1.3-0.1c0.1,0,0.2,0,0.3-0.1c-0.2-0.2-0.3-0.4-0.5-0.5
			c-0.3-0.1-0.6-0.3-0.9-0.2c-0.1,0-0.1,0-0.2,0c-0.1,0-0.2,0-0.3,0s-0.2,0.1-0.3,0.1c0.1-0.1,0.1-0.1,0.1-0.1
			c0.1-0.2,0.2-0.3,0.2-0.5s0-0.3,0.1-0.4c0.2-0.2,0.2-0.4,0.1-0.7c0-0.2-0.1-0.2-0.3-0.3c-0.2,0-0.4,0.1-0.5,0.2
			c-0.4,0.3-0.8,0.7-1.1,1.1c-0.2,0.2-0.4,0.5-0.5,0.8c0,0.2-0.1,0.3-0.2,0.5c0,0.1-0.1,0.2-0.1,0.3c-0.2,0.4,0,1,0.4,1.2
			s0.8,0.5,1.3,0.7c0.3,0.2,0.7,0.2,1.1,0.1c0.3-0.1,0.5-0.1,0.8-0.2c0.1,0,0.2-0.1,0.3-0.1c0.3-0.2,0.5-0.3,0.8-0.5
			c0.1-0.1,0.2-0.3,0.4-0.2c0,0,0.1,0,0.1-0.1c0.5-0.5,1-0.9,1.5-1.4c0,0,0.1,0,0.2-0.1c-0.3,0.5-0.8,0.8-1.2,1.3c0.2,0,0.3,0,0.4,0
			c0.2-0.1,0.4-0.2,0.6-0.3c0.5-0.3,0.8-0.8,1.1-1.3c0.1-0.1,0.2-0.2,0.3-0.2c0.2,0,0.4-0.1,0.7-0.2c0.1,0,0.2-0.1,0.2-0.3
			s0-0.5-0.2-0.7c-0.1,0.2-0.3,0.2-0.4,0.2h-0.1c-0.2,0.1-0.4,0.3-0.6,0.4c-0.1,0.1-0.2,0.1-0.3,0.1c-0.3,0.1-0.6,0.2-0.8,0.5
			l-0.1,0.1c-0.1,0-0.2,0-0.2,0.1c-0.4,0.3-0.8,0.2-1.2,0.3c-0.1,0-0.2,0-0.3-0.1c-0.2-0.1-0.4-0.3-0.6-0.5
			c-0.1-0.1-0.3-0.2-0.5-0.3s-0.4-0.3-0.5-0.5c0.2,0.2,0.6,0.4,0.9,0.5l0.1,0.1c0.3,0.4,0.6,0.6,1.2,0.6c0.4,0,0.8-0.2,1.1-0.4
			c0.3-0.3,0.6-0.5,0.9-0.8c0.2-0.2,0.3-0.3,0.5-0.4l0.1,0.1c0.2,0,0.3,0,0.5,0c0.1,0,0.2-0.1,0.2-0.2l-0.1-0.1
			c0.2-0.1,0.2-0.2,0.1-0.4c0-0.1-0.1-0.2-0.2-0.3c-0.3,0-0.6,0.1-0.8,0.2c0,0-0.1,0-0.1,0.1c0.1,0.1-0.1,0.2-0.1,0.2
			c-0.2,0-0.3,0-0.4-0.1c-0.4-0.3-0.8-0.5-1.3-0.3c0,0-0.1,0-0.2,0c0.5-0.2,0.7-0.2,1.1-0.1C45.5,41.6,45.6,41.6,45.7,41.7
			L45.7,41.7z M45.7,39.9c-0.3,0.1-0.6,0.2-0.9,0.4c-0.1,0-0.2,0.1-0.2,0.2c0.2,0.1,0.4,0.1,0.5,0.2c0.2,0.1,0.3,0.2,0.5,0.3
			c0.1,0,0.1-0.2,0.1-0.3C45.7,40.5,45.7,40.2,45.7,39.9L45.7,39.9z M46.1,43.2L46.1,43.2c0.3,0,0.5-0.3,0.8-0.4
			c-0.2-0.1-0.3-0.1-0.5,0C46.4,43,46.2,43.1,46.1,43.2z"/>
		<path d="M45.7,14.3c0.1,0.2,0.3,0.2,0.5,0.4c0,0,0-0.1,0.1-0.1c0.1-0.1,0.2-0.1,0.2-0.1c0.2-0.1,0.4-0.1,0.6-0.1
			c0.2-0.1,0.3,0,0.4,0.2v0.1c0.2,0.1,0.2,0.3,0,0.5c0,0,0,0,0,0.1c0.3,0.2,0.3,0.5,0.4,0.9c0,0.2-0.1,0.3-0.2,0.4
			c-0.2,0.1-0.5,0.2-0.7,0.2c-0.1,0-0.2,0.1-0.3,0.2s-0.2,0.3-0.3,0.5c-0.3,0.4-0.7,0.8-1.1,1c-0.3,0.1-0.5,0.2-0.9,0.2
			c-0.1,0-0.2,0-0.2,0.1c-0.2,0.1-0.3,0.3-0.5,0.3c-0.1,0-0.1,0-0.2,0.1c-0.1,0-0.1,0.1-0.2,0.1c-0.6,0.5-1.3,0.6-2.1,0.7
			c-0.2,0-0.4,0-0.6-0.1c-0.3-0.1-0.6-0.3-0.9-0.5c-0.2-0.1-0.3-0.2-0.5-0.3c-0.5-0.2-0.8-1-0.5-1.5c0.2-0.3,0.2-0.5,0.3-0.8
			c0.1-0.2,0.2-0.4,0.4-0.6c0.2-0.3,0.5-0.5,0.8-0.8c0.1-0.1,0.2-0.2,0.3-0.2c0-0.1,0.1-0.1,0.2-0.1c0.3-0.2,0.6-0.4,0.9-0.1
			c0.2-0.1,0.3-0.2,0.5-0.3c0.1-0.1,0.2-0.2,0.2-0.3c0.1-0.2,0.2-0.3,0.3-0.4c0.4-0.2,0.7-0.4,1.1-0.5c0.2-0.1,0.5-0.1,0.7-0.1
			c0.1-0.2,0.3-0.3,0.5-0.4c0.1,0,0.2-0.1,0.3-0.1s0.2-0.1,0.2-0.1c0.1-0.1,0.2,0,0.2,0.1c0.1,0.3,0.2,0.6,0.1,1
			c0,0.1-0.1,0.2-0.2,0.3C45.7,14,45.8,14.2,45.7,14.3c0-0.5-0.3-0.8-0.8-0.9c-0.1,0-0.2,0-0.3-0.1c-0.3-0.2-0.6-0.1-0.9,0
			c-0.3,0.2-0.7,0.3-1,0.5c-0.1,0.1-0.2,0.1-0.3,0.3c0,0.2-0.2,0.3-0.3,0.4c-0.1,0.1-0.3,0.2-0.4,0.2c0,0.1,0,0.1,0,0.1
			c0.1,0.3,0.1,0.6-0.2,0.9l-0.1,0.1c0,0.2,0,0.3-0.1,0.5c0.2,0,0.3,0.1,0.5,0c0.4-0.1,0.8,0,1.1,0.2c0.1,0,0.2,0.1,0.2,0.1
			c0.1,0.1,0.2,0.2,0.3,0.4c0.1,0.1,0.1,0.3-0.1,0.4c-0.1,0-0.2,0.1-0.3,0c-0.4-0.1-0.9,0-1.3,0.1c-0.1,0-0.1,0-0.2,0.1
			c-0.2,0.3-0.4,0.4-0.7,0.4c-0.6,0.1-1.1-0.3-1.2-0.7c0-0.1-0.1-0.2-0.1-0.3c-0.1-0.2-0.1-0.2-0.4-0.2c0.2-0.1,0.3-0.1,0.4,0
			c0.1,0.1,0.1,0.3,0.2,0.4c0,0.1,0.1,0.3,0.2,0.4c0.3,0.4,0.8,0.4,1.3,0.1c0.1,0,0.2-0.1,0.1-0.2c0-0.1-0.1-0.1-0.2-0.2
			c-0.1,0-0.2,0-0.2,0h-0.1c0,0,0,0-0.1,0c0.3-0.1,0.5-0.1,0.7,0c0.1,0.1,0.2,0.1,0.2,0c0.4-0.1,0.9-0.2,1.3-0.1
			c0.1,0,0.2,0,0.3-0.1c-0.1-0.1-0.2-0.3-0.3-0.4l0,0c-0.1-0.1-0.2-0.1-0.3-0.2c-0.3-0.1-0.5-0.2-0.8-0.1c-0.1,0-0.2,0-0.2,0
			c-0.2-0.1-0.4,0-0.6,0.1c0.1-0.1,0.2-0.3,0.2-0.4s0.1-0.1,0-0.2c0-0.1,0-0.3,0.1-0.4c0.2-0.2,0.2-0.4,0.1-0.7
			c0-0.2-0.1-0.2-0.3-0.3c-0.2,0-0.4,0.1-0.5,0.2c-0.4,0.4-0.8,0.7-1.2,1.1c-0.3,0.3-0.5,0.6-0.5,0.9c0,0.1-0.1,0.1-0.1,0.2
			s-0.1,0.2-0.2,0.3c-0.2,0.4,0,1,0.4,1.2c0.4,0.3,0.8,0.5,1.3,0.7c0.3,0.2,0.7,0.2,1.1,0.1c0.3-0.1,0.5-0.1,0.8-0.2
			c0.2,0,0.3-0.1,0.4-0.2c0.3-0.2,0.5-0.4,0.8-0.6c0.1,0,0.2-0.1,0.2-0.1c0.1,0,0.2,0,0.2-0.1c0.5-0.5,1-0.9,1.5-1.4
			c0,0,0.1,0,0.2-0.1c-0.3,0.5-0.8,0.8-1.2,1.2c0.2,0.1,0.3,0,0.4,0c0.2-0.1,0.5-0.2,0.6-0.4c0.5-0.3,0.8-0.8,1.1-1.2
			c0.1-0.1,0.2-0.1,0.3-0.2c0.2,0,0.4-0.1,0.7-0.2c0.1,0,0.2-0.1,0.2-0.3s0-0.5-0.2-0.7c-0.1,0.2-0.2,0.2-0.4,0.2h-0.1
			c-0.2,0.1-0.4,0.3-0.6,0.4c-0.1,0.1-0.2,0.1-0.3,0.1c-0.3,0.1-0.6,0.2-0.8,0.5L45.1,16c-0.1,0-0.2,0-0.2,0.1
			c-0.4,0.3-0.8,0.2-1.2,0.3c-0.1,0-0.2,0-0.3-0.1c-0.2-0.1-0.4-0.3-0.6-0.5c-0.1-0.1-0.3-0.2-0.5-0.3s-0.4-0.3-0.5-0.5h0.1
			c0.2,0.2,0.5,0.4,0.8,0.5c0.1,0,0.1,0.1,0.2,0.1c0.3,0.4,0.6,0.6,1.2,0.6c0.4,0,0.8-0.2,1.1-0.4c0.3-0.3,0.6-0.5,0.9-0.8
			c0.2-0.2,0.3-0.3,0.6-0.4c0,0,0,0.1,0.1,0.1c0.2,0,0.4,0,0.5,0.1c0,0,0.1-0.1,0.2-0.1c0-0.1,0-0.1-0.1-0.2c0,0,0,0-0.1-0.1
			c0.2-0.1,0.3-0.2,0.1-0.4c0,0,0-0.1-0.1-0.1c0-0.1-0.1-0.2-0.3-0.1c-0.2,0.1-0.4,0.1-0.6,0.1L46.3,14c0.1,0.1-0.1,0.1-0.1,0.2
			c-0.2,0.1-0.3,0-0.4-0.1c-0.4-0.3-0.8-0.4-1.3-0.3c-0.1,0-0.1,0-0.3,0c0.5-0.2,0.7-0.3,1.1-0.1C45.5,14.3,45.6,14.3,45.7,14.3
			L45.7,14.3z M45.6,13.7c0.3-0.4,0-0.8,0-1.2c-0.3,0.1-0.6,0.2-0.9,0.4c-0.1,0-0.2,0.1-0.2,0.2C45,13.3,45.4,13.3,45.6,13.7z
			 M46.1,15.9c0.3,0,0.5-0.3,0.8-0.4c-0.2-0.1-0.3-0.1-0.5,0C46.4,15.6,46.2,15.7,46.1,15.9z"/>
		<path d="M50.8,51.5c-0.1,0.1-0.2,0.2-0.3,0.2c-0.5,0.4-1.3,0.4-1.8,0c-0.1-0.1-0.2-0.2-0.3-0.2s-0.1-0.1-0.2-0.2
			c-0.1-0.2-0.1-0.3,0.1-0.3c0,0,0,0,0.1,0c-0.1-0.3-0.3-0.6-0.5-0.8c-0.1-0.1-0.2-0.2-0.3-0.3c-0.2-0.2-0.1-0.5,0.2-0.6
			c0.2-0.1,0.5,0,0.7,0.1s0.5,0.3,0.6,0.6c0.1,0.2,0.2,0.3,0.4,0.5c0.2-0.1,0.2-0.3,0.3-0.4c0.1-0.2,0.2-0.4,0.3-0.6
			s0.2-0.4,0.3-0.6c0.1-0.1,0.2-0.2,0.2-0.4c0.3-0.3,0.7-0.3,1,0c0.2,0.2,0.3,0.3,0.3,0.6c0.1,0.7,0.3,1.4,0.4,2c0,0.1,0,0.3,0,0.4
			c0,0.4-0.2,0.7-0.7,0.7c-0.1,0-0.2,0-0.3,0.1c-0.3,0.1-0.5,0.1-0.6-0.2C51,51.8,50.9,51.6,50.8,51.5L50.8,51.5z M51.7,51.8
			c0.2,0.1,0.3,0.1,0.5,0s0.2-0.3,0.2-0.5c0-0.1,0-0.2,0-0.3c-0.1-0.7-0.4-1.3-0.4-2c0-0.1-0.1-0.3-0.2-0.4c-0.3-0.4-0.8-0.6-1.1,0
			c-0.2,0.3-0.4,0.7-0.6,1C50,49.7,50,49.8,50,49.9c-0.1,0.3-0.2,0.5-0.5,0.7c-0.1,0.1-0.1,0.1-0.1,0.2c0,0.1,0,0.2-0.1,0.3
			c-0.2-0.3,0-0.5,0.1-0.7c-0.2-0.2-0.3-0.4-0.5-0.6c-0.2-0.2-0.4-0.4-0.7-0.5c-0.1,0-0.2-0.1-0.4,0c-0.2,0-0.3,0.2-0.1,0.4
			c0.1,0.1,0.1,0.2,0.3,0.1c0.1,0.1,0.3,0.3,0.4,0.4v0.1c-0.1,0.1,0,0.1,0,0.2c0.1,0.3,0.3,0.5,0.5,0.6c-0.2,0.1-0.4-0.1-0.5,0
			c0,0,0,0.1,0.1,0.1c0.2,0.1,0.3,0.2,0.5,0.4c0-0.1,0-0.2,0-0.3l0,0c0,0.1,0.1,0.3,0.2,0.4c0.5,0.2,0.9,0.1,1.3-0.2
			c0.3-0.3,0.6-0.6,0.9-0.9c0,0.2-0.1,0.4-0.3,0.5c0,0.1-0.1,0.1-0.1,0.2c0,0.2,0.1,0.5,0.4,0.6C51.5,51.9,51.6,51.9,51.7,51.8
			L51.7,51.8z"/>
		<path d="M23.5,24.1c-0.1,0.1-0.2,0.1-0.2,0.2c-0.5,0.4-1.3,0.4-1.8,0c-0.1-0.1-0.2-0.1-0.3-0.2c-0.1,0-0.1-0.1-0.2-0.2
			s-0.1-0.3,0.1-0.3c0,0,0,0,0.1,0c-0.1-0.3-0.3-0.6-0.5-0.8c-0.1-0.1-0.2-0.2-0.3-0.4c-0.2-0.2-0.1-0.5,0.2-0.6
			c0.2-0.1,0.5,0,0.7,0.1s0.5,0.3,0.6,0.6c0.1,0.2,0.2,0.3,0.4,0.5c0.1-0.1,0.2-0.3,0.3-0.4c0.1-0.2,0.2-0.4,0.3-0.6
			s0.2-0.4,0.3-0.6c0.1-0.1,0.1-0.2,0.2-0.4c0.3-0.3,0.7-0.3,1-0.1c0.2,0.2,0.3,0.4,0.4,0.6c0.1,0.7,0.3,1.4,0.4,2
			c0,0.1,0,0.3,0,0.4c0,0.4-0.2,0.7-0.7,0.7c-0.1,0-0.2,0-0.3,0.1c-0.3,0.1-0.5,0.1-0.6-0.2C23.6,24.4,23.6,24.3,23.5,24.1
			L23.5,24.1z M24.4,24.5c0.1,0.1,0.3,0.1,0.4,0c0.2-0.1,0.3-0.4,0.2-0.6c-0.1-0.3-0.1-0.6-0.2-0.9s-0.2-0.6-0.2-0.9
			c0-0.2-0.1-0.5-0.2-0.7c-0.1-0.3-0.3-0.5-0.6-0.5c-0.3,0-0.4,0.2-0.6,0.4c-0.2,0.3-0.4,0.6-0.5,0.9c-0.1,0.1-0.1,0.2-0.2,0.4
			c-0.1,0.2-0.2,0.4-0.4,0.6c-0.1,0.1-0.2,0.2-0.2,0.3c0,0.1,0,0.2-0.1,0.3c-0.1-0.1-0.1-0.2-0.1-0.3c0-0.1,0.1-0.3,0.2-0.5
			c-0.2-0.3-0.5-0.5-0.7-0.8c-0.1-0.1-0.3-0.2-0.5-0.3c-0.1-0.1-0.3,0-0.4,0c-0.1,0.1-0.2,0.2-0.1,0.3c0.1,0.1,0.1,0.3,0.3,0.2
			c0,0,0,0,0.1,0l0.1,0.1c0.1,0.1,0.3,0.2,0.2,0.4c0.1,0.2,0.1,0.6,0.5,0.7l0,0c-0.2,0-0.4-0.1-0.5,0c0.1,0.1,0.4,0.4,0.6,0.5V24
			l0,0c0,0.1,0.1,0.2,0.1,0.4c0.4,0.2,0.9,0.1,1.3-0.2c0.3-0.3,0.6-0.6,0.9-0.9c0,0.1,0,0.1,0,0.1c-0.1,0.1-0.2,0.3-0.3,0.4
			c0,0.1-0.1,0.1-0.1,0.2c0,0.2,0.1,0.5,0.4,0.6C24.2,24.6,24.3,24.5,24.4,24.5L24.4,24.5z"/>
		<path d="M49.5,23c0.1-0.2,0.2-0.3,0.3-0.5s0.2-0.4,0.3-0.6s0.2-0.4,0.3-0.6c0.1-0.1,0.2-0.2,0.2-0.4c0.3-0.3,0.7-0.3,1,0
			c0.2,0.1,0.3,0.4,0.3,0.6c0.1,0.7,0.3,1.4,0.4,2c0,0.1,0,0.3,0,0.4c0,0.4-0.2,0.7-0.7,0.7c-0.1,0-0.2,0-0.3,0.1
			c-0.2,0.1-0.4,0-0.5-0.2c-0.1-0.1-0.1-0.3-0.2-0.5c-0.1,0-0.1,0.1-0.2,0.2c-0.6,0.5-1.3,0.5-1.8,0c-0.1-0.1-0.2-0.1-0.2-0.2
			c0,0-0.1-0.1-0.2-0.1c-0.1-0.1-0.2-0.2-0.1-0.3c0-0.1,0.1-0.1,0.2-0.2c-0.1-0.3-0.3-0.5-0.5-0.8c-0.1-0.1-0.2-0.2-0.3-0.3
			c-0.2-0.2-0.1-0.5,0.2-0.6c0.2-0.1,0.5,0,0.7,0.1s0.4,0.3,0.6,0.5C49.3,22.6,49.4,22.8,49.5,23L49.5,23z M49.2,24.4
			c0.2,0.1,0.4,0.1,0.6,0.1c0.4,0,0.7-0.2,0.9-0.5c0.2-0.2,0.5-0.5,0.7-0.8c0,0.2-0.2,0.4-0.3,0.6c0,0.1-0.1,0.1-0.1,0.2
			c0,0.2,0.1,0.5,0.4,0.6c0.2-0.1,0.3-0.2,0.5-0.1c0,0,0.2,0,0.2-0.1c0.2-0.1,0.3-0.3,0.3-0.5c0-0.1,0-0.2,0-0.3
			c-0.1-0.7-0.4-1.3-0.4-2c0-0.1-0.1-0.3-0.2-0.4c-0.3-0.5-0.8-0.5-1.1,0c-0.2,0.3-0.4,0.7-0.6,1C50,22.3,50,22.4,50,22.5
			c-0.1,0.3-0.2,0.5-0.5,0.7c-0.1,0.1-0.1,0.1-0.1,0.2s0,0.2-0.1,0.3c-0.1-0.1-0.1-0.2-0.1-0.3c0-0.1,0.1-0.3,0.2-0.4
			c-0.2-0.2-0.3-0.4-0.5-0.6s-0.4-0.4-0.7-0.5c-0.1,0-0.2-0.1-0.4,0c-0.2,0-0.3,0.2-0.1,0.4c0.1,0.1,0.1,0.2,0.3,0.1
			c0.1,0.1,0.3,0.3,0.4,0.4v0.1c-0.1,0.1,0,0.1,0,0.2s0.1,0.3,0.2,0.4c0.1,0.1,0.2,0.2,0.3,0.2c-0.2,0.1-0.4-0.1-0.6,0
			c0.2,0.2,0.4,0.3,0.6,0.5c0-0.1,0-0.2,0-0.3C49.1,24.1,49.1,24.2,49.2,24.4C49.2,24.3,49.2,24.3,49.2,24.4L49.2,24.4z"/>
		<path d="M22.2,50.3c0.1-0.1,0.2-0.3,0.3-0.5c0.1-0.2,0.2-0.4,0.3-0.6c0.1-0.2,0.2-0.4,0.3-0.6c0-0.1,0.1-0.2,0.1-0.3
			c0.4-0.6,1-0.4,1.3,0c0.1,0.1,0.1,0.3,0.2,0.4c0.1,0.6,0.2,1.3,0.4,1.9c0,0.2,0.1,0.4,0.1,0.5c0,0.4-0.3,0.6-0.6,0.7
			c-0.1,0-0.2,0-0.3,0.1c-0.2,0.1-0.4,0-0.5-0.2c-0.1-0.1-0.1-0.3-0.2-0.5c-0.1,0-0.1,0.1-0.2,0.2c-0.6,0.5-1.3,0.5-1.8,0
			c-0.1-0.1-0.2-0.1-0.3-0.2c-0.1,0-0.1-0.1-0.2-0.2c-0.1-0.2-0.1-0.3,0.1-0.4c0,0,0,0,0.1,0c-0.1-0.3-0.3-0.6-0.5-0.8
			c-0.1-0.1-0.2-0.2-0.3-0.3c-0.2-0.2-0.1-0.5,0.2-0.6c0.2-0.1,0.5,0,0.6,0.1c0.2,0.1,0.5,0.3,0.6,0.6C21.9,50,22,50.1,22.2,50.3
			L22.2,50.3z M21.1,51.1c0.1,0.2,0.4,0.4,0.6,0.5v-0.2l0,0c0,0.1,0.1,0.3,0.1,0.4c0.4,0.2,0.9,0.2,1.3-0.2c0.3-0.3,0.6-0.6,0.9-0.9
			c0,0.1,0,0.1,0,0.2c-0.1,0.1-0.2,0.3-0.3,0.4c0,0.1-0.1,0.1-0.1,0.2c0,0.2,0.1,0.5,0.4,0.6c0.1,0,0.2-0.1,0.4-0.2
			c0.2,0.1,0.3,0.1,0.4,0c0.2-0.2,0.3-0.3,0.2-0.6c-0.1-0.3-0.1-0.6-0.2-0.9c-0.1-0.3-0.2-0.6-0.2-0.9c0-0.2-0.1-0.5-0.2-0.7
			c-0.1-0.3-0.3-0.5-0.6-0.5c-0.3,0-0.4,0.2-0.5,0.4c-0.2,0.3-0.4,0.6-0.5,0.9c-0.1,0.1-0.1,0.2-0.2,0.4s-0.2,0.4-0.4,0.6
			c-0.1,0.1-0.2,0.2-0.2,0.3s0,0.2-0.1,0.3c-0.1-0.1-0.1-0.2-0.1-0.3c0-0.2,0.1-0.3,0.2-0.5c-0.2-0.3-0.5-0.5-0.7-0.8
			c-0.1-0.1-0.3-0.2-0.5-0.3c-0.1-0.1-0.3,0-0.4,0c-0.1,0.1-0.2,0.2-0.1,0.3s0.1,0.3,0.3,0.2c0,0,0,0,0.1,0l0.1,0.1
			c0.1,0.1,0.3,0.2,0.2,0.4c0.1,0.2,0.1,0.6,0.5,0.7c0,0,0,0,0,0.1C21.5,51.1,21.3,51,21.1,51.1L21.1,51.1z"/>
		<path d="M41.2,7c0.1,0,0.3,0.1,0.4,0.1c0.6,0.2,1,0.8,0.9,1.4c0,0.1,0,0.3,0,0.4c0,0.1,0,0.1,0,0.2c-0.1,0.2-0.2,0.2-0.3,0.1
			c0,0,0,0-0.1,0c-0.2,0.3-0.3,0.7-0.4,1.1c0,0.1,0,0.2-0.1,0.3c-0.1,0.2-0.2,0.2-0.4,0.2c-0.3-0.1-0.4-0.4-0.4-0.6
			c0-0.3,0-0.6,0.2-1c-0.1-0.2,0-0.3,0-0.5c-0.1,0-0.1-0.1-0.2-0.1c-0.6,0.1-1.2,0.1-1.8,0.2c-0.1,0-0.2,0-0.3,0
			c-0.5-0.1-0.8-0.4-0.6-0.9c0-0.2,0.2-0.3,0.3-0.5c0.2-0.2,0.3-0.3,0.5-0.5c0.2-0.3,0.5-0.5,0.7-0.8C39.8,6,40,5.8,40.2,5.7
			c0.3-0.2,0.7-0.2,1,0.2c0,0.1,0.1,0.1,0.2,0.2c0.1,0.1,0.2,0.2,0.2,0.3C41.5,6.6,41.5,6.7,41.2,7L41.2,7z M41,6.9
			c0.1-0.2,0.2-0.3,0.3-0.4c0.1-0.2,0.1-0.2-0.1-0.3c0,0-0.1-0.1-0.2-0.1C41.1,6,41,6,41,6c-0.1-0.2-0.2-0.4-0.5-0.3
			c-0.1,0-0.2,0.1-0.3,0.1C40,6,39.8,6.1,39.7,6.3c-0.3,0.3-0.5,0.7-0.9,0.9c-0.1,0.1-0.2,0.2-0.3,0.3c-0.1,0.1-0.2,0.3-0.2,0.4
			c-0.1,0.4,0.1,0.7,0.5,0.7c0.1,0,0.2,0,0.3,0c0.3,0,0.6,0,0.9-0.1c0.1,0,0.3,0,0.4,0c0.3-0.1,0.6-0.1,0.9,0c0.1,0,0.2,0,0.2-0.1
			c0.1-0.1,0.2-0.1,0.3-0.1c-0.2,0.4-0.4,0.3-0.7,0.3C41,9,41,9.3,40.9,9.6c0,0.2-0.1,0.5,0,0.7c0,0.1,0.1,0.3,0.3,0.3
			c0,0,0.1,0,0.2,0c0.1,0,0.2-0.3,0.1-0.4c-0.2-0.2,0-0.4,0.1-0.7c0,0.1,0.1,0.1,0.1,0.2c0.1-0.1,0.1-0.3,0.2-0.4
			C42,9.2,42,9,41.9,8.8l0,0C42,8.9,42,9.1,42.2,9.3c0-0.1,0.1-0.2,0.1-0.3c0-0.2,0-0.4,0-0.6c0-0.1,0-0.1,0-0.1
			c-0.1-0.5-0.4-0.9-0.9-1c-0.3-0.1-0.6-0.1-0.9-0.2c-0.1,0-0.1,0-0.2,0c-0.1,0-0.1,0-0.2,0C40.5,6.8,40.8,6.9,41,6.9L41,6.9z"/>
		<path d="M13.9,34.3c0.2,0.1,0.3,0.1,0.5,0.2c0.5,0.2,0.9,0.8,0.8,1.4c0,0.1,0,0.2,0,0.4c0,0.1,0,0.2,0,0.2
			c-0.1,0.2-0.2,0.3-0.4,0.1h-0.1c-0.2,0.3-0.4,0.7-0.4,1.1c0,0.1,0,0.2-0.1,0.3c-0.1,0.3-0.3,0.3-0.5,0.2s-0.3-0.4-0.3-0.6
			c0-0.3,0-0.7,0.1-1c0.1-0.2,0.1-0.3,0.2-0.5c-0.1,0-0.1-0.1-0.2,0c-0.6,0.2-1.2,0.1-1.7,0.2c-0.1,0-0.2,0-0.4,0
			c-0.5-0.1-0.8-0.5-0.6-0.9c0.1-0.2,0.2-0.3,0.3-0.5s0.3-0.3,0.5-0.5s0.4-0.5,0.7-0.8c0.2-0.2,0.3-0.3,0.5-0.5
			c0.4-0.3,0.8-0.2,1,0.2c0.1,0.1,0.1,0.1,0.2,0.2c0.2,0.1,0.2,0.2,0.2,0.3c0,0.2-0.1,0.3-0.2,0.4C14,34.2,13.9,34.2,13.9,34.3
			L13.9,34.3z M13.8,36c-0.1,0.3-0.2,0.6-0.2,0.9c-0.1,0.2-0.1,0.5,0,0.7s0.1,0.3,0.3,0.3c0.1,0,0.2,0,0.2,0
			c0.1-0.1,0.1-0.2,0.1-0.4c-0.1-0.2,0-0.4,0.1-0.7c0,0.1,0.1,0.1,0.1,0.2c0.1-0.2,0.2-0.3,0.3-0.5c0.1-0.1,0.1-0.2,0.1-0.4
			c0,0,0-0.1,0-0.2c0.1,0.2,0.2,0.3,0.3,0.5c0.1-0.1,0.1-0.2,0.1-0.3s0-0.3,0-0.4c0.1-0.6-0.4-1.1-0.7-1.3c-0.4-0.1-0.8-0.2-1.2-0.2
			c0,0-0.1,0-0.2,0c0.3-0.2,0.6-0.1,0.9-0.1c0.1-0.2,0.2-0.3,0.3-0.4s0.1-0.2-0.1-0.3c-0.1,0-0.1-0.1-0.2-0.1
			c0.1-0.2-0.1-0.2-0.2-0.3c-0.2-0.1-0.4-0.1-0.6,0.1c-0.2,0.2-0.4,0.3-0.6,0.5c-0.3,0.3-0.5,0.7-0.9,0.9c-0.1,0.1-0.2,0.2-0.3,0.3
			s-0.2,0.3-0.2,0.5c-0.1,0.4,0.2,0.7,0.5,0.7c0.1,0,0.2,0,0.3,0c0.2,0,0.5,0,0.7,0s0.4,0,0.6-0.1C13.4,35.9,13.6,35.9,13.8,36
			c0.2-0.1,0.3,0,0.4-0.1c0.1-0.1,0.2-0.1,0.3-0.1C14.4,36.1,14.1,36.1,13.8,36L13.8,36z"/>
		<path d="M41.2,34.3c0.4,0.1,0.7,0.2,1,0.5c0.2,0.3,0.4,0.6,0.3,1c0,0.2,0,0.3,0,0.5l0,0c0,0.3-0.2,0.4-0.5,0.2
			c-0.2,0.3-0.3,0.7-0.4,1.1c0,0.1,0,0.2-0.1,0.3c-0.1,0.2-0.2,0.3-0.5,0.2s-0.4-0.4-0.4-0.6c0-0.3,0-0.7,0.1-1
			c0.1-0.2,0.1-0.3,0.2-0.5c-0.1,0-0.2,0-0.2,0c-0.6,0.2-1.2,0.1-1.8,0.2c-0.1,0-0.2,0-0.2,0c-0.5-0.1-0.8-0.5-0.6-1
			c0.1-0.2,0.2-0.3,0.3-0.4c0.2-0.2,0.3-0.3,0.5-0.5s0.5-0.5,0.7-0.8c0.2-0.2,0.3-0.3,0.5-0.5c0.3-0.3,0.8-0.2,1,0.2
			c0,0.1,0.1,0.1,0.2,0.2c0.2,0.1,0.2,0.2,0.2,0.3s-0.1,0.3-0.1,0.4C41.3,34.2,41.3,34.2,41.2,34.3L41.2,34.3z M41,33.3
			c0.1-0.2-0.1-0.2-0.2-0.3c-0.2-0.1-0.4-0.1-0.6,0.1c-0.2,0.2-0.4,0.3-0.5,0.5c-0.2,0.3-0.5,0.6-0.8,0.8c-0.1,0.2-0.3,0.3-0.4,0.4
			c-0.1,0.1-0.2,0.3-0.2,0.4c-0.1,0.4,0.1,0.7,0.5,0.7c0.1,0,0.2,0,0.3,0c0.2,0,0.5,0,0.7,0s0.4,0,0.7-0.1c0.2,0,0.5-0.1,0.7,0
			c0.1,0,0.2,0,0.3,0c0.1-0.1,0.2-0.1,0.3-0.1C41.7,36,41.4,36,41.1,36c-0.1,0.3-0.2,0.6-0.2,0.9c0,0.2-0.1,0.5,0,0.7
			c0,0.1,0.1,0.3,0.3,0.3c0.1,0,0.2,0,0.2,0c0.1-0.1,0.1-0.2,0.1-0.4c-0.1-0.2,0-0.4,0.1-0.7c0,0.1,0,0.1,0.1,0.2
			c0.1-0.2,0.2-0.3,0.3-0.5c0.1-0.1,0.1-0.2,0.1-0.4c0,0,0-0.1,0-0.2c0.1,0.2,0.2,0.3,0.3,0.5c0.1-0.1,0.1-0.2,0.1-0.3s0-0.3,0-0.4
			c0.1-0.6-0.3-1.1-0.7-1.3c-0.4-0.1-0.8-0.2-1.2-0.2c0,0-0.1,0-0.2,0c0.3-0.2,0.6-0.1,0.9-0.1c0.1-0.2,0.2-0.3,0.3-0.4
			c0.1-0.2,0-0.2-0.1-0.3C41.2,33.4,41.1,33.4,41,33.3L41,33.3z"/>
		<path d="M13.9,7c0.1,0,0.2,0,0.3,0.1c0.6,0.2,1.1,0.9,1,1.5c0,0.1,0,0.2,0,0.4c0,0.1,0,0.1,0,0.2c-0.1,0.2-0.2,0.2-0.4,0.1
			c0,0,0,0-0.1,0c-0.2,0.3-0.4,0.7-0.4,1.1c0,0.1,0,0.2-0.1,0.3c-0.1,0.2-0.2,0.2-0.4,0.2c-0.3-0.1-0.4-0.4-0.4-0.6
			c0-0.3,0-0.6,0.1-1c0.1-0.2,0.1-0.3,0.2-0.5c-0.1,0-0.2,0-0.2,0C12.9,9,12.3,8.9,11.6,9c-0.6,0.1-1-0.4-0.8-1
			c0.1-0.2,0.2-0.3,0.3-0.4c0.1-0.2,0.3-0.3,0.5-0.5c0.2-0.3,0.5-0.5,0.7-0.8c0.2-0.2,0.3-0.3,0.5-0.5c0.3-0.2,0.7-0.1,0.9,0.2
			c0.1-0.1,0.2,0,0.3,0c0.1,0.1,0.2,0.2,0.2,0.3c0,0.2,0,0.3-0.1,0.4C14,6.8,13.9,6.9,13.9,7L13.9,7z M12.9,7
			c0.3-0.2,0.5-0.1,0.8-0.1c0.1-0.1,0.2-0.3,0.3-0.4c0.1-0.2,0.1-0.2-0.1-0.4C13.8,6,13.8,6,13.7,6c0-0.1,0-0.1,0-0.2
			c-0.1-0.1-0.1-0.1-0.2-0.2c-0.2-0.1-0.4-0.1-0.6,0.1c-0.2,0.2-0.4,0.3-0.6,0.6C12,6.6,11.8,7,11.4,7.2c-0.1,0.1-0.2,0.2-0.3,0.3
			c0,0.2-0.1,0.3-0.2,0.5c-0.1,0.4,0.1,0.7,0.5,0.7c0.1,0,0.2,0,0.3,0c0.3,0,0.5,0,0.8-0.1c0.2,0,0.3,0,0.5-0.1
			c0.3-0.1,0.5-0.1,0.8,0c0.1,0,0.2,0,0.3-0.1s0.2-0.1,0.3-0.1c-0.1,0.1-0.1,0.2-0.3,0.3c-0.1,0-0.3,0-0.4,0c-0.1,0.3-0.2,0.6-0.3,1
			c-0.1,0.2-0.1,0.4,0,0.6c0.1,0.1,0.1,0.3,0.3,0.3c0.1,0,0.2,0,0.2,0c0.1-0.1,0.1-0.3,0.1-0.4c-0.1-0.2,0-0.4,0.1-0.7
			c0,0.1,0.1,0.1,0.1,0.2c0.1-0.1,0.1-0.3,0.2-0.4c0.1-0.2,0.2-0.4,0.1-0.6l0,0c0.1,0.1,0.1,0.3,0.3,0.5C15,9.1,15,9,15,8.9
			c0-0.2,0-0.3,0-0.5c0-0.1,0-0.1,0-0.2c-0.1-0.5-0.4-0.9-0.9-1C13.7,7.1,13.3,7,12.9,7L12.9,7z"/>
		<path d="M23.7,1.8c0.1,0,0.2,0,0.2,0.1C24,2,24,2.1,24,2.2c0,0.1-0.1,0.2-0.2,0.2c0,0,0,0-0.1,0c-0.2,0-0.4,0.1-0.5,0.3
			c0,0.1-0.2,0.3-0.3,0.5c0,0.1,0.1,0.2,0.1,0.2c-0.1,0.1,0,0.3,0,0.4c0,0.5,0,1-0.3,1.5c-0.1,0.2-0.2,0.3-0.3,0.5
			C22.2,6,22,6.2,21.7,6.2c-0.4,0.1-0.8,0-1.2-0.3c0,0-0.1,0-0.1-0.1c-0.3-0.3-0.5-0.7-0.5-1.1c0-0.1,0-0.1,0-0.1
			c0.2-0.4,0.3-0.7,0.7-0.9c0.2-0.1,0.5-0.2,0.7-0.3c0.3-0.1,0.6-0.2,0.9-0.4c0,0,0,0,0.1,0c0.2,0,0.3-0.1,0.4-0.2
			c0.2-0.2,0.3-0.3,0.5-0.5c0.1-0.1,0.1-0.2,0.1-0.4s0.1-0.3,0.2-0.3s0.2,0.1,0.2,0.3C23.7,1.7,23.7,1.7,23.7,1.8L23.7,1.8z
			 M22.9,2.7c0.1,0,0.2-0.1,0.3-0.2c0.2-0.2,0.4-0.4,0.7-0.4L24,2c0,0,0-0.1-0.1-0.1s-0.2,0-0.3-0.1V1.7c0-0.1,0-0.2-0.1-0.2
			s-0.1,0.1-0.1,0.2c0,0.2,0,0.3-0.1,0.4C23.2,2.2,23,2.3,23,2.4C23,2.6,22.9,2.5,22.9,2.7c-0.1-0.1-0.1,0-0.1,0
			c-0.2,0-0.1,0.3-0.2,0.3v0.1l0,0C22.8,3.1,22.9,2.9,22.9,2.7C22.9,2.8,22.9,2.8,22.9,2.7z M22.7,4.7c0.1-0.2,0.1-0.5,0.1-0.8h-0.1
			V3.7h0.1c0-0.1,0-0.2,0-0.3c-0.1,0-0.2,0-0.3-0.1c-0.1-0.1,0-0.3-0.2-0.3c-0.3,0.3-0.7,0.4-1.1,0.6c-0.2,0.1-0.4,0.2-0.6,0.3
			c-0.5,0.4-0.9,0.9-0.4,1.6v0.1c0.1,0.1,0.1,0.2,0.2,0.3c0.3,0.2,0.6,0.3,1,0.3c0.3,0,0.5-0.1,0.7-0.4c0-0.1,0.1-0.1,0.1-0.2
			s0.1-0.1,0.1-0.2c0.1-0.1-0.1-0.1,0-0.2c0.1-0.2,0.2-0.4,0.3-0.7L22.7,4.7L22.7,4.7z"/>
		<path d="M51.1,29.1c0.1,0,0.2,0,0.2,0.1c0.1,0.1,0.1,0.2,0.1,0.3c0,0.1-0.1,0.2-0.2,0.2c-0.5,0-0.7,0.4-0.9,0.6
			c-0.1,0.1-0.1,0.1-0.2,0.2c0,0.1,0.1,0.1,0.1,0.2s0,0.2,0,0.3c0,0.4,0.1,0.7,0,1c-0.1,0.3-0.3,0.5-0.4,0.8
			c-0.4,0.6-0.8,0.7-1.4,0.6c-0.3,0-0.5-0.1-0.7-0.3c-0.3-0.2-0.4-0.6-0.5-1c0-0.2,0-0.3,0.1-0.5c0.2-0.5,0.7-0.8,1.2-1
			c0.2-0.1,0.5-0.2,0.7-0.3c0.1,0,0.2-0.1,0.2-0.1c0.2-0.1,0.2-0.1,0.3-0.2c0.2-0.2,0.4-0.4,0.5-0.6c0.2-0.2,0.3-0.3,0.3-0.6
			c0-0.2,0.1-0.2,0.2-0.2c0.2,0,0.2,0,0.3,0.2C51.1,29,51,29,51.1,29.1L51.1,29.1z M50.1,30.1c-0.2,0-0.1,0.3-0.2,0.3v0.1l0,0
			l0.1-0.1c0.2,0,0.2-0.2,0.3-0.3V30c0.1,0,0.2-0.1,0.3-0.2c0.2-0.2,0.4-0.4,0.7-0.4l0.1-0.1c0,0,0-0.1-0.1-0.1s-0.2,0-0.3-0.1V29
			c0-0.1,0-0.2-0.1-0.2s-0.1,0.1-0.1,0.2s-0.1,0.3-0.1,0.4s-0.2,0.2-0.2,0.3C50.4,29.9,50.2,29.9,50.1,30.1
			C50.1,30,50.1,30,50.1,30.1z M49.7,30.3C49.7,30.3,49.6,30.3,49.7,30.3c-0.3,0.3-0.6,0.4-0.9,0.5c-0.3,0.1-0.6,0.2-0.8,0.4
			c-0.5,0.4-0.9,0.9-0.4,1.6c0,0,0,0,0,0.1c0.1,0.1,0.2,0.2,0.3,0.3c0.2,0.1,0.3,0.2,0.5,0.2c0.6,0.1,1,0,1.2-0.5
			c0.1-0.1,0.1-0.2,0.2-0.3h-0.1c0.1-0.2,0.2-0.5,0.3-0.7l0,0c0,0.1,0,0.2,0,0.3c0.1-0.3,0.1-0.5,0.1-0.8c-0.1,0-0.1,0-0.2,0.1V31
			H50c0-0.1,0-0.2,0-0.3c-0.1,0-0.2,0-0.3-0.1C49.8,30.5,49.7,30.4,49.7,30.3L49.7,30.3z"/>
		<path d="M51.1,1.8c0.1,0,0.2,0,0.2,0.1c0.1,0.1,0.1,0.2,0.1,0.3c0,0.1-0.1,0.2-0.2,0.2c0,0,0,0-0.1,0c-0.2,0-0.4,0.1-0.5,0.3
			c-0.2,0.2-0.3,0.4-0.5,0.6l0.1,0.1c-0.1,0.3,0,0.5,0,0.8c0,0.4-0.1,0.8-0.3,1.1c-0.1,0.2-0.2,0.3-0.3,0.5S49.3,6.1,49,6.2
			c-0.4,0.1-0.8,0-1.2-0.3c0,0-0.1,0-0.1-0.1c-0.3-0.3-0.5-0.7-0.5-1.1c0-0.1,0-0.1,0-0.1c0.2-0.4,0.3-0.7,0.7-0.9
			c0.2-0.1,0.5-0.2,0.7-0.3c0.3-0.1,0.6-0.2,0.9-0.4c0,0,0,0,0.1,0c0.2,0,0.3-0.1,0.4-0.2c0.2-0.2,0.3-0.3,0.5-0.5
			c0.1-0.1,0.2-0.2,0.2-0.4s0.1-0.3,0.2-0.3C51.1,1.6,51.1,1.7,51.1,1.8C51.1,1.7,51.1,1.7,51.1,1.8L51.1,1.8z M50.1,2.7
			C49.9,2.7,50,3,49.9,3v0.1l0,0L50,3c0.2,0,0.2-0.2,0.3-0.3V2.6c0.1,0,0.2-0.1,0.3-0.2C50.8,2.2,51,2,51.3,2l0.1-0.1
			c0,0,0-0.1-0.1-0.1s-0.2,0-0.3-0.1V1.6c0-0.1,0-0.2-0.1-0.2s-0.1,0.1-0.1,0.2S50.7,1.9,50.7,2s-0.2,0.2-0.2,0.3
			C50.4,2.6,50.2,2.6,50.1,2.7L50.1,2.7L50.1,2.7z M49.7,2.9L49.7,2.9c-0.4,0.3-0.8,0.4-1.1,0.6c-0.2,0.1-0.5,0.2-0.7,0.3
			c-0.5,0.4-0.9,0.9-0.4,1.6v0.1c0.1,0.1,0.2,0.2,0.3,0.3C48.1,5.9,48.2,6,48.4,6c0.6,0.2,1.1-0.1,1.4-0.7V5.2c-0.1-0.1,0-0.2,0-0.2
			c0-0.1,0.1-0.2,0.2-0.4c0-0.1,0-0.1,0.1-0.2l0,0c0,0.1,0,0.2,0,0.3c0.1-0.3,0.1-0.6,0.1-0.8C50.1,4,50.1,4,50,4V3.7h0.1
			c0-0.1,0-0.2,0-0.3c-0.1,0-0.2,0-0.3-0.1C49.8,3.1,49.8,3,49.7,2.9L49.7,2.9z"/>
		<path d="M22.4,30.2c0.2-0.2,0.4-0.4,0.5-0.6c0.2-0.2,0.3-0.3,0.3-0.6c0-0.2,0.1-0.2,0.2-0.2c0.2,0,0.2,0,0.3,0.2c0,0,0,0.1,0,0.2
			c0.1,0,0.2,0,0.2,0.1c0.1,0,0.2,0.2,0.1,0.3c0,0.1-0.1,0.2-0.2,0.2c-0.3,0-0.5,0.2-0.7,0.4c-0.1,0.1-0.2,0.3-0.4,0.4l0.1,0.1
			c-0.1,0.3,0,0.6,0,1c0,0.2,0,0.5-0.2,0.7c-0.2,0.3-0.3,0.5-0.5,0.8s-0.4,0.4-0.8,0.4s-0.8,0-1.1-0.3c-0.1-0.1-0.3-0.2-0.4-0.4
			s-0.3-0.5-0.3-0.8c0,0,0-0.1,0-0.2c0.2-0.4,0.4-0.7,0.8-0.9c0.2-0.1,0.4-0.2,0.7-0.3c0.3-0.1,0.7-0.2,0.9-0.5
			C22.3,30.2,22.4,30.2,22.4,30.2z M22.7,30.1c-0.2,0-0.1,0.3-0.2,0.3v0.1l0,0l0.1-0.1c0.2,0,0.2-0.2,0.3-0.3V30
			c0.1,0,0.2-0.1,0.3-0.2c0.2-0.2,0.4-0.4,0.7-0.4l0.1-0.1c0,0,0-0.1-0.1-0.1s-0.2,0-0.3-0.1V29c0-0.1,0-0.2-0.1-0.2
			s-0.1,0.1-0.1,0.2c0,0.2,0,0.3-0.1,0.4s-0.2,0.2-0.2,0.3C23,30,22.8,29.9,22.7,30.1C22.8,30,22.8,30,22.7,30.1L22.7,30.1z
			 M22.4,30.3C22.4,30.3,22.3,30.3,22.4,30.3c-0.4,0.3-0.8,0.4-1.2,0.6C21,31,20.8,31,20.6,31.2c-0.5,0.4-0.9,0.9-0.4,1.6v0.1
			c0.1,0.1,0.1,0.2,0.3,0.3c0.3,0.2,0.6,0.3,1,0.3c0.2,0,0.5-0.1,0.6-0.3s0.2-0.3,0.3-0.6c0.1-0.2,0.2-0.4,0.3-0.7v0.3
			c0.1-0.3,0.1-0.5,0.1-0.8c-0.1,0-0.1,0-0.1,0C22.6,31,22.6,31,22.8,31c0-0.1,0-0.2,0-0.3c-0.1,0-0.2,0-0.3-0.1
			C22.4,30.5,22.4,30.4,22.4,30.3L22.4,30.3z"/>
		<path d="M8.9,49.4c-0.1,0-0.1,0.1-0.2,0.1c-0.1,0-0.2,0-0.4,0.1c-0.5,0.2-1.1,0.2-1.6-0.1c-0.1-0.1-0.2-0.1-0.3-0.2
			c-0.6-0.2-0.8-0.7-0.7-1.2c0-0.2,0.1-0.4,0.1-0.5c0.1-0.2,0.2-0.4,0.4-0.5c0.1-0.1,0.2-0.2,0.4-0.3c0.2-0.1,0.4-0.1,0.7-0.1
			c0.5,0.1,0.9,0.4,1.2,0.9c0.1,0.3,0.3,0.5,0.5,0.8c0.1,0.1,0.1,0.2,0.2,0.2c0.1,0.1,0.2,0.1,0.2,0.2l0.1,0.1
			c0.2,0.2,0.5,0.3,0.7,0.4c0.1,0.1,0.3,0.1,0.4,0.1c0.2,0,0.3,0,0.4,0.2c0,0.1,0,0.2-0.2,0.3h-0.1c0,0.1,0,0.1,0,0.2
			c0,0.1-0.1,0.2-0.2,0.2c-0.1,0-0.2,0-0.3-0.2l0,0c0-0.3-0.3-0.5-0.6-0.6C9.1,49.6,9,49.5,8.9,49.4L8.9,49.4z M8.8,49
			c0.1,0.2,0.3,0.4,0.5,0.4h0.1c0,0.1,0.1,0.1,0.1,0.2c0.2,0.1,0.4,0.3,0.5,0.6l0.1,0.1c0.1,0,0.1-0.1,0.1-0.1c0-0.1,0-0.2,0-0.2
			c0.1,0,0.1,0,0.2,0l0.1-0.1c0-0.1-0.1-0.1-0.1-0.1c-0.2,0.1-0.4,0-0.6-0.2c-0.1,0-0.1-0.1-0.2-0.1c-0.1,0-0.1-0.1-0.2-0.2
			C9.3,49.2,9.2,49,9,49.1C9,49,8.9,49,8.8,49c0,0,0.1-0.1,0.2-0.1c-0.1-0.2-0.3-0.3-0.4-0.4c-0.2-0.2-0.3-0.5-0.5-0.7
			C7.8,47.4,7.5,47.1,7,47c-0.2,0-0.3,0-0.5,0.1S6.2,47.3,6,47.4c0-0.1,0,0-0.1,0.1c-0.1,0.3-0.2,0.7-0.1,1S6,49,6.3,49.2
			c0.2,0.1,0.3,0.2,0.6,0.2c0.2,0,0.5,0.1,0.7,0.2c-0.1,0-0.1,0-0.2,0.1c0.5,0,0.9-0.1,1.4-0.2C8.7,49.3,8.6,49.1,8.8,49z"/>
		<path d="M37.7,50c0,0.1,0,0.2,0,0.2c0,0.1-0.1,0.2-0.2,0.2s-0.2,0-0.3-0.2l0,0c0-0.3-0.3-0.5-0.5-0.6s-0.3-0.2-0.5-0.3
			c-0.1,0-0.1,0.1-0.2,0.1c-0.1,0-0.2,0-0.4,0.1c-0.6,0.2-1.1,0.2-1.6-0.1c-0.1,0-0.2-0.1-0.3-0.1c-0.6-0.2-0.8-0.7-0.7-1.2
			c0-0.2,0.1-0.4,0.1-0.6c0-0.2,0.2-0.4,0.3-0.5s0.2-0.2,0.4-0.3s0.4-0.1,0.7-0.1c0.5,0.1,0.9,0.4,1.2,0.9c0.2,0.3,0.3,0.5,0.5,0.8
			c0,0.1,0.1,0.2,0.2,0.2c0.1,0.1,0.2,0.1,0.2,0.2l0.1,0.1c0.2,0.2,0.5,0.3,0.7,0.4c0.1,0.1,0.3,0.1,0.4,0.1c0.2,0,0.3,0,0.4,0.2
			C38.1,49.8,38,50,37.7,50C37.8,50,37.8,50,37.7,50L37.7,50z M36.1,49c0,0.1,0.1,0.2,0.3,0.3c0.1,0,0.2,0.1,0.3,0.1
			s0.1,0.2,0.2,0.2c0.2,0.1,0.4,0.3,0.5,0.6l0.1,0.1l0.1-0.1c0-0.1,0-0.2,0-0.2c0.1,0,0.2,0,0.2,0l0.1-0.1c0-0.1-0.1-0.1-0.2-0.1
			c-0.2,0.1-0.4,0-0.6-0.1c-0.1,0-0.1-0.1-0.3-0.1c0,0-0.1-0.1-0.2-0.2c-0.1-0.1-0.2-0.2-0.3-0.1C36.3,49.1,36.2,49.1,36.1,49
			c0.1,0,0.2-0.1,0.3-0.1c-0.2-0.2-0.3-0.3-0.4-0.4c-0.2-0.2-0.3-0.5-0.5-0.7c-0.3-0.4-0.6-0.7-1.1-0.8c-0.2,0-0.3,0-0.5,0.1
			s-0.3,0.2-0.5,0.3c-0.1,0.1-0.2,0.2-0.2,0.3c-0.1,0.3-0.2,0.6-0.1,1c0,0.3,0.2,0.6,0.5,0.7c0.2,0.1,0.3,0.2,0.5,0.1
			c0.2,0,0.5,0.1,0.7,0.2c-0.1,0-0.1,0-0.2,0.1c0.2,0,0.5,0,0.7,0s0.4-0.1,0.7-0.2C36,49.3,35.9,49.1,36.1,49L36.1,49z"/>
		<path d="M10.4,22.7c0,0.1,0,0.1,0,0.2s-0.1,0.2-0.2,0.2c-0.1,0-0.2-0.1-0.3-0.2c-0.1-0.4-0.4-0.5-0.6-0.7
			c-0.1-0.1-0.2-0.1-0.4-0.2c-0.1,0-0.1,0.1-0.1,0.1c-0.2,0-0.3,0-0.5,0.1c-0.5,0.1-1,0.1-1.5-0.1C6.7,22,6.6,22,6.4,21.9
			c-0.6-0.2-0.8-0.7-0.8-1.2c0-0.2,0.1-0.4,0.1-0.6s0.2-0.4,0.3-0.5c0.1-0.1,0.2-0.2,0.4-0.3c0.2-0.1,0.4-0.1,0.7-0.1
			c0.5,0.1,0.9,0.4,1.2,0.9c0.1,0.2,0.3,0.5,0.4,0.8c0.1,0.1,0.2,0.2,0.2,0.3L9,21.3c0,0.2,0.1,0.2,0.3,0.3c0.2,0.1,0.4,0.2,0.6,0.4
			c0.1,0.1,0.3,0.1,0.4,0.1c0.2,0,0.3,0,0.4,0.2c0,0.1,0,0.2-0.2,0.3C10.4,22.7,10.4,22.7,10.4,22.7L10.4,22.7z M8.8,21.7
			c0.1,0.2,0.3,0.4,0.5,0.4h0.1c0,0.1,0.1,0.1,0.1,0.2c0.2,0.1,0.4,0.3,0.5,0.6l0.1,0.1c0.1,0,0.1-0.1,0.1-0.1c0-0.1,0-0.2,0-0.2
			c0.1,0,0.1,0,0.2,0l0.1-0.1c0-0.1-0.1-0.1-0.1-0.1c-0.2,0.1-0.4,0-0.6-0.1c-0.1,0-0.1-0.1-0.2-0.1c-0.1,0-0.1,0-0.1-0.1l-0.1-0.1
			C9.3,22,9.2,21.9,9.1,22C8.9,21.7,8.8,21.7,8.8,21.7c0.1,0,0.2-0.1,0.3-0.2c-0.1-0.1-0.3-0.3-0.4-0.4c-0.2-0.2-0.3-0.5-0.5-0.7
			c-0.3-0.4-0.6-0.7-1.1-0.8c-0.1,0-0.3,0-0.4,0c-0.5,0.2-0.9,0.5-0.9,1.1c0,0.1,0,0.2,0,0.3c0,0.5,0.4,1,0.9,1.1h0.1
			c0.1-0.1,0.2,0,0.2,0c0.1,0,0.2,0,0.3,0.1c0,0,0.1,0,0.2,0.1c-0.1,0-0.1,0-0.1,0.1c0.5,0,0.9-0.1,1.4-0.2
			C8.6,21.9,8.6,21.8,8.8,21.7L8.8,21.7z"/>
		<path d="M37.7,22.7c0,0.1,0,0.1,0,0.2s-0.1,0.2-0.2,0.2c-0.1,0-0.2-0.1-0.3-0.2c-0.1-0.4-0.3-0.5-0.6-0.7
			c-0.1-0.1-0.2-0.1-0.4-0.2c0,0-0.1,0.1-0.2,0.1c-0.2,0-0.3,0-0.5,0.1c-0.5,0.1-1,0.2-1.5-0.1c-0.1,0-0.2-0.1-0.3-0.1
			c-0.6-0.2-0.8-0.7-0.8-1.2c0-0.2,0.1-0.4,0.1-0.6s0.2-0.4,0.3-0.5s0.2-0.2,0.4-0.3c0.2-0.1,0.4-0.1,0.7-0.1
			c0.5,0.1,0.9,0.4,1.2,0.9c0.2,0.2,0.3,0.5,0.4,0.8c0.1,0.1,0.2,0.2,0.2,0.3l0.1,0.1c0,0.2,0.2,0.2,0.3,0.3
			c0.2,0.1,0.4,0.2,0.6,0.4c0.1,0.1,0.3,0.1,0.4,0.1c0.2,0,0.3,0,0.3,0.2C37.9,22.5,37.9,22.6,37.7,22.7
			C37.8,22.7,37.7,22.7,37.7,22.7z M36.1,21.7c0.1,0.2,0.3,0.4,0.5,0.4h0.1c0,0.1,0.1,0.1,0.2,0.2c0.2,0.1,0.4,0.3,0.5,0.6l0.1,0.1
			c0.1,0,0.1-0.1,0.1-0.1c0-0.1,0-0.2,0-0.2c0.1,0,0.2,0,0.2,0l0.1-0.1c0-0.1-0.1-0.1-0.1-0.1c-0.2,0.1-0.4,0-0.6-0.1
			c0,0-0.1-0.1-0.2-0.1c-0.1,0-0.1,0-0.2-0.1c0,0,0-0.1-0.1-0.1c-0.1-0.1-0.2-0.2-0.3-0.1C36.3,21.7,36.2,21.7,36.1,21.7
			c0.1,0,0.2-0.1,0.3-0.2c-0.2-0.1-0.3-0.3-0.4-0.4c-0.2-0.2-0.3-0.5-0.5-0.7c-0.3-0.4-0.6-0.7-1.1-0.8c-0.1,0-0.3,0-0.4,0
			c-0.5,0.2-0.9,0.5-0.9,1.1c0,0.1,0,0.2,0,0.3c0,0.5,0.4,1,0.9,1.1h0.1c0.1-0.1,0.2,0,0.2,0c0.1,0,0.2,0,0.3,0.1c0,0,0.1,0,0.1,0.1
			l-0.1,0.1c0.5,0,0.9-0.1,1.3-0.2C36,21.9,35.9,21.8,36.1,21.7L36.1,21.7z"/>
		<path d="M52.3,39.5c0.1,0.2,0.2,0.5,0.3,0.8c0.1,0.2,0.3,0.4,0.5,0.6C52.7,40.8,52.3,40.2,52.3,39.5z"/>
		<path d="M53.1,13.5c-0.4-0.1-0.8-0.7-0.9-1.3c0.1,0.1,0.1,0.2,0.1,0.2c0.1,0.4,0.3,0.7,0.6,1C53.1,13.4,53.1,13.4,53.1,13.5z"/>
		<path d="M35.8,53.4c0.4-0.3,1.2-0.3,1.6,0.1c-0.3-0.1-0.6-0.2-0.8-0.2S36.1,53.4,35.8,53.4L35.8,53.4z"/>
		<path d="M8.5,53.4c0.4-0.3,1.1-0.3,1.6,0.1c-0.1,0-0.3,0-0.4-0.1c-0.3-0.1-0.7-0.2-1,0C8.7,53.4,8.6,53.4,8.5,53.4
			C8.6,53.4,8.6,53.4,8.5,53.4z"/>
		<path d="M31.7,0.9c0.1-0.2,0.1-0.4,0.2-0.5l0,0c0,0.1,0,0.2,0,0.3l0,0c0-0.1,0-0.1,0.1-0.2c0,0,0,0,0.1,0.1
			c-0.1,0.1,0,0.2-0.2,0.2C31.8,0.7,31.8,0.8,31.7,0.9L31.7,0.9L31.7,0.9z"/>
		<path d="M4.6,0.3c0,0.1,0,0.2-0.1,0.3c0.1-0.1,0.1-0.1,0.2-0.2c0,0.1,0,0.3-0.2,0.2c0,0-0.1,0.1-0.2,0.1C4.4,0.7,4.5,0.5,4.6,0.3
			L4.6,0.3L4.6,0.3z"/>
		<path d="M50.1,30.1c0,0,0.1,0,0.2,0v0.1c-0.1,0.1-0.1,0.3-0.3,0.3c0,0-0.1,0-0.1,0.1l0,0v-0.1C50,30.4,49.9,30.1,50.1,30.1
			L50.1,30.1z"/>
		<path d="M8.2,26.1C7.5,26.3,7,26.7,6.4,27c-0.4,0.2-0.8,0.4-1.1,0.6c-0.2,0.1-0.3,0.2-0.5,0.3c0.1-0.1,0.1-0.1,0.1-0.2
			c0.1-0.1,0.2-0.1,0.3-0.2c0.8-0.4,1.5-0.8,2.3-1.2C7.7,26.2,8,26.1,8.2,26.1L8.2,26.1z"/>
		<path d="M10.1,26.2C9.8,26.1,9.6,26,9.3,26c-0.2,0-0.5,0-0.8,0.1C8.6,26,8.7,26,8.8,26C9.2,25.8,9.7,25.9,10.1,26.2
			C10.1,26.1,10.1,26.1,10.1,26.2z"/>
		<path d="M4.3,28.2c0.1-0.2,0.1-0.4,0.2-0.6l0,0c0,0.1,0,0.2-0.1,0.4c0.1-0.1,0.1-0.1,0.2-0.2C4.7,27.9,4.6,28,4.3,28.2L4.3,28.2z"
			/>
		<path d="M35.6,26.1c-0.9,0.3-1.6,0.9-2.5,1.3c-0.3,0.1-0.6,0.3-1,0.5c0-0.1,0.1-0.1,0.1-0.1c0.1-0.1,0.2-0.1,0.3-0.2
			c0.8-0.4,1.5-0.8,2.3-1.2C35,26.2,35.3,26.2,35.6,26.1L35.6,26.1z"/>
		<path d="M37.5,26.2c-0.3-0.1-0.6-0.2-0.8-0.2c-0.3,0-0.5,0-0.8,0.1C36.3,25.8,37.1,25.8,37.5,26.2L37.5,26.2z"/>
		<path d="M31.9,28c0.1-0.1,0.1-0.1,0.1-0.2C32,27.9,32.1,28.1,31.9,28c-0.1,0.1-0.1,0.1-0.2,0.2c0.1-0.2,0.1-0.4,0.2-0.5l0,0
			C31.9,27.8,31.9,27.8,31.9,28L31.9,28z"/>
		<path d="M29.4,15.5c-0.1-0.1-0.3-0.1-0.5-0.2c-0.8-0.4-1.6-0.8-2.4-1.2c-0.2-0.1-0.4-0.3-0.6-0.5H26c0.4,0.3,0.8,0.5,1.3,0.7
			c0.5,0.3,1,0.5,1.5,0.8C29.1,15.3,29.3,15.4,29.4,15.5L29.4,15.5L29.4,15.5z"/>
		<path d="M25,12.2c0.1,0.2,0.2,0.5,0.3,0.8c0.1,0.2,0.3,0.4,0.5,0.6C25.4,13.4,25,12.8,25,12.2z"/>
		<path d="M29.4,42.9c-0.1,0-0.3-0.1-0.5-0.2c-0.8-0.5-1.6-0.8-2.4-1.2c-0.2-0.1-0.4-0.3-0.6-0.5H26c0.4,0.3,0.8,0.5,1.3,0.7
			c0.5,0.3,1,0.5,1.5,0.8C29.1,42.7,29.3,42.7,29.4,42.9C29.4,42.8,29.4,42.8,29.4,42.9L29.4,42.9z"/>
		<path d="M25,39.5c0.1,0.2,0.2,0.5,0.3,0.8c0.1,0.2,0.3,0.4,0.5,0.6C25.4,40.8,25,40.2,25,39.5z"/>
		<path d="M15.1,46.3c0.1-0.1,0.3-0.1,0.4-0.2c0.3-0.2,0.6-0.4,0.9-0.6c0.5-0.3,1-0.7,1.5-1c0.1-0.1,0.3-0.2,0.4-0.2
			c0,0.1-0.1,0.2-0.3,0.3c-0.2,0.1-0.4,0.2-0.5,0.3c-0.6,0.4-1.1,0.8-1.7,1.2C15.6,46.2,15.4,46.3,15.1,46.3
			C15.2,46.4,15.1,46.3,15.1,46.3z"/>
		<path d="M14.9,46.4c-0.3,0.4-1,0.4-1.6,0.1c0.1,0,0.2,0,0.3,0c0.4,0.1,0.8,0.1,1.1-0.1C14.8,46.4,14.8,46.4,14.9,46.4L14.9,46.4
			L14.9,46.4z"/>
		<path d="M18.3,16.9c0,0.2-0.2,0.3-0.3,0.3c-0.8,0.5-1.5,1-2.2,1.5c-0.2,0.1-0.4,0.3-0.7,0.3h0.1c0.5-0.2,0.9-0.6,1.4-0.9
			c0.4-0.3,0.9-0.6,1.3-0.9C18.1,17.1,18.2,17,18.3,16.9L18.3,16.9z"/>
		<path d="M13.3,19.2c0.1,0,0.2,0,0.3,0c0.4,0.1,0.8,0.1,1.2-0.1h0.1l0,0C14.6,19.5,13.8,19.5,13.3,19.2L13.3,19.2z"/>
		<path d="M45.7,44.2c-0.1,0.1-0.2,0.2-0.3,0.3c-0.8,0.5-1.5,1-2.2,1.5c-0.2,0.2-0.5,0.2-0.7,0.3c0,0,0-0.1,0.1-0.1
			c0.4-0.1,0.7-0.4,1-0.6c0.6-0.4,1.2-0.8,1.8-1.2C45.4,44.4,45.6,44.3,45.7,44.2L45.7,44.2z"/>
		<path d="M40.7,46.5c0.1,0,0.2,0,0.3,0c0.4,0.1,0.8,0.1,1.1-0.1c0,0,0.1,0,0.2,0C41.9,46.8,41.2,46.8,40.7,46.5z"/>
		<path d="M42.5,19L42.5,19c0.6-0.3,1.1-0.8,1.7-1.1c0.4-0.2,0.7-0.5,1.1-0.7c0.1-0.1,0.3-0.2,0.5-0.3c-0.1,0.2-0.2,0.3-0.3,0.4
			c-0.2,0.2-0.5,0.3-0.8,0.5c-0.5,0.3-0.9,0.7-1.4,1c-0.1,0.1-0.2,0.1-0.3,0.2C42.8,18.9,42.7,19,42.5,19L42.5,19L42.5,19z"/>
		<path d="M42.2,19.1c-0.5,0.4-1,0.4-1.6,0.1c0.1,0,0.2,0,0.3,0C41.3,19.3,41.7,19.3,42.2,19.1C42.1,19.1,42.2,19.1,42.2,19.1z"/>
		<path d="M11.6,34.8c-0.2,0.2-0.3,0.4-0.3,0.7c-0.1-0.2-0.1-0.3-0.1-0.4C11.3,34.9,11.3,34.8,11.6,34.8L11.6,34.8z"/>
		<path d="M11.5,7.4c-0.2,0.2-0.2,0.4-0.2,0.7c-0.1-0.2-0.1-0.3-0.1-0.4C11.3,7.5,11.4,7.4,11.5,7.4z"/>
		<path d="M21,4.3c0,0.1,0,0.2-0.1,0.2c0,0.2-0.1,0.3-0.1,0.5c0,0.1,0,0.2-0.1,0.1c-0.1,0-0.1-0.1-0.2-0.1c-0.1-0.2-0.1-0.4,0-0.6
			c0-0.1,0.1-0.2,0.2-0.3C20.7,4,20.8,4,20.9,4C20.9,4.2,20.9,4.3,21,4.3z M20.9,4.2c-0.2,0.1-0.2,0.2-0.3,0.3c0,0.2-0.1,0.3,0,0.5
			C20.7,4.8,20.8,4.5,20.9,4.2L20.9,4.2z"/>
		<path d="M21.6,5.4c0.1-0.1,0.2-0.2,0.3-0.3c0.1,0,0.2-0.1,0.3-0.3C22.2,5.2,21.9,5.4,21.6,5.4z"/>
		<path d="M48.3,31.7c0,0.1-0.1,0.2-0.1,0.3s-0.1,0.3-0.1,0.4c0,0.1,0,0.2-0.1,0.2s-0.1-0.1-0.2-0.1c-0.1-0.2,0-0.4,0-0.6
			c0-0.1,0.1-0.2,0.1-0.3c0.1-0.1,0.2-0.1,0.2-0.1C48.3,31.5,48.3,31.6,48.3,31.7L48.3,31.7z M48.2,31.5c-0.2,0.1-0.2,0.2-0.3,0.3
			c0,0.2-0.1,0.3,0.1,0.5C48,32.1,48.2,31.9,48.2,31.5L48.2,31.5z"/>
		<path d="M49.5,32.2c0,0.4-0.2,0.6-0.5,0.6c0.1-0.1,0.2-0.2,0.3-0.3S49.5,32.3,49.5,32.2z"/>
		<path d="M47.8,4.9c0-0.2,0.1-0.4,0.2-0.6c0.1-0.1,0.1-0.1,0.2-0.1c0.1,0,0.1,0.1,0.1,0.2s0,0.2-0.1,0.2c0,0.1-0.1,0.3-0.1,0.4
			s0,0.2-0.1,0.2s-0.2-0.1-0.2-0.1L47.8,4.9L47.8,4.9z M48.2,4.3C48.2,4.3,48.1,4.2,48.2,4.3c-0.2,0-0.2,0.2-0.3,0.3
			c0,0.2-0.1,0.3,0,0.4C48,4.8,48.1,4.5,48.2,4.3z"/>
		<path d="M49.5,4.9c0,0.4-0.2,0.6-0.5,0.6c0.1-0.1,0.2-0.2,0.3-0.3C49.4,5.1,49.5,5,49.5,4.9z"/>
		<path d="M20.4,32.1c0.1-0.2,0.1-0.3,0.2-0.5c0-0.1,0.1-0.2,0.2-0.1c0.1,0,0.1,0.1,0.1,0.2s0,0.1-0.1,0.2c0,0.1-0.1,0.3-0.1,0.4
			s0,0.1-0.1,0.2c-0.1,0-0.1,0-0.2-0.1C20.4,32.3,20.4,32.2,20.4,32.1L20.4,32.1z M20.6,32.4c0-0.3,0.2-0.5,0.2-0.9
			c-0.2,0.1-0.2,0.2-0.3,0.4C20.5,32.1,20.5,32.2,20.6,32.4z"/>
		<path d="M21.7,32.8c0.2-0.2,0.4-0.4,0.5-0.6C22.2,32.5,22,32.8,21.7,32.8z"/>
		<path d="M6.9,47.2c0.2,0,0.3,0.1,0.5,0.2c0.1,0,0.2,0.1,0.1,0.2c0,0.1-0.1,0.1-0.2,0.1H7.2c-0.2,0-0.4,0-0.6-0.1
			c-0.1,0-0.1,0-0.1-0.1c0,0,0-0.1,0.1-0.2C6.7,47.3,6.8,47.3,6.9,47.2L6.9,47.2z M6.6,47.5c0.3,0,0.5,0.1,0.7,0.1
			c0,0,0.1,0,0.1-0.1l-0.1-0.1C7.1,47.3,6.9,47.3,6.6,47.5C6.7,47.4,6.7,47.5,6.6,47.5z"/>
		<path d="M7.1,49c-0.4,0-0.6-0.1-0.7-0.5c0.1,0.1,0.2,0.2,0.3,0.3S7,49,7.1,49z"/>
		<path d="M34.7,47.7c-0.2,0-0.5,0-0.7-0.1c-0.1,0-0.1-0.1-0.1-0.2c0,0,0,0,0.1-0.1c0.2-0.1,0.7-0.1,0.9,0.1c0,0,0.1,0.2,0,0.2
			C34.8,47.7,34.8,47.7,34.7,47.7L34.7,47.7L34.7,47.7z M33.9,47.5c0.3,0,0.5,0.1,0.7,0.1l0,0c0,0,0.1,0,0.1-0.1s0-0.1,0-0.1
			C34.5,47.4,34.2,47.3,33.9,47.5z"/>
		<path d="M33.8,48.6c0.1,0.1,0.2,0.2,0.3,0.3s0.2,0.1,0.4,0.2C34.1,49.1,33.8,48.9,33.8,48.6z"/>
		<path d="M6.9,19.9c0.2,0,0.3,0.1,0.5,0.1c0.1,0,0.2,0.1,0.1,0.2c0,0.1-0.1,0.1-0.2,0.1H7.2c-0.2,0-0.4,0-0.6-0.1
			c-0.1,0-0.1,0-0.2-0.1c0-0.1,0-0.1,0.1-0.2C6.7,20,6.8,20,6.9,19.9L6.9,19.9z M6.6,20.2c0.3,0,0.5,0.1,0.7,0.1c0,0,0.1,0,0.1-0.1
			l-0.1-0.1C7.2,20,7,20,6.7,20.1C6.7,20.1,6.7,20.1,6.6,20.2L6.6,20.2z"/>
		<path d="M7.1,21.7c-0.4,0-0.6-0.1-0.7-0.5c0.1,0.1,0.2,0.2,0.3,0.3S7,21.6,7.1,21.7L7.1,21.7z"/>
		<path d="M34.3,19.9c0.2,0,0.3,0.1,0.5,0.1c0.1,0,0.2,0.1,0.2,0.2s-0.1,0.1-0.3,0.1c-0.1,0-0.2,0-0.3,0s-0.2,0-0.4,0
			c0,0-0.1,0-0.2-0.1c0-0.1,0-0.1,0.1-0.2C34,20,34.1,19.9,34.3,19.9L34.3,19.9z M33.9,20.1c0.3,0,0.5,0.1,0.7,0.1l0,0
			c0,0,0.1,0,0.1-0.1c0,0,0-0.1-0.1-0.1C34.5,20,34.2,20,33.9,20.1L33.9,20.1z"/>
		<path d="M34.4,21.7c-0.4,0-0.6-0.1-0.7-0.5c0.1,0.1,0.2,0.2,0.3,0.3C34.2,21.6,34.3,21.6,34.4,21.7z"/>
	</g>
</g>
</svg>
