<svg xmlns="http://www.w3.org/2000/svg" viewBox="0 0 240.99 122.22">
  <defs>
    <style>
      .cls-1 {
        fill: #fff;
      }

      .cls-2 {
        fill: #ffda13;
      }

      .cls-3 {
        fill: #d41116;
      }

      .cls-4 {
        fill: #202020;
      }
    </style>
  </defs>
  <g id="Capa_2" data-name="Capa 2">
    <g id="Capa_1-2" data-name="Capa 1">
      <g>
        <path class="cls-1" d="M10.62,23.81H1.71V1.53h9a11.26,11.26,0,0,1,8.15,3.21,10.62,10.62,0,0,1,3.31,7.93,10.64,10.64,0,0,1-3.29,7.94A11.38,11.38,0,0,1,10.62,23.81Zm.13-2.35A8.85,8.85,0,0,0,17,19,8.24,8.24,0,0,0,19.6,12.7a8.23,8.23,0,0,0-2.66-6.4,9,9,0,0,0-6.28-2.42H4.26V21.46Z"/>
        <path class="cls-1" d="M27.69,3.77a1.43,1.43,0,0,1-1.22-.53,1.89,1.89,0,0,1-.41-1.16A1.8,1.8,0,0,1,26.5.88,1.49,1.49,0,0,1,27.69.37a1.47,1.47,0,0,1,1.18.51,1.8,1.8,0,0,1,.44,1.2,1.89,1.89,0,0,1-.41,1.16A1.41,1.41,0,0,1,27.69,3.77Zm1.24,20H26.48V7.07h2.45Z"/>
        <path class="cls-1" d="M39.18,23.83a9.42,9.42,0,0,1-6.43-2.35l1-1.79a8.51,8.51,0,0,0,5.57,2.1,5,5,0,0,0,2.44-.56,2.33,2.33,0,0,0,1.16-1.85c0-1.41-1.33-2.42-4-3.05a12.61,12.61,0,0,1-3.61-1.48,3.76,3.76,0,0,1-1.67-3.3A4,4,0,0,1,34.42,9,4.85,4.85,0,0,1,36.6,7.5a8.7,8.7,0,0,1,2.83-.45,9.5,9.5,0,0,1,5.35,1.53l-1,1.9a8.68,8.68,0,0,0-4.56-1.33c-2.2,0-3.31.75-3.31,2.23a2,2,0,0,0,.92,1.67,8.46,8.46,0,0,0,3,1.13,17.86,17.86,0,0,1,2,.66,16,16,0,0,1,1.67.82,3.84,3.84,0,0,1,1.84,3.49,4.06,4.06,0,0,1-.84,2.67,5.27,5.27,0,0,1-2.33,1.54A9.33,9.33,0,0,1,39.18,23.83Z"/>
        <path class="cls-1" d="M52.36,23.81H49.91V9.52H47.74V7.58h2.17v-2a5.82,5.82,0,0,1,.76-3.14,5.09,5.09,0,0,1,2-1.85A5.9,5.9,0,0,1,55.29,0a5.79,5.79,0,0,1,2.83.73L57.51,2.8a4.12,4.12,0,0,0-2.19-.6,3.16,3.16,0,0,0-2.09.74,2.94,2.94,0,0,0-.87,2.35V7.58h4.8V9.52h-4.8Z"/>
        <path class="cls-1" d="M62.45,23.81H60V7.07h2.48v3.72a6.09,6.09,0,0,1,6-3.72V9.39a5.79,5.79,0,0,0-4.41,1.53,6.1,6.1,0,0,0-1.61,4Z"/>
        <path class="cls-1" d="M77.51,23.83A6.67,6.67,0,0,1,73.92,23a5.4,5.4,0,0,1-2.06-2.42,8.13,8.13,0,0,1-.63-3.21V7.07h2.49v9.62A4.62,4.62,0,0,0,75,20.22a4.68,4.68,0,0,0,3.35,1.22,5.56,5.56,0,0,0,4.21-2,6.86,6.86,0,0,0,1.3-4.22V7.07h2.48V23.83H83.87V20A6.42,6.42,0,0,1,77.51,23.83Z"/>
        <path class="cls-1" d="M97.27,23.83a4.44,4.44,0,0,1-3-1.08A4.66,4.66,0,0,1,93,19.09V9.44H90.59V7.5H93V3.1h2.45V7.5h5.32V9.44H95.46v9.23c0,1.91.71,2.87,2.13,2.87a5.67,5.67,0,0,0,2.77-.86l.7,1.91A6.48,6.48,0,0,1,97.27,23.83Z"/>
        <path class="cls-1" d="M109.08,23.83a6.45,6.45,0,0,1-3.2-.71A4.55,4.55,0,0,1,104,21.25a5.22,5.22,0,0,1-.62-2.52,4.31,4.31,0,0,1,1.51-3.36Q106.4,14,109.66,14h5.5V13a3.8,3.8,0,0,0-1.06-2.79,4.65,4.65,0,0,0-3.42-1.08,8.57,8.57,0,0,0-5.32,1.93l-1-1.67a11.55,11.55,0,0,1,6.84-2.33q3.41,0,4.94,1.59a5.71,5.71,0,0,1,1.53,4.15l0,11h-2.42V21.12A7.35,7.35,0,0,1,109.08,23.83Zm.48-2.07a6.61,6.61,0,0,0,3.49-.91A5,5,0,0,0,115.2,18v-2H110c-2.8,0-4.22.92-4.26,2.74a2.86,2.86,0,0,0,1,2.18A4.06,4.06,0,0,0,109.56,21.76Z"/>
        <path class="cls-1" d="M139.14,23.83a7.86,7.86,0,0,1-5.83-2.28,8.33,8.33,0,0,1-2.26-6.14,8.15,8.15,0,0,1,2.29-6.11,7.89,7.89,0,0,1,5.76-2.25,6.89,6.89,0,0,1,6.56,3.88V.37h2.48V23.83h-2.48V20.15A7,7,0,0,1,139.14,23.83Zm.47-2.13A5.82,5.82,0,0,0,144,19.94a6.14,6.14,0,0,0,1.7-4.47A6.35,6.35,0,0,0,144,11.05a6.26,6.26,0,0,0-8.86,0,6.42,6.42,0,0,0-1.63,4.41,6.35,6.35,0,0,0,1.63,4.43A5.68,5.68,0,0,0,139.61,21.7Z"/>
        <path class="cls-1" d="M161,23.83a9,9,0,0,1-4.19-1,7.37,7.37,0,0,1-3-2.84,8.72,8.72,0,0,1-1.13-4.6,8.84,8.84,0,0,1,1.09-4.61,7.32,7.32,0,0,1,3-2.81A9.22,9.22,0,0,1,161,7.07a8.28,8.28,0,0,1,4.48,1.09A6.65,6.65,0,0,1,168,11.27a11.19,11.19,0,0,1,.8,4.29l0,.72H155.12a6.76,6.76,0,0,0,1.87,4,5.71,5.71,0,0,0,4.21,1.51,6.88,6.88,0,0,0,5.19-2.13l1.37,1.43A8.76,8.76,0,0,1,161,23.83Zm5.57-9.52a6,6,0,0,0-1.53-3.76A5.33,5.33,0,0,0,161,9.1a5.56,5.56,0,0,0-4.09,1.44,6.38,6.38,0,0,0-1.76,3.77Z"/>
      </g>
      <g>
        <path class="cls-2" d="M4.58,56.63a3.14,3.14,0,0,1-2.79-3.9,10.87,10.87,0,0,1,.72-2.29c.45-1,1-2.23,1.45-3.29.11-.28.89-.5,1.23-.44a1.6,1.6,0,0,1,1.23,1.44,7.27,7.27,0,0,1-.23,1.9,3.18,3.18,0,0,1-.39,1l-.67,1.9a1.43,1.43,0,0,0,1.45,1.84A3.24,3.24,0,0,0,8.2,54.4a6.12,6.12,0,0,0,2.9-3.23,4.32,4.32,0,0,0,.45-2.62,1.2,1.2,0,0,0-.23-.62c-.22-.33-.67-.44-.84-.16a12.52,12.52,0,0,0-.94,1.39C9,50,8.42,50.83,7.92,51.72A1,1,0,0,1,7,52c-.22-.12-.39-.28-.33-.5a4.5,4.5,0,0,1,.39-1C7.7,49.33,8.37,48.15,9.09,47a10.15,10.15,0,0,0,1.73-4.35,6.24,6.24,0,0,1,1.73-3.28,10.47,10.47,0,0,1,2.56-2.18.82.82,0,0,1,1.12.34.65.65,0,0,1,.06.33A5.94,5.94,0,0,1,15,39.4a5.71,5.71,0,0,0-.89,1.84,2.77,2.77,0,0,0-.06,1.34l.67,2.29a11.52,11.52,0,0,0,.45,1.28,7.18,7.18,0,0,1-.06,4.35,7.39,7.39,0,0,1-1.06,2.12,9.85,9.85,0,0,1-5.74,3.9,12.22,12.22,0,0,1-2.23.28A11,11,0,0,1,4.58,56.63Z"/>
        <path class="cls-2" d="M17.06,54.34c-.11-.67-.17-1.33-.22-1.72A13.26,13.26,0,0,1,17.45,49,23.36,23.36,0,0,1,22,40.68a16,16,0,0,1,3.57-3.12,8,8,0,0,1,1.89-.72,3.19,3.19,0,0,1,2.9.55,4,4,0,0,0,.5.45.7.7,0,0,0,.89-.17c.17-.16.28-.39.45-.56a1.72,1.72,0,0,1,2.18.23,2.93,2.93,0,0,1,.28.56,1.9,1.9,0,0,1,0,1.33,9.3,9.3,0,0,1-.45,1.29L31.5,46.43a36.77,36.77,0,0,0-1.34,3.45,9.91,9.91,0,0,0-.44,3.35,2.68,2.68,0,0,0,.11.67,1,1,0,0,0,1.28.67,7.29,7.29,0,0,0,1.45-.9,17.39,17.39,0,0,0,3.74-4.34A15.31,15.31,0,0,1,37.75,47a.54.54,0,0,1,.61-.17c.17.06.28.34.39.51s.06.22.06.33a.74.74,0,0,1-.12.33,20.82,20.82,0,0,1-4.57,6.25A11.58,11.58,0,0,1,31,56.35c-.22.06-.39.17-.61.23A3,3,0,0,1,26.65,55c-.17-.39-.17-.89-.5-1.23a.52.52,0,0,0-.61-.11c-.56.39-1.06.84-1.62,1.28a9.62,9.62,0,0,1-2.62,1.51,5.32,5.32,0,0,1-1.34.27A2.88,2.88,0,0,1,17.06,54.34Zm6.41-1.28a25.59,25.59,0,0,0,5.64-10.37,6.93,6.93,0,0,0,.16-3,1,1,0,0,0-1-.73,2.76,2.76,0,0,0-.95.34A11.83,11.83,0,0,0,25,41.69a25.35,25.35,0,0,0-4.41,8.75,11.63,11.63,0,0,0-.33,2.06v1a.78.78,0,0,1,.05.34,1,1,0,0,0,1.29.72A8,8,0,0,0,23.47,53.06Z"/>
        <path class="cls-2" d="M36.18,54.57c0-.23,0-.45-.11-.67a3.23,3.23,0,0,0-.06-.84,12,12,0,0,1,.5-3.51c.34-1,.67-1.95,1.07-2.9L48.39,22.79a3,3,0,0,1,.56-.9,1,1,0,0,1,1.17-.33,1.78,1.78,0,0,1,1.28,1.06,1.66,1.66,0,0,1,.06,1.28c-.23.67-.5,1.28-.78,1.9-1.23,2.73-2.46,5.4-3.63,8.08l-.83,1.9c-.34.83-.06,1.11.61,1.17a5.71,5.71,0,0,1,1,.06,2.77,2.77,0,0,1,2.45,2.06,8.57,8.57,0,0,1,.22,2,12,12,0,0,1-.67,4,24.71,24.71,0,0,1-4.51,8,14.74,14.74,0,0,1-3.91,3.24,4.92,4.92,0,0,1-2.28.61A2.87,2.87,0,0,1,36.18,54.57Zm5.13-.11a8.78,8.78,0,0,0,1.51-1.34,24.82,24.82,0,0,0,5.35-9.76,7.85,7.85,0,0,0,.33-3,2.61,2.61,0,0,0-.11-.67.91.91,0,0,0-1.11-.5,5.39,5.39,0,0,0-1.12.72,12.05,12.05,0,0,0-1.67,1.68,25.38,25.38,0,0,0-4.85,9.64c-.17.67-.17,1.34-.28,2,.06.33.17.67.22,1a.76.76,0,0,0,.78.51A2.53,2.53,0,0,0,41.31,54.46Z"/>
        <path class="cls-2" d="M49.62,54.34c-.12-.55-.06-1.11-.12-1.17a13.51,13.51,0,0,1,1-5.13,24,24,0,0,1,3.9-6.74,15.92,15.92,0,0,1,3.51-3.24,6.43,6.43,0,0,1,2.46-1,2.84,2.84,0,0,1,3.4,2.12c.61,3.45-.51,7.08-2.35,10.2a22.2,22.2,0,0,1-4.29,5.3C55.08,56.63,50.45,58.58,49.62,54.34Zm6.52-1.05a39.57,39.57,0,0,0,3.34-4.52C61.1,46.09,62.33,43,62,40.24a.93.93,0,0,0-1.06-1,2.92,2.92,0,0,0-.94.33c-2,1.23-3.07,3.8-4.24,5.75a21,21,0,0,0-2.9,7.13,2.45,2.45,0,0,0,.28,1.79C54,55.51,55.52,54,56.14,53.29Z"/>
        <path class="cls-2" d="M70.24,53.84a4.69,4.69,0,0,0,0-.89,7.76,7.76,0,0,1,.44-2.45c.67-2.18,1.4-4.35,2.06-6.53A8,8,0,0,0,73,42.69,2.5,2.5,0,0,0,73,42,1.42,1.42,0,0,0,72.25,41c-.73-.28-1.51-.5-2.23-.72a1.14,1.14,0,0,0-1.39.72c-.45.9-.79,1.84-1.23,2.79-.67,1.28-1.79,3.68-2.57,4.91a.61.61,0,0,1-.89.05c-.22-.16-.33-.22-.28-.5A26.3,26.3,0,0,1,65,45.37l2.51-5.58A4.5,4.5,0,0,0,68,37.11a8,8,0,0,1,.33-3,1.8,1.8,0,0,1,2.45-1.17l.28.17c.06.11.17.23.17.28a5.67,5.67,0,0,1,.11,1c.11,1.84.5,2.68,2.51,3.13a2.72,2.72,0,0,1,.67.16,1.84,1.84,0,0,1,.61.23,2.57,2.57,0,0,1,1.79,2.28,3.72,3.72,0,0,1-.06,1.34c-.22,1-.56,2-.83,2.95l-2,5.8A11.12,11.12,0,0,0,73.42,53a5.65,5.65,0,0,0,.17,1,1,1,0,0,0,.78.56,2,2,0,0,0,1.28-.28,15.53,15.53,0,0,0,3.62-3.57c.84-1.11,1.45-2.34,2.18-3.45a1,1,0,0,1,.56-.39.64.64,0,0,1,.61.22,3.38,3.38,0,0,1,.11.34c0,.11,0,.22,0,.27a20.2,20.2,0,0,1-5,6.86,11.77,11.77,0,0,1-2.23,1.56,4.79,4.79,0,0,1-2,.51A3,3,0,0,1,70.24,53.84Z"/>
        <path class="cls-2" d="M98.28,56.63a3.14,3.14,0,0,1-2.79-3.9,10.9,10.9,0,0,1,.73-2.29c.44-1,.94-2.23,1.45-3.29.11-.28.89-.5,1.22-.44a1.58,1.58,0,0,1,1.23,1.44,7.25,7.25,0,0,1-.22,1.9,3.81,3.81,0,0,1-.39,1l-.67,1.9a1.43,1.43,0,0,0,1.45,1.84,3.21,3.21,0,0,0,1.61-.34,6.13,6.13,0,0,0,2.91-3.23,4.24,4.24,0,0,0,.44-2.62,1.19,1.19,0,0,0-.22-.62c-.22-.33-.67-.44-.84-.16a12.59,12.59,0,0,0-1,1.39c-.55.83-1.11,1.67-1.61,2.56a1,1,0,0,1-.95.23c-.22-.12-.39-.28-.34-.5a5.89,5.89,0,0,1,.39-1c.67-1.17,1.34-2.35,2.07-3.52a10.15,10.15,0,0,0,1.73-4.35,6.23,6.23,0,0,1,1.72-3.28,10.71,10.71,0,0,1,2.57-2.18.8.8,0,0,1,1.11.34.65.65,0,0,1,.06.33,5.91,5.91,0,0,1-1.28,1.56,5.51,5.51,0,0,0-.89,1.84,2.65,2.65,0,0,0-.06,1.34l.67,2.29c.11.44.28.83.44,1.28a7.26,7.26,0,0,1-.05,4.35,7.39,7.39,0,0,1-1.06,2.12,9.85,9.85,0,0,1-5.74,3.9,12.22,12.22,0,0,1-2.23.28A11.14,11.14,0,0,1,98.28,56.63Z"/>
        <path class="cls-2" d="M111.55,55.74a2.14,2.14,0,0,1-.56-.84,6.64,6.64,0,0,1-.56-2.56,19.52,19.52,0,0,1,.84-4c.33-.78.61-1.5,1-2.23,1.17-2.67,2.39-5.35,3.57-8a4.73,4.73,0,0,1,.55-.89,1.17,1.17,0,0,1,.84-.5,2.19,2.19,0,0,1,1.5.67.9.9,0,0,1,.17.28,2.52,2.52,0,0,1,.06,1.67c-.23.61-.56,1.23-.78,1.9-.95,2.06-1.9,4.12-2.79,6.19a17,17,0,0,0-1.51,5.18,2.4,2.4,0,0,0,.34,1.62c.17.28.61.5.83.39l.67-.17a11.13,11.13,0,0,0,1.9-1.45,19.32,19.32,0,0,0,3.12-4L122,47c.11-.22.34-.27.62-.22a1,1,0,0,1,.44.84,11.91,11.91,0,0,1-1.45,2.67,18.21,18.21,0,0,1-4,4.57,8.71,8.71,0,0,1-3,1.68A2.9,2.9,0,0,1,111.55,55.74Zm6.8-21.8a3.46,3.46,0,0,1-.06-1.28,5.11,5.11,0,0,1,.73-1.84,1.37,1.37,0,0,1,1.45-.67,1.52,1.52,0,0,1,1.23,1c0,.17,0,.39.11.67a3,3,0,0,1-.11,1l-.67,1.5a1.24,1.24,0,0,1-1.4.61A1.36,1.36,0,0,1,118.35,33.94Z"/>
        <path class="cls-2" d="M117.73,55.79l.17-.66,7.86-17.4.34-.56a1.44,1.44,0,0,1,1.44-.56,4.38,4.38,0,0,1,1.4,1,.77.77,0,0,0,.89.22c.34-.17.62-.39.89-.5.56-.23,1.06-.39,1.62-.56a2.8,2.8,0,0,1,2,.11,2.61,2.61,0,0,1,1.62,2,15,15,0,0,1,.22,1.78,13.46,13.46,0,0,1-.62,3.91c-.38,1.11-.83,2.12-1.28,3.18a15.19,15.19,0,0,0-1.23,5,4.83,4.83,0,0,0,.17,1.28,1.06,1.06,0,0,0,1.12.56,6.09,6.09,0,0,0,1.78-1.06,15.65,15.65,0,0,0,3.29-3.85c.56-.84,1.12-1.73,1.62-2.56a.64.64,0,0,1,.89-.17.52.52,0,0,1,.22.61v.34a20.1,20.1,0,0,1-5.63,7.19,8.85,8.85,0,0,1-2.34,1.34,4.36,4.36,0,0,1-2.34.17,2.83,2.83,0,0,1-1.9-1.29,4.17,4.17,0,0,1-.56-1.95,8.4,8.4,0,0,1,.12-1.73,21,21,0,0,1,1.56-4.85,37,37,0,0,0,1.34-3.46,11.17,11.17,0,0,0,.39-3.06,3.12,3.12,0,0,0-.11-.67.86.86,0,0,0-1-.62,1.81,1.81,0,0,0-.95.4,12,12,0,0,0-2.34,2.39,24,24,0,0,0-2.95,5l-3,6.52a8.63,8.63,0,0,1-.78,1.51,3.72,3.72,0,0,1-2.74,1.84,2.91,2.91,0,0,1-.66,0A.87.87,0,0,1,117.73,55.79Z"/>
        <path class="cls-2" d="M156.59,54.29l-.28-1.79a14.25,14.25,0,0,1,.83-4.23c.34-.84.62-1.68,1-2.51,3.29-7.36,6.63-14.67,9.92-22,.22-.45.39-.84.62-1.23a1.34,1.34,0,0,1,1.44-.67,1.55,1.55,0,0,1,1.4,1.29,2.67,2.67,0,0,1-.17,1.33c-.28.73-.61,1.46-.94,2.18-2.85,6.41-5.75,12.82-8.65,19.24a37.08,37.08,0,0,0-1.39,3.45,10.17,10.17,0,0,0-.67,3.68,6.52,6.52,0,0,0,.22.95c.06.39.78.61,1.12.5a4.83,4.83,0,0,0,1.72-1.06,16.55,16.55,0,0,0,3.52-4.12c.5-.78,1-1.56,1.45-2.29a.57.57,0,0,1,.84-.11.36.36,0,0,1,.22.28,1.16,1.16,0,0,1-.06.61,19.44,19.44,0,0,1-5,6.75,9.24,9.24,0,0,1-2.9,1.78c-.22.06-.44.17-.67.23A2.87,2.87,0,0,1,156.59,54.29Z"/>
        <path class="cls-2" d="M167,55.74a2.14,2.14,0,0,1-.56-.84,6.64,6.64,0,0,1-.56-2.56,18.88,18.88,0,0,1,.84-4c.33-.78.61-1.5.95-2.23,1.17-2.67,2.39-5.35,3.56-8a5.36,5.36,0,0,1,.56-.89,1.17,1.17,0,0,1,.84-.5,2.19,2.19,0,0,1,1.5.67,1.14,1.14,0,0,1,.17.28,2.52,2.52,0,0,1,.06,1.67c-.23.61-.56,1.23-.79,1.9-.94,2.06-1.89,4.12-2.78,6.19a17,17,0,0,0-1.51,5.18,2.4,2.4,0,0,0,.33,1.62c.17.28.62.5.84.39l.67-.17A11.53,11.53,0,0,0,173,53a19.67,19.67,0,0,0,3.12-4l1.28-2c.11-.22.34-.27.62-.22a1,1,0,0,1,.44.84A11.91,11.91,0,0,1,177,50.27a18.25,18.25,0,0,1-4,4.57,8.66,8.66,0,0,1-2.95,1.68A2.9,2.9,0,0,1,167,55.74Zm7.63-25c-.11-.16,0-.61.34-.89l3.51-3.23a1.65,1.65,0,0,1,1.23-.45,6.17,6.17,0,0,1,2,.06c.11,0,.27.11.27.16a.57.57,0,0,1-.11.67c-1.61,1.29-3.29,2.4-5,3.57a2.3,2.3,0,0,1-1.56.34A1,1,0,0,1,174.59,30.7Z"/>
        <path class="cls-2" d="M173.2,55.63l.16-.67c2.57-5.58,5.08-11.15,7.59-16.73a6.71,6.71,0,0,1,.67-1.17c.11-.28.94-.5,1.22-.39a3.09,3.09,0,0,1,1.17.67,1.21,1.21,0,0,0,1.56.17,9.63,9.63,0,0,1,2.24-.9,3,3,0,0,1,2.95,1.29c.28.44.5,1,.78,1.5a.55.55,0,0,0,.84.11c.72-.61,1.39-1.17,2.12-1.73a7.64,7.64,0,0,1,2.84-1.17,3,3,0,0,1,2.9,1.34,6.39,6.39,0,0,1,.61,2.9,14.46,14.46,0,0,1-.83,4.07c-.34.95-.73,1.9-1.12,2.85A19.4,19.4,0,0,0,197.84,51a6.26,6.26,0,0,0-.06,3,1.33,1.33,0,0,0,.79.56,2.63,2.63,0,0,0,.67-.17,14,14,0,0,0,1.45-.89A18.69,18.69,0,0,0,204,49.66c.45-.78.89-1.56,1.39-2.34a1.75,1.75,0,0,1,.45-.45.6.6,0,0,1,.67,0,.67.67,0,0,1,.28.56.65.65,0,0,1-.06.33A20.36,20.36,0,0,1,201.19,55a8.13,8.13,0,0,1-3,1.56,3.29,3.29,0,0,1-3.18-.73,2.26,2.26,0,0,1-.78-1.11,6,6,0,0,1-.22-2,14.12,14.12,0,0,1,.72-3.68c.45-1.06.84-2.12,1.29-3.12A22.39,22.39,0,0,0,197.45,41a6.25,6.25,0,0,0,0-1.06,1.09,1.09,0,0,0-1.67-.95A6.07,6.07,0,0,0,194.44,40a18.6,18.6,0,0,0-2.9,3.73,31.31,31.31,0,0,0-1.89,3.63c-.84,1.78-1.62,3.51-2.4,5.29-.28.62-.56,1.23-.89,1.84a4.45,4.45,0,0,1-2.29,2,2.21,2.21,0,0,1-1.34.12c-.28-.06-.61-.45-.5-.73.22-.61.44-1.28.72-1.9,1.12-2.5,2.23-5,3.41-7.47a23.77,23.77,0,0,0,1.56-4.79,4.37,4.37,0,0,0,.05-2.07,1.09,1.09,0,0,0-1.28-.78,6.74,6.74,0,0,0-.89.51A14.1,14.1,0,0,0,182,44.09c-.45.89-.9,1.84-1.29,2.78-1,2.18-1.95,4.35-2.95,6.53-.22.5-.5,1-.78,1.5a4.19,4.19,0,0,1-2.51,1.68,1.51,1.51,0,0,1-.67,0A.7.7,0,0,1,173.2,55.63Z"/>
        <path class="cls-2" d="M205.08,55.74a2.23,2.23,0,0,1-.55-.84,6.64,6.64,0,0,1-.56-2.56,18.83,18.83,0,0,1,.83-4c.34-.78.62-1.5.95-2.23,1.17-2.67,2.4-5.35,3.57-8a4.78,4.78,0,0,1,.56-.89,1.17,1.17,0,0,1,.84-.5,2.19,2.19,0,0,1,1.5.67,1.14,1.14,0,0,1,.17.28,2.46,2.46,0,0,1,.05,1.67c-.22.61-.55,1.23-.78,1.9-.94,2.06-1.89,4.12-2.78,6.19a16.69,16.69,0,0,0-1.51,5.18,2.4,2.4,0,0,0,.33,1.62c.17.28.62.5.84.39l.67-.17a11.53,11.53,0,0,0,1.9-1.45,20,20,0,0,0,3.12-4l1.28-2c.11-.22.33-.27.61-.22a1,1,0,0,1,.45.84,11.91,11.91,0,0,1-1.45,2.67,18.25,18.25,0,0,1-4,4.57,8.66,8.66,0,0,1-2.95,1.68A2.91,2.91,0,0,1,205.08,55.74Zm6.81-21.8a3.46,3.46,0,0,1-.06-1.28,5.11,5.11,0,0,1,.73-1.84,1.35,1.35,0,0,1,1.44-.67,1.5,1.5,0,0,1,1.23,1,5.48,5.48,0,0,1,.11.67,3,3,0,0,1-.11,1l-.67,1.5a1.23,1.23,0,0,1-1.39.61A1.36,1.36,0,0,1,211.89,33.94Z"/>
        <path class="cls-2" d="M215.4,56.07a3.91,3.91,0,0,1-.9-1,6.74,6.74,0,0,1-.61-2.62c.05-.22.05-.78.17-1.34a19.61,19.61,0,0,1,1.5-4.91c1.06-2.23,2.06-4.51,3.07-6.8.61-1.34,1.17-2.73,1.78-4.07a.72.72,0,0,0-.55-1c-.45-.11-.9-.11-1.34-.23a.58.58,0,0,1-.39-.5.55.55,0,0,1,.56-.67,6.65,6.65,0,0,1,1-.11,10.41,10.41,0,0,0,1.34-.16,1,1,0,0,0,.78-.56l1.5-3.07c.23-.39.39-.78.67-1.17a1,1,0,0,1,.89-.39,1.72,1.72,0,0,1,1.68,2.34c-.17.61-.45,1.28-.67,1.9-.17.39,0,.78.5,1.11a1.37,1.37,0,0,1,.28.17.67.67,0,0,1,.22.61.47.47,0,0,1-.39.5,2.61,2.61,0,0,1-.61.12c-.23.05-.5.05-.73.11a1.32,1.32,0,0,0-.72.61,2.27,2.27,0,0,0-.39.61c-1.73,3.8-3.4,7.64-5.13,11.49a21,21,0,0,0-1.56,4.85,4.27,4.27,0,0,0,0,1.67,1.61,1.61,0,0,0,.56.84.87.87,0,0,0,.66.11,4.41,4.41,0,0,0,1.45-.78,18,18,0,0,0,3.63-4.07l1.28-2a10.29,10.29,0,0,1,.61-.83.56.56,0,0,1,.84.11c.11.22.22.5.11.67a20.53,20.53,0,0,1-5,6.8A10.62,10.62,0,0,1,218,56.46,2.92,2.92,0,0,1,215.4,56.07Z"/>
        <path class="cls-2" d="M225.49,56.58A2.57,2.57,0,0,1,224,54.84c-.17-.55-.22-1.11-.33-1.5a12.45,12.45,0,0,1,.5-3.9,23,23,0,0,1,3.23-6.69A16.59,16.59,0,0,1,229.89,40a11.87,11.87,0,0,1,2.79-1.9,6.4,6.4,0,0,1,2.68-.55,2.68,2.68,0,0,1,.67.11,1.82,1.82,0,0,1,1.44,1.61,6.57,6.57,0,0,1-1.28,4.86,10.51,10.51,0,0,1-6.91,4.51,5,5,0,0,0-.95.28.62.62,0,0,0-.28.22.79.79,0,0,1-.17.28,9.88,9.88,0,0,0-.78,4.35,3.12,3.12,0,0,0,.11.67,1.44,1.44,0,0,0,1.17,1.06,4.88,4.88,0,0,0,2.35-.28,12.54,12.54,0,0,0,2.67-1.39,20.87,20.87,0,0,0,5.86-5.64,8.34,8.34,0,0,1,.61-.83c.11-.17.67-.17.95.06a.5.5,0,0,1,.11.61c-.05.11-.05.22-.11.33-.56.73-1,1.51-1.56,2.23a21.29,21.29,0,0,1-6,5,12.9,12.9,0,0,1-5.18,1.57A5.3,5.3,0,0,1,225.49,56.58Zm4.62-9.76a8.57,8.57,0,0,0,5-3.79,6.22,6.22,0,0,0,.9-2.18c0-.22.05-.44.05-.72,0-.11-.05-.23-.05-.34a1,1,0,0,0-1.34-.56,6,6,0,0,0-1.62,1.23,20.46,20.46,0,0,0-3.68,5.3,1,1,0,0,0-.06.67.54.54,0,0,0,.39.44A1,1,0,0,0,230.11,46.82Z"/>
      </g>
      <rect class="cls-2" y="91.94" width="124.43" height="30.28" rx="15.14"/>
      <circle class="cls-3" cx="15.96" cy="106.98" r="8.82"/>
      <g>
        <path class="cls-4" d="M37.94,114.41H35.26v-2.85l.49-4.37h1.7l.49,4.37ZM36.66,106a1.51,1.51,0,0,1-1-.33,1.52,1.52,0,0,1,0-2.07,1.46,1.46,0,0,1,1-.35,1.22,1.22,0,0,1,1,.43,1.51,1.51,0,0,1,.33,1,1.46,1.46,0,0,1-.33,1A1.21,1.21,0,0,1,36.66,106Z"/>
        <path class="cls-4" d="M42.53,111.81h-2.9V100.67h4.89a6.36,6.36,0,0,1,2.27.39,3.36,3.36,0,0,1,1.63,1.27,4,4,0,0,1,.58,2.25,3.83,3.83,0,0,1-1.23,3.11,4.88,4.88,0,0,1-3.25,1h-2Zm1.85-5.4q1.86,0,1.86-1.74c0-1.11-.62-1.67-1.86-1.67H42.53v3.41Z"/>
        <path class="cls-4" d="M51.85,102.28a1.34,1.34,0,0,1-1.12-.47,1.59,1.59,0,0,1-.38-1,1.4,1.4,0,0,1,.45-1.14,1.66,1.66,0,0,1,2.09,0,1.4,1.4,0,0,1,.45,1.14,1.63,1.63,0,0,1-.37,1A1.36,1.36,0,0,1,51.85,102.28Zm1.39,9.53H50.43v-8.6h2.81Z"/>
        <path class="cls-4" d="M58.71,111.82a4,4,0,0,1-2.23-.59,3.72,3.72,0,0,1-1.35-1.62,5.42,5.42,0,0,1-.42-2.15,6,6,0,0,1,.21-1.58,4.21,4.21,0,0,1,.69-1.37,3.34,3.34,0,0,1,1.23-1,4.14,4.14,0,0,1,1.81-.36,3.08,3.08,0,0,1,2.6,1.23V100h2.83v11.79H61.25v-1.17A3.05,3.05,0,0,1,58.71,111.82Zm.7-2.23a1.62,1.62,0,0,0,1.38-.61,2.28,2.28,0,0,0,.46-1.44,2.1,2.1,0,0,0-.51-1.5,1.78,1.78,0,0,0-1.33-.55,1.66,1.66,0,0,0-1.4.61,2.32,2.32,0,0,0-.46,1.44A2.28,2.28,0,0,0,58,109,1.63,1.63,0,0,0,59.41,109.59Z"/>
        <path class="cls-4" d="M70.17,111.82a5.16,5.16,0,0,1-2.52-.56,3.66,3.66,0,0,1-1.54-1.58,4.63,4.63,0,0,1-.49-2.13,4.44,4.44,0,0,1,.6-2.39,3.67,3.67,0,0,1,1.61-1.46,5.11,5.11,0,0,1,2.27-.5,4.84,4.84,0,0,1,2.5.58A3.53,3.53,0,0,1,74,105.4a5.74,5.74,0,0,1,.44,2.27l0,.51h-6a1.94,1.94,0,0,0,2,1.51,2.87,2.87,0,0,0,2-.88l1.48,1.48A4.8,4.8,0,0,1,70.17,111.82Zm1.54-5.15a1.36,1.36,0,0,0-.45-1.09,1.66,1.66,0,0,0-1.14-.39,1.62,1.62,0,0,0-1.19.41,1.94,1.94,0,0,0-.53,1.07Z"/>
        <path class="cls-4" d="M81.94,114.9A4,4,0,0,1,79.4,114l1.17-2a1.65,1.65,0,0,0,1.15.47,1.07,1.07,0,0,0,1-.64l.21-.39-3.56-8.29h2.9l2,5.54,1.83-5.54H89l-3.68,9.35A3.39,3.39,0,0,1,81.94,114.9Z"/>
        <path class="cls-4" d="M92,111.82a2.87,2.87,0,0,1-2.22-.8,2.78,2.78,0,0,1-.72-1.93c0-1.66,1.1-2.48,3.29-2.48h2.24c0-.83-.55-1.24-1.64-1.24a7.11,7.11,0,0,0-2.57.58l-.78-1.81a9.24,9.24,0,0,1,4-.94,4.42,4.42,0,0,1,2.63.74,2.89,2.89,0,0,1,1.13,2.34v5.53H94.57v-1A3.11,3.11,0,0,1,92,111.82Zm.87-1.93a1.85,1.85,0,0,0,1.17-.32,1.49,1.49,0,0,0,.55-.79V108H92.89c-.8,0-1.2.29-1.2.89a1,1,0,0,0,.27.68A1.19,1.19,0,0,0,92.85,109.89Z"/>
        <path class="cls-4" d="M100.27,111.82a1.44,1.44,0,0,1-.93-.34,1.28,1.28,0,0,1-.42-1,1.26,1.26,0,0,1,.41-1,1.44,1.44,0,0,1,.94-.33,1.28,1.28,0,0,1,1,.4,1.47,1.47,0,0,1,.33,1,1.5,1.5,0,0,1-.33,1A1.26,1.26,0,0,1,100.27,111.82Zm.91-3.94h-1.7L99,103.51v-2.84h2.68v2.84Z"/>
      </g>
    </g>
  </g>
</svg>
