<svg xmlns="http://www.w3.org/2000/svg" viewBox="0 0 307.19 153.58">
  <defs>
    <style>
      .cls-1 {
        fill: #e4121e;
      }

      .cls-2 {
        fill: #1d1d1b;
      }

      .cls-3 {
        fill: #202020;
      }

      .cls-4 {
        fill: #1a1a1a;
      }

      .cls-5 {
        fill: #fff;
      }

      .cls-6 {
        fill: #3968b0;
      }

      .cls-7 {
        fill: #3263ad;
      }

      .cls-8 {
        fill: #d0d0d2;
      }

      .cls-9 {
        fill: #050506;
      }

      .cls-10 {
        fill: #fffffe;
      }

      .cls-11 {
        fill: #fefefe;
      }

      .cls-12 {
        fill: #fdfdfd;
      }

      .cls-13 {
        fill: #cacaaf;
      }

      .cls-14 {
        fill: #fefffd;
      }

      .cls-15 {
        fill: #c9c8ae;
      }

      .cls-16 {
        fill: #e52327;
      }

      .cls-17 {
        fill: #e52227;
      }

      .cls-18 {
        fill: #fcfcfc;
      }

      .cls-19 {
        fill: #f9dc06;
      }

      .cls-20 {
        fill: #c9c8ad;
      }

      .cls-21 {
        fill: #fcfcfb;
      }

      .cls-22 {
        fill: #efefef;
      }

      .cls-23 {
        fill: #090909;
      }

      .cls-24 {
        fill: #f08468;
      }

      .cls-25 {
        fill: #090707;
      }

      .cls-26 {
        fill: #f28e72;
      }

      .cls-27 {
        fill: #f5f5f5;
      }

      .cls-28 {
        fill: #d41116;
      }
    </style>
  </defs>
  <g id="Capa_2" data-name="Capa 2">
    <g id="Capa_1-2" data-name="Capa 1">
      <g>
        <g>
          <path class="cls-1" d="M59.21,49.94H56.06l-1.33-3.56h-1.3l-.69,3.56H49.91L52.1,38.65h4.38a4.27,4.27,0,0,1,2.85.86,2.78,2.78,0,0,1,1,2.23,5,5,0,0,1-.7,2.67,3.88,3.88,0,0,1-2.13,1.64v0Zm-5.29-6.12h1.74q1.74,0,1.74-1.62a1.07,1.07,0,0,0-.25-.74,1.31,1.31,0,0,0-.93-.25H54.43Z"/>
          <path class="cls-1" d="M70.3,49.94H67.47l.63-3.23H63.79l-.63,3.23H60.38l1.28-6.56a6.5,6.5,0,0,1,1.89-3.66,5.5,5.5,0,0,1,3.82-1.29,4.75,4.75,0,0,1,3.2,1,3.49,3.49,0,0,1,1.15,2.77,5.3,5.3,0,0,1-.14,1.19Zm-1.74-5.61.19-.95a4.63,4.63,0,0,0,.09-.83c0-1-.59-1.57-1.77-1.57a2.5,2.5,0,0,0-2.64,2.4l-.18.95Z"/>
          <path class="cls-1" d="M81.62,42H79a1.61,1.61,0,0,0,0-.26c0-.62-.37-.93-1.12-.93a1.7,1.7,0,0,0-1.2.39,1.23,1.23,0,0,0-.42.9.7.7,0,0,0,.35.62,2.24,2.24,0,0,0,.89.34,9.89,9.89,0,0,1,1.15.27,8.45,8.45,0,0,1,1.14.4,2,2,0,0,1,.89.79A2.37,2.37,0,0,1,81,45.88,4,4,0,0,1,79.7,49a5.06,5.06,0,0,1-3.53,1.18,4.46,4.46,0,0,1-2.76-.8,2.57,2.57,0,0,1-1.06-2.15,3.23,3.23,0,0,1,.06-.61h2.77a2.48,2.48,0,0,0,0,.33c0,.57.42.86,1.26.86a2,2,0,0,0,1.31-.35,1.15,1.15,0,0,0,.43-.94.72.72,0,0,0-.35-.62,2.25,2.25,0,0,0-.88-.34,11,11,0,0,1-1.15-.27,10.25,10.25,0,0,1-1.15-.42,2,2,0,0,1-.88-.78,2.51,2.51,0,0,1-.35-1.35,4.06,4.06,0,0,1,1.29-3.09,4.73,4.73,0,0,1,3.37-1.21,4,4,0,0,1,2.6.83,2.71,2.71,0,0,1,1,2.19A3.51,3.51,0,0,1,81.62,42Z"/>
          <path class="cls-1" d="M90.28,49.94H82l2.18-11.29h8.34L92,41.21h-5.5l-.37,1.89h4.49l-.44,2.21H85.69l-.4,2.07H90.8Z"/>
          <path class="cls-1" d="M101.55,49.94H98.4l-1.33-3.56h-1.3l-.69,3.56H92.25l2.19-11.29h4.38a4.27,4.27,0,0,1,2.85.86,2.78,2.78,0,0,1,1,2.23,5,5,0,0,1-.7,2.67,3.88,3.88,0,0,1-2.13,1.64v0Zm-5.29-6.12H98q1.74,0,1.74-1.62a1.07,1.07,0,0,0-.25-.74,1.31,1.31,0,0,0-.93-.25H96.77Z"/>
          <path class="cls-1" d="M115.57,43.28a6.62,6.62,0,0,1-2,4.89,6.89,6.89,0,0,1-5,2,5.26,5.26,0,0,1-3.73-1.37,4.54,4.54,0,0,1-1.47-3.48,6.63,6.63,0,0,1,2-4.89,6.89,6.89,0,0,1,5-2,5.26,5.26,0,0,1,3.73,1.37A4.57,4.57,0,0,1,115.57,43.28Zm-6.78,4.33a3.71,3.71,0,0,0,2.76-1.14,3.85,3.85,0,0,0,1.11-2.8,2.73,2.73,0,0,0-.71-1.94,2.48,2.48,0,0,0-1.9-.75,3.56,3.56,0,0,0-2.71,1.14,3.94,3.94,0,0,0-1.08,2.81,2.74,2.74,0,0,0,.68,1.94A2.4,2.4,0,0,0,108.79,47.61Z"/>
        </g>
        <g>
          <path class="cls-1" d="M233.68,43.46a6.59,6.59,0,0,1-2,4.89,6.85,6.85,0,0,1-5,2A5.26,5.26,0,0,1,222.9,49a4.54,4.54,0,0,1-1.47-3.48,6.59,6.59,0,0,1,2-4.89,6.88,6.88,0,0,1,5-2A5.24,5.24,0,0,1,232.21,40,4.54,4.54,0,0,1,233.68,43.46Zm-6.78,4.33a3.69,3.69,0,0,0,2.75-1.14,3.86,3.86,0,0,0,1.12-2.8,2.73,2.73,0,0,0-.71-1.94,2.49,2.49,0,0,0-1.9-.75,3.59,3.59,0,0,0-2.72,1.14,3.94,3.94,0,0,0-1.08,2.81,2.7,2.7,0,0,0,.69,1.93A2.37,2.37,0,0,0,226.9,47.79Z"/>
          <path class="cls-1" d="M243.52,50.12h-3.15L239,46.56h-1.29l-.69,3.56h-2.83l2.18-11.29h4.39a4.27,4.27,0,0,1,2.85.86,2.81,2.81,0,0,1,1,2.23,5.11,5.11,0,0,1-.7,2.67,3.92,3.92,0,0,1-2.13,1.64v0ZM238.23,44H240c1.16,0,1.73-.54,1.73-1.62a1,1,0,0,0-.25-.74,1.27,1.27,0,0,0-.92-.25h-1.79Z"/>
          <path class="cls-1" d="M254.61,50.12h-2.83l.63-3.23h-4.32l-.62,3.23h-2.78L246,43.56a6.48,6.48,0,0,1,1.9-3.66,5.5,5.5,0,0,1,3.81-1.29,4.78,4.78,0,0,1,3.21,1A3.47,3.47,0,0,1,256,42.37a4.78,4.78,0,0,1-.14,1.19Zm-1.74-5.61.18-.95a4.63,4.63,0,0,0,.09-.83c0-1-.58-1.57-1.76-1.57a2.5,2.5,0,0,0-2.64,2.4l-.18.95Z"/>
          <path class="cls-1" d="M260.87,50.12h-4.19l2.19-11.29h3.78a5.73,5.73,0,0,1,3.89,1.23A4.13,4.13,0,0,1,268,43.34a6.74,6.74,0,0,1-1.83,4.9A7,7,0,0,1,260.87,50.12ZM260,47.56h1.1a3.78,3.78,0,0,0,2.93-1,3.87,3.87,0,0,0,1-2.75c0-1.59-.88-2.38-2.64-2.38H261.2Z"/>
          <path class="cls-1" d="M281.09,43.46a6.59,6.59,0,0,1-2,4.89,6.85,6.85,0,0,1-5,2A5.26,5.26,0,0,1,270.31,49a4.54,4.54,0,0,1-1.47-3.48,6.63,6.63,0,0,1,2-4.89,6.89,6.89,0,0,1,5-2A5.26,5.26,0,0,1,279.63,40,4.57,4.57,0,0,1,281.09,43.46Zm-6.78,4.33a3.69,3.69,0,0,0,2.75-1.14,3.82,3.82,0,0,0,1.12-2.8,2.73,2.73,0,0,0-.71-1.94,2.48,2.48,0,0,0-1.9-.75,3.59,3.59,0,0,0-2.72,1.14,4,4,0,0,0-1.07,2.81,2.69,2.69,0,0,0,.68,1.93A2.37,2.37,0,0,0,274.31,47.79Z"/>
        </g>
        <path class="cls-1" d="M46.73,46.74A7.37,7.37,0,0,0,43.11,44v-.09a6.67,6.67,0,0,0,3.55-6.34A7.37,7.37,0,0,0,44.43,32C43,30.56,40.81,29.86,38,29.86H24V59.27h7.28V36.6h5.49c1.77,0,2.65.81,2.65,2.43s-.88,2.38-2.65,2.38H34v5.85h3.76A2.8,2.8,0,0,1,39.8,48a2.63,2.63,0,0,1,.74,1.89c0,1.74-.94,2.61-2.83,2.61H34v6.75h5.24A9,9,0,0,0,45.74,57,7.79,7.79,0,0,0,48,51.22,7.77,7.77,0,0,0,46.73,46.74Z"/>
        <path class="cls-1" d="M215.27,33.67q-4.07-3.95-11.65-4H193.26V59.07h7.27V36.45h3.09q8.35,0,8.35,7.95t-8.35,7.94h-.47v6.73h.47q7.59,0,11.65-4t4.06-10.72Q219.33,37.62,215.27,33.67Z"/>
        <path class="cls-2" d="M283.42,38.21a1.16,1.16,0,0,1-.37.88,1.29,1.29,0,0,1-.91.35.92.92,0,0,1-.66-.24.83.83,0,0,1-.26-.63,1.17,1.17,0,0,1,.38-.87,1.24,1.24,0,0,1,.91-.36.92.92,0,0,1,.66.24A.84.84,0,0,1,283.42,38.21Zm-.15,0a.81.81,0,0,0-.2-.55.76.76,0,0,0-.56-.2,1.12,1.12,0,0,0-.81.31,1,1,0,0,0-.33.76.74.74,0,0,0,.21.55.75.75,0,0,0,.56.21,1.13,1.13,0,0,0,.8-.32A1,1,0,0,0,283.27,38.23Zm-.54.68h-.17l-.22-.36H282l-.07.37h-.15l.2-1h.5a.33.33,0,0,1,.23.07.22.22,0,0,1,.08.19.39.39,0,0,1-.09.26.36.36,0,0,1-.24.13h0Zm-.22-.91h-.37l-.08.41h.36a.24.24,0,0,0,.19-.07.23.23,0,0,0,.08-.17C282.69,38.06,282.63,38,282.51,38Z"/>
        <g>
          <path class="cls-3" d="M233.73,51s-.18,0-.29-.12-.14-.25-.09-.3a.36.36,0,0,0,.11-.22.76.76,0,0,0-.12-.52,1.62,1.62,0,0,0-.6-.54c-2.13-1.2-6.34-.15-8.43.82-1,.46-3.44,1.85-2.77,3.28.31.67,1.4,1,2.46,1.41a10.83,10.83,0,0,1,1.72.71c3.67,2.06-.9,6.49-4.5,6.55-1.31.07-2.84-.55-2.87-1.86,0-.6.46-1.37,1.61-2.3,0,0,.18,0,.28.14s.15.24.08.28c-1.11.89-1.55,1.62-1.54,2.15,0,.83,1.45.92,2,.89,3.15-.07,7.68-4,5-5.48a13,13,0,0,0-1.64-.66c-1.23-.42-2.48-.85-3-1.9-.79-1.7,1.48-3.17,2.72-3.76,2.23-1,6.53-1.94,8.81-.65a2.62,2.62,0,0,1,1,.92,1.26,1.26,0,0,1,.22.83A.51.51,0,0,1,233.73,51Z"/>
          <path class="cls-3" d="M230.6,55.88c.05.13,0,.21-.1.19a.54.54,0,0,1-.28-.26c-.26-.25-.89,0-1.13.24a2.52,2.52,0,0,0-.89,1.45c.45-.13,1.63-1.5,1.63-1.5s.17,0,.29.1.14.23.1.29a1.27,1.27,0,0,0-.1.76c0,.32,1.73-1.1,1.76-1.11a.17.17,0,0,1,.26,0c.1.11.09.22,0,.27a12.11,12.11,0,0,1-1.71,1.4c-.6.31-1.05.13-1-.51-.47.44-1,.85-1.23.71a.67.67,0,0,1-.26-.19.73.73,0,0,1-.16-.54,1.67,1.67,0,0,1,.15-.5,3,3,0,0,1,.8-1C229.31,55.16,230.37,55.13,230.6,55.88Z"/>
          <path class="cls-3" d="M234.65,51.34c0-.07.16,0,.27.08s.17.24.13.31l-2.9,4.69a6.14,6.14,0,0,1,1.49-1.13.56.56,0,0,1,.58,0l0,0a.73.73,0,0,1,.28.59,1.86,1.86,0,0,1-.08.54c-.2.67-.74,1.51-1.31,1.64a.92.92,0,0,1-1.23-.67c-.62.62-1.08,1.16-1.1,1.16s-.15,0-.26-.09-.17-.24-.13-.31ZM234,55.72a8,8,0,0,0-1.75,1.37c0,.14,0,.7.58.57s1-.92,1.2-1.56a2.65,2.65,0,0,0,.09-.44Zm.19-.08h0Z"/>
          <path class="cls-3" d="M235.61,55.47s.18,0,.28.13.13.25.08.3l-.1.07a2.79,2.79,0,0,0-.64,1.06,1.44,1.44,0,0,0-.09.77.36.36,0,0,0,.25,0,1,1,0,0,0,.39-.24,2.28,2.28,0,0,0,.5-.69,2.66,2.66,0,0,0,.21-.53,1.9,1.9,0,0,1-.5-.66,1.26,1.26,0,0,1-.13-.64c0-.18.1-.31.25-.33a.53.53,0,0,1,.33.06,1,1,0,0,1,.4.44,1.23,1.23,0,0,1,.14.47,1.69,1.69,0,0,1,0,.55,1.6,1.6,0,0,0,1.17-.15.15.15,0,0,1,.23,0c.09.12.08.21,0,.25a1.72,1.72,0,0,1-1.46.25,2.35,2.35,0,0,1-.24.64,2.52,2.52,0,0,1-.54.73,1.17,1.17,0,0,1-.44.27.63.63,0,0,1-.5-.05A1,1,0,0,1,235,58a.6.6,0,0,1-.08-.08,1.47,1.47,0,0,1-.05-1.23,2.8,2.8,0,0,1,.67-1.11Zm.94.56a1.94,1.94,0,0,0,0-.59.9.9,0,0,0-.06-.28h-.08c-.07,0-.11.08-.13.19a.93.93,0,0,0,.08.41A.7.7,0,0,0,236.55,56Z"/>
          <path class="cls-3" d="M238.94,54.73c0-.06.17,0,.27.08s.17.25.13.31l-.48.76c.45-.22,1.08-.42,1.34-.1.11.13.07.43.24.44a3.31,3.31,0,0,0,1-.14c.08,0,.16-.09.23,0s0,.17,0,.19a4.92,4.92,0,0,1-1.26.22c-.34,0-.45-.12-.73-.46s-1.35.79-1.35.79-.7,1.16-.76,1.27-.17,0-.27-.07-.17-.25-.13-.32Z"/>
          <path class="cls-3" d="M245.69,56.54a.23.23,0,0,1-.31,0c-.11-.11.17-.35.22-.4l1-1.18a2.87,2.87,0,0,1,.3-.28c0-.06.18,0,.27.11s.16.25.1.3l-.31.3a1.74,1.74,0,0,0-.49,1.46,1.4,1.4,0,0,1-.06.89,1.19,1.19,0,0,1-.25.29.69.69,0,0,1-.3.14.7.7,0,0,1-.5-.06A.79.79,0,0,1,245,57c0-.07.16,0,.27.06s.17.25.14.31-.18.34-.15.35a.55.55,0,0,0,.26,0,.48.48,0,0,0,.26-.12.62.62,0,0,0,.19-.23,1.07,1.07,0,0,0,.07-.71c0-.17-.12-.18.19-.75Z"/>
          <path class="cls-3" d="M248.56,55.09c.07-.05.2,0,.3.12s.15.25.08.3a5.5,5.5,0,0,0-1,1.35c-.18.36-.16.57,0,.63.53.08,2-1.32,2-1.33s.15-.16.25,0,.07.15,0,.21-2.16,2.33-2.72,1.36a1.34,1.34,0,0,1,.13-1.21A5.39,5.39,0,0,1,248.56,55.09Zm.81-.37c-.05.06-.18,0-.29-.09s-.15-.25-.1-.31l.72-.83c.06-.07.17,0,.29.09s.14.24.1.31Z"/>
          <path class="cls-3" d="M250.25,55.38c0-.07.17,0,.27.06s.17.25.13.32l-.32.58c.7-.58,1.46-1.15,1.75-1.08h0a.49.49,0,0,1,.36.69,3.25,3.25,0,0,1-.22.51c-.16.33-.36.71-.36.71.42.27,1.81-1,1.83-1s.18-.22.28-.11,0,.13,0,.2-1.41,1.67-2.09,1.23-.29-1,0-1.45a2.73,2.73,0,0,0,.14-.31,20,20,0,0,0-2.51,2.08s-.15,0-.26-.08-.17-.24-.13-.3Z"/>
          <path class="cls-3" d="M261.61,56.16s.08-.12.18,0,.17.17.14.21a18.88,18.88,0,0,1-3.69,3c-.46.24-1.24.48-1.57,0-.76-1.07,4.23-8.19,4.34-8.21A2.88,2.88,0,0,1,262.38,50a.64.64,0,0,1,.41,0,.62.62,0,0,1,.44.42,1.43,1.43,0,0,1-.23.94c-.83,1.66-4.29,4.29-4.3,4.3s0,0-.06,0c-.94,1.65-1.62,3.14-1.43,3.53.11.17.67,0,.8-.11A18.47,18.47,0,0,0,261.61,56.16Zm-.23-4.77s-1.05,1.53-2.1,3.24a15.21,15.21,0,0,0,3.35-3.53,1.33,1.33,0,0,0,.22-.82l-.16,0A2.9,2.9,0,0,0,261.38,51.39Z"/>
          <path class="cls-3" d="M262.4,55.09c.07-.05.2,0,.3.12s.14.25.08.3a5.26,5.26,0,0,0-1,1.35c-.18.36-.17.57,0,.63.53.08,2-1.32,2-1.33s.14-.16.25,0,.06.15,0,.21-2.16,2.33-2.72,1.36a1.34,1.34,0,0,1,.13-1.21A5,5,0,0,1,262.4,55.09Zm.51-.72.07-.11a1,1,0,0,0,.2-.42.37.37,0,0,1,.14-.17c.08-.05.27.09.26.15s-.49.91-.87.81l0,0s0-.1.06-.17A.19.19,0,0,1,262.91,54.37Z"/>
          <path class="cls-3" d="M264.12,55c0-.06.16,0,.26.08s.18.23.15.31l-.24.4a3.83,3.83,0,0,1,1-.8c.8-.27.67.61.41,1.4l.13-.07a.87.87,0,0,1,.31-.09.51.51,0,0,1,.5.34,1,1,0,0,1,0,.66s1.38-1.13,1.4-1.13.16-.19.27-.07.1.18.05.23-3.11,3.28-2.14.61a.74.74,0,0,0,0-.14l-.05,0a3.08,3.08,0,0,0-.89.71v0c0,.08-.16,0-.28-.05a.4.4,0,0,1-.14-.32s.79-1.69.75-1.68c-.7.25-2.56,2.53-2.58,2.54s-.15,0-.25-.08-.17-.24-.13-.31Z"/>
          <path class="cls-3" d="M268.93,55.09c.07-.05.19,0,.3.12s.14.25.08.3a5.05,5.05,0,0,0-1,1.35c-.18.36-.17.57,0,.63.53.08,2-1.32,2-1.33s.14-.16.25,0,.06.15,0,.21-2.16,2.33-2.72,1.36a1.34,1.34,0,0,1,.13-1.21A5,5,0,0,1,268.93,55.09Zm.8-.37c-.05.06-.18,0-.28-.09s-.16-.25-.1-.31l.72-.83c.05-.07.17,0,.29.09s.14.24.1.31Z"/>
          <path class="cls-3" d="M273.87,50.3s.16,0,.27.09.15.25.11.3-.94,1.32-1.95,2.84h3.3a.42.42,0,0,1,.3.22c.08.13.07.23,0,.23H272c-.27.41-.54.84-.8,1.26h0s0,.08-.05.08c-.79,1.28-1.22,2-1.08,2.28.23.44,2.86-1.66,2.86-1.67s.13-.07.24.05,0,.18,0,.22-2.95,2.91-3.59,1.75c-.19-.36.4-1.61,1.23-3a1.09,1.09,0,0,1,.08-.15c0-1-3.29-.85-3.29-.85a.43.43,0,0,1-.3-.23c-.07-.12-.06-.22,0-.22h4.38C272.76,51.83,273.85,50.31,273.87,50.3ZM271,54.6l.39-.62-1.62-.06A3.37,3.37,0,0,1,271,54.6Z"/>
          <path class="cls-3" d="M274.31,56.23a4.18,4.18,0,0,1-1.34.39c-.88,1.89,2.62.29,3-.44a.18.18,0,0,1,.29-.06c.1.1.1.15.06.23-.36.64-2.38,2-3.28,1.53a1.22,1.22,0,0,1-.61-1.27,2.28,2.28,0,0,1,.52-1,5.89,5.89,0,0,1,.84-.76,1.73,1.73,0,0,1,.87-.39.54.54,0,0,1,.31.19.58.58,0,0,1,.16.47,1.12,1.12,0,0,1-.13.36A1.68,1.68,0,0,1,274.31,56.23Zm-.92-.2c.18-.06.37-.13.58-.22a1.86,1.86,0,0,0,.65-.66c0-.06,0-.09.06-.15a3.45,3.45,0,0,0-.5.31A5.31,5.31,0,0,0,273.39,56Z"/>
        </g>
        <path class="cls-4" d="M173.11,72.37c-2.12,0-5.3-2.12-12.26-6.78-2.61-1.74-5.82-3.88-9.53-6.28-3.73,2.4-6.95,4.55-9.57,6.3-7,4.64-10.13,6.75-12.24,6.75a2.53,2.53,0,0,1-2.09-1C126,69.54,127,66,129.75,56.44c.83-2.92,1.84-6.5,2.94-10.6-3.89-3.21-7.27-5.85-10-8-7.29-5.69-10-7.82-9.23-10.25s4.63-2.72,17.2-3.19c2.69-.1,5.73-.21,9.16-.37,1-2.52,1.93-5.08,2.87-7.56,1.72-4.57,3.49-9.29,5.34-13.9l0-.06,0,0c1-2,2.3-2.46,3.2-2.46,1.54,0,2.94,1.29,3.72,3.46,2.52,6.51,5,12.94,7.83,20.57,3.56.16,6.69.27,9.46.38,12.4.46,16.14.59,17,3.15s-2,4.55-9.25,10.24c-2.76,2.15-6.16,4.79-10.07,8,1.09,4,2.06,7.49,2.93,10.55,2.73,9.59,3.74,13.18,2.35,15A2.53,2.53,0,0,1,173.11,72.37Z"/>
        <path class="cls-5" d="M168.72,44.88c8.82,33.1,11.76,30.51-16.81,12.19C123.32,75.38,126.29,78,135.08,44.91c-24.94-20.7-29.14-18.08,5.68-19.66a1,1,0,0,0,1-.78c2.77-7.22,5.4-14.49,8.28-21.66,1.39-2.8,3.17-1.47,4,.85q4,10.38,7.91,20.79a1.06,1.06,0,0,0,1.12.8C197.89,26.83,193.8,24.14,168.72,44.88Z"/>
        <path class="cls-6" d="M172.3,67.39a98.87,98.87,0,0,1-9.41-5.89c-2.82-1.89-6.33-4.24-10.44-6.87l-1.07-.69-1.07.69c-4.13,2.64-7.65,5-10.48,6.88a94,94,0,0,1-9.39,5.87,98.77,98.77,0,0,1,2.81-11.09c.89-3.17,2-7.1,3.22-11.64l.32-1.22-1-.81c-4.27-3.54-7.94-6.41-10.89-8.72a86.9,86.9,0,0,1-7.44-6.17c2.17-.47,7.42-.67,13.35-.89,2.77-.1,5.9-.22,9.46-.38a3,3,0,0,0,2.82-2.06c1-2.59,2-5.24,2.95-7.8,1.7-4.52,3.46-9.2,5.29-13.74v0a4.15,4.15,0,0,1,.33.72l0,0c2.53,6.57,5,13.06,7.9,20.78a3,3,0,0,0,2.89,2.08c3.65.17,6.86.29,9.7.39,5.8.21,10.94.4,13.1.86a89.74,89.74,0,0,1-7.45,6.15c-3,2.31-6.64,5.18-10.93,8.72l-1,.81.33,1.23c1.2,4.51,2.31,8.44,3.21,11.59A99,99,0,0,1,172.3,67.39Z"/>
        <g>
          <path class="cls-7" d="M185.31,27.7a31.86,31.86,0,0,1-2.37,2.13l-.83.67c-1.27,1-2.74,2.17-4.25,3.35l-.12.09-1.69,1.32h0l-1.25,1-2.43,1.92-.56.44-2.19,1.76-.51.41c-.18.16-.37.31-.56.46l-.88.73-.73.6-1,.81.32,1.23c.2.72.39,1.43.58,2.12h0c0,.16.08.32.13.48s.06.26.1.38l.06.21c.37,1.36.73,2.65,1.07,3.87l.3,1.09.24.86.74,2.58c.64,2.27,1.25,4.42,1.74,6.27.12.43.22.84.32,1.23s.22.87.31,1.27c.06.24.11.48.16.71.14.67.24,1.24.29,1.7A27.39,27.39,0,0,1,169.84,66l-1-.61c-.43-.26-.87-.55-1.33-.84l-1.36-.9-3.28-2.18-1.06-.71-1-.68L157.68,58l-1-.65c-1.33-.87-2.74-1.79-4.23-2.74l-.18-.12-.89-.57-.13.08-.94.61c-3.65,2.33-6.82,4.44-9.47,6.2l-1,.68-2.53,1.68a64.59,64.59,0,0,1-6.86,4.19,33.94,33.94,0,0,1,.82-3.91l.35-1.32c.47-1.75,1-3.75,1.63-5.85v0c.18-.62.37-1.28.56-2,.79-2.78,1.7-6,2.67-9.66l.32-1.23-.53-.44-.06,0-.38-.32-1.1-.9-1.82-1.49-2.27-1.83h0l-2.24-1.77-1.09-.87-1.86-1.45-.51-.4-.51-.4-1-.78-.6-.47-.77-.61a48.79,48.79,0,0,1-4.56-3.92c2.17-.46,7.42-.66,13.35-.88l3.12-.12,1.22-.05,1.74-.07,2.35-.1,1,0h.13a3,3,0,0,0,1.74-.66v0a3.29,3.29,0,0,0,.94-1.37l.18-.49.48-1.27h0c.46-1.18.91-2.37,1.35-3.55h0c.28-.74.56-1.48.83-2.21,0-.09.07-.19.11-.28,1.7-4.53,3.46-9.2,5.28-13.75h0a4.15,4.15,0,0,1,.33.72v0c1,2.61,2,5.2,3,7.86.22.58.45,1.17.67,1.76h0c.09.23.18.46.26.69h0l.51,1.33h0c.23.61.47,1.23.7,1.86h0l.3.77h0c.48,1.29,1,2.6,1.48,3.94l.32.84c.22.57.43,1.15.65,1.73a3.43,3.43,0,0,0,.59,1,2.39,2.39,0,0,0,.46.44,2.88,2.88,0,0,0,1.45.57h0l.39,0h.38l.83,0,1.37.06,7.11.28.64,0c2.7.1,5.24.2,7.37.32A39.05,39.05,0,0,1,185.31,27.7Z"/>
          <path class="cls-8" d="M184.44,33.35a10.22,10.22,0,0,0-1.5-3.52,9.72,9.72,0,0,0-2.73-2.65c-.31-.2-.63-.39-1-.56a1.58,1.58,0,0,1-.43-.34,6.33,6.33,0,0,1-1.75-4.4c0-.61,0-1.22,0-1.83s-.21-.8-.84-.77a2.19,2.19,0,0,0-1.45.75,5.92,5.92,0,0,0-1.59,5.16c.05.39.19.77.28,1.16l-.37.29-.27.22A4.54,4.54,0,0,0,171.36,29a3,3,0,0,0,.18,2.28,2,2,0,0,0,1.54,1.11,3.6,3.6,0,0,0-.16.39.59.59,0,0,1-.37.37,2.88,2.88,0,0,1-2.5.05.84.84,0,0,1-.52-.49,15.85,15.85,0,0,0-4.44-6.15l-.47-.39c-.38-.3-.79-.58-1.18-.87.06-.38.13-.76.19-1.16a4.44,4.44,0,0,1,.49-.24c.36-.12.74-.21,1.11-.31s.38-.14.37-.45a2.1,2.1,0,0,0-.09-.71A3.67,3.67,0,0,0,162.6,20c0-.32-.06-.66-.11-1A7.18,7.18,0,0,0,161,15.39a3.15,3.15,0,0,0-1.18-.93,1.47,1.47,0,0,0-1.69.27l-.26.24-.26-.55a7.33,7.33,0,0,0-1.17-1.8,4.58,4.58,0,0,0-1.66-1.17,4.26,4.26,0,0,0-1.41-.29,7,7,0,0,0-2.84.47,2.78,2.78,0,0,0-.84.51,1.1,1.1,0,0,0,0,1.81c.15.14.32.26.49.41l-.12.07a16.13,16.13,0,0,0-3,1.67c-.35.25-.69.5-1,.77a12.07,12.07,0,0,0-2.24,2.33,6.56,6.56,0,0,0-1.11,2.45,3.19,3.19,0,0,0-.06,1.34,1,1,0,0,0,.75.91,1.27,1.27,0,0,0,.68-.07,8.57,8.57,0,0,0,1.12-.59s0,0,0,0,0,.24-.06.35a10.22,10.22,0,0,0,.13,4.73,4.6,4.6,0,0,0,1,2,1.42,1.42,0,0,0,2.28,0,5.09,5.09,0,0,0,.69-1,9.68,9.68,0,0,0,.49-1c.38.6.76,1.13,1.06,1.7a3.49,3.49,0,0,1,0,3.43,8.39,8.39,0,0,1-.54.83,1.2,1.2,0,0,1-1.15.69.25.25,0,0,0-.12,0,11.11,11.11,0,0,0-3.53,1.25l-.66.35c0-.12,0-.19,0-.25a17.5,17.5,0,0,0,.06-5.11,10.19,10.19,0,0,0-2.48-5.45s-.08-.06-.15-.13h0v0a15.34,15.34,0,0,1,.2,3.15,9,9,0,0,1-.65,3,2.28,2.28,0,0,1-.09-.51,14.7,14.7,0,0,0-1.2-5h0a11.13,11.13,0,0,0-5.59-5.83,8.15,8.15,0,0,0-5.23-.68A4.83,4.83,0,0,0,126.45,22c-.08.11-.13.23-.21.36.39-.05.73-.12,1.07-.14a5.78,5.78,0,0,1,3.61,1A8.74,8.74,0,0,1,134,26.71a11.94,11.94,0,0,1,.78,2.1.12.12,0,0,0-.05.05l-.15-.07a11.45,11.45,0,0,0-2.42-1.08,8.07,8.07,0,0,0-6.57.63,9.66,9.66,0,0,0-3.5,3.29,10.26,10.26,0,0,0-1.42,3.93,7.63,7.63,0,0,0,.35,3.65,1.61,1.61,0,0,0,.08-.23,6,6,0,0,1,4.3-4.67l.08,0a4.67,4.67,0,0,1,3.27.13,3.76,3.76,0,0,1,1.38,1,6.4,6.4,0,0,0-2.79.3,6.72,6.72,0,0,0-2.26,1.37,8.51,8.51,0,0,0-2,2.73,11.36,11.36,0,0,0-1,6.89,11.22,11.22,0,0,0,.9,2.92s.06,0,.06-.07a.2.2,0,0,0,0-.11,12.28,12.28,0,0,1,2.83-6A5.85,5.85,0,0,1,128,41.82l.26-.08c-.2.35-.38.64-.54.94a12,12,0,0,0-1.21,5.42,11.6,11.6,0,0,0,.36,3,9.72,9.72,0,0,0,3.64,5.58,1.89,1.89,0,0,0,.25.11.76.76,0,0,0,0-.15,10.8,10.8,0,0,1-.64-4.68,11.4,11.4,0,0,1,.81-3.35c0-.09.09-.17.17-.34,0,.23,0,.36,0,.49a13.32,13.32,0,0,0,.72,4.85,7.52,7.52,0,0,0,1.48,2.69,4.18,4.18,0,0,0,1.05.84,3.38,3.38,0,0,0,0,.45,1.14,1.14,0,0,1-.22.77,13.11,13.11,0,0,0-.71,1.46,5.82,5.82,0,0,1-.33,1,4.19,4.19,0,0,1-.8.7,5.51,5.51,0,0,0-.62.66,2.51,2.51,0,0,0-.33.55.9.9,0,0,0,0,.77.85.85,0,0,0,.56.41,3.3,3.3,0,0,0,.94.15,9.4,9.4,0,0,0,2.36-.27c.74-.16,1.46-.35,2.18-.57l2.53-1.68,1-.68c2.65-1.76,5.82-3.87,9.47-6.2l.94-.61.13-.08.89.57.18.12c1.49,1,2.9,1.87,4.23,2.74l1,.65,3.14,2.08,1,.68a7.58,7.58,0,0,0,1.86-4.05.46.46,0,0,1,.31-.4c.79-.37,1.59-.73,2.36-1.15a18.35,18.35,0,0,0,2.38-1.55,14.78,14.78,0,0,0,2.94-3c.28-.39.53-.79.77-1.16.77-.1,1.51-.17,2.24-.3a11.43,11.43,0,0,0,6.35-3.38A13,13,0,0,0,184.44,33.35ZM130.73,56.79v.05l.05,0Zm0,0h0Z"/>
          <path class="cls-9" d="M184.44,33.35a10.22,10.22,0,0,0-1.5-3.52,9.72,9.72,0,0,0-2.73-2.65c-.31-.2-.63-.39-1-.56a1.58,1.58,0,0,1-.43-.34,6.33,6.33,0,0,1-1.75-4.4c0-.61,0-1.22,0-1.83s-.21-.8-.84-.77a2.19,2.19,0,0,0-1.45.75,5.92,5.92,0,0,0-1.59,5.16c.05.39.19.77.28,1.16l-.37.29-.27.22A4.54,4.54,0,0,0,171.36,29a3,3,0,0,0,.18,2.28,2,2,0,0,0,1.54,1.11,3.6,3.6,0,0,0-.16.39.59.59,0,0,1-.37.37,2.88,2.88,0,0,1-2.5.05.84.84,0,0,1-.52-.49,15.85,15.85,0,0,0-4.44-6.15l-.47-.39c-.38-.3-.79-.58-1.18-.87.06-.38.13-.76.19-1.16a4.44,4.44,0,0,1,.49-.24c.36-.12.74-.21,1.11-.31s.38-.14.37-.45a2.1,2.1,0,0,0-.09-.71A3.67,3.67,0,0,0,162.6,20c0-.32-.06-.66-.11-1A7.18,7.18,0,0,0,161,15.39a3.15,3.15,0,0,0-1.18-.93,1.47,1.47,0,0,0-1.69.27l-.26.24-.26-.55a7.33,7.33,0,0,0-1.17-1.8,4.58,4.58,0,0,0-1.66-1.17,4.26,4.26,0,0,0-1.41-.29,7,7,0,0,0-2.84.47,2.78,2.78,0,0,0-.84.51,1.1,1.1,0,0,0,0,1.81c.15.14.32.26.49.41l-.12.07a16.13,16.13,0,0,0-3,1.67c-.35.25-.69.5-1,.77a12.07,12.07,0,0,0-2.24,2.33,6.56,6.56,0,0,0-1.11,2.45,3.19,3.19,0,0,0-.06,1.34,1,1,0,0,0,.75.91,1.27,1.27,0,0,0,.68-.07,8.57,8.57,0,0,0,1.12-.59h.08l0,.05c0,.12,0,.24-.06.35a10.22,10.22,0,0,0,.13,4.73,4.6,4.6,0,0,0,1,2,1.42,1.42,0,0,0,2.28,0,5.09,5.09,0,0,0,.69-1,9.68,9.68,0,0,0,.49-1c.38.6.76,1.13,1.06,1.7a3.49,3.49,0,0,1,0,3.43,8.39,8.39,0,0,1-.54.83,1.2,1.2,0,0,1-1.15.69.25.25,0,0,0-.12,0,11.11,11.11,0,0,0-3.53,1.25l-.66.35c0-.12,0-.19,0-.25a17.5,17.5,0,0,0,.06-5.11,10.19,10.19,0,0,0-2.48-5.45s-.08-.06-.15-.13h0v0a15.34,15.34,0,0,1,.2,3.15,9,9,0,0,1-.65,3,2.28,2.28,0,0,1-.09-.51,14.7,14.7,0,0,0-1.2-5h0a11.13,11.13,0,0,0-5.59-5.83,8.15,8.15,0,0,0-5.23-.68A4.83,4.83,0,0,0,126.45,22c-.08.11-.13.23-.21.36.39-.05.73-.12,1.07-.14a5.78,5.78,0,0,1,3.61,1A8.74,8.74,0,0,1,134,26.71a11.94,11.94,0,0,1,.78,2.1l0,.09-.07,0-.15-.07a11.45,11.45,0,0,0-2.42-1.08,8.07,8.07,0,0,0-6.57.63,9.66,9.66,0,0,0-3.5,3.29,10.26,10.26,0,0,0-1.42,3.93,7.63,7.63,0,0,0,.35,3.65,1.61,1.61,0,0,0,.08-.23,6,6,0,0,1,4.3-4.67l.08,0a4.67,4.67,0,0,1,3.27.13,3.76,3.76,0,0,1,1.38,1,6.4,6.4,0,0,0-2.79.3,6.72,6.72,0,0,0-2.26,1.37,8.51,8.51,0,0,0-2,2.73,11.36,11.36,0,0,0-1,6.89,11.22,11.22,0,0,0,.9,2.92s.06,0,.06-.07a.2.2,0,0,0,0-.11,12.28,12.28,0,0,1,2.83-6A5.85,5.85,0,0,1,128,41.82l.26-.08c-.2.35-.38.64-.54.94a12,12,0,0,0-1.21,5.42,11.6,11.6,0,0,0,.36,3,9.72,9.72,0,0,0,3.64,5.58,1.89,1.89,0,0,0,.25.11.76.76,0,0,0,0-.15,10.8,10.8,0,0,1-.64-4.68,11.4,11.4,0,0,1,.81-3.35c0-.09.09-.17.17-.34,0,.23,0,.36,0,.49a13.32,13.32,0,0,0,.72,4.85,7.52,7.52,0,0,0,1.48,2.69,4.18,4.18,0,0,0,1.05.84,3.38,3.38,0,0,0,0,.45,1.14,1.14,0,0,1-.22.77,13.11,13.11,0,0,0-.71,1.46,5.82,5.82,0,0,1-.33,1,4.19,4.19,0,0,1-.8.7,5.51,5.51,0,0,0-.62.66,2.51,2.51,0,0,0-.33.55.9.9,0,0,0,0,.77.85.85,0,0,0,.56.41,3.3,3.3,0,0,0,.94.15,9.4,9.4,0,0,0,2.36-.27c.74-.16,1.46-.35,2.18-.57l2.53-1.68,1-.68a32.45,32.45,0,0,1-5.43,1.65,10.85,10.85,0,0,1-2.48.29c-.18,0-.36,0-.57-.07a2.25,2.25,0,0,1,.73-1c.16-.16.31-.32.48-.47a27.13,27.13,0,0,1,4.19-2.85c1.92-1.09,3.87-2.11,5.81-3.16a2.69,2.69,0,0,0,.27-.2c-.4.13-.81.23-1.2.38a36.64,36.64,0,0,0-7.41,3.7c-.42.28-.81.59-1.22.88l-.08.06,0-.12a12.7,12.7,0,0,1,2.28-3.07c.37-.39.78-.75,1.17-1.12a34.29,34.29,0,0,1,3.83-3c1-.72,2.07-1.42,3.1-2.13l.17-.16h0l-.11,0h-.17a25,25,0,0,0-8.51,5.8,1,1,0,0,1-.17.14,5.12,5.12,0,0,1,.89-2.23l.1-.11h0c.23-.34.43-.69.68-1a29.69,29.69,0,0,1,4.58-4.66c1.16-1,2.39-1.84,3.58-2.76.09-.07.16-.16.25-.23a2.77,2.77,0,0,0-.41.12,21.53,21.53,0,0,0-4.77,3.06,25.26,25.26,0,0,0-4.56,4.85c-.11.15-.21.31-.37.54a1.32,1.32,0,0,1,.05-.32,10.88,10.88,0,0,1,1.55-3.24s0,0,.06,0h0a1.09,1.09,0,0,0,.08-.15h0c.41-.56.79-1.13,1.22-1.66a34.45,34.45,0,0,1,5.13-4.9l1.32-1h0l-.08,0h0a.79.79,0,0,0-.22.05,14.27,14.27,0,0,0-3.27,2.16,31.4,31.4,0,0,0-4.79,5.12l-.25.3-.06.11h0a.75.75,0,0,1,0-.16c.21-.67.41-1.35.62-2a20.63,20.63,0,0,1,7.48-10,11.87,11.87,0,0,1,4.66-2,6.37,6.37,0,0,1,2.88.08,4.79,4.79,0,0,1,3.27,3.1,9.13,9.13,0,0,1,.57,3.19c0,.25,0,.5,0,.75a14.38,14.38,0,0,1-1.32,6.12A16.67,16.67,0,0,1,151.26,54l.13-.08.89.57a17.89,17.89,0,0,0,4-8,17.67,17.67,0,0,0,.3-5.38c-.06-.59-.13-1.18-.2-1.75l1.28-1a2.79,2.79,0,0,0,2.72,2.24,2.37,2.37,0,0,0,2.36-1.79l.18.26a2.15,2.15,0,0,0,3.55.1,3.58,3.58,0,0,0,.68-1.59c0-.1.05-.2.08-.33a2.31,2.31,0,0,0,2.06.31c.75-.31.92-1,1.1-1.71l.51,1,.14.26c0,.06,0,.11.08.16a2,2,0,0,0,.13.25,2.4,2.4,0,0,0,.11.23c0,.12.11.23.16.35l.05.11c.07.15.13.3.19.45h0l.06.14h0l.12.32,0,.06c0,.07,0,.15.08.22.15.43.29.86.4,1.3l.07.25.09.43c0,.06,0,.13,0,.19l0,.17.06.33a.78.78,0,0,0,0,.16c0,.12,0,.24,0,.36s0,.09,0,.13,0,.13,0,.19v.06s0,.06,0,.09a.86.86,0,0,0,0,.16c0,.08,0,.15,0,.23v.11a1.09,1.09,0,0,1,0,.18v.22c0,.19,0,.38,0,.57a10.18,10.18,0,0,1-1.27,4.5c0,.08-.1.15-.15.23a7.89,7.89,0,0,1-1.26,1.82,14.7,14.7,0,0,1-1.73,1.71,16.63,16.63,0,0,1-2.79,1.88,22.69,22.69,0,0,1-7.64,2.56c-.46.07-.92.12-1.39.16l1,.65a28.88,28.88,0,0,0,4.86-1.18,5.08,5.08,0,0,1-1.18,2.83,2,2,0,0,1-.54.43l1,.68a7.58,7.58,0,0,0,1.86-4.05.46.46,0,0,1,.31-.4c.79-.37,1.59-.73,2.36-1.15a18.35,18.35,0,0,0,2.38-1.55,14.78,14.78,0,0,0,2.94-3c.28-.39.53-.79.77-1.16.77-.1,1.51-.17,2.24-.3a11.43,11.43,0,0,0,6.35-3.38A13,13,0,0,0,184.44,33.35ZM174.26,22.69a4.39,4.39,0,0,1,1.2-2.15.83.83,0,0,1,.81-.29,7.25,7.25,0,0,0,.9,5.79l-1.77-.11-1.2.22A5.6,5.6,0,0,1,174.26,22.69ZM143.71,36.75a2.23,2.23,0,0,1-.77,1.25,25.67,25.67,0,0,0-4.07,4.39c-.26.43-.49.88-.78,1.29a17.63,17.63,0,0,0-2.66,5.91c-.12.47-.23.95-.34,1.43a4.32,4.32,0,0,1-.44,1.18,4,4,0,0,0-.51,2.06,3.63,3.63,0,0,1,0,.57c-.11-.18-.2-.35-.3-.53s-.12-.24-.17-.36a.89.89,0,0,1-.08-.17l-.08-.15s0,0,0-.06l-.06-.14-.08-.18-.06-.15c-.06-.14-.11-.28-.16-.41l-.06-.16-.06-.2-.11-.33a.83.83,0,0,0,0-.15l-.06-.23,0-.12c0-.15-.07-.3-.11-.44a.51.51,0,0,0,0-.13l0-.17a1.42,1.42,0,0,1,0-.2l0-.17c0-.2,0-.4-.07-.6s0-.09,0-.14,0-.12,0-.18a1,1,0,0,1,0-.17,11.82,11.82,0,0,1,.06-2.22c0-.13,0-.26,0-.39l0-.17c0-.16.05-.32.08-.47s.08-.43.13-.64.17-.67.28-1c0-.12.07-.24.11-.36-.37.25-.67.43-.94.65a7.54,7.54,0,0,0-2.58,4.1,12.39,12.39,0,0,0-.35,4.33c0,.58.12,1.16.12,1.77-.22-.4-.46-.79-.67-1.2A12.67,12.67,0,0,1,127.4,48a.8.8,0,0,1,0-.15,9.5,9.5,0,0,1,2-6.13,3.33,3.33,0,0,1,1.75-1.17s.07-.06.11-.09c-.3-.08-.59-.18-.88-.24a4.27,4.27,0,0,0-2.8.52,8.56,8.56,0,0,0-2.42,2,13.39,13.39,0,0,0-2,3.12l-.11.21-.06,0a15.53,15.53,0,0,1,.26-3.47,9,9,0,0,1,1.28-3.38l.11-.15.1-.14h0l.11-.14.11-.13c.11-.14.23-.26.35-.39a1.36,1.36,0,0,1,.12-.12l.25-.22.12-.11.13-.1.11-.08.08,0,.22-.16.12-.07,0,0,.11-.06,0,0,.1-.06.11-.05a4.31,4.31,0,0,1,.49-.22l.08,0,.1,0,.14,0,.15-.05h0l.14,0,.15,0,.14,0h0l.12,0,.09,0,.08,0h0l.11,0,.17,0h0l.17,0a8.6,8.6,0,0,1,2.68.07,2.42,2.42,0,0,0-.44-1.25,4.78,4.78,0,0,0-3.07-2.15,6.27,6.27,0,0,0-1.46-.18h-.43c-.12,0-.23,0-.34,0l-.14,0-.09,0h-.06l-.34.07-.06,0-.2.06-.13,0-.14,0-.21.08-.07,0-.14.06-.1,0-.15.07-.16.08-.19.11-.1.06a.41.41,0,0,0-.11.07,7.55,7.55,0,0,0-.76.54c-.42.34-.78.75-1.21,1.16a5.34,5.34,0,0,1,.47-2,.47.47,0,0,1,.06-.15,6.11,6.11,0,0,1,.27-.58l0-.1a.25.25,0,0,0,0-.07l.08-.13h0l.09-.14.07-.11,0-.06h0L123,32l.09-.11,0,0,0,0,0,0,.08-.1.2-.24.12-.13.16-.17c.06-.05.11-.11.16-.16l.34-.31a8.41,8.41,0,0,1,5-2.21,7.11,7.11,0,0,1,6.19,2.63c.22.25.41.52.62.78.06.07.14.14.21.21,0-.65,0-1.3-.07-1.94,0-.08,0-.16,0-.24a2.34,2.34,0,0,0,0-.26s0-.05,0-.08,0-.07,0-.11,0-.14,0-.2a.09.09,0,0,0,0-.05l0-.16,0-.11a1.16,1.16,0,0,0,0-.18c0-.07,0-.13,0-.2a.83.83,0,0,1,0-.15,2.5,2.5,0,0,1-.07-.26.14.14,0,0,1,0-.06h0a.93.93,0,0,1,0-.13c0-.09,0-.17-.08-.25l-.15-.42,0-.11a.42.42,0,0,0,0-.1l-.07-.18h0l0-.06h0c0-.05,0-.1-.07-.16l-.06-.14a.83.83,0,0,0-.07-.13h0l-.13-.27v0l-.21-.38,0-.05a1.76,1.76,0,0,0-.14-.23h0l-.08-.13-.08-.13-.09-.13-.09-.13-.09-.12-.09-.12c-.1-.15-.22-.29-.33-.43l-.18-.2q-.15-.18-.33-.36l-.08-.09-.15-.15-.41-.38-.18-.15-.1-.08,0,0-.11-.09a5.86,5.86,0,0,0-4.1-1.36,3.26,3.26,0,0,1,1.06-.37,7.79,7.79,0,0,1,5,.28,9.24,9.24,0,0,1,4.18,3.49l.13.19,0,0,.28.45c0,.06.07.12.1.19a1,1,0,0,1,.1.17.56.56,0,0,0,0,.08c0,.07.07.13.1.19l.23.45.09.21.09.2h0l.09.2.09.22a1.8,1.8,0,0,1,.08.21,2.49,2.49,0,0,1,.11.29l0,.13c0,.07.05.14.07.22a1.72,1.72,0,0,1,.07.21,1.54,1.54,0,0,1,0,.17.56.56,0,0,1,0,.12c0,.13.07.25.11.37a1.94,1.94,0,0,0,.05.2c0,.15.08.31.11.47a1.74,1.74,0,0,1,.05.22,20.8,20.8,0,0,1,.4,5.89,1.86,1.86,0,0,1-.07.34,2.41,2.41,0,0,0,0,.41c.08-.14.14-.19.15-.26.13-.58.27-1.16.38-1.74a1.36,1.36,0,0,1,.3-.67,6.81,6.81,0,0,0,1.44-3.1,6.49,6.49,0,0,0,.16-2c0-.06,0-.12,0-.25a5.45,5.45,0,0,1,.6,1.69A15.35,15.35,0,0,1,143.71,36.75Zm21-14.67c.14.24.25.49.39.77a4.61,4.61,0,0,0-2.09.85c-.79.5-1.56,1-2.36,1.48l-.16.1,0,0-.2.1h0l-.17.09-.34.15-.18.08c-.12,0-.23.09-.35.12l-.13.05-.51.14-.49.09-.17,0h-.67a5.62,5.62,0,0,1-.7-.05c-.33,0-.67-.11-1-.14a2.85,2.85,0,0,0,1.53.55l.27,0h1.25l.11,0h0l.09,0a5,5,0,0,0,.67-.16l.1,0a7.77,7.77,0,0,0,.76-.28l.15-.06.2-.09.48-.23c.48-.25.94-.55,1.46-.86,0,.22-.07.4-.11.57s-.11.4-.17.59a.3.3,0,0,0,0,.1l0,.07,0,.08a2.72,2.72,0,0,1-.11.25h0s0,0,0,0a.47.47,0,0,1-.05.1v0l0,.09,0,0-.06.11a1.09,1.09,0,0,1-.08.15c-.08.13-.16.26-.25.39l-.08.1a1,1,0,0,1-.68.43,6.52,6.52,0,0,1-4.31-.69,6,6,0,0,1-2-1.82l-.05,0,.07,0c.24,0,.47.07.71.09A3.15,3.15,0,0,0,158,24.28l.14-.16a.44.44,0,0,0,.08-.11l0,0,.07-.09,0-.05h0l.08-.12h0l.08-.11,0,0s.05-.09.08-.14.09-.17.14-.26l0-.07v0a1,1,0,0,0,0-.1l.06-.13,0-.08s0-.07,0-.11l0-.05c0-.11.08-.23.11-.34l0-.11.06-.22,0-.15a.59.59,0,0,1,.39-.49,6.93,6.93,0,0,1,2.49-.63A2.76,2.76,0,0,1,164.67,22.08Zm-3.87,9.86c.19.07.38.11.57.17a.52.52,0,0,1,.41.56,1.84,1.84,0,0,1-2.34,1.78,3.48,3.48,0,0,1-2-1.49,9.21,9.21,0,0,1-1.34-3.37,6.75,6.75,0,0,1-.13-2c.16.1.3.19.45.27a5.91,5.91,0,0,0,2.68.76c.57,0,1.14,0,1.71,0a.41.41,0,0,1,.39.14,1.05,1.05,0,0,0,1.2.29c.36-.11.72-.27,1.07-.41a.71.71,0,0,1,.82,0,.79.79,0,0,1,.21.84,2.46,2.46,0,0,1-1.28,1.64,3.86,3.86,0,0,1-1.58.47,2.53,2.53,0,0,1-1.7-.56l-.32-.23,0,0A1.92,1.92,0,0,0,160.8,31.94Zm-1.32-13a2,2,0,0,1,.08-.26c.2-.5.55-.56.9-.15a3.09,3.09,0,0,1,.59,1.49c0,.07-.08.16-.12.24s-.1-.05-.11-.07c-.16-.43-.16-.43-.63-.42H160s0,0-.11-.06c.12-.15.23-.3.35-.44C160,18.94,160,18.94,159.48,18.94ZM148.7,23.79a6.82,6.82,0,0,0,.24,2.34.87.87,0,0,1,0,.32,8.3,8.3,0,0,1-.41,2.21,2.93,2.93,0,0,1-.37.7.69.69,0,0,1-1.15.11,3,3,0,0,1-.53-.82,6.48,6.48,0,0,1-.49-2.12c0-.61-.08-1.22-.06-1.82a6.79,6.79,0,0,1,.45-2.53A11.88,11.88,0,0,1,147,21c.38-.68.78-1.36,1.16-2,.1-.2.16-.42.24-.63,0,0,0,0,0,0-.63.7-1.26,1.4-1.9,2.09s-1.17,1.26-1.77,1.88a1.62,1.62,0,0,1-.91.51s0-.06,0-.09h0a3,3,0,0,1,.12-1.2.74.74,0,0,1,0-.14s0,0,0-.06,0-.08,0-.13a.56.56,0,0,1,0-.12l0-.09,0-.07c0-.13.11-.25.16-.37l.06-.11.07-.13,0-.07.06-.1.07-.11h0l.09-.14.1-.16.1-.14a.56.56,0,0,1,.05-.08l.14-.19.1-.13h0l.35-.42A14.4,14.4,0,0,1,150.62,15a.8.8,0,0,1,.57-.05,6.56,6.56,0,0,0,.75.12,4.86,4.86,0,0,0-.88-.92c-.24-.22-.49-.42-.71-.65s-.28-.59.14-.81a4.56,4.56,0,0,1,2.39-.51h.23l.2,0,.15,0h0l.14,0,.09,0,.37.12.09,0,.11,0h0l.11.05.11.06h0l.11.06.06,0,.09,0,.06,0,.07,0,.26.18.08.06.08.07.08.06,0,0a6.07,6.07,0,0,1,1.89,3.24c.09.34.13.69.2,1l-.31-.2-.3-.2,0,0-.54-.37a1,1,0,0,1-.21-.28,3.58,3.58,0,0,0-.92-1.23,1.84,1.84,0,0,0-2.31-.14A3.48,3.48,0,0,0,151.54,17a.85.85,0,0,1-.3.44,5.18,5.18,0,0,0-1.47,2A11.55,11.55,0,0,0,148.7,23.79ZM168.88,37a1.79,1.79,0,0,1-1.58-.55c-.07-.06-.09-.19-.13-.28-.26-.62-.51-1.25-.78-1.87a4.08,4.08,0,0,0-.28-.44l-.08,0a1.21,1.21,0,0,0,.05.18,6.46,6.46,0,0,1,.3,3.4,2.79,2.79,0,0,1-.32.89,1.24,1.24,0,0,1-2,.36,5.63,5.63,0,0,1-.78-.84c-.3-.35-.58-.71-.89-1.12-.13.41-.22.76-.34,1.09a3.2,3.2,0,0,1-.79,1.27,1.44,1.44,0,0,1-2,0,3.71,3.71,0,0,1-1-1.88c-.09-.31-.14-.64-.22-1a2.88,2.88,0,0,1-2,2,7.68,7.68,0,0,0-1.54-2.15l-1-.64c-.38-.11-.75-.24-1.14-.33s-.75-.1-1.18-.16a3.77,3.77,0,0,0,.26-.39,16.92,16.92,0,0,0,.82-1.58,3.19,3.19,0,0,0-.16-2.87c-.28-.49-.6-1-.92-1.44A5.75,5.75,0,0,1,150,26.36c-.06-.44-.09-.89-.13-1.33a.06.06,0,0,1,0-.06l0-.19a10.17,10.17,0,0,1,.52-4.61,4.19,4.19,0,0,1,1.05-1.55,2.93,2.93,0,0,1,0,.3,9.76,9.76,0,0,0,.15,2.53l.07.18c0-.75,0-1.51.1-2.26a5.62,5.62,0,0,1,.77-2.55,2.66,2.66,0,0,1,.84-.83,1.36,1.36,0,0,1,1.91.29,5.68,5.68,0,0,1,.83,1.43l.33.71h0c0-.36,0-.73-.09-1.18.27.24.55.42.81.63h0l.12.11,0,.05a1,1,0,0,1,.17.18l.06.08.05.09a.25.25,0,0,1,0,.07.36.36,0,0,1,0,.09s0,0,0,0l0,.07a2,2,0,0,0,.37-1.07c0-.42,0-.85.07-1.27a1,1,0,0,1,1.48-.89,2.63,2.63,0,0,1,.81.68,7.59,7.59,0,0,1,1.45,3.6,1,1,0,0,1,0,.24.49.49,0,0,1,0,.12l-.45,0-.09-.42a3.93,3.93,0,0,0-1.06-2.13,1.06,1.06,0,0,0-.86-.34c-.31,0-.48.21-.54.59.23-.09.36-.38.65-.28a1.07,1.07,0,0,1,.56.45c-.61,0-.82.13-1,.7a3.62,3.62,0,0,0,.07,2.11,1.21,1.21,0,0,0,.05.18s0,.07-.05.08a.92.92,0,0,0-.53.75h0l0,.14s0,0,0,.07l0,.11-.06.18,0,.12h0l0,.1a.36.36,0,0,0,0,.09,1,1,0,0,1-.07.15l-.06.14s0,.07-.05.1a.41.41,0,0,1-.05.09,1.62,1.62,0,0,1-.1.18l-.06.09-.11.17-.07.08-.05.07,0,0-.07.08s0,0,0,.05l-.12.13-.07.06-.05.06-.22.18-.08.06-.09.06-.1.07-.09.06a3.07,3.07,0,0,1-2.54.24,1.89,1.89,0,0,1,1.52-.48,1.63,1.63,0,0,0-2.09.14,1.83,1.83,0,0,0-.46,2.31A2.74,2.74,0,0,1,154,25a4.3,4.3,0,0,0,1.68,2.36c0,.57-.09,1.12-.13,1.67a9,9,0,0,0,.73,3.39,5.32,5.32,0,0,0,1.79,2.27,3.24,3.24,0,0,0,2.75.51,2.22,2.22,0,0,0,1.09-.75,3.56,3.56,0,0,0,.32-2.12l.37-.09a3.53,3.53,0,0,0,2.4-1.92,2,2,0,0,0,.2-1.42,1.23,1.23,0,0,0-1.66-.89c-.3.11-.59.28-.9.41a.94.94,0,0,1-1,0l.1-.12.08-.09,0,0,.05-.07.09-.12.09-.12.1-.14c.09-.15.19-.3.27-.45a1.28,1.28,0,0,0,.11-.2,4.16,4.16,0,0,0,.23-.42s.05-.09.07-.14.17-.33.25-.5l.58.54.83.8A18.55,18.55,0,0,1,168,31.86a15.72,15.72,0,0,1,1.36,3.59,5.42,5.42,0,0,1,.17.8A.67.67,0,0,1,168.88,37Zm13.67,5.14c-.1.21-.24.41-.36.61l-.05.07,0,.06a6.43,6.43,0,0,1-1.56,1.88,15.51,15.51,0,0,1-5.85,3.1,3.62,3.62,0,0,1-1.62.12c.09-.34.17-.67.24-1s.09-.5.13-.74a13.85,13.85,0,0,0,.17-2.2v-.19c0-.21,0-.42,0-.62s0-.18,0-.26c0-.27-.05-.54-.09-.8,0-.06,0-.12,0-.18l0-.17c0-.24-.08-.48-.14-.72,0-.07,0-.15-.05-.23-.05-.24-.12-.48-.19-.72l-.06-.2a2,2,0,0,0-.07-.23c0-.08-.05-.15-.07-.23l-.11-.3-.06-.15c-.05-.15-.11-.3-.17-.45a1,1,0,0,0-.07-.15l-.09-.23-.06-.12s0-.09-.05-.13l-.06-.12-.07-.15-.07-.15-.29-.55-.12-.22c-.11-.2-.22-.4-.34-.6l-.09-.15a.35.35,0,0,1-.05-.08l-.09-.14,0-.06-.12-.19-.12-.19-.18-.26-.18-.26-.12-.16a3.46,3.46,0,0,0-.22-.31,3.56,3.56,0,0,0,2.63-.08,5.65,5.65,0,0,0,.45.92.35.35,0,0,0,.05.08l.05.07,0,0,.05.06,0,0,.06.07.11.12a.69.69,0,0,0,.13.11l.06,0h0l0,0,.08,0,0,0a2,2,0,0,0,.44.2l.07,0,.12,0,.06,0,.17,0h0l.22,0a3,3,0,0,0,1.5,4.17,2.57,2.57,0,0,0,.17,2.52,1.73,1.73,0,0,0,.88.76h.08l.15,0h.06l.16,0-.06-.08a1.92,1.92,0,0,1,.37-3.29,1,1,0,0,1,.76,0,1.43,1.43,0,0,0,1.94-.87.3.3,0,0,0,0-.17,1.81,1.81,0,0,1-1.77.39A2.07,2.07,0,0,1,178,38.46a1.3,1.3,0,0,0,.14,1.19,1.56,1.56,0,0,1-2.06-.34,2.6,2.6,0,0,1-.49-2.43,1.19,1.19,0,0,1,.49-.71,4.63,4.63,0,0,1,2.55-1.34,11.27,11.27,0,0,1,1.54-.1.49.49,0,0,0,.27-.07l-.86-.25a6.24,6.24,0,0,0-2.15.24l-.16.05-.25.09-.11.05-.08,0-.07,0-.08,0-.11.05-.08,0-.08,0-.12.06-.12.08-.07,0h0l-.34.25a.63.63,0,0,1-.51.14,2,2,0,0,1-1.42-3,4.31,4.31,0,0,1,.39-.48,2.67,2.67,0,0,1,1.34-.79,7.29,7.29,0,0,1,3.41-.12.74.74,0,0,0,.39,0c-.15-.09-.3-.2-.46-.28s-.33-.16-.5-.24c-.34,0-.67-.13-1-.16a5.22,5.22,0,0,0-3.82,1.12A1.66,1.66,0,0,1,172.23,30a2.3,2.3,0,0,1,.52-1.58A3,3,0,0,1,175,27.06a7,7,0,0,1,4.78,1.05l.11.07.09.06.15.11a4.08,4.08,0,0,1,.39.31l.12.1h0l.1.09.08.08.08.07c.15.15.29.3.43.46l0,.05.09.1.05.06c.12.15.24.31.35.47l.11.16.12.19.07.12.14.24.06.12a4.44,4.44,0,0,1,.24.49A12.19,12.19,0,0,1,182.55,42.11ZM130.72,56.78h0Z"/>
          <path class="cls-9" d="M130.73,56.79l.05,0-.05,0v-.06Z"/>
          <path class="cls-10" d="M145.7,35.3l0,.05,0-.06Z"/>
          <path class="cls-11" d="M137.23,50.32c.41-.56.79-1.13,1.22-1.66a34.45,34.45,0,0,1,5.13-4.9l1.33-1.06H145l.93-.58,0-.07c-.39.1-.78.19-1.16.31a13.28,13.28,0,0,0-2.55,1.15,13.91,13.91,0,0,0-2.69,1.87,18.44,18.44,0,0,0-2.45,2.7,1.06,1.06,0,0,1-.23.19,20.63,20.63,0,0,1,7.48-10,11.87,11.87,0,0,1,4.66-2,6.37,6.37,0,0,1,2.88.08,4.79,4.79,0,0,1,3.27,3.1,9.13,9.13,0,0,1,.57,3.19c0,.25,0,.5,0,.75a3.43,3.43,0,0,0-.23.52,20.52,20.52,0,0,1-1.36,3.49c-.45.92-.94,1.81-1.43,2.7A10.76,10.76,0,0,1,151,52.32a25,25,0,0,1-2,2c-.78.67-1.6,1.29-2.43,1.89a33.7,33.7,0,0,1-5.29,3c-.53.25-1.06.49-1.59.7a40.11,40.11,0,0,1-4.37,1.48,6.67,6.67,0,0,1-2.17.36c.16-.16.31-.32.48-.47a27.13,27.13,0,0,1,4.19-2.85c1.92-1.09,3.87-2.11,5.81-3.17a1.65,1.65,0,0,0,.27-.19,2.64,2.64,0,0,0,.5-.15c.72-.35,1.44-.73,2.15-1.09a1.49,1.49,0,0,0,.2-.15,4.49,4.49,0,0,0-1,0c-.71.08-1.43.14-2.14.24a17.9,17.9,0,0,0-3.39.85c-.83.29-1.64.65-2.46,1-.07,0-.17.18-.26,0a34.29,34.29,0,0,1,3.83-3c1-.72,2.07-1.42,3.1-2.13a1.29,1.29,0,0,0,.17-.16h0l.08-.09a2.83,2.83,0,0,0,.31-.11c.09-.06.16-.15.24-.21l2.45-1.54.31-.21h-.6a18.33,18.33,0,0,0-3.76,1.14A22.13,22.13,0,0,0,139.2,52c-.85.62-1.62,1.34-2.44,2a.87.87,0,0,1-.24.1c.23-.34.43-.69.68-1a29.69,29.69,0,0,1,4.58-4.66c1.16-1,2.39-1.84,3.58-2.76.09-.07.16-.16.25-.23a2.17,2.17,0,0,0,.44-.19c.27-.17.52-.36.78-.54l.2-.18a2.12,2.12,0,0,0-.75,0,9.17,9.17,0,0,0-2.33.85,21.85,21.85,0,0,0-3,1.83,24.08,24.08,0,0,0-2.66,2.18c-.25.25-.5.51-.76.75A1.4,1.4,0,0,1,137.23,50.32Z"/>
          <path class="cls-12" d="M123.26,42.61a9,9,0,0,1,1.28-3.38,6.13,6.13,0,0,1,4.53-2.74,8.6,8.6,0,0,1,2.68.07,6.39,6.39,0,0,1,2.77,1.59c0-.07,0-.11,0-.14a16.16,16.16,0,0,0-.83-3,5.87,5.87,0,0,0-2.17-2.66,6.15,6.15,0,0,0-2.89-.95,8,8,0,0,0-3.43.43,8.86,8.86,0,0,0-3,1.76s-.1,0-.15,0a7.62,7.62,0,0,1,2.12-2.93,8.41,8.41,0,0,1,5-2.21,7.11,7.11,0,0,1,6.19,2.63c.22.25.41.52.62.78a2.08,2.08,0,0,0,.21.21l1,2.79a2.33,2.33,0,0,0,.11-.31c.13-.86.3-1.73.39-2.6a11.76,11.76,0,0,0-.17-3,12.3,12.3,0,0,0-.69-2.58,8.07,8.07,0,0,0-2.45-3.54,8.21,8.21,0,0,0-5-1.85,1.23,1.23,0,0,1-.32-.07,7.79,7.79,0,0,1,5,.28,9.24,9.24,0,0,1,4.18,3.49,14.5,14.5,0,0,1,2.17,5.21,20.8,20.8,0,0,1,.4,5.89,3.4,3.4,0,0,1-.07.34,2.41,2.41,0,0,0,0,.41c.08-.14.14-.19.15-.26.13-.58.27-1.16.38-1.74a1.36,1.36,0,0,1,.3-.67,6.86,6.86,0,0,0,1.44-3.1,6.49,6.49,0,0,0,.16-2c0-.06,0-.12,0-.25a5.45,5.45,0,0,1,.6,1.69,15.35,15.35,0,0,1-.13,6.47,2.23,2.23,0,0,1-.77,1.25,26.08,26.08,0,0,0-4.07,4.39,3.16,3.16,0,0,0-1.43.18c-.44.14-.87.3-1.3.45h0c.16-.22.31-.45.47-.66l.57-.69c-.05,0-.07-.07-.09-.07a9.14,9.14,0,0,0-2.71.19,14.15,14.15,0,0,0-3.42,1.4,6.66,6.66,0,0,0-1.8,1.54,10.43,10.43,0,0,0-1.58,2.82c0,.1,0,.29-.15.32a9.5,9.5,0,0,1,2-6.13,3.33,3.33,0,0,1,1.75-1.17s.07-.06.11-.09l3.13-.49a5.15,5.15,0,0,0-1-.71,7.45,7.45,0,0,0-2.77-.89,8.29,8.29,0,0,0-2.63.07,5.38,5.38,0,0,0-2.7,1.5,10.6,10.6,0,0,0-1.84,2.42A1.65,1.65,0,0,1,123.26,42.61Z"/>
          <path class="cls-10" d="M170.94,36.8a14.73,14.73,0,0,1,2,7.7,10.18,10.18,0,0,1-1.27,4.5c0,.08-.1.15-.15.23a2.23,2.23,0,0,0-.33.2c-.32.27-.63.57-1,.83a28.79,28.79,0,0,1-3.28,2.19,12.58,12.58,0,0,1-2.7,1.22,14.7,14.7,0,0,1-3.08.66c-.85.07-1.7.18-2.55.21a15.82,15.82,0,0,1-1.82-.07,6.37,6.37,0,0,1-.68-.11l.12-.32c.14-.28.29-.56.43-.85.36-.75.76-1.48,1-2.26a12.36,12.36,0,0,0,.66-3c.1-.93.24-1.85.3-2.78.06-1.12.06-2.25.09-3.37v-.47l.24.1a5.49,5.49,0,0,0,2.54.26,2,2,0,0,0,1.61-1.08l.17.07a3.08,3.08,0,0,0,2.33.35,2,2,0,0,0,1.52-1.37c0,.05.09.09.1.13a15.5,15.5,0,0,1,.39,2,17.31,17.31,0,0,1-.07,2.49,6.44,6.44,0,0,1-1.32,3.33l-.51.69-.11,0,0,.05.09-.07a.85.85,0,0,0,.23,0,6.51,6.51,0,0,0,2.73-1.76,4.28,4.28,0,0,0,1.18-2.85c0-.45,0-.89,0-1.33a8.83,8.83,0,0,0-.45-2.51,11.86,11.86,0,0,0-.57-1.26s.06,0,.1,0a2,2,0,0,0,1.43-.65,1.28,1.28,0,0,0,.44-.91A.56.56,0,0,1,170.94,36.8Z"/>
          <path class="cls-13" d="M171.17,49.43c-.32.27-.63.57-1,.83l-.17.14-.07,0-.28.22-.21.15-.17.12,0,0-.2.14-.2.14-.41.26-.19.13,0,0h0l-.26.16a2.26,2.26,0,0,1-.26.16.57.57,0,0,1-.13.08l-.21.13-.21.13-.21.12a12.58,12.58,0,0,1-2.7,1.22,14.7,14.7,0,0,1-3.08.66c-.85.07-1.7.18-2.55.21a15.91,15.91,0,0,1-1.82-.07,6.37,6.37,0,0,1-.68-.11c.05-.13.08-.23.12-.32.14-.28.29-.56.43-.85.36-.75.76-1.48,1-2.26a11.88,11.88,0,0,0,.65-3c.11-.93.25-1.85.31-2.78.06-1.12.06-2.25.09-3.37v-.47l.24.1a5.49,5.49,0,0,0,2.54.26,2,2,0,0,0,1.61-1.08l.17.07a3.08,3.08,0,0,0,2.33.35,2,2,0,0,0,1.52-1.37c0,.05.09.09.1.13a15.5,15.5,0,0,1,.39,2,.71.71,0,0,0,0,.14h0v.15s0,.09,0,.13v.32c0,.58,0,1.17-.09,1.75v.09a.17.17,0,0,0,0,.07s0,.09,0,.13h0v.1s0,.06,0,.1,0,.09,0,.13a.85.85,0,0,1,0,.17l0,.15h0v0a.65.65,0,0,1,0,.13s0,.1,0,.15l0,.08,0,.09s0,0,0,0l-.07.18a.36.36,0,0,1,0,.09l0,.14a.37.37,0,0,0-.05.11l-.05.09a.36.36,0,0,1,0,.09l-.06.12-.06.12h0c-.07.12-.14.25-.21.36v0l-.06.09,0,.08-.06.09,0,.06,0,0,0,.05-.09.13-.51.69h0a.85.85,0,0,0,.23,0l.18-.06.14,0h0l.1,0,.12,0,.06,0,.14-.07.13-.06.09,0h0l.09,0h0l.07,0,.11-.06.1-.07.18-.11,0,0h0l.1-.07.16-.12.12-.09.13-.1.07-.06.24-.22.09-.08v0l.1-.1.13-.13a4.28,4.28,0,0,0,1.18-2.85c0-.45,0-.89,0-1.33,0-.11,0-.22,0-.33s0-.11,0-.17v-.16a802817327491.27,802817327491.27,0,0,1,0-.3s0-.07,0-.1,0-.05,0-.08,0-.08,0-.12,0-.06,0-.09V41a.43.43,0,0,0,0-.11l0-.12a2.21,2.21,0,0,0,0-.25.56.56,0,0,1,0-.12l0-.11,0-.11s0-.1,0-.14a.88.88,0,0,1,0-.15,11.86,11.86,0,0,0-.57-1.26s.06,0,.1,0a2,2,0,0,0,1.43-.65,1.28,1.28,0,0,0,.44-.91.56.56,0,0,1,.08-.2l-.51-1c-.18.72-.35,1.4-1.1,1.71a2.31,2.31,0,0,1-2.06-.31c0,.13-.06.23-.08.33a3.58,3.58,0,0,1-.68,1.59,2.15,2.15,0,0,1-3.55-.1l-.18-.26a2.37,2.37,0,0,1-2.36,1.79,2.79,2.79,0,0,1-2.72-2.24l-1.28,1c.07.57.14,1.16.2,1.75a17.67,17.67,0,0,1-.3,5.38,17.89,17.89,0,0,1-4,8l.18.12c1.49,1,2.9,1.87,4.23,2.74.47,0,.93-.09,1.39-.16a22.69,22.69,0,0,0,7.64-2.56,16.63,16.63,0,0,0,2.79-1.88,14.7,14.7,0,0,0,1.73-1.71,7.89,7.89,0,0,0,1.26-1.82A2.23,2.23,0,0,0,171.17,49.43ZM168,38.66l0,.05h0l0,0,0,0,.08.07.07.08a.46.46,0,0,1,.07.07l0,0,0,.06h0l0,0v0a1,1,0,0,1,.11.17.31.31,0,0,1,.05.1l0,0a1,1,0,0,1,0,.1h0l.06.12h0l.05.12.09.26.09.32,0,.1a.29.29,0,0,1,0,.09,1.24,1.24,0,0,1,0,.16v0c0,.06,0,.13,0,.19h0a.5.5,0,0,1,0,.12l0,.14s0,0,0,0a.77.77,0,0,1,0,.15s0,.06,0,.1a.77.77,0,0,0,0,.15.28.28,0,0,0,0,.09v0a.49.49,0,0,1,0,.12c0,.07,0,.14,0,.21v.13a6.89,6.89,0,0,1-.13,1.7c0,.11-.05.22-.08.32s0,.14,0,.21l0,.05c0,.06,0,.12-.05.17a9,9,0,0,1-.34.86l-.09.19-.12.22-.12.22a.75.75,0,0,0-.07.12l-.1.14-.07.11-.09.11a.44.44,0,0,1-.08.11c-.06.08-.13.15-.19.22a.47.47,0,0,0-.1.1l-.2.17-.06.06,0,0,0,0-.19.13-.08,0a3.54,3.54,0,0,1-.33.19l-.09,0a.43.43,0,0,1,0-.07l.36-.58h0l.12-.19.11-.18.13-.24.09-.15.12-.22a1.14,1.14,0,0,1,.1-.19l.09-.19c.09-.22.18-.43.26-.64l.06-.15s0-.1.05-.15a6.13,6.13,0,0,0,.18-.61s0-.09,0-.14,0-.23.08-.35l0-.21h0l0-.2h0l0-.18v-.07a1.23,1.23,0,0,0,0-.19,1.1,1.1,0,0,0,0-.18,1.09,1.09,0,0,0,0-.18.34.34,0,0,0,0-.1v-.15s0,0,0-.08v-.37a1.62,1.62,0,0,1,0-.22s0-.11,0-.17a.13.13,0,0,0,0-.06,1.09,1.09,0,0,0,0-.18v-.1a1,1,0,0,0,0-.16,1.5,1.5,0,0,0,0-.2,0,0,0,0,0,0,0,1.11,1.11,0,0,0,0-.19.2.2,0,0,1,0-.07l0-.14s0-.05,0-.07a.5.5,0,0,1,0-.12.94.94,0,0,1,0-.16l0-.13s0,0,0-.07l-.06-.24,0-.12,0-.13c-.05-.19-.07-.39-.11-.58H168Z"/>
          <path class="cls-14" d="M174.16,32.18a2.67,2.67,0,0,1,1.34-.79,7.29,7.29,0,0,1,3.41-.12.74.74,0,0,0,.39,0c-.15-.09-.3-.2-.46-.28s-.33-.16-.5-.24a1,1,0,0,0-.69-.53,6,6,0,0,0-1.36-.38,3,3,0,0,0-2,.3.63.63,0,0,1-.41,0,.8.8,0,0,1-.51-.41c-.2-.44-.41-.88-.62-1.32A3,3,0,0,1,175,27.06a7,7,0,0,1,4.78,1.05,7.69,7.69,0,0,1,2.83,3.36,12.19,12.19,0,0,1-.07,10.64c-.1.21-.24.41-.36.61l-.05.07,0,.06c-.14-.15-.24,0-.35,0a3.66,3.66,0,0,1-1.58.43.73.73,0,0,1-.74-.72,2.52,2.52,0,0,1,.24-1.11.78.78,0,0,1,.68-.49,1.4,1.4,0,0,0,1.26-1,2.61,2.61,0,0,0-.09-1.86,2.87,2.87,0,0,1-.35.47,1.94,1.94,0,0,1-2.83-.34,10.1,10.1,0,0,1-.55-1.09,2.35,2.35,0,0,0-.53,1.3,1.41,1.41,0,0,1-1.16-1.27c-.05-.33-.06-.68-.08-1a4.63,4.63,0,0,1,2.55-1.34,11.27,11.27,0,0,1,1.54-.1.49.49,0,0,0,.27-.07l-.86-.25s-.06-.1-.1-.11A13.53,13.53,0,0,0,177.9,34a2.67,2.67,0,0,0-1.6.33A.89.89,0,0,1,175,34l-.06,0a2,2,0,0,1-.66-1.48A.77.77,0,0,0,174.16,32.18Z"/>
          <path class="cls-15" d="M176,36.17c0,.34,0,.69.08,1a1.41,1.41,0,0,0,1.16,1.27,2.35,2.35,0,0,1,.53-1.3,10.1,10.1,0,0,0,.55,1.09,1.94,1.94,0,0,0,2.83.34,2.87,2.87,0,0,0,.35-.47,2.61,2.61,0,0,1,.09,1.86,1.4,1.4,0,0,1-1.26,1,.78.78,0,0,0-.68.49,2.52,2.52,0,0,0-.24,1.11.73.73,0,0,0,.74.72,3.66,3.66,0,0,0,1.58-.43c.11,0,.21-.2.35,0a6.43,6.43,0,0,1-1.56,1.88,15.51,15.51,0,0,1-5.85,3.1,3.62,3.62,0,0,1-1.62.12c1.37-5,.07-9.5-3-13.62a3.56,3.56,0,0,0,2.63-.08c.57,1.4,1.07,1.85,2.29,2a3,3,0,0,0,1.5,4.17,2.57,2.57,0,0,0,.17,2.52,1.73,1.73,0,0,0,.88.76,2.32,2.32,0,0,0,.46.07l.06,0-.07,0s0-.06-.06-.08a1.92,1.92,0,0,1,.37-3.29,1,1,0,0,1,.76,0,1.43,1.43,0,0,0,1.94-.87.3.3,0,0,0,0-.17,1.81,1.81,0,0,1-1.77.39A2.07,2.07,0,0,1,178,38.46a1.3,1.3,0,0,0,.14,1.19,1.56,1.56,0,0,1-2.06-.34,2.6,2.6,0,0,1-.49-2.43A1.19,1.19,0,0,1,176,36.17Z"/>
          <path class="cls-13" d="M127.43,47.86c.2,0,.11-.22.15-.32a10.43,10.43,0,0,1,1.58-2.82,6.66,6.66,0,0,1,1.8-1.54,14.15,14.15,0,0,1,3.42-1.4,9.14,9.14,0,0,1,2.71-.19s0,0,.09.07l-.57.69c-.16.21-.31.44-.47.66L136,43l0,.05.09-.07c.43-.15.86-.31,1.3-.45a3.16,3.16,0,0,1,1.43-.18c-.26.43-.49.88-.78,1.29a17.63,17.63,0,0,0-2.66,5.91c-.12.47-.23.95-.34,1.43a4.32,4.32,0,0,1-.44,1.18,4,4,0,0,0-.51,2.06,3.63,3.63,0,0,1,0,.57,12.67,12.67,0,0,1-1-10.79c-.37.25-.67.43-.94.65a7.54,7.54,0,0,0-2.58,4.1,12.39,12.39,0,0,0-.35,4.33c0,.58.12,1.16.12,1.77-.22-.4-.46-.79-.67-1.2A12.67,12.67,0,0,1,127.4,48,.8.8,0,0,1,127.43,47.86Z"/>
          <path class="cls-16" d="M148.39,18.24c-.63.7-1.26,1.4-1.9,2.09s-1.17,1.26-1.77,1.88a1.62,1.62,0,0,1-.91.51,2.8,2.8,0,0,1,.1-1.29,7,7,0,0,1,1.58-2.77A14.4,14.4,0,0,1,150.62,15a.8.8,0,0,1,.57-.05,6.56,6.56,0,0,0,.75.12,4.86,4.86,0,0,0-.88-.92c-.24-.22-.49-.42-.71-.65s-.28-.59.14-.81a4.35,4.35,0,0,1,4.93.55,6.07,6.07,0,0,1,1.89,3.24c.09.34.13.69.2,1-.42-.28-.81-.53-1.18-.79a.86.86,0,0,1-.21-.28,3.58,3.58,0,0,0-.92-1.23,1.84,1.84,0,0,0-2.31-.14,3.47,3.47,0,0,0-1.35,2,.87.87,0,0,1-.3.43,5.18,5.18,0,0,0-1.47,2,11.55,11.55,0,0,0-1.07,4.33,6.9,6.9,0,0,0,.24,2.35.8.8,0,0,1,0,.31,8.3,8.3,0,0,1-.41,2.21,2.93,2.93,0,0,1-.37.7.69.69,0,0,1-1.15.11,3,3,0,0,1-.53-.82,6.48,6.48,0,0,1-.49-2.12c0-.61-.08-1.22-.06-1.82a6.79,6.79,0,0,1,.45-2.53A11.88,11.88,0,0,1,147,21c.38-.68.78-1.36,1.15-2a4.86,4.86,0,0,0,.25-.63l0-.09Zm8.69-1.57,0,.18,0,0-.08-.17a3.65,3.65,0,0,0-.14-.57,7.41,7.41,0,0,0-1.27-2.17,3.74,3.74,0,0,0-3.74-1.36,9.06,9.06,0,0,0-1,.28c-.14.05-.29.15-.17.28a2.5,2.5,0,0,0,.68.53c.1.06.29,0,.43-.07a3.53,3.53,0,0,1,2.91.25,4.08,4.08,0,0,1,1.37,1.34C156.46,15.66,156.76,16.17,157.08,16.67Zm-12.42,4.64.09.07a.39.39,0,0,1,.08-.14c.42-.58.82-1.16,1.27-1.71a10.27,10.27,0,0,1,1.68-1.68,24.62,24.62,0,0,1,3-1.9,1.56,1.56,0,0,0,.55-.62.64.64,0,0,0-.7-.06,19.17,19.17,0,0,0-2.51,1.57,11,11,0,0,0-2.85,3A4.43,4.43,0,0,0,144.66,21.31Zm-.06.17h0v0Z"/>
          <path class="cls-17" d="M151.66,21.63c0-.75,0-1.51.1-2.26a5.62,5.62,0,0,1,.77-2.55,2.77,2.77,0,0,1,.84-.83,1.36,1.36,0,0,1,1.91.29,5.68,5.68,0,0,1,.83,1.43l.33.71,0,.19.05,0-.07-.18-.09-1.18c.53.47,1.15.73,1.39,1.42a2,2,0,0,0,.37-1.07c0-.42,0-.85.07-1.27a1,1,0,0,1,1.48-.89,2.63,2.63,0,0,1,.81.68,7.59,7.59,0,0,1,1.45,3.6,1.94,1.94,0,0,1,0,.24.49.49,0,0,1,0,.12l-.45,0-.09-.42a3.86,3.86,0,0,0-1.06-2.13,1.06,1.06,0,0,0-.86-.34c-.31,0-.48.21-.54.59.23-.09.36-.38.65-.28a1.07,1.07,0,0,1,.56.45c-.61,0-.82.13-1,.7a3.62,3.62,0,0,0,.07,2.11,1.21,1.21,0,0,0,.05.18s0,.07-.05.08a.92.92,0,0,0-.53.75,4.15,4.15,0,0,1-1.86,2.76,3.07,3.07,0,0,1-2.54.24,1.89,1.89,0,0,1,1.52-.48,1.63,1.63,0,0,0-2.09.14,1.83,1.83,0,0,0-.46,2.31A2.74,2.74,0,0,1,154,25a4.3,4.3,0,0,0,1.68,2.36L155.55,29l-.43-.1-.37-.13a6.57,6.57,0,0,1-1.78-.93,2.41,2.41,0,0,1-.92-1.21c0-.15,0-.29,0-.44a2.79,2.79,0,0,1,2.1-2.67,4.6,4.6,0,0,1,2.47,0l.41.1,0-.06-.66-.51a2.41,2.41,0,0,0-2.23-3.83c.4-.47.92-.4,1.44-.41a1.2,1.2,0,0,0-.42-.27,1.54,1.54,0,0,0-1.58.37,3.69,3.69,0,0,0-.92,4.07,4.1,4.1,0,0,0,.22.41l-.45.36A6.4,6.4,0,0,1,151.66,21.63ZM161.13,18l0,.13.05,0-.07-.14a.38.38,0,0,0,0-.15A4.91,4.91,0,0,0,160,16a1.68,1.68,0,0,0-.6-.37.67.67,0,0,0-.95.44,2.12,2.12,0,0,0,0,1.09c.13-.22.21-.46.33-.66a.54.54,0,0,1,.69-.24,1.25,1.25,0,0,1,.4.24,6.56,6.56,0,0,1,.62.67C160.74,17.38,160.93,17.67,161.13,18Zm-9,1.44.09,0a1.86,1.86,0,0,1,.1-.25,5.17,5.17,0,0,1,1.29-1.93,1.15,1.15,0,0,1,1.25-.25,5.51,5.51,0,0,1,.73.45l.2.11.07-.09a10.37,10.37,0,0,0-.63-.85,1.12,1.12,0,0,0-1.6-.18A4.05,4.05,0,0,0,152.12,19.39Zm6.76-1.4a.24.24,0,0,0,0-.08s0,0,0,0a.25.25,0,0,0,0,.07S158.86,18,158.88,18Zm-3-.36,0,0s0,0,0,0,0,0,0,0S155.86,17.64,155.85,17.63Zm-3.74,1.92v0h0Zm3.67-.7h-.05l0,0A0,0,0,0,0,155.78,18.85Z"/>
          <path class="cls-15" d="M155.12,28.89l.43.1a9,9,0,0,0,.73,3.39,5.32,5.32,0,0,0,1.79,2.27,3.24,3.24,0,0,0,2.75.51,2.22,2.22,0,0,0,1.09-.75c.19.2.39.38.57.59.49.58,1,1.18,1.47,1.76a2.83,2.83,0,0,0,1.1.93c.29.11.41.07.58-.17a.69.69,0,0,0,.12-.29,6.9,6.9,0,0,0,.15-1,5.94,5.94,0,0,0-.06-1c-.07-.49-.14-1-.23-1.47-.06-.32-.16-.64-.24-1l.08,0c.27.22.56.42.82.65a6.77,6.77,0,0,1,1.21,1.46,1.34,1.34,0,0,0,1.6.63,1,1,0,0,1,.24,0,5.42,5.42,0,0,1,.17.8.67.67,0,0,1-.61.72,1.79,1.79,0,0,1-1.58-.55c-.07-.06-.09-.19-.13-.28-.26-.62-.51-1.25-.78-1.87a3.29,3.29,0,0,0-.28-.44l-.08,0a1.21,1.21,0,0,0,.05.18,6.47,6.47,0,0,1,.3,3.4,2.79,2.79,0,0,1-.32.89,1.24,1.24,0,0,1-2,.36,5.63,5.63,0,0,1-.78-.84c-.3-.35-.58-.71-.89-1.12-.13.41-.22.76-.34,1.09a3.2,3.2,0,0,1-.79,1.27,1.44,1.44,0,0,1-2,0,3.71,3.71,0,0,1-1-1.88c-.09-.31-.14-.64-.22-1a2.88,2.88,0,0,1-2,2,7.68,7.68,0,0,0-1.54-2.15l.35,0a3,3,0,0,0,1.33-.06,1.9,1.9,0,0,0,1.2-1,.32.32,0,0,0-.06-.42,10,10,0,0,1-1.56-2.33A5.94,5.94,0,0,1,155.12,28.89Z"/>
          <path class="cls-15" d="M155.67,43.32a14.38,14.38,0,0,1-1.32,6.12A16.67,16.67,0,0,1,151.26,54l-.94.61c-3.65,2.33-6.82,4.44-9.47,6.2a32.45,32.45,0,0,1-5.43,1.65,10.85,10.85,0,0,1-2.48.29c-.18,0-.36,0-.57-.07a2.25,2.25,0,0,1,.73-1,6.67,6.67,0,0,0,2.17-.36,40.11,40.11,0,0,0,4.37-1.48c.53-.21,1.06-.45,1.59-.7a33.7,33.7,0,0,0,5.29-3c.83-.6,1.65-1.22,2.43-1.89a25,25,0,0,0,2-2A10.76,10.76,0,0,0,152.65,50c.49-.89,1-1.78,1.42-2.7a20.07,20.07,0,0,0,1.37-3.49A3.43,3.43,0,0,1,155.67,43.32Z"/>
          <path class="cls-18" d="M169.32,35.45a1,1,0,0,0-.24,0,1.34,1.34,0,0,1-1.6-.63,6.77,6.77,0,0,0-1.21-1.46c-.26-.23-.55-.43-.82-.65l-.08,0c.08.32.18.64.24,1,.09.49.16,1,.23,1.47a5.94,5.94,0,0,1,.06,1,6.9,6.9,0,0,1-.15,1,.69.69,0,0,1-.12.29c-.17.24-.29.28-.58.17a2.83,2.83,0,0,1-1.1-.93c-.5-.58-1-1.18-1.47-1.76-.18-.21-.38-.39-.57-.59a3.56,3.56,0,0,0,.32-2.12l.37-.09a3.53,3.53,0,0,0,2.4-1.92,2,2,0,0,0,.2-1.42,1.24,1.24,0,0,0-1.66-.9c-.3.12-.59.29-.9.42a.94.94,0,0,1-1,0,9.91,9.91,0,0,0,1.47-2.4c.5.47,1,.89,1.41,1.34A18.55,18.55,0,0,1,168,31.86,15.72,15.72,0,0,1,169.32,35.45Z"/>
          <path class="cls-12" d="M155.12,28.89a5.94,5.94,0,0,0,.58,3.42,10,10,0,0,0,1.56,2.33.32.32,0,0,1,.06.42,1.9,1.9,0,0,1-1.2,1,3,3,0,0,1-1.33.06l-.35,0-1-.64c.06-.48.14-1,.17-1.45a10.4,10.4,0,0,0,0-1.93A7.15,7.15,0,0,0,152,28.42c-.36-.46-.77-.88-1.08-1.37a18.21,18.21,0,0,1-.81-1.66c-.06-.12-.13-.24-.2-.36a.06.06,0,0,1,0-.06l0-.19a10.17,10.17,0,0,1,.52-4.61,4.19,4.19,0,0,1,1.05-1.55,2.93,2.93,0,0,1,0,.3,9.76,9.76,0,0,0,.15,2.53l.07.18a6.4,6.4,0,0,0,.83,2.09,2.72,2.72,0,0,0-.44,2.9,2.41,2.41,0,0,0,.92,1.21,6.57,6.57,0,0,0,1.78.93Z"/>
          <path class="cls-19" d="M154.54,25.33c.24,0,.47.07.71.09A3.15,3.15,0,0,0,158,24.28a5.32,5.32,0,0,0,1.22-2.51.6.6,0,0,1,.39-.49,6.93,6.93,0,0,1,2.49-.63,2.76,2.76,0,0,1,2.57,1.43c.14.24.25.49.39.77a4.61,4.61,0,0,0-2.09.85c-.79.5-1.56,1-2.36,1.48a6.52,6.52,0,0,1-4.11,1c-.33,0-.67-.12-1-.15a2.85,2.85,0,0,0,1.53.55,7.42,7.42,0,0,0,4.13-.93c.48-.25.94-.55,1.47-.86-.05.22-.08.4-.12.57a5.66,5.66,0,0,1-1,2.11,1,1,0,0,1-.68.43,6.52,6.52,0,0,1-4.31-.69,6,6,0,0,1-2-1.82Zm5.24-2.67c.31-.23.42-.37.46-.56s0-.29-.16-.35-.28.06-.3.26S159.78,22.4,159.78,22.66Z"/>
          <path class="cls-16" d="M159.62,30.84a1.92,1.92,0,0,0,1.18,1.1c.19.07.38.11.57.17a.52.52,0,0,1,.41.56,1.84,1.84,0,0,1-2.34,1.78,3.48,3.48,0,0,1-2-1.49,9.21,9.21,0,0,1-1.34-3.37,6.75,6.75,0,0,1-.13-2c.16.1.3.19.45.27a5.92,5.92,0,0,0,2.69.76c.56,0,1.13,0,1.7,0a.41.41,0,0,1,.39.14,1.05,1.05,0,0,0,1.2.29c.36-.11.72-.27,1.07-.41a.71.71,0,0,1,.82,0,.79.79,0,0,1,.21.84,2.46,2.46,0,0,1-1.28,1.64,3.86,3.86,0,0,1-1.58.47,2.53,2.53,0,0,1-1.7-.56l-.32-.23-.09-.13,0,0Zm1.2-1.76,0,0,0,0a.94.94,0,0,0,.49.64,3.12,3.12,0,0,0,1.32.5c.3.06.58.12.66.5a1.47,1.47,0,0,0,.8-1.41c0-.38-.21-.51-.57-.39a2,2,0,0,0-.36.16A2.24,2.24,0,0,1,160.82,29.08Zm-2.22.21h-.07a2,2,0,0,1,0,.43,2.86,2.86,0,0,0,.08,1.45,2.76,2.76,0,0,0,1.13,1.57,1.16,1.16,0,0,1,.57,1.1.71.71,0,0,0,0,.15,1,1,0,0,0,1.07-.71c.24-.5.15-.73-.35-.92l-.12,0a2.74,2.74,0,0,1-1.83-1.72l-.15-.41Z"/>
          <path class="cls-13" d="M122.11,33.6s.12,0,.15,0a8.86,8.86,0,0,1,3-1.76,8,8,0,0,1,3.43-.43,6.15,6.15,0,0,1,2.89.95A5.87,5.87,0,0,1,133.72,35a16.16,16.16,0,0,1,.83,3s0,.07,0,.14a6.39,6.39,0,0,0-2.77-1.59,2.42,2.42,0,0,0-.44-1.25,4.78,4.78,0,0,0-3.07-2.15,6,6,0,0,0-5.38,1.31c-.42.34-.78.75-1.21,1.16A5.48,5.48,0,0,1,122.11,33.6Z"/>
          <path class="cls-13" d="M123.26,42.61a1.65,1.65,0,0,0,.22-.24A10.6,10.6,0,0,1,125.32,40a5.38,5.38,0,0,1,2.7-1.5,8.29,8.29,0,0,1,2.63-.07,7.45,7.45,0,0,1,2.77.89,5.15,5.15,0,0,1,1,.71l-3.13.49c-.3-.08-.59-.18-.88-.24a4.27,4.27,0,0,0-2.8.52,8.56,8.56,0,0,0-2.42,2,13.39,13.39,0,0,0-2,3.12l-.11.21-.06,0A16.14,16.14,0,0,1,123.26,42.61Z"/>
          <path class="cls-13" d="M129.06,21a1.23,1.23,0,0,0,.32.07,8.21,8.21,0,0,1,5,1.85,8.07,8.07,0,0,1,2.45,3.54,12.3,12.3,0,0,1,.69,2.58,11.76,11.76,0,0,1,.17,3c-.09.87-.26,1.74-.39,2.6a2.33,2.33,0,0,1-.11.31l-1-2.79c0-.65,0-1.3-.07-1.94a10.88,10.88,0,0,0-4-7.45,5.86,5.86,0,0,0-4.1-1.36A3.26,3.26,0,0,1,129.06,21Z"/>
          <path class="cls-13" d="M137.41,55.75c.09.17.19,0,.26,0,.82-.32,1.63-.68,2.46-1a17.9,17.9,0,0,1,3.39-.85c.71-.1,1.43-.16,2.14-.24a4.49,4.49,0,0,1,1,0,1.49,1.49,0,0,1-.2.15c-.71.36-1.43.74-2.15,1.09a2.64,2.64,0,0,1-.5.15c-.4.13-.81.23-1.2.38a36.64,36.64,0,0,0-7.41,3.7c-.42.28-.81.59-1.22.88l-.06-.06a12.7,12.7,0,0,1,2.28-3.07C136.61,56.48,137,56.12,137.41,55.75Z"/>
          <path class="cls-13" d="M136.52,54.15a.87.87,0,0,0,.24-.1c.82-.67,1.59-1.39,2.44-2a22.13,22.13,0,0,1,4.33-2.54,18.33,18.33,0,0,1,3.76-1.14h.6l-.31.21-2.45,1.54c-.08.06-.15.15-.24.21a2.83,2.83,0,0,1-.31.11l-.08.09h0a1.37,1.37,0,0,0-.28,0,25,25,0,0,0-8.51,5.8,1,1,0,0,1-.17.14,5.12,5.12,0,0,1,.89-2.23l.09-.11Z"/>
          <path class="cls-15" d="M162.54,56.83a5.08,5.08,0,0,1-1.18,2.83,2,2,0,0,1-.54.43L157.68,58A28.88,28.88,0,0,0,162.54,56.83Z"/>
          <path class="cls-15" d="M149.9,25c.07.12.14.24.2.36a18.21,18.21,0,0,0,.81,1.66c.31.49.72.91,1.08,1.37a7.15,7.15,0,0,1,1.64,3.66,10.4,10.4,0,0,1,0,1.93c0,.49-.11,1-.17,1.45-.38-.11-.75-.24-1.14-.33s-.75-.1-1.18-.16a3.77,3.77,0,0,0,.26-.39,16.92,16.92,0,0,0,.82-1.58,3.17,3.17,0,0,0-.17-2.87c-.27-.49-.59-1-.91-1.44A5.75,5.75,0,0,1,150,26.36C150,25.92,149.94,25.47,149.9,25Z"/>
          <path class="cls-20" d="M137.23,50.32a1.4,1.4,0,0,0,.3-.15c.26-.24.51-.5.76-.75A24.08,24.08,0,0,1,141,47.24a21.85,21.85,0,0,1,3-1.83,9.17,9.17,0,0,1,2.33-.85,2.12,2.12,0,0,1,.75,0l-.2.18c-.26.18-.51.37-.78.54a2.17,2.17,0,0,1-.44.19,2.77,2.77,0,0,0-.41.12,21.53,21.53,0,0,0-4.77,3.06,25.26,25.26,0,0,0-4.56,4.85c-.11.15-.21.31-.37.54a1.32,1.32,0,0,1,.05-.32,10.88,10.88,0,0,1,1.55-3.24l.05,0v-.07h0l.08-.16Z"/>
          <path class="cls-21" d="M174.26,22.69a4.39,4.39,0,0,1,1.2-2.15.83.83,0,0,1,.81-.29,7.25,7.25,0,0,0,.9,5.79l-1.77-.11a9,9,0,0,1-1-2.51C174.35,23.18,174.3,22.94,174.26,22.69Z"/>
          <path class="cls-15" d="M136.8,48.27a1.06,1.06,0,0,0,.23-.19,18.44,18.44,0,0,1,2.45-2.7,13.91,13.91,0,0,1,2.69-1.87,13.28,13.28,0,0,1,2.55-1.15c.38-.12.77-.21,1.16-.31l0,.07-.93.58,0-.07,0,.07h0a1.46,1.46,0,0,0-.36.09,14.19,14.19,0,0,0-3.27,2.14,31.88,31.88,0,0,0-4.79,5.13l-.25.3-.06-.06Z"/>
          <path class="cls-20" d="M172.75,28.43c.21.44.42.88.62,1.32a.8.8,0,0,0,.51.41.63.63,0,0,0,.41,0,3,3,0,0,1,2-.3,6,6,0,0,1,1.36.38,1,1,0,0,1,.69.53c-.34,0-.67-.13-1-.16a5.22,5.22,0,0,0-3.82,1.12A1.66,1.66,0,0,1,172.23,30,2.3,2.3,0,0,1,172.75,28.43Z"/>
          <path class="cls-20" d="M174.16,32.18a.77.77,0,0,1,.1.26,2,2,0,0,0,.66,1.48l.06,0a.89.89,0,0,0,1.32.31,2.67,2.67,0,0,1,1.6-.33,13.53,13.53,0,0,1,1.53.35s.07.07.1.11a6.24,6.24,0,0,0-2.15.24,5.25,5.25,0,0,0-1.68.86.63.63,0,0,1-.51.14,2,2,0,0,1-1.42-3A4.31,4.31,0,0,1,174.16,32.18Z"/>
          <path class="cls-20" d="M174.26,22.69c0,.25.09.49.13.73a9,9,0,0,0,1,2.51l-1.2.22A5.6,5.6,0,0,1,174.26,22.69Z"/>
          <path class="cls-22" d="M159.48,18.94a2,2,0,0,1,.08-.26c.2-.5.55-.56.89-.15a3,3,0,0,1,.6,1.49c0,.07-.08.16-.12.24s-.1-.05-.11-.07c-.16-.43-.16-.43-.63-.42H160s0,0-.11-.06l.35-.44C160,18.94,160,18.94,159.48,18.94Z"/>
          <path class="cls-15" d="M136.24,50.36l-.06.11h0l0-.16Z"/>
          <path class="cls-15" d="M149.87,24.78l0,.19Z"/>
          <path class="cls-11" d="M137.24,50.33l-.08.16Z"/>
          <path class="cls-11" d="M137.16,50.48v.07l-.05,0S137.13,50.47,137.16,50.48Z"/>
          <path class="cls-11" d="M136.53,54.15l-.09.11Z"/>
          <path class="cls-13" d="M134,60l-.08.06,0-.12Z"/>
          <path class="cls-8" d="M134.75,28.81l0,.09-.07,0A.12.12,0,0,1,134.75,28.81Z"/>
          <path class="cls-8" d="M145.11,23.24h.08l0,.05S145.12,23.25,145.11,23.24Z"/>
          <path class="cls-15" d="M182.14,42.79l.05-.07Z"/>
          <path class="cls-19" d="M154.52,25.35l-.05,0,.07,0Z"/>
          <path class="cls-9" d="M144.9,42.7l0-.07,0,.07Z"/>
          <path class="cls-9" d="M144.5,50.51l.08-.09Z"/>
          <path class="cls-13" d="M165.76,48.35l-.09.07,0-.05.11,0Z"/>
          <path class="cls-23" d="M168.06,38.72a2.75,2.75,0,0,1,.86,1.39,7.37,7.37,0,0,1-.61,6.15,3.94,3.94,0,0,1-1.64,1.57.1.1,0,0,0,0,0c.31-.53.65-1,.93-1.57a9.17,9.17,0,0,0,.63-6.91c-.05-.19-.07-.4-.11-.6Z"/>
          <path class="cls-23" d="M168.07,38.71H168l0,0,0,0Z"/>
          <path class="cls-23" d="M166.67,47.83l-.09,0,0-.07A.1.1,0,0,1,166.67,47.83Z"/>
          <path class="cls-9" d="M178,43.81l.07,0-.06,0Z"/>
          <path class="cls-12" d="M136.14,43l-.09.07,0-.05.12,0Z"/>
          <path class="cls-24" d="M144.66,21.31a4.43,4.43,0,0,1,.62-1.47,11,11,0,0,1,2.85-3,19.17,19.17,0,0,1,2.51-1.57.64.64,0,0,1,.7.06,1.56,1.56,0,0,1-.55.62,24.62,24.62,0,0,0-3,1.9,10.27,10.27,0,0,0-1.68,1.68c-.45.55-.85,1.13-1.27,1.71a.39.39,0,0,0-.08.14Z"/>
          <path class="cls-24" d="M157.08,16.67c-.32-.5-.62-1-1-1.5a4.08,4.08,0,0,0-1.37-1.34,3.53,3.53,0,0,0-2.91-.25c-.14,0-.33.13-.43.07a2.5,2.5,0,0,1-.68-.53c-.12-.13,0-.23.17-.28a9.06,9.06,0,0,1,1-.28,3.74,3.74,0,0,1,3.74,1.36,7.41,7.41,0,0,1,1.27,2.17,3.65,3.65,0,0,1,.14.57Z"/>
          <path class="cls-24" d="M157.08,16.66l.08.17,0,0,0-.18Z"/>
          <polygon class="cls-24" points="144.6 21.48 144.63 21.47 144.63 21.49 144.6 21.48"/>
          <path class="cls-9" d="M148.39,18.24l.07,0,0,.09Z"/>
          <path class="cls-9" d="M163.28,65.65v0l-.05,0Z"/>
          <path class="cls-25" d="M152.05,26.62a2.72,2.72,0,0,1,.44-2.9l.45-.36a4.1,4.1,0,0,1-.22-.41,3.69,3.69,0,0,1,.92-4.07,1.54,1.54,0,0,1,1.58-.37,1.2,1.2,0,0,1,.42.27c-.52,0-1-.06-1.44.41A2.41,2.41,0,0,1,156.43,23l.66.51,0,.06-.41-.1a4.6,4.6,0,0,0-2.47,0,2.79,2.79,0,0,0-2.1,2.67C152.06,26.33,152.06,26.47,152.05,26.62Zm1.47-3.52a3,3,0,0,1,1.84-.26.59.59,0,0,0,.64-.25,2,2,0,0,0-1-3,1.18,1.18,0,0,0-1.55.65,3.54,3.54,0,0,0-.28,1.06A3,3,0,0,0,153.52,23.1Zm.58-3.87,0,0s0,0,0,0l0,0Z"/>
          <path class="cls-26" d="M152.12,19.39a4.05,4.05,0,0,1,1.5-3,1.12,1.12,0,0,1,1.6.18,10.37,10.37,0,0,1,.63.85l-.07.09-.2-.11a5.51,5.51,0,0,0-.73-.45,1.15,1.15,0,0,0-1.25.25,5.17,5.17,0,0,0-1.29,1.93,1.86,1.86,0,0,0-.1.25Z"/>
          <path class="cls-26" d="M161.13,18c-.2-.28-.39-.57-.6-.83a6.56,6.56,0,0,0-.62-.67,1.25,1.25,0,0,0-.4-.24.54.54,0,0,0-.69.24c-.12.2-.2.44-.33.66a2.12,2.12,0,0,1,0-1.09.67.67,0,0,1,.95-.44,1.68,1.68,0,0,1,.6.37,4.91,4.91,0,0,1,1.1,1.82.38.38,0,0,1,0,.15Z"/>
          <path class="cls-9" d="M156.45,18.41l.07.18-.05,0,0-.19Z"/>
          <path class="cls-9" d="M158.88,18s0,0,0,0a.25.25,0,0,1,0-.07s0,0,0,0A.24.24,0,0,1,158.88,18Z"/>
          <path class="cls-26" d="M161.15,17.92l.07.14-.05,0,0-.13Z"/>
          <path class="cls-26" d="M155.85,17.63s0,0,0,0,0,0,0,0,0,0,0,0Z"/>
          <polygon class="cls-26" points="152.11 19.55 152.11 19.57 152.09 19.57 152.11 19.55"/>
          <path class="cls-25" d="M155.78,18.85a0,0,0,0,1,0,0l0,0h.05Z"/>
          <path class="cls-23" d="M159.78,22.66c0-.26,0-.46,0-.65s.15-.31.3-.26.19.2.16.35S160.09,22.43,159.78,22.66Z"/>
          <path class="cls-24" d="M158.6,29.29l.3.92.15.41a2.74,2.74,0,0,0,1.83,1.72l.12,0c.5.19.59.42.35.92a1,1,0,0,1-1.07.71.71.71,0,0,1,0-.15,1.16,1.16,0,0,0-.57-1.1,2.76,2.76,0,0,1-1.13-1.57,2.86,2.86,0,0,1-.08-1.45,2,2,0,0,0,0-.43Z"/>
          <path class="cls-24" d="M160.82,29.08a2.24,2.24,0,0,0,2.34,0,2,2,0,0,1,.36-.16c.36-.12.54,0,.57.39a1.47,1.47,0,0,1-.8,1.41c-.08-.38-.36-.44-.66-.5a3.12,3.12,0,0,1-1.32-.5.94.94,0,0,1-.49-.64Z"/>
          <path class="cls-9" d="M159.62,30.84l-.11-.12,0,0,.09.13Z"/>
          <path class="cls-24" d="M160.82,29.08l0,0,0,0Z"/>
          <path class="cls-27" d="M153.52,23.1a3,3,0,0,1-.39-1.79,3.54,3.54,0,0,1,.28-1.06A1.18,1.18,0,0,1,155,19.6a2,2,0,0,1,1,3,.59.59,0,0,1-.64.25A3,3,0,0,0,153.52,23.1Zm1.76-2.49a.89.89,0,0,0-1.08-.1,1.1,1.1,0,0,0-.52,1.08.87.87,0,0,0,.88.85.89.89,0,0,0,.95-.73,5.22,5.22,0,0,0,.05-.58l-.72.11-.05-.09Z"/>
          <path class="cls-17" d="M154.1,19.23l0,0,0,0s0,0,0,0Z"/>
          <path class="cls-23" d="M155.28,20.61l-.49.54.05.09.72-.11a5.22,5.22,0,0,1-.05.58.89.89,0,0,1-.95.73.87.87,0,0,1-.88-.85,1.1,1.1,0,0,1,.52-1.08A.89.89,0,0,1,155.28,20.61Z"/>
        </g>
      </g>
      <rect class="cls-7" y="120.36" width="164.51" height="33.22" rx="16.61"/>
      <rect class="cls-28" x="142.68" y="120.36" width="164.51" height="33.22" rx="16.61"/>
      <g>
        <path class="cls-5" d="M25.05,136.59v.29h-.7v-.33a6,6,0,0,0-.12-.85.86.86,0,0,0-.09-.3,2.67,2.67,0,0,0-.16-.53v-.08a3.06,3.06,0,0,0-.29-.57c-.07-.11-.14-.22-.2-.33a.14.14,0,0,0,0-.09,5.1,5.1,0,0,0-1.27-1.18.78.78,0,0,0-.28-.16,2.89,2.89,0,0,0-.58-.3h0a8.45,8.45,0,0,0-.85-.28,5,5,0,0,0-1.09-.12h-.08v-.63a.12.12,0,0,1,.11-.13h.22a1.69,1.69,0,0,1,.45,0,.22.22,0,0,1,.16,0,10.29,10.29,0,0,1,1.09.29,5.89,5.89,0,0,1,2.71,2h0a.51.51,0,0,1,.13.16,3.43,3.43,0,0,1,.28.49,2.22,2.22,0,0,1,.28.58c.09.2.17.41.26.63s.07.17,0,.21a6.21,6.21,0,0,1,.16.86v.38h0Z"/>
        <path class="cls-5" d="M13.08,133.4v-.12a.5.5,0,0,1,.09-.24.45.45,0,0,1,.16-.22c.24-.24.49-.45.7-.7a1.59,1.59,0,0,1,.24-.2.41.41,0,0,1,.33-.11h.53l.3.07a1.63,1.63,0,0,1,.89.82,1.81,1.81,0,0,1,.17.46c.12.37.2.77.29,1.14a1.53,1.53,0,0,1-.17,1.09,1.57,1.57,0,0,1-.2.3c-.13.13-.27.25-.41.37s-.09.12,0,.19a2.85,2.85,0,0,1,.17.46,4.41,4.41,0,0,0,.24.54,7.34,7.34,0,0,0,.63.94c.08.08.12.16.21.25a6,6,0,0,0,1.52,1.18l.56.24a1.85,1.85,0,0,0,.5.17H20l.42-.41a1.44,1.44,0,0,1,1.09-.45,2.4,2.4,0,0,1,.53.12h.08c.33.08.7.21,1,.29h.08a1.34,1.34,0,0,1,.82.74,1,1,0,0,0,.12.29.75.75,0,0,0,.08.24v.4a.74.74,0,0,1,0,.21,1.66,1.66,0,0,1-.42.63l-.56.57a.86.86,0,0,1-.26.2,1,1,0,0,1-.41.12h-.63a4.53,4.53,0,0,1-.74-.07,6.76,6.76,0,0,1-.78-.17,8.35,8.35,0,0,1-1.39-.45.34.34,0,0,1-.17-.08,1.39,1.39,0,0,0-.28-.12c-.21-.13-.45-.21-.63-.33s-.58-.37-.87-.53-.44-.37-.69-.54a5.08,5.08,0,0,1-.7-.69c-.21-.21-.37-.45-.57-.64a.55.55,0,0,0-.17-.2.14.14,0,0,0-.08-.12,8.79,8.79,0,0,1-.53-.87,3.51,3.51,0,0,1-.33-.64l-.12-.24c-.09-.21-.17-.46-.25-.7a3.54,3.54,0,0,1-.25-.9.53.53,0,0,0,0-.25,1.06,1.06,0,0,0-.09-.36v-.21a5.56,5.56,0,0,0-.08-.7v-.73h0Z"/>
        <path class="cls-5" d="M19.08,133.89v-.7a.1.1,0,0,1,.09-.08h0a2.35,2.35,0,0,1,.53,0,.49.49,0,0,1,.24,0l.74.25a3.75,3.75,0,0,1,2,2.64h0v.18a3.84,3.84,0,0,0,0,.48c0,.12,0,.12-.12.12H22v-.53a1.25,1.25,0,0,0-.09-.37A3,3,0,0,0,20,134a.72.72,0,0,0-.32-.08h-.56Z"/>
        <path class="cls-5" d="M19.19,136.15s-.12-.09-.12-.17v-.63a1.13,1.13,0,0,1,.57.12.21.21,0,0,1,.16.08.15.15,0,0,1,.13.08,1.85,1.85,0,0,1,.37.37,1.22,1.22,0,0,1,.17.29,3.89,3.89,0,0,1,.12.49v.12H20a.13.13,0,0,1-.13-.11h0a.63.63,0,0,0-.37-.54l-.19-.08h-.09Z"/>
      </g>
      <path class="cls-5" d="M163.31,132.55a3.65,3.65,0,0,0-2-.94,1.66,1.66,0,0,1-.63-.09h-1.09a3,3,0,0,0-1,.13,4.63,4.63,0,0,0-3.06,4.36,6,6,0,0,0,.63,2.67,13.59,13.59,0,0,0,3.27,4.22,1.36,1.36,0,0,0,.7.37h.37A1.2,1.2,0,0,0,161,143c.38-.35.75-.72,1.09-1.09a17.59,17.59,0,0,0,1.9-2.55,7.06,7.06,0,0,0,1-3.1,4.7,4.7,0,0,0-1.65-3.81h0Zm-3.07,5.9a2.32,2.32,0,0,1,0-4.63h0a2.32,2.32,0,0,1-.08,4.63h.08Z"/>
      <g>
        <path class="cls-5" d="M178.14,135.4h-3.41l1.59-8h3.35a2.55,2.55,0,0,1,1.69.46,1.51,1.51,0,0,1,.53,1.18,2.13,2.13,0,0,1-.46,1.33,2.45,2.45,0,0,1-1.41.82,1.75,1.75,0,0,1,1.12.58,1.63,1.63,0,0,1,.35,1,2.22,2.22,0,0,1-.44,1.41,2.87,2.87,0,0,1-1.28.87A5.11,5.11,0,0,1,178.14,135.4Zm.07-.84a3.14,3.14,0,0,0,1.69-.41,1.36,1.36,0,0,0,.67-1.25,1,1,0,0,0-.49-.89,2.65,2.65,0,0,0-1.29-.28h-2.41l-.58,2.83Zm.74-3.67a3,3,0,0,0,.94-.14,1.54,1.54,0,0,0,.75-.49,1.36,1.36,0,0,0,.29-.93c0-.67-.48-1-1.45-1h-2.41l-.53,2.57Z"/>
        <path class="cls-5" d="M185.3,135.41a2.5,2.5,0,0,1-1.84-.71,2.6,2.6,0,0,1-.71-1.93,3.27,3.27,0,0,1,.94-2.38,3.09,3.09,0,0,1,2.31-1,2.17,2.17,0,0,1,2.29,1.62l.32-1.62h.87l-1.19,6h-.88l.23-1.11A2.9,2.9,0,0,1,185.3,135.41Zm.29-.75a2.25,2.25,0,0,0,1.73-.74,2.49,2.49,0,0,0,.69-1.77,1.81,1.81,0,0,0-.56-1.43,1.91,1.91,0,0,0-1.36-.5,2.26,2.26,0,0,0-1.76.75,2.51,2.51,0,0,0-.68,1.76,2.11,2.11,0,0,0,.22,1,1.69,1.69,0,0,0,.66.69A2.06,2.06,0,0,0,185.59,134.66Z"/>
        <path class="cls-5" d="M191.34,135.4h-.88l1.18-6h.88l-.26,1.29a2.75,2.75,0,0,1,2.4-1.29l-.12.83a2.43,2.43,0,0,0-1.69.57,3,3,0,0,0-.89,1.48Z"/>
        <path class="cls-5" d="M195.59,135.4h-.89l1.18-6h.89l-.26,1.29a2.74,2.74,0,0,1,2.39-1.29l-.11.83a2.48,2.48,0,0,0-1.7.57,3.09,3.09,0,0,0-.89,1.48Z"/>
        <path class="cls-5" d="M199.82,135.4H199l1.18-6H201Zm1-7.14a.39.39,0,0,1-.35-.17.55.55,0,0,1-.12-.35.62.62,0,0,1,.23-.51A.72.72,0,0,1,201,127a.42.42,0,0,1,.37.16.59.59,0,0,1,.1.34.62.62,0,0,1-.23.52A.73.73,0,0,1,200.79,128.26Z"/>
        <path class="cls-5" d="M204.73,135.41a2.88,2.88,0,0,1-1.52-.37,2.35,2.35,0,0,1-.92-1,2.93,2.93,0,0,1-.31-1.36,3,3,0,0,1,1-2.39,3.41,3.41,0,0,1,2.36-.89,2.94,2.94,0,0,1,1.53.37,2.41,2.41,0,0,1,.93,1,3,3,0,0,1,.3,1.33,3.37,3.37,0,0,1-.21,1.23,2.92,2.92,0,0,1-.59,1,3.11,3.11,0,0,1-.86.68A3.51,3.51,0,0,1,204.73,135.41Zm.07-.77a2.34,2.34,0,0,0,2.38-2.46,2.06,2.06,0,0,0-.49-1.4,1.78,1.78,0,0,0-1.44-.57,2.37,2.37,0,0,0-1.67.66,2.31,2.31,0,0,0-.71,1.78,2,2,0,0,0,.51,1.43A1.86,1.86,0,0,0,204.8,134.64Z"/>
        <path class="cls-5" d="M213.64,135.41a1.05,1.05,0,0,1-.74-.27,1,1,0,0,1-.3-.8,2.15,2.15,0,0,1,0-.43L214,127h.87l-1.4,6.86,0,.25c0,.3.14.44.41.44a1.17,1.17,0,0,0,.7-.27l.08.75A2.25,2.25,0,0,1,213.64,135.41Z"/>
        <path class="cls-5" d="M218.31,135.41a2.51,2.51,0,0,1-1.85-.71,2.64,2.64,0,0,1-.71-1.93,3.27,3.27,0,0,1,.94-2.38,3.09,3.09,0,0,1,2.31-1,2.17,2.17,0,0,1,2.29,1.62l.32-1.62h.87l-1.19,6h-.87l.23-1.11A2.93,2.93,0,0,1,218.31,135.41Zm.28-.75a2.29,2.29,0,0,0,1.74-.74,2.53,2.53,0,0,0,.68-1.77,1.84,1.84,0,0,0-.55-1.43,2,2,0,0,0-1.37-.5,2.26,2.26,0,0,0-1.76.75,2.56,2.56,0,0,0-.68,1.76,2,2,0,0,0,.23,1,1.69,1.69,0,0,0,.66.69A2,2,0,0,0,218.59,134.66Z"/>
        <path class="cls-5" d="M226.57,137.61a1.71,1.71,0,0,1-1.21-.45l.46-.66a1.32,1.32,0,0,0,.76.26,1.63,1.63,0,0,0,1.33-.87l.35-.54L227,129.43h.92l1,5,2.91-5h.92l-4.12,6.83A2.35,2.35,0,0,1,226.57,137.61Z"/>
        <path class="cls-5" d="M232.27,136.65h-.5l.56-1.24a.47.47,0,0,1-.25-.44.63.63,0,0,1,.16-.41.5.5,0,0,1,.43-.2.48.48,0,0,1,.36.14.49.49,0,0,1,.14.36,1.09,1.09,0,0,1-.2.54Z"/>
        <path class="cls-5" d="M242,135.41a3.76,3.76,0,0,1-2-.51,3.92,3.92,0,0,1-1-.9,3.44,3.44,0,0,1-.55-1.12,4,4,0,0,1,1.26-4.24,4.51,4.51,0,0,1,3.11-1.19,3.72,3.72,0,0,1,2.8,1.23l-.61.64a2.92,2.92,0,0,0-2.24-1,3.5,3.5,0,0,0-2.35.86,3.72,3.72,0,0,0-1.23,2.47,2.82,2.82,0,0,0,2.92,2.95,3.8,3.8,0,0,0,2.45-.94l.49.58A4.63,4.63,0,0,1,242,135.41Z"/>
        <path class="cls-5" d="M248.71,135.41a2.49,2.49,0,0,1-1.84-.71,2.6,2.6,0,0,1-.71-1.93,3.3,3.3,0,0,1,.93-2.38,3.13,3.13,0,0,1,2.31-1,2.18,2.18,0,0,1,2.3,1.62l.31-1.62h.88l-1.19,6h-.88l.23-1.11A2.9,2.9,0,0,1,248.71,135.41Zm.28-.75a2.26,2.26,0,0,0,1.74-.74,2.53,2.53,0,0,0,.68-1.77,1.8,1.8,0,0,0-.55-1.43,1.93,1.93,0,0,0-1.37-.5,2.28,2.28,0,0,0-1.76.75,2.56,2.56,0,0,0-.68,1.76,2.11,2.11,0,0,0,.23,1,1.69,1.69,0,0,0,.66.69A2,2,0,0,0,249,134.66Z"/>
        <path class="cls-5" d="M252.68,137.61a2.44,2.44,0,0,1-.92-.19l.29-.66a2.69,2.69,0,0,0,.47.08c.66,0,1.07-.43,1.25-1.3l1.23-6.11h.89l-1.26,6.3C254.37,137,253.72,137.61,252.68,137.61Zm2.94-9.35a.41.41,0,0,1-.35-.17.66.66,0,0,1,.11-.86.72.72,0,0,1,.48-.19.4.4,0,0,1,.37.16.6.6,0,0,1,.11.34.65.65,0,0,1-.23.52A.75.75,0,0,1,255.62,128.26Z"/>
        <path class="cls-5" d="M257.71,135.4h-.87l1.18-6h.89Zm1-7.14a.39.39,0,0,1-.35-.17.55.55,0,0,1-.12-.35.62.62,0,0,1,.23-.51.72.72,0,0,1,.48-.19.42.42,0,0,1,.37.16.59.59,0,0,1,.1.34.62.62,0,0,1-.23.52A.73.73,0,0,1,258.68,128.26Z"/>
        <path class="cls-5" d="M262.55,135.41a2.72,2.72,0,0,1-1.49-.37,2.34,2.34,0,0,1-.9-1,3.36,3.36,0,0,1,.66-3.71,3.26,3.26,0,0,1,2.33-.91,2.75,2.75,0,0,1,2.22.9l-.55.6a2.12,2.12,0,0,0-1.71-.7,2.38,2.38,0,0,0-1.67.65,2.35,2.35,0,0,0-.7,1.78,2.08,2.08,0,0,0,.5,1.39,1.75,1.75,0,0,0,1.42.58,2.61,2.61,0,0,0,1.93-.76l.46.52A3.28,3.28,0,0,1,262.55,135.41Z"/>
        <path class="cls-5" d="M268.71,135.41a2.5,2.5,0,0,1-1.84-.71,2.64,2.64,0,0,1-.71-1.93,3.27,3.27,0,0,1,.94-2.38,3.09,3.09,0,0,1,2.31-1A2.17,2.17,0,0,1,271.7,131l.32-1.62h.87l-1.19,6h-.87l.22-1.11A2.9,2.9,0,0,1,268.71,135.41Zm.29-.75a2.29,2.29,0,0,0,1.74-.74,2.53,2.53,0,0,0,.68-1.77,1.84,1.84,0,0,0-.55-1.43,2,2,0,0,0-1.37-.5,2.26,2.26,0,0,0-1.76.75,2.51,2.51,0,0,0-.68,1.76,2.11,2.11,0,0,0,.22,1,1.78,1.78,0,0,0,.67.69A2,2,0,0,0,269,134.66Zm1.36-6.2-.77-.09,1.28-1.44.9.41Z"/>
        <path class="cls-5" d="M177.89,145.79h-3v-7.15h3a3.78,3.78,0,0,1,2.71,1,3.68,3.68,0,0,1,0,5.16A3.85,3.85,0,0,1,177.89,145.79Zm.1-1.36a2.17,2.17,0,0,0,.76-.13,1.82,1.82,0,0,0,.67-.39,2,2,0,0,0,.47-.68,2.57,2.57,0,0,0,.18-1,2.12,2.12,0,0,0-2.15-2.22h-1.39v4.43Z"/>
        <path class="cls-5" d="M183.53,139.61a.75.75,0,0,1-.63-.27,1,1,0,0,1-.22-.61.84.84,0,0,1,.26-.66.87.87,0,0,1,.59-.22.81.81,0,0,1,.62.25.85.85,0,0,1,.24.63.94.94,0,0,1-.21.61A.79.79,0,0,1,183.53,139.61Zm.79,6.18h-1.57v-5.5h1.57Z"/>
        <path class="cls-5" d="M187.29,145.79a2.15,2.15,0,0,1-1.07-.23,1.63,1.63,0,0,1-.62-.63,1.91,1.91,0,0,1-.2-.86,1.52,1.52,0,0,1,.5-1.18,2.37,2.37,0,0,1,1.6-.45H189a.85.85,0,0,0-.29-.7,1.43,1.43,0,0,0-.86-.22,4,4,0,0,0-1.63.43l-.49-1a5.16,5.16,0,0,1,2.48-.63,2.47,2.47,0,0,1,1.77.54,1.91,1.91,0,0,1,.56,1.41v3.55H189v-.68A2.1,2.1,0,0,1,187.29,145.79Zm.44-1.12a1.49,1.49,0,0,0,.88-.23,1.06,1.06,0,0,0,.4-.6v-.49h-1.24q-.9,0-.9.63a.65.65,0,0,0,.21.49A.9.9,0,0,0,187.73,144.67Z"/>
        <path class="cls-5" d="M194.14,147.78a4.07,4.07,0,0,1-2.39-.73l.58-1.1a2.88,2.88,0,0,0,1.71.55,1.79,1.79,0,0,0,1-.3,1.07,1.07,0,0,0,.43-.93v-.62a1.91,1.91,0,0,1-1.66.8,2.32,2.32,0,0,1-1.71-.68,2.6,2.6,0,0,1-.69-1.93,3.31,3.31,0,0,1,.14-1,2.36,2.36,0,0,1,.42-.82,2.06,2.06,0,0,1,.73-.57,2.52,2.52,0,0,1,1.07-.21,2,2,0,0,1,1.7.78v-.78h1.56v5a2.26,2.26,0,0,1-.83,1.87A3.21,3.21,0,0,1,194.14,147.78Zm.08-3.53a1.15,1.15,0,0,0,1-.4,1.53,1.53,0,0,0,.32-1,1.56,1.56,0,0,0-.32-1,1.38,1.38,0,0,0-1.94,0,1.76,1.76,0,0,0-.33,1,1.55,1.55,0,0,0,.32,1A1.16,1.16,0,0,0,194.22,144.25Z"/>
        <path class="cls-5" d="M201,145.79a3.23,3.23,0,0,1-1.62-.37,2.48,2.48,0,0,1-1-1A3,3,0,0,1,198,143a2.77,2.77,0,0,1,.39-1.52,2.6,2.6,0,0,1,1.1-.93,3.57,3.57,0,0,1,1.46-.3,3.15,3.15,0,0,1,2.1.7,2.5,2.5,0,0,1,.85,2,3.21,3.21,0,0,1-.17,1,2.53,2.53,0,0,1-1.45,1.51A3.56,3.56,0,0,1,201,145.79Zm0-1.27a1.33,1.33,0,0,0,1.37-1.46A1.39,1.39,0,0,0,202,142a1.46,1.46,0,0,0-1.94,0,1.4,1.4,0,0,0-.41,1.09,1.34,1.34,0,0,0,1.38,1.46Z"/>
        <path class="cls-5" d="M210.47,145.79h-1.58v-2.95a1.21,1.21,0,0,0-.25-.79,1,1,0,0,0-.83-.32,1.33,1.33,0,0,0-1,.46,1.48,1.48,0,0,0-.3.93v2.67H205v-5.5h1.57v1a2,2,0,0,1,1.9-1,2.49,2.49,0,0,1,1,.2,1.72,1.72,0,0,1,.75.67,2.28,2.28,0,0,1,.29,1.21Z"/>
        <path class="cls-5" d="M213.29,145.79a2.12,2.12,0,0,1-1.07-.23,1.5,1.5,0,0,1-.62-.63,1.79,1.79,0,0,1-.2-.86,1.49,1.49,0,0,1,.5-1.18,2.32,2.32,0,0,1,1.59-.45H215a.84.84,0,0,0-.28-.7,1.47,1.47,0,0,0-.86-.22,4,4,0,0,0-1.64.43l-.49-1a5.2,5.2,0,0,1,2.49-.63,2.46,2.46,0,0,1,1.76.54,1.88,1.88,0,0,1,.57,1.41v3.55H215v-.68A2.08,2.08,0,0,1,213.29,145.79Zm.43-1.12a1.49,1.49,0,0,0,.88-.23,1,1,0,0,0,.4-.6v-.49h-1.23q-.9,0-.9.63a.64.64,0,0,0,.2.49A.94.94,0,0,0,213.72,144.67Z"/>
        <path class="cls-5" d="M219.52,145.79a1.91,1.91,0,0,1-.81-.18,1.47,1.47,0,0,1-.64-.6,2.25,2.25,0,0,1-.25-1.11v-5.76h1.56v5.66c0,.4.17.6.5.6a1.18,1.18,0,0,0,.53-.16l.15,1.31A2.57,2.57,0,0,1,219.52,145.79Z"/>
        <path class="cls-5" d="M229.69,142.88v1.3h-1v1.61h-1.49v-1.61H223.9V143l2.18-4.4h1.53l-2.05,4.24h1.67v-1.59h1.49v1.59Z"/>
        <path class="cls-5" d="M238.19,145.79h-1.13l.21-1.63h-1.56l-.2,1.63h-1.15l.21-1.63h-1.39l.12-1.14h1.41l.18-1.59h-1.38l.13-1.14H235l.21-1.65h1.14l-.22,1.65h1.55l.22-1.65h1.14l-.21,1.65h1.39l-.11,1.14h-1.42l-.19,1.59h1.38l-.12,1.14h-1.4ZM237.4,143l.19-1.59H236l-.2,1.59Z"/>
        <path class="cls-5" d="M249.6,142.88v1.3h-1v1.61h-1.49v-1.61h-3.33V143l2.19-4.4h1.53l-2.06,4.24h1.67v-1.59h1.49v1.59Z"/>
        <path class="cls-5" d="M253.05,143.18h-2.64v-1h2.64Z"/>
        <path class="cls-5" d="M257.68,145.79h-1.61V140h-1.44v-1.37h3.05Z"/>
        <path class="cls-5" d="M264.34,140a2.82,2.82,0,0,0-.81-.11,1.68,1.68,0,0,0-1.35.53,2.17,2.17,0,0,0-.43,1.47,2,2,0,0,1,1.79-.86,2.23,2.23,0,0,1,1.67.63,2.3,2.3,0,0,1,.62,1.68,2.58,2.58,0,0,1-.32,1.3,2.2,2.2,0,0,1-.91.85,3.33,3.33,0,0,1-3-.12,2.75,2.75,0,0,1-1-1.19,4.41,4.41,0,0,1-.36-1.86,4.59,4.59,0,0,1,.39-2,3,3,0,0,1,1.12-1.29,3,3,0,0,1,1.68-.46,4.52,4.52,0,0,1,1.18.16,4,4,0,0,1,1,.41l-.6,1.11A2.66,2.66,0,0,0,264.34,140Zm-2.06,2.55a1.19,1.19,0,0,0,0,1.6,1.42,1.42,0,0,0,1.77,0,1.08,1.08,0,0,0,.33-.84,1.06,1.06,0,0,0-.31-.8,1.16,1.16,0,0,0-.85-.3A1.3,1.3,0,0,0,262.28,142.56Z"/>
        <path class="cls-5" d="M266.65,138.64h5.6v1.15l-2.82,6h-1.7l2.72-5.8h-2.36v1h-1.43Z"/>
        <path class="cls-5" d="M278.77,145.79a2.81,2.81,0,0,1-2.12-.78,2.7,2.7,0,0,1-.75-1.95,2.66,2.66,0,0,1,.8-2,2.91,2.91,0,0,1,2-.73,3.09,3.09,0,0,1,1.55.35,2.18,2.18,0,0,1,.88,1,3.61,3.61,0,0,1,.27,1.43v.38h-3.94a1.38,1.38,0,0,0,1.42,1.1,2,2,0,0,0,1.39-.58l.83.83A3,3,0,0,1,278.77,145.79Zm1.18-3.25a1.09,1.09,0,0,0-1.21-1.1,1.25,1.25,0,0,0-.92.31,1.3,1.3,0,0,0-.37.79Z"/>
      </g>
      <g>
        <path class="cls-5" d="M42.63,131.91a1.85,1.85,0,0,1,.56,1.39,2.27,2.27,0,0,1-.38,1.28,2.52,2.52,0,0,1-1.09.87,4.1,4.1,0,0,1-1.64.31,5.45,5.45,0,0,1-1.64-.26,4.5,4.5,0,0,1-1.37-.68l.74-1.38a3.31,3.31,0,0,0,2.12.79,1.6,1.6,0,0,0,1-.25.86.86,0,0,0,0-1.37,1.77,1.77,0,0,0-1-.23h-1.3v-1.06l1.78-1.69H37.46V128.1h5.35v1.16l-2.07,1.9.39.08A2.55,2.55,0,0,1,42.63,131.91Z"/>
        <path class="cls-5" d="M48,135.75H46v-6H44.55V128.1H48Z"/>
        <path class="cls-5" d="M54.75,135.75h-2v-6H51.28V128.1h3.47Z"/>
        <path class="cls-5" d="M65.6,128.64a1.74,1.74,0,0,1,.49,2.3,1.72,1.72,0,0,1-.67.64,2.17,2.17,0,0,1,1,.79,2,2,0,0,1,0,2.34,2.6,2.6,0,0,1-1.08.78,4.53,4.53,0,0,1-1.63.27,4.43,4.43,0,0,1-1.62-.27,2.49,2.49,0,0,1-1.07-.77,1.89,1.89,0,0,1-.38-1.17,2,2,0,0,1,.38-1.17,2.33,2.33,0,0,1,1-.8,2,2,0,0,1-.74-.68A1.59,1.59,0,0,1,61,130a1.64,1.64,0,0,1,.33-1,2,2,0,0,1,.94-.68,4,4,0,0,1,1.4-.23A3.22,3.22,0,0,1,65.6,128.64Zm-2.85,4a.85.85,0,0,0-.31.71.83.83,0,0,0,.31.7,1.43,1.43,0,0,0,.89.25,1.51,1.51,0,0,0,.91-.25.83.83,0,0,0,.31-.7.85.85,0,0,0-.31-.71,1.48,1.48,0,0,0-.9-.24A1.46,1.46,0,0,0,62.75,132.64Zm.14-3a.65.65,0,0,0-.27.56.62.62,0,0,0,.27.54,1.22,1.22,0,0,0,.75.2,1.25,1.25,0,0,0,.76-.2.61.61,0,0,0,.26-.54.65.65,0,0,0-.26-.56,1.25,1.25,0,0,0-.76-.2A1.22,1.22,0,0,0,62.89,129.64Z"/>
        <path class="cls-5" d="M72.66,129.09a4.48,4.48,0,0,1,.79,2.83,4.56,4.56,0,0,1-.79,2.85,2.75,2.75,0,0,1-2.28,1,2.72,2.72,0,0,1-2.27-1,4.5,4.5,0,0,1-.79-2.85,4.42,4.42,0,0,1,.79-2.83,2.72,2.72,0,0,1,2.27-1A2.75,2.75,0,0,1,72.66,129.09Zm-3.06,1a7.12,7.12,0,0,0,0,3.59.84.84,0,0,0,1.57,0,6.83,6.83,0,0,0,0-3.59.84.84,0,0,0-1.57,0Z"/>
        <path class="cls-5" d="M74.11,128.1h6.1v1.39l-2.88,6.26h-2.1l2.77-6H75.89v1.08H74.11Z"/>
        <path class="cls-5" d="M88.73,131.09a2.39,2.39,0,0,1,1,.82,2.07,2.07,0,0,1,.36,1.2,2.56,2.56,0,0,1-.38,1.39,2.5,2.5,0,0,1-1.09.93,3.86,3.86,0,0,1-1.65.33,5.27,5.27,0,0,1-1.58-.26,5.66,5.66,0,0,1-1.44-.69l.74-1.44a3.31,3.31,0,0,0,2.06.85,1.36,1.36,0,0,0,.88-.25.84.84,0,0,0,.31-.7q0-.9-1.23-.9h-2.1V128.1h5.14v1.61h-3.3v1.08h.67A3.82,3.82,0,0,1,88.73,131.09Z"/>
        <path class="cls-5" d="M96.88,134.18v1.57H91v-1.32l2.83-2.81a4.05,4.05,0,0,0,.55-.67,1.15,1.15,0,0,0,.21-.57.54.54,0,0,0-.24-.47,1.08,1.08,0,0,0-.66-.17,2.41,2.41,0,0,0-1,.26,5.22,5.22,0,0,0-1.12.73l-.76-1.49a5.52,5.52,0,0,1,3.21-1.14,3.59,3.59,0,0,1,1.39.25,2.29,2.29,0,0,1,1,.69,1.64,1.64,0,0,1,.34,1,2.32,2.32,0,0,1-.39,1.21,7.15,7.15,0,0,1-1.09,1.32l-1.65,1.58Z"/>
        <path class="cls-5" d="M101.09,129.62a1.69,1.69,0,0,0-1.32.48,1.89,1.89,0,0,0-.43,1.36,2,2,0,0,1,1.78-.82,2.57,2.57,0,0,1,1.29.31,2.16,2.16,0,0,1,.85.87,2.75,2.75,0,0,1,.3,1.31,2.64,2.64,0,0,1-.35,1.39,2.44,2.44,0,0,1-1,.92,3.56,3.56,0,0,1-3.21-.13A2.91,2.91,0,0,1,97.88,134a4.77,4.77,0,0,1-.38-2,4.86,4.86,0,0,1,.42-2.08,3.29,3.29,0,0,1,1.21-1.39,3.48,3.48,0,0,1,1.84-.48,5.32,5.32,0,0,1,1.29.17,4.6,4.6,0,0,1,1.14.46l-.73,1.31A2.94,2.94,0,0,0,101.09,129.62Zm-1.24,2.75a1,1,0,0,0-.3.77,1,1,0,0,0,.28.75,1.1,1.1,0,0,0,.84.3,1.13,1.13,0,0,0,.8-.28,1,1,0,0,0,.29-.79,1,1,0,0,0-.28-.77,1.06,1.06,0,0,0-.79-.28A1.17,1.17,0,0,0,99.85,132.37Z"/>
        <path class="cls-5" d="M108.93,131.09a2.36,2.36,0,0,1,1,.82,2,2,0,0,1,.37,1.2,2.44,2.44,0,0,1-1.47,2.32,3.92,3.92,0,0,1-1.65.33,5.27,5.27,0,0,1-1.58-.26,5.66,5.66,0,0,1-1.44-.69l.74-1.44a3.29,3.29,0,0,0,2.06.85,1.36,1.36,0,0,0,.88-.25.84.84,0,0,0,.31-.7q0-.9-1.23-.9h-2.1V128.1H110v1.61h-3.31v1.08h.68A3.82,3.82,0,0,1,108.93,131.09Z"/>
        <path class="cls-5" d="M43.36,138.39,40.18,141l.46.06a2.65,2.65,0,0,1,1.63.45,1.43,1.43,0,0,1,.59,1.22,2.33,2.33,0,0,1-.43,1.38,2.92,2.92,0,0,1-1.22,1,4.27,4.27,0,0,1-1.79.36,4.57,4.57,0,0,1-1.38-.21,3.4,3.4,0,0,1-1.11-.56l.51-.7a2.8,2.8,0,0,0,.93.52,3.32,3.32,0,0,0,1.13.2,3.52,3.52,0,0,0,1.31-.24,2.07,2.07,0,0,0,.88-.66,1.6,1.6,0,0,0,.3-.95,1,1,0,0,0-.49-.92,2.63,2.63,0,0,0-1.41-.31h-1l.1-.56,3-2.45H38.5l.13-.81h4.83Z"/>
        <path class="cls-5" d="M49.57,138.53a3.09,3.09,0,0,1,.59,2,6.75,6.75,0,0,1-.45,2.55,3.92,3.92,0,0,1-1.31,1.73,3.45,3.45,0,0,1-2,.62,2.09,2.09,0,0,1-1.72-.72,3.1,3.1,0,0,1-.6-2,6.5,6.5,0,0,1,.46-2.54,3.86,3.86,0,0,1,1.31-1.73,3.42,3.42,0,0,1,2-.62A2.11,2.11,0,0,1,49.57,138.53Zm-3.38.57a3.39,3.39,0,0,0-.94,1.51,6.58,6.58,0,0,0-.31,2.08,2.54,2.54,0,0,0,.39,1.53,1.38,1.38,0,0,0,1.16.52,2.21,2.21,0,0,0,1.54-.57,3.38,3.38,0,0,0,.93-1.52,6.62,6.62,0,0,0,.31-2.08,2.51,2.51,0,0,0-.39-1.52,1.37,1.37,0,0,0-1.16-.52A2.2,2.2,0,0,0,46.19,139.1Z"/>
        <path class="cls-5" d="M56.3,138.53a3.09,3.09,0,0,1,.6,2,6.55,6.55,0,0,1-.46,2.55,3.92,3.92,0,0,1-1.31,1.73,3.45,3.45,0,0,1-2,.62,2.11,2.11,0,0,1-1.72-.72,3.1,3.1,0,0,1-.59-2,6.69,6.69,0,0,1,.45-2.54,3.86,3.86,0,0,1,1.31-1.73,3.45,3.45,0,0,1,2-.62A2.09,2.09,0,0,1,56.3,138.53Zm-3.38.57a3.39,3.39,0,0,0-.94,1.51,6.58,6.58,0,0,0-.31,2.08,2.54,2.54,0,0,0,.39,1.53,1.38,1.38,0,0,0,1.16.52,2.21,2.21,0,0,0,1.54-.57,3.49,3.49,0,0,0,.94-1.52,6.92,6.92,0,0,0,.3-2.08,2.51,2.51,0,0,0-.39-1.52,1.35,1.35,0,0,0-1.16-.52A2.2,2.2,0,0,0,52.92,139.1Z"/>
        <path class="cls-5" d="M66.81,142.63l-.14.8H65.46l-.39,2h-.82l.39-2H60.82l.14-.71,3.77-4.91h.86l-3.67,4.82H64.8l.4-2H66l-.41,2Z"/>
        <path class="cls-5" d="M68.69,144.57a3.21,3.21,0,0,0,.92.14,2.47,2.47,0,0,0,2-.92,4.74,4.74,0,0,0,1-2.51,2.54,2.54,0,0,1-1,1,3,3,0,0,1-1.46.35,2.22,2.22,0,0,1-1.56-.51,1.84,1.84,0,0,1-.56-1.41,2.93,2.93,0,0,1,.39-1.51,2.7,2.7,0,0,1,1.08-1,3.21,3.21,0,0,1,1.56-.37,2.36,2.36,0,0,1,1.85.72,2.92,2.92,0,0,1,.64,2,6,6,0,0,1-.51,2.5,4.33,4.33,0,0,1-1.42,1.77,3.43,3.43,0,0,1-2,.64,4,4,0,0,1-1.11-.16,4.62,4.62,0,0,1-1-.42l.48-.68A2.51,2.51,0,0,0,68.69,144.57Zm1.14-5.73a1.93,1.93,0,0,0-.76.71,2,2,0,0,0-.28,1,1.25,1.25,0,0,0,.41,1,1.65,1.65,0,0,0,1.13.36,2.38,2.38,0,0,0,1.13-.26,2.15,2.15,0,0,0,.8-.72,1.69,1.69,0,0,0,.29-1,1.37,1.37,0,0,0-.42-1,1.69,1.69,0,0,0-1.2-.41A2.35,2.35,0,0,0,69.83,138.84Z"/>
        <path class="cls-5" d="M75,144.7h4.66l-.14.75H73.81l.13-.7,3.76-3.09c1-.84,1.58-1.53,1.58-2.07a.85.85,0,0,0-.4-.74,2,2,0,0,0-1.11-.27,3.44,3.44,0,0,0-1.23.26,5.23,5.23,0,0,0-1.26.71l-.25-.64a5.92,5.92,0,0,1,1.47-.81,4.3,4.3,0,0,1,1.51-.29,2.78,2.78,0,0,1,1.62.42,1.33,1.33,0,0,1,.59,1.15,2.15,2.15,0,0,1-.52,1.29,9.78,9.78,0,0,1-1.48,1.47Z"/>
        <path class="cls-5" d="M85,144.7H89.7l-.15.75H83.81l.14-.7,3.76-3.09c1.05-.84,1.57-1.53,1.57-2.07a.83.83,0,0,0-.4-.74,1.94,1.94,0,0,0-1.11-.27,3.53,3.53,0,0,0-1.23.26,5.36,5.36,0,0,0-1.25.71l-.25-.64a5.69,5.69,0,0,1,1.46-.81,4.4,4.4,0,0,1,1.52-.29,2.78,2.78,0,0,1,1.62.42,1.35,1.35,0,0,1,.59,1.15,2.17,2.17,0,0,1-.53,1.29,8.92,8.92,0,0,1-1.48,1.47Z"/>
        <path class="cls-5" d="M92,137.81h5.65l-.13.71-4.78,6.93h-.93l4.73-6.83h-3.9l-.23,1.13h-.78Z"/>
        <path class="cls-5" d="M100,138.62l-.43,2.15a10.4,10.4,0,0,1,1.4-.09,2.67,2.67,0,0,1,1.74.52,1.71,1.71,0,0,1,.63,1.39,2.59,2.59,0,0,1-.43,1.47,2.83,2.83,0,0,1-1.2,1,4,4,0,0,1-1.74.37,4.35,4.35,0,0,1-1.35-.23,3.8,3.8,0,0,1-1.19-.6l.48-.71a3.34,3.34,0,0,0,1,.55,3.17,3.17,0,0,0,1.13.2,3,3,0,0,0,1.23-.24,2.06,2.06,0,0,0,.84-.69,1.73,1.73,0,0,0,.3-1,1.1,1.1,0,0,0-.47-.93,2.22,2.22,0,0,0-1.31-.33c-.26,0-.59,0-1,.06a9.68,9.68,0,0,0-1,.14l.75-3.87H104l-.14.81Z"/>
        <path class="cls-5" d="M105.62,144.57a3.32,3.32,0,0,0,.92.14,2.46,2.46,0,0,0,2-.92,4.83,4.83,0,0,0,1-2.51,2.63,2.63,0,0,1-1,1,2.92,2.92,0,0,1-1.46.35,2.22,2.22,0,0,1-1.56-.51,1.84,1.84,0,0,1-.56-1.41,2.93,2.93,0,0,1,.39-1.51,2.7,2.7,0,0,1,1.08-1,3.25,3.25,0,0,1,1.57-.37,2.34,2.34,0,0,1,1.84.72,2.92,2.92,0,0,1,.65,2,5.83,5.83,0,0,1-.52,2.5,4.25,4.25,0,0,1-1.42,1.77,3.43,3.43,0,0,1-2,.64,4.09,4.09,0,0,1-1.12-.16,4.73,4.73,0,0,1-1-.42l.48-.68A2.36,2.36,0,0,0,105.62,144.57Zm1.15-5.73a2,2,0,0,0-.77.71,2.06,2.06,0,0,0-.28,1,1.25,1.25,0,0,0,.41,1,1.67,1.67,0,0,0,1.13.36,2.35,2.35,0,0,0,1.13-.26,2.07,2.07,0,0,0,.8-.72,1.7,1.7,0,0,0,.3-1,1.34,1.34,0,0,0-.43-1,1.66,1.66,0,0,0-1.2-.41A2.31,2.31,0,0,0,106.77,138.84Z"/>
      </g>
    </g>
  </g>
</svg>
